<?xml version="1.0" encoding="UTF-8"?>
<svg id="Layer_1" data-name="Layer 1" xmlns="http://www.w3.org/2000/svg" viewBox="0 0 235.43 414.1">
  <defs>
    <style>
      .cls-1 {
        fill: none;
        stroke-width: 1.5px;
      }

      .cls-1, .cls-2 {
        stroke: #231f20;
        stroke-miterlimit: 10;
      }

      .cls-3 {
        fill: #f8b79d;
      }

      .cls-4 {
        fill: #f88e72;
      }

      .cls-5 {
        fill: #fa6a4a;
      }

      .cls-6 {
        fill: #eef2ff;
      }

      .cls-7 {
        fill: #ebefff;
      }

      .cls-8 {
        fill: #f76a4a;
      }

      .cls-9 {
        fill: #eb3b2b;
      }

      .cls-10 {
        fill: #fff;
      }

      .cls-11 {
        fill: #fae1d5;
      }

      .cls-12 {
        fill: #fbad90;
      }

      .cls-13 {
        fill: #fde4d8;
      }

      .cls-14 {
        fill: #931321;
      }

      .cls-15 {
        fill: #82172d;
      }

      .cls-16 {
        fill: #6baad2;
      }

      .cls-17 {
        fill: #6badd5;
      }

      .cls-18 {
        fill: #c2d7eb;
      }

      .cls-19 {
        fill: #95020e;
      }

      .cls-20 {
        fill: #b76d7a;
      }

      .cls-21 {
        fill: #996477;
      }

      .cls-22 {
        fill: #3281bc;
      }

      .cls-23 {
        fill: #8e3d52;
      }

      .cls-24 {
        fill: #32316a;
      }

      .cls-25 {
        fill: #a5899c;
      }

      .cls-26 {
        fill: #bcd6e6;
      }

      .cls-27 {
        fill: #b0b0c1;
      }

      .cls-28 {
        fill: #a5404d;
      }

      .cls-29 {
        fill: #ca98a5;
      }

      .cls-30 {
        fill: #dd2d26;
      }

      .cls-31 {
        fill: #c7191c;
      }

      .cls-32 {
        fill: #dcc5d2;
      }

      .cls-33 {
        fill: #2071b1;
      }

      .cls-34, .cls-2 {
        fill: #231f20;
      }

      .cls-35 {
        fill: #233877;
      }

      .cls-36 {
        fill: #418ec2;
      }

      .cls-37 {
        fill: #402b5d;
      }

      .cls-38 {
        fill: #064590;
      }

      .cls-39 {
        fill: #153e83;
      }

      .cls-40 {
        fill: #445b8c;
      }

      .cls-41 {
        fill: #a40f15;
      }

      .cls-42 {
        fill: #9ac6dd;
      }

      .cls-43 {
        fill: #703958;
      }

      .cls-44 {
        fill: #6f5677;
      }

      .cls-45 {
        fill: #711c38;
      }

      .cls-46 {
        fill: #6d7496;
      }

      .cls-47 {
        fill: #6c90b5;
      }

      .cls-48 {
        fill: #57345c;
      }

      .cls-49 {
        fill: #3b6ea4;
      }

      .cls-50 {
        fill: #602044;
      }

      .cls-51 {
        fill: #4f2450;
      }

      .cls-52 {
        fill: #4e4774;
      }

      .cls-2 {
        stroke-width: .5px;
      }
    </style>
  </defs>
  <path class="cls-34" d="m113.15,179.98l1.46-1.47,3.04,3.05v-12.2h2.13v12.2l3.05-3.05,1.44,1.47-5.56,5.56-5.57-5.56Z"/>
  <g>
    <g>
      <g>
        <rect class="cls-11" x="99.36" y="130.62" width="15.02" height="15.02"/>
        <rect class="cls-3" x="114.38" y="130.62" width="15.02" height="15.02"/>
        <rect class="cls-4" x="129.4" y="130.62" width="15.02" height="15.02"/>
        <rect class="cls-8" x="144.41" y="130.62" width="15.02" height="15.02"/>
        <rect class="cls-9" x="159.43" y="130.62" width="15.02" height="15.02"/>
        <rect class="cls-31" x="174.45" y="130.62" width="15.02" height="15.02"/>
        <rect class="cls-19" x="189.46" y="130.62" width="15.02" height="15.02"/>
      </g>
      <rect class="cls-1" x="98.9" y="130.62" width="105.12" height="15.02"/>
    </g>
    <g>
      <path class="cls-34" d="m103.91,153.13h-1.68c-.01-.16-.09-.28-.22-.37-.13-.09-.29-.13-.47-.13-.16,0-.29.03-.4.08s-.16.14-.16.24c0,.08.03.15.1.21.07.07.19.12.39.15l1.04.18c.52.09.91.25,1.16.47.26.22.39.53.39.9s-.11.68-.32.95c-.21.27-.5.47-.87.61-.37.14-.79.22-1.26.22-.78,0-1.39-.16-1.83-.48-.44-.32-.68-.74-.74-1.26h1.81c.03.16.11.28.25.37.14.09.31.13.51.13.17,0,.31-.03.42-.09s.16-.14.16-.24c0-.18-.19-.3-.58-.37l-.9-.16c-.52-.09-.9-.27-1.16-.52-.26-.25-.39-.58-.39-.98,0-.36.09-.66.29-.9.19-.25.46-.43.81-.56s.77-.19,1.25-.19c.74,0,1.31.15,1.74.46s.65.73.67,1.26Z"/>
      <path class="cls-34" d="m107.56,151.47v1.33h-3.35v-1.33h3.35Zm-2.71-1.21h1.83v4.67c0,.11.03.19.08.24s.14.08.26.08c.05,0,.12,0,.19-.02s.13-.02.16-.04l.26,1.29c-.21.06-.4.1-.57.12s-.34.04-.5.04c-.57,0-1-.13-1.29-.39s-.43-.65-.43-1.15v-4.84Z"/>
      <path class="cls-34" d="m108.09,156.56v-5.09h1.78v.98h.05c.09-.36.24-.62.44-.79.2-.17.44-.25.71-.25.08,0,.16,0,.24.02s.15.03.23.05v1.56c-.09-.03-.2-.06-.33-.07s-.25-.02-.34-.02c-.18,0-.34.04-.48.12-.14.08-.25.19-.33.34-.08.14-.12.31-.12.51v2.65h-1.83Z"/>
      <path class="cls-34" d="m114.07,156.65c-.55,0-1.03-.11-1.42-.33-.39-.22-.69-.53-.9-.92-.21-.39-.31-.85-.31-1.37s.1-.98.31-1.37c.21-.39.51-.7.9-.92.39-.22.87-.33,1.42-.33s1.03.11,1.42.33.69.53.9.92c.21.39.31.85.31,1.37s-.1.98-.31,1.37c-.21.39-.51.7-.9.92s-.87.33-1.42.33Zm0-1.37c.16,0,.29-.05.41-.15.11-.1.2-.25.26-.44.06-.19.09-.42.09-.68s-.03-.49-.09-.68c-.06-.19-.15-.33-.26-.42s-.25-.15-.41-.15-.3.05-.42.15c-.12.1-.21.24-.27.42-.06.19-.09.41-.09.68s.03.49.09.68c.06.19.15.33.27.44.12.1.26.15.42.15Z"/>
      <path class="cls-34" d="m119.07,153.7v2.86h-1.83v-5.09h1.81v.98h.04c.11-.33.3-.58.55-.76s.57-.28.95-.28.67.08.94.25.47.39.62.68c.15.29.22.62.22.99v3.24h-1.83v-2.86c0-.25-.06-.45-.19-.59-.13-.14-.31-.22-.54-.22-.15,0-.28.03-.39.1-.11.07-.2.16-.26.28-.06.12-.09.27-.09.44Z"/>
      <path class="cls-34" d="m125.51,158.57c-.77,0-1.36-.16-1.79-.47s-.66-.72-.69-1.21h1.76c.02.11.06.2.13.26s.16.12.27.15c.11.03.24.05.38.05.24,0,.43-.06.59-.17.16-.12.23-.32.23-.62v-.87h-.05c-.06.17-.17.32-.3.44-.14.12-.3.21-.49.28-.19.06-.4.1-.63.1-.36,0-.69-.08-1-.25-.3-.17-.55-.44-.73-.8-.18-.36-.28-.84-.28-1.43,0-.62.1-1.12.29-1.5.19-.38.44-.67.74-.85s.62-.27.96-.27c.25,0,.47.04.67.13.19.09.35.2.49.35.13.15.23.31.3.48h.04v-.89h1.81v5.08c0,.43-.11.79-.33,1.1-.22.3-.54.53-.94.69-.4.16-.87.24-1.41.24Zm.06-3.38c.25,0,.45-.1.59-.31.14-.21.22-.5.22-.86,0-.25-.03-.47-.1-.65s-.16-.32-.28-.42-.26-.15-.43-.15-.31.05-.43.15-.21.24-.27.42c-.06.18-.09.4-.09.65s.03.46.09.64c.06.18.15.31.27.4.12.09.26.14.43.14Z"/>
    </g>
  </g>
  <g>
    <g>
      <path class="cls-34" d="m34.29,132.53h-1.68c-.01-.16-.09-.28-.22-.37-.13-.09-.29-.13-.47-.13-.16,0-.29.03-.4.08s-.16.14-.16.24c0,.08.03.15.1.21.07.07.19.12.39.15l1.04.18c.52.09.91.25,1.16.47.26.22.39.53.39.9s-.11.68-.32.95c-.21.27-.5.47-.87.61-.37.14-.79.22-1.26.22-.78,0-1.39-.16-1.83-.48-.44-.32-.68-.74-.74-1.26h1.81c.03.16.11.28.25.37.14.09.31.13.51.13.17,0,.31-.03.42-.09s.16-.14.16-.24c0-.18-.19-.3-.58-.37l-.9-.16c-.52-.09-.9-.27-1.16-.52-.26-.25-.39-.58-.39-.98,0-.36.09-.66.29-.9.19-.25.46-.43.81-.56s.77-.19,1.25-.19c.74,0,1.31.15,1.74.46s.65.73.67,1.26Z"/>
      <path class="cls-34" d="m37.94,130.87v1.33h-3.35v-1.33h3.35Zm-2.71-1.21h1.83v4.67c0,.11.03.19.08.24s.14.08.26.08c.05,0,.12,0,.19-.02s.13-.02.16-.04l.26,1.29c-.21.06-.4.1-.57.12s-.34.04-.5.04c-.57,0-1-.13-1.29-.39s-.43-.65-.43-1.15v-4.84Z"/>
      <path class="cls-34" d="m38.47,135.97v-5.09h1.78v.98h.05c.09-.36.24-.62.44-.79.2-.17.44-.25.71-.25.08,0,.16,0,.24.02s.15.03.23.05v1.56c-.09-.03-.2-.06-.33-.07s-.25-.02-.34-.02c-.18,0-.34.04-.48.12-.14.08-.25.19-.33.34-.08.14-.12.31-.12.51v2.65h-1.83Z"/>
      <path class="cls-34" d="m44.46,136.06c-.55,0-1.03-.11-1.42-.33-.39-.22-.69-.53-.9-.92-.21-.39-.31-.85-.31-1.37s.1-.98.31-1.37c.21-.39.51-.7.9-.92.39-.22.87-.33,1.42-.33s1.03.11,1.42.33.69.53.9.92c.21.39.31.85.31,1.37s-.1.98-.31,1.37c-.21.39-.51.7-.9.92s-.87.33-1.42.33Zm0-1.37c.16,0,.29-.05.41-.15.11-.1.2-.25.26-.44.06-.19.09-.42.09-.68s-.03-.49-.09-.68c-.06-.19-.15-.33-.26-.42s-.25-.15-.41-.15-.3.05-.42.15c-.12.1-.21.24-.27.42-.06.19-.09.41-.09.68s.03.49.09.68c.06.19.15.33.27.44.12.1.26.15.42.15Z"/>
      <path class="cls-34" d="m49.45,133.11v2.86h-1.83v-5.09h1.81v.98h.04c.11-.33.3-.58.55-.76s.57-.28.95-.28.67.08.94.25.47.39.62.68c.15.29.22.62.22.99v3.24h-1.83v-2.86c0-.25-.06-.45-.19-.59-.13-.14-.31-.22-.54-.22-.15,0-.28.03-.39.1-.11.07-.2.16-.26.28-.06.12-.09.27-.09.44Z"/>
      <path class="cls-34" d="m55.89,137.98c-.77,0-1.36-.16-1.79-.47s-.66-.72-.69-1.21h1.76c.02.11.06.2.13.26s.16.12.27.15c.11.03.24.05.38.05.24,0,.43-.06.59-.17.16-.12.23-.32.23-.62v-.87h-.05c-.06.17-.17.32-.3.44-.14.12-.3.21-.49.28-.19.06-.4.1-.63.1-.36,0-.69-.08-1-.25-.3-.17-.55-.44-.73-.8-.18-.36-.28-.84-.28-1.43,0-.62.1-1.12.29-1.5.19-.38.44-.67.74-.85s.62-.27.96-.27c.25,0,.47.04.67.13.19.09.35.2.49.35.13.15.23.31.3.48h.04v-.89h1.81v5.08c0,.43-.11.79-.33,1.1-.22.3-.54.53-.94.69-.4.16-.87.24-1.41.24Zm.06-3.38c.25,0,.45-.1.59-.31.14-.21.22-.5.22-.86,0-.25-.03-.47-.1-.65s-.16-.32-.28-.42-.26-.15-.43-.15-.31.05-.43.15-.21.24-.27.42c-.06.18-.09.4-.09.65s.03.46.09.64c.06.18.15.31.27.4.12.09.26.14.43.14Z"/>
    </g>
    <g>
      <g>
        <rect class="cls-7" x="30.24" y="110.12" width="15.02" height="15.02"/>
        <rect class="cls-18" x="45.26" y="110.12" width="15.02" height="15.02"/>
        <rect class="cls-42" x="60.27" y="110.12" width="15.02" height="15.02"/>
        <rect class="cls-16" x="75.29" y="110.12" width="15.02" height="15.02"/>
        <rect class="cls-36" x="90.31" y="110.12" width="15.02" height="15.02"/>
        <rect class="cls-33" x="105.32" y="110.12" width="15.02" height="15.02"/>
        <rect class="cls-38" x="120.34" y="110.12" width="15.02" height="15.02"/>
      </g>
      <rect class="cls-1" x="30.24" y="110.12" width="105.12" height="15.02"/>
    </g>
  </g>
  <path class="cls-34" d="m111.32,96.84l1.46-1.47,3.04,3.05v-12.2h2.13v12.2l3.05-3.05,1.44,1.47-5.56,5.56-5.57-5.56Z"/>
  <g>
    <g>
      <rect class="cls-38" x="35.02" y="224.14" width="25.8" height="25.03"/>
      <rect class="cls-6" x="35.02" y="324.25" width="25.8" height="25.03"/>
      <rect class="cls-26" x="35.02" y="299.22" width="25.8" height="25.03"/>
      <rect class="cls-17" x="35.02" y="274.19" width="25.8" height="25.03"/>
      <rect class="cls-22" x="35.02" y="249.17" width="25.8" height="25.03"/>
    </g>
    <polygon class="cls-2" points="15.77 236.65 28.78 236.65 28.78 336.76 15.77 236.65"/>
    <g>
      <rect class="cls-51" x="169.32" y="223.92" width="25.03" height="25.03"/>
      <rect class="cls-37" x="144.3" y="223.92" width="25.03" height="25.03"/>
      <rect class="cls-24" x="119.27" y="223.92" width="25.03" height="25.03"/>
      <rect class="cls-35" x="94.24" y="223.92" width="25.03" height="25.03"/>
      <rect class="cls-39" x="69.21" y="223.92" width="25.03" height="25.03"/>
      <rect class="cls-32" x="69.21" y="324.03" width="25.03" height="25.03"/>
      <rect class="cls-29" x="94.23" y="324.03" width="25.03" height="25.03"/>
      <rect class="cls-20" x="119.26" y="324.03" width="25.03" height="25.03"/>
      <rect class="cls-28" x="144.29" y="324.03" width="25.03" height="25.03"/>
      <rect class="cls-14" x="169.32" y="324.03" width="25.03" height="25.03"/>
      <rect class="cls-27" x="69.21" y="299.04" width="25.03" height="25.03"/>
      <rect class="cls-25" x="94.24" y="299.04" width="25.03" height="25.03"/>
      <rect class="cls-21" x="119.26" y="299.04" width="25.03" height="25.03"/>
      <rect class="cls-23" x="144.29" y="299.04" width="25.03" height="25.03"/>
      <rect class="cls-15" x="169.32" y="299.04" width="25.03" height="25.03"/>
      <rect class="cls-47" x="69.21" y="274" width="25.03" height="25.03"/>
      <rect class="cls-46" x="94.24" y="274" width="25.03" height="25.03"/>
      <rect class="cls-44" x="119.26" y="274" width="25.03" height="25.03"/>
      <rect class="cls-43" x="144.29" y="274" width="25.03" height="25.03"/>
      <rect class="cls-45" x="169.32" y="274" width="25.03" height="25.03"/>
      <rect class="cls-49" x="69.21" y="248.96" width="25.03" height="25.03"/>
      <rect class="cls-40" x="94.24" y="248.96" width="25.03" height="25.03"/>
      <rect class="cls-52" x="119.27" y="248.96" width="25.03" height="25.03"/>
      <rect class="cls-48" x="144.29" y="248.96" width="25.03" height="25.03"/>
      <rect class="cls-50" x="169.32" y="248.96" width="25.03" height="25.03"/>
    </g>
    <g>
      <path class="cls-34" d="m12.17,315.36v1.92l-6.55-2.16v-2.43l6.55-2.16v1.92l-4.75,1.43v.05l4.75,1.43Zm-2.58.35v-3.6h1.33v3.6h-1.33Z"/>
      <path class="cls-34" d="m9.41,308.32h2.76v1.77h-4.91v-1.75h.94v-.04c-.31-.11-.56-.29-.74-.53-.18-.25-.27-.55-.27-.92s.08-.65.24-.91c.16-.26.38-.46.65-.6.28-.14.6-.21.95-.21h3.13v1.77h-2.76c-.24,0-.43.06-.57.18s-.21.3-.21.52c0,.14.03.27.09.38.06.11.15.19.27.25.12.06.26.09.42.09Z"/>
      <path class="cls-34" d="m12.25,302.09c0,.53-.11.99-.32,1.37-.21.38-.51.67-.89.87-.38.2-.82.3-1.33.3s-.95-.1-1.33-.3c-.38-.2-.67-.49-.89-.87-.21-.38-.32-.84-.32-1.37,0-.48.09-.9.26-1.25s.42-.62.73-.82c.32-.19.69-.29,1.11-.29v1.63c-.17.01-.32.05-.43.11s-.21.14-.27.24c-.06.1-.09.21-.09.35,0,.16.04.29.13.4s.22.2.4.27c.18.06.4.09.67.09s.49-.03.67-.09c.18-.06.32-.15.41-.27.09-.11.14-.25.14-.4,0-.19-.07-.35-.22-.48-.14-.13-.34-.2-.6-.22v-1.63c.43,0,.81.1,1.13.3.32.19.57.46.74.81.17.35.26.77.26,1.25Z"/>
      <path class="cls-34" d="m9.41,297.46h2.76v1.77h-6.55v-1.7h2.58v-.05c-.31-.11-.56-.3-.74-.55-.18-.26-.27-.57-.27-.93s.08-.65.24-.9c.16-.26.38-.46.65-.6.28-.14.6-.21.96-.21h3.13v1.77h-2.76c-.24,0-.43.06-.57.18-.14.12-.21.29-.21.52,0,.14.03.27.09.38.06.11.15.19.27.25.12.06.26.09.42.09Z"/>
      <path class="cls-34" d="m12.25,291.23c0,.53-.11.99-.32,1.37-.21.38-.51.67-.89.87-.38.2-.82.3-1.33.3s-.95-.1-1.33-.3c-.38-.2-.67-.49-.89-.87-.21-.38-.32-.84-.32-1.37s.11-.99.32-1.37c.21-.38.51-.67.89-.87.38-.2.82-.3,1.33-.3s.95.1,1.33.3c.38.2.68.49.89.87.21.38.32.84.32,1.37Zm-1.32,0c0-.15-.05-.28-.15-.39-.1-.11-.24-.19-.42-.25s-.4-.09-.66-.09-.48.03-.65.09c-.18.06-.32.14-.41.25-.09.11-.14.24-.14.39s.05.29.14.4c.09.11.23.2.41.26.18.06.4.09.65.09s.47-.03.66-.09.32-.14.42-.26c.1-.11.15-.25.15-.4Z"/>
      <path class="cls-34" d="m12.17,288.18h-4.91v-1.71h.94v-.05c-.35-.09-.6-.23-.76-.42-.16-.2-.24-.42-.24-.68,0-.08,0-.15.02-.23s.03-.15.05-.22h1.5c-.03.09-.05.2-.07.32-.01.13-.02.24-.02.33,0,.17.04.33.12.47.08.14.19.25.33.32.14.08.3.12.49.12h2.56v1.77Z"/>
      <path class="cls-34" d="m12.17,280.41v1.79h-1.51v-1.72c0-.33-.05-.6-.15-.83-.1-.23-.28-.4-.54-.53-.26-.12-.61-.18-1.07-.18s-.81.06-1.07.18c-.26.12-.44.3-.54.54s-.16.53-.16.87v1.7h-1.51v-1.79c0-.67.13-1.25.39-1.74s.64-.87,1.13-1.13c.49-.27,1.08-.4,1.76-.4s1.26.13,1.75.4c.49.27.87.64,1.12,1.13.26.49.39,1.06.39,1.73Zm-6.55.75h6.55v1.78h-6.55v-1.78Z"/>
      <path class="cls-34" d="m12.25,274.16c0,.53-.11.99-.32,1.37-.21.38-.51.67-.89.87-.38.2-.82.3-1.33.3s-.95-.1-1.33-.3c-.38-.2-.67-.49-.89-.87-.21-.38-.32-.84-.32-1.37s.11-.99.32-1.37c.21-.38.51-.67.89-.87.38-.2.82-.3,1.33-.3s.95.1,1.33.3c.38.2.68.49.89.87.21.38.32.84.32,1.37Zm-1.32,0c0-.15-.05-.28-.15-.39-.1-.11-.24-.19-.42-.25s-.4-.09-.66-.09-.48.03-.65.09c-.18.06-.32.14-.41.25-.09.11-.14.24-.14.39s.05.29.14.4c.09.11.23.2.41.26.18.06.4.09.65.09s.47-.03.66-.09.32-.14.42-.26c.1-.11.15-.25.15-.4Z"/>
      <path class="cls-34" d="m8.85,266.63v1.62c-.15.01-.27.08-.35.21-.09.13-.13.28-.13.46,0,.15.03.28.08.39.05.11.13.16.24.16.07,0,.14-.03.21-.09.06-.06.11-.19.15-.37l.18-1c.09-.5.24-.88.46-1.12.22-.25.51-.37.87-.37s.66.1.91.31.45.49.59.84c.14.36.21.76.21,1.21,0,.75-.15,1.34-.46,1.76-.31.42-.71.66-1.21.71v-1.75c.16-.03.27-.11.36-.24.08-.13.12-.3.12-.49,0-.16-.03-.3-.08-.4-.05-.11-.13-.16-.23-.16-.17,0-.29.19-.36.56l-.16.87c-.09.5-.26.87-.5,1.12-.24.25-.56.37-.94.37-.34,0-.63-.09-.87-.27-.24-.18-.42-.44-.54-.78-.12-.34-.19-.74-.19-1.21,0-.71.15-1.27.44-1.68.29-.41.7-.62,1.22-.64Z"/>
      <path class="cls-34" d="m12.25,263.67c0,.52-.1.98-.3,1.36-.2.38-.49.67-.87.87-.38.2-.83.3-1.36.3s-.95-.1-1.33-.31c-.38-.2-.67-.49-.89-.86s-.32-.81-.32-1.32c0-.37.06-.71.17-1.01.12-.3.28-.56.5-.77s.48-.38.79-.49c.31-.12.66-.17,1.05-.17h.4v4.39h-.97v-3.56l.2.83c-.2,0-.37.03-.5.09-.14.06-.24.14-.31.26-.07.11-.11.26-.11.43s.04.31.11.43c.07.12.18.2.31.26.14.06.3.09.5.09h.7c.19,0,.36-.03.5-.1.14-.07.26-.17.33-.29.08-.13.12-.27.12-.44,0-.12-.02-.23-.05-.33-.03-.1-.08-.18-.15-.25s-.14-.12-.23-.16v-1.61c.34.06.63.19.89.39.25.2.44.47.58.81.14.34.2.73.2,1.18Z"/>
      <path class="cls-34" d="m8.85,256.3v1.62c-.15.01-.27.08-.35.21-.09.13-.13.28-.13.46,0,.15.03.28.08.39.05.11.13.16.24.16.07,0,.14-.03.21-.09.06-.06.11-.19.15-.37l.18-1c.09-.5.24-.88.46-1.12.22-.25.51-.37.87-.37s.66.1.91.31.45.49.59.84c.14.36.21.76.21,1.21,0,.75-.15,1.34-.46,1.76-.31.42-.71.66-1.21.71v-1.75c.16-.03.27-.11.36-.24.08-.13.12-.3.12-.49,0-.16-.03-.3-.08-.4-.05-.11-.13-.16-.23-.16-.17,0-.29.19-.36.56l-.16.87c-.09.5-.26.87-.5,1.12-.24.25-.56.37-.94.37-.34,0-.63-.09-.87-.27-.24-.18-.42-.44-.54-.78-.12-.34-.19-.74-.19-1.21,0-.71.15-1.27.44-1.68.29-.41.7-.62,1.22-.64Z"/>
    </g>
    <g>
      <g>
        <rect class="cls-13" x="68.3" y="357.36" width="25.03" height="25.28"/>
        <rect class="cls-12" x="93.33" y="357.36" width="25.03" height="25.28"/>
        <rect class="cls-5" x="118.36" y="357.36" width="25.03" height="25.28"/>
        <rect class="cls-30" x="143.39" y="357.36" width="25.03" height="25.28"/>
        <rect class="cls-41" x="168.41" y="357.36" width="25.03" height="25.28"/>
      </g>
      <polygon class="cls-2" points="180.93 401.56 180.93 388.54 80.81 388.54 180.93 401.56"/>
      <g>
        <path class="cls-34" d="m101.45,408.32v-6.55h1.78v5.12h2.65v1.43h-4.42Z"/>
        <path class="cls-34" d="m106.41,408.32v-4.91h1.77v4.91h-1.77Zm.88-5.41c-.24,0-.45-.08-.62-.24s-.25-.35-.25-.57.08-.42.25-.57.38-.24.62-.24.45.08.62.24.25.35.25.57-.08.42-.25.58-.38.24-.62.24Z"/>
        <path class="cls-34" d="m112.02,408.38c-.23,0-.43-.04-.61-.11-.18-.08-.33-.18-.46-.31s-.22-.28-.29-.45h-.04v.81h-1.75v-6.55h1.77v2.5h.03c.06-.17.16-.32.28-.46s.28-.25.46-.34c.18-.08.4-.12.64-.12.33,0,.63.09.92.26.29.17.53.44.71.81.19.37.28.85.28,1.45s-.09,1.03-.26,1.41-.41.65-.7.83-.62.27-.97.27Zm-.65-1.35c.16,0,.3-.05.42-.14.11-.09.2-.23.26-.4.06-.17.09-.38.09-.62s-.03-.45-.09-.63c-.06-.17-.15-.31-.26-.4-.11-.09-.25-.14-.42-.14s-.3.05-.42.14-.21.23-.27.4c-.06.17-.09.38-.09.63s.03.44.09.62c.06.17.15.31.27.4s.26.14.42.14Z"/>
        <path class="cls-34" d="m114.46,408.32v-4.91h1.71v.94h.05c.09-.35.23-.6.42-.76.2-.16.42-.24.68-.24.08,0,.15,0,.23.02s.15.03.22.05v1.5c-.09-.03-.2-.05-.32-.07-.13-.01-.24-.02-.33-.02-.17,0-.33.04-.47.12-.14.08-.25.19-.32.33-.08.14-.12.3-.12.49v2.56h-1.77Z"/>
        <path class="cls-34" d="m119.3,408.4c-.31,0-.59-.05-.83-.16-.24-.1-.43-.26-.56-.47s-.2-.48-.2-.8c0-.27.04-.5.14-.69s.22-.35.38-.47c.16-.12.36-.21.57-.28.22-.07.46-.11.71-.12.28-.02.5-.05.66-.07.17-.03.29-.07.36-.13.08-.06.11-.13.11-.23v-.02c0-.13-.05-.22-.15-.29-.1-.07-.22-.1-.37-.1-.17,0-.31.04-.41.11s-.17.19-.19.34h-1.62c.02-.3.12-.57.28-.83.17-.25.42-.45.74-.61.33-.15.73-.23,1.22-.23.35,0,.66.04.94.12s.52.2.71.34.35.32.45.51c.1.2.16.41.16.63v3.37h-1.65v-.69h-.04c-.1.18-.22.33-.36.45-.14.11-.3.2-.47.25s-.37.08-.58.08Zm.57-1.12c.13,0,.26-.03.38-.08.12-.06.22-.14.29-.24.08-.1.11-.23.11-.38v-.4s-.1.04-.15.05-.11.03-.17.05c-.06.01-.12.03-.18.04-.06.01-.13.02-.2.04-.14.02-.25.05-.34.1-.09.05-.15.11-.19.18s-.06.15-.06.23c0,.14.05.24.14.31.1.07.22.11.37.11Z"/>
        <path class="cls-34" d="m123.08,408.32v-4.91h1.71v.94h.05c.09-.35.23-.6.42-.76.2-.16.42-.24.68-.24.08,0,.15,0,.23.02s.15.03.22.05v1.5c-.09-.03-.2-.05-.32-.07-.13-.01-.24-.02-.33-.02-.17,0-.33.04-.47.12-.14.08-.25.19-.32.33-.08.14-.12.3-.12.49v2.56h-1.77Z"/>
        <path class="cls-34" d="m128,410.15c-.2,0-.4-.01-.58-.04-.18-.03-.35-.07-.48-.12l.39-1.26h.03c.21.08.39.11.55.11.16,0,.26-.08.32-.21l.04-.09-1.72-5.13h1.84l.79,3.4h.05l.81-3.4h1.85l-1.79,5.33c-.09.27-.22.51-.38.73-.17.21-.39.38-.67.51-.28.12-.62.19-1.03.19Z"/>
        <path class="cls-34" d="m135.49,401.77v6.55h-1.78v-6.55h1.78Zm.75,6.55h-1.79v-1.51h1.72c.33,0,.6-.05.83-.15.23-.1.4-.28.53-.54.12-.26.18-.61.18-1.07s-.06-.81-.18-1.07c-.12-.26-.3-.44-.54-.54s-.53-.16-.87-.16h-1.7v-1.51h1.79c.67,0,1.25.13,1.74.39s.87.64,1.13,1.13c.27.49.4,1.08.4,1.76s-.13,1.26-.4,1.75c-.27.49-.64.86-1.13,1.12-.49.26-1.06.39-1.73.39Z"/>
        <path class="cls-34" d="m142.49,408.41c-.53,0-.99-.11-1.37-.32-.38-.21-.67-.51-.87-.89-.2-.38-.3-.82-.3-1.33s.1-.95.3-1.33c.2-.38.49-.67.87-.89.38-.21.84-.32,1.37-.32s.99.11,1.37.32c.38.21.67.51.87.89.2.38.3.82.3,1.33s-.1.95-.3,1.33c-.2.38-.49.68-.87.89-.38.21-.84.32-1.37.32Zm0-1.32c.15,0,.28-.05.39-.15.11-.1.19-.24.25-.42s.09-.4.09-.66-.03-.48-.09-.65-.14-.31-.25-.41c-.11-.09-.24-.14-.39-.14s-.29.05-.4.14c-.11.09-.2.23-.26.41s-.09.4-.09.65.03.47.09.66.14.32.26.42c.11.1.25.15.4.15Z"/>
        <path class="cls-34" d="m150.02,405h-1.62c-.01-.15-.08-.27-.21-.35-.13-.09-.28-.13-.46-.13-.15,0-.28.03-.39.08-.11.05-.16.13-.16.24,0,.07.03.14.09.21.06.06.19.11.37.15l1,.18c.5.09.88.24,1.12.46.25.22.37.51.37.87s-.1.66-.31.91-.49.45-.84.59c-.36.14-.76.21-1.21.21-.75,0-1.34-.15-1.76-.46-.42-.31-.66-.71-.71-1.21h1.75c.03.16.11.27.24.36.13.08.3.12.49.12.16,0,.3-.03.4-.08s.16-.13.16-.23c0-.17-.19-.29-.56-.36l-.87-.16c-.5-.09-.87-.26-1.12-.5-.25-.24-.37-.56-.37-.94,0-.34.09-.63.27-.87.18-.24.44-.42.78-.54.34-.12.74-.19,1.21-.19.71,0,1.27.15,1.68.44.41.29.62.7.64,1.22Z"/>
        <path class="cls-34" d="m152.98,408.41c-.52,0-.98-.1-1.36-.3-.38-.2-.67-.49-.87-.87-.2-.38-.3-.83-.3-1.36s.1-.95.31-1.33c.2-.38.49-.67.86-.89s.81-.32,1.32-.32c.37,0,.71.06,1.01.17.3.12.56.28.77.5s.38.48.49.79c.12.31.17.66.17,1.05v.4h-4.39v-.97h3.56l-.83.2c0-.2-.03-.37-.09-.5-.06-.14-.14-.24-.26-.31-.11-.07-.26-.11-.43-.11s-.31.04-.43.11c-.12.07-.2.18-.26.31-.06.14-.09.3-.09.5v.7c0,.19.03.36.1.51.07.14.17.25.29.33s.27.12.44.12c.12,0,.23-.02.33-.05.1-.03.18-.08.25-.15s.12-.14.16-.23h1.61c-.06.34-.19.63-.39.89-.2.25-.47.44-.81.58-.34.14-.73.2-1.18.2Z"/>
        <path class="cls-34" d="m160.35,405h-1.62c-.01-.15-.08-.27-.21-.35-.13-.09-.28-.13-.46-.13-.15,0-.28.03-.39.08-.11.05-.16.13-.16.24,0,.07.03.14.09.21.06.06.19.11.37.15l1,.18c.5.09.88.24,1.12.46.25.22.37.51.37.87s-.1.66-.31.91-.49.45-.84.59c-.36.14-.76.21-1.21.21-.75,0-1.34-.15-1.76-.46-.42-.31-.66-.71-.71-1.21h1.75c.03.16.11.27.24.36.13.08.3.12.49.12.16,0,.3-.03.4-.08s.16-.13.16-.23c0-.17-.19-.29-.56-.36l-.87-.16c-.5-.09-.87-.26-1.12-.5-.25-.24-.37-.56-.37-.94,0-.34.09-.63.27-.87.18-.24.44-.42.78-.54.34-.12.74-.19,1.21-.19.71,0,1.27.15,1.68.44.41.29.62.7.64,1.22Z"/>
      </g>
    </g>
  </g>
  <g>
    <path class="cls-34" d="m41.82,201.68c-.52,0-.99-.09-1.39-.28-.4-.18-.72-.44-.95-.76-.23-.32-.35-.7-.36-1.12h1.79c0,.23.09.42.27.56s.39.21.64.21c.19,0,.35-.04.49-.12s.25-.19.33-.34.12-.32.12-.51-.04-.37-.12-.52c-.08-.15-.19-.26-.33-.34-.14-.08-.31-.12-.49-.12-.2,0-.38.05-.54.14-.16.09-.28.22-.36.39l-1.62-.32.26-3.74h4.56v1.48h-3.05l-.13,1.49h.04c.11-.21.29-.38.55-.51.26-.13.56-.2.91-.2.4,0,.76.09,1.08.28s.57.44.75.77.28.71.28,1.14c0,.47-.11.89-.34,1.26-.22.36-.54.65-.95.86s-.89.31-1.44.31Z"/>
    <path class="cls-34" d="m49.46,201.44l-4.11-4.09,1.12-1.13,4.1,4.11-1.11,1.11Zm-2.99,0l-1.12-1.11,4.11-4.11,1.11,1.13-4.1,4.09Z"/>
    <path class="cls-34" d="m54.16,201.68c-.52,0-.99-.09-1.39-.28-.4-.18-.72-.44-.95-.76-.23-.32-.35-.7-.36-1.12h1.79c0,.23.09.42.27.56s.39.21.64.21c.19,0,.35-.04.49-.12s.25-.19.33-.34.12-.32.12-.51-.04-.37-.12-.52c-.08-.15-.19-.26-.33-.34-.14-.08-.31-.12-.49-.12-.2,0-.38.05-.54.14-.16.09-.28.22-.36.39l-1.62-.32.26-3.74h4.56v1.48h-3.05l-.13,1.49h.04c.11-.21.29-.38.55-.51.26-.13.56-.2.91-.2.4,0,.76.09,1.08.28s.57.44.75.77.28.71.28,1.14c0,.47-.11.89-.34,1.26-.22.36-.54.65-.95.86s-.89.31-1.44.31Z"/>
    <path class="cls-34" d="m62.26,196.49v1.33h-3.4v-1.33h3.4Zm-2.75,5.09v-5.24c0-.42.07-.77.22-1.04s.36-.48.63-.62.6-.21.97-.21c.23,0,.46.02.68.05.22.04.38.07.49.09l-.26,1.31c-.07-.02-.14-.03-.23-.05-.09-.01-.17-.02-.23-.02-.17,0-.29.04-.35.11s-.09.17-.09.29v5.31h-1.82Z"/>
    <path class="cls-34" d="m65.05,201.68c-.55,0-1.03-.11-1.42-.33-.39-.22-.7-.53-.9-.92-.21-.39-.31-.85-.31-1.37s.1-.98.31-1.37c.21-.39.51-.7.9-.92.39-.22.87-.33,1.42-.33s1.03.11,1.42.33c.39.22.69.53.9.92.21.39.31.85.31,1.37s-.11.98-.31,1.37c-.21.39-.51.7-.9.92-.39.22-.87.33-1.42.33Zm0-1.37c.16,0,.29-.05.4-.15.11-.1.2-.25.26-.44.06-.19.09-.42.09-.68s-.03-.49-.09-.68c-.06-.19-.15-.33-.26-.42-.11-.1-.25-.15-.4-.15s-.3.05-.42.15c-.12.1-.21.24-.27.42-.06.19-.09.41-.09.68s.03.49.09.68c.06.19.15.33.27.44.12.1.26.15.42.15Z"/>
    <path class="cls-34" d="m68.21,201.59v-5.09h1.78v.98h.05c.09-.36.24-.62.44-.79s.44-.25.71-.25c.08,0,.16,0,.24.02.08.01.15.03.23.05v1.56c-.09-.03-.2-.06-.34-.07-.13-.01-.24-.02-.34-.02-.18,0-.34.04-.48.12-.14.08-.25.19-.33.34-.08.14-.12.31-.12.51v2.65h-1.83Z"/>
    <path class="cls-34" d="m72.04,201.59v-5.09h1.73v.98h.05c.11-.32.29-.57.55-.76.26-.19.56-.28.91-.28s.67.1.93.29c.26.19.41.44.46.75h.05c.09-.31.27-.56.55-.75.28-.19.61-.29.99-.29.49,0,.88.16,1.18.47.3.31.46.73.46,1.25v3.44h-1.83v-2.97c0-.22-.06-.4-.17-.52-.11-.13-.26-.19-.45-.19s-.34.06-.45.19-.16.3-.16.52v2.97h-1.75v-2.97c0-.22-.06-.4-.17-.52-.11-.13-.26-.19-.45-.19-.13,0-.24.03-.33.09s-.16.14-.21.24c-.05.1-.07.23-.07.38v2.97h-1.83Z"/>
    <path class="cls-34" d="m82.04,201.67c-.33,0-.61-.05-.87-.16-.25-.11-.45-.27-.58-.49-.14-.22-.21-.5-.21-.83,0-.28.05-.52.14-.72.09-.2.23-.36.4-.49.17-.13.37-.22.59-.29s.47-.11.74-.13c.29-.02.51-.05.69-.08s.3-.08.37-.13c.08-.06.12-.14.12-.23v-.02c0-.13-.05-.23-.15-.3-.1-.07-.23-.11-.39-.11-.18,0-.32.04-.43.11-.11.08-.18.19-.2.35h-1.68c.02-.31.12-.6.29-.86.17-.26.43-.47.77-.63.34-.16.76-.24,1.27-.24.36,0,.69.04.98.13.29.08.53.2.74.36.21.15.36.33.47.53.11.2.16.42.16.65v3.49h-1.71v-.72h-.04c-.1.19-.23.35-.37.46-.14.12-.31.2-.49.26-.18.05-.38.08-.61.08Zm.59-1.16c.14,0,.27-.03.39-.09s.22-.14.3-.25c.08-.11.12-.24.12-.39v-.42s-.1.04-.15.05c-.05.02-.11.03-.18.05s-.13.03-.19.04c-.07.01-.13.02-.21.04-.14.02-.26.06-.35.11s-.15.11-.2.18c-.04.07-.06.15-.06.24,0,.14.05.25.15.33.1.07.22.11.38.11Z"/>
    <path class="cls-34" d="m89,196.49v1.33h-3.35v-1.33h3.35Zm-2.71-1.21h1.83v4.67c0,.11.03.19.08.24s.14.08.26.08c.05,0,.12,0,.19-.02s.13-.02.16-.04l.26,1.29c-.21.06-.4.1-.57.12s-.34.04-.5.04c-.57,0-1-.13-1.29-.39-.29-.26-.44-.65-.44-1.15v-4.84Z"/>
    <path class="cls-34" d="m39.99,205.84v6.55h-.75v-6.55h.75Z"/>
    <path class="cls-34" d="m41.33,206.66c-.15,0-.27-.05-.38-.15s-.16-.22-.16-.36.05-.26.16-.36.23-.15.38-.15.27.05.38.15.16.22.16.36-.05.26-.16.36-.23.15-.38.15Zm-.38,5.73v-4.91h.75v4.91h-.75Z"/>
    <path class="cls-34" d="m44.91,212.49c-.31,0-.56-.05-.76-.16-.19-.11-.34-.23-.44-.37-.1-.14-.18-.25-.24-.34h-.09v.76h-.72v-6.55h.75v2.42h.06c.05-.08.13-.19.23-.33s.24-.25.43-.36.44-.16.76-.16c.41,0,.78.1,1.09.31.31.21.56.5.74.88.18.38.27.83.27,1.34s-.09.97-.26,1.35c-.18.38-.42.68-.73.89-.31.21-.68.31-1.09.31Zm-.1-.68c.31,0,.57-.08.79-.25.21-.17.37-.39.48-.68.11-.28.16-.6.16-.95s-.05-.66-.16-.94-.26-.5-.47-.66-.47-.25-.79-.25-.57.08-.77.23c-.21.15-.37.37-.47.65-.11.28-.16.6-.16.97s.05.7.16.98c.11.28.27.5.48.66s.46.24.77.24Z"/>
    <path class="cls-34" d="m47.72,212.39v-4.91h.72v.75h.05c.09-.24.25-.44.49-.59s.5-.23.79-.23c.06,0,.12,0,.21,0,.08,0,.14,0,.19,0v.76s-.09-.01-.18-.03c-.09-.01-.19-.02-.29-.02-.24,0-.45.05-.64.15s-.33.24-.44.41-.16.37-.16.59v3.1h-.75Z"/>
    <path class="cls-34" d="m52.09,212.5c-.31,0-.59-.06-.85-.18-.25-.12-.46-.29-.61-.52-.15-.23-.22-.5-.22-.82,0-.28.06-.51.17-.68.11-.17.26-.31.45-.41.19-.1.39-.18.62-.23s.45-.09.68-.12c.3-.04.54-.07.73-.09s.32-.06.41-.11c.09-.05.13-.13.13-.25v-.03c0-.31-.09-.56-.26-.73s-.43-.26-.78-.26-.64.08-.84.24-.35.32-.43.5l-.72-.25c.13-.3.3-.53.52-.7.21-.17.45-.28.7-.35.25-.07.5-.1.75-.1.16,0,.34.02.54.05.21.04.41.11.6.23.2.12.36.29.48.52.13.23.19.54.19.93v3.23h-.76v-.67h-.04c-.05.11-.13.22-.26.34-.12.12-.28.23-.48.31-.2.09-.44.13-.73.13Zm.11-.68c.3,0,.55-.06.76-.18s.36-.27.47-.46c.11-.19.16-.38.16-.58v-.69s-.1.07-.21.1c-.11.03-.23.06-.37.08s-.28.04-.41.06c-.13.02-.24.03-.32.04-.2.03-.38.07-.55.12-.17.06-.31.14-.41.25s-.16.26-.16.46c0,.26.1.46.29.59.2.13.44.2.74.2Z"/>
    <path class="cls-34" d="m55.31,212.39v-4.91h.72v.75h.05c.09-.24.25-.44.49-.59.23-.15.5-.23.79-.23.05,0,.12,0,.21,0,.08,0,.15,0,.19,0v.76s-.08-.01-.18-.03c-.09-.01-.19-.02-.29-.02-.24,0-.45.05-.64.15s-.33.24-.44.41c-.11.17-.16.37-.16.59v3.1h-.75Z"/>
    <path class="cls-34" d="m58.87,214.23c-.13,0-.24,0-.34-.03s-.17-.04-.21-.06l.19-.66.07.02c.25.06.46.05.63-.04.17-.08.32-.3.45-.66l.14-.39-1.81-4.94h.82l1.35,3.92h.05l1.35-3.92h.82l-2.08,5.62c-.09.25-.21.47-.35.63-.14.17-.3.29-.48.37s-.39.12-.62.12Z"/>
    <path class="cls-34" d="m66.52,212.5c-.31,0-.59-.06-.85-.18-.25-.12-.46-.29-.61-.52-.15-.23-.22-.5-.22-.82,0-.28.06-.51.17-.68.11-.17.26-.31.45-.41.19-.1.39-.18.62-.23s.45-.09.68-.12c.3-.04.54-.07.73-.09s.32-.06.41-.11c.09-.05.13-.13.13-.25v-.03c0-.31-.09-.56-.26-.73s-.43-.26-.78-.26-.64.08-.84.24-.35.32-.43.5l-.72-.25c.13-.3.3-.53.52-.7.21-.17.45-.28.7-.35.25-.07.5-.1.75-.1.16,0,.34.02.54.05.21.04.41.11.6.23.2.12.36.29.48.52.13.23.19.54.19.93v3.23h-.76v-.67h-.04c-.05.11-.13.22-.26.34-.12.12-.28.23-.48.31-.2.09-.44.13-.73.13Zm.11-.68c.3,0,.55-.06.76-.18s.36-.27.47-.46c.11-.19.16-.38.16-.58v-.69s-.1.07-.21.1c-.11.03-.23.06-.37.08s-.28.04-.41.06c-.13.02-.24.03-.32.04-.2.03-.38.07-.55.12-.17.06-.31.14-.41.25s-.16.26-.16.46c0,.26.1.46.29.59.2.13.44.2.74.2Z"/>
    <path class="cls-34" d="m70.49,209.44v2.95h-.75v-4.91h.72v.77h.07c.11-.25.29-.45.52-.61s.54-.23.91-.23c.33,0,.62.07.87.2.25.13.44.34.58.61s.21.62.21,1.04v3.12h-.75v-3.07c0-.38-.1-.68-.3-.9-.2-.22-.48-.33-.83-.33-.24,0-.46.05-.65.16-.19.11-.34.26-.45.46-.11.2-.17.44-.17.73Z"/>
    <path class="cls-34" d="m76.44,212.49c-.41,0-.77-.1-1.09-.31-.31-.21-.56-.5-.73-.89-.18-.38-.26-.83-.26-1.35s.09-.96.27-1.34c.18-.38.42-.67.74-.88.31-.21.68-.31,1.09-.31.32,0,.58.05.76.16.19.11.33.23.43.36s.18.24.23.33h.06v-2.42h.75v6.55h-.72v-.76h-.09c-.05.09-.13.2-.24.34-.1.14-.25.26-.44.37-.19.11-.44.16-.76.16Zm.1-.68c.3,0,.56-.08.77-.24.21-.16.37-.38.47-.66.11-.28.16-.61.16-.98s-.05-.69-.16-.97c-.11-.28-.26-.49-.47-.65-.21-.15-.47-.23-.78-.23s-.58.08-.79.25-.37.39-.47.66-.16.59-.16.94.05.67.16.95c.11.28.27.51.48.68.21.17.47.25.79.25Z"/>
    <path class="cls-34" d="m83.2,212.5c-.31,0-.59-.06-.85-.18-.25-.12-.46-.29-.61-.52-.15-.23-.22-.5-.22-.82,0-.28.05-.51.17-.68.11-.17.26-.31.45-.41.19-.1.39-.18.62-.23.22-.05.45-.09.68-.12.3-.04.54-.07.73-.09.19-.02.32-.06.41-.11s.13-.13.13-.25v-.03c0-.31-.09-.56-.26-.73-.17-.17-.43-.26-.78-.26s-.64.08-.84.24-.35.32-.43.5l-.72-.25c.13-.3.3-.53.52-.7s.45-.28.7-.35.5-.1.75-.1c.16,0,.34.02.54.05.21.04.4.11.6.23.2.12.36.29.48.52.13.23.19.54.19.93v3.23h-.76v-.67h-.04c-.05.11-.13.22-.25.34-.12.12-.28.23-.48.31-.2.09-.44.13-.73.13Zm.12-.68c.3,0,.55-.06.76-.18s.36-.27.46-.46c.11-.19.16-.38.16-.58v-.69s-.1.07-.21.1c-.11.03-.23.06-.37.08-.14.02-.27.04-.41.06-.13.02-.24.03-.32.04-.2.03-.38.07-.55.12-.17.06-.31.14-.41.25-.11.11-.16.26-.16.46,0,.26.1.46.29.59.2.13.44.2.75.2Z"/>
    <path class="cls-34" d="m87.16,209.44v2.95h-.75v-4.91h.72v.77h.07c.12-.25.29-.45.52-.61s.54-.23.91-.23c.33,0,.62.07.87.2.25.13.44.34.58.61.14.27.21.62.21,1.04v3.12h-.75v-3.07c0-.38-.1-.68-.3-.9-.2-.22-.48-.33-.83-.33-.24,0-.46.05-.65.16-.19.11-.34.26-.45.46s-.16.44-.16.73Z"/>
    <path class="cls-34" d="m93.25,212.49c-.46,0-.85-.11-1.18-.33s-.59-.52-.77-.9-.27-.82-.27-1.31.09-.94.28-1.33c.18-.38.44-.68.78-.9.33-.22.72-.33,1.16-.33.35,0,.66.06.93.19.28.13.5.31.68.54.18.23.29.5.33.81h-.76c-.04-.15-.11-.29-.21-.42-.1-.13-.23-.24-.39-.32s-.36-.12-.58-.12c-.29,0-.55.08-.77.23-.22.15-.39.37-.52.64-.12.28-.18.6-.18.97s.06.71.18.99c.12.28.29.5.51.66s.48.23.78.23.55-.08.76-.23c.21-.15.35-.36.42-.63h.76c-.04.29-.14.55-.31.78-.17.23-.39.42-.66.55-.28.14-.59.2-.96.2Z"/>
    <path class="cls-34" d="m96.64,209.44v2.95h-.75v-6.55h.75v2.41h.07c.12-.25.29-.46.52-.61.23-.15.54-.23.92-.23.33,0,.63.07.88.2s.45.34.59.61c.14.27.21.62.21,1.04v3.12h-.76v-3.07c0-.39-.1-.7-.3-.91-.2-.21-.48-.32-.84-.32-.25,0-.47.05-.66.16s-.35.26-.46.46-.17.44-.17.73Z"/>
    <path class="cls-34" d="m102.79,212.49c-.44,0-.83-.11-1.17-.32s-.59-.51-.78-.89-.28-.82-.28-1.33.09-.96.28-1.34c.19-.38.45-.68.78-.89s.72-.32,1.17-.32.83.11,1.17.32.6.51.78.89c.19.38.28.83.28,1.34s-.09.95-.28,1.33-.45.68-.78.89-.72.32-1.17.32Zm0-.68c.34,0,.62-.09.83-.26s.38-.4.48-.68.16-.59.16-.91-.05-.64-.16-.92-.27-.51-.48-.69-.49-.26-.83-.26-.61.09-.83.26-.38.4-.48.69-.16.59-.16.92.05.63.16.91.27.51.48.68.49.26.83.26Z"/>
    <path class="cls-34" d="m105.75,212.39v-4.91h.72v.75h.05c.09-.24.25-.44.49-.59s.5-.23.79-.23c.06,0,.12,0,.21,0,.08,0,.14,0,.19,0v.76s-.09-.01-.18-.03c-.09-.01-.19-.02-.29-.02-.24,0-.45.05-.64.15s-.33.24-.44.41-.16.37-.16.59v3.1h-.75Z"/>
    <path class="cls-34" d="m112.23,212.5c-.31,0-.59-.06-.85-.18-.25-.12-.46-.29-.61-.52-.15-.23-.22-.5-.22-.82,0-.28.06-.51.17-.68.11-.17.26-.31.45-.41.19-.1.39-.18.62-.23s.45-.09.68-.12c.3-.04.54-.07.73-.09s.32-.06.41-.11c.09-.05.13-.13.13-.25v-.03c0-.31-.09-.56-.26-.73s-.43-.26-.78-.26-.64.08-.84.24-.35.32-.43.5l-.72-.25c.13-.3.3-.53.52-.7.21-.17.45-.28.7-.35.25-.07.5-.1.75-.1.16,0,.34.02.54.05.21.04.41.11.6.23.2.12.36.29.48.52.13.23.19.54.19.93v3.23h-.76v-.67h-.04c-.05.11-.13.22-.26.34-.12.12-.28.23-.48.31-.2.09-.44.13-.73.13Zm.11-.68c.3,0,.55-.06.76-.18s.36-.27.47-.46c.11-.19.16-.38.16-.58v-.69s-.1.07-.21.1c-.11.03-.23.06-.37.08s-.28.04-.41.06c-.13.02-.24.03-.32.04-.2.03-.38.07-.55.12-.17.06-.31.14-.41.25s-.16.26-.16.46c0,.26.1.46.29.59.2.13.44.2.74.2Z"/>
    <path class="cls-34" d="m117.42,214.33c-.55,0-.98-.1-1.3-.3-.32-.2-.55-.43-.71-.69l.6-.42c.07.09.15.19.26.31s.25.22.43.3.42.13.72.13c.4,0,.72-.1.98-.29s.39-.49.39-.9v-.99h-.07c-.05.09-.13.2-.23.33-.1.13-.25.25-.44.35-.19.1-.44.15-.77.15-.4,0-.75-.09-1.06-.28-.31-.19-.56-.46-.74-.82s-.28-.79-.28-1.3.09-.94.27-1.32c.18-.37.42-.66.74-.87.32-.21.68-.31,1.1-.31.32,0,.57.05.76.16s.33.23.44.36.18.24.23.33h.08v-.78h.72v5.05c0,.42-.1.77-.28,1.03-.19.27-.45.46-.77.58-.32.12-.68.19-1.07.19Zm-.03-2.7c.45,0,.8-.15,1.04-.46s.36-.73.36-1.28c0-.35-.05-.67-.16-.94s-.26-.48-.47-.64c-.21-.15-.47-.23-.78-.23s-.59.08-.8.24c-.21.16-.37.38-.48.65s-.16.57-.16.91.05.64.16.9c.11.26.27.47.48.62.21.15.48.22.79.22Z"/>
    <path class="cls-34" d="m122.56,212.49c-.47,0-.88-.11-1.22-.32s-.61-.51-.79-.89c-.19-.38-.28-.82-.28-1.32s.09-.95.27-1.33.44-.68.77-.9c.33-.22.72-.33,1.16-.33.26,0,.51.04.76.13s.48.22.69.41c.21.19.37.44.49.76s.18.7.18,1.16v.33h-3.79v-.65h3.38l-.35.25c0-.33-.05-.62-.15-.87-.1-.25-.25-.46-.46-.6-.2-.15-.46-.22-.76-.22s-.56.07-.78.22c-.21.15-.38.34-.49.58-.12.24-.17.49-.17.76v.43c0,.37.06.69.19.94s.31.45.54.59c.23.13.5.2.8.2.2,0,.38-.03.54-.09.16-.06.3-.14.42-.26s.21-.26.27-.43l.73.21c-.08.25-.21.46-.38.65s-.4.33-.67.43c-.27.1-.57.16-.9.16Z"/>
    <path class="cls-34" d="m126.05,209.44v2.95h-.75v-4.91h.72v.77h.07c.11-.25.29-.45.52-.61s.54-.23.91-.23c.33,0,.62.07.87.2.25.13.44.34.58.61s.21.62.21,1.04v3.12h-.75v-3.07c0-.38-.1-.68-.3-.9-.2-.22-.48-.33-.83-.33-.24,0-.46.05-.65.16-.19.11-.34.26-.45.46-.11.2-.17.44-.17.73Z"/>
    <path class="cls-34" d="m132.28,207.48v.64h-2.54v-.64h2.54Zm-1.8-1.17h.75v4.68c0,.25.05.44.16.56.11.12.27.18.5.18.05,0,.1,0,.16,0s.11-.01.18-.03l.16.68c-.07.03-.16.05-.26.06-.1.02-.2.02-.31.02-.39,0-.72-.12-.96-.35-.25-.23-.37-.54-.37-.91v-4.88Z"/>
    <path class="cls-34" d="m137.24,207.48v.64h-2.54v-.64h2.54Zm-1.8-1.17h.75v4.68c0,.25.05.44.16.56.11.12.27.18.5.18.05,0,.1,0,.16,0s.11-.01.18-.03l.16.68c-.07.03-.16.05-.26.06-.1.02-.2.02-.31.02-.39,0-.72-.12-.96-.35-.25-.23-.37-.54-.37-.91v-4.88Z"/>
    <path class="cls-34" d="m139.97,212.49c-.47,0-.88-.11-1.22-.32s-.61-.51-.79-.89c-.19-.38-.28-.82-.28-1.32s.09-.95.27-1.33.44-.68.77-.9c.33-.22.72-.33,1.16-.33.26,0,.51.04.76.13s.48.22.69.41c.21.19.37.44.49.76s.18.7.18,1.16v.33h-3.79v-.65h3.38l-.35.25c0-.33-.05-.62-.15-.87-.1-.25-.25-.46-.46-.6-.2-.15-.46-.22-.76-.22s-.56.07-.78.22c-.21.15-.38.34-.49.58-.12.24-.17.49-.17.76v.43c0,.37.06.69.19.94s.31.45.54.59c.23.13.5.2.8.2.2,0,.38-.03.54-.09.16-.06.3-.14.42-.26s.21-.26.27-.43l.73.21c-.08.25-.21.46-.38.65s-.4.33-.67.43c-.27.1-.57.16-.9.16Z"/>
    <path class="cls-34" d="m146.18,208.58l-.68.18c-.06-.17-.18-.33-.33-.48s-.4-.23-.73-.23c-.3,0-.55.07-.75.21s-.3.31-.3.52c0,.19.07.34.2.45.14.11.35.2.64.27l.73.18c.44.11.76.27.98.49s.32.5.32.84c0,.28-.08.53-.24.76-.16.22-.38.4-.67.53s-.62.19-1,.19c-.5,0-.91-.11-1.24-.33-.33-.22-.54-.54-.62-.95l.71-.18c.07.26.2.46.39.59s.44.2.75.2c.35,0,.63-.08.84-.23.21-.15.31-.33.31-.54,0-.35-.24-.58-.73-.69l-.82-.19c-.45-.11-.78-.27-.99-.5s-.32-.5-.32-.84c0-.28.08-.52.23-.74s.37-.38.64-.5c.27-.12.58-.18.92-.18.49,0,.87.11,1.15.32.28.21.47.5.59.85Z"/>
    <path class="cls-34" d="m149.12,207.48v.64h-2.54v-.64h2.54Zm-1.8-1.17h.75v4.68c0,.25.05.44.16.56.11.12.27.18.5.18.05,0,.1,0,.16,0s.11-.01.18-.03l.16.68c-.07.03-.16.05-.26.06-.1.02-.2.02-.31.02-.39,0-.72-.12-.96-.35-.25-.23-.37-.54-.37-.91v-4.88Z"/>
    <path class="cls-34" d="m151.85,212.49c-.47,0-.88-.11-1.22-.32s-.61-.51-.79-.89c-.19-.38-.28-.82-.28-1.32s.09-.95.27-1.33.44-.68.77-.9c.33-.22.72-.33,1.16-.33.26,0,.51.04.76.13s.48.22.69.41c.21.19.37.44.49.76s.18.7.18,1.16v.33h-3.79v-.65h3.38l-.35.25c0-.33-.05-.62-.15-.87-.1-.25-.25-.46-.46-.6-.2-.15-.46-.22-.76-.22s-.56.07-.78.22c-.21.15-.38.34-.49.58-.12.24-.17.49-.17.76v.43c0,.37.06.69.19.94s.31.45.54.59c.23.13.5.2.8.2.2,0,.38-.03.54-.09.16-.06.3-.14.42-.26s.21-.26.27-.43l.73.21c-.08.25-.21.46-.38.65s-.4.33-.67.43c-.27.1-.57.16-.9.16Z"/>
    <path class="cls-34" d="m156.44,212.49c-.41,0-.77-.1-1.09-.31-.31-.21-.56-.5-.73-.89-.18-.38-.26-.83-.26-1.35s.09-.96.27-1.34c.18-.38.42-.67.74-.88.31-.21.68-.31,1.09-.31.32,0,.58.05.76.16.19.11.33.23.43.36s.18.24.23.33h.06v-2.42h.75v6.55h-.72v-.76h-.09c-.05.09-.13.2-.24.34-.1.14-.25.26-.44.37-.19.11-.44.16-.76.16Zm.1-.68c.3,0,.56-.08.77-.24.21-.16.37-.38.47-.66.11-.28.16-.61.16-.98s-.05-.69-.16-.97c-.11-.28-.26-.49-.47-.65-.21-.15-.47-.23-.78-.23s-.58.08-.79.25-.37.39-.47.66-.16.59-.16.94.05.67.16.95c.11.28.27.51.48.68.21.17.47.25.79.25Z"/>
    <path class="cls-34" d="m163.19,212.5c-.31,0-.59-.06-.85-.18-.25-.12-.46-.29-.61-.52-.15-.23-.22-.5-.22-.82,0-.28.05-.51.17-.68.11-.17.26-.31.45-.41.19-.1.39-.18.62-.23.22-.05.45-.09.68-.12.3-.04.54-.07.73-.09.19-.02.32-.06.41-.11s.13-.13.13-.25v-.03c0-.31-.09-.56-.26-.73-.17-.17-.43-.26-.78-.26s-.64.08-.84.24-.35.32-.43.5l-.72-.25c.13-.3.3-.53.52-.7s.45-.28.7-.35.5-.1.75-.1c.16,0,.34.02.54.05.21.04.4.11.6.23.2.12.36.29.48.52.13.23.19.54.19.93v3.23h-.76v-.67h-.04c-.05.11-.13.22-.25.34-.12.12-.28.23-.48.31-.2.09-.44.13-.73.13Zm.12-.68c.3,0,.55-.06.76-.18s.36-.27.46-.46c.11-.19.16-.38.16-.58v-.69s-.1.07-.21.1c-.11.03-.23.06-.37.08-.14.02-.27.04-.41.06-.13.02-.24.03-.32.04-.2.03-.38.07-.55.12-.17.06-.31.14-.41.25-.11.11-.16.26-.16.46,0,.26.1.46.29.59.2.13.44.2.75.2Z"/>
    <path class="cls-34" d="m168.54,207.48v.64h-2.54v-.64h2.54Zm-1.8-1.17h.75v4.68c0,.25.05.44.16.56.11.12.27.18.5.18.05,0,.1,0,.16,0,.05,0,.11-.01.18-.03l.16.68c-.07.03-.16.05-.26.06s-.2.02-.3.02c-.4,0-.72-.12-.96-.35s-.37-.54-.37-.91v-4.88Z"/>
    <path class="cls-34" d="m173.4,212.48c-.38,0-.71-.07-1.01-.22-.3-.15-.54-.35-.72-.61s-.28-.56-.29-.89h.77c.03.29.16.54.4.73.24.19.53.29.86.29.27,0,.51-.06.72-.19.21-.13.37-.3.49-.52.12-.22.18-.47.18-.75s-.06-.54-.19-.76-.29-.4-.51-.53c-.22-.13-.46-.2-.74-.2-.2,0-.41.03-.62.09-.21.06-.38.14-.52.24l-.75-.09.39-3.23h3.4v.7h-2.73l-.23,1.93h.04c.13-.11.3-.2.51-.27.2-.07.41-.1.64-.1.4,0,.76.1,1.07.29.31.19.56.45.74.78.18.33.27.71.27,1.13s-.09.79-.28,1.12-.44.59-.77.77c-.32.19-.7.28-1.11.28Z"/>
    <path class="cls-34" d="m180.32,212.49c-.41,0-.77-.1-1.09-.31-.31-.21-.56-.5-.73-.89-.18-.38-.26-.83-.26-1.35s.09-.96.27-1.34c.18-.38.42-.67.74-.88.31-.21.68-.31,1.09-.31.32,0,.58.05.76.16.19.11.33.23.43.36s.18.24.23.33h.06v-2.42h.75v6.55h-.72v-.76h-.09c-.05.09-.13.2-.24.34-.1.14-.25.26-.44.37-.19.11-.44.16-.76.16Zm.1-.68c.3,0,.56-.08.77-.24.21-.16.37-.38.47-.66.11-.28.16-.61.16-.98s-.05-.69-.16-.97c-.11-.28-.26-.49-.47-.65-.21-.15-.47-.23-.78-.23s-.58.08-.79.25-.37.39-.47.66-.16.59-.16.94.05.67.16.95c.11.28.27.51.48.68.21.17.47.25.79.25Z"/>
    <path class="cls-34" d="m185.52,212.49c-.44,0-.83-.11-1.16-.32s-.59-.51-.78-.89c-.19-.38-.28-.82-.28-1.33s.09-.96.28-1.34c.19-.38.45-.68.78-.89s.72-.32,1.16-.32.84.11,1.17.32.59.51.78.89c.19.38.28.83.28,1.34s-.09.95-.28,1.33-.45.68-.78.89-.72.32-1.17.32Zm0-.68c.34,0,.62-.09.84-.26s.38-.4.48-.68.16-.59.16-.91-.05-.64-.16-.92-.27-.51-.48-.69-.5-.26-.84-.26-.61.09-.83.26-.38.4-.48.69-.16.59-.16.92.05.63.16.91.27.51.48.68.49.26.83.26Z"/>
    <path class="cls-34" d="m191.95,208.58l-.68.18c-.06-.17-.18-.33-.33-.48s-.4-.23-.73-.23c-.3,0-.55.07-.75.21s-.3.31-.3.52c0,.19.07.34.2.45.14.11.35.2.64.27l.73.18c.44.11.76.27.98.49s.32.5.32.84c0,.28-.08.53-.24.76-.16.22-.38.4-.67.53s-.62.19-1,.19c-.5,0-.91-.11-1.24-.33-.33-.22-.54-.54-.62-.95l.71-.18c.07.26.2.46.39.59s.44.2.75.2c.35,0,.63-.08.84-.23.21-.15.31-.33.31-.54,0-.35-.24-.58-.73-.69l-.82-.19c-.45-.11-.78-.27-.99-.5s-.32-.5-.32-.84c0-.28.08-.52.23-.74s.37-.38.64-.5c.27-.12.58-.18.92-.18.49,0,.87.11,1.15.32.28.21.47.5.59.85Z"/>
    <path class="cls-34" d="m194.82,212.49c-.47,0-.88-.11-1.22-.32-.35-.21-.61-.51-.79-.89-.19-.38-.28-.82-.28-1.32s.09-.95.27-1.33.44-.68.77-.9.71-.33,1.16-.33c.25,0,.51.04.76.13s.48.22.69.41.37.44.49.76.19.7.19,1.16v.33h-3.79v-.65h3.38l-.35.25c0-.33-.05-.62-.15-.87-.1-.25-.26-.46-.46-.6s-.46-.22-.76-.22-.56.07-.78.22c-.22.15-.38.34-.49.58-.12.24-.17.49-.17.76v.43c0,.37.06.69.19.94s.31.45.54.59c.23.13.5.2.8.2.2,0,.38-.03.54-.09.16-.06.3-.14.42-.26.12-.12.21-.26.27-.43l.73.21c-.08.25-.2.46-.38.65-.18.19-.4.33-.67.43-.27.1-.56.16-.9.16Z"/>
    <path class="cls-34" d="m201.03,208.58l-.68.18c-.06-.17-.17-.33-.33-.48-.16-.15-.4-.23-.73-.23-.3,0-.55.07-.75.21s-.3.31-.3.52c0,.19.07.34.21.45s.35.2.64.27l.73.18c.44.11.76.27.98.49.22.22.32.5.32.84,0,.28-.08.53-.24.76-.16.22-.38.4-.67.53s-.62.19-1,.19c-.5,0-.92-.11-1.24-.33s-.53-.54-.62-.95l.71-.18c.07.26.2.46.39.59.19.13.44.2.75.2.35,0,.63-.08.84-.23.21-.15.31-.33.31-.54,0-.35-.24-.58-.73-.69l-.82-.19c-.45-.11-.78-.27-.99-.5s-.32-.5-.32-.84c0-.28.08-.52.24-.74.16-.21.37-.38.64-.5.27-.12.58-.18.92-.18.49,0,.87.11,1.15.32.28.21.47.5.59.85Z"/>
  </g>
  <g>
    <path class="cls-34" d="m33.7,73.52h-1.62c-.01-.15-.08-.27-.21-.35-.13-.09-.28-.13-.46-.13-.15,0-.28.03-.39.08-.11.05-.16.13-.16.24,0,.07.03.14.09.21.06.06.19.11.37.15l1,.18c.5.09.88.24,1.12.46.25.22.37.51.37.87s-.1.66-.31.91-.49.45-.84.59c-.36.14-.76.21-1.21.21-.75,0-1.34-.15-1.76-.46-.42-.31-.66-.71-.71-1.21h1.75c.03.16.11.27.24.36.13.08.3.12.49.12.16,0,.3-.03.4-.08s.16-.13.16-.23c0-.17-.19-.29-.56-.36l-.87-.16c-.5-.09-.87-.26-1.12-.5-.25-.24-.37-.56-.37-.94,0-.34.09-.63.27-.87.18-.24.44-.42.78-.54.34-.12.74-.19,1.21-.19.71,0,1.27.15,1.68.44.41.29.62.7.64,1.22Z"/>
    <path class="cls-34" d="m37.23,71.92v1.28h-3.23v-1.28h3.23Zm-2.61-1.17h1.77v4.5c0,.1.03.18.08.23.05.05.14.08.25.08.05,0,.12,0,.19-.02.07-.01.12-.02.16-.04l.25,1.25c-.2.06-.39.1-.55.12-.17.02-.33.04-.48.04-.55,0-.97-.13-1.25-.38-.28-.25-.42-.62-.42-1.11v-4.67Z"/>
    <path class="cls-34" d="m37.74,76.83v-4.91h1.71v.94h.05c.09-.35.23-.6.42-.76.2-.16.42-.24.68-.24.08,0,.15,0,.23.02s.15.03.22.05v1.5c-.09-.03-.2-.05-.32-.07-.13-.01-.24-.02-.33-.02-.17,0-.33.04-.47.12-.14.08-.25.19-.32.33-.08.14-.12.3-.12.49v2.56h-1.77Z"/>
    <path class="cls-34" d="m43.51,76.92c-.53,0-.99-.11-1.37-.32-.38-.21-.67-.51-.87-.89-.2-.38-.3-.82-.3-1.33s.1-.95.3-1.33c.2-.38.49-.67.87-.89.38-.21.84-.32,1.37-.32s.99.11,1.37.32c.38.21.67.51.87.89.2.38.3.82.3,1.33s-.1.95-.3,1.33c-.2.38-.49.68-.87.89-.38.21-.84.32-1.37.32Zm0-1.32c.15,0,.28-.05.39-.15.11-.1.19-.24.25-.42s.09-.4.09-.66-.03-.48-.09-.65-.14-.31-.25-.41c-.11-.09-.24-.14-.39-.14s-.29.05-.4.14c-.11.09-.2.23-.26.41s-.09.4-.09.65.03.47.09.66.14.32.26.42c.11.1.25.15.4.15Z"/>
    <path class="cls-34" d="m48.33,74.07v2.76h-1.77v-4.91h1.75v.94h.04c.11-.31.29-.56.53-.74.25-.18.55-.27.92-.27s.65.08.91.24c.26.16.46.38.6.65s.21.6.21.95v3.13h-1.77v-2.76c0-.24-.06-.43-.18-.57s-.3-.21-.52-.21c-.14,0-.27.03-.38.09-.11.06-.19.15-.25.27-.06.12-.09.26-.09.42Z"/>
    <path class="cls-34" d="m54.54,78.77c-.74,0-1.31-.15-1.73-.46-.41-.3-.64-.69-.67-1.17h1.7c.02.11.06.19.13.25s.16.11.26.14.23.04.37.04c.23,0,.42-.06.57-.17.15-.11.22-.31.22-.6v-.83h-.05c-.06.16-.16.3-.29.42-.13.12-.29.21-.48.27-.18.06-.39.09-.61.09-.35,0-.67-.08-.96-.24-.29-.16-.53-.42-.71-.77-.18-.35-.27-.81-.27-1.38,0-.59.09-1.08.28-1.45.19-.37.42-.64.72-.81s.6-.26.93-.26c.24,0,.46.04.64.12.18.08.34.2.47.34.13.14.22.29.29.46h.04v-.86h1.75v4.9c0,.41-.11.77-.32,1.06-.21.29-.52.51-.9.67s-.84.23-1.36.23Zm.06-3.26c.24,0,.43-.1.57-.3.14-.2.21-.48.21-.83,0-.24-.03-.45-.09-.63-.06-.17-.15-.31-.27-.4-.12-.09-.26-.14-.42-.14s-.3.05-.41.14-.2.23-.26.4c-.06.17-.09.38-.09.63s.03.45.09.62c.06.17.15.3.26.39s.25.13.41.13Z"/>
    <path class="cls-34" d="m61.91,76.94c-.41,0-.77-.1-1.08-.31-.31-.21-.56-.5-.73-.89-.18-.38-.26-.83-.26-1.35s.09-.96.27-1.34c.18-.38.42-.67.74-.88.31-.21.68-.31,1.09-.31.32,0,.58.05.76.16.19.11.33.23.43.36.1.13.18.24.23.33h.06v-2.42h.75v6.55h-.72v-.76h-.09c-.06.09-.13.2-.24.34-.1.14-.25.26-.44.37-.19.11-.44.16-.76.16Zm.1-.68c.3,0,.56-.08.77-.24.21-.16.37-.38.47-.66.11-.28.16-.61.16-.98s-.05-.69-.16-.97c-.11-.28-.26-.49-.47-.65-.21-.15-.47-.23-.78-.23s-.58.08-.79.25-.37.39-.47.66-.16.59-.16.94.05.67.16.95c.11.28.27.51.48.68.21.17.47.25.79.25Z"/>
    <path class="cls-34" d="m65.49,71.1c-.15,0-.27-.05-.38-.15s-.16-.22-.16-.36.05-.26.16-.36.23-.15.38-.15.27.05.38.15.16.22.16.36-.05.26-.16.36-.23.15-.38.15Zm-.38,5.73v-4.91h.75v4.91h-.75Z"/>
    <path class="cls-34" d="m69.01,71.92v.64h-2.65v-.64h2.65Zm-1.85,4.91v-5.59c0-.28.07-.52.2-.7.13-.19.31-.33.52-.42s.43-.14.66-.14c.19,0,.34.02.46.05.12.03.21.06.26.09l-.22.65s-.09-.03-.16-.05c-.07-.02-.15-.03-.27-.03-.25,0-.43.06-.54.19-.11.13-.17.31-.17.56v5.41h-.75Z"/>
    <path class="cls-34" d="m71.83,71.92v.64h-2.65v-.64h2.65Zm-1.85,4.91v-5.59c0-.28.07-.52.2-.7.13-.19.31-.33.52-.42s.43-.14.66-.14c.19,0,.34.02.46.05.12.03.21.06.26.09l-.22.65s-.09-.03-.16-.05c-.07-.02-.15-.03-.27-.03-.25,0-.43.06-.54.19-.11.13-.17.31-.17.56v5.41h-.75Z"/>
    <path class="cls-34" d="m74.32,76.94c-.47,0-.88-.11-1.22-.32-.34-.21-.61-.51-.79-.89-.19-.38-.28-.82-.28-1.32s.09-.95.27-1.33.44-.68.77-.9c.33-.22.72-.33,1.16-.33.25,0,.51.04.76.13s.48.22.69.41c.21.19.37.44.49.76s.18.7.18,1.16v.33h-3.79v-.65h3.38l-.35.25c0-.33-.05-.62-.15-.87s-.25-.46-.46-.6c-.2-.15-.46-.22-.76-.22s-.56.07-.78.22c-.22.15-.38.34-.49.58-.12.24-.17.49-.17.76v.43c0,.37.06.69.19.94s.31.45.54.59c.23.13.5.2.8.2.2,0,.38-.03.54-.09.16-.06.3-.14.42-.26.12-.12.21-.26.27-.43l.73.21c-.08.25-.2.46-.38.65-.18.19-.4.33-.67.43-.27.1-.57.16-.9.16Z"/>
    <path class="cls-34" d="m77.07,76.83v-4.91h.72v.75h.05c.09-.24.25-.44.49-.59.24-.15.5-.23.79-.23.06,0,.12,0,.21,0,.08,0,.15,0,.19,0v.76s-.08-.01-.18-.03-.19-.02-.29-.02c-.24,0-.45.05-.64.15s-.33.24-.44.41c-.11.17-.16.37-.16.59v3.1h-.75Z"/>
    <path class="cls-34" d="m81.9,76.94c-.47,0-.88-.11-1.22-.32-.34-.21-.61-.51-.79-.89-.19-.38-.28-.82-.28-1.32s.09-.95.27-1.33.44-.68.77-.9c.33-.22.72-.33,1.16-.33.25,0,.51.04.76.13s.48.22.69.41c.21.19.37.44.49.76s.18.7.18,1.16v.33h-3.79v-.65h3.38l-.35.25c0-.33-.05-.62-.15-.87s-.25-.46-.46-.6c-.2-.15-.46-.22-.76-.22s-.56.07-.78.22c-.22.15-.38.34-.49.58-.12.24-.17.49-.17.76v.43c0,.37.06.69.19.94s.31.45.54.59c.23.13.5.2.8.2.2,0,.38-.03.54-.09.16-.06.3-.14.42-.26.12-.12.21-.26.27-.43l.73.21c-.08.25-.2.46-.38.65-.18.19-.4.33-.67.43-.27.1-.57.16-.9.16Z"/>
    <path class="cls-34" d="m85.39,73.88v2.95h-.75v-4.91h.72v.77h.07c.11-.25.29-.45.52-.61s.54-.23.91-.23c.33,0,.62.07.87.2s.44.34.58.61c.14.27.21.62.21,1.04v3.12h-.75v-3.07c0-.38-.1-.68-.3-.9-.2-.22-.48-.33-.83-.33-.24,0-.46.05-.65.16s-.34.26-.45.46c-.11.2-.17.44-.17.73Z"/>
    <path class="cls-34" d="m91.62,71.92v.64h-2.54v-.64h2.54Zm-1.8-1.17h.75v4.68c0,.25.05.44.16.56.11.12.27.18.5.18.05,0,.1,0,.16,0,.05,0,.11-.01.18-.03l.16.68c-.07.03-.16.05-.26.06-.1.02-.2.02-.31.02-.4,0-.72-.12-.96-.35-.25-.23-.37-.54-.37-.91v-4.88Z"/>
    <path class="cls-34" d="m92.72,71.1c-.15,0-.27-.05-.38-.15s-.16-.22-.16-.36.05-.26.16-.36.23-.15.38-.15.27.05.38.15.16.22.16.36-.05.26-.16.36-.23.15-.38.15Zm-.38,5.73v-4.91h.75v4.91h-.75Z"/>
    <path class="cls-34" d="m95.5,76.95c-.31,0-.59-.06-.85-.18-.25-.12-.46-.29-.61-.52-.15-.23-.22-.5-.22-.82,0-.28.06-.51.17-.68.11-.17.26-.31.45-.41.19-.1.39-.18.62-.23.22-.05.45-.09.68-.12.3-.04.54-.07.73-.09.19-.02.32-.06.41-.11.09-.05.13-.13.13-.25v-.03c0-.31-.09-.56-.26-.73-.17-.17-.43-.26-.78-.26s-.64.08-.84.24-.35.32-.43.5l-.72-.25c.13-.3.3-.53.52-.7.21-.17.45-.28.7-.35.25-.07.5-.1.75-.1.16,0,.34.02.54.05.21.04.41.11.6.23.2.12.36.29.48.52.13.23.19.54.19.93v3.23h-.76v-.67h-.04c-.05.11-.13.22-.25.34s-.28.23-.48.31c-.2.09-.44.13-.73.13Zm.11-.68c.3,0,.55-.06.76-.18s.36-.27.47-.46c.11-.19.16-.38.16-.58v-.69s-.1.07-.21.1c-.11.03-.23.06-.37.08-.14.02-.27.04-.41.06s-.24.03-.32.04c-.2.03-.38.07-.55.12-.17.06-.31.14-.41.25-.1.11-.16.26-.16.46,0,.26.1.46.29.59.2.13.44.2.75.2Z"/>
    <path class="cls-34" d="m99.46,70.28v6.55h-.75v-6.55h.75Z"/>
    <path class="cls-34" d="m106.55,71.92l-1.81,4.91h-.77l-1.81-4.91h.82l1.35,3.92h.05l1.35-3.92h.82Z"/>
    <path class="cls-34" d="m107.5,71.1c-.15,0-.27-.05-.38-.15s-.16-.22-.16-.36.05-.26.16-.36.23-.15.38-.15.27.05.38.15.16.22.16.36-.05.26-.16.36-.23.15-.38.15Zm-.38,5.73v-4.91h.75v4.91h-.75Z"/>
    <path class="cls-34" d="m110.28,76.95c-.31,0-.59-.06-.85-.18-.25-.12-.46-.29-.61-.52-.15-.23-.22-.5-.22-.82,0-.28.06-.51.17-.68.11-.17.26-.31.45-.41.19-.1.39-.18.62-.23.22-.05.45-.09.68-.12.3-.04.54-.07.73-.09.19-.02.32-.06.41-.11.09-.05.13-.13.13-.25v-.03c0-.31-.09-.56-.26-.73-.17-.17-.43-.26-.78-.26s-.64.08-.84.24-.35.32-.43.5l-.72-.25c.13-.3.3-.53.52-.7.21-.17.45-.28.7-.35.25-.07.5-.1.75-.1.16,0,.34.02.54.05.21.04.41.11.6.23.2.12.36.29.48.52.13.23.19.54.19.93v3.23h-.76v-.67h-.04c-.05.11-.13.22-.25.34s-.28.23-.48.31c-.2.09-.44.13-.73.13Zm.11-.68c.3,0,.55-.06.76-.18s.36-.27.47-.46c.11-.19.16-.38.16-.58v-.69s-.1.07-.21.1c-.11.03-.23.06-.37.08-.14.02-.27.04-.41.06s-.24.03-.32.04c-.2.03-.38.07-.55.12-.17.06-.31.14-.41.25-.1.11-.16.26-.16.46,0,.26.1.46.29.59.2.13.44.2.75.2Z"/>
    <path class="cls-34" d="m115.74,76.94c-.31,0-.57-.05-.76-.16-.19-.11-.34-.23-.44-.37-.1-.14-.18-.25-.24-.34h-.09v.76h-.72v-6.55h.75v2.42h.06c.06-.08.13-.19.23-.33.1-.13.24-.25.43-.36s.44-.16.76-.16c.41,0,.78.1,1.09.31.31.21.56.5.74.88.18.38.27.83.27,1.34s-.09.97-.26,1.35c-.18.38-.42.68-.73.89-.31.21-.68.31-1.09.31Zm-.1-.68c.31,0,.58-.08.79-.25.21-.17.37-.39.48-.68.11-.28.16-.6.16-.95s-.05-.66-.16-.94-.26-.5-.47-.66c-.21-.16-.47-.25-.79-.25s-.57.08-.77.23c-.21.15-.37.37-.47.65-.11.28-.16.6-.16.97s.05.7.16.98c.11.28.27.5.48.66.21.16.46.24.77.24Z"/>
    <path class="cls-34" d="m118.93,71.1c-.15,0-.27-.05-.38-.15s-.16-.22-.16-.36.05-.26.16-.36.23-.15.38-.15.27.05.38.15.16.22.16.36-.05.26-.16.36-.23.15-.38.15Zm-.38,5.73v-4.91h.75v4.91h-.75Z"/>
    <path class="cls-34" d="m121.01,70.28v6.55h-.75v-6.55h.75Z"/>
    <path class="cls-34" d="m122.36,71.1c-.15,0-.27-.05-.38-.15s-.16-.22-.16-.36.05-.26.16-.36.23-.15.38-.15.27.05.38.15.16.22.16.36-.05.26-.16.36-.23.15-.38.15Zm-.38,5.73v-4.91h.75v4.91h-.75Z"/>
    <path class="cls-34" d="m125.82,71.92v.64h-2.54v-.64h2.54Zm-1.8-1.17h.75v4.68c0,.25.05.44.16.56.11.12.27.18.5.18.05,0,.1,0,.16,0,.05,0,.11-.01.18-.03l.16.68c-.07.03-.16.05-.26.06-.1.02-.2.02-.31.02-.4,0-.72-.12-.96-.35-.25-.23-.37-.54-.37-.91v-4.88Z"/>
    <path class="cls-34" d="m127.02,78.67c-.13,0-.24,0-.34-.03s-.17-.04-.21-.06l.19-.66.08.02c.25.06.46.05.63-.04.17-.08.32-.3.45-.66l.14-.39-1.81-4.94h.82l1.35,3.92h.05l1.35-3.92h.82l-2.08,5.62c-.09.25-.21.47-.35.63s-.3.29-.48.37-.39.12-.62.12Z"/>
    <path class="cls-34" d="m135.29,76.94c-.47,0-.88-.11-1.22-.32-.34-.21-.61-.51-.79-.89-.19-.38-.28-.82-.28-1.32s.09-.95.27-1.33.44-.68.77-.9c.33-.22.72-.33,1.16-.33.25,0,.51.04.76.13s.48.22.69.41c.21.19.37.44.49.76s.18.7.18,1.16v.33h-3.79v-.65h3.38l-.35.25c0-.33-.05-.62-.15-.87s-.25-.46-.46-.6c-.2-.15-.46-.22-.76-.22s-.56.07-.78.22c-.22.15-.38.34-.49.58-.12.24-.17.49-.17.76v.43c0,.37.06.69.19.94s.31.45.54.59c.23.13.5.2.8.2.2,0,.38-.03.54-.09.16-.06.3-.14.42-.26.12-.12.21-.26.27-.43l.73.21c-.08.25-.2.46-.38.65-.18.19-.4.33-.67.43-.27.1-.57.16-.9.16Z"/>
    <path class="cls-34" d="m140.22,71.92v.64h-2.65v-.64h2.65Zm-1.85,4.91v-5.59c0-.28.07-.52.2-.7.13-.19.31-.33.52-.42s.43-.14.66-.14c.19,0,.34.02.46.05.12.03.21.06.26.09l-.22.65s-.09-.03-.16-.05c-.07-.02-.15-.03-.27-.03-.25,0-.43.06-.54.19-.11.13-.17.31-.17.56v5.41h-.75Z"/>
    <path class="cls-34" d="m143.04,71.92v.64h-2.65v-.64h2.65Zm-1.85,4.91v-5.59c0-.28.07-.52.2-.7.13-.19.31-.33.52-.42s.43-.14.66-.14c.19,0,.34.02.46.05.12.03.21.06.26.09l-.22.65s-.09-.03-.16-.05c-.07-.02-.15-.03-.27-.03-.25,0-.43.06-.54.19-.11.13-.17.31-.17.56v5.41h-.75Z"/>
    <path class="cls-34" d="m145.53,76.94c-.47,0-.88-.11-1.22-.32-.34-.21-.61-.51-.79-.89-.19-.38-.28-.82-.28-1.32s.09-.95.27-1.33.44-.68.77-.9c.33-.22.72-.33,1.16-.33.25,0,.51.04.76.13s.48.22.69.41c.21.19.37.44.49.76s.18.7.18,1.16v.33h-3.79v-.65h3.38l-.35.25c0-.33-.05-.62-.15-.87s-.25-.46-.46-.6c-.2-.15-.46-.22-.76-.22s-.56.07-.78.22c-.22.15-.38.34-.49.58-.12.24-.17.49-.17.76v.43c0,.37.06.69.19.94s.31.45.54.59c.23.13.5.2.8.2.2,0,.38-.03.54-.09.16-.06.3-.14.42-.26.12-.12.21-.26.27-.43l.73.21c-.08.25-.2.46-.38.65-.18.19-.4.33-.67.43-.27.1-.57.16-.9.16Z"/>
    <path class="cls-34" d="m150.26,76.94c-.46,0-.85-.11-1.18-.33-.33-.22-.59-.52-.77-.9-.18-.38-.27-.82-.27-1.31s.09-.94.28-1.33c.18-.38.44-.68.78-.9.33-.22.72-.33,1.16-.33.35,0,.66.06.93.19.28.13.5.31.68.54.18.23.29.5.33.81h-.76c-.04-.15-.11-.29-.21-.42-.1-.13-.23-.24-.39-.32-.16-.08-.36-.12-.58-.12-.29,0-.55.08-.77.23-.22.15-.39.37-.51.64-.12.28-.18.6-.18.97s.06.71.18.99.29.5.51.66c.22.16.48.23.78.23s.55-.08.76-.23c.21-.15.35-.36.42-.63h.76c-.04.29-.15.55-.31.78-.17.23-.39.42-.66.55-.27.14-.59.2-.96.2Z"/>
    <path class="cls-34" d="m155.03,71.92v.64h-2.54v-.64h2.54Zm-1.8-1.17h.75v4.68c0,.25.05.44.16.56.11.12.27.18.5.18.05,0,.1,0,.16,0,.05,0,.11-.01.18-.03l.16.68c-.07.03-.16.05-.26.06-.1.02-.2.02-.31.02-.4,0-.72-.12-.96-.35-.25-.23-.37-.54-.37-.91v-4.88Z"/>
    <path class="cls-34" d="m159.14,73.03l-.68.18c-.06-.17-.17-.33-.33-.48-.16-.15-.4-.23-.73-.23-.3,0-.55.07-.75.21s-.3.31-.3.52c0,.19.07.34.2.45.14.11.35.2.64.27l.73.18c.44.11.76.27.98.49.22.22.32.5.32.84,0,.28-.08.53-.24.76s-.38.4-.67.53-.62.19-1,.19c-.5,0-.92-.11-1.24-.33-.33-.22-.53-.54-.62-.95l.71-.18c.07.26.2.46.39.59.19.13.44.2.75.2.35,0,.63-.08.84-.23.21-.15.31-.33.31-.54,0-.35-.24-.58-.73-.69l-.82-.19c-.45-.11-.78-.27-.99-.5s-.32-.5-.32-.84c0-.28.08-.52.24-.74.16-.21.37-.38.64-.5s.58-.18.92-.18c.49,0,.87.11,1.15.32.28.21.47.5.59.85Z"/>
  </g>
  <g>
    <rect class="cls-7" x="29.29" y="42.17" width="25.03" height="25.03"/>
    <rect class="cls-18" x="54.31" y="42.17" width="25.03" height="25.03"/>
    <rect class="cls-42" x="79.34" y="42.17" width="25.03" height="25.03"/>
    <rect class="cls-16" x="104.37" y="42.17" width="25.03" height="25.03"/>
    <rect class="cls-36" x="129.4" y="42.17" width="25.03" height="25.03"/>
    <rect class="cls-33" x="154.43" y="42.17" width="25.03" height="25.03"/>
    <rect class="cls-38" x="179.45" y="42.17" width="25.03" height="25.03"/>
  </g>
  <g>
    <path class="cls-34" d="m77.84,15.43c-.57,0-1.06-.08-1.49-.25-.42-.17-.75-.43-.99-.78-.24-.35-.35-.8-.36-1.35h1.69c.01.2.06.37.15.51.09.14.22.24.38.31.16.07.36.11.59.11.19,0,.35-.02.48-.07s.23-.11.29-.2c.07-.08.1-.18.1-.29,0-.1-.03-.19-.09-.26-.06-.07-.17-.14-.31-.2s-.34-.12-.58-.17l-.66-.14c-.58-.12-1.03-.33-1.36-.63-.33-.3-.5-.7-.5-1.21,0-.42.11-.78.34-1.09.23-.31.54-.56.93-.73.4-.17.85-.26,1.37-.26s.99.09,1.37.27c.39.18.68.43.89.75.21.32.32.7.32,1.12h-1.71c-.01-.21-.09-.38-.24-.5-.14-.12-.36-.18-.64-.18-.18,0-.33.02-.45.06-.12.04-.2.1-.26.18s-.08.16-.08.26c0,.1.03.19.09.27.06.08.16.14.29.2.13.06.3.11.5.15l.54.11c.36.08.67.18.93.3.26.13.47.27.64.44.17.17.29.36.37.57.08.21.12.44.12.69,0,.43-.11.8-.32,1.1-.21.3-.52.53-.91.68s-.87.23-1.42.23Z"/>
    <path class="cls-34" d="m80.99,15.35v-4.91h1.77v4.91h-1.77Zm.88-5.41c-.24,0-.45-.08-.62-.24s-.25-.35-.25-.57.08-.42.25-.57.38-.24.62-.24.45.08.62.24.25.35.25.57-.08.42-.25.58-.38.24-.62.24Z"/>
    <path class="cls-34" d="m85.21,12.59v2.76h-1.77v-4.91h1.75v.94h.04c.11-.31.29-.56.53-.74.25-.18.55-.27.92-.27s.65.08.91.24c.26.16.46.38.6.65s.21.6.21.95v3.13h-1.77v-2.76c0-.24-.06-.43-.18-.57s-.3-.21-.52-.21c-.14,0-.27.03-.38.09-.11.06-.19.15-.25.27-.06.12-.09.26-.09.42Z"/>
    <path class="cls-34" d="m91.42,17.3c-.74,0-1.31-.15-1.73-.46-.41-.3-.64-.69-.67-1.17h1.7c.02.11.06.19.13.25s.16.11.26.14.23.04.37.04c.23,0,.42-.06.57-.17.15-.11.22-.31.22-.6v-.83h-.05c-.06.16-.16.3-.29.42-.13.12-.29.21-.48.27-.18.06-.39.09-.61.09-.35,0-.67-.08-.96-.24-.29-.16-.53-.42-.71-.77-.18-.35-.27-.81-.27-1.38,0-.59.09-1.08.28-1.45.19-.37.42-.64.72-.81s.6-.26.93-.26c.24,0,.46.04.64.12.18.08.34.2.47.34.13.14.22.29.29.46h.04v-.86h1.75v4.9c0,.41-.11.77-.32,1.06-.21.29-.52.51-.9.67s-.84.23-1.36.23Zm.06-3.26c.24,0,.43-.1.57-.3.14-.2.21-.48.21-.83,0-.24-.03-.45-.09-.63-.06-.17-.15-.31-.27-.4-.12-.09-.26-.14-.42-.14s-.3.05-.41.14-.2.23-.26.4c-.06.17-.09.38-.09.63s.03.45.09.62c.06.17.15.3.26.39s.25.13.41.13Z"/>
    <path class="cls-34" d="m96.46,8.8v6.55h-1.77v-6.55h1.77Z"/>
    <path class="cls-34" d="m99.5,15.44c-.52,0-.98-.1-1.36-.3-.38-.2-.67-.49-.87-.87-.2-.38-.3-.83-.3-1.36s.1-.95.31-1.33c.2-.38.49-.67.86-.89s.81-.32,1.32-.32c.37,0,.71.06,1.01.17.3.12.56.28.77.5s.38.48.49.79c.12.31.17.66.17,1.05v.4h-4.39v-.97h3.56l-.83.2c0-.2-.03-.37-.09-.5-.06-.14-.14-.24-.26-.31-.11-.07-.26-.11-.43-.11s-.31.04-.43.11c-.12.07-.2.18-.26.31-.06.14-.09.3-.09.5v.7c0,.19.03.36.1.51.07.14.17.25.29.33s.27.12.44.12c.12,0,.23-.02.33-.05.1-.03.18-.08.25-.15s.12-.14.16-.23h1.61c-.06.34-.19.63-.39.89-.2.25-.47.44-.81.58-.34.14-.73.2-1.18.2Z"/>
    <path class="cls-34" d="m105.64,15.35h-1.92l2.16-6.55h2.43l2.16,6.55h-1.92l-1.43-4.75h-.05l-1.43,4.75Zm-.35-2.58h3.6v1.33h-3.6v-1.33Z"/>
    <path class="cls-34" d="m112.88,17.3c-.74,0-1.31-.15-1.73-.46-.41-.3-.64-.69-.67-1.17h1.7c.02.11.06.19.13.25s.16.11.26.14.23.04.37.04c.23,0,.42-.06.57-.17.15-.11.22-.31.22-.6v-.83h-.05c-.06.16-.16.3-.29.42-.13.12-.29.21-.48.27-.18.06-.39.09-.61.09-.35,0-.67-.08-.96-.24-.29-.16-.53-.42-.71-.77-.18-.35-.27-.81-.27-1.38,0-.59.09-1.08.28-1.45.19-.37.42-.64.72-.81s.6-.26.93-.26c.24,0,.46.04.64.12.18.08.34.2.47.34.13.14.22.29.29.46h.04v-.86h1.75v4.9c0,.41-.11.77-.32,1.06-.21.29-.52.51-.9.67s-.84.23-1.36.23Zm.06-3.26c.24,0,.43-.1.57-.3.14-.2.21-.48.21-.83,0-.24-.03-.45-.09-.63-.06-.17-.15-.31-.27-.4-.12-.09-.26-.14-.42-.14s-.3.05-.41.14-.2.23-.26.4c-.06.17-.09.38-.09.63s.03.45.09.62c.06.17.15.3.26.39s.25.13.41.13Z"/>
    <path class="cls-34" d="m118.5,15.44c-.52,0-.98-.1-1.36-.3-.38-.2-.67-.49-.87-.87-.2-.38-.3-.83-.3-1.36s.1-.95.31-1.33c.2-.38.49-.67.86-.89s.81-.32,1.32-.32c.37,0,.71.06,1.01.17.3.12.56.28.77.5s.38.48.49.79c.12.31.17.66.17,1.05v.4h-4.39v-.97h3.56l-.83.2c0-.2-.03-.37-.09-.5-.06-.14-.14-.24-.26-.31-.11-.07-.26-.11-.43-.11s-.31.04-.43.11c-.12.07-.2.18-.26.31-.06.14-.09.3-.09.5v.7c0,.19.03.36.1.51.07.14.17.25.29.33s.27.12.44.12c.12,0,.23-.02.33-.05.1-.03.18-.08.25-.15s.12-.14.16-.23h1.61c-.06.34-.19.63-.39.89-.2.25-.47.44-.81.58-.34.14-.73.2-1.18.2Z"/>
    <path class="cls-34" d="m123.16,12.59v2.76h-1.77v-4.91h1.75v.94h.04c.11-.31.29-.56.53-.74.25-.18.55-.27.92-.27s.65.08.91.24c.26.16.46.38.6.65s.21.6.21.95v3.13h-1.77v-2.76c0-.24-.06-.43-.18-.57s-.3-.21-.52-.21c-.14,0-.27.03-.38.09-.11.06-.19.15-.25.27-.06.12-.09.26-.09.42Z"/>
    <path class="cls-34" d="m129.96,10.44v1.28h-3.23v-1.28h3.23Zm-2.61-1.17h1.77v4.5c0,.1.03.18.08.23.05.05.14.08.25.08.05,0,.12,0,.19-.02.07-.01.12-.02.16-.04l.25,1.25c-.2.06-.39.1-.55.12-.17.02-.33.04-.48.04-.55,0-.97-.13-1.25-.38-.28-.25-.42-.62-.42-1.11v-4.67Z"/>
    <path class="cls-34" d="m133.8,8.8v6.55h-1.78v-6.55h1.78Zm.75,6.55h-1.79v-1.51h1.72c.33,0,.6-.05.83-.15.23-.1.4-.28.53-.54.12-.26.18-.61.18-1.07s-.06-.81-.18-1.07c-.12-.26-.3-.44-.54-.54s-.53-.16-.87-.16h-1.7v-1.51h1.79c.67,0,1.25.13,1.74.39s.87.64,1.13,1.13c.27.49.4,1.08.4,1.76s-.13,1.26-.4,1.75c-.27.49-.64.86-1.13,1.12-.49.26-1.06.39-1.73.39Z"/>
    <path class="cls-34" d="m140.79,15.44c-.53,0-.99-.11-1.37-.32-.38-.21-.67-.51-.87-.89-.2-.38-.3-.82-.3-1.33s.1-.95.3-1.33c.2-.38.49-.67.87-.89.38-.21.84-.32,1.37-.32s.99.11,1.37.32c.38.21.67.51.87.89.2.38.3.82.3,1.33s-.1.95-.3,1.33c-.2.38-.49.68-.87.89-.38.21-.84.32-1.37.32Zm0-1.32c.15,0,.28-.05.39-.15.11-.1.19-.24.25-.42s.09-.4.09-.66-.03-.48-.09-.65-.14-.31-.25-.41c-.11-.09-.24-.14-.39-.14s-.29.05-.4.14c-.11.09-.2.23-.26.41s-.09.4-.09.65.03.47.09.66.14.32.26.42c.11.1.25.15.4.15Z"/>
    <path class="cls-34" d="m148.33,12.04h-1.62c-.01-.15-.08-.27-.21-.35-.13-.09-.28-.13-.46-.13-.15,0-.28.03-.39.08-.11.05-.16.13-.16.24,0,.07.03.14.09.21.06.06.19.11.37.15l1,.18c.5.09.88.24,1.12.46.25.22.37.51.37.87s-.1.66-.31.91-.49.45-.84.59c-.36.14-.76.21-1.21.21-.75,0-1.34-.15-1.76-.46-.42-.31-.66-.71-.71-1.21h1.75c.03.16.11.27.24.36.13.08.3.12.49.12.16,0,.3-.03.4-.08s.16-.13.16-.23c0-.17-.19-.29-.56-.36l-.87-.16c-.5-.09-.87-.26-1.12-.5-.25-.24-.37-.56-.37-.94,0-.34.09-.63.27-.87.18-.24.44-.42.78-.54.34-.12.74-.19,1.21-.19.71,0,1.27.15,1.68.44.41.29.62.7.64,1.22Z"/>
    <path class="cls-34" d="m151.28,15.44c-.52,0-.98-.1-1.36-.3-.38-.2-.67-.49-.87-.87-.2-.38-.3-.83-.3-1.36s.1-.95.31-1.33c.2-.38.49-.67.86-.89s.81-.32,1.32-.32c.37,0,.71.06,1.01.17.3.12.56.28.77.5s.38.48.49.79c.12.31.17.66.17,1.05v.4h-4.39v-.97h3.56l-.83.2c0-.2-.03-.37-.09-.5-.06-.14-.14-.24-.26-.31-.11-.07-.26-.11-.43-.11s-.31.04-.43.11c-.12.07-.2.18-.26.31-.06.14-.09.3-.09.5v.7c0,.19.03.36.1.51.07.14.17.25.29.33s.27.12.44.12c.12,0,.23-.02.33-.05.1-.03.18-.08.25-.15s.12-.14.16-.23h1.61c-.06.34-.19.63-.39.89-.2.25-.47.44-.81.58-.34.14-.73.2-1.18.2Z"/>
    <path class="cls-34" d="m158.65,12.04h-1.62c-.01-.15-.08-.27-.21-.35-.13-.09-.28-.13-.46-.13-.15,0-.28.03-.39.08-.11.05-.16.13-.16.24,0,.07.03.14.09.21.06.06.19.11.37.15l1,.18c.5.09.88.24,1.12.46.25.22.37.51.37.87s-.1.66-.31.91-.49.45-.84.59c-.36.14-.76.21-1.21.21-.75,0-1.34-.15-1.76-.46-.42-.31-.66-.71-.71-1.21h1.75c.03.16.11.27.24.36.13.08.3.12.49.12.16,0,.3-.03.4-.08s.16-.13.16-.23c0-.17-.19-.29-.56-.36l-.87-.16c-.5-.09-.87-.26-1.12-.5-.25-.24-.37-.56-.37-.94,0-.34.09-.63.27-.87.18-.24.44-.42.78-.54.34-.12.74-.19,1.21-.19.71,0,1.27.15,1.68.44.41.29.62.7.64,1.22Z"/>
  </g>
  <polygon class="cls-2" points="166.94 21.77 166.94 34.79 66.82 34.79 166.94 21.77"/>
  <g>
    <g>
      <path class="cls-2" d="m101.46,240.81c-.6,0-1.13-.13-1.61-.39-.48-.26-.85-.64-1.13-1.14-.28-.5-.42-1.11-.42-1.83s.14-1.34.42-1.85.66-.88,1.14-1.14,1.01-.38,1.6-.38c.41,0,.79.06,1.14.17.35.11.65.28.92.5.26.22.47.48.63.8s.25.68.29,1.08h-1.8c-.01-.15-.04-.29-.1-.41-.05-.12-.13-.23-.22-.32-.09-.09-.21-.16-.34-.2-.13-.05-.29-.07-.46-.07-.3,0-.55.07-.75.22-.21.14-.36.35-.47.62s-.16.6-.16.98.05.73.16,1c.11.27.26.47.47.61.2.13.45.2.74.2.16,0,.31-.02.44-.06s.24-.1.34-.18c.1-.08.17-.17.23-.29.06-.11.1-.24.12-.38h1.8c-.02.28-.1.56-.23.85-.13.29-.32.55-.57.79-.25.24-.55.44-.91.58-.36.15-.78.22-1.26.22Z"/>
      <path class="cls-2" d="m107.43,240.81c-.53,0-.99-.11-1.37-.32-.38-.21-.67-.51-.87-.89-.2-.38-.3-.82-.3-1.33s.1-.95.3-1.33c.2-.38.49-.67.87-.89.38-.21.84-.32,1.37-.32s.99.11,1.37.32c.38.21.67.51.87.89.2.38.3.82.3,1.33s-.1.95-.3,1.33c-.2.38-.49.68-.87.89-.38.21-.84.32-1.37.32Zm0-1.32c.15,0,.28-.05.39-.15.11-.1.19-.24.25-.42s.09-.4.09-.66-.03-.48-.09-.65-.14-.31-.25-.41c-.11-.09-.24-.14-.39-.14s-.29.05-.4.14c-.11.09-.2.23-.26.41s-.09.4-.09.65.03.47.09.66.14.32.26.42c.11.1.25.15.4.15Z"/>
      <path class="cls-2" d="m110.48,240.72v-4.91h1.67v.94h.05c.1-.31.28-.55.53-.73.25-.18.54-.27.88-.27s.65.09.9.27c.25.18.4.43.45.73h.05c.08-.3.26-.54.53-.73.27-.18.59-.27.96-.27.47,0,.85.15,1.14.45s.44.7.44,1.21v3.31h-1.77v-2.87c0-.21-.05-.38-.16-.5-.11-.12-.25-.18-.44-.18s-.33.06-.43.18-.16.29-.16.5v2.87h-1.69v-2.87c0-.21-.05-.38-.16-.5s-.25-.18-.43-.18c-.12,0-.23.03-.32.08s-.16.13-.2.23c-.05.1-.07.22-.07.37v2.87h-1.77Z"/>
      <path class="cls-2" d="m121.92,240.78c-.23,0-.43-.04-.61-.11-.18-.08-.33-.18-.46-.31s-.22-.28-.29-.45h-.04v.81h-1.75v-6.55h1.77v2.5h.03c.06-.17.16-.32.28-.46s.28-.25.46-.34c.18-.08.4-.12.64-.12.33,0,.63.09.92.26.29.17.53.44.71.81.19.37.28.85.28,1.45s-.09,1.03-.26,1.41-.41.65-.7.83-.62.27-.97.27Zm-.65-1.35c.16,0,.3-.05.42-.14.11-.09.2-.23.26-.4.06-.17.09-.38.09-.62s-.03-.45-.09-.63c-.06-.17-.15-.31-.26-.4-.11-.09-.25-.14-.42-.14s-.3.05-.42.14-.21.23-.27.4c-.06.17-.09.38-.09.63s.03.44.09.62c.06.17.15.31.27.4s.26.14.42.14Z"/>
      <path class="cls-2" d="m124.36,240.72v-4.91h1.77v4.91h-1.77Zm.88-5.41c-.24,0-.45-.08-.62-.24s-.25-.35-.25-.57.08-.42.25-.57.38-.24.62-.24.45.08.62.24.25.35.25.57-.08.42-.25.58-.38.24-.62.24Z"/>
      <path class="cls-2" d="m128.58,237.96v2.76h-1.77v-4.91h1.75v.94h.04c.11-.31.29-.56.53-.74.25-.18.55-.27.92-.27s.65.08.91.24c.26.16.46.38.6.65s.21.6.21.95v3.13h-1.77v-2.76c0-.24-.06-.43-.18-.57s-.3-.21-.52-.21c-.14,0-.27.03-.38.09-.11.06-.19.15-.25.27-.06.12-.09.26-.09.42Z"/>
      <path class="cls-2" d="m133.82,240.8c-.31,0-.59-.05-.83-.16-.24-.1-.43-.26-.56-.47s-.2-.48-.2-.8c0-.27.04-.5.14-.69s.22-.35.38-.47c.16-.12.36-.21.57-.28.22-.07.46-.11.71-.12.28-.02.5-.05.66-.07.17-.03.29-.07.36-.13.08-.06.11-.13.11-.23v-.02c0-.13-.05-.22-.15-.29-.1-.07-.22-.1-.37-.1-.17,0-.31.04-.41.11s-.17.19-.19.34h-1.62c.02-.3.12-.57.28-.83.17-.25.42-.45.74-.61.33-.15.73-.23,1.22-.23.35,0,.66.04.94.12s.52.2.71.34.35.32.45.51c.1.2.16.41.16.63v3.37h-1.65v-.69h-.04c-.1.18-.22.33-.36.45-.14.11-.3.2-.47.25s-.37.08-.58.08Zm.57-1.12c.13,0,.26-.03.38-.08.12-.06.22-.14.29-.24.08-.1.11-.23.11-.38v-.4s-.1.04-.15.05-.11.03-.17.05c-.06.01-.12.03-.18.04-.06.01-.13.02-.2.04-.14.02-.25.05-.34.1-.09.05-.15.11-.19.18s-.06.15-.06.23c0,.14.05.24.14.31.1.07.22.11.37.11Z"/>
      <path class="cls-2" d="m140.53,235.81v1.28h-3.23v-1.28h3.23Zm-2.61-1.17h1.77v4.5c0,.1.03.18.08.23.05.05.14.08.25.08.05,0,.12,0,.19-.02.07-.01.12-.02.16-.04l.25,1.25c-.2.06-.39.1-.55.12-.17.02-.33.04-.48.04-.55,0-.97-.13-1.25-.38-.28-.25-.42-.62-.42-1.11v-4.67Z"/>
      <path class="cls-2" d="m141.04,240.72v-4.91h1.77v4.91h-1.77Zm.88-5.41c-.24,0-.45-.08-.62-.24s-.25-.35-.25-.57.08-.42.25-.57.38-.24.62-.24.45.08.62.24.25.35.25.57-.08.42-.25.58-.38.24-.62.24Z"/>
      <path class="cls-2" d="m145.86,240.81c-.53,0-.99-.11-1.37-.32-.38-.21-.67-.51-.87-.89-.2-.38-.3-.82-.3-1.33s.1-.95.3-1.33c.2-.38.49-.67.87-.89.38-.21.84-.32,1.37-.32s.99.11,1.37.32c.38.21.67.51.87.89.2.38.3.82.3,1.33s-.1.95-.3,1.33c-.2.38-.49.68-.87.89-.38.21-.84.32-1.37.32Zm0-1.32c.15,0,.28-.05.39-.15.11-.1.19-.24.25-.42s.09-.4.09-.66-.03-.48-.09-.65-.14-.31-.25-.41c-.11-.09-.24-.14-.39-.14s-.29.05-.4.14c-.11.09-.2.23-.26.41s-.09.4-.09.65.03.47.09.66.14.32.26.42c.11.1.25.15.4.15Z"/>
      <path class="cls-2" d="m150.67,237.96v2.76h-1.77v-4.91h1.75v.94h.04c.11-.31.29-.56.53-.74.25-.18.55-.27.92-.27s.65.08.91.24c.26.16.46.38.6.65s.21.6.21.95v3.13h-1.77v-2.76c0-.24-.06-.43-.18-.57s-.3-.21-.52-.21c-.14,0-.27.03-.38.09-.11.06-.19.15-.25.27-.06.12-.09.26-.09.42Z"/>
      <path class="cls-2" d="m157.87,234.17v6.55h-1.78v-6.55h1.78Zm.75,6.55h-1.79v-1.51h1.72c.33,0,.6-.05.83-.15.23-.1.4-.28.53-.54.12-.26.18-.61.18-1.07s-.06-.81-.18-1.07c-.12-.26-.3-.44-.54-.54s-.53-.16-.87-.16h-1.7v-1.51h1.79c.67,0,1.25.13,1.74.39s.87.64,1.13,1.13c.27.49.4,1.08.4,1.76s-.13,1.26-.4,1.75c-.27.49-.64.86-1.13,1.12-.49.26-1.06.39-1.73.39Z"/>
      <path class="cls-2" d="m164.87,240.81c-.53,0-.99-.11-1.37-.32-.38-.21-.67-.51-.87-.89-.2-.38-.3-.82-.3-1.33s.1-.95.3-1.33c.2-.38.49-.67.87-.89.38-.21.84-.32,1.37-.32s.99.11,1.37.32c.38.21.67.51.87.89.2.38.3.82.3,1.33s-.1.95-.3,1.33c-.2.38-.49.68-.87.89-.38.21-.84.32-1.37.32Zm0-1.32c.15,0,.28-.05.39-.15.11-.1.19-.24.25-.42s.09-.4.09-.66-.03-.48-.09-.65-.14-.31-.25-.41c-.11-.09-.24-.14-.39-.14s-.29.05-.4.14c-.11.09-.2.23-.26.41s-.09.4-.09.65.03.47.09.66.14.32.26.42c.11.1.25.15.4.15Z"/>
      <path class="cls-2" d="m172.4,237.41h-1.62c-.01-.15-.08-.27-.21-.35-.13-.09-.28-.13-.46-.13-.15,0-.28.03-.39.08-.11.05-.16.13-.16.24,0,.07.03.14.09.21.06.06.19.11.37.15l1,.18c.5.09.88.24,1.12.46.25.22.37.51.37.87s-.1.66-.31.91-.49.45-.84.59c-.36.14-.76.21-1.21.21-.75,0-1.34-.15-1.76-.46-.42-.31-.66-.71-.71-1.21h1.75c.03.16.11.27.24.36.13.08.3.12.49.12.16,0,.3-.03.4-.08s.16-.13.16-.23c0-.17-.19-.29-.56-.36l-.87-.16c-.5-.09-.87-.26-1.12-.5-.25-.24-.37-.56-.37-.94,0-.34.09-.63.27-.87.18-.24.44-.42.78-.54.34-.12.74-.19,1.21-.19.71,0,1.27.15,1.68.44.41.29.62.7.64,1.22Z"/>
      <path class="cls-2" d="m175.35,240.81c-.52,0-.98-.1-1.36-.3-.38-.2-.67-.49-.87-.87-.2-.38-.3-.83-.3-1.36s.1-.95.31-1.33c.2-.38.49-.67.86-.89s.81-.32,1.32-.32c.37,0,.71.06,1.01.17.3.12.56.28.77.5s.38.48.49.79c.12.31.17.66.17,1.05v.4h-4.39v-.97h3.56l-.83.2c0-.2-.03-.37-.09-.5-.06-.14-.14-.24-.26-.31-.11-.07-.26-.11-.43-.11s-.31.04-.43.11c-.12.07-.2.18-.26.31-.06.14-.09.3-.09.5v.7c0,.19.03.36.1.51.07.14.17.25.29.33s.27.12.44.12c.12,0,.23-.02.33-.05.1-.03.18-.08.25-.15s.12-.14.16-.23h1.61c-.06.34-.19.63-.39.89-.2.25-.47.44-.81.58-.34.14-.73.2-1.18.2Z"/>
      <path class="cls-2" d="m182.73,237.41h-1.62c-.01-.15-.08-.27-.21-.35-.13-.09-.28-.13-.46-.13-.15,0-.28.03-.39.08-.11.05-.16.13-.16.24,0,.07.03.14.09.21.06.06.19.11.37.15l1,.18c.5.09.88.24,1.12.46.25.22.37.51.37.87s-.1.66-.31.91-.49.45-.84.59c-.36.14-.76.21-1.21.21-.75,0-1.34-.15-1.76-.46-.42-.31-.66-.71-.71-1.21h1.75c.03.16.11.27.24.36.13.08.3.12.49.12.16,0,.3-.03.4-.08s.16-.13.16-.23c0-.17-.19-.29-.56-.36l-.87-.16c-.5-.09-.87-.26-1.12-.5-.25-.24-.37-.56-.37-.94,0-.34.09-.63.27-.87.18-.24.44-.42.78-.54.34-.12.74-.19,1.21-.19.71,0,1.27.15,1.68.44.41.29.62.7.64,1.22Z"/>
    </g>
    <g>
      <path class="cls-10" d="m101.82,240.9c-.6,0-1.13-.13-1.61-.39-.48-.26-.85-.64-1.13-1.14-.28-.5-.42-1.11-.42-1.83s.14-1.34.42-1.85.66-.88,1.14-1.14c.48-.26,1.01-.38,1.6-.38.41,0,.79.06,1.14.17.35.11.65.28.92.5.26.22.47.48.63.8.16.31.25.68.29,1.08h-1.8c-.01-.15-.04-.29-.1-.41-.05-.12-.13-.23-.22-.32-.09-.09-.21-.16-.34-.2-.13-.05-.29-.07-.46-.07-.3,0-.55.07-.75.22-.21.14-.36.35-.47.62-.11.27-.16.6-.16.98s.05.73.16,1c.11.27.26.47.47.61.2.13.45.2.74.2.16,0,.31-.02.44-.06s.24-.1.34-.18c.1-.08.17-.17.23-.29.06-.11.1-.24.12-.38h1.8c-.02.28-.1.56-.23.85-.13.29-.32.55-.57.79-.25.24-.55.44-.91.58-.36.15-.78.22-1.26.22Z"/>
      <path class="cls-10" d="m107.79,240.9c-.53,0-.99-.11-1.37-.32-.38-.21-.67-.51-.87-.89-.2-.38-.3-.82-.3-1.33s.1-.95.3-1.33c.2-.38.49-.67.87-.89.38-.21.84-.32,1.37-.32s.99.11,1.37.32c.38.21.67.51.87.89.2.38.3.82.3,1.33s-.1.95-.3,1.33c-.2.38-.49.67-.87.89-.38.21-.84.32-1.37.32Zm0-1.32c.15,0,.28-.05.39-.15.11-.1.19-.24.25-.42.06-.18.09-.4.09-.66s-.03-.48-.09-.66-.14-.31-.25-.41c-.11-.09-.24-.14-.39-.14s-.29.05-.4.14c-.11.09-.2.23-.26.41s-.09.4-.09.66.03.47.09.66c.06.18.14.32.26.42.11.1.25.15.4.15Z"/>
      <path class="cls-10" d="m110.84,240.81v-4.91h1.67v.94h.05c.1-.31.28-.55.53-.73.25-.18.54-.27.88-.27s.65.09.9.27c.25.18.4.43.45.73h.05c.08-.3.26-.54.53-.73.27-.18.59-.27.96-.27.47,0,.85.15,1.14.45s.44.71.44,1.21v3.31h-1.77v-2.87c0-.21-.05-.38-.16-.5-.11-.12-.25-.18-.44-.18s-.33.06-.43.18c-.11.12-.16.29-.16.5v2.87h-1.69v-2.87c0-.21-.05-.38-.16-.5-.11-.12-.25-.18-.43-.18-.12,0-.23.03-.32.08s-.16.13-.2.24c-.05.1-.07.22-.07.37v2.87h-1.77Z"/>
      <path class="cls-10" d="m122.27,240.87c-.23,0-.43-.04-.61-.11-.18-.08-.33-.18-.46-.31-.13-.13-.22-.28-.29-.45h-.04v.81h-1.75v-6.55h1.77v2.5h.03c.06-.17.16-.32.28-.46s.28-.25.46-.34c.18-.08.4-.12.64-.12.33,0,.63.09.92.26.29.17.53.45.71.82.19.37.28.85.28,1.45s-.09,1.03-.26,1.41-.41.65-.7.83c-.29.18-.62.27-.97.27Zm-.65-1.35c.16,0,.3-.05.42-.14.11-.09.2-.23.26-.4.06-.17.09-.38.09-.62s-.03-.45-.09-.63c-.06-.17-.15-.31-.26-.4-.11-.09-.25-.14-.42-.14s-.3.05-.42.14-.21.23-.27.4c-.06.17-.09.38-.09.63s.03.44.09.62c.06.17.15.31.27.4.12.09.26.14.42.14Z"/>
      <path class="cls-10" d="m124.72,240.81v-4.91h1.77v4.91h-1.77Zm.88-5.41c-.24,0-.45-.08-.62-.24s-.25-.35-.25-.57.08-.42.25-.57c.17-.16.38-.24.62-.24s.45.08.62.24c.17.16.25.35.25.57s-.08.42-.25.58-.38.24-.62.24Z"/>
      <path class="cls-10" d="m128.93,238.05v2.76h-1.77v-4.91h1.75v.94h.04c.11-.31.29-.56.53-.74.25-.18.55-.27.92-.27s.65.08.91.24c.26.16.46.38.6.65s.21.6.21.95v3.13h-1.77v-2.76c0-.24-.06-.43-.18-.57-.12-.14-.3-.21-.52-.21-.14,0-.27.03-.38.09-.11.06-.19.15-.25.27-.06.12-.09.26-.09.42Z"/>
      <path class="cls-10" d="m134.17,240.89c-.31,0-.59-.05-.83-.16-.24-.1-.43-.26-.56-.47s-.2-.48-.2-.8c0-.27.04-.5.14-.69s.22-.35.38-.47c.16-.12.36-.21.57-.28.22-.07.46-.11.71-.12.28-.02.5-.05.66-.08.17-.03.29-.07.36-.13.08-.06.11-.13.11-.23v-.02c0-.13-.05-.22-.15-.29-.1-.07-.22-.1-.37-.1-.17,0-.31.04-.41.11s-.17.19-.19.34h-1.62c.02-.3.12-.57.28-.83.17-.25.42-.45.74-.61.33-.15.73-.23,1.22-.23.35,0,.66.04.94.12s.52.2.71.34.35.32.45.51c.1.2.16.41.16.63v3.37h-1.65v-.69h-.04c-.1.18-.22.33-.36.45-.14.11-.3.2-.47.25s-.37.08-.58.08Zm.57-1.12c.13,0,.26-.03.38-.08.12-.06.22-.13.29-.24.08-.1.11-.23.11-.38v-.4s-.1.04-.15.05-.11.03-.17.05c-.06.01-.12.03-.18.04-.06.01-.13.02-.2.04-.14.02-.25.05-.34.1-.09.05-.15.11-.19.18-.04.07-.06.15-.06.23,0,.14.05.24.14.31.1.07.22.11.37.11Z"/>
      <path class="cls-10" d="m140.89,235.9v1.28h-3.23v-1.28h3.23Zm-2.61-1.17h1.77v4.5c0,.1.03.18.08.23.05.05.14.08.25.08.05,0,.12,0,.19-.02.07-.01.12-.02.16-.04l.25,1.25c-.2.06-.39.09-.55.12-.17.02-.33.04-.48.04-.55,0-.97-.13-1.25-.38-.28-.25-.42-.62-.42-1.11v-4.67Z"/>
      <path class="cls-10" d="m141.4,240.81v-4.91h1.77v4.91h-1.77Zm.88-5.41c-.24,0-.45-.08-.62-.24s-.25-.35-.25-.57.08-.42.25-.57c.17-.16.38-.24.62-.24s.45.08.62.24c.17.16.25.35.25.57s-.08.42-.25.58-.38.24-.62.24Z"/>
      <path class="cls-10" d="m146.21,240.9c-.53,0-.99-.11-1.37-.32-.38-.21-.67-.51-.87-.89-.2-.38-.3-.82-.3-1.33s.1-.95.3-1.33c.2-.38.49-.67.87-.89.38-.21.84-.32,1.37-.32s.99.11,1.37.32c.38.21.67.51.87.89.2.38.3.82.3,1.33s-.1.95-.3,1.33c-.2.38-.49.67-.87.89-.38.21-.84.32-1.37.32Zm0-1.32c.15,0,.28-.05.39-.15.11-.1.19-.24.25-.42.06-.18.09-.4.09-.66s-.03-.48-.09-.66-.14-.31-.25-.41c-.11-.09-.24-.14-.39-.14s-.29.05-.4.14c-.11.09-.2.23-.26.41s-.09.4-.09.66.03.47.09.66c.06.18.14.32.26.42.11.1.25.15.4.15Z"/>
      <path class="cls-10" d="m151.03,238.05v2.76h-1.77v-4.91h1.75v.94h.04c.11-.31.29-.56.53-.74.25-.18.55-.27.92-.27s.65.08.91.24c.26.16.46.38.6.65s.21.6.21.95v3.13h-1.77v-2.76c0-.24-.06-.43-.18-.57-.12-.14-.3-.21-.52-.21-.14,0-.27.03-.38.09-.11.06-.19.15-.25.27-.06.12-.09.26-.09.42Z"/>
      <path class="cls-10" d="m158.23,234.26v6.55h-1.78v-6.55h1.78Zm.75,6.55h-1.79v-1.51h1.72c.33,0,.6-.05.83-.15.23-.1.4-.28.53-.54.12-.26.18-.61.18-1.07s-.06-.81-.18-1.07c-.12-.26-.3-.44-.54-.54-.24-.1-.53-.16-.87-.16h-1.7v-1.51h1.79c.67,0,1.25.13,1.74.39.49.26.87.64,1.13,1.13.27.49.4,1.08.4,1.76s-.13,1.26-.4,1.75c-.27.49-.64.86-1.13,1.12-.49.26-1.06.39-1.73.39Z"/>
      <path class="cls-10" d="m165.22,240.9c-.53,0-.99-.11-1.37-.32-.38-.21-.67-.51-.87-.89-.2-.38-.3-.82-.3-1.33s.1-.95.3-1.33c.2-.38.49-.67.87-.89.38-.21.84-.32,1.37-.32s.99.11,1.37.32c.38.21.67.51.87.89.2.38.3.82.3,1.33s-.1.95-.3,1.33c-.2.38-.49.67-.87.89-.38.21-.84.32-1.37.32Zm0-1.32c.15,0,.28-.05.39-.15.11-.1.19-.24.25-.42.06-.18.09-.4.09-.66s-.03-.48-.09-.66-.14-.31-.25-.41c-.11-.09-.24-.14-.39-.14s-.29.05-.4.14c-.11.09-.2.23-.26.41s-.09.4-.09.66.03.47.09.66c.06.18.14.32.26.42.11.1.25.15.4.15Z"/>
      <path class="cls-10" d="m172.76,237.5h-1.62c-.01-.15-.08-.27-.21-.35-.13-.09-.28-.13-.46-.13-.15,0-.28.03-.39.08-.11.05-.16.13-.16.24,0,.07.03.14.09.21.06.06.19.11.37.15l1,.18c.5.09.88.24,1.12.46.25.22.37.51.37.87s-.1.66-.31.91c-.21.26-.49.45-.84.59-.36.14-.76.21-1.21.21-.75,0-1.34-.15-1.76-.46-.42-.31-.66-.71-.71-1.21h1.75c.03.16.11.27.24.36.13.08.3.12.49.12.16,0,.3-.03.4-.08s.16-.13.16-.23c0-.17-.19-.29-.56-.36l-.87-.16c-.5-.09-.87-.26-1.12-.5-.25-.24-.37-.56-.37-.94,0-.34.09-.63.27-.87.18-.24.44-.42.78-.54.34-.12.74-.19,1.21-.19.71,0,1.27.15,1.68.44.41.29.62.7.64,1.22Z"/>
      <path class="cls-10" d="m175.71,240.9c-.52,0-.98-.1-1.36-.3-.38-.2-.67-.49-.87-.87-.2-.38-.3-.83-.3-1.36s.1-.95.31-1.33c.2-.38.49-.67.86-.89s.81-.32,1.32-.32c.37,0,.71.06,1.01.17.3.12.56.28.77.5.21.22.38.48.49.79.12.31.17.66.17,1.05v.4h-4.39v-.97h3.56l-.83.2c0-.2-.03-.37-.09-.5-.06-.14-.14-.24-.26-.31-.11-.07-.26-.11-.43-.11s-.31.04-.43.11c-.12.07-.2.18-.26.31-.06.14-.09.3-.09.5v.7c0,.19.03.36.1.5.07.14.17.25.29.33s.27.12.44.12c.12,0,.23-.02.33-.05.1-.03.18-.08.25-.15s.12-.14.16-.23h1.61c-.06.34-.19.63-.39.89-.2.25-.47.44-.81.58-.34.14-.73.2-1.18.2Z"/>
      <path class="cls-10" d="m183.08,237.5h-1.62c-.01-.15-.08-.27-.21-.35-.13-.09-.28-.13-.46-.13-.15,0-.28.03-.39.08-.11.05-.16.13-.16.24,0,.07.03.14.09.21.06.06.19.11.37.15l1,.18c.5.09.88.24,1.12.46.25.22.37.51.37.87s-.1.66-.31.91c-.21.26-.49.45-.84.59-.36.14-.76.21-1.21.21-.75,0-1.34-.15-1.76-.46-.42-.31-.66-.71-.71-1.21h1.75c.03.16.11.27.24.36.13.08.3.12.49.12.16,0,.3-.03.4-.08s.16-.13.16-.23c0-.17-.19-.29-.56-.36l-.87-.16c-.5-.09-.87-.26-1.12-.5-.25-.24-.37-.56-.37-.94,0-.34.09-.63.27-.87.18-.24.44-.42.78-.54.34-.12.74-.19,1.21-.19.71,0,1.27.15,1.68.44.41.29.62.7.64,1.22Z"/>
    </g>
  </g>
</svg>