<?xml version="1.0" encoding="UTF-8"?>
<svg id="Layer_1" data-name="Layer 1" xmlns="http://www.w3.org/2000/svg" viewBox="0 0 265.58 229.37">
  <defs>
    <style>
      .cls-1 {
        fill: #f6a34a;
      }

      .cls-2 {
        fill: #f6d880;
      }

      .cls-3 {
        fill: #f4ffbe;
      }

      .cls-4 {
        fill: #ffe8a1;
      }

      .cls-5 {
        fill: #7f0326;
      }

      .cls-6 {
        fill: #990227;
      }

      .cls-7 {
        fill: #ba0722;
      }

      .cls-8 {
        fill: #a70524;
      }

      .cls-9 {
        fill: #cb1321;
      }

      .cls-10, .cls-11 {
        fill: #231f20;
      }

      .cls-11 {
        stroke-width: .5px;
      }

      .cls-11, .cls-12 {
        stroke: #231f20;
        stroke-miterlimit: 10;
      }

      .cls-12 {
        fill: none;
        stroke-width: 4px;
      }
    </style>
  </defs>
  <rect class="cls-12" x="84.3" y="15.06" width="150.88" height="150.88"/>
  <rect class="cls-3" x="84.3" y="135.77" width="30.18" height="30.18"/>
  <g>
    <g>
      <rect class="cls-4" x="84.3" y="105.59" width="30.18" height="30.18"/>
      <rect class="cls-4" x="114.48" y="135.77" width="30.18" height="30.18"/>
    </g>
    <g>
      <rect class="cls-2" x="84.3" y="75.42" width="30.18" height="30.18"/>
      <rect class="cls-2" x="114.48" y="105.59" width="30.18" height="30.18"/>
      <rect class="cls-2" x="144.65" y="135.77" width="30.18" height="30.18"/>
    </g>
  </g>
  <g>
    <rect class="cls-1" x="84.3" y="45.24" width="30.18" height="30.18"/>
    <rect class="cls-1" x="114.48" y="75.42" width="30.18" height="30.18"/>
    <rect class="cls-1" x="144.65" y="105.59" width="30.18" height="30.18"/>
    <rect class="cls-1" x="174.83" y="135.77" width="30.18" height="30.18"/>
  </g>
  <g>
    <rect class="cls-9" x="84.3" y="15.06" width="30.18" height="30.18"/>
    <rect class="cls-7" x="114.48" y="15.06" width="30.18" height="30.18"/>
    <rect class="cls-8" x="144.65" y="15.06" width="30.18" height="30.18"/>
    <rect class="cls-6" x="174.83" y="15.06" width="30.18" height="30.18"/>
    <rect class="cls-5" x="205" y="15.06" width="30.18" height="30.18"/>
    <rect class="cls-9" x="114.48" y="45.24" width="30.18" height="30.18"/>
    <rect class="cls-7" x="144.65" y="45.24" width="30.18" height="30.18"/>
    <rect class="cls-8" x="174.83" y="45.24" width="30.18" height="30.18"/>
    <rect class="cls-6" x="205" y="45.24" width="30.18" height="30.18"/>
    <rect class="cls-9" x="144.65" y="75.42" width="30.18" height="30.18"/>
    <rect class="cls-7" x="174.83" y="75.42" width="30.18" height="30.18"/>
    <rect class="cls-8" x="205" y="75.42" width="30.18" height="30.18"/>
    <rect class="cls-9" x="174.83" y="105.59" width="30.18" height="30.18"/>
    <rect class="cls-7" x="205" y="105.59" width="30.18" height="30.18"/>
    <rect class="cls-9" x="205" y="135.77" width="30.18" height="30.18"/>
  </g>
  <polygon class="cls-11" points="227.66 200.56 227.66 177.63 91.87 177.63 227.66 200.56"/>
  <polygon class="cls-11" points="47.33 22.59 70.26 22.59 70.26 158.38 47.33 22.59"/>
  <g>
    <rect class="cls-10" x="86.47" y="27.61" width="6" height="4" transform="translate(5.26 71.93) rotate(-45)"/>
    <path class="cls-10" d="m211.25,155.63l-5.83-5.83,4.24-4.24,5.83,5.83-4.24,4.24Zm-8.75-8.75l-5.83-5.83,4.24-4.24,5.83,5.83-4.24,4.24Zm-8.75-8.75l-5.83-5.83,4.24-4.24,5.83,5.83-4.24,4.24Zm-8.75-8.75l-5.83-5.83,4.24-4.24,5.83,5.83-4.24,4.24Zm-8.75-8.75l-5.83-5.83,4.24-4.24,5.83,5.83-4.24,4.24Zm-8.75-8.75l-5.83-5.83,4.24-4.24,5.83,5.83-4.24,4.24Zm-8.75-8.75l-5.83-5.83,4.24-4.24,5.83,5.83-4.24,4.24Zm-8.75-8.75l-5.83-5.83,4.24-4.24,5.83,5.83-4.24,4.24Zm-8.75-8.75l-5.83-5.83,4.24-4.24,5.83,5.83-4.24,4.24Zm-8.75-8.75l-5.83-5.83,4.24-4.24,5.83,5.83-4.24,4.24Zm-8.75-8.75l-5.83-5.83,4.24-4.24,5.83,5.83-4.24,4.24Zm-8.75-8.75l-5.83-5.83,4.24-4.24,5.83,5.83-4.24,4.24Zm-8.75-8.75l-5.83-5.83,4.24-4.24,5.83,5.83-4.24,4.24Zm-8.75-8.75l-5.83-5.83,4.24-4.24,5.83,5.83-4.24,4.24Z"/>
    <rect class="cls-10" x="214.7" y="155.84" width="6" height="4" transform="translate(-47.85 200.14) rotate(-45)"/>
  </g>
  <g>
    <g>
      <path class="cls-10" d="m101.86,213.29c-.75,0-1.42-.18-2.02-.54s-1.06-.87-1.4-1.54-.51-1.47-.51-2.39.17-1.74.51-2.41.81-1.18,1.4-1.54,1.26-.54,2.01-.54c.46,0,.89.07,1.3.2s.77.33,1.09.58.58.56.79.93.35.78.42,1.25h-1.32c-.05-.29-.15-.54-.28-.75s-.31-.4-.51-.55-.43-.26-.67-.34-.51-.11-.79-.11c-.5,0-.95.13-1.35.38s-.71.62-.94,1.11-.34,1.09-.34,1.8.12,1.31.35,1.8.54.85.94,1.1.85.38,1.34.38c.28,0,.54-.04.79-.11s.47-.19.67-.33.37-.33.51-.54.24-.46.29-.74h1.32c-.07.43-.2.83-.4,1.19s-.46.67-.78.93-.68.46-1.08.6-.85.21-1.33.21Z"/>
      <path class="cls-10" d="m109.19,213.3c-.61,0-1.15-.14-1.61-.42s-.81-.68-1.07-1.18-.38-1.1-.38-1.77.13-1.27.38-1.78.61-.91,1.07-1.19,1-.42,1.61-.42,1.15.14,1.61.42.81.68,1.07,1.19.38,1.1.38,1.78-.13,1.26-.38,1.77-.61.9-1.07,1.18-.99.42-1.61.42Zm0-1.07c.4,0,.73-.11,1-.32s.46-.49.58-.84.19-.73.19-1.15-.06-.81-.19-1.16-.32-.63-.58-.84-.59-.32-1-.32-.73.11-.99.32-.45.49-.58.84-.19.74-.19,1.16.06.8.19,1.15.32.63.58.84.59.32.99.32Z"/>
      <path class="cls-10" d="m113.17,213.17v-6.55h1.21v1.08h.09c.14-.36.36-.65.67-.85s.68-.31,1.11-.31.8.1,1.1.31.51.49.66.85h.07c.16-.36.4-.64.74-.85s.74-.31,1.21-.31c.59,0,1.08.19,1.46.56s.57.93.57,1.68v4.39h-1.28v-4.27c0-.45-.12-.77-.36-.96s-.53-.3-.87-.3c-.41,0-.74.13-.96.38s-.34.58-.34.97v4.18h-1.28v-4.35c0-.36-.11-.64-.33-.86s-.51-.32-.86-.32c-.24,0-.47.06-.67.19s-.37.3-.49.53-.18.48-.18.78v4.04h-1.27Z"/>
      <path class="cls-10" d="m123.28,215.62v-9h1.23v1.07h.11c.08-.14.19-.29.33-.47s.33-.34.58-.47.58-.2.98-.2c.53,0,1,.13,1.41.4s.74.65.98,1.15.36,1.11.36,1.82-.12,1.31-.35,1.81-.56.89-.97,1.17-.88.41-1.42.41c-.39,0-.72-.07-.97-.2s-.45-.29-.59-.47-.25-.34-.33-.47h-.07v3.47h-1.27Zm2.95-3.4c.38,0,.7-.1.95-.3s.45-.48.58-.83.2-.74.2-1.18-.06-.82-.19-1.17-.32-.62-.57-.81-.57-.3-.96-.3-.68.09-.94.28-.45.46-.58.8-.2.74-.2,1.2.07.86.2,1.21.33.62.58.81.57.29.93.29Z"/>
      <path class="cls-10" d="m132.91,213.3c-.61,0-1.15-.14-1.61-.42s-.81-.68-1.07-1.18-.38-1.1-.38-1.77.13-1.27.38-1.78.61-.91,1.07-1.19,1-.42,1.61-.42,1.15.14,1.61.42.81.68,1.07,1.19.38,1.1.38,1.78-.13,1.26-.38,1.77-.61.9-1.07,1.18-.99.42-1.61.42Zm0-1.07c.4,0,.73-.11,1-.32s.46-.49.58-.84.19-.73.19-1.15-.06-.81-.19-1.16-.32-.63-.58-.84-.59-.32-1-.32-.73.11-.99.32-.45.49-.58.84-.19.74-.19,1.16.06.8.19,1.15.32.63.58.84.59.32.99.32Z"/>
      <path class="cls-10" d="m141.03,210.46v-3.84h1.27v6.55h-1.24v-1.14h-.07c-.16.35-.4.64-.73.87s-.74.35-1.23.35c-.42,0-.79-.09-1.12-.28s-.57-.46-.76-.83-.27-.82-.27-1.37v-4.17h1.27v4.02c0,.44.12.79.38,1.06s.57.4.97.39c.24,0,.48-.06.71-.18s.43-.3.59-.54.24-.55.24-.91Z"/>
      <path class="cls-10" d="m144.78,209.28v3.88h-1.27v-6.55h1.23v1.08h.09c.15-.36.38-.64.7-.85s.72-.31,1.22-.31c.45,0,.83.09,1.17.28s.59.46.78.83.28.82.28,1.37v4.16h-1.27v-4.01c0-.47-.12-.84-.38-1.12s-.59-.41-1.02-.41c-.29,0-.56.07-.79.2s-.42.32-.55.56-.2.54-.2.89Z"/>
      <path class="cls-10" d="m152.63,213.3c-.53,0-1-.14-1.42-.41s-.74-.66-.97-1.17-.35-1.11-.35-1.81.12-1.32.36-1.82.56-.89.98-1.15.88-.4,1.41-.4c.41,0,.74.07.99.2s.44.29.58.47.25.34.32.47h.08v-3.25h1.27v8.73h-1.24v-1.02h-.11c-.07.14-.18.29-.33.47s-.34.34-.59.47-.57.2-.97.2Zm.28-1.08c.37,0,.68-.1.93-.29s.45-.47.58-.81.2-.75.2-1.21-.06-.86-.19-1.2-.32-.61-.57-.8-.57-.28-.94-.28-.7.1-.96.3-.45.47-.57.81-.19.73-.19,1.17.06.83.19,1.18.32.63.58.83.57.3.95.3Z"/>
      <path class="cls-10" d="m160.77,204.44l2.09,3.42h.07l2.09-3.42h1.52l-2.72,4.37,2.74,4.36h-1.54l-2.1-3.37h-.07l-2.1,3.37h-1.53l2.78-4.36-2.77-4.37h1.52Z"/>
      <path class="cls-10" d="m171.32,204.44v8.73h-1.32v-8.73h1.32Zm1.51,8.73h-2.16v-1.15h2.08c.66,0,1.22-.12,1.66-.37s.77-.61.99-1.1.33-1.07.33-1.75-.11-1.26-.33-1.74-.54-.84-.97-1.09-.96-.37-1.6-.37h-2.21v-1.15h2.29c.86,0,1.59.17,2.2.52s1.08.85,1.41,1.5.49,1.43.49,2.33-.17,1.69-.5,2.34-.81,1.15-1.43,1.51-1.38.53-2.27.53Z"/>
      <path class="cls-10" d="m180.81,213.3c-.61,0-1.15-.14-1.61-.42s-.81-.68-1.07-1.18-.38-1.1-.38-1.77.13-1.27.38-1.78.61-.91,1.07-1.19,1-.42,1.61-.42,1.15.14,1.61.42.81.68,1.07,1.19.38,1.1.38,1.78-.13,1.26-.38,1.77-.61.9-1.07,1.18-.99.42-1.61.42Zm0-1.07c.4,0,.73-.11,1-.32s.46-.49.58-.84.19-.73.19-1.15-.06-.81-.19-1.16-.32-.63-.58-.84-.59-.32-1-.32-.73.11-.99.32-.45.49-.58.84-.19.74-.19,1.16.06.8.19,1.15.32.63.58.84.59.32.99.32Z"/>
      <path class="cls-10" d="m189.68,208.22l-1.15.2c-.07-.22-.21-.42-.41-.6s-.5-.28-.9-.28c-.36,0-.66.08-.9.24s-.36.37-.36.62c0,.22.08.4.24.53s.42.25.78.33l1.05.23c.6.14,1.04.35,1.34.64s.45.67.45,1.12c0,.39-.11.75-.34,1.05s-.54.55-.94.72-.87.26-1.39.26c-.73,0-1.33-.16-1.79-.47s-.74-.76-.85-1.34l1.22-.19c.08.32.24.56.48.73s.55.25.93.25c.41,0,.75-.09,1-.26s.38-.39.38-.64c0-.41-.31-.69-.93-.84l-1.11-.25c-.61-.14-1.07-.36-1.36-.67s-.44-.68-.44-1.15c0-.39.11-.73.33-1.02s.52-.52.9-.68.82-.24,1.3-.24c.71,0,1.27.15,1.67.46s.67.72.81,1.22Z"/>
      <path class="cls-10" d="m193.52,213.3c-.64,0-1.2-.14-1.66-.42s-.83-.67-1.08-1.17-.38-1.1-.38-1.77.12-1.26.37-1.78.6-.91,1.05-1.2.98-.43,1.59-.43c.37,0,.73.06,1.08.18s.66.31.94.57.5.6.66,1.02.24.92.24,1.51v.46h-5.21v-.96h4.55l-.59.32c0-.4-.06-.76-.19-1.07s-.31-.55-.56-.72-.56-.26-.92-.26-.68.09-.94.26-.46.41-.59.7-.21.61-.21.95v.65c0,.45.08.83.23,1.14s.37.55.65.71.6.25.98.25c.24,0,.46-.04.66-.11s.37-.18.51-.32.25-.31.33-.52l1.21.23c-.1.35-.27.66-.52.93s-.56.47-.93.62-.8.22-1.27.22Z"/>
    </g>
    <g>
      <path class="cls-10" d="m41.85,148.46c0,.75-.18,1.42-.54,2.02s-.87,1.06-1.54,1.4-1.47.51-2.39.51-1.74-.17-2.41-.51-1.18-.81-1.54-1.4-.54-1.26-.54-2.01c0-.46.07-.89.2-1.3s.33-.77.58-1.09.56-.58.93-.79.78-.35,1.25-.42v1.32c-.29.05-.54.15-.75.28s-.4.31-.55.51-.26.43-.34.67-.11.51-.11.79c0,.5.13.95.38,1.35s.62.71,1.11.94,1.09.34,1.8.34,1.31-.12,1.8-.35.85-.54,1.1-.94.38-.85.38-1.34c0-.28-.04-.54-.11-.79s-.19-.47-.33-.67-.33-.37-.54-.51-.46-.24-.74-.29v-1.32c.43.07.83.2,1.19.4s.67.46.93.78.46.68.6,1.08.21.85.21,1.33Z"/>
      <path class="cls-10" d="m41.87,141.13c0,.61-.14,1.15-.42,1.61s-.68.81-1.18,1.07-1.1.38-1.77.38-1.27-.13-1.78-.38-.91-.61-1.19-1.07-.42-1-.42-1.61.14-1.15.42-1.61.68-.81,1.19-1.07,1.1-.38,1.78-.38,1.26.13,1.77.38.9.61,1.18,1.07.42.99.42,1.61Zm-1.07,0c0-.4-.11-.73-.32-1s-.49-.46-.84-.58-.73-.19-1.15-.19-.81.06-1.16.19-.63.32-.84.58-.32.59-.32,1,.11.73.32.99.49.45.84.58.74.19,1.16.19.8-.06,1.15-.19.63-.32.84-.58.32-.59.32-.99Z"/>
      <path class="cls-10" d="m41.74,137.16h-6.55v-1.21h1.08v-.09c-.36-.14-.65-.36-.85-.67s-.31-.68-.31-1.11.1-.8.31-1.1.49-.51.85-.66v-.07c-.36-.16-.64-.4-.85-.74s-.31-.74-.31-1.21c0-.59.19-1.08.56-1.46s.93-.57,1.68-.57h4.39v1.28h-4.27c-.45,0-.77.12-.96.36s-.3.53-.3.87c0,.41.13.74.38.96s.58.34.97.34h4.18v1.28h-4.35c-.36,0-.64.11-.86.33s-.32.51-.32.86c0,.24.06.47.19.67s.3.37.53.49.48.18.78.18h4.04v1.27Z"/>
      <path class="cls-10" d="m44.19,127.05h-9v-1.23h1.07v-.11c-.14-.08-.29-.19-.47-.33s-.34-.33-.47-.58-.2-.58-.2-.98c0-.53.13-1,.4-1.41s.65-.74,1.15-.98,1.11-.36,1.82-.36,1.31.12,1.81.35.89.56,1.17.97.41.88.41,1.42c0,.39-.07.72-.2.97s-.29.45-.47.59-.34.25-.47.33v.07h3.47v1.27Zm-3.4-2.95c0-.38-.1-.7-.3-.95s-.48-.45-.83-.58-.74-.2-1.18-.2-.82.06-1.17.19-.62.32-.81.57-.3.57-.3.96.09.68.28.94.46.45.8.58.74.2,1.2.2.86-.07,1.21-.2.62-.33.81-.58.29-.57.29-.93Z"/>
      <path class="cls-10" d="m41.87,117.41c0,.61-.14,1.15-.42,1.61s-.68.81-1.18,1.07-1.1.38-1.77.38-1.27-.13-1.78-.38-.91-.61-1.19-1.07-.42-1-.42-1.61.14-1.15.42-1.61.68-.81,1.19-1.07,1.1-.38,1.78-.38,1.26.13,1.77.38.9.61,1.18,1.07.42.99.42,1.61Zm-1.07,0c0-.4-.11-.73-.32-1s-.49-.46-.84-.58-.73-.19-1.15-.19-.81.06-1.16.19-.63.32-.84.58-.32.59-.32,1,.11.73.32.99.49.45.84.58.74.19,1.16.19.8-.06,1.15-.19.63-.32.84-.58.32-.59.32-.99Z"/>
      <path class="cls-10" d="m39.03,109.29h-3.84v-1.27h6.55v1.24h-1.14v.07c.35.16.64.4.87.73s.35.74.35,1.23c0,.42-.09.79-.28,1.12s-.46.57-.83.76-.82.27-1.37.27h-4.17v-1.27h4.02c.44,0,.79-.12,1.06-.38s.4-.57.39-.97c0-.24-.06-.48-.18-.71s-.3-.43-.54-.59-.55-.24-.91-.24Z"/>
      <path class="cls-10" d="m37.85,105.54h3.88v1.27h-6.55v-1.23h1.08v-.09c-.36-.15-.64-.38-.85-.7s-.31-.72-.31-1.22c0-.45.09-.83.28-1.17s.46-.59.83-.78.82-.28,1.37-.28h4.16v1.27h-4.01c-.47,0-.84.12-1.12.38s-.41.59-.41,1.02c0,.29.07.56.2.79s.32.42.56.55.54.2.89.2Z"/>
      <path class="cls-10" d="m41.87,97.69c0,.53-.14,1-.41,1.42s-.66.74-1.17.97-1.11.35-1.81.35-1.32-.12-1.82-.36-.89-.56-1.15-.98-.4-.88-.4-1.41c0-.41.07-.74.2-.99s.29-.44.47-.58.34-.25.47-.32v-.08h-3.25v-1.27h8.73v1.24h-1.02v.11c.14.07.29.18.47.33s.34.34.47.59.2.57.2.97Zm-1.08-.28c0-.37-.1-.68-.29-.93s-.47-.45-.81-.58-.75-.2-1.21-.2-.86.06-1.2.19-.61.32-.8.57-.28.57-.28.94.1.7.3.96.47.45.81.57.73.19,1.17.19.83-.06,1.18-.19.63-.32.83-.58.3-.57.3-.95Z"/>
      <path class="cls-10" d="m33.01,91.15v-1.49l3.97-2.29v-.09l-3.97-2.27v-1.51l5.3,3.17h3.43v1.32h-3.43l-5.3,3.16Z"/>
      <path class="cls-10" d="m41.74,77.26v2.16h-1.15v-2.08c0-.66-.12-1.22-.37-1.66s-.61-.77-1.1-.99-1.07-.33-1.75-.33-1.26.11-1.74.33-.84.54-1.09.97-.37.96-.37,1.6v2.21h-1.15v-2.29c0-.86.17-1.59.52-2.2s.85-1.08,1.5-1.41,1.43-.49,2.33-.49,1.69.17,2.34.5,1.15.81,1.51,1.43.53,1.38.53,2.27Zm-8.73,1.51h8.73v1.32h-8.73v-1.32Z"/>
      <path class="cls-10" d="m41.87,69.29c0,.61-.14,1.15-.42,1.61s-.68.81-1.18,1.07-1.1.38-1.77.38-1.27-.13-1.78-.38-.91-.61-1.19-1.07-.42-1-.42-1.61.14-1.15.42-1.61.68-.81,1.19-1.07,1.1-.38,1.78-.38,1.26.13,1.77.38.9.61,1.18,1.07.42.99.42,1.61Zm-1.07,0c0-.4-.11-.73-.32-1s-.49-.46-.84-.58-.73-.19-1.15-.19-.81.06-1.16.19-.63.32-.84.58-.32.59-.32,1,.11.73.32.99.49.45.84.58.74.19,1.16.19.8-.06,1.15-.19.63-.32.84-.58.32-.59.32-.99Z"/>
      <path class="cls-10" d="m36.79,60.42l.2,1.15c-.22.07-.42.21-.6.41s-.28.5-.28.9c0,.36.08.66.24.9s.37.36.62.36c.22,0,.4-.08.53-.24s.25-.42.33-.78l.23-1.05c.14-.6.35-1.04.64-1.34s.67-.45,1.12-.45c.39,0,.75.11,1.05.34s.55.54.72.94.26.87.26,1.39c0,.73-.16,1.33-.47,1.79s-.76.74-1.34.85l-.19-1.22c.32-.08.56-.24.73-.48s.25-.55.25-.93c0-.41-.09-.75-.26-1s-.39-.38-.64-.38c-.41,0-.69.31-.84.93l-.25,1.11c-.14.61-.36,1.07-.67,1.36s-.68.44-1.15.44c-.39,0-.73-.11-1.02-.33s-.52-.52-.68-.9-.24-.82-.24-1.3c0-.71.15-1.27.46-1.67s.72-.67,1.22-.81Z"/>
      <path class="cls-10" d="m41.87,56.58c0,.64-.14,1.2-.42,1.66s-.67.83-1.17,1.08-1.1.38-1.77.38-1.26-.12-1.78-.37-.91-.6-1.2-1.05-.43-.98-.43-1.59c0-.37.06-.73.18-1.08s.31-.66.57-.94.6-.5,1.02-.66.92-.24,1.51-.24h.46v5.21h-.96v-4.55l.32.59c-.4,0-.76.06-1.07.19s-.55.31-.72.56-.26.56-.26.92.09.68.26.94.41.46.7.59.61.21.95.21h.65c.45,0,.83-.08,1.14-.23s.55-.37.71-.65.25-.6.25-.98c0-.24-.04-.46-.11-.66s-.18-.37-.32-.51-.31-.25-.52-.33l.23-1.21c.35.1.66.27.93.52s.47.56.62.93.22.8.22,1.27Z"/>
    </g>
  </g>
</svg>