<?xml version="1.0" encoding="utf-8"?>
<!-- Generator: Adobe Illustrator 27.5.0, SVG Export Plug-In . SVG Version: 6.00 Build 0)  -->
<svg version="1.1" id="Layer_1" xmlns="http://www.w3.org/2000/svg" xmlns:xlink="http://www.w3.org/1999/xlink" x="0px" y="0px"
	 viewBox="0 0 235.4 414.1" style="enable-background:new 0 0 235.4 414.1;" xml:space="preserve">
<style type="text/css">
	.st0{fill:#231F20;}
	.st1{fill:#FAE1D5;}
	.st2{fill:#F8B79D;}
	.st3{fill:#F88E72;}
	.st4{fill:#F76A4A;}
	.st5{fill:#EB3B2B;}
	.st6{fill:#C7191C;}
	.st7{fill:#95020E;}
	.st8{fill:none;stroke:#231F20;stroke-width:1.5;stroke-miterlimit:10;}
	.st9{font-family:'InterTight-ExtraBold';}
	.st10{font-size:9.33px;}
	.st11{fill:#EBEFFF;}
	.st12{fill:#C2D7EB;}
	.st13{fill:#9AC6DD;}
	.st14{fill:#6BAAD2;}
	.st15{fill:#418EC2;}
	.st16{fill:#2071B1;}
	.st17{fill:#064590;}
	.st18{fill:#EEF2FF;}
	.st19{fill:#BCD6E6;}
	.st20{fill:#6BADD5;}
	.st21{fill:#3281BC;}
	.st22{fill:#231F20;stroke:#231F20;stroke-width:0.5;stroke-miterlimit:10;}
	.st23{fill:#4F2450;}
	.st24{fill:#402B5D;}
	.st25{fill:#32316A;}
	.st26{fill:#233877;}
	.st27{fill:#153E83;}
	.st28{fill:#DCC5D2;}
	.st29{fill:#CA98A5;}
	.st30{fill:#B76D7A;}
	.st31{fill:#A5404D;}
	.st32{fill:#931321;}
	.st33{fill:#B0B0C1;}
	.st34{fill:#A5899C;}
	.st35{fill:#996477;}
	.st36{fill:#8E3D52;}
	.st37{fill:#82172D;}
	.st38{fill:#6C90B5;}
	.st39{fill:#6D7496;}
	.st40{fill:#6F5677;}
	.st41{fill:#703958;}
	.st42{fill:#711C38;}
	.st43{fill:#3B6EA4;}
	.st44{fill:#445B8C;}
	.st45{fill:#4E4774;}
	.st46{fill:#57345C;}
	.st47{fill:#602044;}
	.st48{font-size:9px;}
	.st49{fill:#FDE4D8;}
	.st50{fill:#FBAD90;}
	.st51{fill:#FA6A4A;}
	.st52{fill:#DD2D26;}
	.st53{fill:#A40F15;}
	.st54{font-family:'InterTight-Regular';}
	.st55{fill:none;stroke:#231F20;stroke-width:0.5;stroke-miterlimit:10;}
	.st56{fill:#FFFFFF;}
</style>
<path class="st0" d="M113.2,180l1.5-1.5l3,3.1v-12.2h2.1v12.2l3.1-3.1l1.4,1.5l-5.6,5.6L113.2,180L113.2,180z"/>
<g>
	<g>
		<g>
			<rect x="99.4" y="130.6" class="st1" width="15" height="15"/>
			<rect x="114.4" y="130.6" class="st2" width="15" height="15"/>
			<rect x="129.4" y="130.6" class="st3" width="15" height="15"/>
			<rect x="144.4" y="130.6" class="st4" width="15" height="15"/>
			<rect x="159.4" y="130.6" class="st5" width="15" height="15"/>
			<rect x="174.4" y="130.6" class="st6" width="15" height="15"/>
			<rect x="189.5" y="130.6" class="st7" width="15" height="15"/>
		</g>
		<rect x="98.9" y="130.6" class="st8" width="105.1" height="15"/>
	</g>
	<text transform="matrix(1 0 0 1 98.9 156.56)" class="st0 st9 st10">st</text>
	<text transform="matrix(1 0 0 1 107.73 156.56)" class="st0 st9 st10">r</text>
	<text transform="matrix(1 0 0 1 111.27 156.56)" class="st0 st9 st10">ong</text>
</g>
<g>
	<text transform="matrix(1 0 0 1 29.29 135.97)" class="st0 st9 st10">st</text>
	<text transform="matrix(1 0 0 1 38.12 135.97)" class="st0 st9 st10">r</text>
	<text transform="matrix(1 0 0 1 41.66 135.97)" class="st0 st9 st10">ong</text>
	<g>
		<g>
			<rect x="30.2" y="110.1" class="st11" width="15" height="15"/>
			<rect x="45.3" y="110.1" class="st12" width="15" height="15"/>
			<rect x="60.3" y="110.1" class="st13" width="15" height="15"/>
			<rect x="75.3" y="110.1" class="st14" width="15" height="15"/>
			<rect x="90.3" y="110.1" class="st15" width="15" height="15"/>
			<rect x="105.3" y="110.1" class="st16" width="15" height="15"/>
			<rect x="120.3" y="110.1" class="st17" width="15" height="15"/>
		</g>
		<rect x="30.2" y="110.1" class="st8" width="105.1" height="15"/>
	</g>
</g>
<path class="st0" d="M111.3,96.8l1.5-1.5l3,3.1V86.2h2.1v12.2l3.1-3.1l1.4,1.5l-5.6,5.6L111.3,96.8L111.3,96.8z"/>
<g>
	<g>
		<rect x="35" y="224.1" class="st17" width="25.8" height="25"/>
		<rect x="35" y="324.2" class="st18" width="25.8" height="25"/>
		<rect x="35" y="299.2" class="st19" width="25.8" height="25"/>
		<rect x="35" y="274.2" class="st20" width="25.8" height="25"/>
		<rect x="35" y="249.2" class="st21" width="25.8" height="25"/>
	</g>
	<polygon class="st22" points="15.8,236.6 28.8,236.6 28.8,336.8 	"/>
	<g>
		<rect x="169.3" y="223.9" class="st23" width="25" height="25"/>
		<rect x="144.3" y="223.9" class="st24" width="25" height="25"/>
		<rect x="119.3" y="223.9" class="st25" width="25" height="25"/>
		<rect x="94.2" y="223.9" class="st26" width="25" height="25"/>
		<rect x="69.2" y="223.9" class="st27" width="25" height="25"/>
		<rect x="69.2" y="324" class="st28" width="25" height="25"/>
		<rect x="94.2" y="324" class="st29" width="25" height="25"/>
		<rect x="119.3" y="324" class="st30" width="25" height="25"/>
		<rect x="144.3" y="324" class="st31" width="25" height="25"/>
		<rect x="169.3" y="324" class="st32" width="25" height="25"/>
		<rect x="69.2" y="299" class="st33" width="25" height="25"/>
		<rect x="94.2" y="299" class="st34" width="25" height="25"/>
		<rect x="119.3" y="299" class="st35" width="25" height="25"/>
		<rect x="144.3" y="299" class="st36" width="25" height="25"/>
		<rect x="169.3" y="299" class="st37" width="25" height="25"/>
		<rect x="69.2" y="274" class="st38" width="25" height="25"/>
		<rect x="94.2" y="274" class="st39" width="25" height="25"/>
		<rect x="119.3" y="274" class="st40" width="25" height="25"/>
		<rect x="144.3" y="274" class="st41" width="25" height="25"/>
		<rect x="169.3" y="274" class="st42" width="25" height="25"/>
		<rect x="69.2" y="249" class="st43" width="25" height="25"/>
		<rect x="94.2" y="249" class="st44" width="25" height="25"/>
		<rect x="119.3" y="249" class="st45" width="25" height="25"/>
		<rect x="144.3" y="249" class="st46" width="25" height="25"/>
		<rect x="169.3" y="249" class="st47" width="25" height="25"/>
	</g>
	<text transform="matrix(6.123234e-17 -1 1 6.123234e-17 12.17 317.3701)" class="st0 st9 st48">Anchor Doses</text>
	<g>
		<g>
			<rect x="68.3" y="357.4" class="st49" width="25" height="25.3"/>
			<rect x="93.3" y="357.4" class="st50" width="25" height="25.3"/>
			<rect x="118.4" y="357.4" class="st51" width="25" height="25.3"/>
			<rect x="143.4" y="357.4" class="st52" width="25" height="25.3"/>
			<rect x="168.4" y="357.4" class="st53" width="25" height="25.3"/>
		</g>
		<polygon class="st22" points="180.9,401.6 180.9,388.5 80.8,388.5 		"/>
		<text transform="matrix(1 0 0 1 101.14 408.32)" class="st0 st9 st48">Lib</text>
		<text transform="matrix(1 0 0 1 114.12 408.32)" class="st0 st9 st48">r</text>
		<text transform="matrix(1 0 0 1 117.58 408.32)" class="st0 st9 st48">a</text>
		<text transform="matrix(1 0 0 1 122.74 408.32)" class="st0 st9 st48">r</text>
		<text transform="matrix(1 0 0 1 126.58 408.32)" class="st0 st9 st48">y Doses</text>
	</g>
</g>
<text transform="matrix(1 0 0 1 38.76 201.59)" class="st0 st9 st10">5x5 </text>
<text transform="matrix(1 0 0 1 58.83 201.59)" class="st0 st9 st10">f</text>
<text transform="matrix(1 0 0 1 62.24 201.59)" class="st0 st9 st10">ormat </text>
<text transform="matrix(1 0 0 1 38.76 212.39)" class="st0 st54 st48">libra</text>
<text transform="matrix(1 0 0 1 54.83 212.39)" class="st0 st54 st48">r</text>
<text transform="matrix(1 0 0 1 57.9 212.39)" class="st0 st54 st48">y and anchor agent </text>
<text transform="matrix(1 0 0 1 134.63 212.39)" class="st0 st54 st48">t</text>
<text transform="matrix(1 0 0 1 137.43 212.39)" class="st0 st54 st48">es</text>
<text transform="matrix(1 0 0 1 146.51 212.39)" class="st0 st54 st48">t</text>
<text transform="matrix(1 0 0 1 149.31 212.39)" class="st0 st54 st48">ed at 5 doses</text>
<text transform="matrix(1 0 0 1 28.88 76.83)" class="st0 st9 st48">st</text>
<text transform="matrix(1 0 0 1 37.4 76.83)" class="st0 st9 st48">r</text>
<text transform="matrix(1 0 0 1 40.81 76.83)" class="st0 st9 st48">ong</text>
<text transform="matrix(1 0 0 1 57.47 76.83)" class="st0 st54 st48"> dif</text>
<text transform="matrix(1 0 0 1 69.17 76.83)" class="st0 st54 st48">f</text>
<text transform="matrix(1 0 0 1 71.79 76.83)" class="st0 st54 st48">e</text>
<text transform="matrix(1 0 0 1 76.59 76.83)" class="st0 st54 st48">r</text>
<text transform="matrix(1 0 0 1 79.36 76.83)" class="st0 st54 st48">ential viability ef</text>
<text transform="matrix(1 0 0 1 140.38 76.83)" class="st0 st54 st48">f</text>
<text transform="matrix(1 0 0 1 143 76.83)" class="st0 st54 st48">ec</text>
<text transform="matrix(1 0 0 1 152.43 76.83)" class="st0 st54 st48">t</text>
<text transform="matrix(1 0 0 1 155.19 76.83)" class="st0 st54 st48">s</text>
<g>
	<rect x="29.3" y="42.2" class="st11" width="25" height="25"/>
	<rect x="54.3" y="42.2" class="st12" width="25" height="25"/>
	<rect x="79.3" y="42.2" class="st13" width="25" height="25"/>
	<rect x="104.4" y="42.2" class="st14" width="25" height="25"/>
	<rect x="129.4" y="42.2" class="st15" width="25" height="25"/>
	<rect x="154.4" y="42.2" class="st16" width="25" height="25"/>
	<rect x="179.4" y="42.2" class="st17" width="25" height="25"/>
</g>
<text transform="matrix(1 0 0 1 74.86 15.35)" class="st0 st9 st48">Single </text>
<text transform="matrix(1 0 0 1 103.63 15.35)" class="st0 st9 st48">A</text>
<text transform="matrix(1 0 0 1 110.19 15.35)" class="st0 st9 st48">gent Doses</text>
<polygon class="st22" points="166.9,21.8 166.9,34.8 66.8,34.8 "/>
<g>
	<text transform="matrix(1 0 0 1 98.02 240.72)" class="st0 st9 st48">Combination Doses</text>
	<text transform="matrix(1 0 0 1 98.02 240.72)" class="st55 st9 st48">Combination Doses</text>
	<text transform="matrix(1 0 0 1 98.37 240.81)" class="st56 st9 st48">Combination Doses</text>
</g>
</svg>
