<?xml version="1.0" encoding="UTF-8"?>
<svg id="Layer_1" data-name="Layer 1" xmlns="http://www.w3.org/2000/svg" viewBox="0 0 235.43 312.93">
  <defs>
    <style>
      .cls-1 {
        fill: none;
      }

      .cls-1, .cls-2, .cls-3 {
        stroke: #231f20;
        stroke-miterlimit: 10;
      }

      .cls-1, .cls-3 {
        stroke-width: 1.5px;
      }

      .cls-4 {
        fill: #f8b79d;
      }

      .cls-5 {
        fill: #f88e72;
      }

      .cls-6 {
        fill: #ebefff;
      }

      .cls-7 {
        fill: #f76a4a;
      }

      .cls-8 {
        fill: #eb3b2b;
      }

      .cls-9 {
        fill: #fff;
      }

      .cls-10 {
        fill: #fae1d5;
      }

      .cls-11 {
        fill: #810c21;
      }

      .cls-12 {
        fill: #94465b;
      }

      .cls-13, .cls-3 {
        fill: #c2d7eb;
      }

      .cls-14 {
        fill: #9d6378;
      }

      .cls-15 {
        fill: #b9bace;
      }

      .cls-16 {
        fill: #95020e;
      }

      .cls-17 {
        fill: #b3d1e7;
      }

      .cls-18 {
        fill: #a5cbe2;
      }

      .cls-19 {
        fill: #a68094;
      }

      .cls-20 {
        fill: #b2d1e6;
      }

      .cls-21 {
        fill: #af9db1;
      }

      .cls-22 {
        fill: #d3e3f1;
      }

      .cls-23 {
        fill: #c7191c;
      }

      .cls-24, .cls-2 {
        fill: #231f20;
      }

      .cls-25 {
        fill: #8a293e;
      }

      .cls-2 {
        stroke-width: .5px;
      }
    </style>
  </defs>
  <path class="cls-24" d="m113.15,179.98l1.46-1.47,3.04,3.05v-12.2h2.13v12.2l3.05-3.05,1.44,1.47-5.56,5.56-5.57-5.56Z"/>
  <g>
    <g>
      <g>
        <rect class="cls-10" x="96.85" y="130.62" width="15.02" height="15.02"/>
        <rect class="cls-4" x="111.87" y="130.62" width="15.02" height="15.02"/>
        <rect class="cls-5" x="126.89" y="130.62" width="15.02" height="15.02"/>
        <rect class="cls-7" x="141.9" y="130.62" width="15.02" height="15.02"/>
        <rect class="cls-8" x="156.92" y="130.62" width="15.02" height="15.02"/>
        <rect class="cls-23" x="171.94" y="130.62" width="15.02" height="15.02"/>
        <rect class="cls-16" x="186.95" y="130.62" width="15.02" height="15.02"/>
      </g>
      <rect class="cls-1" x="96.39" y="130.62" width="105.12" height="15.02"/>
    </g>
    <g>
      <path class="cls-24" d="m101.39,153.13h-1.68c-.01-.16-.09-.28-.22-.37-.13-.09-.29-.13-.47-.13-.16,0-.29.03-.4.08s-.16.14-.16.24c0,.08.03.15.1.21.07.07.19.12.39.15l1.04.18c.52.09.91.25,1.16.47.26.22.39.53.39.9s-.11.68-.32.95c-.21.27-.5.47-.87.61-.37.14-.79.22-1.26.22-.78,0-1.39-.16-1.83-.48-.44-.32-.68-.74-.74-1.26h1.81c.03.16.11.28.25.37.14.09.31.13.51.13.17,0,.31-.03.42-.09s.16-.14.16-.24c0-.18-.19-.3-.58-.37l-.9-.16c-.52-.09-.9-.27-1.16-.52-.26-.25-.39-.58-.39-.98,0-.36.09-.66.29-.9.19-.25.46-.43.81-.56s.77-.19,1.25-.19c.74,0,1.31.15,1.74.46s.65.73.67,1.26Z"/>
      <path class="cls-24" d="m105.05,151.47v1.33h-3.35v-1.33h3.35Zm-2.71-1.21h1.83v4.67c0,.11.03.19.08.24s.14.08.26.08c.05,0,.12,0,.19-.02s.13-.02.16-.04l.26,1.29c-.21.06-.4.1-.57.12s-.34.04-.5.04c-.57,0-1-.13-1.29-.39s-.43-.65-.43-1.15v-4.84Z"/>
      <path class="cls-24" d="m105.58,156.56v-5.09h1.78v.98h.05c.09-.36.24-.62.44-.79.2-.17.44-.25.71-.25.08,0,.16,0,.24.02s.15.03.23.05v1.56c-.09-.03-.2-.06-.33-.07s-.25-.02-.34-.02c-.18,0-.34.04-.48.12-.14.08-.25.19-.33.34-.08.14-.12.31-.12.51v2.65h-1.83Z"/>
      <path class="cls-24" d="m111.56,156.65c-.55,0-1.03-.11-1.42-.33-.39-.22-.69-.53-.9-.92-.21-.39-.31-.85-.31-1.37s.1-.98.31-1.37c.21-.39.51-.7.9-.92.39-.22.87-.33,1.42-.33s1.03.11,1.42.33.69.53.9.92c.21.39.31.85.31,1.37s-.1.98-.31,1.37c-.21.39-.51.7-.9.92s-.87.33-1.42.33Zm0-1.37c.16,0,.29-.05.41-.15.11-.1.2-.25.26-.44.06-.19.09-.42.09-.68s-.03-.49-.09-.68c-.06-.19-.15-.33-.26-.42s-.25-.15-.41-.15-.3.05-.42.15c-.12.1-.21.24-.27.42-.06.19-.09.41-.09.68s.03.49.09.68c.06.19.15.33.27.44.12.1.26.15.42.15Z"/>
      <path class="cls-24" d="m116.56,153.7v2.86h-1.83v-5.09h1.81v.98h.04c.11-.33.3-.58.55-.76s.57-.28.95-.28.67.08.94.25.47.39.62.68c.15.29.22.62.22.99v3.24h-1.83v-2.86c0-.25-.06-.45-.19-.59-.13-.14-.31-.22-.54-.22-.15,0-.28.03-.39.1-.11.07-.2.16-.26.28-.06.12-.09.27-.09.44Z"/>
      <path class="cls-24" d="m123,158.57c-.77,0-1.36-.16-1.79-.47s-.66-.72-.69-1.21h1.76c.02.11.06.2.13.26s.16.12.27.15c.11.03.24.05.38.05.24,0,.43-.06.59-.17.16-.12.23-.32.23-.62v-.87h-.05c-.06.17-.17.32-.3.44-.14.12-.3.21-.49.28-.19.06-.4.1-.63.1-.36,0-.69-.08-1-.25-.3-.17-.55-.44-.73-.8-.18-.36-.28-.84-.28-1.43,0-.62.1-1.12.29-1.5.19-.38.44-.67.74-.85s.62-.27.96-.27c.25,0,.47.04.67.13.19.09.35.2.49.35.13.15.23.31.3.48h.04v-.89h1.81v5.08c0,.43-.11.79-.33,1.1-.22.3-.54.53-.94.69-.4.16-.87.24-1.41.24Zm.06-3.38c.25,0,.45-.1.59-.31.14-.21.22-.5.22-.86,0-.25-.03-.47-.1-.65s-.16-.32-.28-.42-.26-.15-.43-.15-.31.05-.43.15-.21.24-.27.42c-.06.18-.09.4-.09.65s.03.46.09.64c.06.18.15.31.27.4.12.09.26.14.43.14Z"/>
    </g>
  </g>
  <g>
    <rect class="cls-6" x="24.27" y="110.12" width="15.02" height="15.02"/>
    <rect class="cls-22" x="39.29" y="110.12" width="15.02" height="15.02"/>
    <rect class="cls-13" x="84.34" y="110.12" width="15.02" height="15.02"/>
    <rect class="cls-20" x="99.36" y="110.12" width="15.02" height="15.02"/>
    <rect class="cls-18" x="114.37" y="110.12" width="15.02" height="15.02"/>
    <rect class="cls-17" x="69.32" y="110.12" width="15.02" height="15.02"/>
    <rect class="cls-3" x="54.31" y="110.12" width="15.02" height="15.02"/>
  </g>
  <g>
    <path class="cls-24" d="m25.53,136.06l-1.28-5.09h1.83l.58,3.11h.04l.66-3.11h1.77l.68,3.08h.04l.56-3.08h1.83l-1.28,5.09h-1.98l-.71-2.73h-.05l-.71,2.73h-1.98Z"/>
    <path class="cls-24" d="m34.92,136.15c-.54,0-1.01-.1-1.41-.31-.39-.21-.69-.51-.9-.9-.21-.39-.31-.86-.31-1.41s.11-.98.32-1.38c.21-.39.51-.7.89-.92s.84-.33,1.37-.33c.39,0,.73.06,1.05.18.31.12.58.29.8.52.22.23.39.5.51.82s.18.69.18,1.09v.42h-4.55v-1h3.69l-.86.21c0-.21-.03-.38-.09-.52-.06-.14-.15-.25-.27-.32-.12-.07-.27-.11-.44-.11s-.32.04-.44.11c-.12.07-.21.18-.27.32s-.09.31-.09.52v.73c0,.2.04.38.11.52.07.15.17.26.3.35.13.08.28.12.46.12.12,0,.24-.02.34-.05.1-.03.19-.09.26-.15.07-.07.13-.15.16-.24h1.67c-.06.35-.19.66-.4.92s-.49.46-.84.6c-.35.14-.76.21-1.23.21Z"/>
    <path class="cls-24" d="m39.34,136.14c-.33,0-.61-.05-.86-.16-.25-.11-.45-.27-.58-.49s-.21-.5-.21-.83c0-.28.05-.52.14-.72.09-.2.23-.36.4-.49.17-.13.37-.22.59-.29.23-.07.47-.11.74-.13.29-.02.51-.05.69-.08.17-.03.3-.08.37-.13.08-.06.12-.14.12-.23v-.02c0-.13-.05-.23-.15-.3-.1-.07-.23-.11-.39-.11-.18,0-.32.04-.43.11-.11.08-.18.19-.2.35h-1.68c.02-.31.12-.6.29-.86.17-.26.43-.47.77-.63.34-.16.76-.24,1.27-.24.36,0,.69.04.98.13.29.08.53.2.74.36.2.15.36.33.47.53.11.2.16.42.16.65v3.49h-1.71v-.72h-.04c-.1.19-.23.35-.37.46-.14.12-.31.2-.49.26s-.38.08-.61.08Zm.59-1.16c.14,0,.27-.03.39-.09s.22-.14.3-.25c.08-.11.12-.24.12-.39v-.42s-.1.04-.15.05c-.05.02-.11.03-.18.05s-.13.03-.19.04-.13.02-.21.04c-.14.02-.26.06-.35.11s-.16.11-.2.18c-.04.07-.06.15-.06.24,0,.14.05.25.15.33.1.07.23.11.38.11Z"/>
    <path class="cls-24" d="m43.27,136.06v-6.79h1.83v6.79h-1.83Zm1.64-1.2l.02-2.18h.24l1.23-1.71h2.06l-2.07,2.67h-.52l-.96,1.22Zm1.5,1.2l-1.17-2.01,1.19-1.3,2.06,3.32h-2.09Z"/>
  </g>
  <rect class="cls-13" x="25.56" y="226.09" width="24.95" height="25.03"/>
  <g>
    <rect class="cls-10" x="57.32" y="256.84" width="25.03" height="25.02"/>
    <rect class="cls-4" x="82.35" y="256.84" width="25.03" height="25.02"/>
    <rect class="cls-5" x="107.38" y="256.84" width="25.03" height="25.02"/>
    <rect class="cls-7" x="132.41" y="256.84" width="25.03" height="25.02"/>
    <rect class="cls-8" x="157.44" y="256.84" width="25.03" height="25.02"/>
    <rect class="cls-23" x="182.46" y="256.84" width="25.03" height="25.02"/>
    <rect class="cls-16" x="207.49" y="256.84" width="25.03" height="25.02"/>
  </g>
  <g>
    <rect class="cls-15" x="57.32" y="226.1" width="25.03" height="25.03"/>
    <rect class="cls-21" x="82.35" y="226.07" width="25.03" height="25.03"/>
    <rect class="cls-19" x="107.38" y="226.04" width="25.03" height="25.03"/>
    <rect class="cls-14" x="132.41" y="226.01" width="25.03" height="25.03"/>
    <rect class="cls-12" x="157.44" y="225.99" width="25.03" height="25.03"/>
    <rect class="cls-25" x="182.46" y="225.96" width="25.03" height="25.03"/>
    <rect class="cls-11" x="207.49" y="225.93" width="25.03" height="25.03"/>
  </g>
  <g>
    <path class="cls-24" d="m19.24,263.75v1.92l-6.55-2.16v-2.43l6.55-2.16v1.92l-4.75,1.43v.05l4.75,1.43Zm-2.58.35v-3.6h1.33v3.6h-1.33Z"/>
    <path class="cls-24" d="m16.48,256.71h2.76v1.77h-4.91v-1.75h.94v-.04c-.31-.11-.56-.29-.74-.53-.18-.25-.27-.55-.27-.92s.08-.65.24-.91c.16-.26.38-.46.66-.6.28-.14.6-.21.95-.21h3.13v1.77h-2.76c-.24,0-.43.06-.57.18s-.21.3-.21.52c0,.14.03.27.09.38.06.11.15.19.27.25.12.06.26.09.42.09Z"/>
    <path class="cls-24" d="m19.33,250.48c0,.53-.11.99-.32,1.37-.21.38-.51.67-.89.87-.38.2-.82.3-1.33.3s-.95-.1-1.33-.3c-.38-.2-.67-.49-.89-.87-.21-.38-.32-.84-.32-1.37,0-.48.09-.9.26-1.25s.42-.62.73-.82c.32-.19.69-.29,1.11-.29v1.63c-.17.01-.32.05-.44.11s-.21.14-.27.24c-.06.1-.09.21-.09.35,0,.16.04.29.13.4s.22.2.4.27c.18.06.4.09.67.09s.49-.03.67-.09c.18-.06.32-.15.41-.27.09-.11.14-.25.14-.4,0-.19-.07-.35-.21-.48-.14-.13-.34-.2-.6-.22v-1.63c.43,0,.81.1,1.13.3.32.19.57.46.74.81.17.35.26.77.26,1.25Z"/>
    <path class="cls-24" d="m16.48,245.85h2.76v1.77h-6.55v-1.7h2.58v-.05c-.31-.11-.56-.3-.74-.55-.18-.26-.27-.57-.27-.93s.08-.65.24-.9c.16-.26.38-.46.65-.6.28-.14.6-.21.96-.21h3.13v1.77h-2.76c-.24,0-.43.06-.57.18-.14.12-.21.29-.21.52,0,.14.03.27.09.38.06.11.15.19.27.25.12.06.26.09.42.09Z"/>
    <path class="cls-24" d="m19.33,239.61c0,.53-.11.99-.32,1.37-.21.38-.51.67-.89.87-.38.2-.82.3-1.33.3s-.95-.1-1.33-.3c-.38-.2-.67-.49-.89-.87-.21-.38-.32-.84-.32-1.37s.11-.99.32-1.37c.21-.38.51-.67.89-.87.38-.2.82-.3,1.33-.3s.95.1,1.33.3c.38.2.67.49.89.87.21.38.32.84.32,1.37Zm-1.32,0c0-.15-.05-.28-.14-.39-.1-.11-.24-.19-.42-.25s-.4-.09-.66-.09-.48.03-.66.09c-.18.06-.31.14-.41.25-.09.11-.14.24-.14.39s.05.29.14.4c.09.11.23.2.41.26.18.06.4.09.66.09s.47-.03.66-.09.32-.14.42-.26c.1-.11.14-.25.14-.4Z"/>
    <path class="cls-24" d="m19.24,236.56h-4.91v-1.71h.94v-.05c-.35-.09-.6-.23-.76-.42-.16-.2-.24-.42-.24-.68,0-.08,0-.15.02-.23s.03-.15.05-.22h1.5c-.03.09-.05.2-.07.32-.01.13-.02.24-.02.33,0,.17.04.33.12.47.08.14.19.25.33.32.14.08.3.12.49.12h2.56v1.77Z"/>
    <path class="cls-24" d="m19.24,228.8v1.79h-1.51v-1.72c0-.33-.05-.6-.15-.83-.1-.23-.28-.4-.54-.53-.26-.12-.61-.18-1.07-.18s-.81.06-1.07.18c-.26.12-.44.3-.54.54s-.16.53-.16.87v1.7h-1.51v-1.79c0-.67.13-1.25.39-1.74s.64-.87,1.13-1.13c.49-.27,1.08-.4,1.76-.4s1.26.13,1.75.4c.49.27.86.64,1.12,1.13.26.49.39,1.06.39,1.73Zm-6.55.75h6.55v1.78h-6.55v-1.78Z"/>
    <path class="cls-24" d="m19.33,222.55c0,.53-.11.99-.32,1.37-.21.38-.51.67-.89.87-.38.2-.82.3-1.33.3s-.95-.1-1.33-.3c-.38-.2-.67-.49-.89-.87-.21-.38-.32-.84-.32-1.37s.11-.99.32-1.37c.21-.38.51-.67.89-.87.38-.2.82-.3,1.33-.3s.95.1,1.33.3c.38.2.67.49.89.87.21.38.32.84.32,1.37Zm-1.32,0c0-.15-.05-.28-.14-.39-.1-.11-.24-.19-.42-.25s-.4-.09-.66-.09-.48.03-.66.09c-.18.06-.31.14-.41.25-.09.11-.14.24-.14.39s.05.29.14.4c.09.11.23.2.41.26.18.06.4.09.66.09s.47-.03.66-.09.32-.14.42-.26c.1-.11.14-.25.14-.4Z"/>
    <path class="cls-24" d="m15.93,215.01v1.62c-.15.01-.27.08-.35.21-.09.13-.13.28-.13.46,0,.15.03.28.08.39.05.11.13.16.24.16.07,0,.14-.03.21-.09.06-.06.11-.19.14-.37l.18-1c.09-.5.24-.88.46-1.12.22-.25.51-.37.87-.37s.66.1.91.31.45.49.59.84c.14.36.21.76.21,1.21,0,.75-.15,1.34-.46,1.76-.31.42-.71.66-1.21.71v-1.75c.16-.03.27-.11.36-.24.08-.13.12-.3.12-.49,0-.16-.03-.3-.08-.4-.06-.11-.13-.16-.23-.16-.17,0-.29.19-.36.56l-.16.87c-.09.5-.26.87-.5,1.12-.24.25-.56.37-.94.37-.34,0-.63-.09-.87-.27-.24-.18-.42-.44-.54-.78-.12-.34-.19-.74-.19-1.21,0-.71.15-1.27.44-1.68.29-.41.7-.62,1.22-.64Z"/>
    <path class="cls-24" d="m19.33,212.06c0,.52-.1.98-.3,1.36-.2.38-.49.67-.87.87-.38.2-.83.3-1.36.3s-.95-.1-1.33-.31c-.38-.2-.67-.49-.89-.86s-.32-.81-.32-1.32c0-.37.06-.71.17-1.01.12-.3.28-.56.5-.77s.48-.38.79-.49c.31-.12.66-.17,1.05-.17h.4v4.39h-.97v-3.56l.2.83c-.2,0-.37.03-.5.09-.14.06-.24.14-.31.26-.07.11-.11.26-.11.43s.04.31.11.43c.07.12.18.2.31.26.14.06.3.09.5.09h.7c.19,0,.36-.03.51-.1.14-.07.25-.17.33-.29.08-.13.12-.27.12-.44,0-.12-.02-.23-.05-.33-.03-.1-.08-.18-.15-.25s-.14-.12-.23-.16v-1.61c.34.06.63.19.89.39.25.2.44.47.58.81.14.34.2.73.2,1.18Z"/>
  </g>
  <polygon class="cls-2" points="195.47 300.58 195.47 287.57 95.35 287.57 195.47 300.58"/>
  <g>
    <path class="cls-24" d="m115.99,307.34v-6.55h1.78v5.12h2.65v1.43h-4.42Z"/>
    <path class="cls-24" d="m120.95,307.34v-4.91h1.77v4.91h-1.77Zm.88-5.41c-.24,0-.45-.08-.62-.24s-.25-.35-.25-.57.08-.42.25-.57.38-.24.62-.24.45.08.62.24.25.35.25.57-.08.42-.25.58-.38.24-.62.24Z"/>
    <path class="cls-24" d="m126.56,307.4c-.23,0-.43-.04-.61-.11-.18-.08-.33-.18-.46-.31s-.22-.28-.29-.45h-.04v.81h-1.75v-6.55h1.77v2.5h.03c.06-.17.16-.32.28-.46s.28-.25.46-.34c.18-.08.4-.12.64-.12.33,0,.63.09.92.26.29.17.53.44.71.81.19.37.28.85.28,1.45s-.09,1.03-.26,1.41-.41.65-.7.83-.62.27-.97.27Zm-.65-1.35c.16,0,.3-.05.42-.14.11-.09.2-.23.26-.4.06-.17.09-.38.09-.62s-.03-.45-.09-.63c-.06-.17-.15-.31-.26-.4-.11-.09-.25-.14-.42-.14s-.3.05-.42.14-.21.23-.27.4c-.06.17-.09.38-.09.63s.03.44.09.62c.06.17.15.31.27.4s.26.14.42.14Z"/>
    <path class="cls-24" d="m129,307.34v-4.91h1.71v.94h.05c.09-.35.23-.6.42-.76.2-.16.42-.24.68-.24.08,0,.15,0,.23.02s.15.03.22.05v1.5c-.09-.03-.2-.05-.32-.07-.13-.01-.24-.02-.33-.02-.17,0-.33.04-.47.12-.14.08-.25.19-.32.33-.08.14-.12.3-.12.49v2.56h-1.77Z"/>
    <path class="cls-24" d="m133.84,307.42c-.31,0-.59-.05-.83-.16-.24-.1-.43-.26-.56-.47s-.2-.48-.2-.8c0-.27.04-.5.14-.69s.22-.35.38-.47c.16-.12.36-.21.57-.28.22-.07.46-.11.71-.12.28-.02.5-.05.66-.07.17-.03.29-.07.36-.13.08-.06.11-.13.11-.23v-.02c0-.13-.05-.22-.15-.29-.1-.07-.22-.1-.37-.1-.17,0-.31.04-.41.11s-.17.19-.19.34h-1.62c.02-.3.12-.57.28-.83.17-.25.42-.45.74-.61.33-.15.73-.23,1.22-.23.35,0,.66.04.94.12s.52.2.71.34.35.32.45.51c.1.2.16.41.16.63v3.37h-1.65v-.69h-.04c-.1.18-.22.33-.36.45-.14.11-.3.2-.47.25s-.37.08-.58.08Zm.57-1.12c.13,0,.26-.03.38-.08.12-.06.22-.14.29-.24.08-.1.11-.23.11-.38v-.4s-.1.04-.15.05-.11.03-.17.05c-.06.01-.12.03-.18.04-.06.01-.13.02-.2.04-.14.02-.25.05-.34.1-.09.05-.15.11-.19.18s-.06.15-.06.23c0,.14.05.24.14.31.1.07.22.11.37.11Z"/>
    <path class="cls-24" d="m137.62,307.34v-4.91h1.71v.94h.05c.09-.35.23-.6.42-.76.2-.16.42-.24.68-.24.08,0,.15,0,.23.02s.15.03.22.05v1.5c-.09-.03-.2-.05-.32-.07-.13-.01-.24-.02-.33-.02-.17,0-.33.04-.47.12-.14.08-.25.19-.32.33-.08.14-.12.3-.12.49v2.56h-1.77Z"/>
    <path class="cls-24" d="m142.54,309.18c-.2,0-.4-.01-.58-.04-.18-.03-.35-.07-.48-.12l.39-1.26h.03c.21.08.39.11.55.11.16,0,.26-.08.32-.21l.04-.09-1.72-5.13h1.84l.79,3.4h.05l.81-3.4h1.85l-1.79,5.33c-.09.27-.22.51-.38.73-.17.21-.39.38-.67.51-.28.12-.62.19-1.03.19Z"/>
    <path class="cls-24" d="m150.03,300.79v6.55h-1.78v-6.55h1.78Zm.75,6.55h-1.79v-1.51h1.72c.33,0,.6-.05.83-.15.23-.1.4-.28.53-.54.12-.26.18-.61.18-1.07s-.06-.81-.18-1.07c-.12-.26-.3-.44-.54-.54s-.53-.16-.87-.16h-1.7v-1.51h1.79c.67,0,1.25.13,1.74.39s.87.64,1.13,1.13c.27.49.4,1.08.4,1.76s-.13,1.26-.4,1.75c-.27.49-.64.86-1.13,1.12-.49.26-1.06.39-1.73.39Z"/>
    <path class="cls-24" d="m157.03,307.43c-.53,0-.99-.11-1.37-.32-.38-.21-.67-.51-.87-.89-.2-.38-.3-.82-.3-1.33s.1-.95.3-1.33c.2-.38.49-.67.87-.89.38-.21.84-.32,1.37-.32s.99.11,1.37.32c.38.21.67.51.87.89.2.38.3.82.3,1.33s-.1.95-.3,1.33c-.2.38-.49.68-.87.89-.38.21-.84.32-1.37.32Zm0-1.32c.15,0,.28-.05.39-.15.11-.1.19-.24.25-.42s.09-.4.09-.66-.03-.48-.09-.65-.14-.31-.25-.41c-.11-.09-.24-.14-.39-.14s-.29.05-.4.14c-.11.09-.2.23-.26.41s-.09.4-.09.65.03.47.09.66.14.32.26.42c.11.1.25.15.4.15Z"/>
    <path class="cls-24" d="m164.56,304.03h-1.62c-.01-.15-.08-.27-.21-.35-.13-.09-.28-.13-.46-.13-.15,0-.28.03-.39.08-.11.05-.16.13-.16.24,0,.07.03.14.09.21.06.06.19.11.37.15l1,.18c.5.09.88.24,1.12.46.25.22.37.51.37.87s-.1.66-.31.91-.49.45-.84.59c-.36.14-.76.21-1.21.21-.75,0-1.34-.15-1.76-.46-.42-.31-.66-.71-.71-1.21h1.75c.03.16.11.27.24.36.13.08.3.12.49.12.16,0,.3-.03.4-.08s.16-.13.16-.23c0-.17-.19-.29-.56-.36l-.87-.16c-.5-.09-.87-.26-1.12-.5-.25-.24-.37-.56-.37-.94,0-.34.09-.63.27-.87.18-.24.44-.42.78-.54.34-.12.74-.19,1.21-.19.71,0,1.27.15,1.68.44.41.29.62.7.64,1.22Z"/>
    <path class="cls-24" d="m167.52,307.43c-.52,0-.98-.1-1.36-.3-.38-.2-.67-.49-.87-.87-.2-.38-.3-.83-.3-1.36s.1-.95.31-1.33c.2-.38.49-.67.86-.89s.81-.32,1.32-.32c.37,0,.71.06,1.01.17.3.12.56.28.77.5s.38.48.49.79c.12.31.17.66.17,1.05v.4h-4.39v-.97h3.56l-.83.2c0-.2-.03-.37-.09-.5-.06-.14-.14-.24-.26-.31-.11-.07-.26-.11-.43-.11s-.31.04-.43.11c-.12.07-.2.18-.26.31-.06.14-.09.3-.09.5v.7c0,.19.03.36.1.51.07.14.17.25.29.33s.27.12.44.12c.12,0,.23-.02.33-.05.1-.03.18-.08.25-.15s.12-.14.16-.23h1.61c-.06.34-.19.63-.39.89-.2.25-.47.44-.81.58-.34.14-.73.2-1.18.2Z"/>
    <path class="cls-24" d="m174.89,304.03h-1.62c-.01-.15-.08-.27-.21-.35-.13-.09-.28-.13-.46-.13-.15,0-.28.03-.39.08-.11.05-.16.13-.16.24,0,.07.03.14.09.21.06.06.19.11.37.15l1,.18c.5.09.88.24,1.12.46.25.22.37.51.37.87s-.1.66-.31.91-.49.45-.84.59c-.36.14-.76.21-1.21.21-.75,0-1.34-.15-1.76-.46-.42-.31-.66-.71-.71-1.21h1.75c.03.16.11.27.24.36.13.08.3.12.49.12.16,0,.3-.03.4-.08s.16-.13.16-.23c0-.17-.19-.29-.56-.36l-.87-.16c-.5-.09-.87-.26-1.12-.5-.25-.24-.37-.56-.37-.94,0-.34.09-.63.27-.87.18-.24.44-.42.78-.54.34-.12.74-.19,1.21-.19.71,0,1.27.15,1.68.44.41.29.62.7.64,1.22Z"/>
  </g>
  <g>
    <rect class="cls-6" x="26.77" y="42.17" width="25.03" height="25.03"/>
    <rect class="cls-22" x="51.8" y="42.17" width="25.03" height="25.03"/>
    <rect class="cls-13" x="126.89" y="42.17" width="25.03" height="25.03"/>
    <rect class="cls-20" x="151.91" y="42.17" width="25.03" height="25.03"/>
    <rect class="cls-18" x="176.94" y="42.17" width="25.03" height="25.03"/>
    <rect class="cls-17" x="101.86" y="42.17" width="25.03" height="25.03"/>
    <rect class="cls-13" x="76.83" y="42.17" width="25.03" height="25.03"/>
  </g>
  <path class="cls-24" d="m108.81,96.84l1.46-1.47,3.04,3.05v-12.2h2.13v12.2l3.05-3.05,1.44,1.47-5.56,5.56-5.57-5.56Z"/>
  <g>
    <path class="cls-24" d="m58.97,201.59l2.66-5.28v-.04h-3.12v-1.48h5.04v1.48l-2.68,5.31h-1.89Z"/>
    <path class="cls-24" d="m68.31,201.44l-4.11-4.09,1.12-1.13,4.1,4.11-1.11,1.11Zm-2.99,0l-1.12-1.11,4.11-4.11,1.11,1.13-4.1,4.09Z"/>
    <path class="cls-24" d="m73.61,194.8v6.79h-1.85v-5.09h-.04l-1.49.89v-1.57l1.67-1.02h1.7Z"/>
    <path class="cls-24" d="m79.02,196.5v1.33h-3.4v-1.33h3.4Zm-2.75,5.09v-5.24c0-.42.07-.77.22-1.04.15-.28.36-.48.63-.62s.59-.21.96-.21c.23,0,.46.02.68.05.22.04.38.07.48.09l-.26,1.31c-.07-.02-.14-.03-.23-.05-.09-.01-.16-.02-.23-.02-.17,0-.29.04-.35.11s-.09.17-.09.29v5.31h-1.82Z"/>
    <path class="cls-24" d="m81.81,201.68c-.55,0-1.03-.11-1.42-.33s-.69-.53-.9-.92c-.21-.39-.31-.85-.31-1.37s.11-.98.31-1.37c.21-.39.51-.7.9-.92s.87-.33,1.42-.33,1.03.11,1.42.33c.39.22.7.53.9.92.21.39.31.85.31,1.37s-.1.98-.31,1.37c-.21.39-.51.7-.9.92-.39.22-.87.33-1.42.33Zm0-1.37c.16,0,.29-.05.41-.15.11-.1.2-.25.26-.44.06-.19.09-.42.09-.68s-.03-.49-.09-.68c-.06-.19-.15-.33-.26-.42-.11-.1-.25-.15-.41-.15s-.3.05-.42.15-.21.24-.27.42c-.06.19-.09.41-.09.68s.03.49.09.68c.06.19.15.33.27.44.12.1.26.15.42.15Z"/>
    <path class="cls-24" d="m84.97,201.59v-5.09h1.78v.98h.05c.09-.36.24-.62.44-.79.2-.17.44-.25.71-.25.08,0,.16,0,.24.02.08.01.15.03.23.05v1.56c-.09-.03-.2-.06-.33-.07-.13-.01-.25-.02-.34-.02-.18,0-.34.04-.48.12-.14.08-.26.19-.34.34-.08.14-.12.31-.12.51v2.65h-1.83Z"/>
    <path class="cls-24" d="m88.8,201.59v-5.09h1.73v.98h.05c.11-.32.29-.57.55-.76.26-.19.56-.28.91-.28s.67.1.93.29c.26.19.41.44.46.75h.05c.08-.31.27-.56.55-.75.28-.19.61-.29.99-.29.49,0,.88.16,1.19.47.3.31.46.73.46,1.25v3.44h-1.83v-2.97c0-.22-.05-.4-.17-.52-.11-.13-.26-.19-.45-.19s-.34.06-.45.19-.16.3-.16.52v2.97h-1.75v-2.97c0-.22-.06-.4-.17-.52-.11-.13-.26-.19-.45-.19-.13,0-.24.03-.33.09-.09.06-.16.14-.21.24-.05.1-.07.23-.07.38v2.97h-1.83Z"/>
    <path class="cls-24" d="m98.8,201.67c-.32,0-.61-.05-.86-.16-.25-.11-.45-.27-.59-.49-.14-.22-.21-.5-.21-.83,0-.28.05-.52.14-.72.09-.2.23-.36.4-.49.17-.13.37-.22.6-.29.22-.07.47-.11.73-.13.29-.02.52-.05.69-.08.17-.03.3-.08.38-.13.08-.06.12-.14.12-.23v-.02c0-.13-.05-.23-.15-.3s-.23-.11-.39-.11c-.18,0-.32.04-.43.11-.11.08-.18.19-.2.35h-1.68c.02-.31.12-.6.29-.86s.43-.47.77-.63c.34-.16.76-.24,1.27-.24.36,0,.69.04.97.13s.54.2.74.36.36.33.47.53c.11.2.16.42.16.65v3.49h-1.71v-.72h-.04c-.1.19-.23.35-.37.46-.14.12-.31.2-.49.26-.18.05-.38.08-.61.08Zm.59-1.16c.14,0,.27-.03.39-.09s.22-.14.3-.25.12-.24.12-.39v-.42s-.1.04-.15.05c-.05.02-.11.03-.18.05s-.12.03-.19.04c-.06.01-.13.02-.21.04-.14.02-.26.06-.35.11s-.16.11-.2.18c-.04.07-.06.15-.06.24,0,.14.05.25.15.33.1.07.23.11.38.11Z"/>
    <path class="cls-24" d="m105.76,196.5v1.33h-3.35v-1.33h3.35Zm-2.71-1.21h1.83v4.67c0,.11.03.19.08.24s.14.08.27.08c.05,0,.12,0,.19-.02s.13-.02.16-.04l.26,1.29c-.21.06-.4.1-.57.12s-.34.04-.5.04c-.57,0-1-.13-1.29-.39-.29-.26-.43-.65-.43-1.15v-4.84Z"/>
    <path class="cls-24" d="m59.56,205.84v6.55h-.75v-6.55h.75Z"/>
    <path class="cls-24" d="m60.9,206.66c-.15,0-.27-.05-.38-.15s-.16-.22-.16-.36.05-.26.16-.36.23-.15.38-.15.27.05.38.15.16.22.16.36-.05.26-.16.36-.23.15-.38.15Zm-.38,5.73v-4.91h.75v4.91h-.75Z"/>
    <path class="cls-24" d="m64.48,212.49c-.31,0-.57-.05-.76-.16-.19-.11-.34-.23-.44-.37-.1-.14-.18-.25-.24-.34h-.09v.76h-.72v-6.55h.75v2.42h.06c.06-.08.13-.19.23-.33.1-.13.24-.25.43-.36s.44-.16.76-.16c.41,0,.78.1,1.09.31.31.21.56.5.74.88.18.38.27.83.27,1.34s-.09.97-.26,1.35c-.18.38-.42.68-.73.89-.31.21-.68.31-1.09.31Zm-.1-.68c.31,0,.58-.08.79-.25.21-.17.37-.39.48-.68s.16-.6.16-.95-.05-.66-.16-.94-.26-.5-.47-.66c-.21-.16-.47-.25-.79-.25s-.56.08-.77.23c-.21.15-.37.37-.47.65-.11.28-.16.6-.16.97s.05.7.16.98c.11.28.27.5.48.66.21.16.46.24.77.24Z"/>
    <path class="cls-24" d="m67.29,212.39v-4.91h.72v.75h.05c.09-.24.25-.44.49-.59.23-.15.5-.23.79-.23.05,0,.12,0,.21,0,.08,0,.15,0,.19,0v.76s-.08-.01-.18-.03c-.09-.01-.19-.02-.29-.02-.24,0-.45.05-.64.15s-.33.24-.44.41c-.11.17-.16.37-.16.59v3.1h-.75Z"/>
    <path class="cls-24" d="m71.66,212.5c-.31,0-.59-.06-.85-.18-.25-.12-.46-.29-.61-.52-.15-.23-.22-.5-.22-.82,0-.28.05-.51.17-.68.11-.17.26-.31.45-.41.19-.1.39-.18.62-.23.22-.05.45-.09.68-.12.3-.04.54-.07.73-.09.19-.02.32-.06.41-.11s.13-.13.13-.25v-.03c0-.31-.09-.56-.26-.73-.17-.17-.43-.26-.78-.26s-.64.08-.84.24-.35.32-.43.5l-.72-.25c.13-.3.3-.53.52-.7s.45-.28.7-.35.5-.1.75-.1c.16,0,.34.02.54.05.21.04.4.11.6.23.2.12.36.29.48.52.13.23.19.54.19.93v3.23h-.76v-.67h-.04c-.05.11-.13.22-.25.34-.12.12-.28.23-.48.31-.2.09-.44.13-.73.13Zm.12-.68c.3,0,.55-.06.76-.18s.36-.27.46-.46c.11-.19.16-.38.16-.58v-.69s-.1.07-.21.1c-.11.03-.23.06-.37.08-.14.02-.27.04-.41.06-.13.02-.24.03-.32.04-.2.03-.38.07-.55.12-.17.06-.31.14-.41.25-.11.11-.16.26-.16.46,0,.26.1.46.29.59.2.13.44.2.75.2Z"/>
    <path class="cls-24" d="m74.87,212.39v-4.91h.72v.75h.05c.09-.24.25-.44.49-.59s.5-.23.79-.23c.06,0,.12,0,.21,0,.08,0,.14,0,.19,0v.76s-.09-.01-.18-.03c-.09-.01-.19-.02-.29-.02-.24,0-.45.05-.64.15s-.33.24-.44.41-.16.37-.16.59v3.1h-.75Z"/>
    <path class="cls-24" d="m78.43,214.23c-.13,0-.24,0-.34-.03s-.17-.04-.21-.06l.19-.66.08.02c.25.06.46.05.63-.04.17-.08.32-.3.45-.66l.14-.39-1.81-4.94h.82l1.35,3.92h.05l1.35-3.92h.82l-2.08,5.62c-.09.25-.21.47-.35.63-.14.17-.3.29-.48.37s-.39.12-.62.12Z"/>
    <path class="cls-24" d="m86.09,212.5c-.31,0-.59-.06-.85-.18-.25-.12-.46-.29-.61-.52-.15-.23-.22-.5-.22-.82,0-.28.05-.51.17-.68.11-.17.26-.31.45-.41.19-.1.39-.18.62-.23.22-.05.45-.09.68-.12.3-.04.54-.07.73-.09.19-.02.32-.06.41-.11s.13-.13.13-.25v-.03c0-.31-.09-.56-.26-.73-.17-.17-.43-.26-.78-.26s-.64.08-.84.24-.35.32-.43.5l-.72-.25c.13-.3.3-.53.52-.7s.45-.28.7-.35.5-.1.75-.1c.16,0,.34.02.54.05.21.04.4.11.6.23.2.12.36.29.48.52.13.23.19.54.19.93v3.23h-.76v-.67h-.04c-.05.11-.13.22-.25.34-.12.12-.28.23-.48.31-.2.09-.44.13-.73.13Zm.12-.68c.3,0,.55-.06.76-.18s.36-.27.46-.46c.11-.19.16-.38.16-.58v-.69s-.1.07-.21.1c-.11.03-.23.06-.37.08-.14.02-.27.04-.41.06-.13.02-.24.03-.32.04-.2.03-.38.07-.55.12-.17.06-.31.14-.41.25-.11.11-.16.26-.16.46,0,.26.1.46.29.59.2.13.44.2.75.2Z"/>
    <path class="cls-24" d="m91.28,214.33c-.55,0-.98-.1-1.3-.3s-.55-.43-.71-.69l.6-.42c.07.09.15.19.26.31s.25.22.43.3.42.13.72.13c.39,0,.72-.1.98-.29.26-.19.39-.49.39-.9v-.99h-.07c-.05.09-.13.2-.23.33-.1.13-.25.25-.44.35-.19.1-.45.15-.77.15-.39,0-.75-.09-1.06-.28-.31-.19-.56-.46-.75-.82-.18-.36-.27-.79-.27-1.3s.09-.94.27-1.32c.18-.37.42-.66.74-.87.32-.21.68-.31,1.09-.31.32,0,.57.05.76.16.19.11.33.23.43.36.1.13.18.24.24.33h.08v-.78h.72v5.05c0,.42-.09.77-.28,1.03s-.44.46-.76.58c-.32.12-.68.19-1.07.19Zm-.03-2.7c.46,0,.8-.15,1.04-.46.24-.31.36-.73.36-1.28,0-.35-.05-.67-.16-.94s-.26-.48-.47-.64c-.21-.15-.47-.23-.78-.23s-.58.08-.8.24c-.21.16-.37.38-.48.65s-.16.57-.16.91.05.64.16.9.27.47.48.62c.21.15.48.22.79.22Z"/>
    <path class="cls-24" d="m96.42,212.49c-.47,0-.88-.11-1.22-.32-.35-.21-.61-.51-.79-.89-.19-.38-.28-.82-.28-1.32s.09-.95.27-1.33.44-.68.77-.9.71-.33,1.16-.33c.25,0,.51.04.76.13s.48.22.69.41.37.44.49.76.19.7.19,1.16v.33h-3.79v-.65h3.38l-.35.25c0-.33-.05-.62-.15-.87-.1-.25-.26-.46-.46-.6s-.46-.22-.76-.22-.56.07-.78.22c-.22.15-.38.34-.49.58-.12.24-.17.49-.17.76v.43c0,.37.06.69.19.94s.31.45.54.59c.23.13.5.2.8.2.2,0,.38-.03.54-.09.16-.06.3-.14.42-.26.12-.12.21-.26.27-.43l.73.21c-.08.25-.2.46-.38.65-.18.19-.4.33-.67.43-.27.1-.56.16-.9.16Z"/>
    <path class="cls-24" d="m99.92,209.44v2.95h-.75v-4.91h.72v.77h.07c.12-.25.29-.45.52-.61s.54-.23.91-.23c.33,0,.62.07.87.2.25.13.44.34.58.61.14.27.21.62.21,1.04v3.12h-.75v-3.07c0-.38-.1-.68-.3-.9-.2-.22-.48-.33-.83-.33-.24,0-.46.05-.65.16-.19.11-.34.26-.45.46s-.16.44-.16.73Z"/>
    <path class="cls-24" d="m106.15,207.48v.64h-2.54v-.64h2.54Zm-1.8-1.17h.75v4.68c0,.25.05.44.16.56.11.12.27.18.5.18.05,0,.1,0,.16,0,.05,0,.11-.01.18-.03l.16.68c-.07.03-.16.05-.26.06s-.2.02-.3.02c-.4,0-.72-.12-.96-.35s-.37-.54-.37-.91v-4.88Z"/>
    <path class="cls-24" d="m111.1,207.48v.64h-2.54v-.64h2.54Zm-1.8-1.17h.75v4.68c0,.25.05.44.16.56.11.12.27.18.5.18.05,0,.1,0,.16,0,.05,0,.11-.01.18-.03l.16.68c-.07.03-.16.05-.26.06s-.2.02-.3.02c-.4,0-.72-.12-.96-.35s-.37-.54-.37-.91v-4.88Z"/>
    <path class="cls-24" d="m113.83,212.49c-.47,0-.88-.11-1.22-.32-.35-.21-.61-.51-.79-.89-.19-.38-.28-.82-.28-1.32s.09-.95.27-1.33.44-.68.77-.9.71-.33,1.16-.33c.25,0,.51.04.76.13s.48.22.69.41.37.44.49.76.19.7.19,1.16v.33h-3.79v-.65h3.38l-.35.25c0-.33-.05-.62-.15-.87-.1-.25-.26-.46-.46-.6s-.46-.22-.76-.22-.56.07-.78.22c-.22.15-.38.34-.49.58-.12.24-.17.49-.17.76v.43c0,.37.06.69.19.94s.31.45.54.59c.23.13.5.2.8.2.2,0,.38-.03.54-.09.16-.06.3-.14.42-.26.12-.12.21-.26.27-.43l.73.21c-.08.25-.2.46-.38.65-.18.19-.4.33-.67.43-.27.1-.56.16-.9.16Z"/>
    <path class="cls-24" d="m120.05,208.58l-.68.18c-.06-.17-.17-.33-.33-.48-.16-.15-.4-.23-.73-.23-.3,0-.55.07-.75.21s-.3.31-.3.52c0,.19.07.34.21.45s.35.2.64.27l.73.18c.44.11.76.27.98.49.22.22.32.5.32.84,0,.28-.08.53-.24.76-.16.22-.38.4-.67.53s-.62.19-1,.19c-.5,0-.92-.11-1.24-.33s-.53-.54-.62-.95l.71-.18c.07.26.2.46.39.59.19.13.44.2.75.2.35,0,.63-.08.84-.23.21-.15.31-.33.31-.54,0-.35-.24-.58-.73-.69l-.82-.19c-.45-.11-.78-.27-.99-.5s-.32-.5-.32-.84c0-.28.08-.52.24-.74.16-.21.37-.38.64-.5.27-.12.58-.18.92-.18.49,0,.87.11,1.15.32.28.21.47.5.59.85Z"/>
    <path class="cls-24" d="m122.98,207.48v.64h-2.54v-.64h2.54Zm-1.8-1.17h.75v4.68c0,.25.05.44.16.56.11.12.27.18.5.18.05,0,.1,0,.16,0,.05,0,.11-.01.18-.03l.16.68c-.07.03-.16.05-.26.06s-.2.02-.3.02c-.4,0-.72-.12-.96-.35s-.37-.54-.37-.91v-4.88Z"/>
    <path class="cls-24" d="m125.71,212.49c-.47,0-.88-.11-1.22-.32-.35-.21-.61-.51-.79-.89-.19-.38-.28-.82-.28-1.32s.09-.95.27-1.33.44-.68.77-.9.71-.33,1.16-.33c.25,0,.51.04.76.13s.48.22.69.41.37.44.49.76.19.7.19,1.16v.33h-3.79v-.65h3.38l-.35.25c0-.33-.05-.62-.15-.87-.1-.25-.26-.46-.46-.6s-.46-.22-.76-.22-.56.07-.78.22c-.22.15-.38.34-.49.58-.12.24-.17.49-.17.76v.43c0,.37.06.69.19.94s.31.45.54.59c.23.13.5.2.8.2.2,0,.38-.03.54-.09.16-.06.3-.14.42-.26.12-.12.21-.26.27-.43l.73.21c-.08.25-.2.46-.38.65-.18.19-.4.33-.67.43-.27.1-.56.16-.9.16Z"/>
    <path class="cls-24" d="m130.3,212.49c-.41,0-.77-.1-1.08-.31-.31-.21-.56-.5-.73-.89-.18-.38-.26-.83-.26-1.35s.09-.96.27-1.34c.18-.38.42-.67.74-.88.31-.21.68-.31,1.09-.31.32,0,.58.05.76.16s.33.23.43.36c.1.13.18.24.23.33h.06v-2.42h.75v6.55h-.72v-.76h-.09c-.06.09-.13.2-.24.34-.1.14-.25.26-.44.37-.19.11-.44.16-.76.16Zm.1-.68c.3,0,.56-.08.77-.24.21-.16.37-.38.47-.66.11-.28.16-.61.16-.98s-.05-.69-.16-.97c-.11-.28-.26-.49-.47-.65-.21-.15-.47-.23-.78-.23s-.58.08-.79.25-.37.39-.47.66-.16.59-.16.94.05.67.16.95.27.51.48.68c.21.17.47.25.79.25Z"/>
    <path class="cls-24" d="m137.06,212.5c-.31,0-.59-.06-.85-.18-.25-.12-.46-.29-.61-.52-.15-.23-.22-.5-.22-.82,0-.28.06-.51.17-.68.11-.17.26-.31.45-.41.19-.1.39-.18.62-.23s.45-.09.68-.12c.3-.04.54-.07.73-.09s.32-.06.41-.11c.09-.05.13-.13.13-.25v-.03c0-.31-.09-.56-.26-.73s-.43-.26-.78-.26-.64.08-.84.24-.35.32-.43.5l-.72-.25c.13-.3.3-.53.52-.7.21-.17.45-.28.7-.35.25-.07.5-.1.75-.1.16,0,.34.02.54.05.21.04.41.11.6.23.2.12.36.29.48.52.13.23.19.54.19.93v3.23h-.76v-.67h-.04c-.05.11-.13.22-.26.34-.12.12-.28.23-.48.31-.2.09-.44.13-.73.13Zm.11-.68c.3,0,.55-.06.76-.18s.36-.27.47-.46c.11-.19.16-.38.16-.58v-.69s-.1.07-.21.1c-.11.03-.23.06-.37.08s-.28.04-.41.06c-.13.02-.24.03-.32.04-.2.03-.38.07-.55.12-.17.06-.31.14-.41.25s-.16.26-.16.46c0,.26.1.46.29.59.2.13.44.2.74.2Z"/>
    <path class="cls-24" d="m142.4,207.48v.64h-2.54v-.64h2.54Zm-1.8-1.17h.75v4.68c0,.25.05.44.16.56.11.12.27.18.5.18.05,0,.1,0,.16,0s.11-.01.18-.03l.16.68c-.07.03-.16.05-.26.06-.1.02-.2.02-.31.02-.39,0-.72-.12-.96-.35-.25-.23-.37-.54-.37-.91v-4.88Z"/>
    <path class="cls-24" d="m147.37,205.84v6.55h-.77v-5.71h-.04l-1.59,1.06v-.81l1.63-1.09h.77Z"/>
    <path class="cls-24" d="m151.98,212.5c-.31,0-.59-.06-.85-.18-.25-.12-.46-.29-.61-.52-.15-.23-.22-.5-.22-.82,0-.28.06-.51.17-.68.11-.17.26-.31.45-.41.19-.1.39-.18.62-.23s.45-.09.68-.12c.3-.04.54-.07.73-.09s.32-.06.41-.11c.09-.05.13-.13.13-.25v-.03c0-.31-.09-.56-.26-.73s-.43-.26-.78-.26-.64.08-.84.24-.35.32-.43.5l-.72-.25c.13-.3.3-.53.52-.7.21-.17.45-.28.7-.35.25-.07.5-.1.75-.1.16,0,.34.02.54.05.21.04.41.11.6.23.2.12.36.29.48.52.13.23.19.54.19.93v3.23h-.76v-.67h-.04c-.05.11-.13.22-.26.34-.12.12-.28.23-.48.31-.2.09-.44.13-.73.13Zm.11-.68c.3,0,.55-.06.76-.18s.36-.27.47-.46c.11-.19.16-.38.16-.58v-.69s-.1.07-.21.1c-.11.03-.23.06-.37.08s-.28.04-.41.06c-.13.02-.24.03-.32.04-.2.03-.38.07-.55.12-.17.06-.31.14-.41.25s-.16.26-.16.46c0,.26.1.46.29.59.2.13.44.2.74.2Z"/>
    <path class="cls-24" d="m155.94,209.44v2.95h-.75v-4.91h.72v.77h.07c.11-.25.29-.45.52-.61s.54-.23.91-.23c.33,0,.62.07.87.2.25.13.44.34.58.61s.21.62.21,1.04v3.12h-.75v-3.07c0-.38-.1-.68-.3-.9-.2-.22-.48-.33-.83-.33-.24,0-.46.05-.65.16-.19.11-.34.26-.45.46-.11.2-.17.44-.17.73Z"/>
    <path class="cls-24" d="m162.04,212.49c-.46,0-.85-.11-1.19-.33-.33-.22-.59-.52-.77-.9-.18-.38-.27-.82-.27-1.31s.09-.94.28-1.33c.18-.38.44-.68.78-.9s.72-.33,1.16-.33c.35,0,.66.06.93.19.28.13.5.31.68.54s.29.5.33.81h-.76c-.04-.15-.11-.29-.21-.42s-.23-.24-.39-.32c-.16-.08-.36-.12-.58-.12-.29,0-.55.08-.77.23-.22.15-.39.37-.51.64-.12.28-.19.6-.19.97s.06.71.18.99c.12.28.29.5.51.66.22.16.48.23.78.23s.55-.08.76-.23c.21-.15.35-.36.42-.63h.76c-.04.29-.15.55-.31.78s-.39.42-.66.55c-.27.14-.59.2-.96.2Z"/>
    <path class="cls-24" d="m165.43,209.44v2.95h-.75v-6.55h.75v2.41h.07c.11-.25.29-.46.52-.61s.54-.23.93-.23c.33,0,.63.07.88.2s.45.34.59.61c.14.27.21.62.21,1.04v3.12h-.76v-3.07c0-.39-.1-.7-.3-.91-.2-.21-.48-.32-.84-.32-.25,0-.47.05-.66.16s-.35.26-.46.46c-.11.2-.17.44-.17.73Z"/>
    <path class="cls-24" d="m171.57,212.49c-.44,0-.83-.11-1.16-.32s-.59-.51-.78-.89c-.19-.38-.28-.82-.28-1.33s.09-.96.28-1.34c.19-.38.45-.68.78-.89s.72-.32,1.16-.32.84.11,1.17.32.59.51.78.89c.19.38.28.83.28,1.34s-.09.95-.28,1.33-.45.68-.78.89-.72.32-1.17.32Zm0-.68c.34,0,.62-.09.84-.26s.38-.4.48-.68.16-.59.16-.91-.05-.64-.16-.92-.27-.51-.48-.69-.5-.26-.84-.26-.61.09-.83.26-.38.4-.48.69-.16.59-.16.92.05.63.16.91.27.51.48.68.49.26.83.26Z"/>
    <path class="cls-24" d="m174.53,212.39v-4.91h.72v.75h.05c.09-.24.25-.44.49-.59.23-.15.5-.23.79-.23.05,0,.12,0,.21,0,.08,0,.15,0,.19,0v.76s-.08-.01-.18-.03c-.09-.01-.19-.02-.29-.02-.24,0-.45.05-.64.15s-.33.24-.44.41c-.11.17-.16.37-.16.59v3.1h-.75Z"/>
    <path class="cls-24" d="m181.42,212.49c-.41,0-.77-.1-1.08-.31-.31-.21-.56-.5-.73-.89-.18-.38-.26-.83-.26-1.35s.09-.96.27-1.34c.18-.38.42-.67.74-.88.31-.21.68-.31,1.09-.31.32,0,.58.05.76.16s.33.23.43.36c.1.13.18.24.23.33h.06v-2.42h.75v6.55h-.72v-.76h-.09c-.06.09-.13.2-.24.34-.1.14-.25.26-.44.37-.19.11-.44.16-.76.16Zm.1-.68c.3,0,.56-.08.77-.24.21-.16.37-.38.47-.66.11-.28.16-.61.16-.98s-.05-.69-.16-.97c-.11-.28-.26-.49-.47-.65-.21-.15-.47-.23-.78-.23s-.58.08-.79.25-.37.39-.47.66-.16.59-.16.94.05.67.16.95.27.51.48.68c.21.17.47.25.79.25Z"/>
    <path class="cls-24" d="m186.61,212.49c-.44,0-.83-.11-1.17-.32s-.59-.51-.78-.89-.28-.82-.28-1.33.09-.96.28-1.34c.19-.38.45-.68.78-.89s.72-.32,1.17-.32.83.11,1.17.32.6.51.78.89c.19.38.28.83.28,1.34s-.09.95-.28,1.33-.45.68-.78.89-.72.32-1.17.32Zm0-.68c.34,0,.62-.09.83-.26s.38-.4.48-.68.16-.59.16-.91-.05-.64-.16-.92-.27-.51-.48-.69-.49-.26-.83-.26-.61.09-.83.26-.38.4-.48.69-.16.59-.16.92.05.63.16.91.27.51.48.68.49.26.83.26Z"/>
    <path class="cls-24" d="m193.04,208.58l-.68.18c-.06-.17-.17-.33-.33-.48-.16-.15-.4-.23-.73-.23-.3,0-.55.07-.75.21s-.3.31-.3.52c0,.19.07.34.21.45s.35.2.64.27l.73.18c.44.11.76.27.98.49.22.22.32.5.32.84,0,.28-.08.53-.24.76-.16.22-.38.4-.67.53s-.62.19-1,.19c-.5,0-.92-.11-1.24-.33s-.53-.54-.62-.95l.71-.18c.07.26.2.46.39.59.19.13.44.2.75.2.35,0,.63-.08.84-.23.21-.15.31-.33.31-.54,0-.35-.24-.58-.73-.69l-.82-.19c-.45-.11-.78-.27-.99-.5s-.32-.5-.32-.84c0-.28.08-.52.24-.74.16-.21.37-.38.64-.5.27-.12.58-.18.92-.18.49,0,.87.11,1.15.32.28.21.47.5.59.85Z"/>
    <path class="cls-24" d="m195.91,212.49c-.47,0-.88-.11-1.22-.32s-.61-.51-.79-.89c-.19-.38-.28-.82-.28-1.32s.09-.95.27-1.33.44-.68.77-.9c.33-.22.72-.33,1.16-.33.26,0,.51.04.76.13s.48.22.69.41c.21.19.37.44.49.76s.18.7.18,1.16v.33h-3.79v-.65h3.38l-.35.25c0-.33-.05-.62-.15-.87-.1-.25-.25-.46-.46-.6-.2-.15-.46-.22-.76-.22s-.56.07-.78.22c-.21.15-.38.34-.49.58-.12.24-.17.49-.17.76v.43c0,.37.06.69.19.94s.31.45.54.59c.23.13.5.2.8.2.2,0,.38-.03.54-.09.16-.06.3-.14.42-.26s.21-.26.27-.43l.73.21c-.08.25-.21.46-.38.65s-.4.33-.67.43c-.27.1-.57.16-.9.16Z"/>
  </g>
  <g>
    <path class="cls-24" d="m27.99,76.83l-1.23-4.91h1.77l.56,3h.04l.63-3h1.71l.66,2.97h.04l.54-2.97h1.77l-1.23,4.91h-1.91l-.69-2.64h-.05l-.69,2.64h-1.91Z"/>
    <path class="cls-24" d="m37.05,76.92c-.52,0-.98-.1-1.36-.3-.38-.2-.67-.49-.87-.87-.2-.38-.3-.83-.3-1.36s.1-.95.31-1.33c.2-.38.49-.67.86-.89s.81-.32,1.32-.32c.37,0,.71.06,1.01.17.3.12.56.28.77.5s.38.48.49.79c.12.31.17.66.17,1.05v.4h-4.39v-.97h3.56l-.83.2c0-.2-.03-.37-.09-.5-.06-.14-.14-.24-.26-.31-.11-.07-.26-.11-.43-.11s-.31.04-.43.11c-.12.07-.2.18-.26.31-.06.14-.09.3-.09.5v.7c0,.19.03.36.1.51.07.14.17.25.29.33s.27.12.44.12c.12,0,.23-.02.33-.05.1-.03.18-.08.25-.15s.12-.14.16-.23h1.61c-.06.34-.19.63-.39.89-.2.25-.47.44-.81.58-.34.14-.73.2-1.18.2Z"/>
    <path class="cls-24" d="m41.31,76.91c-.31,0-.59-.05-.83-.16-.24-.1-.43-.26-.56-.47s-.2-.48-.2-.8c0-.27.04-.5.14-.69s.22-.35.38-.47c.16-.12.36-.21.57-.28.22-.07.46-.11.71-.12.28-.02.5-.05.66-.07.17-.03.29-.07.36-.13.08-.06.11-.13.11-.23v-.02c0-.13-.05-.22-.15-.29-.1-.07-.22-.1-.37-.1-.17,0-.31.04-.41.11s-.17.19-.19.34h-1.62c.02-.3.12-.57.28-.83.17-.25.42-.45.74-.61.33-.15.73-.23,1.22-.23.35,0,.66.04.94.12s.52.2.71.34.35.32.45.51c.1.2.16.41.16.63v3.37h-1.65v-.69h-.04c-.1.18-.22.33-.36.45-.14.11-.3.2-.47.25s-.37.08-.58.08Zm.57-1.12c.13,0,.26-.03.38-.08.12-.06.22-.14.29-.24.08-.1.11-.23.11-.38v-.4s-.1.04-.15.05-.11.03-.17.05c-.06.01-.12.03-.18.04-.06.01-.13.02-.2.04-.14.02-.25.05-.34.1-.09.05-.15.11-.19.18s-.06.15-.06.23c0,.14.05.24.14.31.1.07.22.11.37.11Z"/>
    <path class="cls-24" d="m45.1,76.83v-6.55h1.77v6.55h-1.77Zm1.58-1.16l.02-2.1h.23l1.19-1.65h1.99l-2,2.58h-.5l-.92,1.18Zm1.45,1.16l-1.12-1.94,1.15-1.26,1.99,3.2h-2.01Z"/>
    <path class="cls-24" d="m53.92,76.94c-.41,0-.77-.1-1.08-.31-.31-.21-.56-.5-.73-.89-.18-.38-.26-.83-.26-1.35s.09-.96.27-1.34c.18-.38.42-.67.74-.88.31-.21.68-.31,1.09-.31.32,0,.58.05.76.16.19.11.33.23.43.36.1.13.18.24.23.33h.06v-2.42h.75v6.55h-.72v-.76h-.09c-.06.09-.13.2-.24.34-.1.14-.25.26-.44.37-.19.11-.44.16-.76.16Zm.1-.68c.3,0,.56-.08.77-.24.21-.16.37-.38.47-.66.11-.28.16-.61.16-.98s-.05-.69-.16-.97c-.11-.28-.26-.49-.47-.65-.21-.15-.47-.23-.78-.23s-.58.08-.79.25-.37.39-.47.66-.16.59-.16.94.05.67.16.95c.11.28.27.51.48.68.21.17.47.25.79.25Z"/>
    <path class="cls-24" d="m57.5,71.1c-.15,0-.27-.05-.38-.15s-.16-.22-.16-.36.05-.26.16-.36.23-.15.38-.15.27.05.38.15.16.22.16.36-.05.26-.16.36-.23.15-.38.15Zm-.38,5.73v-4.91h.75v4.91h-.75Z"/>
    <path class="cls-24" d="m61.02,71.92v.64h-2.65v-.64h2.65Zm-1.85,4.91v-5.59c0-.28.07-.52.2-.7.13-.19.31-.33.52-.42s.43-.14.66-.14c.19,0,.34.02.46.05.12.03.21.06.26.09l-.22.65s-.09-.03-.16-.05c-.07-.02-.15-.03-.27-.03-.25,0-.43.06-.54.19-.11.13-.17.31-.17.56v5.41h-.75Z"/>
    <path class="cls-24" d="m63.84,71.92v.64h-2.65v-.64h2.65Zm-1.85,4.91v-5.59c0-.28.07-.52.2-.7.13-.19.31-.33.52-.42s.43-.14.66-.14c.19,0,.34.02.46.05.12.03.21.06.26.09l-.22.65s-.09-.03-.16-.05c-.07-.02-.15-.03-.27-.03-.25,0-.43.06-.54.19-.11.13-.17.31-.17.56v5.41h-.75Z"/>
    <path class="cls-24" d="m66.33,76.94c-.47,0-.88-.11-1.22-.32-.34-.21-.61-.51-.79-.89-.19-.38-.28-.82-.28-1.32s.09-.95.27-1.33.44-.68.77-.9c.33-.22.72-.33,1.16-.33.25,0,.51.04.76.13s.48.22.69.41c.21.19.37.44.49.76s.18.7.18,1.16v.33h-3.79v-.65h3.38l-.35.25c0-.33-.05-.62-.15-.87s-.25-.46-.46-.6c-.2-.15-.46-.22-.76-.22s-.56.07-.78.22c-.22.15-.38.34-.49.58-.12.24-.17.49-.17.76v.43c0,.37.06.69.19.94s.31.45.54.59c.23.13.5.2.8.2.2,0,.38-.03.54-.09.16-.06.3-.14.42-.26.12-.12.21-.26.27-.43l.73.21c-.08.25-.2.46-.38.65-.18.19-.4.33-.67.43-.27.1-.57.16-.9.16Z"/>
    <path class="cls-24" d="m69.08,76.83v-4.91h.72v.75h.05c.09-.24.25-.44.49-.59.24-.15.5-.23.79-.23.06,0,.12,0,.21,0,.08,0,.15,0,.19,0v.76s-.08-.01-.18-.03-.19-.02-.29-.02c-.24,0-.45.05-.64.15s-.33.24-.44.41c-.11.17-.16.37-.16.59v3.1h-.75Z"/>
    <path class="cls-24" d="m73.91,76.94c-.47,0-.88-.11-1.22-.32-.34-.21-.61-.51-.79-.89-.19-.38-.28-.82-.28-1.32s.09-.95.27-1.33.44-.68.77-.9c.33-.22.72-.33,1.16-.33.25,0,.51.04.76.13s.48.22.69.41c.21.19.37.44.49.76s.18.7.18,1.16v.33h-3.79v-.65h3.38l-.35.25c0-.33-.05-.62-.15-.87s-.25-.46-.46-.6c-.2-.15-.46-.22-.76-.22s-.56.07-.78.22c-.22.15-.38.34-.49.58-.12.24-.17.49-.17.76v.43c0,.37.06.69.19.94s.31.45.54.59c.23.13.5.2.8.2.2,0,.38-.03.54-.09.16-.06.3-.14.42-.26.12-.12.21-.26.27-.43l.73.21c-.08.25-.2.46-.38.65-.18.19-.4.33-.67.43-.27.1-.57.16-.9.16Z"/>
    <path class="cls-24" d="m77.4,73.88v2.95h-.75v-4.91h.72v.77h.07c.11-.25.29-.45.52-.61s.54-.23.91-.23c.33,0,.62.07.87.2s.44.34.58.61c.14.27.21.62.21,1.04v3.12h-.75v-3.07c0-.38-.1-.68-.3-.9-.2-.22-.48-.33-.83-.33-.24,0-.46.05-.65.16s-.34.26-.45.46c-.11.2-.17.44-.17.73Z"/>
    <path class="cls-24" d="m83.63,71.92v.64h-2.54v-.64h2.54Zm-1.8-1.17h.75v4.68c0,.25.05.44.16.56.11.12.27.18.5.18.05,0,.1,0,.16,0,.05,0,.11-.01.18-.03l.16.68c-.07.03-.16.05-.26.06-.1.02-.2.02-.31.02-.4,0-.72-.12-.96-.35-.25-.23-.37-.54-.37-.91v-4.88Z"/>
    <path class="cls-24" d="m84.73,71.1c-.15,0-.27-.05-.38-.15s-.16-.22-.16-.36.05-.26.16-.36.23-.15.38-.15.27.05.38.15.16.22.16.36-.05.26-.16.36-.23.15-.38.15Zm-.38,5.73v-4.91h.75v4.91h-.75Z"/>
    <path class="cls-24" d="m87.51,76.95c-.31,0-.59-.06-.85-.18-.25-.12-.46-.29-.61-.52-.15-.23-.22-.5-.22-.82,0-.28.06-.51.17-.68.11-.17.26-.31.45-.41.19-.1.39-.18.62-.23.22-.05.45-.09.68-.12.3-.04.54-.07.73-.09.19-.02.32-.06.41-.11.09-.05.13-.13.13-.25v-.03c0-.31-.09-.56-.26-.73-.17-.17-.43-.26-.78-.26s-.64.08-.84.24-.35.32-.43.5l-.72-.25c.13-.3.3-.53.52-.7.21-.17.45-.28.7-.35.25-.07.5-.1.75-.1.16,0,.34.02.54.05.21.04.41.11.6.23.2.12.36.29.48.52.13.23.19.54.19.93v3.23h-.76v-.67h-.04c-.05.11-.13.22-.25.34s-.28.23-.48.31c-.2.09-.44.13-.73.13Zm.11-.68c.3,0,.55-.06.76-.18s.36-.27.47-.46c.11-.19.16-.38.16-.58v-.69s-.1.07-.21.1c-.11.03-.23.06-.37.08-.14.02-.27.04-.41.06s-.24.03-.32.04c-.2.03-.38.07-.55.12-.17.06-.31.14-.41.25-.1.11-.16.26-.16.46,0,.26.1.46.29.59.2.13.44.2.75.2Z"/>
    <path class="cls-24" d="m91.47,70.28v6.55h-.75v-6.55h.75Z"/>
    <path class="cls-24" d="m98.56,71.92l-1.81,4.91h-.77l-1.81-4.91h.82l1.35,3.92h.05l1.35-3.92h.82Z"/>
    <path class="cls-24" d="m99.51,71.1c-.15,0-.27-.05-.38-.15s-.16-.22-.16-.36.05-.26.16-.36.23-.15.38-.15.27.05.38.15.16.22.16.36-.05.26-.16.36-.23.15-.38.15Zm-.38,5.73v-4.91h.75v4.91h-.75Z"/>
    <path class="cls-24" d="m102.29,76.95c-.31,0-.59-.06-.85-.18-.25-.12-.46-.29-.61-.52-.15-.23-.22-.5-.22-.82,0-.28.06-.51.17-.68.11-.17.26-.31.45-.41.19-.1.39-.18.62-.23.22-.05.45-.09.68-.12.3-.04.54-.07.73-.09.19-.02.32-.06.41-.11.09-.05.13-.13.13-.25v-.03c0-.31-.09-.56-.26-.73-.17-.17-.43-.26-.78-.26s-.64.08-.84.24-.35.32-.43.5l-.72-.25c.13-.3.3-.53.52-.7.21-.17.45-.28.7-.35.25-.07.5-.1.75-.1.16,0,.34.02.54.05.21.04.41.11.6.23.2.12.36.29.48.52.13.23.19.54.19.93v3.23h-.76v-.67h-.04c-.05.11-.13.22-.25.34s-.28.23-.48.31c-.2.09-.44.13-.73.13Zm.11-.68c.3,0,.55-.06.76-.18s.36-.27.47-.46c.11-.19.16-.38.16-.58v-.69s-.1.07-.21.1c-.11.03-.23.06-.37.08-.14.02-.27.04-.41.06s-.24.03-.32.04c-.2.03-.38.07-.55.12-.17.06-.31.14-.41.25-.1.11-.16.26-.16.46,0,.26.1.46.29.59.2.13.44.2.75.2Z"/>
    <path class="cls-24" d="m107.75,76.94c-.31,0-.57-.05-.76-.16-.19-.11-.34-.23-.44-.37-.1-.14-.18-.25-.24-.34h-.09v.76h-.72v-6.55h.75v2.42h.06c.06-.08.13-.19.23-.33.1-.13.24-.25.43-.36s.44-.16.76-.16c.41,0,.78.1,1.09.31.31.21.56.5.74.88.18.38.27.83.27,1.34s-.09.97-.26,1.35c-.18.38-.42.68-.73.89-.31.21-.68.31-1.09.31Zm-.1-.68c.31,0,.58-.08.79-.25.21-.17.37-.39.48-.68.11-.28.16-.6.16-.95s-.05-.66-.16-.94-.26-.5-.47-.66c-.21-.16-.47-.25-.79-.25s-.57.08-.77.23c-.21.15-.37.37-.47.65-.11.28-.16.6-.16.97s.05.7.16.98c.11.28.27.5.48.66.21.16.46.24.77.24Z"/>
    <path class="cls-24" d="m110.94,71.1c-.15,0-.27-.05-.38-.15s-.16-.22-.16-.36.05-.26.16-.36.23-.15.38-.15.27.05.38.15.16.22.16.36-.05.26-.16.36-.23.15-.38.15Zm-.38,5.73v-4.91h.75v4.91h-.75Z"/>
    <path class="cls-24" d="m113.02,70.28v6.55h-.75v-6.55h.75Z"/>
    <path class="cls-24" d="m114.37,71.1c-.15,0-.27-.05-.38-.15s-.16-.22-.16-.36.05-.26.16-.36.23-.15.38-.15.27.05.38.15.16.22.16.36-.05.26-.16.36-.23.15-.38.15Zm-.38,5.73v-4.91h.75v4.91h-.75Z"/>
    <path class="cls-24" d="m117.83,71.92v.64h-2.54v-.64h2.54Zm-1.8-1.17h.75v4.68c0,.25.05.44.16.56.11.12.27.18.5.18.05,0,.1,0,.16,0,.05,0,.11-.01.18-.03l.16.68c-.07.03-.16.05-.26.06-.1.02-.2.02-.31.02-.4,0-.72-.12-.96-.35-.25-.23-.37-.54-.37-.91v-4.88Z"/>
    <path class="cls-24" d="m119.03,78.67c-.13,0-.24,0-.34-.03s-.17-.04-.21-.06l.19-.66.08.02c.25.06.46.05.63-.04.17-.08.32-.3.45-.66l.14-.39-1.81-4.94h.82l1.35,3.92h.05l1.35-3.92h.82l-2.08,5.62c-.09.25-.21.47-.35.63s-.3.29-.48.37-.39.12-.62.12Z"/>
    <path class="cls-24" d="m127.3,76.94c-.47,0-.88-.11-1.22-.32-.34-.21-.61-.51-.79-.89-.19-.38-.28-.82-.28-1.32s.09-.95.27-1.33.44-.68.77-.9c.33-.22.72-.33,1.16-.33.25,0,.51.04.76.13s.48.22.69.41c.21.19.37.44.49.76s.18.7.18,1.16v.33h-3.79v-.65h3.38l-.35.25c0-.33-.05-.62-.15-.87s-.25-.46-.46-.6c-.2-.15-.46-.22-.76-.22s-.56.07-.78.22c-.22.15-.38.34-.49.58-.12.24-.17.49-.17.76v.43c0,.37.06.69.19.94s.31.45.54.59c.23.13.5.2.8.2.2,0,.38-.03.54-.09.16-.06.3-.14.42-.26.12-.12.21-.26.27-.43l.73.21c-.08.25-.2.46-.38.65-.18.19-.4.33-.67.43-.27.1-.57.16-.9.16Z"/>
    <path class="cls-24" d="m132.23,71.92v.64h-2.65v-.64h2.65Zm-1.85,4.91v-5.59c0-.28.07-.52.2-.7.13-.19.31-.33.52-.42s.43-.14.66-.14c.19,0,.34.02.46.05.12.03.21.06.26.09l-.22.65s-.09-.03-.16-.05c-.07-.02-.15-.03-.27-.03-.25,0-.43.06-.54.19-.11.13-.17.31-.17.56v5.41h-.75Z"/>
    <path class="cls-24" d="m135.05,71.92v.64h-2.65v-.64h2.65Zm-1.85,4.91v-5.59c0-.28.07-.52.2-.7.13-.19.31-.33.52-.42s.43-.14.66-.14c.19,0,.34.02.46.05.12.03.21.06.26.09l-.22.65s-.09-.03-.16-.05c-.07-.02-.15-.03-.27-.03-.25,0-.43.06-.54.19-.11.13-.17.31-.17.56v5.41h-.75Z"/>
    <path class="cls-24" d="m137.54,76.94c-.47,0-.88-.11-1.22-.32-.34-.21-.61-.51-.79-.89-.19-.38-.28-.82-.28-1.32s.09-.95.27-1.33.44-.68.77-.9c.33-.22.72-.33,1.16-.33.25,0,.51.04.76.13s.48.22.69.41c.21.19.37.44.49.76s.18.7.18,1.16v.33h-3.79v-.65h3.38l-.35.25c0-.33-.05-.62-.15-.87s-.25-.46-.46-.6c-.2-.15-.46-.22-.76-.22s-.56.07-.78.22c-.22.15-.38.34-.49.58-.12.24-.17.49-.17.76v.43c0,.37.06.69.19.94s.31.45.54.59c.23.13.5.2.8.2.2,0,.38-.03.54-.09.16-.06.3-.14.42-.26.12-.12.21-.26.27-.43l.73.21c-.08.25-.2.46-.38.65-.18.19-.4.33-.67.43-.27.1-.57.16-.9.16Z"/>
    <path class="cls-24" d="m142.27,76.94c-.46,0-.85-.11-1.18-.33-.33-.22-.59-.52-.77-.9-.18-.38-.27-.82-.27-1.31s.09-.94.28-1.33c.18-.38.44-.68.78-.9.33-.22.72-.33,1.16-.33.35,0,.66.06.93.19.28.13.5.31.68.54.18.23.29.5.33.81h-.76c-.04-.15-.11-.29-.21-.42-.1-.13-.23-.24-.39-.32-.16-.08-.36-.12-.58-.12-.29,0-.55.08-.77.23-.22.15-.39.37-.51.64-.12.28-.18.6-.18.97s.06.71.18.99.29.5.51.66c.22.16.48.23.78.23s.55-.08.76-.23c.21-.15.35-.36.42-.63h.76c-.04.29-.15.55-.31.78-.17.23-.39.42-.66.55-.27.14-.59.2-.96.2Z"/>
    <path class="cls-24" d="m147.04,71.92v.64h-2.54v-.64h2.54Zm-1.8-1.17h.75v4.68c0,.25.05.44.16.56.11.12.27.18.5.18.05,0,.1,0,.16,0,.05,0,.11-.01.18-.03l.16.68c-.07.03-.16.05-.26.06-.1.02-.2.02-.31.02-.4,0-.72-.12-.96-.35-.25-.23-.37-.54-.37-.91v-4.88Z"/>
    <path class="cls-24" d="m151.15,73.03l-.68.18c-.06-.17-.17-.33-.33-.48-.16-.15-.4-.23-.73-.23-.3,0-.55.07-.75.21s-.3.31-.3.52c0,.19.07.34.2.45.14.11.35.2.64.27l.73.18c.44.11.76.27.98.49.22.22.32.5.32.84,0,.28-.08.53-.24.76s-.38.4-.67.53-.62.19-1,.19c-.5,0-.92-.11-1.24-.33-.33-.22-.53-.54-.62-.95l.71-.18c.07.26.2.46.39.59.19.13.44.2.75.2.35,0,.63-.08.84-.23.21-.15.31-.33.31-.54,0-.35-.24-.58-.73-.69l-.82-.19c-.45-.11-.78-.27-.99-.5s-.32-.5-.32-.84c0-.28.08-.52.24-.74.16-.21.37-.38.64-.5s.58-.18.92-.18c.49,0,.87.11,1.15.32.28.21.47.5.59.85Z"/>
  </g>
  <g>
    <path class="cls-24" d="m75.33,15.43c-.57,0-1.06-.08-1.49-.25-.42-.17-.75-.43-.99-.78-.24-.35-.35-.8-.36-1.35h1.69c.01.2.06.37.15.51.09.14.22.24.38.31.16.07.36.11.59.11.19,0,.35-.02.48-.07s.23-.11.29-.2c.07-.08.1-.18.1-.29,0-.1-.03-.19-.09-.26-.06-.07-.17-.14-.31-.2s-.34-.12-.58-.17l-.66-.14c-.58-.12-1.03-.33-1.36-.63-.33-.3-.5-.7-.5-1.21,0-.42.11-.78.34-1.09.23-.31.54-.56.93-.73.4-.17.85-.26,1.37-.26s.99.09,1.37.27c.39.18.68.43.89.75.21.32.32.7.32,1.12h-1.71c-.01-.21-.09-.38-.24-.5-.14-.12-.36-.18-.64-.18-.18,0-.33.02-.45.06-.12.04-.2.1-.26.18s-.08.16-.08.26c0,.1.03.19.09.27.06.08.16.14.29.2.13.06.3.11.5.15l.54.11c.36.08.67.18.93.3.26.13.47.27.64.44.17.17.29.36.37.57.08.21.12.44.12.69,0,.43-.11.8-.32,1.1-.21.3-.52.53-.91.68s-.87.23-1.42.23Z"/>
    <path class="cls-24" d="m78.48,15.35v-4.91h1.77v4.91h-1.77Zm.88-5.41c-.24,0-.45-.08-.62-.24s-.25-.35-.25-.57.08-.42.25-.57.38-.24.62-.24.45.08.62.24.25.35.25.57-.08.42-.25.58-.38.24-.62.24Z"/>
    <path class="cls-24" d="m82.7,12.59v2.76h-1.77v-4.91h1.75v.94h.04c.11-.31.29-.56.53-.74.25-.18.55-.27.92-.27s.65.08.91.24c.26.16.46.38.6.65s.21.6.21.95v3.13h-1.77v-2.76c0-.24-.06-.43-.18-.57s-.3-.21-.52-.21c-.14,0-.27.03-.38.09-.11.06-.19.15-.25.27-.06.12-.09.26-.09.42Z"/>
    <path class="cls-24" d="m88.91,17.29c-.74,0-1.31-.15-1.73-.46-.41-.3-.64-.69-.67-1.17h1.7c.02.11.06.19.13.25s.16.11.26.14.23.04.37.04c.23,0,.42-.06.57-.17.15-.11.22-.31.22-.6v-.83h-.05c-.06.16-.16.3-.29.42-.13.12-.29.21-.48.27-.18.06-.39.09-.61.09-.35,0-.67-.08-.96-.24-.29-.16-.53-.42-.71-.77-.18-.35-.27-.81-.27-1.38,0-.59.09-1.08.28-1.45.19-.37.42-.64.72-.81s.6-.26.93-.26c.24,0,.46.04.64.12.18.08.34.2.47.34.13.14.22.29.29.46h.04v-.86h1.75v4.9c0,.41-.11.77-.32,1.06-.21.29-.52.51-.9.67s-.84.23-1.36.23Zm.06-3.26c.24,0,.43-.1.57-.3.14-.2.21-.48.21-.83,0-.24-.03-.45-.09-.63-.06-.17-.15-.31-.27-.4-.12-.09-.26-.14-.42-.14s-.3.05-.41.14-.2.23-.26.4c-.06.17-.09.38-.09.63s.03.45.09.62c.06.17.15.3.26.39s.25.13.41.13Z"/>
    <path class="cls-24" d="m93.95,8.8v6.55h-1.77v-6.55h1.77Z"/>
    <path class="cls-24" d="m96.99,15.44c-.52,0-.98-.1-1.36-.3-.38-.2-.67-.49-.87-.87-.2-.38-.3-.83-.3-1.36s.1-.95.31-1.33c.2-.38.49-.67.86-.89s.81-.32,1.32-.32c.37,0,.71.06,1.01.17.3.12.56.28.77.5s.38.48.49.79c.12.31.17.66.17,1.05v.4h-4.39v-.97h3.56l-.83.2c0-.2-.03-.37-.09-.5-.06-.14-.14-.24-.26-.31-.11-.07-.26-.11-.43-.11s-.31.04-.43.11c-.12.07-.2.18-.26.31-.06.14-.09.3-.09.5v.7c0,.19.03.36.1.51.07.14.17.25.29.33s.27.12.44.12c.12,0,.23-.02.33-.05.1-.03.18-.08.25-.15s.12-.14.16-.23h1.61c-.06.34-.19.63-.39.89-.2.25-.47.44-.81.58-.34.14-.73.2-1.18.2Z"/>
    <path class="cls-24" d="m103.13,15.35h-1.92l2.16-6.55h2.43l2.16,6.55h-1.92l-1.43-4.75h-.05l-1.43,4.75Zm-.35-2.58h3.6v1.33h-3.6v-1.33Z"/>
    <path class="cls-24" d="m110.37,17.29c-.74,0-1.31-.15-1.73-.46-.41-.3-.64-.69-.67-1.17h1.7c.02.11.06.19.13.25s.16.11.26.14.23.04.37.04c.23,0,.42-.06.57-.17.15-.11.22-.31.22-.6v-.83h-.05c-.06.16-.16.3-.29.42-.13.12-.29.21-.48.27-.18.06-.39.09-.61.09-.35,0-.67-.08-.96-.24-.29-.16-.53-.42-.71-.77-.18-.35-.27-.81-.27-1.38,0-.59.09-1.08.28-1.45.19-.37.42-.64.72-.81s.6-.26.93-.26c.24,0,.46.04.64.12.18.08.34.2.47.34.13.14.22.29.29.46h.04v-.86h1.75v4.9c0,.41-.11.77-.32,1.06-.21.29-.52.51-.9.67s-.84.23-1.36.23Zm.06-3.26c.24,0,.43-.1.57-.3.14-.2.21-.48.21-.83,0-.24-.03-.45-.09-.63-.06-.17-.15-.31-.27-.4-.12-.09-.26-.14-.42-.14s-.3.05-.41.14-.2.23-.26.4c-.06.17-.09.38-.09.63s.03.45.09.62c.06.17.15.3.26.39s.25.13.41.13Z"/>
    <path class="cls-24" d="m115.99,15.44c-.52,0-.98-.1-1.36-.3-.38-.2-.67-.49-.87-.87-.2-.38-.3-.83-.3-1.36s.1-.95.31-1.33c.2-.38.49-.67.86-.89s.81-.32,1.32-.32c.37,0,.71.06,1.01.17.3.12.56.28.77.5s.38.48.49.79c.12.31.17.66.17,1.05v.4h-4.39v-.97h3.56l-.83.2c0-.2-.03-.37-.09-.5-.06-.14-.14-.24-.26-.31-.11-.07-.26-.11-.43-.11s-.31.04-.43.11c-.12.07-.2.18-.26.31-.06.14-.09.3-.09.5v.7c0,.19.03.36.1.51.07.14.17.25.29.33s.27.12.44.12c.12,0,.23-.02.33-.05.1-.03.18-.08.25-.15s.12-.14.16-.23h1.61c-.06.34-.19.63-.39.89-.2.25-.47.44-.81.58-.34.14-.73.2-1.18.2Z"/>
    <path class="cls-24" d="m120.65,12.59v2.76h-1.77v-4.91h1.75v.94h.04c.11-.31.29-.56.53-.74.25-.18.55-.27.92-.27s.65.08.91.24c.26.16.46.38.6.65s.21.6.21.95v3.13h-1.77v-2.76c0-.24-.06-.43-.18-.57s-.3-.21-.52-.21c-.14,0-.27.03-.38.09-.11.06-.19.15-.25.27-.06.12-.09.26-.09.42Z"/>
    <path class="cls-24" d="m127.44,10.44v1.28h-3.23v-1.28h3.23Zm-2.61-1.17h1.77v4.5c0,.1.03.18.08.23.05.05.14.08.25.08.05,0,.12,0,.19-.02.07-.01.12-.02.16-.04l.25,1.25c-.2.06-.39.1-.55.12-.17.02-.33.04-.48.04-.55,0-.97-.13-1.25-.38-.28-.25-.42-.62-.42-1.11v-4.67Z"/>
    <path class="cls-24" d="m131.29,8.8v6.55h-1.78v-6.55h1.78Zm.75,6.55h-1.79v-1.51h1.72c.33,0,.6-.05.83-.15.23-.1.4-.28.53-.54.12-.26.18-.61.18-1.07s-.06-.81-.18-1.07c-.12-.26-.3-.44-.54-.54s-.53-.16-.87-.16h-1.7v-1.51h1.79c.67,0,1.25.13,1.74.39s.87.64,1.13,1.13c.27.49.4,1.08.4,1.76s-.13,1.26-.4,1.75c-.27.49-.64.86-1.13,1.12-.49.26-1.06.39-1.73.39Z"/>
    <path class="cls-24" d="m138.28,15.44c-.53,0-.99-.11-1.37-.32-.38-.21-.67-.51-.87-.89-.2-.38-.3-.82-.3-1.33s.1-.95.3-1.33c.2-.38.49-.67.87-.89.38-.21.84-.32,1.37-.32s.99.11,1.37.32c.38.21.67.51.87.89.2.38.3.82.3,1.33s-.1.95-.3,1.33c-.2.38-.49.68-.87.89-.38.21-.84.32-1.37.32Zm0-1.32c.15,0,.28-.05.39-.15.11-.1.19-.24.25-.42s.09-.4.09-.66-.03-.48-.09-.65-.14-.31-.25-.41c-.11-.09-.24-.14-.39-.14s-.29.05-.4.14c-.11.09-.2.23-.26.41s-.09.4-.09.65.03.47.09.66.14.32.26.42c.11.1.25.15.4.15Z"/>
    <path class="cls-24" d="m145.81,12.04h-1.62c-.01-.15-.08-.27-.21-.35-.13-.09-.28-.13-.46-.13-.15,0-.28.03-.39.08-.11.05-.16.13-.16.24,0,.07.03.14.09.21.06.06.19.11.37.15l1,.18c.5.09.88.24,1.12.46.25.22.37.51.37.87s-.1.66-.31.91-.49.45-.84.59c-.36.14-.76.21-1.21.21-.75,0-1.34-.15-1.76-.46-.42-.31-.66-.71-.71-1.21h1.75c.03.16.11.27.24.36.13.08.3.12.49.12.16,0,.3-.03.4-.08s.16-.13.16-.23c0-.17-.19-.29-.56-.36l-.87-.16c-.5-.09-.87-.26-1.12-.5-.25-.24-.37-.56-.37-.94,0-.34.09-.63.27-.87.18-.24.44-.42.78-.54.34-.12.74-.19,1.21-.19.71,0,1.27.15,1.68.44.41.29.62.7.64,1.22Z"/>
    <path class="cls-24" d="m148.77,15.44c-.52,0-.98-.1-1.36-.3-.38-.2-.67-.49-.87-.87-.2-.38-.3-.83-.3-1.36s.1-.95.31-1.33c.2-.38.49-.67.86-.89s.81-.32,1.32-.32c.37,0,.71.06,1.01.17.3.12.56.28.77.5s.38.48.49.79c.12.31.17.66.17,1.05v.4h-4.39v-.97h3.56l-.83.2c0-.2-.03-.37-.09-.5-.06-.14-.14-.24-.26-.31-.11-.07-.26-.11-.43-.11s-.31.04-.43.11c-.12.07-.2.18-.26.31-.06.14-.09.3-.09.5v.7c0,.19.03.36.1.51.07.14.17.25.29.33s.27.12.44.12c.12,0,.23-.02.33-.05.1-.03.18-.08.25-.15s.12-.14.16-.23h1.61c-.06.34-.19.63-.39.89-.2.25-.47.44-.81.58-.34.14-.73.2-1.18.2Z"/>
    <path class="cls-24" d="m156.14,12.04h-1.62c-.01-.15-.08-.27-.21-.35-.13-.09-.28-.13-.46-.13-.15,0-.28.03-.39.08-.11.05-.16.13-.16.24,0,.07.03.14.09.21.06.06.19.11.37.15l1,.18c.5.09.88.24,1.12.46.25.22.37.51.37.87s-.1.66-.31.91-.49.45-.84.59c-.36.14-.76.21-1.21.21-.75,0-1.34-.15-1.76-.46-.42-.31-.66-.71-.71-1.21h1.75c.03.16.11.27.24.36.13.08.3.12.49.12.16,0,.3-.03.4-.08s.16-.13.16-.23c0-.17-.19-.29-.56-.36l-.87-.16c-.5-.09-.87-.26-1.12-.5-.25-.24-.37-.56-.37-.94,0-.34.09-.63.27-.87.18-.24.44-.42.78-.54.34-.12.74-.19,1.21-.19.71,0,1.27.15,1.68.44.41.29.62.7.64,1.22Z"/>
  </g>
  <polygon class="cls-2" points="164.43 21.77 164.43 34.79 64.31 34.79 164.43 21.77"/>
  <g>
    <g>
      <path class="cls-2" d="m140.41,240.9c-.6,0-1.13-.13-1.61-.39-.48-.26-.85-.64-1.13-1.14-.28-.5-.42-1.11-.42-1.83s.14-1.34.42-1.85.66-.88,1.14-1.14,1.01-.38,1.6-.38c.41,0,.79.06,1.14.17.35.11.65.28.92.5.26.22.47.48.63.8s.25.68.29,1.08h-1.8c-.01-.15-.04-.29-.1-.41-.05-.12-.13-.23-.22-.32-.09-.09-.21-.16-.34-.2-.13-.05-.29-.07-.46-.07-.3,0-.55.07-.75.22-.21.14-.36.35-.47.62s-.16.6-.16.98.05.73.16,1c.11.27.26.47.47.61.2.13.45.2.74.2.16,0,.31-.02.44-.06s.24-.1.34-.18c.1-.08.17-.17.23-.29.06-.11.1-.24.12-.38h1.8c-.02.28-.1.56-.23.85-.13.29-.32.55-.57.79-.25.24-.55.44-.91.58-.36.15-.78.22-1.26.22Z"/>
      <path class="cls-2" d="m146.38,240.9c-.53,0-.99-.11-1.37-.32-.38-.21-.67-.51-.87-.89-.2-.38-.3-.82-.3-1.33s.1-.95.3-1.33c.2-.38.49-.67.87-.89.38-.21.84-.32,1.37-.32s.99.11,1.37.32c.38.21.67.51.87.89.2.38.3.82.3,1.33s-.1.95-.3,1.33c-.2.38-.49.68-.87.89-.38.21-.84.32-1.37.32Zm0-1.32c.15,0,.28-.05.39-.15.11-.1.19-.24.25-.42s.09-.4.09-.66-.03-.48-.09-.65-.14-.31-.25-.41c-.11-.09-.24-.14-.39-.14s-.29.05-.4.14c-.11.09-.2.23-.26.41s-.09.4-.09.65.03.47.09.66.14.32.26.42c.11.1.25.15.4.15Z"/>
      <path class="cls-2" d="m149.43,240.81v-4.91h1.67v.94h.05c.1-.31.28-.55.53-.73.25-.18.54-.27.88-.27s.65.09.9.27c.25.18.4.43.45.73h.05c.08-.3.26-.54.53-.73.27-.18.59-.27.96-.27.47,0,.85.15,1.14.45s.44.7.44,1.21v3.31h-1.77v-2.87c0-.21-.05-.38-.16-.5-.11-.12-.25-.18-.44-.18s-.33.06-.43.18-.16.29-.16.5v2.87h-1.69v-2.87c0-.21-.05-.38-.16-.5s-.25-.18-.43-.18c-.12,0-.23.03-.32.08s-.16.13-.2.23c-.05.1-.07.22-.07.37v2.87h-1.77Z"/>
      <path class="cls-2" d="m160.86,240.87c-.23,0-.43-.04-.61-.11-.18-.08-.33-.18-.46-.31s-.22-.28-.29-.45h-.04v.81h-1.75v-6.55h1.77v2.5h.03c.06-.17.16-.32.28-.46s.28-.25.46-.34c.18-.08.4-.12.64-.12.33,0,.63.09.92.26.29.17.53.44.71.81.19.37.28.85.28,1.45s-.09,1.03-.26,1.41-.41.65-.7.83-.62.27-.97.27Zm-.65-1.35c.16,0,.3-.05.42-.14.11-.09.2-.23.26-.4.06-.17.09-.38.09-.62s-.03-.45-.09-.63c-.06-.17-.15-.31-.26-.4-.11-.09-.25-.14-.42-.14s-.3.05-.42.14-.21.23-.27.4c-.06.17-.09.38-.09.63s.03.44.09.62c.06.17.15.31.27.4s.26.14.42.14Z"/>
      <path class="cls-2" d="m163.3,240.81v-4.91h1.77v4.91h-1.77Zm.88-5.41c-.24,0-.45-.08-.62-.24s-.25-.35-.25-.57.08-.42.25-.57.38-.24.62-.24.45.08.62.24.25.35.25.57-.08.42-.25.58-.38.24-.62.24Z"/>
      <path class="cls-2" d="m167.52,238.05v2.76h-1.77v-4.91h1.75v.94h.04c.11-.31.29-.56.53-.74.25-.18.55-.27.92-.27s.65.08.91.24c.26.16.46.38.6.65s.21.6.21.95v3.13h-1.77v-2.76c0-.24-.06-.43-.18-.57s-.3-.21-.52-.21c-.14,0-.27.03-.38.09-.11.06-.19.15-.25.27-.06.12-.09.26-.09.42Z"/>
      <path class="cls-2" d="m172.76,240.89c-.31,0-.59-.05-.83-.16-.24-.1-.43-.26-.56-.47s-.2-.48-.2-.8c0-.27.04-.5.14-.69s.22-.35.38-.47c.16-.12.36-.21.57-.28.22-.07.46-.11.71-.12.28-.02.5-.05.66-.07.17-.03.29-.07.36-.13.08-.06.11-.13.11-.23v-.02c0-.13-.05-.22-.15-.29-.1-.07-.22-.1-.37-.1-.17,0-.31.04-.41.11s-.17.19-.19.34h-1.62c.02-.3.12-.57.28-.83.17-.25.42-.45.74-.61.33-.15.73-.23,1.22-.23.35,0,.66.04.94.12s.52.2.71.34.35.32.45.51c.1.2.16.41.16.63v3.37h-1.65v-.69h-.04c-.1.18-.22.33-.36.45-.14.11-.3.2-.47.25s-.37.08-.58.08Zm.57-1.12c.13,0,.26-.03.38-.08.12-.06.22-.14.29-.24.08-.1.11-.23.11-.38v-.4s-.1.04-.15.05-.11.03-.17.05c-.06.01-.12.03-.18.04-.06.01-.13.02-.2.04-.14.02-.25.05-.34.1-.09.05-.15.11-.19.18s-.06.15-.06.23c0,.14.05.24.14.31.1.07.22.11.37.11Z"/>
      <path class="cls-2" d="m179.48,235.9v1.28h-3.23v-1.28h3.23Zm-2.61-1.17h1.77v4.5c0,.1.03.18.08.23.05.05.14.08.25.08.05,0,.12,0,.19-.02.07-.01.12-.02.16-.04l.25,1.25c-.2.06-.39.1-.55.12-.17.02-.33.04-.48.04-.55,0-.97-.13-1.25-.38-.28-.25-.42-.62-.42-1.11v-4.67Z"/>
      <path class="cls-2" d="m179.99,240.81v-4.91h1.77v4.91h-1.77Zm.88-5.41c-.24,0-.45-.08-.62-.24s-.25-.35-.25-.57.08-.42.25-.57.38-.24.62-.24.45.08.62.24.25.35.25.57-.08.42-.25.58-.38.24-.62.24Z"/>
      <path class="cls-2" d="m184.8,240.9c-.53,0-.99-.11-1.37-.32-.38-.21-.67-.51-.87-.89-.2-.38-.3-.82-.3-1.33s.1-.95.3-1.33c.2-.38.49-.67.87-.89.38-.21.84-.32,1.37-.32s.99.11,1.37.32c.38.21.67.51.87.89.2.38.3.82.3,1.33s-.1.95-.3,1.33c-.2.38-.49.68-.87.89-.38.21-.84.32-1.37.32Zm0-1.32c.15,0,.28-.05.39-.15.11-.1.19-.24.25-.42s.09-.4.09-.66-.03-.48-.09-.65-.14-.31-.25-.41c-.11-.09-.24-.14-.39-.14s-.29.05-.4.14c-.11.09-.2.23-.26.41s-.09.4-.09.65.03.47.09.66.14.32.26.42c.11.1.25.15.4.15Z"/>
      <path class="cls-2" d="m189.62,238.05v2.76h-1.77v-4.91h1.75v.94h.04c.11-.31.29-.56.53-.74.25-.18.55-.27.92-.27s.65.08.91.24c.26.16.46.38.6.65s.21.6.21.95v3.13h-1.77v-2.76c0-.24-.06-.43-.18-.57s-.3-.21-.52-.21c-.14,0-.27.03-.38.09-.11.06-.19.15-.25.27-.06.12-.09.26-.09.42Z"/>
      <path class="cls-2" d="m196.82,234.26v6.55h-1.78v-6.55h1.78Zm.75,6.55h-1.79v-1.51h1.72c.33,0,.6-.05.83-.15.23-.1.4-.28.53-.54.12-.26.18-.61.18-1.07s-.06-.81-.18-1.07c-.12-.26-.3-.44-.54-.54s-.53-.16-.87-.16h-1.7v-1.51h1.79c.67,0,1.25.13,1.74.39s.87.64,1.13,1.13c.27.49.4,1.08.4,1.76s-.13,1.26-.4,1.75c-.27.49-.64.86-1.13,1.12-.49.26-1.06.39-1.73.39Z"/>
      <path class="cls-2" d="m203.81,240.9c-.53,0-.99-.11-1.37-.32-.38-.21-.67-.51-.87-.89-.2-.38-.3-.82-.3-1.33s.1-.95.3-1.33c.2-.38.49-.67.87-.89.38-.21.84-.32,1.37-.32s.99.11,1.37.32c.38.21.67.51.87.89.2.38.3.82.3,1.33s-.1.95-.3,1.33c-.2.38-.49.68-.87.89-.38.21-.84.32-1.37.32Zm0-1.32c.15,0,.28-.05.39-.15.11-.1.19-.24.25-.42s.09-.4.09-.66-.03-.48-.09-.65-.14-.31-.25-.41c-.11-.09-.24-.14-.39-.14s-.29.05-.4.14c-.11.09-.2.23-.26.41s-.09.4-.09.65.03.47.09.66.14.32.26.42c.11.1.25.15.4.15Z"/>
      <path class="cls-2" d="m211.34,237.5h-1.62c-.01-.15-.08-.27-.21-.35-.13-.09-.28-.13-.46-.13-.15,0-.28.03-.39.08-.11.05-.16.13-.16.24,0,.07.03.14.09.21.06.06.19.11.37.15l1,.18c.5.09.88.24,1.12.46.25.22.37.51.37.87s-.1.66-.31.91-.49.45-.84.59c-.36.14-.76.21-1.21.21-.75,0-1.34-.15-1.76-.46-.42-.31-.66-.71-.71-1.21h1.75c.03.16.11.27.24.36.13.08.3.12.49.12.16,0,.3-.03.4-.08s.16-.13.16-.23c0-.17-.19-.29-.56-.36l-.87-.16c-.5-.09-.87-.26-1.12-.5-.25-.24-.37-.56-.37-.94,0-.34.09-.63.27-.87.18-.24.44-.42.78-.54.34-.12.74-.19,1.21-.19.71,0,1.27.15,1.68.44.41.29.62.7.64,1.22Z"/>
      <path class="cls-2" d="m214.3,240.9c-.52,0-.98-.1-1.36-.3-.38-.2-.67-.49-.87-.87-.2-.38-.3-.83-.3-1.36s.1-.95.31-1.33c.2-.38.49-.67.86-.89s.81-.32,1.32-.32c.37,0,.71.06,1.01.17.3.12.56.28.77.5s.38.48.49.79c.12.31.17.66.17,1.05v.4h-4.39v-.97h3.56l-.83.2c0-.2-.03-.37-.09-.5-.06-.14-.14-.24-.26-.31-.11-.07-.26-.11-.43-.11s-.31.04-.43.11c-.12.07-.2.18-.26.31-.06.14-.09.3-.09.5v.7c0,.19.03.36.1.51.07.14.17.25.29.33s.27.12.44.12c.12,0,.23-.02.33-.05.1-.03.18-.08.25-.15s.12-.14.16-.23h1.61c-.06.34-.19.63-.39.89-.2.25-.47.44-.81.58-.34.14-.73.2-1.18.2Z"/>
      <path class="cls-2" d="m221.67,237.5h-1.62c-.01-.15-.08-.27-.21-.35-.13-.09-.28-.13-.46-.13-.15,0-.28.03-.39.08-.11.05-.16.13-.16.24,0,.07.03.14.09.21.06.06.19.11.37.15l1,.18c.5.09.88.24,1.12.46.25.22.37.51.37.87s-.1.66-.31.91-.49.45-.84.59c-.36.14-.76.21-1.21.21-.75,0-1.34-.15-1.76-.46-.42-.31-.66-.71-.71-1.21h1.75c.03.16.11.27.24.36.13.08.3.12.49.12.16,0,.3-.03.4-.08s.16-.13.16-.23c0-.17-.19-.29-.56-.36l-.87-.16c-.5-.09-.87-.26-1.12-.5-.25-.24-.37-.56-.37-.94,0-.34.09-.63.27-.87.18-.24.44-.42.78-.54.34-.12.74-.19,1.21-.19.71,0,1.27.15,1.68.44.41.29.62.7.64,1.22Z"/>
    </g>
    <g>
      <path class="cls-9" d="m140.76,240.99c-.6,0-1.13-.13-1.61-.39-.48-.26-.85-.64-1.13-1.14-.28-.5-.42-1.11-.42-1.83s.14-1.34.42-1.85.66-.88,1.14-1.14,1.01-.38,1.6-.38c.41,0,.79.06,1.14.17.35.11.65.28.92.5.26.22.47.48.63.8s.25.68.29,1.08h-1.8c-.01-.15-.04-.29-.1-.41-.05-.12-.13-.23-.22-.32-.09-.09-.21-.16-.34-.2-.13-.05-.29-.07-.46-.07-.3,0-.55.07-.75.22-.21.14-.36.35-.47.62s-.16.6-.16.98.05.73.16,1c.11.27.26.47.47.61.2.13.45.2.74.2.16,0,.31-.02.44-.06s.24-.1.34-.18c.1-.08.17-.17.23-.29.06-.11.1-.24.12-.38h1.8c-.02.28-.1.56-.23.85-.13.29-.32.55-.57.79-.25.24-.55.44-.91.58-.36.15-.78.22-1.26.22Z"/>
      <path class="cls-9" d="m146.73,240.99c-.53,0-.99-.11-1.37-.32-.38-.21-.67-.51-.87-.89-.2-.38-.3-.82-.3-1.33s.1-.95.3-1.33c.2-.38.49-.67.87-.89.38-.21.84-.32,1.37-.32s.99.11,1.37.32c.38.21.67.51.87.89.2.38.3.82.3,1.33s-.1.95-.3,1.33c-.2.38-.49.68-.87.89-.38.21-.84.32-1.37.32Zm0-1.32c.15,0,.28-.05.39-.15.11-.1.19-.24.25-.42s.09-.4.09-.66-.03-.48-.09-.65-.14-.31-.25-.41c-.11-.09-.24-.14-.39-.14s-.29.05-.4.14c-.11.09-.2.23-.26.41s-.09.4-.09.65.03.47.09.66.14.32.26.42c.11.1.25.15.4.15Z"/>
      <path class="cls-9" d="m149.78,240.9v-4.91h1.67v.94h.05c.1-.31.28-.55.53-.73.25-.18.54-.27.88-.27s.65.09.9.27c.25.18.4.43.45.73h.05c.08-.3.26-.54.53-.73.27-.18.59-.27.96-.27.47,0,.85.15,1.14.45s.44.7.44,1.21v3.31h-1.77v-2.87c0-.21-.05-.38-.16-.5-.11-.12-.25-.18-.44-.18s-.33.06-.43.18-.16.29-.16.5v2.87h-1.69v-2.87c0-.21-.05-.38-.16-.5s-.25-.18-.43-.18c-.12,0-.23.03-.32.08s-.16.13-.2.23c-.05.1-.07.22-.07.37v2.87h-1.77Z"/>
      <path class="cls-9" d="m161.22,240.96c-.23,0-.43-.04-.61-.11-.18-.08-.33-.18-.46-.31s-.22-.28-.29-.45h-.04v.81h-1.75v-6.55h1.77v2.5h.03c.06-.17.16-.32.28-.46s.28-.25.46-.34c.18-.08.4-.12.64-.12.33,0,.63.09.92.26.29.17.53.44.71.81.19.37.28.85.28,1.45s-.09,1.03-.26,1.41-.41.65-.7.83-.62.27-.97.27Zm-.65-1.35c.16,0,.3-.05.42-.14.11-.09.2-.23.26-.4.06-.17.09-.38.09-.62s-.03-.45-.09-.63c-.06-.17-.15-.31-.26-.4-.11-.09-.25-.14-.42-.14s-.3.05-.42.14-.21.23-.27.4c-.06.17-.09.38-.09.63s.03.44.09.62c.06.17.15.31.27.4s.26.14.42.14Z"/>
      <path class="cls-9" d="m163.66,240.9v-4.91h1.77v4.91h-1.77Zm.88-5.41c-.24,0-.45-.08-.62-.24s-.25-.35-.25-.57.08-.42.25-.57.38-.24.62-.24.45.08.62.24.25.35.25.57-.08.42-.25.58-.38.24-.62.24Z"/>
      <path class="cls-9" d="m167.88,238.14v2.76h-1.77v-4.91h1.75v.94h.04c.11-.31.29-.56.53-.74.25-.18.55-.27.92-.27s.65.08.91.24c.26.16.46.38.6.65s.21.6.21.95v3.13h-1.77v-2.76c0-.24-.06-.43-.18-.57s-.3-.21-.52-.21c-.14,0-.27.03-.38.09-.11.06-.19.15-.25.27-.06.12-.09.26-.09.42Z"/>
      <path class="cls-9" d="m173.12,240.98c-.31,0-.59-.05-.83-.16-.24-.1-.43-.26-.56-.47s-.2-.48-.2-.8c0-.27.04-.5.14-.69s.22-.35.38-.47c.16-.12.36-.21.57-.28.22-.07.46-.11.71-.12.28-.02.5-.05.66-.07.17-.03.29-.07.36-.13.08-.06.11-.13.11-.23v-.02c0-.13-.05-.22-.15-.29-.1-.07-.22-.1-.37-.1-.17,0-.31.04-.41.11s-.17.19-.19.34h-1.62c.02-.3.12-.57.28-.83.17-.25.42-.45.74-.61.33-.15.73-.23,1.22-.23.35,0,.66.04.94.12s.52.2.71.34.35.32.45.51c.1.2.16.41.16.63v3.37h-1.65v-.69h-.04c-.1.18-.22.33-.36.45-.14.11-.3.2-.47.25s-.37.08-.58.08Zm.57-1.12c.13,0,.26-.03.38-.08.12-.06.22-.14.29-.24.08-.1.11-.23.11-.38v-.4s-.1.04-.15.05-.11.03-.17.05c-.06.01-.12.03-.18.04-.06.01-.13.02-.2.04-.14.02-.25.05-.34.1-.09.05-.15.11-.19.18s-.06.15-.06.23c0,.14.05.24.14.31.1.07.22.11.37.11Z"/>
      <path class="cls-9" d="m179.83,235.99v1.28h-3.23v-1.28h3.23Zm-2.61-1.17h1.77v4.5c0,.1.03.18.08.23.05.05.14.08.25.08.05,0,.12,0,.19-.02.07-.01.12-.02.16-.04l.25,1.25c-.2.06-.39.1-.55.12-.17.02-.33.04-.48.04-.55,0-.97-.13-1.25-.38-.28-.25-.42-.62-.42-1.11v-4.67Z"/>
      <path class="cls-9" d="m180.34,240.9v-4.91h1.77v4.91h-1.77Zm.88-5.41c-.24,0-.45-.08-.62-.24s-.25-.35-.25-.57.08-.42.25-.57.38-.24.62-.24.45.08.62.24.25.35.25.57-.08.42-.25.58-.38.24-.62.24Z"/>
      <path class="cls-9" d="m185.16,240.99c-.53,0-.99-.11-1.37-.32-.38-.21-.67-.51-.87-.89-.2-.38-.3-.82-.3-1.33s.1-.95.3-1.33c.2-.38.49-.67.87-.89.38-.21.84-.32,1.37-.32s.99.11,1.37.32c.38.21.67.51.87.89.2.38.3.82.3,1.33s-.1.95-.3,1.33c-.2.38-.49.68-.87.89-.38.21-.84.32-1.37.32Zm0-1.32c.15,0,.28-.05.39-.15.11-.1.19-.24.25-.42s.09-.4.09-.66-.03-.48-.09-.65-.14-.31-.25-.41c-.11-.09-.24-.14-.39-.14s-.29.05-.4.14c-.11.09-.2.23-.26.41s-.09.4-.09.65.03.47.09.66.14.32.26.42c.11.1.25.15.4.15Z"/>
      <path class="cls-9" d="m189.97,238.14v2.76h-1.77v-4.91h1.75v.94h.04c.11-.31.29-.56.53-.74.25-.18.55-.27.92-.27s.65.08.91.24c.26.16.46.38.6.65s.21.6.21.95v3.13h-1.77v-2.76c0-.24-.06-.43-.18-.57s-.3-.21-.52-.21c-.14,0-.27.03-.38.09-.11.06-.19.15-.25.27-.06.12-.09.26-.09.42Z"/>
      <path class="cls-9" d="m197.17,234.35v6.55h-1.78v-6.55h1.78Zm.75,6.55h-1.79v-1.51h1.72c.33,0,.6-.05.83-.15.23-.1.4-.28.53-.54.12-.26.18-.61.18-1.07s-.06-.81-.18-1.07c-.12-.26-.3-.44-.54-.54s-.53-.16-.87-.16h-1.7v-1.51h1.79c.67,0,1.25.13,1.74.39s.87.64,1.13,1.13c.27.49.4,1.08.4,1.76s-.13,1.26-.4,1.75c-.27.49-.64.86-1.13,1.12-.49.26-1.06.39-1.73.39Z"/>
      <path class="cls-9" d="m204.17,240.99c-.53,0-.99-.11-1.37-.32-.38-.21-.67-.51-.87-.89-.2-.38-.3-.82-.3-1.33s.1-.95.3-1.33c.2-.38.49-.67.87-.89.38-.21.84-.32,1.37-.32s.99.11,1.37.32c.38.21.67.51.87.89.2.38.3.82.3,1.33s-.1.95-.3,1.33c-.2.38-.49.68-.87.89-.38.21-.84.32-1.37.32Zm0-1.32c.15,0,.28-.05.39-.15.11-.1.19-.24.25-.42s.09-.4.09-.66-.03-.48-.09-.65-.14-.31-.25-.41c-.11-.09-.24-.14-.39-.14s-.29.05-.4.14c-.11.09-.2.23-.26.41s-.09.4-.09.65.03.47.09.66.14.32.26.42c.11.1.25.15.4.15Z"/>
      <path class="cls-9" d="m211.7,237.58h-1.62c-.01-.15-.08-.27-.21-.35-.13-.09-.28-.13-.46-.13-.15,0-.28.03-.39.08-.11.05-.16.13-.16.24,0,.07.03.14.09.21.06.06.19.11.37.15l1,.18c.5.09.88.24,1.12.46.25.22.37.51.37.87s-.1.66-.31.91-.49.45-.84.59c-.36.14-.76.21-1.21.21-.75,0-1.34-.15-1.76-.46-.42-.31-.66-.71-.71-1.21h1.75c.03.16.11.27.24.36.13.08.3.12.49.12.16,0,.3-.03.4-.08s.16-.13.16-.23c0-.17-.19-.29-.56-.36l-.87-.16c-.5-.09-.87-.26-1.12-.5-.25-.24-.37-.56-.37-.94,0-.34.09-.63.27-.87.18-.24.44-.42.78-.54.34-.12.74-.19,1.21-.19.71,0,1.27.15,1.68.44.41.29.62.7.64,1.22Z"/>
      <path class="cls-9" d="m214.65,240.99c-.52,0-.98-.1-1.36-.3-.38-.2-.67-.49-.87-.87-.2-.38-.3-.83-.3-1.36s.1-.95.31-1.33c.2-.38.49-.67.86-.89s.81-.32,1.32-.32c.37,0,.71.06,1.01.17.3.12.56.28.77.5s.38.48.49.79c.12.31.17.66.17,1.05v.4h-4.39v-.97h3.56l-.83.2c0-.2-.03-.37-.09-.5-.06-.14-.14-.24-.26-.31-.11-.07-.26-.11-.43-.11s-.31.04-.43.11c-.12.07-.2.18-.26.31-.06.14-.09.3-.09.5v.7c0,.19.03.36.1.51.07.14.17.25.29.33s.27.12.44.12c.12,0,.23-.02.33-.05.1-.03.18-.08.25-.15s.12-.14.16-.23h1.61c-.06.34-.19.63-.39.89-.2.25-.47.44-.81.58-.34.14-.73.2-1.18.2Z"/>
      <path class="cls-9" d="m222.03,237.58h-1.62c-.01-.15-.08-.27-.21-.35-.13-.09-.28-.13-.46-.13-.15,0-.28.03-.39.08-.11.05-.16.13-.16.24,0,.07.03.14.09.21.06.06.19.11.37.15l1,.18c.5.09.88.24,1.12.46.25.22.37.51.37.87s-.1.66-.31.91-.49.45-.84.59c-.36.14-.76.21-1.21.21-.75,0-1.34-.15-1.76-.46-.42-.31-.66-.71-.71-1.21h1.75c.03.16.11.27.24.36.13.08.3.12.49.12.16,0,.3-.03.4-.08s.16-.13.16-.23c0-.17-.19-.29-.56-.36l-.87-.16c-.5-.09-.87-.26-1.12-.5-.25-.24-.37-.56-.37-.94,0-.34.09-.63.27-.87.18-.24.44-.42.78-.54.34-.12.74-.19,1.21-.19.71,0,1.27.15,1.68.44.41.29.62.7.64,1.22Z"/>
    </g>
  </g>
</svg>