<?xml version="1.0" encoding="UTF-8"?>
<svg id="Layer_1" data-name="Layer 1" xmlns="http://www.w3.org/2000/svg" viewBox="0 0 1623.3 1623.3">
  <defs>
    <style>
      .cls-1 {
        fill: #ecaa2e;
      }

      .cls-2 {
        fill: #fff;
      }

      .cls-3 {
        fill: #dee0df;
      }

      .cls-4 {
        fill: #0d86b4;
      }
    </style>
  </defs>
  <g>
    <path class="cls-4" d="m542.23,465.17l-47.15,23.5-45.96-30.56v-103.96l-102.29-59.01-102.25,59.01v104.26l-90.24,52.02v118.09l102.25,59.12,102.29-59.12v-104.15l78.31-45.18,47.44,31.46-1.6,50.08h24.28l1.6-51.98,45.44-22.57-12.12-21.01Zm-117.39-6.88l-.11.11-12.23,7.06-65.66,37.89-78.01-45.07v-90.13l78.01-45.07,78.01,45.07v90.13Z"/>
    <path class="cls-2" d="m346.84,323.1l-78.01,45.07v90.13l78.01,45.07,65.66-37.89,12.23-7.06.11-.11v-90.13l-78.01-45.07Zm-48.82,119.84h-16.17v-51.16h16.17v51.16Zm56.67,42.05l-8.11-14.02,44.32-25.58,8.07,14.02-44.28,25.58Z"/>
    <polygon class="cls-2" points="334.71 524.44 334.71 614.61 256.59 659.67 178.62 614.61 178.62 524.44 256.59 479.37 334.71 524.44"/>
    <g>
      <rect class="cls-4" x="274.86" y="496.08" width="16.17" height="51.16" transform="translate(-310.3 505.86) rotate(-60)"/>
      <rect class="cls-4" x="192" y="543.92" width="16.17" height="51.16"/>
      <rect class="cls-4" x="257.37" y="609.26" width="51.15" height="16.17" transform="translate(-270.73 224.13) rotate(-29.99)"/>
    </g>
    <g>
      <rect class="cls-4" x="281.84" y="391.77" width="16.17" height="51.16"/>
      <polygon class="cls-4" points="398.97 459.41 354.68 484.99 346.58 470.97 390.9 445.39 398.97 459.41"/>
    </g>
  </g>
  <g>
    <g>
      <path class="cls-4" d="m1409.06,444.91l-47.11,23.46-45.99-30.56v-103.96l-102.29-59.01-102.25,59.01v104.26l-90.24,52.02v118.09l90.73,52.46,11.53,6.65,12.64-7.32,11.01-6.36,16.17-9.33,58.75-33.95,3.72-2.16v-104.15l.56-.33,77.75-44.84,47.48,31.46-1.64,50.08h24.28l1.6-51.98,45.44-22.57-12.12-20.97Zm-207.52,149.4l-65.48,37.78-12.64,7.29-11.53-6.65-66.45-38.41v-90.17l77.97-45.06,78.12,45.06v90.17Zm90.13-156.32l-.11.11-12.23,7.06-65.66,37.89-78.01-45.07v-90.13l78.01-45.06,78.01,45.06v90.13Z"/>
      <path class="cls-2" d="m1123.43,459.07l-77.97,45.06v90.17l66.45,38.41v-32.13l89.65-51.72v-44.73l-78.12-45.06Zm-48.41,115.71h-16.17v-51.16h16.17v51.16Zm92.88-53.62l-44.32-25.58,8.11-14.02,44.28,25.58-8.07,14.02Z"/>
      <path class="cls-2" d="m1213.67,302.8l-78.01,45.06v90.13l78.01,45.07,65.66-37.89,12.23-7.06.11-.11v-90.13l-78.01-45.06Zm-48.82,119.84h-16.17v-51.16h16.17v51.16Zm56.67,42.05l-8.11-14.02,44.32-25.58,8.07,14.02-44.28,25.58Z"/>
      <g>
        <polygon class="cls-4" points="1175.97 507.15 1167.9 521.17 1123.58 495.59 1131.68 481.57 1175.97 507.15"/>
        <rect class="cls-4" x="1058.84" y="523.62" width="16.17" height="51.16"/>
        <rect class="cls-4" x="1124.21" y="588.96" width="51.15" height="16.17" transform="translate(-144.49 654.76) rotate(-29.99)"/>
      </g>
      <g>
        <rect class="cls-4" x="1148.68" y="371.47" width="16.17" height="51.16"/>
        <polygon class="cls-4" points="1265.8 439.11 1221.52 464.69 1213.41 450.67 1257.73 425.09 1265.8 439.11"/>
      </g>
    </g>
    <g>
      <polygon class="cls-2" points="1292.17 704.76 1292.07 704.85 1279.84 711.92 1226.31 742.86 1214.17 749.82 1202.04 742.86 1136.07 704.76 1136.07 614.62 1202.04 576.52 1214.17 569.55 1226.31 576.52 1279.64 607.45 1279.74 607.45 1291.97 614.52 1292.17 614.62 1292.17 704.76"/>
      <g>
        <path class="cls-1" d="m1316.44,614.72l46.78-23.98-5.8-10.52-5.84-10.67-47.07,24.17-78.19-45.14-.04-44.84v-.07h-24.28l.04,44.92-.48.3-89.65,51.72v118.2l102.29,58.97,90.32-52.13,36.18,19.74,11.86-21.19-36.1-19.63v-89.83Zm-24.28,90.02l-.07.11-12.27,7.07-53.51,30.94-12.12,6.99-12.16-6.99-65.96-38.11v-90.13l65.48-37.78.48-.3,12.16-6.99,11.53,6.66.59.33,53.32,30.94h.11l12.23,7.06.19.07v90.13Z"/>
        <g>
          <rect class="cls-1" x="1229.96" y="584.69" width="16.17" height="51.16" transform="translate(90.53 1377.34) rotate(-60)"/>
          <rect class="cls-1" x="1147.1" y="632.53" width="16.17" height="51.16"/>
          <rect class="cls-1" x="1212.47" y="697.87" width="51.16" height="16.17" transform="translate(-187.11 713.47) rotate(-29.99)"/>
        </g>
      </g>
    </g>
  </g>
  <g>
    <polygon class="cls-2" points="836.91 535.12 836.81 535.22 824.58 542.28 771.05 573.22 758.91 580.19 746.78 573.22 680.81 535.12 680.81 444.98 746.78 406.88 758.91 399.91 771.05 406.88 824.38 437.82 824.48 437.82 836.71 444.88 836.91 444.98 836.91 535.12"/>
    <g>
      <path class="cls-1" d="m861.19,445.08l46.76-23.98-5.77-10.55-5.87-10.65-47.05,24.18-78.2-45.17-.05-44.9h-24.28l.05,44.9-90.14,52.03v118.19l102.27,59,90.34-52.13,36.18,19.75,11.84-21.19-36.08-19.65v-89.84Zm-24.28,90.04l-.1.1-12.24,7.06-53.52,30.94-12.14,6.96-12.14-6.96-65.96-38.1v-90.14l65.96-38.1,12.14-6.97,12.14,6.97,53.33,30.94h.1l12.24,7.06.2.1v90.14Z"/>
      <g>
        <rect class="cls-1" x="774.7" y="415.05" width="16.17" height="51.16" transform="translate(9.8 898.24) rotate(-60)"/>
        <rect class="cls-1" x="691.84" y="462.89" width="16.17" height="51.16"/>
        <rect class="cls-1" x="757.21" y="528.23" width="51.16" height="16.17" transform="translate(-163.28 463.16) rotate(-29.99)"/>
      </g>
    </g>
  </g>
  <path class="cls-3" d="m945.39,1075.23c-205.3,0-372.32-135.13-372.32-301.23h43.18c0,142.29,147.65,258.05,329.14,258.05v43.18Z"/>
  <g>
    <rect class="cls-3" x="121.25" y="1033.77" width="1153.23" height="152.11"/>
    <polygon class="cls-3" points="1155.14 1319.36 1244.16 1109.83 1155.14 900.29 1522.17 1109.83 1155.14 1319.36"/>
  </g>
  <g>
    <path d="m455.8,1142.94c-5.3,0-9.99-.93-14.09-2.79s-7.31-4.44-9.65-7.74c-2.34-3.29-3.54-7.08-3.6-11.36h18.2c0,2.37.9,4.26,2.7,5.66,1.8,1.4,3.95,2.1,6.44,2.1,1.91,0,3.58-.41,5.01-1.22,1.43-.82,2.56-1.96,3.37-3.44.82-1.48,1.22-3.22,1.22-5.22s-.41-3.8-1.22-5.29c-.82-1.49-1.94-2.65-3.37-3.46-1.43-.82-3.1-1.22-5.01-1.22s-3.83.48-5.47,1.43c-1.65.95-2.87,2.26-3.67,3.93l-16.44-3.23,2.68-37.88h46.29v14.97h-30.95l-1.29,15.15h.37c1.08-2.09,2.94-3.82,5.59-5.17,2.65-1.35,5.71-2.03,9.19-2.03,4.1,0,7.75.95,10.95,2.84,3.2,1.89,5.74,4.51,7.6,7.85,1.86,3.34,2.79,7.2,2.79,11.57,0,4.8-1.14,9.05-3.42,12.75-2.28,3.7-5.49,6.59-9.63,8.68-4.14,2.09-9,3.14-14.57,3.14Z"/>
    <path d="m523.93,1107.65v13.95h-32.24v-13.95h32.24Z"/>
    <path d="m551.24,1142.66c-3.67,0-7.04-.96-10.14-2.89-3.1-1.92-5.57-4.84-7.41-8.75-1.85-3.91-2.77-8.84-2.77-14.78,0-6.25.97-11.32,2.91-15.22,1.94-3.9,4.45-6.75,7.53-8.57,3.08-1.82,6.31-2.73,9.7-2.73,2.56,0,4.8.44,6.72,1.32,1.92.88,3.54,2.06,4.85,3.53,1.31,1.48,2.29,3.09,2.93,4.85h.28v-26.24h18.57v68.83h-18.39v-8.5h-.46c-.71,1.76-1.72,3.32-3.05,4.69-1.32,1.37-2.93,2.46-4.8,3.26-1.88.8-4.04,1.2-6.47,1.2Zm6.84-14.23c1.69,0,3.16-.5,4.39-1.5,1.23-1,2.18-2.41,2.84-4.23.66-1.82.99-3.97.99-6.47s-.33-4.75-.99-6.58c-.66-1.83-1.61-3.24-2.84-4.23-1.23-.99-2.7-1.48-4.39-1.48s-3.14.49-4.34,1.48c-1.2.99-2.12,2.4-2.75,4.23-.63,1.83-.95,4.03-.95,6.58s.32,4.7.95,6.54c.63,1.83,1.55,3.23,2.75,4.2s2.65,1.46,4.34,1.46Z"/>
    <path d="m606.02,1142.85c-3.3,0-6.21-.55-8.75-1.64s-4.52-2.75-5.94-4.97c-1.42-2.22-2.12-5.04-2.12-8.45,0-2.83.48-5.25,1.43-7.25.95-2,2.29-3.64,4.02-4.92,1.72-1.28,3.73-2.26,6.03-2.96s4.78-1.13,7.46-1.32c2.89-.21,5.21-.48,6.95-.79,1.74-.31,3-.76,3.79-1.36.79-.6,1.18-1.39,1.18-2.38v-.18c0-1.32-.51-2.35-1.52-3.07s-2.33-1.09-3.93-1.09c-1.79,0-3.23.39-4.34,1.15-1.11.77-1.79,1.96-2.03,3.56h-17c.21-3.14,1.21-6.04,2.98-8.68,1.77-2.65,4.37-4.77,7.81-6.37,3.43-1.6,7.72-2.4,12.87-2.4,3.66,0,6.96.43,9.89,1.29,2.92.86,5.42,2.06,7.48,3.6,2.06,1.54,3.64,3.33,4.73,5.38,1.09,2.05,1.64,4.26,1.64,6.63v35.38h-17.37v-7.3h-.37c-1.05,1.94-2.3,3.5-3.76,4.69-1.46,1.19-3.12,2.06-4.97,2.61s-3.9.83-6.14.83Zm6-11.73c1.42,0,2.75-.29,4-.88,1.25-.58,2.26-1.42,3.05-2.52.79-1.09,1.18-2.43,1.18-4v-4.25c-.49.18-1.02.37-1.57.55-.55.19-1.15.35-1.78.51-.63.15-1.28.29-1.94.42-.66.12-1.36.25-2.1.37-1.45.22-2.63.58-3.53,1.09-.91.51-1.58,1.12-2.01,1.85-.43.72-.65,1.53-.65,2.43,0,1.45.5,2.55,1.5,3.3,1,.76,2.29,1.13,3.86,1.13Z"/>
    <path d="m655.26,1161.32c-2.12.03-4.16-.12-6.1-.44-1.94-.32-3.63-.76-5.08-1.32l4.07-13.21.28.09c2.22.74,4.15,1.08,5.8,1.02,1.65-.06,2.76-.8,3.35-2.22l.37-.92-18.11-53.95h19.31l8.31,35.75h.55l8.5-35.75h19.49l-18.85,55.99c-.92,2.83-2.27,5.38-4.04,7.65-1.77,2.26-4.1,4.05-7,5.36-2.89,1.31-6.51,1.96-10.86,1.96Z"/>
    <path d="m767.7,1090.37l-17.37,51.64h-21.53l-17.28-51.64h19.49l8.59,34.18h.55l8.31-34.18h19.22Z"/>
    <path d="m770.75,1142.02v-51.64h18.57v51.64h-18.57Zm9.24-56.91c-2.53,0-4.68-.83-6.47-2.49-1.79-1.66-2.68-3.66-2.68-6s.89-4.38,2.68-6.03c1.79-1.65,3.94-2.47,6.47-2.47s4.68.82,6.47,2.47c1.79,1.65,2.68,3.64,2.68,5.98s-.89,4.39-2.68,6.05c-1.79,1.66-3.94,2.49-6.47,2.49Z"/>
    <path d="m810.94,1142.85c-3.3,0-6.21-.55-8.75-1.64s-4.52-2.75-5.94-4.97c-1.42-2.22-2.12-5.04-2.12-8.45,0-2.83.48-5.25,1.43-7.25.95-2,2.29-3.64,4.02-4.92,1.72-1.28,3.73-2.26,6.03-2.96s4.78-1.13,7.46-1.32c2.89-.21,5.21-.48,6.95-.79,1.74-.31,3-.76,3.79-1.36.79-.6,1.18-1.39,1.18-2.38v-.18c0-1.32-.51-2.35-1.52-3.07s-2.33-1.09-3.93-1.09c-1.79,0-3.23.39-4.34,1.15-1.11.77-1.79,1.96-2.03,3.56h-17c.21-3.14,1.21-6.04,2.98-8.68,1.77-2.65,4.37-4.77,7.81-6.37,3.43-1.6,7.72-2.4,12.87-2.4,3.66,0,6.96.43,9.89,1.29,2.92.86,5.42,2.06,7.48,3.6,2.06,1.54,3.64,3.33,4.73,5.38,1.09,2.05,1.64,4.26,1.64,6.63v35.38h-17.37v-7.3h-.37c-1.05,1.94-2.3,3.5-3.76,4.69-1.46,1.19-3.12,2.06-4.97,2.61s-3.9.83-6.14.83Zm6-11.73c1.42,0,2.75-.29,4-.88,1.25-.58,2.26-1.42,3.05-2.52.79-1.09,1.18-2.43,1.18-4v-4.25c-.49.18-1.02.37-1.57.55-.55.19-1.15.35-1.78.51-.63.15-1.28.29-1.94.42-.66.12-1.36.25-2.1.37-1.45.22-2.63.58-3.53,1.09-.91.51-1.58,1.12-2.01,1.85-.43.72-.65,1.53-.65,2.43,0,1.45.5,2.55,1.5,3.3,1,.76,2.29,1.13,3.86,1.13Z"/>
    <path d="m883.92,1142.66c-2.4,0-4.55-.4-6.44-1.2-1.89-.8-3.5-1.89-4.83-3.26-1.32-1.37-2.34-2.93-3.05-4.69h-.46v8.5h-18.38v-68.83h18.57v26.24h.28c.68-1.76,1.66-3.37,2.96-4.85,1.29-1.48,2.9-2.66,4.83-3.53,1.92-.88,4.17-1.32,6.72-1.32,3.42,0,6.66.91,9.72,2.73,3.06,1.82,5.57,4.67,7.51,8.57,1.94,3.9,2.91,8.97,2.91,15.22s-.92,10.87-2.77,14.78c-1.85,3.91-4.31,6.83-7.39,8.75-3.08,1.92-6.47,2.89-10.16,2.89Zm-6.84-14.23c1.72,0,3.18-.48,4.37-1.46s2.09-2.37,2.73-4.2c.63-1.83.95-4.01.95-6.54s-.32-4.75-.95-6.58c-.63-1.83-1.54-3.24-2.73-4.23-1.19-.99-2.64-1.48-4.37-1.48s-3.16.49-4.39,1.48c-1.23.99-2.18,2.4-2.84,4.23-.66,1.83-.99,4.03-.99,6.58s.33,4.65.99,6.47c.66,1.82,1.61,3.23,2.84,4.23,1.23,1,2.69,1.5,4.39,1.5Z"/>
    <path d="m909.61,1142.02v-51.64h18.57v51.64h-18.57Zm9.24-56.91c-2.53,0-4.68-.83-6.47-2.49-1.79-1.66-2.68-3.66-2.68-6s.89-4.38,2.68-6.03c1.79-1.65,3.94-2.47,6.47-2.47s4.68.82,6.47,2.47c1.79,1.65,2.68,3.64,2.68,5.98s-.89,4.39-2.68,6.05c-1.79,1.66-3.94,2.49-6.47,2.49Z"/>
    <path d="m953.95,1073.19v68.83h-18.57v-68.83h18.57Z"/>
    <path d="m961.16,1142.02v-51.64h18.57v51.64h-18.57Zm9.24-56.91c-2.53,0-4.68-.83-6.47-2.49-1.79-1.66-2.68-3.66-2.68-6s.89-4.38,2.68-6.03c1.79-1.65,3.94-2.47,6.47-2.47s4.68.82,6.47,2.47c1.79,1.65,2.68,3.64,2.68,5.98s-.89,4.39-2.68,6.05c-1.79,1.66-3.94,2.49-6.47,2.49Z"/>
    <path d="m1017.7,1090.37v13.49h-34v-13.49h34Zm-27.44-12.29h18.57v47.3c0,1.08.28,1.89.83,2.43.55.54,1.45.81,2.68.81.55,0,1.21-.06,1.96-.19.75-.12,1.3-.25,1.64-.37l2.68,13.12c-2.12.59-4.05,1-5.77,1.25s-3.42.37-5.08.37c-5.79,0-10.16-1.32-13.1-3.97-2.94-2.65-4.41-6.54-4.41-11.69v-49.06Z"/>
    <path d="m1034.33,1161.32c-2.12.03-4.16-.12-6.1-.44-1.94-.32-3.63-.76-5.08-1.32l4.07-13.21.28.09c2.22.74,4.15,1.08,5.8,1.02,1.65-.06,2.76-.8,3.35-2.22l.37-.92-18.11-53.95h19.31l8.31,35.75h.55l8.5-35.75h19.49l-18.85,55.99c-.92,2.83-2.27,5.38-4.04,7.65-1.77,2.26-4.1,4.05-7,5.36-2.89,1.31-6.51,1.96-10.86,1.96Z"/>
    <path d="m1109.16,1142.85c-3.3,0-6.21-.55-8.75-1.64s-4.52-2.75-5.94-4.97c-1.42-2.22-2.12-5.04-2.12-8.45,0-2.83.48-5.25,1.43-7.25.95-2,2.29-3.64,4.02-4.92,1.72-1.28,3.73-2.26,6.03-2.96s4.78-1.13,7.46-1.32c2.89-.21,5.21-.48,6.95-.79,1.74-.31,3-.76,3.79-1.36.79-.6,1.18-1.39,1.18-2.38v-.18c0-1.32-.51-2.35-1.52-3.07s-2.33-1.09-3.93-1.09c-1.79,0-3.23.39-4.34,1.15-1.11.77-1.79,1.96-2.03,3.56h-17c.21-3.14,1.21-6.04,2.98-8.68,1.77-2.65,4.37-4.77,7.81-6.37,3.43-1.6,7.72-2.4,12.87-2.4,3.66,0,6.96.43,9.89,1.29,2.92.86,5.42,2.06,7.48,3.6,2.06,1.54,3.64,3.33,4.73,5.38,1.09,2.05,1.64,4.26,1.64,6.63v35.38h-17.37v-7.3h-.37c-1.05,1.94-2.3,3.5-3.76,4.69-1.46,1.19-3.12,2.06-4.97,2.61s-3.9.83-6.14.83Zm6-11.73c1.42,0,2.75-.29,4-.88,1.25-.58,2.26-1.42,3.05-2.52.79-1.09,1.18-2.43,1.18-4v-4.25c-.49.18-1.02.37-1.57.55-.55.19-1.15.35-1.78.51-.63.15-1.28.29-1.94.42-.66.12-1.36.25-2.1.37-1.45.22-2.63.58-3.53,1.09-.91.51-1.58,1.12-2.01,1.85-.43.72-.65,1.53-.65,2.43,0,1.45.5,2.55,1.5,3.3,1,.76,2.29,1.13,3.86,1.13Z"/>
    <path d="m1196.1,1107.19h-17c-.12-1.57-.87-2.81-2.24-3.72-1.37-.91-2.96-1.36-4.78-1.36-1.6,0-2.96.28-4.07.85s-1.66,1.39-1.66,2.47c0,.77.33,1.49.99,2.17.66.68,1.96,1.19,3.9,1.52l10.53,1.85c5.27.92,9.2,2.53,11.8,4.8,2.6,2.28,3.9,5.33,3.9,9.15s-1.08,6.89-3.23,9.59c-2.16,2.69-5.1,4.77-8.85,6.24-3.74,1.46-8,2.19-12.77,2.19-7.88,0-14.05-1.61-18.5-4.83-4.45-3.22-6.94-7.46-7.46-12.73h18.39c.28,1.63,1.11,2.89,2.49,3.77,1.39.88,3.11,1.32,5.17,1.32,1.72,0,3.14-.29,4.25-.88,1.11-.58,1.66-1.4,1.66-2.45,0-1.82-1.97-3.08-5.91-3.79l-9.15-1.66c-5.24-.95-9.16-2.7-11.78-5.24-2.62-2.54-3.93-5.84-3.93-9.91,0-3.6.96-6.65,2.89-9.15,1.92-2.49,4.67-4.4,8.22-5.71,3.56-1.31,7.8-1.96,12.73-1.96,7.45,0,13.33,1.55,17.62,4.64,4.3,3.1,6.55,7.37,6.77,12.82Z"/>
    <path d="m1249.5,1107.19h-17c-.12-1.57-.87-2.81-2.24-3.72-1.37-.91-2.96-1.36-4.78-1.36-1.6,0-2.96.28-4.07.85s-1.66,1.39-1.66,2.47c0,.77.33,1.49.99,2.17.66.68,1.96,1.19,3.9,1.52l10.53,1.85c5.27.92,9.2,2.53,11.8,4.8,2.6,2.28,3.9,5.33,3.9,9.15s-1.08,6.89-3.23,9.59c-2.16,2.69-5.1,4.77-8.85,6.24-3.74,1.46-8,2.19-12.77,2.19-7.88,0-14.05-1.61-18.5-4.83-4.45-3.22-6.94-7.46-7.46-12.73h18.39c.28,1.63,1.11,2.89,2.49,3.77,1.39.88,3.11,1.32,5.17,1.32,1.72,0,3.14-.29,4.25-.88,1.11-.58,1.66-1.4,1.66-2.45,0-1.82-1.97-3.08-5.91-3.79l-9.15-1.66c-5.24-.95-9.16-2.7-11.78-5.24-2.62-2.54-3.93-5.84-3.93-9.91,0-3.6.96-6.65,2.89-9.15,1.92-2.49,4.67-4.4,8.22-5.71,3.56-1.31,7.8-1.96,12.73-1.96,7.45,0,13.33,1.55,17.62,4.64,4.3,3.1,6.55,7.37,6.77,12.82Z"/>
    <path d="m1270.19,1142.85c-3.3,0-6.21-.55-8.75-1.64s-4.52-2.75-5.94-4.97c-1.42-2.22-2.12-5.04-2.12-8.45,0-2.83.48-5.25,1.43-7.25.95-2,2.29-3.64,4.02-4.92,1.72-1.28,3.73-2.26,6.03-2.96s4.78-1.13,7.46-1.32c2.89-.21,5.21-.48,6.95-.79,1.74-.31,3-.76,3.79-1.36.79-.6,1.18-1.39,1.18-2.38v-.18c0-1.32-.51-2.35-1.52-3.07s-2.33-1.09-3.93-1.09c-1.79,0-3.23.39-4.34,1.15-1.11.77-1.79,1.96-2.03,3.56h-17c.21-3.14,1.21-6.04,2.98-8.68,1.77-2.65,4.37-4.77,7.81-6.37,3.43-1.6,7.72-2.4,12.87-2.4,3.66,0,6.96.43,9.89,1.29,2.92.86,5.42,2.06,7.48,3.6,2.06,1.54,3.64,3.33,4.73,5.38,1.09,2.05,1.64,4.26,1.64,6.63v35.38h-17.37v-7.3h-.37c-1.05,1.94-2.3,3.5-3.76,4.69-1.46,1.19-3.12,2.06-4.97,2.61s-3.9.83-6.14.83Zm6-11.73c1.42,0,2.75-.29,4-.88,1.25-.58,2.26-1.42,3.05-2.52.79-1.09,1.18-2.43,1.18-4v-4.25c-.49.18-1.02.37-1.57.55-.55.19-1.15.35-1.78.51-.63.15-1.28.29-1.94.42-.66.12-1.36.25-2.1.37-1.45.22-2.63.58-3.53,1.09-.91.51-1.58,1.12-2.01,1.85-.43.72-.65,1.53-.65,2.43,0,1.45.5,2.55,1.5,3.3,1,.76,2.29,1.13,3.86,1.13Z"/>
    <path d="m1319.44,1161.32c-2.12.03-4.16-.12-6.1-.44-1.94-.32-3.63-.76-5.08-1.32l4.07-13.21.28.09c2.22.74,4.15,1.08,5.8,1.02,1.65-.06,2.76-.8,3.35-2.22l.37-.92-18.11-53.95h19.31l8.31,35.75h.55l8.5-35.75h19.49l-18.85,55.99c-.92,2.83-2.27,5.38-4.04,7.65-1.77,2.26-4.1,4.05-7,5.36-2.89,1.31-6.51,1.96-10.86,1.96Z"/>
  </g>
</svg>