<?xml version="1.0" encoding="UTF-8"?>
<svg id="Layer_1" data-name="Layer 1" xmlns="http://www.w3.org/2000/svg" viewBox="0 0 1623.3 1754.3">
  <defs>
    <style>
      .cls-1 {
        fill: #f5813c;
      }

      .cls-2 {
        fill: #f6be63;
      }

      .cls-3 {
        fill: #f6ac53;
      }

      .cls-4 {
        fill: #f6b156;
      }

      .cls-5 {
        fill: #f6cf77;
      }

      .cls-6 {
        fill: #fff;
      }

      .cls-7 {
        fill: #ffdc82;
      }

      .cls-8 {
        fill: #f4ffbe;
      }

      .cls-9 {
        fill: #ff9738;
      }

      .cls-10 {
        fill: #800026;
      }

      .cls-11 {
        fill: #990227;
      }

      .cls-12 {
        fill: #ba0722;
      }

      .cls-13 {
        fill: #a70524;
      }

      .cls-14 {
        fill: #e42e23;
      }

      .cls-15 {
        fill: #cb1321;
      }

      .cls-16, .cls-17 {
        fill: #231f20;
      }

      .cls-17 {
        stroke: #231f20;
        stroke-miterlimit: 10;
        stroke-width: .5px;
      }
    </style>
  </defs>
  <g>
    <g>
      <rect class="cls-6" x="472.09" y="248.45" width="1043.03" height="1043.03"/>
      <path class="cls-16" d="m1525.11,1301.48H462.09V238.45h1063.03v1063.03Zm-1043.03-20h1023.03V258.45H482.09v1023.03Z"/>
    </g>
    <rect class="cls-8" x="472.09" y="1082.85" width="208.63" height="208.63"/>
    <g>
      <rect class="cls-3" x="472.09" y="457.02" width="208.63" height="208.63"/>
      <rect class="cls-3" x="1097.92" y="1082.85" width="208.63" height="208.63"/>
      <rect class="cls-9" x="680.72" y="457.02" width="208.63" height="208.63"/>
      <rect class="cls-1" x="889.35" y="457.02" width="208.63" height="208.63"/>
      <rect class="cls-14" x="1097.92" y="457.02" width="208.63" height="208.63"/>
      <rect class="cls-1" x="1097.92" y="665.65" width="208.63" height="208.63"/>
      <rect class="cls-9" x="1097.92" y="874.28" width="208.63" height="208.63"/>
    </g>
    <rect class="cls-15" x="472.09" y="248.45" width="208.63" height="208.63"/>
    <rect class="cls-12" x="680.72" y="248.45" width="208.63" height="208.63"/>
    <rect class="cls-13" x="889.35" y="248.45" width="208.63" height="208.63"/>
    <rect class="cls-11" x="1097.92" y="248.45" width="208.63" height="208.63"/>
    <rect class="cls-10" x="1306.55" y="248.45" width="208.63" height="208.63"/>
    <rect class="cls-11" x="1306.55" y="457.02" width="208.63" height="208.63"/>
    <rect class="cls-13" x="1306.55" y="665.65" width="208.63" height="208.63"/>
    <rect class="cls-12" x="1306.55" y="874.28" width="208.63" height="208.63"/>
    <rect class="cls-15" x="1306.55" y="1082.85" width="208.63" height="208.63"/>
    <polygon class="cls-17" points="1463.13 1530.74 1463.13 1372.22 524.42 1372.22 1463.13 1530.74"/>
    <polygon class="cls-17" points="216.52 300.44 375.03 300.44 375.03 1239.15 216.52 300.44"/>
    <rect class="cls-7" x="472.09" y="874.28" width="208.63" height="208.63"/>
    <rect class="cls-7" x="680.72" y="1082.85" width="208.63" height="208.63"/>
    <rect class="cls-2" x="472.09" y="665.65" width="208.63" height="208.63"/>
    <rect class="cls-5" x="680.72" y="874.28" width="208.63" height="208.63"/>
    <rect class="cls-2" x="889.35" y="1082.85" width="208.63" height="208.63"/>
    <rect class="cls-4" x="680.72" y="665.65" width="208.63" height="208.63"/>
    <rect class="cls-4" x="889.35" y="874.28" width="208.63" height="208.63"/>
    <rect class="cls-3" x="889.35" y="665.65" width="208.63" height="208.63"/>
    <path class="cls-16" d="m1354.04,1268.04h-41.48c0-17.9-.55-36.02-1.73-53.92l41.41-2.7c1.24,18.73,1.87,37.81,1.87,56.62h-.07Zm-45.42-80.74c-1.73-17.84-4.15-35.88-7.05-53.44l40.92-6.77c3.04,18.46,5.53,37.4,7.4,56.13l-41.27,4.08Zm-11.89-79.98c-3.53-17.49-7.67-35.19-12.31-52.47l40.03-10.78c4.91,18.18,9.26,36.71,12.93,55.17l-40.65,8.16v-.07Zm-19.77-78.39c-5.25-17.14-11.13-34.29-17.56-51.09l38.78-14.79c6.71,17.63,12.93,35.67,18.46,53.71l-39.68,12.17Zm-27.58-76.11c-6.91-16.45-14.52-32.97-22.54-49.01l37.12-18.6c8.43,16.87,16.45,34.22,23.71,51.5l-38.23,16.04-.07.07Zm-35.05-72.93c-8.57-15.76-17.77-31.45-27.31-46.52l35.05-22.19c10.02,15.9,19.7,32.35,28.69,48.87l-36.43,19.84Zm-42.1-69.06c-10.02-14.79-20.74-29.45-31.8-43.55l32.7-25.51c11.61,14.86,22.81,30.28,33.39,45.76l-34.29,23.37v-.07Zm-48.74-64.57c-11.54-13.76-23.57-27.31-35.95-40.16l30-28.69c13,13.55,25.65,27.79,37.74,42.24l-31.8,26.61Zm-54.89-59.38c-12.79-12.51-26.2-24.82-39.75-36.43l27.03-31.45c14.24,12.24,28.27,25.09,41.75,38.3l-29.03,29.66v-.07Zm-60.49-53.64c-13.96-11.2-28.48-22.05-43.14-32.35l23.78-34.01c15.42,10.78,30.62,22.19,45.28,33.94l-25.99,32.35.07.07Zm-65.4-47.42c-15-9.82-30.56-19.15-46.11-27.86l20.25-36.15c16.31,9.13,32.63,19.01,48.46,29.31l-22.67,34.77.07-.07Zm-69.75-40.65c-15.9-8.23-32.21-16.04-48.6-23.16l16.59-38.02c17.21,7.47,34.36,15.69,51.09,24.33,0,0-19.08,36.85-19.08,36.85Zm-73.42-33.46c-16.59-6.57-33.67-12.72-50.74-18.25l12.72-39.47c17.9,5.81,35.88,12.24,53.3,19.15l-15.28,38.57Zm-76.53-26.06c-17.14-4.91-34.77-9.26-52.26-13.07l8.71-40.58c18.39,3.94,36.92,8.57,54.96,13.76,0,0-11.41,39.89-11.41,39.89Zm-78.74-18.25c-17.63-3.18-35.53-5.81-53.3-7.81l4.63-41.2c18.66,2.07,37.54,4.84,56.06,8.16l-7.33,40.86h-.07Zm-80.19-10.37c-17.84-1.38-35.95-2.28-53.85-2.49l.55-41.48c18.87.28,37.88,1.11,56.55,2.63l-3.25,41.34Z"/>
    <g>
      <g>
        <path class="cls-16" d="m584.91,1620.54c-5.18,0-9.82-1.24-13.96-3.73-4.15-2.49-7.33-6.01-9.68-10.65s-3.53-10.16-3.53-16.52,1.18-12.03,3.53-16.66c2.35-4.63,5.6-8.16,9.68-10.65s8.71-3.73,13.9-3.73c3.18,0,6.15.48,8.99,1.38,2.83.9,5.32,2.28,7.54,4.01,2.21,1.73,4.01,3.87,5.46,6.43s2.42,5.39,2.9,8.64h-9.13c-.35-2-1.04-3.73-1.94-5.18s-2.14-2.77-3.53-3.8-2.97-1.8-4.63-2.35-3.53-.76-5.46-.76c-3.46,0-6.57.9-9.33,2.63s-4.91,4.29-6.5,7.67-2.35,7.54-2.35,12.44.83,9.06,2.42,12.44c1.59,3.39,3.73,5.88,6.5,7.6,2.77,1.73,5.88,2.63,9.26,2.63,1.94,0,3.73-.28,5.46-.76s3.25-1.31,4.63-2.28,2.56-2.28,3.53-3.73,1.66-3.18,2-5.12h9.13c-.48,2.97-1.38,5.74-2.77,8.23s-3.18,4.63-5.39,6.43-4.7,3.18-7.47,4.15-5.88,1.45-9.19,1.45l-.07-.21Z"/>
        <path class="cls-16" d="m635.58,1620.67c-4.22,0-7.95-.97-11.13-2.9s-5.6-4.7-7.4-8.16-2.63-7.6-2.63-12.24.9-8.78,2.63-12.31,4.22-6.29,7.4-8.23,6.91-2.9,11.13-2.9,7.95.97,11.13,2.9,5.6,4.7,7.4,8.23,2.63,7.6,2.63,12.31-.9,8.71-2.63,12.24-4.22,6.22-7.4,8.16-6.84,2.9-11.13,2.9Zm0-7.4c2.77,0,5.05-.76,6.91-2.21s3.18-3.39,4.01-5.81,1.31-5.05,1.31-7.95-.41-5.6-1.31-8.02-2.21-4.36-4.01-5.81c-1.8-1.45-4.08-2.21-6.91-2.21s-5.05.76-6.84,2.21-3.11,3.39-4.01,5.81-1.31,5.12-1.31,8.02.41,5.53,1.31,7.95,2.21,4.36,4.01,5.81,4.08,2.21,6.84,2.21Z"/>
        <path class="cls-16" d="m663.02,1619.77v-45.28h8.36v7.47h.62c.97-2.49,2.49-4.49,4.63-5.88s4.7-2.14,7.67-2.14,5.53.69,7.6,2.14c2.07,1.45,3.53,3.39,4.56,5.88h.48c1.11-2.49,2.77-4.42,5.12-5.88s5.12-2.14,8.36-2.14c4.08,0,7.47,1.31,10.09,3.87s3.94,6.43,3.94,11.61v30.35h-8.85v-29.52c0-3.11-.83-5.32-2.49-6.64s-3.66-2.07-6.01-2.07c-2.83,0-5.12.9-6.64,2.63s-2.35,4.01-2.35,6.71v28.9h-8.85v-30.07c0-2.49-.76-4.42-2.28-5.95s-3.53-2.21-5.95-2.21c-1.66,0-3.25.41-4.63,1.31s-2.56,2.07-3.39,3.66-1.24,3.32-1.24,5.39v27.93h-8.78v-.07Z"/>
        <path class="cls-16" d="m732.98,1636.71v-62.22h8.5v7.4h.76c.55-.97,1.31-2,2.28-3.25s2.28-2.35,4.01-3.25,4.01-1.38,6.77-1.38c3.66,0,6.91.9,9.75,2.77s5.12,4.49,6.77,7.95,2.49,7.67,2.49,12.58-.83,9.06-2.42,12.51-3.87,6.15-6.71,8.09c-2.83,1.94-6.08,2.83-9.82,2.83-2.7,0-4.98-.48-6.71-1.38s-3.11-2-4.08-3.25-1.73-2.35-2.28-3.25h-.48v23.99h-8.78l-.07-.14Zm20.39-23.5c2.63,0,4.84-.69,6.57-2.07s3.11-3.32,4.01-5.74,1.38-5.12,1.38-8.16-.41-5.67-1.31-8.09-2.21-4.29-3.94-5.6-3.94-2.07-6.64-2.07-4.7.62-6.5,1.94-3.11,3.18-4.01,5.53-1.38,5.12-1.38,8.3.48,5.95,1.38,8.36,2.28,4.29,4.01,5.6c1.73,1.31,3.94,2,6.43,2Z"/>
        <path class="cls-16" d="m799.55,1620.67c-4.22,0-7.95-.97-11.13-2.9s-5.6-4.7-7.4-8.16-2.63-7.6-2.63-12.24.9-8.78,2.63-12.31,4.22-6.29,7.4-8.23,6.91-2.9,11.13-2.9,7.95.97,11.13,2.9,5.6,4.7,7.4,8.23,2.63,7.6,2.63,12.31-.9,8.71-2.63,12.24-4.22,6.22-7.4,8.16-6.84,2.9-11.13,2.9Zm0-7.4c2.77,0,5.05-.76,6.91-2.21s3.18-3.39,4.01-5.81,1.31-5.05,1.31-7.95-.41-5.6-1.31-8.02-2.21-4.36-4.01-5.81-4.08-2.21-6.91-2.21-5.05.76-6.84,2.21-3.11,3.39-4.01,5.81-1.31,5.12-1.31,8.02.41,5.53,1.31,7.95,2.21,4.36,4.01,5.81,4.08,2.21,6.84,2.21Z"/>
        <path class="cls-16" d="m855.69,1601.04v-26.55h8.78v45.28h-8.57v-7.88h-.48c-1.11,2.42-2.77,4.42-5.05,6.01s-5.12,2.42-8.5,2.42c-2.9,0-5.46-.62-7.74-1.94s-3.94-3.18-5.25-5.74-1.87-5.67-1.87-9.47v-28.83h8.78v27.79c0,3.04.83,5.46,2.63,7.33s3.94,2.77,6.71,2.7c1.66,0,3.32-.41,4.91-1.24s2.97-2.07,4.08-3.73,1.66-3.8,1.66-6.29l-.07.14Z"/>
        <path class="cls-16" d="m881.61,1592.88v26.82h-8.78v-45.28h8.5v7.47h.62c1.04-2.49,2.63-4.42,4.84-5.88,2.21-1.45,4.98-2.14,8.43-2.14,3.11,0,5.74.62,8.09,1.94s4.08,3.18,5.39,5.74,1.94,5.67,1.94,9.47v28.76h-8.78v-27.72c0-3.25-.83-5.81-2.63-7.74s-4.08-2.83-7.05-2.83c-2,0-3.87.48-5.46,1.38s-2.9,2.21-3.8,3.87-1.38,3.73-1.38,6.15h.07Z"/>
        <path class="cls-16" d="m935.88,1620.6c-3.66,0-6.91-.97-9.82-2.83s-5.12-4.56-6.71-8.09c-1.59-3.53-2.42-7.67-2.42-12.51s.83-9.13,2.49-12.58,3.87-6.15,6.77-7.95,6.08-2.77,9.75-2.77c2.83,0,5.12.48,6.84,1.38s3.04,2,4.01,3.25,1.73,2.35,2.21,3.25h.55v-22.47h8.78v60.35h-8.57v-7.05h-.76c-.48.97-1.24,2-2.28,3.25s-2.35,2.35-4.08,3.25-3.94,1.38-6.71,1.38l-.07.14Zm1.94-7.47c2.56,0,4.7-.69,6.43-2s3.11-3.25,4.01-5.6,1.38-5.18,1.38-8.36-.41-5.95-1.31-8.3-2.21-4.22-3.94-5.53-3.94-1.94-6.5-1.94-4.84.69-6.64,2.07-3.11,3.25-3.94,5.6-1.31,5.05-1.31,8.09.41,5.74,1.31,8.16,2.21,4.36,4.01,5.74,3.94,2.07,6.57,2.07h-.07Z"/>
        <path class="cls-16" d="m992.15,1559.42l14.45,23.64h.48l14.45-23.64h10.51l-18.8,30.21,18.94,30.14h-10.65l-14.52-23.3h-.48l-14.52,23.3h-10.58l19.22-30.14-19.15-30.21h10.65Z"/>
        <path class="cls-16" d="m1065.08,1559.42v60.35h-9.13v-60.35h9.13Zm10.44,60.35h-14.93v-7.95h14.38c4.56,0,8.43-.83,11.48-2.56,3.04-1.73,5.32-4.22,6.84-7.6s2.28-7.4,2.28-12.1-.76-8.71-2.28-12.03c-1.52-3.32-3.73-5.81-6.71-7.54-2.97-1.73-6.64-2.56-11.06-2.56h-15.28v-7.95h15.83c5.95,0,10.99,1.18,15.21,3.59s7.47,5.88,9.75,10.37,3.39,9.89,3.39,16.11-1.18,11.68-3.46,16.18-5.6,7.95-9.89,10.44-9.54,3.66-15.69,3.66l.14-.07Z"/>
        <path class="cls-16" d="m1130.61,1620.67c-4.22,0-7.95-.97-11.13-2.9s-5.6-4.7-7.4-8.16-2.63-7.6-2.63-12.24.9-8.78,2.63-12.31,4.22-6.29,7.4-8.23,6.91-2.9,11.13-2.9,7.95.97,11.13,2.9,5.6,4.7,7.4,8.23,2.63,7.6,2.63,12.31-.9,8.71-2.63,12.24-4.22,6.22-7.4,8.16-6.84,2.9-11.13,2.9Zm0-7.4c2.77,0,5.05-.76,6.91-2.21s3.18-3.39,4.01-5.81,1.31-5.05,1.31-7.95-.41-5.6-1.31-8.02-2.21-4.36-4.01-5.81-4.08-2.21-6.91-2.21-5.05.76-6.84,2.21-3.11,3.39-4.01,5.81-1.31,5.12-1.31,8.02.41,5.53,1.31,7.95,2.21,4.36,4.01,5.81,4.08,2.21,6.84,2.21Z"/>
        <path class="cls-16" d="m1192,1585.56l-7.95,1.38c-.48-1.52-1.45-2.9-2.83-4.15s-3.46-1.94-6.22-1.94c-2.49,0-4.56.55-6.22,1.66s-2.49,2.56-2.49,4.29c0,1.52.55,2.77,1.66,3.66s2.9,1.73,5.39,2.28l7.26,1.59c4.15.97,7.19,2.42,9.26,4.42s3.11,4.63,3.11,7.74c0,2.7-.76,5.18-2.35,7.26s-3.73,3.8-6.5,4.98c-2.77,1.18-6.01,1.8-9.61,1.8-5.05,0-9.19-1.11-12.37-3.25s-5.12-5.25-5.88-9.26l8.43-1.31c.55,2.21,1.66,3.87,3.32,5.05s3.8,1.73,6.43,1.73c2.83,0,5.18-.62,6.91-1.8s2.63-2.7,2.63-4.42c0-2.83-2.14-4.77-6.43-5.81l-7.67-1.73c-4.22-.97-7.4-2.49-9.4-4.63s-3.04-4.7-3.04-7.95c0-2.7.76-5.05,2.28-7.05s3.59-3.59,6.22-4.7,5.67-1.66,8.99-1.66c4.91,0,8.78,1.04,11.54,3.18s4.63,4.98,5.6,8.43l-.07.21Z"/>
        <path class="cls-16" d="m1218.48,1620.67c-4.42,0-8.3-.97-11.48-2.9s-5.74-4.63-7.47-8.09-2.63-7.6-2.63-12.24.83-8.71,2.56-12.31,4.15-6.29,7.26-8.3,6.77-2.97,10.99-2.97c2.56,0,5.05.41,7.47,1.24,2.42.83,4.56,2.14,6.5,3.94,1.94,1.8,3.46,4.15,4.56,7.05s1.66,6.36,1.66,10.44v3.18h-36.02v-6.64h31.45l-4.08,2.21c0-2.77-.41-5.25-1.31-7.4s-2.14-3.8-3.87-4.98-3.87-1.8-6.36-1.8-4.7.62-6.5,1.8-3.18,2.83-4.08,4.84-1.45,4.22-1.45,6.57v4.49c0,3.11.55,5.74,1.59,7.88s2.56,3.8,4.49,4.91,4.15,1.73,6.77,1.73c1.66,0,3.18-.28,4.56-.76s2.56-1.24,3.53-2.21,1.73-2.14,2.28-3.59l8.36,1.59c-.69,2.42-1.87,4.56-3.59,6.43s-3.87,3.25-6.43,4.29-5.53,1.52-8.78,1.52v.07Z"/>
      </g>
      <g>
        <path class="cls-16" d="m170.06,1172.44c0,5.18-1.24,9.82-3.73,13.96-2.49,4.15-6.01,7.33-10.65,9.68s-10.16,3.53-16.52,3.53-12.03-1.18-16.66-3.53-8.16-5.6-10.65-9.68c-2.49-4.08-3.73-8.71-3.73-13.89,0-3.18.48-6.15,1.38-8.99s2.28-5.32,4.01-7.54,3.87-4.01,6.43-5.46,5.39-2.42,8.64-2.9v9.13c-2,.35-3.73,1.04-5.18,1.94s-2.77,2.14-3.8,3.53-1.8,2.97-2.35,4.63-.76,3.53-.76,5.46c0,3.46.9,6.57,2.63,9.33s4.29,4.91,7.67,6.5,7.54,2.35,12.44,2.35,9.06-.83,12.44-2.42c3.39-1.59,5.88-3.73,7.6-6.5s2.63-5.88,2.63-9.26c0-1.94-.28-3.73-.76-5.46s-1.31-3.25-2.28-4.63-2.28-2.56-3.73-3.53-3.18-1.66-5.12-2v-9.13c2.97.48,5.74,1.38,8.23,2.77s4.63,3.18,6.43,5.39,3.18,4.7,4.15,7.47,1.45,5.88,1.45,9.19l-.21.07Z"/>
        <path class="cls-16" d="m170.2,1121.77c0,4.22-.97,7.95-2.9,11.13s-4.7,5.6-8.16,7.4c-3.46,1.8-7.6,2.63-12.24,2.63s-8.78-.9-12.31-2.63-6.29-4.22-8.23-7.4-2.9-6.91-2.9-11.13.97-7.95,2.9-11.13,4.7-5.6,8.23-7.4,7.6-2.63,12.31-2.63,8.71.9,12.24,2.63,6.22,4.22,8.16,7.4,2.9,6.84,2.9,11.13Zm-7.4,0c0-2.77-.76-5.05-2.21-6.91s-3.39-3.18-5.81-4.01c-2.42-.83-5.05-1.31-7.95-1.31s-5.6.41-8.02,1.31-4.36,2.21-5.81,4.01-2.21,4.08-2.21,6.91.76,5.05,2.21,6.84,3.39,3.11,5.81,4.01,5.12,1.31,8.02,1.31,5.53-.41,7.95-1.31,4.36-2.21,5.81-4.01,2.21-4.08,2.21-6.84Z"/>
        <path class="cls-16" d="m169.3,1094.32h-45.28v-8.36h7.47v-.62c-2.49-.97-4.49-2.49-5.88-4.63s-2.14-4.7-2.14-7.67.69-5.53,2.14-7.6,3.39-3.53,5.88-4.56v-.48c-2.49-1.11-4.42-2.77-5.88-5.12s-2.14-5.12-2.14-8.36c0-4.08,1.31-7.47,3.87-10.09,2.56-2.63,6.43-3.94,11.61-3.94h30.35v8.85h-29.52c-3.11,0-5.32.83-6.64,2.49s-2.07,3.66-2.07,6.01c0,2.83.9,5.12,2.63,6.64s4.01,2.35,6.71,2.35h28.9v8.85h-30.07c-2.49,0-4.42.76-5.95,2.28s-2.21,3.53-2.21,5.95c0,1.66.41,3.25,1.31,4.63s2.07,2.56,3.66,3.39,3.32,1.24,5.39,1.24h27.93v8.78h-.07Z"/>
        <path class="cls-16" d="m186.17,1024.43h-62.22v-8.5h7.4v-.76c-.97-.55-2-1.31-3.25-2.28s-2.35-2.28-3.25-4.01-1.38-4.01-1.38-6.77c0-3.66.9-6.91,2.77-9.75s4.49-5.12,7.95-6.77,7.67-2.49,12.58-2.49,9.06.83,12.51,2.42,6.15,3.87,8.09,6.71c1.94,2.83,2.83,6.08,2.83,9.82,0,2.7-.48,4.98-1.38,6.71s-2,3.11-3.25,4.08-2.35,1.73-3.25,2.28v.48h23.99v8.78l-.14.07Zm-23.5-20.39c0-2.63-.69-4.84-2.07-6.57s-3.32-3.11-5.74-4.01-5.12-1.38-8.16-1.38-5.67.41-8.09,1.31-4.29,2.21-5.6,3.94-2.07,3.94-2.07,6.64.62,4.7,1.94,6.5,3.18,3.11,5.53,4.01c2.35.9,5.12,1.38,8.3,1.38s5.95-.48,8.36-1.38c2.42-.9,4.29-2.28,5.6-4.01s2-3.94,2-6.43Z"/>
        <path class="cls-16" d="m170.2,957.79c0,4.22-.97,7.95-2.9,11.13s-4.7,5.6-8.16,7.4c-3.46,1.8-7.6,2.63-12.24,2.63s-8.78-.9-12.31-2.63-6.29-4.22-8.23-7.4-2.9-6.91-2.9-11.13.97-7.95,2.9-11.13,4.7-5.6,8.23-7.4c3.53-1.8,7.6-2.63,12.31-2.63s8.71.9,12.24,2.63c3.53,1.73,6.22,4.22,8.16,7.4,1.94,3.18,2.9,6.84,2.9,11.13Zm-7.4,0c0-2.77-.76-5.05-2.21-6.91s-3.39-3.18-5.81-4.01-5.05-1.31-7.95-1.31-5.6.41-8.02,1.31-4.36,2.21-5.81,4.01-2.21,4.08-2.21,6.91.76,5.05,2.21,6.84,3.39,3.11,5.81,4.01,5.12,1.31,8.02,1.31,5.53-.41,7.95-1.31,4.36-2.21,5.81-4.01,2.21-4.08,2.21-6.84Z"/>
        <path class="cls-16" d="m150.57,901.66h-26.55v-8.78h45.28v8.57h-7.88v.48c2.42,1.11,4.42,2.77,6.01,5.05s2.42,5.12,2.42,8.5c0,2.9-.62,5.46-1.94,7.74s-3.18,3.94-5.74,5.25-5.67,1.87-9.47,1.87h-28.83v-8.78h27.79c3.04,0,5.46-.83,7.33-2.63s2.77-3.94,2.7-6.71c0-1.66-.41-3.32-1.24-4.91s-2.07-2.97-3.73-4.08-3.8-1.66-6.29-1.66l.14.07Z"/>
        <path class="cls-16" d="m142.41,875.73h26.82v8.78h-45.28v-8.5h7.47v-.62c-2.49-1.04-4.42-2.63-5.88-4.84s-2.14-4.98-2.14-8.43c0-3.11.62-5.74,1.94-8.09s3.18-4.08,5.74-5.39,5.67-1.94,9.47-1.94h28.76v8.78h-27.72c-3.25,0-5.81.83-7.74,2.63s-2.83,4.08-2.83,7.05c0,2,.48,3.87,1.38,5.46s2.21,2.9,3.87,3.8,3.73,1.38,6.15,1.38v-.07Z"/>
        <path class="cls-16" d="m170.13,821.47c0,3.66-.97,6.91-2.83,9.82s-4.56,5.12-8.09,6.71c-3.53,1.59-7.67,2.42-12.51,2.42s-9.13-.83-12.58-2.49-6.15-3.87-7.95-6.77-2.77-6.08-2.77-9.75c0-2.83.48-5.12,1.38-6.84s2-3.04,3.25-4.01,2.35-1.73,3.25-2.21v-.55h-22.47v-8.78h60.35v8.57h-7.05v.76c.97.48,2,1.24,3.25,2.28s2.35,2.35,3.25,4.08,1.38,3.94,1.38,6.71l.14.07Zm-7.47-1.94c0-2.56-.69-4.7-2-6.43s-3.25-3.11-5.6-4.01c-2.35-.9-5.18-1.38-8.36-1.38s-5.95.41-8.3,1.31-4.22,2.21-5.53,3.94-1.94,3.94-1.94,6.5.69,4.84,2.07,6.64,3.25,3.11,5.6,3.94,5.05,1.31,8.09,1.31,5.74-.41,8.16-1.31,4.36-2.21,5.74-4.01,2.07-3.94,2.07-6.57v.07Z"/>
        <path class="cls-16" d="m108.88,776.26v-10.3l27.44-15.83v-.62l-27.44-15.69v-10.44l36.64,21.91h23.71v9.13h-23.71s-36.64,21.84-36.64,21.84Z"/>
        <path class="cls-16" d="m169.3,680.24v14.93h-7.95v-14.38c0-4.56-.83-8.43-2.56-11.48s-4.22-5.32-7.6-6.84-7.4-2.28-12.1-2.28-8.71.76-12.03,2.28-5.81,3.73-7.54,6.71-2.56,6.64-2.56,11.06v15.28h-7.95v-15.83c0-5.95,1.18-10.99,3.59-15.21s5.88-7.47,10.37-9.75c4.49-2.28,9.89-3.39,16.11-3.39s11.68,1.18,16.18,3.46c4.49,2.28,7.95,5.6,10.44,9.89s3.66,9.54,3.66,15.69l-.07-.14Zm-60.35,10.44h60.35v9.13h-60.35v-9.13Z"/>
        <path class="cls-16" d="m170.2,625.14c0,4.22-.97,7.95-2.9,11.13s-4.7,5.6-8.16,7.4c-3.46,1.8-7.6,2.63-12.24,2.63s-8.78-.9-12.31-2.63-6.29-4.22-8.23-7.4-2.9-6.91-2.9-11.13.97-7.95,2.9-11.13,4.7-5.6,8.23-7.4,7.6-2.63,12.31-2.63,8.71.9,12.24,2.63,6.22,4.22,8.16,7.4,2.9,6.84,2.9,11.13Zm-7.4,0c0-2.77-.76-5.05-2.21-6.91s-3.39-3.18-5.81-4.01-5.05-1.31-7.95-1.31-5.6.41-8.02,1.31-4.36,2.21-5.81,4.01-2.21,4.08-2.21,6.91.76,5.05,2.21,6.84,3.39,3.11,5.81,4.01c2.42.9,5.12,1.31,8.02,1.31s5.53-.41,7.95-1.31,4.36-2.21,5.81-4.01,2.21-4.08,2.21-6.84Z"/>
        <path class="cls-16" d="m135.08,563.82l1.38,7.95c-1.52.48-2.9,1.45-4.15,2.83s-1.94,3.46-1.94,6.22c0,2.49.55,4.56,1.66,6.22,1.11,1.66,2.56,2.49,4.29,2.49,1.52,0,2.77-.55,3.66-1.66s1.73-2.9,2.28-5.39l1.59-7.26c.97-4.15,2.42-7.19,4.42-9.26s4.63-3.11,7.74-3.11c2.7,0,5.18.76,7.26,2.35,2.07,1.59,3.8,3.73,4.98,6.5s1.8,6.01,1.8,9.61c0,5.05-1.11,9.19-3.25,12.37s-5.25,5.12-9.26,5.88l-1.31-8.43c2.21-.55,3.87-1.66,5.05-3.32s1.73-3.8,1.73-6.43c0-2.83-.62-5.18-1.8-6.91s-2.7-2.63-4.42-2.63c-2.83,0-4.77,2.14-5.81,6.43l-1.73,7.67c-.97,4.22-2.49,7.4-4.63,9.4s-4.7,3.04-7.95,3.04c-2.7,0-5.05-.76-7.05-2.28-2-1.52-3.59-3.59-4.7-6.22s-1.66-5.67-1.66-8.99c0-4.91,1.04-8.78,3.18-11.54s4.98-4.63,8.43-5.6l.21.07Z"/>
        <path class="cls-16" d="m170.2,537.28c0,4.42-.97,8.3-2.9,11.48s-4.63,5.74-8.09,7.47c-3.46,1.73-7.6,2.63-12.24,2.63s-8.71-.83-12.31-2.56-6.29-4.15-8.3-7.26c-2-3.11-2.97-6.77-2.97-10.99,0-2.56.41-5.05,1.24-7.47s2.14-4.56,3.94-6.5,4.15-3.46,7.05-4.56,6.36-1.66,10.44-1.66h3.18v36.02h-6.64v-31.45l2.21,4.08c-2.77,0-5.25.41-7.4,1.31s-3.8,2.14-4.98,3.87-1.8,3.87-1.8,6.36.62,4.7,1.8,6.5,2.83,3.18,4.84,4.08,4.22,1.45,6.57,1.45h4.49c3.11,0,5.74-.55,7.88-1.59,2.14-1.04,3.8-2.56,4.91-4.49s1.73-4.15,1.73-6.77c0-1.66-.28-3.18-.76-4.56s-1.24-2.56-2.21-3.53-2.14-1.73-3.59-2.28l1.59-8.36c2.42.69,4.56,1.87,6.43,3.59s3.25,3.87,4.29,6.43,1.52,5.53,1.52,8.78h.07Z"/>
      </g>
    </g>
  </g>
  <g>
    <path d="m703.49,170.22h-20.65l23.3-70.57h26.14l23.3,70.57h-20.65l-15.44-51.15h-.57l-15.44,51.15Zm-3.79-27.85h38.84v14.3h-38.84v-14.3Z"/>
    <path d="m779.37,140.47v29.74h-19.04v-52.95h18.85v10.14h.38c1.17-3.38,3.09-6.02,5.75-7.93,2.67-1.91,5.96-2.87,9.88-2.87s7.02.85,9.78,2.56,4.9,4.06,6.42,7.06c1.52,3,2.27,6.43,2.27,10.28v33.72h-19.04v-29.74c0-2.62-.66-4.68-1.99-6.18-1.33-1.5-3.19-2.25-5.59-2.25-1.55,0-2.9.34-4.05,1.02-1.15.68-2.04,1.64-2.68,2.89-.63,1.25-.95,2.76-.95,4.52Z"/>
    <path d="m852.59,117.27v13.83h-34.86v-13.83h34.86Zm-28.13-12.6h19.04v48.5c0,1.11.28,1.93.85,2.49.57.55,1.48.83,2.75.83.57,0,1.24-.06,2.01-.19.77-.13,1.33-.25,1.68-.38l2.75,13.45c-2.18.6-4.15,1.03-5.92,1.28-1.77.25-3.51.38-5.21.38-5.94,0-10.41-1.36-13.43-4.07-3.02-2.72-4.52-6.71-4.52-11.98v-50.3Z"/>
    <path d="m872.86,171.07c-3.38,0-6.37-.56-8.98-1.68-2.6-1.12-4.63-2.82-6.09-5.09-1.45-2.27-2.18-5.16-2.18-8.67,0-2.9.49-5.38,1.47-7.44.98-2.05,2.35-3.73,4.12-5.04,1.77-1.31,3.83-2.32,6.18-3.03,2.35-.71,4.9-1.16,7.65-1.35,2.97-.22,5.34-.49,7.13-.81,1.78-.32,3.08-.78,3.88-1.4.81-.62,1.21-1.43,1.21-2.44v-.19c0-1.36-.52-2.41-1.56-3.15-1.04-.74-2.38-1.11-4.03-1.11-1.83,0-3.32.4-4.45,1.18-1.14.79-1.83,2.01-2.08,3.65h-17.43c.22-3.22,1.24-6.19,3.05-8.9,1.82-2.72,4.48-4.89,8-6.54,3.52-1.64,7.92-2.46,13.19-2.46,3.76,0,7.14.44,10.14,1.33,3,.88,5.56,2.12,7.67,3.69,2.12,1.58,3.73,3.42,4.85,5.52,1.12,2.1,1.68,4.37,1.68,6.8v36.28h-17.81v-7.48h-.38c-1.07,1.99-2.36,3.59-3.86,4.81-1.5,1.22-3.2,2.11-5.09,2.68s-4,.85-6.3.85Zm6.16-12.03c1.45,0,2.82-.3,4.1-.9,1.28-.6,2.32-1.46,3.13-2.58.81-1.12,1.21-2.49,1.21-4.1v-4.36c-.51.19-1.04.38-1.61.57s-1.18.36-1.82.52c-.65.16-1.31.3-1.99.43-.68.13-1.4.25-2.16.38-1.48.22-2.69.59-3.62,1.11-.93.52-1.62,1.15-2.06,1.89-.44.74-.66,1.57-.66,2.49,0,1.48.51,2.61,1.54,3.39,1.03.77,2.34,1.16,3.96,1.16Z"/>
    <path d="m938.98,191.15c-7.96,0-14.17-1.64-18.64-4.93-4.47-3.28-6.88-7.48-7.22-12.6h18.28c.19,1.14.65,2.05,1.37,2.75.73.69,1.67,1.2,2.84,1.52,1.17.32,2.48.47,3.93.47,2.46,0,4.5-.6,6.11-1.8,1.61-1.2,2.42-3.35,2.42-6.44v-9h-.57c-.66,1.77-1.71,3.28-3.15,4.55-1.44,1.26-3.15,2.23-5.14,2.89-1.99.66-4.18.99-6.58.99-3.76,0-7.22-.88-10.37-2.63-3.16-1.75-5.69-4.52-7.6-8.31s-2.87-8.73-2.87-14.82c0-6.41,1-11.61,3.01-15.61,2-3.99,4.59-6.92,7.74-8.79,3.16-1.86,6.49-2.79,9.99-2.79,2.62,0,4.93.45,6.92,1.35,1.99.9,3.67,2.11,5.04,3.62,1.37,1.52,2.41,3.17,3.1,4.97h.38v-9.28h18.85v52.86c0,4.45-1.16,8.25-3.48,11.39-2.32,3.14-5.57,5.53-9.73,7.18-4.17,1.64-9.05,2.46-14.63,2.46Zm.66-35.14c2.62,0,4.68-1.08,6.18-3.24,1.5-2.16,2.25-5.15,2.25-8.98,0-2.62-.34-4.87-1.02-6.75-.68-1.88-1.64-3.32-2.89-4.33-1.25-1.01-2.76-1.52-4.52-1.52s-3.22.51-4.45,1.52c-1.23,1.01-2.17,2.46-2.82,4.33-.65,1.88-.97,4.13-.97,6.75s.32,4.8.97,6.63c.65,1.83,1.59,3.22,2.82,4.17s2.71,1.42,4.45,1.42Z"/>
    <path d="m999.7,171.17c-5.75,0-10.67-1.14-14.75-3.43-4.09-2.29-7.21-5.48-9.38-9.57-2.16-4.09-3.24-8.85-3.24-14.28s1.08-10.19,3.24-14.28c2.16-4.09,5.29-7.28,9.38-9.57,4.09-2.29,9.01-3.43,14.75-3.43s10.66,1.15,14.75,3.43c4.09,2.29,7.21,5.48,9.38,9.57,2.16,4.09,3.24,8.85,3.24,14.28s-1.08,10.19-3.24,14.28c-2.16,4.09-5.29,7.28-9.38,9.57-4.09,2.29-9.01,3.43-14.75,3.43Zm.09-14.21c1.64,0,3.05-.52,4.22-1.56,1.17-1.04,2.07-2.55,2.7-4.52.63-1.97.95-4.33.95-7.08s-.32-5.13-.95-7.06c-.63-1.93-1.53-3.39-2.7-4.4-1.17-1.01-2.57-1.52-4.22-1.52s-3.12.51-4.33,1.52c-1.22,1.01-2.14,2.48-2.77,4.4-.63,1.93-.95,4.28-.95,7.06s.32,5.11.95,7.08c.63,1.97,1.55,3.48,2.77,4.52s2.66,1.56,4.33,1.56Z"/>
    <path d="m1051.61,140.47v29.74h-19.04v-52.95h18.85v10.14h.38c1.17-3.38,3.09-6.02,5.75-7.93,2.67-1.91,5.96-2.87,9.88-2.87s7.02.85,9.78,2.56,4.9,4.06,6.42,7.06c1.52,3,2.27,6.43,2.27,10.28v33.72h-19.04v-29.74c0-2.62-.66-4.68-1.99-6.18-1.33-1.5-3.19-2.25-5.59-2.25-1.55,0-2.9.34-4.05,1.02-1.15.68-2.04,1.64-2.68,2.89-.63,1.25-.95,2.76-.95,4.52Z"/>
    <path d="m1093.29,170.22v-52.95h19.04v52.95h-19.04Zm9.47-58.35c-2.59,0-4.8-.85-6.63-2.56-1.83-1.71-2.75-3.76-2.75-6.16s.92-4.49,2.75-6.18c1.83-1.69,4.04-2.53,6.63-2.53s4.8.85,6.63,2.53c1.83,1.69,2.75,3.73,2.75,6.13s-.92,4.5-2.75,6.2c-1.83,1.71-4.04,2.56-6.63,2.56Z"/>
    <path d="m1168.03,134.51h-17.43c-.13-1.61-.89-2.88-2.3-3.81-1.41-.93-3.04-1.4-4.9-1.4-1.64,0-3.03.29-4.17.88-1.14.58-1.71,1.43-1.71,2.53,0,.79.34,1.53,1.02,2.23.68.69,2.01,1.22,4,1.56l10.8,1.89c5.4.95,9.43,2.59,12.1,4.93,2.67,2.34,4,5.46,4,9.38s-1.11,7.07-3.32,9.83c-2.21,2.76-5.23,4.89-9.07,6.39-3.84,1.5-8.2,2.25-13.1,2.25-8.08,0-14.41-1.65-18.97-4.95-4.56-3.3-7.11-7.65-7.65-13.05h18.85c.28,1.67,1.14,2.96,2.56,3.86,1.42.9,3.19,1.35,5.3,1.35,1.77,0,3.22-.3,4.36-.9,1.14-.6,1.71-1.44,1.71-2.51,0-1.86-2.02-3.16-6.06-3.88l-9.38-1.71c-5.37-.98-9.39-2.77-12.08-5.38-2.68-2.6-4.03-5.99-4.03-10.16,0-3.69.99-6.82,2.96-9.38s4.78-4.51,8.43-5.85c3.65-1.34,8-2.01,13.05-2.01,7.64,0,13.66,1.59,18.07,4.76,4.4,3.17,6.72,7.55,6.94,13.14Z"/>
    <path d="m1206.02,117.27v13.83h-34.86v-13.83h34.86Zm-28.13-12.6h19.04v48.5c0,1.11.28,1.93.85,2.49.57.55,1.48.83,2.75.83.57,0,1.24-.06,2.01-.19.77-.13,1.33-.25,1.68-.38l2.75,13.45c-2.18.6-4.15,1.03-5.92,1.28-1.77.25-3.51.38-5.21.38-5.94,0-10.41-1.36-13.43-4.07-3.02-2.72-4.52-6.71-4.52-11.98v-50.3Z"/>
    <path d="m1211.51,170.22v-52.95h19.04v52.95h-19.04Zm9.47-58.35c-2.59,0-4.8-.85-6.63-2.56-1.83-1.71-2.75-3.76-2.75-6.16s.92-4.49,2.75-6.18c1.83-1.69,4.04-2.53,6.63-2.53s4.8.85,6.63,2.53c1.83,1.69,2.75,3.73,2.75,6.13s-.92,4.5-2.75,6.2c-1.83,1.71-4.04,2.56-6.63,2.56Z"/>
    <path d="m1263.42,171.17c-5.75,0-10.67-1.14-14.75-3.43-4.09-2.29-7.21-5.48-9.38-9.57-2.16-4.09-3.24-8.85-3.24-14.28s1.08-10.19,3.24-14.28c2.16-4.09,5.29-7.28,9.38-9.57,4.09-2.29,9.01-3.43,14.75-3.43,5.21,0,9.71.94,13.5,2.82,3.79,1.88,6.73,4.52,8.81,7.91,2.08,3.4,3.14,7.4,3.17,12.01h-17.62c-.16-1.86-.57-3.43-1.23-4.69-.66-1.26-1.53-2.22-2.61-2.87-1.07-.65-2.32-.97-3.74-.97-1.67,0-3.13.47-4.36,1.42s-2.19,2.38-2.87,4.31c-.68,1.93-1.02,4.34-1.02,7.25s.34,5.29,1.02,7.25c.68,1.96,1.63,3.43,2.87,4.43,1.23,1,2.68,1.49,4.36,1.49,2.08,0,3.81-.77,5.19-2.32,1.37-1.55,2.17-3.71,2.39-6.49h17.62c-.06,4.67-1.13,8.74-3.2,12.2-2.07,3.46-4.99,6.13-8.76,8-3.77,1.88-8.28,2.82-13.52,2.82Z"/>
  </g>
</svg>