<?xml version="1.0" encoding="UTF-8"?>
<svg id="Layer_1" data-name="Layer 1" xmlns="http://www.w3.org/2000/svg" xmlns:xlink="http://www.w3.org/1999/xlink" viewBox="0 0 1623.3 1623.3">
  <defs>
    <style>
      .cls-1 {
        clip-path: url(#clippath);
      }

      .cls-2 {
        fill: #00a6ce;
      }

      .cls-3 {
        fill: #006dad;
      }

      .cls-4 {
        fill: #ea6c3e;
      }

      .cls-5, .cls-6 {
        fill: #fff;
      }

      .cls-7 {
        fill: #eb9136;
      }

      .cls-8 {
        fill: #ffc400;
      }

      .cls-9 {
        fill: #80b342;
      }

      .cls-10 {
        fill: #8f3ba6;
      }

      .cls-11 {
        fill: #a82028;
      }

      .cls-12 {
        fill: #a73250;
      }

      .cls-13 {
        fill: #b2c740;
      }

      .cls-14 {
        fill: #ce373a;
      }

      .cls-15 {
        fill: #dba964;
      }

      .cls-16 {
        fill: #b13890;
      }

      .cls-17 {
        fill: #e35e80;
      }

      .cls-18 {
        fill: #231f20;
      }

      .cls-19 {
        fill: #70c5c9;
      }

      .cls-20 {
        fill: #459598;
      }

      .cls-6, .cls-21 {
        stroke: #231f20;
        stroke-miterlimit: 10;
        stroke-width: 20px;
      }

      .cls-21 {
        fill: none;
      }
    </style>
    <clipPath id="clippath">
      <circle class="cls-6" cx="1255.77" cy="837.6" r="333.23"/>
    </clipPath>
  </defs>
  <g id="Layer_1-2" data-name="Layer 1-2">
    <g>
      <path class="cls-2" d="m703.85,947.25c-2.46-74.15,60.43-141.01,135.13-143.66,79.01-2.79,145.35,56.24,149.99,129.77,5.6,88.65-59.47,153.1-137.66,155.95-80.93,2.95-144.69-59.02-147.45-142.07h0Z"/>
      <path class="cls-9" d="m99.13,1040.17c0-66.71,51.09-118.36,117.17-118.43,65.97-.08,117.87,52,117.9,118.3.02,66.08-52.32,118.88-117.71,118.74-65.93-.14-117.35-52.1-117.35-118.61h0Z"/>
      <path class="cls-3" d="m364.66,597.84c.05,66.41-51.59,118.86-117.19,119.03-65.79.17-117.95-52.12-118.02-118.31-.08-66.4,51.59-118.84,117.32-119.06,65.63-.22,117.86,52.2,117.91,118.35h0Z"/>
      <path class="cls-10" d="m114.86,769.86c45.22.02,79.81,33.85,79.32,77.6-.49,43.61-36.13,78.84-79.48,78.59-42.72-.24-78.37-35.58-78.66-77.96-.28-43.93,34.28-78.24,78.82-78.23Z"/>
      <path class="cls-13" d="m473.85,771.83c-45.53.03-79.98-33.61-79.42-77.55.55-43.89,35.63-78.62,79.39-78.59,43.04.02,78.04,34.82,78.24,77.78.2,44.61-33.44,78.33-78.2,78.37h0Z"/>
      <path class="cls-15" d="m545.27,1129.28c-43.67-.15-77.37-33.84-77.72-77.7-.34-43.79,34.68-78.71,78.79-78.57,44.38.16,78.69,34.62,78.42,78.82-.26,44.32-34.41,77.59-79.5,77.43h0Z"/>
      <path class="cls-9" d="m546.42,1243.29c-.03,44.8-34.25,79.13-78.44,78.7-42.78-.41-77.65-35.61-77.81-78.57-.16-43.81,34.58-78.96,78.38-79.3,43.94-.35,77.9,34.18,77.87,79.16Z"/>
      <path class="cls-2" d="m747.41,569.29c.03-44.97,33.34-78.08,78.43-77.94,43.38.14,77.68,34.45,77.81,77.83.14,44.5-33.77,78.37-78.52,78.42-45.56.07-77.75-32.37-77.73-78.33h0Z"/>
      <path class="cls-14" d="m631.23,520.5c-.19,37.32-29.04,66.23-66.18,66.33-37.9.1-68.89-30.94-68.22-68.33.65-36.44,30.83-66.22,67.13-66.27,38.9-.05,67.46,28.94,67.26,68.28h0Z"/>
      <path class="cls-17" d="m271.99,865.46c-36.16.21-65.28-28.48-65.89-64.94-.6-35.75,30.39-66.4,66.72-65.98,35.17.41,63.75,29.5,64.15,65.3.4,35.99-28.72,65.4-64.96,65.61h0Z"/>
      <path class="cls-3" d="m743.73,1130.55c36.54-.2,66.03,28.75,65.98,64.79-.04,36.83-28.46,65.29-65.31,65.42-35.65.13-65.72-30.01-65.62-65.77.1-35.4,29.16-64.24,64.94-64.44h0Z"/>
      <path class="cls-10" d="m697.88,881.83c-.15,36.37-29.66,65.74-65.36,65.04-36.17-.72-63.87-29.89-63.66-67.07.19-35.35,29.58-64.29,65.01-64.04,37.27.27,64.17,28.03,64.01,66.08h0Z"/>
      <path class="cls-4" d="m440.18,445.41c-.03,35.92-28.29,64.56-64.03,64.89-36.12.33-65-28.95-64.76-65.64.23-35.72,29.29-64.5,64.76-64.15,35.81.36,64.06,28.98,64.03,64.89h0Z"/>
      <path class="cls-8" d="m696.5,421.51c34.42-.08,61.51,26.57,61.67,60.67.16,33.8-27.63,61.85-61.29,61.86-33.96,0-61.14-27.27-61.34-61.57-.2-35.09,25.59-60.89,60.97-60.97h0Z"/>
      <path class="cls-11" d="m497.14,860.96c30.08.13,53.64,23.81,53.51,53.77-.13,29.77-24.32,53.7-54.11,53.5-29.41-.2-54.26-25.16-53.88-54.09.4-29.68,24.61-53.3,54.47-53.18h0Z"/>
      <path class="cls-17" d="m728.97,1085.3c.35,27.35-20.06,48.66-46.93,49.01-25.76.33-48.44-21.78-48.97-47.74-.52-25.61,22.16-48.92,47.66-48.96,27.27-.04,47.89,20.35,48.24,47.69h0Z"/>
      <path class="cls-10" d="m557.51,400.87c.3,25.55-22.15,48.46-47.82,48.82-25.67.36-48.18-21.79-48.63-47.87-.44-25.9,21.55-48.32,47.68-48.62,25.95-.3,48.47,21.71,48.77,47.66h0Z"/>
      <path class="cls-10" d="m284.34,1256.31c-26.42-.23-48.12-22.16-47.67-48.16.47-26.23,22.31-47.24,49.05-47.19,26.05.05,48.11,22.64,47.46,48.62-.68,27.43-21.1,46.98-48.83,46.74h0Z"/>
      <path class="cls-14" d="m341.89,959.4c-26.21-.19-48.27-22.36-47.96-48.17.32-26.52,21.7-47.29,48.6-47.23,26.76.06,47.89,21.32,47.71,47.98-.18,26.57-21.65,47.63-48.35,47.44h0Z"/>
      <path class="cls-9" d="m875.92,792.82c-26.61.04-48.44-21.3-48.54-47.46-.1-26.1,21.81-47.91,48.17-47.94,26.45-.04,48.4,21.59,48.4,47.69s-21.15,47.67-48.03,47.71h0Z"/>
      <path class="cls-12" d="m726.21,693.86c.17-27.29,19.67-47.42,46.19-47.67,26.32-.25,48.99,21.79,49.03,47.68.04,27.39-20.49,47.7-48.15,47.63-28.51-.07-47.24-19.02-47.07-47.65h0Z"/>
      <path class="cls-3" d="m597.94,805.14c-27.95-.07-47.69-19.93-47.34-47.64.34-27.38,21.5-48.17,48.42-47.59,25.41.54,47.08,22.68,46.99,48-.09,27.56-20.17,47.3-48.06,47.23h0Z"/>
      <path class="cls-20" d="m423.53,515.42c27.02.19,46.93,20,46.93,46.68s-20.78,48.45-47.56,48.57c-26.12.11-47.88-21.97-47.85-48.54.03-27.24,20.44-46.9,48.49-46.7h0Z"/>
      <path class="cls-4" d="m556.59,1278.12c.04-23.07,17.54-40.93,39.75-40.57,22.34.37,40.47,18.7,40.39,40.82-.08,22.15-18.35,40.39-40.66,40.58-22.24.18-39.53-17.69-39.49-40.83h0Z"/>
      <path class="cls-4" d="m380.47,1021.31c23.22.09,40.59,17.41,40.01,39.89-.58,22.43-18.94,40.53-40.79,40.22-22-.31-40.65-19.27-40.21-40.86.46-22.69,17.85-39.34,41-39.24h0Z"/>
      <path class="cls-13" d="m97.67,666.94c23.12.17,39.74,17.17,39.57,40.5-.16,22.64-17.89,40.07-40.56,39.84-22.64-.23-39.72-17.82-39.71-40.89,0-22.8,17.36-39.63,40.7-39.45h0Z"/>
      <path class="cls-9" d="m608.34,364.15c22.86-.25,40.48,16.82,40.8,39.53.32,22.7-16.78,40.21-39.78,40.72-22.69.51-40.33-16.77-40.5-39.69-.17-23.29,16.4-40.32,39.48-40.57Z"/>
      <path class="cls-4" d="m655.41,649.15c.25,21.94-15.84,38.7-37.23,38.78-21.4.08-38.9-17.11-38.62-37.92.28-20.89,16.39-37.19,37.17-37.61,22.83-.45,38.43,14.37,38.69,36.76Z"/>
      <path class="cls-2" d="m418.53,1017.17c-22.15.09-37.55-14.87-37.41-36.31.16-21.9,16.65-38.1,38.46-37.75,20.04.32,35.46,16.39,35.71,37.21.27,21.79-14.65,36.76-36.77,36.85Z"/>
      <path class="cls-14" d="m629.67,1229.22c-21.26-.13-36.39-14.93-36.49-35.67-.09-20.39,17.16-37.72,37.33-37.51,19.63.2,36.27,16.99,36.5,36.83.24,21.17-15.49,36.49-37.35,36.36h0Z"/>
      <path class="cls-19" d="m413.07,821.95c16.99-.21,32.17,14.73,31.93,31.44-.24,17.34-14.64,31.77-31.72,31.79-17.22.02-31.92-14.55-31.8-31.52.12-17.4,14.16-31.49,31.6-31.7h0Z"/>
      <path class="cls-12" d="m891.65,1141c.28,18.59-12.49,32.01-30.73,32.27-17.31.25-31.31-14.02-31.43-32.07-.13-17.23,12.94-30.75,30.3-31.37,17.73-.62,31.59,12.93,31.86,31.17Z"/>
      <path class="cls-12" d="m431.59,1142.01c-.1,18.15-13.84,31.66-31.78,31.25-16.34-.37-30.52-15.04-30.49-31.56.02-17.58,14.03-31.78,31.56-31.95,17.4-.17,30.81,13.92,30.72,32.26h0Z"/>
      <path class="cls-15" d="m385.29,724.55c-.37,17.08-15.53,31.42-32.7,30.96-16.58-.46-30.42-14.8-30.45-31.57-.04-17.31,14.85-32.18,31.82-31.79,17.25.4,31.71,15.34,31.35,32.39h0Z"/>
      <path class="cls-8" d="m512.97,819.87c.17,18.08-11.71,30.28-29.86,30.68-18.67.42-31.91-11.92-32.29-30.09-.38-18.03,12.96-31.9,30.77-32.02,17.98-.13,31.2,13.12,31.38,31.43h0Z"/>
      <path class="cls-10" d="m657.77,610.98c-18.22.23-31.41-12.75-31.47-31-.06-18.43,11.54-30.72,29.44-31.16,18.38-.46,32.21,12.23,32.73,30.04.53,17.96-12.78,31.89-30.7,32.12h0Z"/>
      <path class="cls-13" d="m716.38,841.24c-17.33.33-31.06-12.53-31.86-29.82-.81-17.5,13.32-32.15,31.01-32.18,17.77-.03,31.08,12.48,31.73,29.82.67,17.93-12.67,31.83-30.88,32.18h0Z"/>
      <path class="cls-20" d="m180.41,718.45c15.69.04,28.18,12.35,27.92,27.5-.27,15.66-12.44,28.13-27.67,28.31-15.88.19-28.93-12.8-28.85-28.73.08-14.73,13.15-27.12,28.59-27.08h0Z"/>
      <path class="cls-17" d="m925.36,600.28c17.33-.17,28.91,11.18,28.59,28.03-.28,14.72-13.79,27.72-28.59,27.51-14.96-.21-28.13-13.37-28.07-28.05.06-15.26,12.38-27.32,28.06-27.49h0Z"/>
      <path class="cls-10" d="m997.51,759.52c-.48,15.72-12.72,27.25-28.48,26.8-15.52-.45-28.11-14.42-27.21-30.19.89-15.68,13.14-26.23,29.58-25.47,16.06.74,26.61,12.39,26.12,28.86Z"/>
      <path class="cls-15" d="m329.47,1266.8c.27-16.3,11.49-27.33,27.7-27.22,15.6.11,27.83,12.17,27.97,27.58.15,15.43-13.39,28.47-29.25,28.16-15.79-.29-26.69-12.07-26.41-28.53h0Z"/>
      <path class="cls-10" d="m712.69,674.84c.17,14.16-9.01,23.7-23.27,24.17-14.24.47-25.81-10.14-25.87-23.7-.06-12.94,12.28-24.95,25.54-24.89,13.26.07,23.42,10.58,23.6,24.42h0Z"/>
      <path class="cls-8" d="m493.11,1132.4c.09,13.32-10.26,23.53-24.11,23.8-14.2.28-23.93-9.03-24.19-23.14-.26-14.44,10.42-25.49,24.28-25.12,12.96.35,23.94,11.53,24.02,24.45h0Z"/>
      <path class="cls-8" d="m692.67,1001.53c-.11,13.53-10.38,24.06-23.7,24.3-13.72.25-24.56-10.96-24.25-25.1.29-13.41,11.09-23.99,24.13-23.66,12.88.32,23.93,11.67,23.82,24.46h0Z"/>
      <path class="cls-8" d="m219.43,864.66c13.1-.35,24.18,10.14,24.71,23.41.55,13.78-9.13,24.8-22.32,25.42-13.85.65-25.37-10.15-25.55-23.96-.17-13.41,10.17-24.53,23.15-24.88Z"/>
      <path class="cls-3" d="m747.25,622.08c.28,13.49-10.11,24.63-23.13,24.81-13.05.17-24.27-10.53-24.69-23.59-.43-13.11,10.36-24.71,23.17-24.94,12.75-.22,24.39,10.96,24.65,23.71h0Z"/>
      <path class="cls-20" d="m792.93,751.78c14.19.27,23.1,9.71,22.75,24.07-.34,14.02-10.13,23.25-24.27,22.88-13.87-.37-22.88-10.09-22.68-24.47.19-14.26,9.35-22.76,24.19-22.48Z"/>
      <path class="cls-8" d="m573.32,615.85c-.19,12.26-8.82,21.36-20.4,21.51-11.9.16-22.35-10.07-22.21-21.74.16-12.59,9.53-21.44,22.33-21.1,12.02.33,20.45,9.21,20.27,21.34h0Z"/>
      <path class="cls-15" d="m78.56,986.41c-12.28,0-21.74-9.82-21.39-22.19.34-11.74,9.58-20.85,21.19-20.92,11.43-.07,21.97,10.77,21.79,22.39-.17,11.09-10.19,20.71-21.6,20.72Z"/>
      <path class="cls-15" d="m1005.9,826.25c.19,11.59-8.99,20.69-21.25,21.08-12.24.39-21.45-8.14-21.77-20.14-.32-11.93,10.02-22.65,21.73-22.52,10.98.12,21.11,10.4,21.29,21.59h0Z"/>
      <path class="cls-12" d="m483.93,488.55c-.17,12.1-10.67,22.05-22.68,21.51-11.93-.54-20.05-9.71-19.67-22.22.38-12.54,8.9-20.79,21.23-20.55,11.51.22,21.29,10.07,21.12,21.26h0Z"/>
      <path class="cls-3" d="m332.93,1120c11.61.34,21.28,10.08,21.19,21.33-.1,12.58-9.71,21.54-22.59,21.07-12.15-.45-20.49-9.48-20.05-21.7.44-11.98,9.82-21.04,21.44-20.7h0Z"/>
      <path class="cls-10" d="m374.65,769.56c12.76-.32,22.6,8.95,22.44,21.17-.16,11.65-9.4,20.38-21.58,20.36-12.44-.02-21.31-8.37-21.51-20.27-.2-11.89,8.6-20.95,20.65-21.26h0Z"/>
      <path class="cls-3" d="m811.59,460.99c-.09,11.89-9.68,21.51-20.31,21.57-11.09.07-19.65-9.1-19.24-20.61.42-11.93,8.58-19.61,20.55-19.03,12.15.58,17.72,7.89,19,18.06h0Z"/>
      <path class="cls-4" d="m962.13,705.08c-12.1-.68-18.5-7.37-18.41-19.16.09-11.28,6.93-17.4,17.97-18.13,10.36-.68,20.28,8.44,19.62,18.41-.76,11.49-7.14,18.28-19.18,18.88Z"/>
      <path class="cls-7" d="m545.64,784.43c-1.43,11.04-7.37,17.66-18.75,17.24-11.2-.42-17.9-7.18-17.54-18.28.35-10.48,7.25-16.04,17.84-16.33,11.8-.32,17.07,6.46,18.45,17.37h0Z"/>
      <path class="cls-9" d="m734.1,571.09c-1.32,10.59-7.44,16.06-18.15,15.68-11.76-.42-17.27-7.35-16.6-18.68.64-10.84,7.33-16.3,17.94-15.94,11.72.4,16.75,7.53,16.81,18.94Z"/>
      <path class="cls-16" d="m691.71,751.56c-.24,10.05-5.09,16.41-15.34,16.65-11,.26-16.59-6.17-16.52-16.97.08-10.29,6.08-16.06,16.01-15.96,9.92.1,15.52,5.99,15.85,16.28h0Z"/>
      <path class="cls-20" d="m587.15,1159.74c-1.7,10.42-7.18,16.64-17.24,15.94-9.69-.67-16-6.76-15.43-16.89.55-9.9,6.95-15.85,16.89-15.42,10.05.44,14.64,7.44,15.79,16.35h0Z"/>
    </g>
  </g>
  <g>
    <polygon class="cls-18" points="1002.74 609.1 1002.74 1066.1 774.24 837.6 1002.74 609.1"/>
    <g>
      <circle class="cls-5" cx="1255.77" cy="837.6" r="333.23"/>
      <g class="cls-1">
        <g>
          <g>
            <g>
              <path id="Path_20366" data-name="Path 20366" class="cls-4" d="m1700.92,1032.43c.54,83.57-66.65,151.74-150.22,152.45-84.69-.62-152.95-69.64-152.64-154.33.54-83.61,68.75-151.02,152.37-150.49,83.61.54,151.02,68.75,150.49,152.37h0"/>
              <path id="Path_20366-2" data-name="Path 20366" class="cls-13" d="m1700.92,684.69c.54,83.57-66.65,151.74-150.22,152.45-84.69-.62-152.95-69.64-152.64-154.33.54-83.61,68.75-151.02,152.37-150.49,83.61.54,151.02,68.75,150.49,152.37h0"/>
            </g>
            <g>
              <g>
                <path id="Path_20366-3" data-name="Path 20366" class="cls-2" d="m1404.93,858.31c.54,83.57-66.65,151.74-150.22,152.45-84.69-.62-152.95-69.64-152.64-154.33.54-83.61,68.75-151.02,152.37-150.49,83.61.54,151.02,68.75,150.49,152.37h0"/>
                <path id="Path_20366-4" data-name="Path 20366" class="cls-14" d="m1404.93,510.56c.54,83.57-66.65,151.74-150.22,152.45-84.69-.62-152.95-69.64-152.64-154.33.54-83.61,68.75-151.02,152.37-150.49,83.61.54,151.02,68.75,150.49,152.37h0"/>
                <path id="Path_20366-5" data-name="Path 20366" class="cls-19" d="m1404.93,1206.05c.54,83.57-66.65,151.74-150.22,152.45-84.69-.62-152.95-69.64-152.64-154.33.54-83.61,68.75-151.02,152.37-150.49,83.61.54,151.02,68.75,150.49,152.37h0"/>
              </g>
              <g>
                <path id="Path_20366-6" data-name="Path 20366" class="cls-8" d="m1114.12,700.83c.54,83.57-66.65,151.74-150.22,152.45-84.69-.62-152.95-69.64-152.64-154.33.54-83.61,68.75-151.02,152.37-150.49,83.61.54,151.02,68.75,150.49,152.37h0"/>
                <path id="Path_20366-7" data-name="Path 20366" class="cls-10" d="m1114.12,1048.57c.54,83.57-66.65,151.74-150.22,152.45-84.69-.62-152.95-69.64-152.64-154.33.54-83.61,68.75-151.02,152.37-150.49,83.61.54,151.02,68.75,150.49,152.37h0"/>
              </g>
            </g>
          </g>
          <g>
            <path d="m1618.07,1112.13v12.92h-129.01v-12.92h129.01,0Z"/>
            <rect x="1489.06" y="1045.85" width="129.01" height="14.13"/>
            <rect x="1489.06" y="979.13" width="129.01" height="17.55"/>
            <rect x="1489.06" y="1086.91" width="129.01" height="19.56"/>
            <rect x="1489.06" y="1023.25" width="129.01" height="8.17"/>
            <rect x="1489.06" y="939.4" width="129.01" height="10.52"/>
            <rect x="1489.06" y="957.01" width="129.01" height="10.52"/>
          </g>
          <g>
            <path d="m1489.07,612v-20.49h129.01v20.49h-129.01,0Z"/>
            <path d="m1489.07,629.38v-7.6h129.01v7.6h-129.01,0Z"/>
            <rect x="1489.06" y="674.74" width="129.01" height="12.54"/>
            <rect x="1489.06" y="763.51" width="129.01" height="12.54"/>
            <rect x="1489.06" y="649.3" width="129.01" height="13.97"/>
            <rect x="1489.06" y="735.57" width="129.01" height="15.79"/>
            <rect x="1489.06" y="705.95" width="129.01" height="21.49"/>
          </g>
          <g>
            <path d="m1318.03,927v20.49h-129.01v-20.49h129.01,0Z"/>
            <path d="m1318.03,909.62v7.6h-129.01v-7.6h129.01,0Z"/>
            <rect x="1189.02" y="851.72" width="129.01" height="12.54"/>
            <rect x="1189.02" y="762.96" width="129.01" height="12.54"/>
            <rect x="1189.02" y="875.72" width="129.01" height="13.97"/>
            <rect x="1189.02" y="787.64" width="129.01" height="15.79"/>
            <rect x="1189.02" y="811.55" width="129.01" height="21.49"/>
          </g>
          <g>
            <path d="m1318.03,587.8v10.97h-129.01v-10.97h129.01,0Z"/>
            <rect x="1189.02" y="491.36" width="129.01" height="14.89"/>
            <rect x="1189.02" y="413" width="129.01" height="14.89"/>
            <rect x="1189.02" y="559.88" width="129.01" height="16.6"/>
            <rect x="1189.02" y="442.32" width="129.01" height="21.63"/>
            <rect x="1189.02" y="477.61" width="129.01" height="6.94"/>
            <rect x="1189.02" y="516.17" width="129.01" height="8.93"/>
            <rect x="1189.02" y="531.12" width="129.01" height="8.93"/>
          </g>
          <g>
            <path d="m1029.81,1159.09v10.97h-129.01v-10.97h129.01,0Z"/>
            <rect x="900.8" y="1062.64" width="129.01" height="14.89"/>
            <rect x="900.8" y="984.29" width="129.01" height="14.89"/>
            <rect x="900.8" y="1131.17" width="129.01" height="16.6"/>
            <rect x="900.8" y="1013.61" width="129.01" height="21.63"/>
            <rect x="900.8" y="1048.89" width="129.01" height="6.94"/>
            <rect x="900.8" y="1087.45" width="129.01" height="8.93"/>
            <rect x="900.8" y="1102.4" width="129.01" height="8.93"/>
          </g>
          <g>
            <path d="m1318.03,1298.28v10.97h-129.01v-10.97h129.01,0Z"/>
            <rect x="1189.02" y="1201.83" width="129.01" height="14.89"/>
            <rect x="1189.02" y="1123.48" width="129.01" height="14.89"/>
            <rect x="1189.02" y="1270.36" width="129.01" height="16.6"/>
            <rect x="1189.02" y="1152.8" width="129.01" height="21.63"/>
            <rect x="1189.02" y="1188.08" width="129.01" height="6.94"/>
            <rect x="1189.02" y="1226.64" width="129.01" height="8.93"/>
            <rect x="1189.02" y="1241.59" width="129.01" height="8.93"/>
          </g>
          <g>
            <path d="m900.81,628.03v-20.49h129.01v20.49h-129.01,0Z"/>
            <path d="m900.81,645.41v-7.6h129.01v7.6h-129.01,0Z"/>
            <rect x="900.8" y="690.76" width="129.01" height="12.54"/>
            <rect x="900.8" y="779.53" width="129.01" height="12.54"/>
            <rect x="900.8" y="665.33" width="129.01" height="13.97"/>
            <rect x="900.8" y="751.6" width="129.01" height="15.79"/>
            <rect x="900.8" y="721.98" width="129.01" height="21.49"/>
          </g>
        </g>
      </g>
      <circle class="cls-21" cx="1255.77" cy="837.6" r="333.23"/>
    </g>
  </g>
</svg>