<?xml version="1.0" encoding="UTF-8"?>
<svg id="Layer_1" data-name="Layer 1" xmlns="http://www.w3.org/2000/svg" viewBox="0 0 235.43 357.78">
  <defs>
    <style>
      .cls-1 {
        fill: none;
        stroke-width: 1.5px;
      }

      .cls-1, .cls-2 {
        stroke: #221f20;
        stroke-miterlimit: 10;
      }

      .cls-3 {
        fill: #f8b79d;
      }

      .cls-4 {
        fill: #f88e72;
      }

      .cls-5 {
        fill: #fa6a4a;
      }

      .cls-6 {
        fill: #eef2ff;
      }

      .cls-7 {
        fill: #ebefff;
      }

      .cls-8 {
        fill: #f76a4a;
      }

      .cls-9 {
        fill: #eb3b2b;
      }

      .cls-10 {
        fill: #fff;
      }

      .cls-11 {
        fill: #fae1d5;
      }

      .cls-12 {
        fill: #fbad90;
      }

      .cls-13 {
        fill: #fde4d8;
      }

      .cls-14 {
        fill: #931321;
      }

      .cls-15 {
        fill: #82172d;
      }

      .cls-16 {
        fill: #6baad2;
      }

      .cls-17 {
        fill: #6badd5;
      }

      .cls-18 {
        fill: #c2d7eb;
      }

      .cls-19 {
        fill: #95020e;
      }

      .cls-20 {
        fill: #b76d7a;
      }

      .cls-21 {
        fill: #996477;
      }

      .cls-22 {
        fill: #3281bc;
      }

      .cls-23 {
        fill: #8e3d52;
      }

      .cls-24 {
        fill: #32316a;
      }

      .cls-25 {
        fill: #a5899c;
      }

      .cls-26 {
        fill: #bcd6e6;
      }

      .cls-27 {
        fill: #b0b0c1;
      }

      .cls-28 {
        fill: #a5404d;
      }

      .cls-29 {
        fill: #ca98a5;
      }

      .cls-30 {
        fill: #dd2d26;
      }

      .cls-31 {
        fill: #c7191c;
      }

      .cls-32 {
        fill: #dcc5d2;
      }

      .cls-33 {
        fill: #2071b1;
      }

      .cls-34, .cls-2 {
        fill: #221f20;
      }

      .cls-35 {
        fill: #233877;
      }

      .cls-36 {
        fill: #418ec2;
      }

      .cls-37 {
        fill: #402b5d;
      }

      .cls-38 {
        fill: #064590;
      }

      .cls-39 {
        fill: #153e83;
      }

      .cls-40 {
        fill: #445b8c;
      }

      .cls-41 {
        fill: #a40f15;
      }

      .cls-42 {
        fill: #9ac6dd;
      }

      .cls-43 {
        fill: #703958;
      }

      .cls-44 {
        fill: #6f5677;
      }

      .cls-45 {
        fill: #711c38;
      }

      .cls-46 {
        fill: #6d7496;
      }

      .cls-47 {
        fill: #6c90b5;
      }

      .cls-48 {
        fill: #57345c;
      }

      .cls-49 {
        fill: #3b6ea4;
      }

      .cls-50 {
        fill: #602044;
      }

      .cls-51 {
        fill: #4f2450;
      }

      .cls-52 {
        fill: #4e4774;
      }

      .cls-2 {
        stroke-width: .5px;
      }
    </style>
  </defs>
  <g>
    <rect class="cls-38" x="42.28" y="171.93" width="25.8" height="25.03"/>
    <rect class="cls-6" x="42.28" y="272.04" width="25.8" height="25.03"/>
    <rect class="cls-26" x="42.28" y="247.02" width="25.8" height="25.03"/>
    <rect class="cls-17" x="42.28" y="221.99" width="25.8" height="25.03"/>
    <rect class="cls-22" x="42.28" y="196.96" width="25.8" height="25.03"/>
  </g>
  <g>
    <rect class="cls-13" x="75.21" y="305.52" width="25.03" height="25.28"/>
    <rect class="cls-12" x="100.24" y="305.52" width="25.03" height="25.28"/>
    <rect class="cls-5" x="125.27" y="305.52" width="25.03" height="25.28"/>
    <rect class="cls-30" x="150.3" y="305.52" width="25.03" height="25.28"/>
    <rect class="cls-41" x="175.32" y="305.52" width="25.03" height="25.28"/>
  </g>
  <g>
    <rect class="cls-51" x="176.15" y="171.68" width="25.03" height="25.03"/>
    <rect class="cls-37" x="151.13" y="171.93" width="25.03" height="25.03"/>
    <rect class="cls-24" x="126.1" y="171.93" width="25.03" height="25.03"/>
    <rect class="cls-35" x="101.07" y="171.93" width="25.03" height="25.03"/>
    <rect class="cls-39" x="76.04" y="171.93" width="25.03" height="25.03"/>
    <rect class="cls-32" x="76.04" y="272.04" width="25.03" height="25.03"/>
    <rect class="cls-29" x="101.06" y="272.04" width="25.03" height="25.03"/>
    <rect class="cls-20" x="126.09" y="272.04" width="25.03" height="25.03"/>
    <rect class="cls-28" x="151.12" y="272.04" width="25.03" height="25.03"/>
    <rect class="cls-14" x="176.15" y="272.04" width="25.03" height="25.03"/>
    <rect class="cls-27" x="76.04" y="247.05" width="25.03" height="25.03"/>
    <rect class="cls-25" x="101.07" y="247.05" width="25.03" height="25.03"/>
    <rect class="cls-21" x="126.09" y="247.05" width="25.03" height="25.03"/>
    <rect class="cls-23" x="151.12" y="247.05" width="25.03" height="25.03"/>
    <rect class="cls-15" x="176.15" y="247.05" width="25.03" height="25.03"/>
    <rect class="cls-47" x="76.04" y="222.01" width="25.03" height="25.03"/>
    <rect class="cls-46" x="101.07" y="222.01" width="25.03" height="25.03"/>
    <rect class="cls-44" x="126.09" y="222.01" width="25.03" height="25.03"/>
    <rect class="cls-43" x="151.12" y="222.01" width="25.03" height="25.03"/>
    <rect class="cls-45" x="176.15" y="222.01" width="25.03" height="25.03"/>
    <rect class="cls-49" x="76.04" y="196.97" width="25.03" height="25.03"/>
    <rect class="cls-40" x="101.07" y="196.97" width="25.03" height="25.03"/>
    <rect class="cls-52" x="126.1" y="196.97" width="25.03" height="25.03"/>
    <rect class="cls-48" x="151.12" y="196.97" width="25.03" height="25.03"/>
    <rect class="cls-50" x="176.15" y="196.97" width="25.03" height="25.03"/>
    <rect class="cls-51" x="176.15" y="171.93" width="25.03" height="25.03"/>
  </g>
  <g>
    <path class="cls-10" d="m108.2,188.88c-.66,0-1.26-.14-1.79-.43-.53-.29-.95-.71-1.26-1.26-.31-.56-.46-1.23-.46-2.04s.16-1.49.47-2.05.73-.98,1.26-1.26,1.12-.43,1.77-.43c.46,0,.88.06,1.27.19s.73.31,1.02.55c.29.24.53.54.7.89s.28.75.32,1.2h-2c-.01-.17-.05-.32-.11-.45-.06-.14-.14-.25-.25-.35-.11-.1-.23-.17-.38-.23-.15-.05-.32-.08-.51-.08-.33,0-.61.08-.84.24-.23.16-.4.39-.52.69s-.18.66-.18,1.09.06.81.18,1.11.29.52.52.67c.23.15.5.22.82.22.18,0,.34-.02.49-.07s.27-.11.38-.2.19-.19.26-.32c.07-.12.11-.26.13-.42h2c-.02.31-.11.62-.26.94-.15.32-.36.62-.63.88-.28.27-.61.48-1.02.65-.4.16-.87.25-1.4.25Z"/>
    <path class="cls-10" d="m114.83,188.88c-.59,0-1.1-.12-1.52-.35-.42-.24-.74-.56-.97-.99-.22-.42-.33-.91-.33-1.47s.11-1.05.33-1.47c.22-.42.55-.75.97-.99.42-.24.93-.35,1.52-.35s1.1.12,1.52.35c.42.24.74.56.97.99.22.42.33.91.33,1.47s-.11,1.05-.33,1.47c-.22.42-.55.75-.97.99-.42.24-.93.35-1.52.35Zm0-1.46c.17,0,.31-.05.43-.16s.21-.26.28-.47.1-.45.1-.73-.03-.53-.1-.73-.16-.35-.28-.45-.27-.16-.43-.16-.32.05-.45.16c-.12.1-.22.26-.29.45s-.1.44-.1.73.03.53.1.73.16.36.29.47c.13.11.27.16.45.16Z"/>
    <path class="cls-10" d="m118.22,188.79v-5.46h1.86v1.04h.06c.11-.34.31-.61.59-.81s.6-.3.98-.3.72.1,1,.31.44.47.5.81h.06c.09-.34.29-.6.59-.81.3-.2.66-.31,1.06-.31.52,0,.94.17,1.27.5s.49.78.49,1.34v3.68h-1.96v-3.18c0-.24-.06-.42-.18-.56s-.28-.2-.48-.2-.36.07-.48.2-.18.32-.18.56v3.18h-1.88v-3.18c0-.24-.06-.42-.18-.56s-.28-.2-.48-.2c-.14,0-.25.03-.35.09s-.17.15-.22.26-.08.25-.08.41v3.18h-1.96Z"/>
    <path class="cls-10" d="m130.92,188.85c-.25,0-.48-.04-.68-.13-.2-.08-.37-.2-.51-.34s-.25-.31-.32-.5h-.05v.9h-1.94v-7.28h1.96v2.77h.03c.07-.19.18-.36.31-.51s.31-.28.51-.37c.2-.09.44-.14.71-.14.36,0,.7.1,1.03.29.32.19.59.49.79.91s.31.95.31,1.61-.1,1.15-.29,1.56-.46.72-.78.93-.68.31-1.07.31Zm-.72-1.5c.18,0,.34-.05.46-.15.13-.1.22-.25.29-.44.07-.19.1-.42.1-.69s-.03-.5-.1-.7c-.07-.19-.16-.34-.29-.45-.12-.1-.28-.16-.46-.16s-.33.05-.46.16-.23.25-.3.45c-.07.19-.11.43-.11.7s.04.49.11.68c.07.19.17.34.3.45s.29.16.46.16Z"/>
    <path class="cls-10" d="m133.64,188.79v-5.46h1.96v5.46h-1.96Zm.98-6.02c-.27,0-.5-.09-.68-.26s-.28-.39-.28-.63.09-.46.28-.64.42-.26.68-.26.5.09.68.26.28.38.28.63-.09.46-.28.64-.42.26-.68.26Z"/>
    <path class="cls-10" d="m138.33,185.72v3.07h-1.96v-5.46h1.94v1.04h.04c.12-.35.32-.62.59-.82.27-.2.61-.3,1.02-.3s.72.09,1.01.26c.29.18.51.42.66.73s.23.66.23,1.06v3.48h-1.96v-3.07c0-.27-.07-.48-.21-.64s-.33-.23-.58-.23c-.16,0-.3.04-.42.1-.12.07-.21.17-.28.3s-.1.28-.1.47Z"/>
    <path class="cls-10" d="m144.15,188.87c-.35,0-.66-.06-.93-.17-.27-.12-.48-.29-.63-.52s-.22-.53-.22-.89c0-.3.05-.56.15-.77s.24-.38.42-.52.39-.24.64-.31c.24-.07.51-.12.79-.14.31-.02.55-.05.73-.08.18-.03.32-.08.4-.14.08-.06.12-.15.12-.25v-.02c0-.14-.05-.25-.16-.32s-.25-.11-.42-.11c-.19,0-.34.04-.46.12s-.19.21-.21.38h-1.8c.02-.33.13-.64.31-.92.19-.28.46-.5.83-.67.36-.17.82-.25,1.36-.25.39,0,.74.05,1.04.14s.57.22.79.38.38.35.5.57c.12.22.17.45.17.7v3.74h-1.84v-.77h-.04c-.11.21-.24.37-.4.5-.15.13-.33.22-.52.28s-.41.09-.65.09Zm.63-1.24c.15,0,.29-.03.42-.09.13-.06.24-.15.32-.27.08-.12.12-.26.12-.42v-.45c-.05.02-.11.04-.17.06s-.12.04-.19.05c-.07.02-.14.03-.21.04-.07.01-.14.03-.22.04-.15.02-.28.06-.37.11-.1.05-.17.12-.21.2s-.07.16-.07.26c0,.15.05.27.16.35.11.08.24.12.41.12Z"/>
    <path class="cls-10" d="m151.61,183.33v1.43h-3.59v-1.43h3.59Zm-2.9-1.3h1.96v5c0,.11.03.2.09.26s.15.09.28.09c.06,0,.13,0,.21-.02.08-.01.14-.03.17-.04l.28,1.39c-.22.06-.43.11-.61.13s-.36.04-.54.04c-.61,0-1.07-.14-1.38-.42-.31-.28-.47-.69-.47-1.24v-5.19Z"/>
    <path class="cls-10" d="m152.17,188.79v-5.46h1.96v5.46h-1.96Zm.98-6.02c-.27,0-.5-.09-.68-.26s-.28-.39-.28-.63.09-.46.28-.64.42-.26.68-.26.5.09.68.26.28.38.28.63-.09.46-.28.64-.42.26-.68.26Z"/>
    <path class="cls-10" d="m157.53,188.88c-.59,0-1.1-.12-1.52-.35-.42-.24-.74-.56-.97-.99-.22-.42-.33-.91-.33-1.47s.11-1.05.33-1.47c.22-.42.55-.75.97-.99.42-.24.93-.35,1.52-.35s1.1.12,1.52.35c.42.24.74.56.97.99.22.42.33.91.33,1.47s-.11,1.05-.33,1.47c-.22.42-.55.75-.97.99-.42.24-.93.35-1.52.35Zm0-1.46c.17,0,.31-.05.43-.16s.21-.26.28-.47.1-.45.1-.73-.03-.53-.1-.73-.16-.35-.28-.45-.27-.16-.43-.16-.32.05-.45.16c-.12.1-.22.26-.29.45s-.1.44-.1.73.03.53.1.73.16.36.29.47c.13.11.27.16.45.16Z"/>
    <path class="cls-10" d="m162.88,185.72v3.07h-1.96v-5.46h1.94v1.04h.04c.12-.35.32-.62.59-.82.27-.2.61-.3,1.02-.3s.72.09,1.01.26c.29.18.51.42.66.73s.23.66.23,1.06v3.48h-1.96v-3.07c0-.27-.07-.48-.21-.64s-.33-.23-.58-.23c-.16,0-.3.04-.42.1-.12.07-.21.17-.28.3s-.1.28-.1.47Z"/>
    <path class="cls-10" d="m170.88,188.85c-.39,0-.74-.1-1.07-.31-.33-.2-.59-.51-.78-.93s-.29-.93-.29-1.56c0-.66.1-1.2.31-1.61s.47-.71.8-.91.67-.29,1.03-.29c.27,0,.51.05.71.14.2.09.37.22.51.37.14.16.24.33.31.51h.03v-2.77h1.96v7.28h-1.94v-.9h-.05c-.08.19-.18.35-.32.5s-.31.26-.51.34-.43.13-.68.13Zm.72-1.5c.18,0,.33-.05.46-.16s.23-.25.3-.45c.07-.19.11-.42.11-.68s-.04-.5-.11-.7c-.07-.19-.17-.34-.3-.45s-.29-.16-.46-.16-.33.05-.46.16-.22.25-.29.45c-.07.19-.1.43-.1.7s.03.5.1.69c.07.19.16.34.29.44s.28.15.46.15Z"/>
    <path class="cls-10" d="m177.78,188.88c-.59,0-1.1-.12-1.52-.35-.42-.24-.74-.56-.97-.99-.22-.42-.33-.91-.33-1.47s.11-1.05.33-1.47c.22-.42.55-.75.97-.99.42-.24.93-.35,1.52-.35s1.1.12,1.52.35c.42.24.74.56.97.99.22.42.33.91.33,1.47s-.11,1.05-.33,1.47c-.22.42-.55.75-.97.99-.42.24-.93.35-1.52.35Zm0-1.46c.17,0,.31-.05.43-.16s.21-.26.28-.47.1-.45.1-.73-.03-.53-.1-.73-.16-.35-.28-.45-.27-.16-.43-.16-.32.05-.45.16c-.12.1-.22.26-.29.45s-.1.44-.1.73.03.53.1.73.16.36.29.47c.13.11.27.16.45.16Z"/>
    <path class="cls-10" d="m186.15,185.1h-1.8c-.01-.17-.09-.3-.24-.39-.15-.1-.31-.14-.51-.14-.17,0-.31.03-.43.09s-.18.15-.18.26c0,.08.04.16.11.23.07.07.21.13.41.16l1.11.2c.56.1.97.27,1.25.51.27.24.41.56.41.97s-.11.73-.34,1.01-.54.5-.94.66c-.39.15-.84.23-1.35.23-.83,0-1.49-.17-1.96-.51-.47-.34-.73-.79-.79-1.35h1.94c.03.17.12.31.26.4s.33.14.55.14c.18,0,.33-.03.45-.09s.18-.15.18-.26c0-.19-.21-.33-.62-.4l-.97-.18c-.55-.1-.97-.29-1.25-.55s-.42-.62-.42-1.05c0-.38.1-.7.3-.97.2-.26.49-.46.87-.6.38-.14.83-.21,1.35-.21.79,0,1.41.16,1.86.49.45.33.69.78.71,1.35Z"/>
    <path class="cls-10" d="m189.43,188.88c-.58,0-1.08-.11-1.51-.33-.42-.22-.75-.54-.97-.96s-.34-.92-.34-1.51.11-1.06.34-1.48c.23-.42.55-.75.96-.98s.9-.35,1.46-.35c.41,0,.79.06,1.12.19.33.13.62.31.86.56s.42.54.55.88.19.74.19,1.17v.45h-4.87v-1.07h3.96l-.92.22c0-.22-.03-.41-.1-.56s-.16-.27-.29-.35-.29-.12-.47-.12-.35.04-.47.12-.22.2-.29.35-.1.34-.1.56v.78c0,.21.04.4.12.56.08.16.18.28.32.37s.3.13.49.13c.13,0,.25-.02.36-.06.11-.04.2-.09.28-.16s.14-.16.18-.26h1.79c-.06.38-.21.71-.43.98-.23.28-.53.49-.9.64-.37.15-.81.23-1.32.23Z"/>
  </g>
  <path class="cls-34" d="m113.15,125.76l1.46-1.47,3.04,3.05v-12.2h2.13v12.2l3.05-3.05,1.44,1.47-5.56,5.56-5.57-5.56Z"/>
  <g>
    <g>
      <g>
        <rect class="cls-11" x="64.14" y="80.89" width="19.78" height="19.78"/>
        <rect class="cls-3" x="83.92" y="80.89" width="19.78" height="19.78"/>
        <rect class="cls-4" x="103.7" y="80.89" width="19.78" height="19.78"/>
        <rect class="cls-8" x="123.49" y="80.89" width="19.78" height="19.78"/>
        <rect class="cls-9" x="143.27" y="80.89" width="19.78" height="19.78"/>
        <rect class="cls-31" x="163.05" y="80.89" width="19.78" height="19.78"/>
        <rect class="cls-19" x="182.83" y="80.89" width="19.78" height="19.78"/>
      </g>
      <rect class="cls-1" x="63.53" y="80.89" width="138.47" height="19.78"/>
    </g>
    <g>
      <path class="cls-34" d="m66.84,112.43c-.63,0-1.18-.09-1.65-.28-.47-.19-.84-.48-1.1-.87s-.39-.89-.4-1.5h1.88c.01.22.07.41.17.56.1.15.24.27.42.35.18.08.4.12.65.12.21,0,.39-.03.53-.08s.25-.12.33-.22c.07-.09.11-.2.11-.32,0-.11-.04-.21-.11-.29-.07-.08-.18-.16-.34-.23s-.37-.13-.64-.19l-.73-.16c-.64-.14-1.15-.37-1.52-.7-.37-.33-.55-.78-.55-1.35,0-.46.12-.87.38-1.21s.6-.62,1.04-.81c.44-.19.95-.29,1.53-.29s1.1.1,1.53.3c.43.2.76.47.99.83.23.36.35.77.35,1.25h-1.89c-.02-.24-.1-.42-.26-.55-.16-.13-.4-.2-.71-.2-.2,0-.37.02-.5.07s-.23.11-.29.2-.09.18-.09.29c0,.11.03.21.1.3.07.09.17.16.32.22.14.06.33.12.56.17l.6.13c.4.08.74.2,1.03.34.29.14.52.3.71.49.18.19.32.4.41.63.09.23.13.49.13.77,0,.48-.12.88-.35,1.22-.24.33-.57.59-1.01.76s-.97.26-1.58.26Z"/>
      <path class="cls-34" d="m73.59,106.88v1.43h-3.59v-1.43h3.59Zm-2.9-1.3h1.96v5c0,.11.03.2.09.26s.15.09.28.09c.06,0,.13,0,.21-.02.08-.01.14-.03.17-.04l.28,1.39c-.22.06-.43.11-.61.13s-.36.04-.54.04c-.61,0-1.07-.14-1.38-.42-.31-.28-.47-.69-.47-1.24v-5.19Z"/>
      <path class="cls-34" d="m74.16,112.34v-5.46h1.9v1.04h.06c.1-.39.25-.67.47-.85.22-.18.47-.27.76-.27.08,0,.17,0,.25.02s.17.03.24.06v1.67c-.1-.04-.22-.06-.36-.08-.14-.01-.26-.02-.36-.02-.19,0-.36.04-.52.13s-.27.21-.36.36c-.09.15-.13.34-.13.54v2.84h-1.96Z"/>
      <path class="cls-34" d="m80.57,112.44c-.59,0-1.1-.12-1.52-.35-.42-.24-.74-.56-.97-.99-.22-.42-.33-.91-.33-1.47s.11-1.05.33-1.47c.22-.42.55-.75.97-.99.42-.24.93-.35,1.52-.35s1.1.12,1.52.35c.42.24.74.56.97.99.22.42.33.91.33,1.47s-.11,1.05-.33,1.47c-.22.42-.55.75-.97.99-.42.24-.93.35-1.52.35Zm0-1.46c.17,0,.31-.05.43-.16s.21-.26.28-.47.1-.45.1-.73-.03-.53-.1-.73-.16-.35-.28-.45-.27-.16-.43-.16-.32.05-.45.16c-.12.1-.22.26-.29.45s-.1.44-.1.73.03.53.1.73.16.36.29.47c.13.11.27.16.45.16Z"/>
      <path class="cls-34" d="m85.92,109.27v3.07h-1.96v-5.46h1.94v1.04h.04c.12-.35.32-.62.59-.82.27-.2.61-.3,1.02-.3s.72.09,1.01.26c.29.18.51.42.66.73s.23.66.23,1.06v3.48h-1.96v-3.07c0-.27-.07-.48-.21-.64s-.33-.23-.58-.23c-.16,0-.3.04-.42.1-.12.07-.21.17-.28.3s-.1.28-.1.47Z"/>
      <path class="cls-34" d="m92.83,114.5c-.82,0-1.46-.17-1.92-.51-.46-.34-.71-.77-.74-1.3h1.88c.02.12.07.21.14.28s.17.12.29.16.26.05.41.05c.25,0,.46-.06.63-.19s.25-.35.25-.66v-.93h-.06c-.07.18-.18.34-.32.47-.15.13-.33.23-.53.3s-.43.1-.68.1c-.39,0-.74-.09-1.07-.27s-.59-.47-.78-.86c-.2-.39-.29-.9-.29-1.53,0-.66.1-1.2.31-1.61.21-.41.47-.71.8-.91s.67-.29,1.03-.29c.27,0,.51.05.71.14s.38.22.52.37c.14.16.25.33.32.51h.04v-.96h1.94v5.45c0,.46-.12.85-.36,1.17-.24.32-.57.57-1,.74s-.93.25-1.51.25Zm.07-3.62c.27,0,.48-.11.64-.33.16-.22.23-.53.23-.93,0-.27-.04-.5-.11-.7-.07-.19-.17-.34-.3-.45-.13-.1-.28-.16-.47-.16s-.33.05-.46.16-.22.25-.29.45c-.07.19-.1.43-.1.7s.03.49.1.68c.07.19.16.33.29.43s.28.15.46.15Z"/>
    </g>
  </g>
  <g>
    <path class="cls-34" d="m27.58,70.13c-.63,0-1.18-.09-1.65-.28-.47-.19-.84-.48-1.1-.87s-.39-.89-.4-1.5h1.88c.01.22.07.41.17.56.1.15.24.27.42.35.18.08.4.12.65.12.21,0,.39-.03.53-.08s.25-.12.33-.22c.07-.09.11-.2.11-.32,0-.11-.04-.21-.11-.29-.07-.08-.18-.16-.34-.23s-.37-.13-.64-.19l-.73-.16c-.64-.14-1.15-.37-1.52-.7-.37-.33-.55-.78-.55-1.35,0-.46.12-.87.38-1.21s.6-.62,1.04-.81c.44-.19.95-.29,1.53-.29s1.1.1,1.53.3c.43.2.76.47.99.83.23.36.35.77.35,1.25h-1.89c-.02-.24-.1-.42-.26-.55-.16-.13-.4-.2-.71-.2-.2,0-.37.02-.5.07s-.23.11-.29.2-.09.18-.09.29c0,.11.03.21.1.3.07.09.17.16.32.22.14.06.33.12.56.17l.6.13c.4.08.74.2,1.03.34.29.14.52.3.71.49.18.19.32.4.41.63.09.23.13.49.13.77,0,.48-.12.88-.35,1.22-.24.33-.57.59-1.01.76s-.97.26-1.58.26Z"/>
    <path class="cls-34" d="m34.33,64.58v1.43h-3.59v-1.43h3.59Zm-2.9-1.3h1.96v5c0,.11.03.2.09.26s.15.09.28.09c.06,0,.13,0,.21-.02.08-.01.14-.03.17-.04l.28,1.39c-.22.06-.43.11-.61.13s-.36.04-.54.04c-.61,0-1.07-.14-1.38-.42-.31-.28-.47-.69-.47-1.24v-5.19Z"/>
    <path class="cls-34" d="m34.9,70.04v-5.46h1.9v1.04h.06c.1-.39.25-.67.47-.85.22-.18.47-.27.76-.27.08,0,.17,0,.25.02s.17.03.24.06v1.67c-.1-.04-.22-.06-.36-.08-.14-.01-.26-.02-.36-.02-.19,0-.36.04-.52.13s-.27.21-.36.36c-.09.15-.13.34-.13.54v2.84h-1.96Z"/>
    <path class="cls-34" d="m41.31,70.14c-.59,0-1.1-.12-1.52-.35-.42-.24-.74-.56-.97-.99-.22-.42-.33-.91-.33-1.47s.11-1.05.33-1.47c.22-.42.55-.75.97-.99.42-.24.93-.35,1.52-.35s1.1.12,1.52.35c.42.24.74.56.97.99.22.42.33.91.33,1.47s-.11,1.05-.33,1.47c-.22.42-.55.75-.97.99-.42.24-.93.35-1.52.35Zm0-1.46c.17,0,.31-.05.43-.16s.21-.26.28-.47.1-.45.1-.73-.03-.53-.1-.73-.16-.35-.28-.45-.27-.16-.43-.16-.32.05-.45.16c-.12.1-.22.26-.29.45s-.1.44-.1.73.03.53.1.73.16.36.29.47c.13.11.27.16.45.16Z"/>
    <path class="cls-34" d="m46.66,66.98v3.07h-1.96v-5.46h1.94v1.04h.04c.12-.35.32-.62.59-.82.27-.2.61-.3,1.02-.3s.72.09,1.01.26c.29.18.51.42.66.73s.23.66.23,1.06v3.48h-1.96v-3.07c0-.27-.07-.48-.21-.64s-.33-.23-.58-.23c-.16,0-.3.04-.42.1-.12.07-.21.17-.28.3s-.1.28-.1.47Z"/>
    <path class="cls-34" d="m53.57,72.2c-.82,0-1.46-.17-1.92-.51-.46-.34-.71-.77-.74-1.3h1.88c.02.12.07.21.14.28s.17.12.29.16.26.05.41.05c.25,0,.46-.06.63-.19s.25-.35.25-.66v-.93h-.06c-.07.18-.18.34-.32.47-.15.13-.33.23-.53.3s-.43.1-.68.1c-.39,0-.74-.09-1.07-.27s-.59-.47-.78-.86c-.2-.39-.29-.9-.29-1.53,0-.66.1-1.2.31-1.61.21-.41.47-.71.8-.91s.67-.29,1.03-.29c.27,0,.51.05.71.14s.38.22.52.37c.14.16.25.33.32.51h.04v-.96h1.94v5.45c0,.46-.12.85-.36,1.17-.24.32-.57.57-1,.74s-.93.25-1.51.25Zm.07-3.62c.27,0,.48-.11.64-.33.16-.22.23-.53.23-.93,0-.27-.04-.5-.11-.7-.07-.19-.17-.34-.3-.45-.13-.1-.28-.16-.47-.16s-.33.05-.46.16-.22.25-.29.45c-.07.19-.1.43-.1.7s.03.49.1.68c.07.19.16.33.29.43s.28.15.46.15Z"/>
    <path class="cls-34" d="m61.17,70.16c-.46,0-.86-.12-1.21-.35s-.62-.56-.82-.98-.29-.93-.29-1.5.1-1.07.29-1.49c.2-.42.47-.75.82-.98s.75-.34,1.21-.34c.36,0,.64.06.85.18.21.12.37.25.48.4s.2.27.26.36h.07v-2.69h.83v7.28h-.8v-.84h-.1c-.06.1-.15.22-.26.37s-.28.29-.49.41c-.21.12-.49.18-.84.18Zm.11-.75c.34,0,.62-.09.85-.27s.41-.42.53-.74.18-.68.18-1.09-.06-.77-.18-1.08-.29-.55-.53-.72c-.23-.17-.52-.26-.86-.26s-.64.09-.88.27-.41.43-.53.74-.18.66-.18,1.04.06.74.18,1.05c.12.32.3.57.53.75s.53.28.87.28Z"/>
    <path class="cls-34" d="m65.15,63.68c-.16,0-.3-.06-.42-.17s-.18-.24-.18-.4.06-.29.18-.4.26-.17.42-.17.3.06.42.17.18.24.18.4-.06.29-.18.4-.26.17-.42.17Zm-.42,6.37v-5.46h.83v5.46h-.83Z"/>
    <path class="cls-34" d="m69.06,64.58v.71h-2.94v-.71h2.94Zm-2.06,5.46v-6.21c0-.31.07-.57.22-.78.15-.21.34-.36.57-.47s.48-.16.74-.16c.21,0,.38.02.51.05.13.03.23.07.29.1l-.24.72s-.1-.04-.17-.06c-.07-.02-.17-.03-.29-.03-.28,0-.48.07-.6.21-.12.14-.19.35-.19.62v6.01h-.83Z"/>
    <path class="cls-34" d="m72.19,64.58v.71h-2.94v-.71h2.94Zm-2.06,5.46v-6.21c0-.31.07-.57.22-.78.15-.21.34-.36.57-.47s.48-.16.74-.16c.21,0,.38.02.51.05.13.03.23.07.29.1l-.24.72s-.1-.04-.17-.06c-.07-.02-.17-.03-.29-.03-.28,0-.48.07-.6.21-.12.14-.19.35-.19.62v6.01h-.83Z"/>
    <path class="cls-34" d="m74.97,70.16c-.52,0-.98-.12-1.36-.35-.38-.23-.68-.56-.88-.98s-.31-.91-.31-1.47.1-1.05.3-1.48.49-.76.85-1c.37-.24.8-.36,1.29-.36.28,0,.56.05.84.14s.53.25.76.46c.23.21.41.49.55.84s.21.78.21,1.28v.36h-4.21v-.72h3.75l-.39.27c0-.36-.06-.69-.17-.97s-.28-.51-.51-.67c-.23-.16-.51-.24-.84-.24s-.62.08-.86.25c-.24.16-.42.38-.55.64s-.19.55-.19.85v.48c0,.41.07.76.21,1.05s.34.5.6.65.55.22.89.22c.22,0,.42-.03.6-.1s.33-.16.46-.29.23-.29.3-.48l.81.23c-.08.27-.23.51-.43.72-.2.21-.45.37-.74.48s-.63.17-1,.17Z"/>
    <path class="cls-34" d="m78.01,70.04v-5.46h.8v.83h.06c.1-.27.28-.49.54-.66.26-.17.56-.25.88-.25.06,0,.14,0,.23,0s.16,0,.21,0v.85s-.09-.02-.2-.03-.21-.02-.32-.02c-.26,0-.5.06-.71.17s-.37.26-.49.45c-.12.19-.18.41-.18.66v3.45h-.83Z"/>
    <path class="cls-34" d="m83.38,70.16c-.52,0-.98-.12-1.36-.35-.38-.23-.68-.56-.88-.98s-.31-.91-.31-1.47.1-1.05.3-1.48.49-.76.85-1c.37-.24.8-.36,1.29-.36.28,0,.56.05.84.14s.53.25.76.46c.23.21.41.49.55.84s.21.78.21,1.28v.36h-4.21v-.72h3.75l-.39.27c0-.36-.06-.69-.17-.97s-.28-.51-.51-.67c-.23-.16-.51-.24-.84-.24s-.62.08-.86.25c-.24.16-.42.38-.55.64s-.19.55-.19.85v.48c0,.41.07.76.21,1.05s.34.5.6.65.55.22.89.22c.22,0,.42-.03.6-.1s.33-.16.46-.29.23-.29.3-.48l.81.23c-.08.27-.23.51-.43.72-.2.21-.45.37-.74.48s-.63.17-1,.17Z"/>
    <path class="cls-34" d="m87.26,66.76v3.28h-.83v-5.46h.8v.86h.08c.13-.28.32-.5.58-.67s.6-.25,1.01-.25c.37,0,.69.07.97.22s.49.38.65.68c.16.3.23.69.23,1.15v3.47h-.83v-3.41c0-.43-.11-.76-.34-1s-.53-.36-.92-.36c-.27,0-.51.06-.72.18s-.38.29-.5.51c-.12.22-.18.49-.18.81Z"/>
    <path class="cls-34" d="m94.18,64.58v.71h-2.82v-.71h2.82Zm-2-1.3h.83v5.2c0,.28.06.49.18.62s.3.2.56.2c.06,0,.11,0,.17,0,.06,0,.13-.02.2-.03l.18.75c-.08.03-.17.05-.29.07-.11.02-.23.03-.34.03-.44,0-.8-.13-1.07-.39-.27-.26-.41-.6-.41-1.02v-5.42Z"/>
    <path class="cls-34" d="m95.41,63.68c-.16,0-.3-.06-.42-.17s-.18-.24-.18-.4.06-.29.18-.4.26-.17.42-.17.3.06.42.17.18.24.18.4-.06.29-.18.4-.26.17-.42.17Zm-.42,6.37v-5.46h.83v5.46h-.83Z"/>
    <path class="cls-34" d="m98.49,70.17c-.34,0-.66-.07-.94-.2s-.51-.32-.67-.57-.25-.55-.25-.91c0-.31.06-.57.19-.76s.29-.35.5-.46c.21-.11.43-.2.68-.25.25-.06.5-.1.75-.13.33-.04.6-.07.81-.1.21-.02.36-.06.45-.12.1-.06.14-.15.14-.28v-.03c0-.35-.1-.62-.29-.81-.19-.19-.48-.29-.87-.29s-.71.09-.94.26-.39.36-.48.56l-.8-.28c.14-.33.33-.59.57-.78.24-.19.5-.32.78-.39.28-.07.56-.11.83-.11.18,0,.38.02.61.06s.45.13.67.25c.22.13.4.32.54.58.14.26.21.6.21,1.04v3.59h-.84v-.74h-.04c-.06.12-.15.24-.28.38s-.31.25-.53.35c-.22.1-.49.14-.81.14Zm.13-.75c.33,0,.61-.06.84-.2s.4-.3.52-.51.18-.42.18-.65v-.77s-.11.08-.23.11c-.12.03-.25.06-.41.09-.15.03-.3.05-.45.07s-.26.03-.35.04c-.22.03-.42.08-.61.14s-.34.16-.46.28c-.12.12-.17.29-.17.51,0,.29.11.51.32.66.22.15.49.22.83.22Z"/>
    <path class="cls-34" d="m102.9,62.77v7.28h-.83v-7.28h.83Z"/>
    <path class="cls-34" d="m110.77,64.58l-2.01,5.46h-.86l-2.01-5.46h.91l1.5,4.36h.06l1.5-4.36h.91Z"/>
    <path class="cls-34" d="m111.83,63.68c-.16,0-.3-.06-.42-.17s-.18-.24-.18-.4.06-.29.18-.4.26-.17.42-.17.3.06.42.17.18.24.18.4-.06.29-.18.4-.26.17-.42.17Zm-.42,6.37v-5.46h.83v5.46h-.83Z"/>
    <path class="cls-34" d="m114.92,70.17c-.34,0-.66-.07-.94-.2s-.51-.32-.67-.57-.25-.55-.25-.91c0-.31.06-.57.19-.76s.29-.35.5-.46c.21-.11.43-.2.68-.25.25-.06.5-.1.75-.13.33-.04.6-.07.81-.1.21-.02.36-.06.45-.12.1-.06.14-.15.14-.28v-.03c0-.35-.1-.62-.29-.81-.19-.19-.48-.29-.87-.29s-.71.09-.94.26-.39.36-.48.56l-.8-.28c.14-.33.33-.59.57-.78.24-.19.5-.32.78-.39.28-.07.56-.11.83-.11.18,0,.38.02.61.06s.45.13.67.25c.22.13.4.32.54.58.14.26.21.6.21,1.04v3.59h-.84v-.74h-.04c-.06.12-.15.24-.28.38s-.31.25-.53.35c-.22.1-.49.14-.81.14Zm.13-.75c.33,0,.61-.06.84-.2s.4-.3.52-.51.18-.42.18-.65v-.77s-.11.08-.23.11c-.12.03-.25.06-.41.09-.15.03-.3.05-.45.07s-.26.03-.35.04c-.22.03-.42.08-.61.14s-.34.16-.46.28c-.12.12-.17.29-.17.51,0,.29.11.51.32.66.22.15.49.22.83.22Z"/>
    <path class="cls-34" d="m120.98,70.16c-.35,0-.63-.06-.84-.18s-.37-.25-.49-.41-.2-.28-.26-.37h-.1v.84h-.8v-7.28h.83v2.69h.07c.06-.09.15-.22.26-.36s.27-.28.48-.4.49-.18.84-.18c.46,0,.86.11,1.21.34s.62.56.82.98c.2.42.29.92.29,1.49s-.1,1.08-.29,1.5-.47.75-.82.98-.75.35-1.21.35Zm-.11-.75c.35,0,.64-.09.87-.28s.41-.44.53-.75c.12-.32.18-.67.18-1.05s-.06-.73-.18-1.04-.29-.56-.53-.74c-.23-.18-.53-.27-.88-.27s-.63.09-.86.26-.41.41-.53.72c-.12.31-.18.67-.18,1.08s.06.77.18,1.09.3.56.53.74c.23.18.52.27.85.27Z"/>
    <path class="cls-34" d="m124.53,63.68c-.16,0-.3-.06-.42-.17s-.18-.24-.18-.4.06-.29.18-.4.26-.17.42-.17.3.06.42.17.18.24.18.4-.06.29-.18.4-.26.17-.42.17Zm-.42,6.37v-5.46h.83v5.46h-.83Z"/>
    <path class="cls-34" d="m126.84,62.77v7.28h-.83v-7.28h.83Z"/>
    <path class="cls-34" d="m128.33,63.68c-.16,0-.3-.06-.42-.17s-.18-.24-.18-.4.06-.29.18-.4.26-.17.42-.17.3.06.42.17.18.24.18.4-.06.29-.18.4-.26.17-.42.17Zm-.42,6.37v-5.46h.83v5.46h-.83Z"/>
    <path class="cls-34" d="m132.18,64.58v.71h-2.82v-.71h2.82Zm-2-1.3h.83v5.2c0,.28.06.49.18.62s.3.2.56.2c.06,0,.11,0,.17,0,.06,0,.13-.02.2-.03l.18.75c-.08.03-.17.05-.29.07-.11.02-.23.03-.34.03-.44,0-.8-.13-1.07-.39-.27-.26-.41-.6-.41-1.02v-5.42Z"/>
    <path class="cls-34" d="m133.52,72.08c-.14,0-.27,0-.38-.03s-.19-.05-.23-.07l.21-.73.08.02c.28.06.51.05.71-.04.19-.09.36-.34.5-.73l.16-.43-2.01-5.49h.91l1.5,4.36h.06l1.5-4.36h.91l-2.31,6.25c-.1.28-.23.52-.39.7s-.33.32-.53.41-.43.13-.68.13Z"/>
    <path class="cls-34" d="m142.71,70.16c-.52,0-.98-.12-1.36-.35-.38-.23-.68-.56-.88-.98s-.31-.91-.31-1.47.1-1.05.3-1.48.49-.76.85-1c.37-.24.8-.36,1.29-.36.28,0,.56.05.84.14s.53.25.76.46c.23.21.41.49.55.84s.21.78.21,1.28v.36h-4.21v-.72h3.75l-.39.27c0-.36-.06-.69-.17-.97s-.28-.51-.51-.67c-.23-.16-.51-.24-.84-.24s-.62.08-.86.25c-.24.16-.42.38-.55.64s-.19.55-.19.85v.48c0,.41.07.76.21,1.05s.34.5.6.65.55.22.89.22c.22,0,.42-.03.6-.1s.33-.16.46-.29.23-.29.3-.48l.81.23c-.08.27-.23.51-.43.72-.2.21-.45.37-.74.48s-.63.17-1,.17Z"/>
    <path class="cls-34" d="m148.18,64.58v.71h-2.94v-.71h2.94Zm-2.06,5.46v-6.21c0-.31.07-.57.22-.78.15-.21.34-.36.57-.47s.48-.16.74-.16c.21,0,.38.02.51.05.13.03.23.07.29.1l-.24.72s-.1-.04-.17-.06c-.07-.02-.17-.03-.29-.03-.28,0-.48.07-.6.21-.12.14-.19.35-.19.62v6.01h-.83Z"/>
    <path class="cls-34" d="m151.31,64.58v.71h-2.94v-.71h2.94Zm-2.06,5.46v-6.21c0-.31.07-.57.22-.78.15-.21.34-.36.57-.47s.48-.16.74-.16c.21,0,.38.02.51.05.13.03.23.07.29.1l-.24.72s-.1-.04-.17-.06c-.07-.02-.17-.03-.29-.03-.28,0-.48.07-.6.21-.12.14-.19.35-.19.62v6.01h-.83Z"/>
    <path class="cls-34" d="m154.09,70.16c-.52,0-.98-.12-1.36-.35-.38-.23-.68-.56-.88-.98s-.31-.91-.31-1.47.1-1.05.3-1.48.49-.76.85-1c.37-.24.8-.36,1.29-.36.28,0,.56.05.84.14s.53.25.76.46c.23.21.41.49.55.84s.21.78.21,1.28v.36h-4.21v-.72h3.75l-.39.27c0-.36-.06-.69-.17-.97s-.28-.51-.51-.67c-.23-.16-.51-.24-.84-.24s-.62.08-.86.25c-.24.16-.42.38-.55.64s-.19.55-.19.85v.48c0,.41.07.76.21,1.05s.34.5.6.65.55.22.89.22c.22,0,.42-.03.6-.1s.33-.16.46-.29.23-.29.3-.48l.81.23c-.08.27-.23.51-.43.72-.2.21-.45.37-.74.48s-.63.17-1,.17Z"/>
    <path class="cls-34" d="m159.34,70.16c-.51,0-.95-.12-1.32-.36-.37-.24-.65-.58-.85-1-.2-.42-.3-.91-.3-1.45s.1-1.05.31-1.47.49-.76.86-1c.37-.24.8-.36,1.29-.36.38,0,.73.07,1.04.21.31.14.56.34.76.6.2.26.32.56.36.9h-.84c-.04-.17-.12-.32-.23-.47s-.26-.26-.44-.35c-.18-.09-.4-.13-.64-.13-.33,0-.61.08-.85.25s-.43.41-.57.72-.21.67-.21,1.08.07.79.2,1.1.32.56.57.73c.25.17.53.26.86.26s.61-.09.84-.26.39-.4.46-.7h.84c-.05.32-.16.61-.35.87-.19.26-.43.46-.74.61-.3.15-.66.23-1.06.23Z"/>
    <path class="cls-34" d="m164.64,64.58v.71h-2.82v-.71h2.82Zm-2-1.3h.83v5.2c0,.28.06.49.18.62s.3.2.56.2c.06,0,.11,0,.17,0,.06,0,.13-.02.2-.03l.18.75c-.08.03-.17.05-.29.07-.11.02-.23.03-.34.03-.44,0-.8-.13-1.07-.39-.27-.26-.41-.6-.41-1.02v-5.42Z"/>
    <path class="cls-34" d="m169.2,65.81l-.75.21c-.07-.19-.19-.36-.37-.53-.17-.17-.44-.25-.81-.25-.33,0-.61.08-.83.23s-.33.35-.33.58c0,.21.08.37.23.5.15.12.39.22.71.3l.81.2c.49.12.85.3,1.09.54.24.24.36.56.36.93,0,.31-.09.59-.27.84s-.43.44-.75.59-.69.21-1.11.21c-.56,0-1.02-.12-1.38-.37-.36-.24-.59-.6-.69-1.06l.79-.2c.08.29.22.51.43.66.21.15.49.22.84.22.39,0,.7-.08.93-.25.23-.17.35-.37.35-.6,0-.38-.27-.64-.81-.77l-.91-.21c-.5-.12-.87-.3-1.1-.55s-.35-.56-.35-.93c0-.31.09-.58.26-.82.17-.24.41-.42.71-.56s.64-.2,1.03-.2c.54,0,.97.12,1.28.36.31.24.53.55.66.94Z"/>
  </g>
  <g>
    <path class="cls-34" d="m46.73,147.67c-.56,0-1.06-.1-1.49-.3s-.77-.47-1.02-.82-.37-.75-.38-1.2h1.92c0,.25.1.45.29.6.19.15.42.22.68.22.2,0,.38-.04.53-.13.15-.09.27-.21.36-.36.09-.16.13-.34.13-.55s-.04-.4-.13-.56c-.09-.16-.21-.28-.36-.37-.15-.09-.33-.13-.53-.13s-.4.05-.58.15c-.17.1-.3.24-.39.42l-1.74-.34.28-4h4.89v1.58h-3.27l-.14,1.6h.04c.11-.22.31-.4.59-.55s.6-.21.97-.21c.43,0,.82.1,1.16.3s.61.48.8.83c.2.35.29.76.29,1.22,0,.51-.12.96-.36,1.35s-.58.7-1.02.92c-.44.22-.95.33-1.54.33Z"/>
    <path class="cls-34" d="m54.92,147.41l-4.4-4.38,1.2-1.21,4.39,4.4-1.19,1.19Zm-3.2,0l-1.2-1.19,4.4-4.4,1.19,1.21-4.39,4.38Z"/>
    <path class="cls-34" d="m59.95,147.67c-.56,0-1.06-.1-1.49-.3s-.77-.47-1.02-.82-.37-.75-.38-1.2h1.92c0,.25.1.45.29.6.19.15.42.22.68.22.2,0,.38-.04.53-.13.15-.09.27-.21.36-.36.09-.16.13-.34.13-.55s-.04-.4-.13-.56c-.09-.16-.21-.28-.36-.37-.15-.09-.33-.13-.53-.13s-.4.05-.58.15c-.17.1-.3.24-.39.42l-1.74-.34.28-4h4.89v1.58h-3.27l-.14,1.6h.04c.11-.22.31-.4.59-.55s.6-.21.97-.21c.43,0,.82.1,1.16.3s.61.48.8.83c.2.35.29.76.29,1.22,0,.51-.12.96-.36,1.35s-.58.7-1.02.92c-.44.22-.95.33-1.54.33Z"/>
    <path class="cls-34" d="m68.63,142.11v1.43h-3.64v-1.43h3.64Zm-2.95,5.46v-5.62c0-.45.08-.82.24-1.12s.39-.52.68-.66.64-.22,1.04-.22c.25,0,.49.02.73.06.24.04.41.07.52.1l-.28,1.41c-.07-.02-.15-.04-.25-.05-.09-.01-.18-.02-.25-.02-.18,0-.31.04-.37.12s-.1.18-.1.31v5.69h-1.95Z"/>
    <path class="cls-34" d="m71.62,147.67c-.59,0-1.1-.12-1.52-.35-.42-.24-.74-.56-.97-.99-.22-.42-.33-.91-.33-1.47s.11-1.05.33-1.47c.22-.42.55-.75.97-.99.42-.24.93-.35,1.52-.35s1.1.12,1.52.35c.42.24.74.56.97.99.22.42.33.91.33,1.47s-.11,1.05-.33,1.47c-.22.42-.55.75-.97.99-.42.24-.93.35-1.52.35Zm0-1.46c.17,0,.31-.05.43-.16s.21-.26.28-.47.1-.45.1-.73-.03-.53-.1-.73-.16-.35-.28-.45-.27-.16-.43-.16-.32.05-.45.16c-.12.1-.22.26-.29.45s-.1.44-.1.73.03.53.1.73.16.36.29.47c.13.11.27.16.45.16Z"/>
    <path class="cls-34" d="m75.01,147.57v-5.46h1.9v1.04h.06c.1-.39.25-.67.47-.85.22-.18.47-.27.76-.27.08,0,.17,0,.25.02s.17.03.24.06v1.67c-.1-.04-.22-.06-.36-.08-.14-.01-.26-.02-.36-.02-.19,0-.36.04-.52.13s-.27.21-.36.36c-.09.15-.13.34-.13.54v2.84h-1.96Z"/>
    <path class="cls-34" d="m79.11,147.57v-5.46h1.86v1.04h.06c.11-.34.31-.61.59-.81s.6-.3.98-.3.72.1,1,.31.44.47.5.81h.06c.09-.34.29-.6.59-.81.3-.2.66-.31,1.06-.31.52,0,.94.17,1.27.5s.49.78.49,1.34v3.68h-1.96v-3.18c0-.24-.06-.42-.18-.56s-.28-.2-.48-.2-.36.07-.48.2-.18.32-.18.56v3.18h-1.88v-3.18c0-.24-.06-.42-.18-.56s-.28-.2-.48-.2c-.14,0-.25.03-.35.09s-.17.15-.22.26-.08.25-.08.41v3.18h-1.96Z"/>
    <path class="cls-34" d="m89.84,147.66c-.35,0-.66-.06-.93-.17-.27-.12-.48-.29-.63-.52s-.22-.53-.22-.89c0-.3.05-.56.15-.77s.24-.38.42-.52.39-.24.64-.31c.24-.07.51-.12.79-.14.31-.02.55-.05.73-.08.18-.03.32-.08.4-.14.08-.06.12-.15.12-.25v-.02c0-.14-.05-.25-.16-.32s-.25-.11-.42-.11c-.19,0-.34.04-.46.12s-.19.21-.21.38h-1.8c.02-.33.13-.64.31-.92.19-.28.46-.5.83-.67.36-.17.82-.25,1.36-.25.39,0,.74.05,1.04.14s.57.22.79.38.38.35.5.57c.12.22.17.45.17.7v3.74h-1.84v-.77h-.04c-.11.21-.24.37-.4.5-.15.13-.33.22-.52.28s-.41.09-.65.09Zm.63-1.24c.15,0,.29-.03.42-.09.13-.06.24-.15.32-.27.08-.12.12-.26.12-.42v-.45c-.05.02-.11.04-.17.06s-.12.04-.19.05c-.07.02-.14.03-.21.04-.07.01-.14.03-.22.04-.15.02-.28.06-.37.11-.1.05-.17.12-.21.2s-.07.16-.07.26c0,.15.05.27.16.35.11.08.24.12.41.12Z"/>
    <path class="cls-34" d="m97.3,142.11v1.43h-3.59v-1.43h3.59Zm-2.9-1.3h1.96v5c0,.11.03.2.09.26s.15.09.28.09c.06,0,.13,0,.21-.02.08-.01.14-.03.17-.04l.28,1.39c-.22.06-.43.11-.61.13s-.36.04-.54.04c-.61,0-1.07-.14-1.38-.42-.31-.28-.47-.69-.47-1.24v-5.19Z"/>
    <path class="cls-34" d="m44.82,152.3v7.28h-.83v-7.28h.83Z"/>
    <path class="cls-34" d="m46.31,153.2c-.16,0-.3-.06-.42-.17s-.18-.24-.18-.4.06-.29.18-.4.26-.17.42-.17.3.06.42.17.18.24.18.4-.06.29-.18.4-.26.17-.42.17Zm-.42,6.37v-5.46h.83v5.46h-.83Z"/>
    <path class="cls-34" d="m50.28,159.69c-.35,0-.63-.06-.84-.18s-.37-.25-.49-.41-.2-.28-.26-.37h-.1v.84h-.8v-7.28h.83v2.69h.07c.06-.09.15-.22.26-.36s.27-.28.48-.4.49-.18.84-.18c.46,0,.86.11,1.21.34s.62.56.82.98c.2.42.29.92.29,1.49s-.1,1.08-.29,1.5-.47.75-.82.98-.75.35-1.21.35Zm-.11-.75c.35,0,.64-.09.87-.28s.41-.44.53-.75c.12-.32.18-.67.18-1.05s-.06-.73-.18-1.04-.29-.56-.53-.74c-.23-.18-.53-.27-.88-.27s-.63.09-.86.26-.41.41-.53.72c-.12.31-.18.67-.18,1.08s.06.77.18,1.09.3.56.53.74c.23.18.52.27.85.27Z"/>
    <path class="cls-34" d="m53.41,159.57v-5.46h.8v.83h.06c.1-.27.28-.49.54-.66.26-.17.56-.25.88-.25.06,0,.14,0,.23,0s.16,0,.21,0v.85s-.09-.02-.2-.03-.21-.02-.32-.02c-.26,0-.5.06-.71.17s-.37.26-.49.45c-.12.19-.18.41-.18.66v3.45h-.83Z"/>
    <path class="cls-34" d="m58.26,159.7c-.34,0-.66-.07-.94-.2s-.51-.32-.67-.57-.25-.55-.25-.91c0-.31.06-.57.19-.76s.29-.35.5-.46c.21-.11.43-.2.68-.25.25-.06.5-.1.75-.13.33-.04.6-.07.81-.1.21-.02.36-.06.45-.12.1-.06.14-.15.14-.28v-.03c0-.35-.1-.62-.29-.81-.19-.19-.48-.29-.87-.29s-.71.09-.94.26-.39.36-.48.56l-.8-.28c.14-.33.33-.59.57-.78.24-.19.5-.32.78-.39.28-.07.56-.11.83-.11.18,0,.38.02.61.06s.45.13.67.25c.22.13.4.32.54.58.14.26.21.6.21,1.04v3.59h-.84v-.74h-.04c-.06.12-.15.24-.28.38s-.31.25-.53.35c-.22.1-.49.14-.81.14Zm.13-.75c.33,0,.61-.06.84-.2s.4-.3.52-.51.18-.42.18-.65v-.77s-.11.08-.23.11c-.12.03-.25.06-.41.09-.15.03-.3.05-.45.07s-.26.03-.35.04c-.22.03-.42.08-.61.14s-.34.16-.46.28c-.12.12-.17.29-.17.51,0,.29.11.51.32.66.22.15.49.22.83.22Z"/>
    <path class="cls-34" d="m61.84,159.57v-5.46h.8v.83h.06c.1-.27.28-.49.54-.66.26-.17.56-.25.88-.25.06,0,.14,0,.23,0s.16,0,.21,0v.85s-.09-.02-.2-.03-.21-.02-.32-.02c-.26,0-.5.06-.71.17s-.37.26-.49.45c-.12.19-.18.41-.18.66v3.45h-.83Z"/>
    <path class="cls-34" d="m65.79,161.61c-.14,0-.27,0-.38-.03s-.19-.05-.23-.07l.21-.73.08.02c.28.06.51.05.71-.04.19-.09.36-.34.5-.73l.16-.43-2.01-5.49h.91l1.5,4.36h.06l1.5-4.36h.91l-2.31,6.25c-.1.28-.23.52-.39.7s-.33.32-.53.41-.43.13-.68.13Z"/>
    <path class="cls-34" d="m74.3,159.7c-.34,0-.66-.07-.94-.2s-.51-.32-.67-.57-.25-.55-.25-.91c0-.31.06-.57.19-.76s.29-.35.5-.46c.21-.11.43-.2.68-.25.25-.06.5-.1.75-.13.33-.04.6-.07.81-.1.21-.02.36-.06.45-.12.1-.06.14-.15.14-.28v-.03c0-.35-.1-.62-.29-.81-.19-.19-.48-.29-.87-.29s-.71.09-.94.26-.39.36-.48.56l-.8-.28c.14-.33.33-.59.57-.78.24-.19.5-.32.78-.39.28-.07.56-.11.83-.11.18,0,.38.02.61.06s.45.13.67.25c.22.13.4.32.54.58.14.26.21.6.21,1.04v3.59h-.84v-.74h-.04c-.06.12-.15.24-.28.38s-.31.25-.53.35c-.22.1-.49.14-.81.14Zm.13-.75c.33,0,.61-.06.84-.2s.4-.3.52-.51.18-.42.18-.65v-.77s-.11.08-.23.11c-.12.03-.25.06-.41.09-.15.03-.3.05-.45.07s-.26.03-.35.04c-.22.03-.42.08-.61.14s-.34.16-.46.28c-.12.12-.17.29-.17.51,0,.29.11.51.32.66.22.15.49.22.83.22Z"/>
    <path class="cls-34" d="m78.7,156.29v3.28h-.83v-5.46h.8v.86h.08c.13-.28.32-.5.58-.67s.6-.25,1.01-.25c.37,0,.69.07.97.22s.49.38.65.68c.16.3.23.69.23,1.15v3.47h-.83v-3.41c0-.43-.11-.76-.34-1s-.53-.36-.92-.36c-.27,0-.51.06-.72.18s-.38.29-.5.51c-.12.22-.18.49-.18.81Z"/>
    <path class="cls-34" d="m85.31,159.69c-.46,0-.86-.12-1.21-.35s-.62-.56-.82-.98-.29-.93-.29-1.5.1-1.07.29-1.49c.2-.42.47-.75.82-.98s.75-.34,1.21-.34c.36,0,.64.06.85.18.21.12.37.25.48.4s.2.27.26.36h.07v-2.69h.83v7.28h-.8v-.84h-.1c-.06.1-.15.22-.26.37s-.28.29-.49.41c-.21.12-.49.18-.84.18Zm.11-.75c.34,0,.62-.09.85-.27s.41-.42.53-.74.18-.68.18-1.09-.06-.77-.18-1.08-.29-.55-.53-.72c-.23-.17-.52-.26-.86-.26s-.64.09-.88.27-.41.43-.53.74-.18.66-.18,1.04.06.74.18,1.05c.12.32.3.57.53.75s.53.28.87.28Z"/>
    <path class="cls-34" d="m92.82,159.7c-.34,0-.66-.07-.94-.2s-.51-.32-.67-.57-.25-.55-.25-.91c0-.31.06-.57.19-.76s.29-.35.5-.46c.21-.11.43-.2.68-.25.25-.06.5-.1.75-.13.33-.04.6-.07.81-.1.21-.02.36-.06.45-.12.1-.06.14-.15.14-.28v-.03c0-.35-.1-.62-.29-.81-.19-.19-.48-.29-.87-.29s-.71.09-.94.26-.39.36-.48.56l-.8-.28c.14-.33.33-.59.57-.78.24-.19.5-.32.78-.39.28-.07.56-.11.83-.11.18,0,.38.02.61.06s.45.13.67.25c.22.13.4.32.54.58.14.26.21.6.21,1.04v3.59h-.84v-.74h-.04c-.06.12-.15.24-.28.38s-.31.25-.53.35c-.22.1-.49.14-.81.14Zm.13-.75c.33,0,.61-.06.84-.2s.4-.3.52-.51.18-.42.18-.65v-.77s-.11.08-.23.11c-.12.03-.25.06-.41.09-.15.03-.3.05-.45.07s-.26.03-.35.04c-.22.03-.42.08-.61.14s-.34.16-.46.28c-.12.12-.17.29-.17.51,0,.29.11.51.32.66.22.15.49.22.83.22Z"/>
    <path class="cls-34" d="m97.23,156.29v3.28h-.83v-5.46h.8v.86h.08c.13-.28.32-.5.58-.67s.6-.25,1.01-.25c.37,0,.69.07.97.22s.49.38.65.68c.16.3.23.69.23,1.15v3.47h-.83v-3.41c0-.43-.11-.76-.34-1s-.53-.36-.92-.36c-.27,0-.51.06-.72.18s-.38.29-.5.51c-.12.22-.18.49-.18.81Z"/>
    <path class="cls-34" d="m104,159.69c-.51,0-.95-.12-1.32-.36-.37-.24-.65-.58-.85-1-.2-.42-.3-.91-.3-1.45s.1-1.05.31-1.47.49-.76.86-1c.37-.24.8-.36,1.29-.36.38,0,.73.07,1.04.21.31.14.56.34.76.6.2.26.32.56.36.9h-.84c-.04-.17-.12-.32-.23-.47s-.26-.26-.44-.35c-.18-.09-.4-.13-.64-.13-.33,0-.61.08-.85.25s-.43.41-.57.72-.21.67-.21,1.08.07.79.2,1.1.32.56.57.73c.25.17.53.26.86.26s.61-.09.84-.26.39-.4.46-.7h.84c-.05.32-.16.61-.35.87-.19.26-.43.46-.74.61-.3.15-.66.23-1.06.23Z"/>
    <path class="cls-34" d="m107.77,156.29v3.28h-.83v-7.28h.83v2.68h.08c.13-.28.32-.51.57-.68.25-.17.6-.25,1.03-.25.37,0,.7.07.98.22s.5.37.65.68.23.69.23,1.16v3.47h-.84v-3.41c0-.44-.11-.77-.34-1.01s-.54-.36-.93-.36c-.28,0-.52.06-.74.18s-.38.29-.51.51c-.12.22-.19.49-.19.81Z"/>
    <path class="cls-34" d="m114.59,159.69c-.49,0-.92-.12-1.29-.35s-.66-.56-.87-.99c-.21-.42-.31-.91-.31-1.47s.1-1.07.31-1.49c.21-.42.5-.75.87-.99s.8-.35,1.29-.35.93.12,1.3.35.66.56.87.99.31.92.31,1.49-.1,1.05-.31,1.47-.5.75-.87.99-.8.35-1.3.35Zm0-.75c.38,0,.69-.1.93-.29s.42-.45.54-.76.18-.65.18-1.01-.06-.71-.18-1.03-.3-.57-.54-.76-.55-.29-.93-.29-.68.1-.92.29-.42.45-.54.76-.18.66-.18,1.03.06.7.18,1.01.3.57.54.76.55.29.92.29Z"/>
    <path class="cls-34" d="m117.88,159.57v-5.46h.8v.83h.06c.1-.27.28-.49.54-.66.26-.17.56-.25.88-.25.06,0,.14,0,.23,0s.16,0,.21,0v.85s-.09-.02-.2-.03-.21-.02-.32-.02c-.26,0-.5.06-.71.17s-.37.26-.49.45c-.12.19-.18.41-.18.66v3.45h-.83Z"/>
    <path class="cls-34" d="m125.08,159.7c-.34,0-.66-.07-.94-.2s-.51-.32-.67-.57-.25-.55-.25-.91c0-.31.06-.57.19-.76s.29-.35.5-.46c.21-.11.43-.2.68-.25.25-.06.5-.1.75-.13.33-.04.6-.07.81-.1.21-.02.36-.06.45-.12.1-.06.14-.15.14-.28v-.03c0-.35-.1-.62-.29-.81-.19-.19-.48-.29-.87-.29s-.71.09-.94.26-.39.36-.48.56l-.8-.28c.14-.33.33-.59.57-.78.24-.19.5-.32.78-.39.28-.07.56-.11.83-.11.18,0,.38.02.61.06s.45.13.67.25c.22.13.4.32.54.58.14.26.21.6.21,1.04v3.59h-.84v-.74h-.04c-.06.12-.15.24-.28.38s-.31.25-.53.35c-.22.1-.49.14-.81.14Zm.13-.75c.33,0,.61-.06.84-.2s.4-.3.52-.51.18-.42.18-.65v-.77s-.11.08-.23.11c-.12.03-.25.06-.41.09-.15.03-.3.05-.45.07s-.26.03-.35.04c-.22.03-.42.08-.61.14s-.34.16-.46.28c-.12.12-.17.29-.17.51,0,.29.11.51.32.66.22.15.49.22.83.22Z"/>
    <path class="cls-34" d="m130.85,161.73c-.61,0-1.09-.11-1.44-.33-.35-.22-.61-.48-.78-.76l.66-.47c.08.1.17.22.29.34s.28.24.48.33.47.14.8.14c.44,0,.8-.11,1.09-.32.29-.21.43-.55.43-1v-1.1h-.08c-.06.1-.14.22-.26.36-.11.15-.27.27-.48.39-.21.11-.49.17-.85.17-.44,0-.83-.1-1.18-.31s-.62-.51-.83-.91c-.2-.4-.3-.88-.3-1.45s.1-1.05.29-1.46c.2-.42.47-.74.82-.97s.76-.34,1.22-.34c.35,0,.64.06.85.18.21.12.37.25.48.4.11.15.2.27.26.36h.09v-.87h.8v5.62c0,.47-.11.85-.31,1.15-.21.29-.49.51-.85.65-.36.14-.75.21-1.19.21Zm-.03-3c.5,0,.89-.17,1.16-.51.27-.34.4-.82.4-1.42,0-.39-.06-.74-.18-1.04s-.29-.53-.53-.71c-.23-.17-.52-.26-.86-.26s-.65.09-.89.27c-.24.18-.41.42-.53.73s-.18.64-.18,1.01.06.71.18,1c.12.29.3.52.54.68s.53.25.88.25Z"/>
    <path class="cls-34" d="m136.56,159.69c-.52,0-.98-.12-1.36-.35-.38-.23-.68-.56-.88-.98s-.31-.91-.31-1.47.1-1.05.3-1.48.49-.76.85-1c.37-.24.8-.36,1.29-.36.28,0,.56.05.84.14s.53.25.76.46c.23.21.41.49.55.84s.21.78.21,1.28v.36h-4.21v-.72h3.75l-.39.27c0-.36-.06-.69-.17-.97s-.28-.51-.51-.67c-.23-.16-.51-.24-.84-.24s-.62.08-.86.25c-.24.16-.42.38-.55.64s-.19.55-.19.85v.48c0,.41.07.76.21,1.05s.34.5.6.65.55.22.89.22c.22,0,.42-.03.6-.1s.33-.16.46-.29.23-.29.3-.48l.81.23c-.08.27-.23.51-.43.72-.2.21-.45.37-.74.48s-.63.17-1,.17Z"/>
    <path class="cls-34" d="m140.44,156.29v3.28h-.83v-5.46h.8v.86h.08c.13-.28.32-.5.58-.67s.6-.25,1.01-.25c.37,0,.69.07.97.22s.49.38.65.68c.16.3.23.69.23,1.15v3.47h-.83v-3.41c0-.43-.11-.76-.34-1s-.53-.36-.92-.36c-.27,0-.51.06-.72.18s-.38.29-.5.51c-.12.22-.18.49-.18.81Z"/>
    <path class="cls-34" d="m147.37,154.11v.71h-2.82v-.71h2.82Zm-2-1.3h.83v5.2c0,.28.06.49.18.62s.3.2.56.2c.06,0,.11,0,.17,0,.06,0,.13-.02.2-.03l.18.75c-.08.03-.17.05-.29.07-.11.02-.23.03-.34.03-.44,0-.8-.13-1.07-.39-.27-.26-.41-.6-.41-1.02v-5.42Z"/>
    <path class="cls-34" d="m152.87,154.11v.71h-2.82v-.71h2.82Zm-2-1.3h.83v5.2c0,.28.06.49.18.62s.3.2.56.2c.06,0,.11,0,.17,0,.06,0,.13-.02.2-.03l.18.75c-.08.03-.17.05-.29.07-.11.02-.23.03-.34.03-.44,0-.8-.13-1.07-.39-.27-.26-.41-.6-.41-1.02v-5.42Z"/>
    <path class="cls-34" d="m155.91,159.69c-.52,0-.98-.12-1.36-.35-.38-.23-.68-.56-.88-.98s-.31-.91-.31-1.47.1-1.05.3-1.48.49-.76.85-1c.37-.24.8-.36,1.29-.36.28,0,.56.05.84.14s.53.25.76.46c.23.21.41.49.55.84s.21.78.21,1.28v.36h-4.21v-.72h3.75l-.39.27c0-.36-.06-.69-.17-.97s-.28-.51-.51-.67c-.23-.16-.51-.24-.84-.24s-.62.08-.86.25c-.24.16-.42.38-.55.64s-.19.55-.19.85v.48c0,.41.07.76.21,1.05s.34.5.6.65.55.22.89.22c.22,0,.42-.03.6-.1s.33-.16.46-.29.23-.29.3-.48l.81.23c-.08.27-.23.51-.43.72-.2.21-.45.37-.74.48s-.63.17-1,.17Z"/>
    <path class="cls-34" d="m162.81,155.34l-.75.21c-.07-.19-.19-.36-.37-.53-.17-.17-.44-.25-.81-.25-.33,0-.61.08-.83.23s-.33.35-.33.58c0,.21.08.37.23.5.15.12.39.22.71.3l.81.2c.49.12.85.3,1.09.54.24.24.36.56.36.93,0,.31-.09.59-.27.84s-.43.44-.75.59-.69.21-1.11.21c-.56,0-1.02-.12-1.38-.37-.36-.24-.59-.6-.69-1.06l.79-.2c.08.29.22.51.43.66.21.15.49.22.84.22.39,0,.7-.08.93-.25.23-.17.35-.37.35-.6,0-.38-.27-.64-.81-.77l-.91-.21c-.5-.12-.87-.3-1.1-.55s-.35-.56-.35-.93c0-.31.09-.58.26-.82.17-.24.41-.42.71-.56s.64-.2,1.03-.2c.54,0,.97.12,1.28.36.31.24.53.55.66.94Z"/>
    <path class="cls-34" d="m166.07,154.11v.71h-2.82v-.71h2.82Zm-2-1.3h.83v5.2c0,.28.06.49.18.62s.3.2.56.2c.06,0,.11,0,.17,0,.06,0,.13-.02.2-.03l.18.75c-.08.03-.17.05-.29.07-.11.02-.23.03-.34.03-.44,0-.8-.13-1.07-.39-.27-.26-.41-.6-.41-1.02v-5.42Z"/>
    <path class="cls-34" d="m169.1,159.69c-.52,0-.98-.12-1.36-.35-.38-.23-.68-.56-.88-.98s-.31-.91-.31-1.47.1-1.05.3-1.48.49-.76.85-1c.37-.24.8-.36,1.29-.36.28,0,.56.05.84.14s.53.25.76.46c.23.21.41.49.55.84s.21.78.21,1.28v.36h-4.21v-.72h3.75l-.39.27c0-.36-.06-.69-.17-.97s-.28-.51-.51-.67c-.23-.16-.51-.24-.84-.24s-.62.08-.86.25c-.24.16-.42.38-.55.64s-.19.55-.19.85v.48c0,.41.07.76.21,1.05s.34.5.6.65.55.22.89.22c.22,0,.42-.03.6-.1s.33-.16.46-.29.23-.29.3-.48l.81.23c-.08.27-.23.51-.43.72-.2.21-.45.37-.74.48s-.63.17-1,.17Z"/>
    <path class="cls-34" d="m174.2,159.69c-.46,0-.86-.12-1.21-.35s-.62-.56-.82-.98-.29-.93-.29-1.5.1-1.07.29-1.49c.2-.42.47-.75.82-.98s.75-.34,1.21-.34c.36,0,.64.06.85.18.21.12.37.25.48.4s.2.27.26.36h.07v-2.69h.83v7.28h-.8v-.84h-.1c-.06.1-.15.22-.26.37s-.28.29-.49.41c-.21.12-.49.18-.84.18Zm.11-.75c.34,0,.62-.09.85-.27s.41-.42.53-.74.18-.68.18-1.09-.06-.77-.18-1.08-.29-.55-.53-.72c-.23-.17-.52-.26-.86-.26s-.64.09-.88.27-.41.43-.53.74-.18.66-.18,1.04.06.74.18,1.05c.12.32.3.57.53.75s.53.28.87.28Z"/>
    <path class="cls-34" d="m181.71,159.7c-.34,0-.66-.07-.94-.2s-.51-.32-.67-.57-.25-.55-.25-.91c0-.31.06-.57.19-.76s.29-.35.5-.46c.21-.11.43-.2.68-.25.25-.06.5-.1.75-.13.33-.04.6-.07.81-.1.21-.02.36-.06.45-.12.1-.06.14-.15.14-.28v-.03c0-.35-.1-.62-.29-.81-.19-.19-.48-.29-.87-.29s-.71.09-.94.26-.39.36-.48.56l-.8-.28c.14-.33.33-.59.57-.78.24-.19.5-.32.78-.39.28-.07.56-.11.83-.11.18,0,.38.02.61.06s.45.13.67.25c.22.13.4.32.54.58.14.26.21.6.21,1.04v3.59h-.84v-.74h-.04c-.06.12-.15.24-.28.38s-.31.25-.53.35c-.22.1-.49.14-.81.14Zm.13-.75c.33,0,.61-.06.84-.2s.4-.3.52-.51.18-.42.18-.65v-.77s-.11.08-.23.11c-.12.03-.25.06-.41.09-.15.03-.3.05-.45.07s-.26.03-.35.04c-.22.03-.42.08-.61.14s-.34.16-.46.28c-.12.12-.17.29-.17.51,0,.29.11.51.32.66.22.15.49.22.83.22Z"/>
    <path class="cls-34" d="m187.65,154.11v.71h-2.82v-.71h2.82Zm-2-1.3h.83v5.2c0,.28.06.49.18.62s.3.2.56.2c.06,0,.11,0,.17,0,.06,0,.13-.02.2-.03l.18.75c-.08.03-.17.05-.29.07-.11.02-.23.03-.34.03-.44,0-.8-.13-1.07-.39-.27-.26-.41-.6-.41-1.02v-5.42Z"/>
    <path class="cls-34" d="m193.05,159.67c-.42,0-.79-.08-1.12-.25-.33-.16-.6-.39-.8-.68s-.31-.62-.33-.99h.85c.03.33.18.6.45.81.26.21.58.32.96.32.3,0,.56-.07.8-.21s.41-.33.55-.58.2-.52.2-.83-.07-.6-.21-.85c-.14-.25-.33-.45-.57-.59s-.52-.22-.83-.22c-.22,0-.45.04-.69.1-.23.07-.42.16-.57.27l-.83-.1.44-3.58h3.78v.78h-3.04l-.25,2.15h.04c.15-.12.34-.22.56-.3s.46-.11.71-.11c.45,0,.84.11,1.19.32s.62.5.82.87c.2.37.3.79.3,1.26s-.1.88-.31,1.24-.49.65-.85.86-.77.31-1.24.31Z"/>
    <path class="cls-34" d="m200.74,159.69c-.46,0-.86-.12-1.21-.35s-.62-.56-.82-.98-.29-.93-.29-1.5.1-1.07.29-1.49c.2-.42.47-.75.82-.98s.75-.34,1.21-.34c.36,0,.64.06.85.18.21.12.37.25.48.4s.2.27.26.36h.07v-2.69h.83v7.28h-.8v-.84h-.1c-.06.1-.15.22-.26.37s-.28.29-.49.41c-.21.12-.49.18-.84.18Zm.11-.75c.34,0,.62-.09.85-.27s.41-.42.53-.74.18-.68.18-1.09-.06-.77-.18-1.08-.29-.55-.53-.72c-.23-.17-.52-.26-.86-.26s-.64.09-.88.27-.41.43-.53.74-.18.66-.18,1.04.06.74.18,1.05c.12.32.3.57.53.75s.53.28.87.28Z"/>
    <path class="cls-34" d="m206.52,159.69c-.49,0-.92-.12-1.29-.35s-.66-.56-.87-.99c-.21-.42-.31-.91-.31-1.47s.1-1.07.31-1.49c.21-.42.5-.75.87-.99s.8-.35,1.29-.35.93.12,1.3.35.66.56.87.99.31.92.31,1.49-.1,1.05-.31,1.47-.5.75-.87.99-.8.35-1.3.35Zm0-.75c.38,0,.69-.1.93-.29s.42-.45.54-.76.18-.65.18-1.01-.06-.71-.18-1.03-.3-.57-.54-.76-.55-.29-.93-.29-.68.1-.92.29-.42.45-.54.76-.18.66-.18,1.03.06.7.18,1.01.3.57.54.76.55.29.92.29Z"/>
    <path class="cls-34" d="m213.66,155.34l-.75.21c-.07-.19-.19-.36-.37-.53-.17-.17-.44-.25-.81-.25-.33,0-.61.08-.83.23s-.33.35-.33.58c0,.21.08.37.23.5.15.12.39.22.71.3l.81.2c.49.12.85.3,1.09.54.24.24.36.56.36.93,0,.31-.09.59-.27.84s-.43.44-.75.59-.69.21-1.11.21c-.56,0-1.02-.12-1.38-.37-.36-.24-.59-.6-.69-1.06l.79-.2c.08.29.22.51.43.66.21.15.49.22.84.22.39,0,.7-.08.93-.25.23-.17.35-.37.35-.6,0-.38-.27-.64-.81-.77l-.91-.21c-.5-.12-.87-.3-1.1-.55s-.35-.56-.35-.93c0-.31.09-.58.26-.82.17-.24.41-.42.71-.56s.64-.2,1.03-.2c.54,0,.97.12,1.28.36.31.24.53.55.66.94Z"/>
    <path class="cls-34" d="m216.85,159.69c-.52,0-.98-.12-1.36-.35-.38-.23-.68-.56-.88-.98s-.31-.91-.31-1.47.1-1.05.3-1.48.49-.76.85-1c.37-.24.8-.36,1.29-.36.28,0,.56.05.84.14s.53.25.76.46c.23.21.41.49.55.84s.21.78.21,1.28v.36h-4.21v-.72h3.75l-.39.27c0-.36-.06-.69-.17-.97s-.28-.51-.51-.67c-.23-.16-.51-.24-.84-.24s-.62.08-.86.25c-.24.16-.42.38-.55.64s-.19.55-.19.85v.48c0,.41.07.76.21,1.05s.34.5.6.65.55.22.89.22c.22,0,.42-.03.6-.1s.33-.16.46-.29.23-.29.3-.48l.81.23c-.08.27-.23.51-.43.72-.2.21-.45.37-.74.48s-.63.17-1,.17Z"/>
    <path class="cls-34" d="m223.75,155.34l-.75.21c-.07-.19-.19-.36-.37-.53-.17-.17-.44-.25-.81-.25-.33,0-.61.08-.83.23s-.33.35-.33.58c0,.21.08.37.23.5.15.12.39.22.71.3l.81.2c.49.12.85.3,1.09.54.24.24.36.56.36.93,0,.31-.09.59-.27.84s-.43.44-.75.59-.69.21-1.11.21c-.56,0-1.02-.12-1.38-.37-.36-.24-.59-.6-.69-1.06l.79-.2c.08.29.22.51.43.66.21.15.49.22.84.22.39,0,.7-.08.93-.25.23-.17.35-.37.35-.6,0-.38-.27-.64-.81-.77l-.91-.21c-.5-.12-.87-.3-1.1-.55s-.35-.56-.35-.93c0-.31.09-.58.26-.82.17-.24.41-.42.71-.56s.64-.2,1.03-.2c.54,0,.97.12,1.28.36.31.24.53.55.66.94Z"/>
  </g>
  <polygon class="cls-2" points="132.41 26.83 132.41 33.71 65.87 33.71 132.41 26.83"/>
  <g>
    <path class="cls-34" d="m59.79,20.75c-.63,0-1.18-.09-1.65-.28-.47-.19-.84-.48-1.1-.87s-.39-.89-.4-1.5h1.88c.01.22.07.41.17.56.1.15.24.27.42.35.18.08.4.12.65.12.21,0,.39-.03.53-.08s.25-.12.33-.22c.07-.09.11-.2.11-.32,0-.11-.04-.21-.11-.29-.07-.08-.18-.16-.34-.23s-.37-.13-.64-.19l-.73-.16c-.64-.14-1.15-.37-1.52-.7-.37-.33-.55-.78-.55-1.35,0-.46.12-.87.38-1.21s.6-.62,1.04-.81c.44-.19.95-.29,1.53-.29s1.1.1,1.53.3c.43.2.76.47.99.83.23.36.35.77.35,1.25h-1.89c-.02-.24-.1-.42-.26-.55-.16-.13-.4-.2-.71-.2-.2,0-.37.02-.5.07s-.23.11-.29.2-.09.18-.09.29c0,.11.03.21.1.3.07.09.17.16.32.22.14.06.33.12.56.17l.6.13c.4.08.74.2,1.03.34.29.14.52.3.71.49.18.19.32.4.41.63.09.23.13.49.13.77,0,.48-.12.88-.35,1.22-.24.33-.57.59-1.01.76s-.97.26-1.58.26Z"/>
    <path class="cls-34" d="m63.29,20.66v-5.46h1.96v5.46h-1.96Zm.98-6.02c-.27,0-.5-.09-.68-.26s-.28-.39-.28-.63.09-.46.28-.64.42-.26.68-.26.5.09.68.26.28.38.28.63-.09.46-.28.64-.42.26-.68.26Z"/>
    <path class="cls-34" d="m67.98,17.59v3.07h-1.96v-5.46h1.94v1.04h.04c.12-.35.32-.62.59-.82.27-.2.61-.3,1.02-.3s.72.09,1.01.26c.29.18.51.42.66.73s.23.66.23,1.06v3.48h-1.96v-3.07c0-.27-.07-.48-.21-.64s-.33-.23-.58-.23c-.16,0-.3.04-.42.1-.12.07-.21.17-.28.3s-.1.28-.1.47Z"/>
    <path class="cls-34" d="m74.88,22.82c-.82,0-1.46-.17-1.92-.51-.46-.34-.71-.77-.74-1.3h1.88c.02.12.07.21.14.28s.17.12.29.16.26.05.41.05c.25,0,.46-.06.63-.19s.25-.35.25-.66v-.93h-.06c-.07.18-.18.34-.32.47-.15.13-.33.23-.53.3s-.43.1-.68.1c-.39,0-.74-.09-1.07-.27s-.59-.47-.78-.86c-.2-.39-.29-.9-.29-1.53,0-.66.1-1.2.31-1.61.21-.41.47-.71.8-.91s.67-.29,1.03-.29c.27,0,.51.05.71.14s.38.22.52.37c.14.16.25.33.32.51h.04v-.96h1.94v5.45c0,.46-.12.85-.36,1.17-.24.32-.57.57-1,.74s-.93.25-1.51.25Zm.07-3.62c.27,0,.48-.11.64-.33.16-.22.23-.53.23-.93,0-.27-.04-.5-.11-.7-.07-.19-.17-.34-.3-.45-.13-.1-.28-.16-.47-.16s-.33.05-.46.16-.22.25-.29.45c-.07.19-.1.43-.1.7s.03.49.1.68c.07.19.16.33.29.43s.28.15.46.15Z"/>
    <path class="cls-34" d="m80.48,13.39v7.28h-1.96v-7.28h1.96Z"/>
    <path class="cls-34" d="m83.86,20.76c-.58,0-1.08-.11-1.51-.33-.42-.22-.75-.54-.97-.96s-.34-.92-.34-1.51.11-1.06.34-1.48c.23-.42.55-.75.96-.98s.9-.35,1.46-.35c.41,0,.79.06,1.12.19.33.13.62.31.86.56s.42.54.55.88.19.74.19,1.17v.45h-4.87v-1.07h3.96l-.92.22c0-.22-.03-.41-.1-.56s-.16-.27-.29-.35-.29-.12-.47-.12-.35.04-.47.12-.22.2-.29.35-.1.34-.1.56v.78c0,.21.04.4.12.56.08.16.18.28.32.37s.3.13.49.13c.13,0,.25-.02.36-.06.11-.04.2-.09.28-.16s.14-.16.18-.26h1.79c-.06.38-.21.71-.43.98-.23.28-.53.49-.9.64-.37.15-.81.23-1.32.23Z"/>
    <path class="cls-34" d="m90.35,20.75c-.35,0-.66-.06-.93-.17-.27-.12-.48-.29-.63-.52s-.22-.53-.22-.89c0-.3.05-.56.15-.77s.24-.38.42-.52.39-.24.64-.31c.24-.07.51-.12.79-.14.31-.02.55-.05.73-.08.18-.03.32-.08.4-.14.08-.06.12-.15.12-.25v-.02c0-.14-.05-.25-.16-.32s-.25-.11-.42-.11c-.19,0-.34.04-.46.12s-.19.21-.21.38h-1.8c.02-.33.13-.64.31-.92.19-.28.46-.5.83-.67.36-.17.82-.25,1.36-.25.39,0,.74.05,1.04.14s.57.22.79.38.38.35.5.57c.12.22.17.45.17.7v3.74h-1.84v-.77h-.04c-.11.21-.24.37-.4.5-.15.13-.33.22-.52.28s-.41.09-.65.09Zm.63-1.24c.15,0,.29-.03.42-.09.13-.06.24-.15.32-.27.08-.12.12-.26.12-.42v-.45c-.05.02-.11.04-.17.06s-.12.04-.19.05c-.07.02-.14.03-.21.04-.07.01-.14.03-.22.04-.15.02-.28.06-.37.11-.1.05-.17.12-.21.2s-.07.16-.07.26c0,.15.05.27.16.35.11.08.24.12.41.12Z"/>
    <path class="cls-34" d="m97.17,22.82c-.82,0-1.46-.17-1.92-.51-.46-.34-.71-.77-.74-1.3h1.88c.02.12.07.21.14.28s.17.12.29.16.26.05.41.05c.25,0,.46-.06.63-.19s.25-.35.25-.66v-.93h-.06c-.07.18-.18.34-.32.47-.15.13-.33.23-.53.3s-.43.1-.68.1c-.39,0-.74-.09-1.07-.27s-.59-.47-.78-.86c-.2-.39-.29-.9-.29-1.53,0-.66.1-1.2.31-1.61.21-.41.47-.71.8-.91s.67-.29,1.03-.29c.27,0,.51.05.71.14s.38.22.52.37c.14.16.25.33.32.51h.04v-.96h1.94v5.45c0,.46-.12.85-.36,1.17-.24.32-.57.57-1,.74s-.93.25-1.51.25Zm.07-3.62c.27,0,.48-.11.64-.33.16-.22.23-.53.23-.93,0-.27-.04-.5-.11-.7-.07-.19-.17-.34-.3-.45-.13-.1-.28-.16-.47-.16s-.33.05-.46.16-.22.25-.29.45c-.07.19-.1.43-.1.7s.03.49.1.68c.07.19.16.33.29.43s.28.15.46.15Z"/>
    <path class="cls-34" d="m103.42,20.76c-.58,0-1.08-.11-1.51-.33-.42-.22-.75-.54-.97-.96s-.34-.92-.34-1.51.11-1.06.34-1.48c.23-.42.55-.75.96-.98s.9-.35,1.46-.35c.41,0,.79.06,1.12.19.33.13.62.31.86.56s.42.54.55.88.19.74.19,1.17v.45h-4.87v-1.07h3.96l-.92.22c0-.22-.03-.41-.1-.56s-.16-.27-.29-.35-.29-.12-.47-.12-.35.04-.47.12-.22.2-.29.35-.1.34-.1.56v.78c0,.21.04.4.12.56.08.16.18.28.32.37s.3.13.49.13c.13,0,.25-.02.36-.06.11-.04.2-.09.28-.16s.14-.16.18-.26h1.79c-.06.38-.21.71-.43.98-.23.28-.53.49-.9.64-.37.15-.81.23-1.32.23Z"/>
    <path class="cls-34" d="m108.59,17.59v3.07h-1.96v-5.46h1.94v1.04h.04c.12-.35.32-.62.59-.82.27-.2.61-.3,1.02-.3s.72.09,1.01.26c.29.18.51.42.66.73s.23.66.23,1.06v3.48h-1.96v-3.07c0-.27-.07-.48-.21-.64s-.33-.23-.58-.23c-.16,0-.3.04-.42.1-.12.07-.21.17-.28.3s-.1.28-.1.47Z"/>
    <path class="cls-34" d="m116.14,15.2v1.43h-3.59v-1.43h3.59Zm-2.9-1.3h1.96v5c0,.11.03.2.09.26s.15.09.28.09c.06,0,.13,0,.21-.02.08-.01.14-.03.17-.04l.28,1.39c-.22.06-.43.11-.61.13s-.36.04-.54.04c-.61,0-1.07-.14-1.38-.42-.31-.28-.47-.69-.47-1.24v-5.19Z"/>
    <path class="cls-34" d="m120.42,20.73c-.39,0-.74-.1-1.07-.31-.33-.2-.59-.51-.78-.93s-.29-.93-.29-1.56c0-.66.1-1.2.31-1.61s.47-.71.8-.91.67-.29,1.03-.29c.27,0,.51.05.71.14.2.09.37.22.51.37.14.16.24.33.31.51h.03v-2.77h1.96v7.28h-1.94v-.9h-.05c-.08.19-.18.35-.32.5s-.31.26-.51.34-.43.13-.68.13Zm.72-1.5c.18,0,.33-.05.46-.16s.23-.25.3-.45c.07-.19.11-.42.11-.68s-.04-.5-.11-.7c-.07-.19-.17-.34-.3-.45s-.29-.16-.46-.16-.33.05-.46.16-.22.25-.29.45c-.07.19-.1.43-.1.7s.03.5.1.69c.07.19.16.34.29.44s.28.15.46.15Z"/>
    <path class="cls-34" d="m127.31,20.76c-.59,0-1.1-.12-1.52-.35-.42-.24-.74-.56-.97-.99-.22-.42-.33-.91-.33-1.47s.11-1.05.33-1.47c.22-.42.55-.75.97-.99.42-.24.93-.35,1.52-.35s1.1.12,1.52.35c.42.24.74.56.97.99.22.42.33.91.33,1.47s-.11,1.05-.33,1.47c-.22.42-.55.75-.97.99-.42.24-.93.35-1.52.35Zm0-1.46c.17,0,.31-.05.43-.16s.21-.26.28-.47.1-.45.1-.73-.03-.53-.1-.73-.16-.35-.28-.45-.27-.16-.43-.16-.32.05-.45.16c-.12.1-.22.26-.29.45s-.1.44-.1.73.03.53.1.73.16.36.29.47c.13.11.27.16.45.16Z"/>
    <path class="cls-34" d="m135.68,16.98h-1.8c-.01-.17-.09-.3-.24-.39-.15-.1-.31-.14-.51-.14-.17,0-.31.03-.43.09s-.18.15-.18.26c0,.08.04.16.11.23.07.07.21.13.41.16l1.11.2c.56.1.97.27,1.25.51.27.24.41.56.41.97s-.11.73-.34,1.01-.54.5-.94.66c-.39.15-.84.23-1.35.23-.83,0-1.49-.17-1.96-.51-.47-.34-.73-.79-.79-1.35h1.94c.03.17.12.31.26.4s.33.14.55.14c.18,0,.33-.03.45-.09s.18-.15.18-.26c0-.19-.21-.33-.62-.4l-.97-.18c-.55-.1-.97-.29-1.25-.55s-.42-.62-.42-1.05c0-.38.1-.7.3-.97.2-.26.49-.46.87-.6.38-.14.83-.21,1.35-.21.79,0,1.41.16,1.86.49.45.33.69.78.71,1.35Z"/>
    <path class="cls-34" d="m138.96,20.76c-.58,0-1.08-.11-1.51-.33-.42-.22-.75-.54-.97-.96s-.34-.92-.34-1.51.11-1.06.34-1.48c.23-.42.55-.75.96-.98s.9-.35,1.46-.35c.41,0,.79.06,1.12.19.33.13.62.31.86.56s.42.54.55.88.19.74.19,1.17v.45h-4.87v-1.07h3.96l-.92.22c0-.22-.03-.41-.1-.56s-.16-.27-.29-.35-.29-.12-.47-.12-.35.04-.47.12-.22.2-.29.35-.1.34-.1.56v.78c0,.21.04.4.12.56.08.16.18.28.32.37s.3.13.49.13c.13,0,.25-.02.36-.06.11-.04.2-.09.28-.16s.14-.16.18-.26h1.79c-.06.38-.21.71-.43.98-.23.28-.53.49-.9.64-.37.15-.81.23-1.32.23Z"/>
  </g>
  <g>
    <g>
      <rect class="cls-7" x="24.27" y="38.52" width="19.78" height="19.78"/>
      <rect class="cls-18" x="44.05" y="38.52" width="19.78" height="19.78"/>
      <rect class="cls-42" x="63.84" y="38.52" width="19.78" height="19.78"/>
      <rect class="cls-16" x="83.62" y="38.52" width="19.78" height="19.78"/>
      <rect class="cls-36" x="103.4" y="38.52" width="19.78" height="19.78"/>
      <rect class="cls-33" x="123.18" y="38.52" width="19.78" height="19.78"/>
      <rect class="cls-38" x="142.96" y="38.52" width="19.78" height="19.78"/>
    </g>
    <rect class="cls-1" x="24.27" y="38.52" width="138.47" height="19.78"/>
  </g>
  <g>
    <g>
      <path class="cls-34" d="m25.06,262.03v2.13l-7.28-2.4v-2.7l7.28-2.4v2.13l-5.27,1.59v.06l5.27,1.59Zm-2.87.39v-4h1.47v4h-1.47Z"/>
      <path class="cls-34" d="m21.99,254.21h3.07v1.96h-5.46v-1.94h1.04v-.04c-.35-.12-.62-.32-.82-.59-.2-.27-.3-.61-.3-1.02s.09-.72.26-1.01c.18-.29.42-.51.73-.66.31-.16.66-.23,1.06-.23h3.48v1.96h-3.07c-.27,0-.48.07-.64.21-.16.14-.23.33-.23.58,0,.16.04.3.11.42.07.12.17.21.3.28.13.07.28.1.47.1Z"/>
      <path class="cls-34" d="m25.16,247.28c0,.59-.12,1.1-.35,1.52-.24.42-.57.74-.99.97-.42.22-.91.33-1.47.33s-1.05-.11-1.47-.33c-.42-.22-.75-.55-.99-.97-.24-.42-.35-.93-.35-1.52,0-.54.1-1,.29-1.39.19-.39.46-.69.82-.91.35-.21.76-.32,1.24-.33v1.82c-.19.02-.35.06-.48.13-.13.07-.23.16-.29.27-.07.11-.1.24-.1.39,0,.17.05.32.15.45s.25.23.44.29c.2.07.45.11.75.11s.55-.04.75-.11c.2-.07.35-.17.46-.29s.15-.28.15-.45c0-.21-.08-.39-.24-.54-.16-.14-.38-.22-.67-.25v-1.82c.48,0,.9.12,1.26.33.36.21.63.51.83.9.19.39.29.85.29,1.39Z"/>
      <path class="cls-34" d="m21.99,242.14h3.07v1.96h-7.28v-1.88h2.86v-.06c-.35-.12-.62-.33-.82-.62-.2-.29-.3-.63-.3-1.04s.09-.72.26-1c.18-.28.42-.51.73-.66.31-.16.66-.24,1.06-.24h3.48v1.96h-3.07c-.27,0-.48.07-.64.2-.16.13-.23.33-.23.58,0,.16.04.3.11.42.07.12.17.21.3.28.13.07.28.1.47.1Z"/>
      <path class="cls-34" d="m25.16,235.21c0,.59-.12,1.1-.35,1.52-.24.42-.57.74-.99.97-.42.22-.91.33-1.47.33s-1.05-.11-1.47-.33c-.42-.22-.75-.55-.99-.97-.24-.42-.35-.93-.35-1.52s.12-1.1.35-1.52c.24-.42.56-.74.99-.97.42-.22.91-.33,1.47-.33s1.05.11,1.47.33c.42.22.75.55.99.97.24.42.35.93.35,1.52Zm-1.46,0c0-.17-.05-.31-.16-.43s-.26-.21-.47-.28c-.2-.07-.45-.1-.73-.1s-.53.03-.73.1c-.2.07-.35.16-.45.28-.1.12-.16.27-.16.43s.05.32.16.45c.1.12.26.22.45.29.2.07.44.1.73.1s.53-.03.73-.1c.2-.07.36-.16.47-.29.11-.13.16-.27.16-.45Z"/>
      <path class="cls-34" d="m25.06,231.82h-5.46v-1.9h1.04v-.06c-.39-.1-.67-.25-.85-.47-.18-.22-.27-.47-.27-.76,0-.08,0-.17.02-.25.01-.08.03-.17.06-.24h1.67c-.04.1-.06.22-.08.36-.01.14-.02.26-.02.36,0,.19.04.36.13.52.09.15.21.27.36.36.15.09.34.13.54.13h2.84v1.96Z"/>
      <path class="cls-34" d="m25.13,224.01c0,.39-.1.74-.3,1.07-.2.33-.51.59-.93.78-.41.2-.93.29-1.56.29-.66,0-1.2-.1-1.61-.31-.41-.21-.71-.47-.91-.8-.19-.33-.29-.67-.29-1.03,0-.27.05-.51.14-.71.09-.2.22-.37.37-.51.16-.14.33-.24.51-.31v-.03h-2.77v-1.96h7.28v1.94h-.9v.05c.19.08.35.18.5.32.14.14.26.31.34.51.08.2.13.43.13.68Zm-1.5-.72c0-.18-.05-.33-.16-.46-.11-.13-.25-.23-.45-.3-.19-.07-.42-.11-.68-.11s-.5.04-.7.11c-.19.07-.34.17-.45.3-.1.13-.16.29-.16.46s.05.33.16.46c.1.13.25.22.45.29.19.07.43.1.7.1s.5-.03.69-.1c.19-.07.34-.16.44-.29s.15-.28.15-.46Z"/>
      <path class="cls-34" d="m25.16,217.12c0,.59-.12,1.1-.35,1.52-.24.42-.57.74-.99.97-.42.22-.91.33-1.47.33s-1.05-.11-1.47-.33c-.42-.22-.75-.55-.99-.97-.24-.42-.35-.93-.35-1.52s.12-1.1.35-1.52c.24-.42.56-.74.99-.97.42-.22.91-.33,1.47-.33s1.05.11,1.47.33c.42.22.75.55.99.97.24.42.35.93.35,1.52Zm-1.46,0c0-.17-.05-.31-.16-.43s-.26-.21-.47-.28c-.2-.07-.45-.1-.73-.1s-.53.03-.73.1c-.2.07-.35.16-.45.28-.1.12-.16.27-.16.43s.05.32.16.45c.1.12.26.22.45.29.2.07.44.1.73.1s.53-.03.73-.1c.2-.07.36-.16.47-.29.11-.13.16-.27.16-.45Z"/>
      <path class="cls-34" d="m21.38,208.75v1.8c-.17.01-.3.09-.39.24-.1.15-.14.31-.14.51,0,.17.03.31.09.43.06.12.15.18.26.18.08,0,.16-.04.23-.11.07-.07.13-.21.16-.41l.2-1.11c.1-.56.27-.97.51-1.25.24-.27.56-.41.97-.41s.73.11,1.01.34c.28.23.5.54.66.94.15.39.23.84.23,1.35,0,.83-.17,1.49-.51,1.96-.34.47-.79.73-1.35.79v-1.94c.17-.03.31-.12.4-.26s.14-.33.14-.55c0-.18-.03-.33-.09-.45-.06-.12-.15-.18-.26-.18-.19,0-.33.21-.4.62l-.18.97c-.1.55-.29.97-.55,1.25s-.62.42-1.05.42c-.38,0-.7-.1-.97-.3-.26-.2-.46-.49-.6-.87-.14-.38-.21-.83-.21-1.35,0-.79.16-1.41.49-1.86.33-.45.78-.69,1.35-.71Z"/>
      <path class="cls-34" d="m25.16,205.47c0,.58-.11,1.08-.33,1.51-.22.42-.54.75-.96.97s-.92.34-1.51.34-1.06-.11-1.48-.34c-.42-.23-.75-.55-.98-.96s-.35-.9-.35-1.46c0-.41.06-.79.19-1.12.13-.33.31-.62.56-.86.24-.24.54-.42.88-.55.35-.13.74-.19,1.17-.19h.45v4.87h-1.07v-3.96l.22.92c-.22,0-.41.03-.56.1s-.27.16-.35.29c-.08.13-.12.29-.12.47s.04.35.12.47c.08.13.2.22.35.29s.34.1.56.1h.78c.21,0,.4-.04.56-.12.16-.08.28-.18.37-.32s.13-.3.13-.49c0-.13-.02-.25-.06-.36-.04-.11-.09-.2-.16-.28-.07-.08-.16-.14-.26-.18v-1.79c.38.06.71.21.98.43.28.23.49.53.64.9.15.37.23.81.23,1.32Z"/>
    </g>
    <polygon class="cls-2" points="30 200.18 36.88 200.18 36.88 266.72 30 200.18"/>
  </g>
  <polygon class="cls-2" points="171.94 335.1 171.94 341.98 105.39 341.98 171.94 335.1"/>
  <g>
    <path class="cls-34" d="m109.24,352.61v-7.28h1.97v5.68h2.94v1.59h-4.91Z"/>
    <path class="cls-34" d="m114.74,352.61v-5.46h1.96v5.46h-1.96Zm.98-6.02c-.27,0-.5-.09-.68-.26s-.28-.39-.28-.63.09-.46.28-.64.42-.26.68-.26.5.09.68.26.28.38.28.63-.09.46-.28.64-.42.26-.68.26Z"/>
    <path class="cls-34" d="m120.97,352.68c-.25,0-.48-.04-.68-.13-.2-.08-.37-.2-.51-.34s-.25-.31-.32-.5h-.05v.9h-1.94v-7.28h1.96v2.77h.03c.07-.19.18-.36.31-.51s.31-.28.51-.37c.2-.09.44-.14.71-.14.36,0,.7.1,1.03.29.32.19.59.49.79.91s.31.95.31,1.61-.1,1.15-.29,1.56-.46.72-.78.93-.68.31-1.07.31Zm-.72-1.5c.18,0,.34-.05.46-.15.13-.1.22-.25.29-.44.07-.19.1-.42.1-.69s-.03-.5-.1-.7c-.07-.19-.16-.34-.29-.45-.12-.1-.28-.16-.46-.16s-.33.05-.46.16-.23.25-.3.45c-.07.19-.11.43-.11.7s.04.49.11.68c.07.19.17.34.3.45s.29.16.46.16Z"/>
    <path class="cls-34" d="m123.69,352.61v-5.46h1.9v1.04h.06c.1-.39.25-.67.47-.85.22-.18.47-.27.76-.27.08,0,.17,0,.25.02s.17.03.24.06v1.67c-.1-.04-.22-.06-.36-.08-.14-.01-.26-.02-.36-.02-.19,0-.36.04-.52.13s-.27.21-.36.36c-.09.15-.13.34-.13.54v2.84h-1.96Z"/>
    <path class="cls-34" d="m129.06,352.7c-.35,0-.66-.06-.93-.17-.27-.12-.48-.29-.63-.52s-.22-.53-.22-.89c0-.3.05-.56.15-.77s.24-.38.42-.52.39-.24.64-.31c.24-.07.51-.12.79-.14.31-.02.55-.05.73-.08.18-.03.32-.08.4-.14.08-.06.12-.15.12-.25v-.02c0-.14-.05-.25-.16-.32s-.25-.11-.42-.11c-.19,0-.34.04-.46.12s-.19.21-.21.38h-1.8c.02-.33.13-.64.31-.92.19-.28.46-.5.83-.67.36-.17.82-.25,1.36-.25.39,0,.74.05,1.04.14s.57.22.79.38.38.35.5.57c.12.22.17.45.17.7v3.74h-1.84v-.77h-.04c-.11.21-.24.37-.4.5-.15.13-.33.22-.52.28s-.41.09-.65.09Zm.63-1.24c.15,0,.29-.03.42-.09.13-.06.24-.15.32-.27.08-.12.12-.26.12-.42v-.45c-.05.02-.11.04-.17.06s-.12.04-.19.05c-.07.02-.14.03-.21.04-.07.01-.14.03-.22.04-.15.02-.28.06-.37.11-.1.05-.17.12-.21.2s-.07.16-.07.26c0,.15.05.27.16.35.11.08.24.12.41.12Z"/>
    <path class="cls-34" d="m133.27,352.61v-5.46h1.9v1.04h.06c.1-.39.25-.67.47-.85.22-.18.47-.27.76-.27.08,0,.17,0,.25.02s.17.03.24.06v1.67c-.1-.04-.22-.06-.36-.08-.14-.01-.26-.02-.36-.02-.19,0-.36.04-.52.13s-.27.21-.36.36c-.09.15-.13.34-.13.54v2.84h-1.96Z"/>
    <path class="cls-34" d="m138.73,354.65c-.22,0-.44-.01-.64-.05s-.38-.08-.54-.14l.43-1.4h.03c.23.09.44.12.61.12.17,0,.29-.08.35-.23l.04-.1-1.91-5.7h2.04l.88,3.78h.06l.9-3.78h2.06l-1.99,5.92c-.1.3-.24.57-.43.81-.19.24-.43.43-.74.57s-.69.21-1.15.21Z"/>
    <path class="cls-34" d="m147.07,352.68c-.39,0-.74-.1-1.07-.31-.33-.2-.59-.51-.78-.93s-.29-.93-.29-1.56c0-.66.1-1.2.31-1.61s.47-.71.8-.91.67-.29,1.03-.29c.27,0,.51.05.71.14.2.09.37.22.51.37.14.16.24.33.31.51h.03v-2.77h1.96v7.28h-1.94v-.9h-.05c-.08.19-.18.35-.32.5s-.31.26-.51.34-.43.13-.68.13Zm.72-1.5c.18,0,.33-.05.46-.16s.23-.25.3-.45c.07-.19.11-.42.11-.68s-.04-.5-.11-.7c-.07-.19-.17-.34-.3-.45s-.29-.16-.46-.16-.33.05-.46.16-.22.25-.29.45c-.07.19-.1.43-.1.7s.03.5.1.69c.07.19.16.34.29.44s.28.15.46.15Z"/>
    <path class="cls-34" d="m153.96,352.71c-.59,0-1.1-.12-1.52-.35-.42-.24-.74-.56-.97-.99-.22-.42-.33-.91-.33-1.47s.11-1.05.33-1.47c.22-.42.55-.75.97-.99.42-.24.93-.35,1.52-.35s1.1.12,1.52.35c.42.24.74.56.97.99.22.42.33.91.33,1.47s-.11,1.05-.33,1.47c-.22.42-.55.75-.97.99-.42.24-.93.35-1.52.35Zm0-1.46c.17,0,.31-.05.43-.16s.21-.26.28-.47.1-.45.1-.73-.03-.53-.1-.73-.16-.35-.28-.45-.27-.16-.43-.16-.32.05-.45.16c-.12.1-.22.26-.29.45s-.1.44-.1.73.03.53.1.73.16.36.29.47c.13.11.27.16.45.16Z"/>
    <path class="cls-34" d="m162.33,348.93h-1.8c-.01-.17-.09-.3-.24-.39-.15-.1-.31-.14-.51-.14-.17,0-.31.03-.43.09s-.18.15-.18.26c0,.08.04.16.11.23.07.07.21.13.41.16l1.11.2c.56.1.97.27,1.25.51.27.24.41.56.41.97s-.11.73-.34,1.01-.54.5-.94.66c-.39.15-.84.23-1.35.23-.83,0-1.49-.17-1.96-.51-.47-.34-.73-.79-.79-1.35h1.94c.03.17.12.31.26.4s.33.14.55.14c.18,0,.33-.03.45-.09s.18-.15.18-.26c0-.19-.21-.33-.62-.4l-.97-.18c-.55-.1-.97-.29-1.25-.55s-.42-.62-.42-1.05c0-.38.1-.7.3-.97.2-.26.49-.46.87-.6.38-.14.83-.21,1.35-.21.79,0,1.41.16,1.86.49.45.33.69.78.71,1.35Z"/>
    <path class="cls-34" d="m165.61,352.71c-.58,0-1.08-.11-1.51-.33-.42-.22-.75-.54-.97-.96s-.34-.92-.34-1.51.11-1.06.34-1.48c.23-.42.55-.75.96-.98s.9-.35,1.46-.35c.41,0,.79.06,1.12.19.33.13.62.31.86.56s.42.54.55.88.19.74.19,1.17v.45h-4.87v-1.07h3.96l-.92.22c0-.22-.03-.41-.1-.56s-.16-.27-.29-.35-.29-.12-.47-.12-.35.04-.47.12-.22.2-.29.35-.1.34-.1.56v.78c0,.21.04.4.12.56.08.16.18.28.32.37s.3.13.49.13c.13,0,.25-.02.36-.06.11-.04.2-.09.28-.16s.14-.16.18-.26h1.79c-.06.38-.21.71-.43.98-.23.28-.53.49-.9.64-.37.15-.81.23-1.32.23Z"/>
  </g>
</svg>