<?xml version="1.0" encoding="UTF-8"?>
<svg id="Layer_1" data-name="Layer 1" xmlns="http://www.w3.org/2000/svg" viewBox="0 0 235.43 256.27">
  <defs>
    <style>
      .cls-1 {
        fill: none;
      }

      .cls-1, .cls-2 {
        stroke: #221f20;
      }

      .cls-1, .cls-2, .cls-3 {
        stroke-miterlimit: 10;
      }

      .cls-1, .cls-3 {
        stroke-width: 1.5px;
      }

      .cls-4 {
        fill: #f8b79d;
      }

      .cls-5 {
        fill: #f88e72;
      }

      .cls-6 {
        fill: #ebefff;
      }

      .cls-7 {
        fill: #f76a4a;
      }

      .cls-8 {
        fill: #eb3b2b;
      }

      .cls-9 {
        fill: #fff;
      }

      .cls-10 {
        fill: #fae1d5;
      }

      .cls-11 {
        fill: #810c21;
      }

      .cls-12 {
        fill: #94465b;
      }

      .cls-13, .cls-3 {
        fill: #c2d7eb;
      }

      .cls-14 {
        fill: #9d6378;
      }

      .cls-15 {
        fill: #b9bace;
      }

      .cls-16 {
        fill: #95020e;
      }

      .cls-17 {
        fill: #b3d1e7;
      }

      .cls-18 {
        fill: #a5cbe2;
      }

      .cls-19 {
        fill: #a68094;
      }

      .cls-20 {
        fill: #b2d1e6;
      }

      .cls-21 {
        fill: #af9db1;
      }

      .cls-22 {
        fill: #d3e3f1;
      }

      .cls-23 {
        fill: #c7191c;
      }

      .cls-24, .cls-2 {
        fill: #221f20;
      }

      .cls-25 {
        fill: #8a293e;
      }

      .cls-2 {
        stroke-width: .5px;
      }

      .cls-3 {
        stroke: #231f20;
      }
    </style>
  </defs>
  <g>
    <rect class="cls-10" x="51.51" y="202.79" width="25.03" height="25.02"/>
    <rect class="cls-4" x="76.54" y="202.79" width="25.03" height="25.02"/>
    <rect class="cls-5" x="101.57" y="202.79" width="25.03" height="25.02"/>
    <rect class="cls-7" x="126.6" y="202.79" width="25.03" height="25.02"/>
    <rect class="cls-8" x="151.63" y="202.79" width="25.03" height="25.02"/>
    <rect class="cls-23" x="176.65" y="202.79" width="25.03" height="25.02"/>
    <rect class="cls-16" x="201.68" y="202.79" width="25.03" height="25.02"/>
  </g>
  <g>
    <g>
      <polygon class="cls-2" points="171.94 231.09 171.94 237.97 105.39 237.97 171.94 231.09"/>
      <g>
        <path class="cls-24" d="m109.24,248.6v-7.28h1.97v5.68h2.94v1.59h-4.91Z"/>
        <path class="cls-24" d="m114.74,248.6v-5.46h1.96v5.46h-1.96Zm.98-6.02c-.27,0-.5-.09-.68-.26s-.28-.39-.28-.63.09-.46.28-.64.42-.26.68-.26.5.09.68.26.28.38.28.63-.09.46-.28.64-.42.26-.68.26Z"/>
        <path class="cls-24" d="m120.97,248.67c-.25,0-.48-.04-.68-.13-.2-.08-.37-.2-.51-.34s-.25-.31-.32-.5h-.05v.9h-1.94v-7.28h1.96v2.77h.03c.07-.19.18-.36.31-.51s.31-.28.51-.37c.2-.09.44-.14.71-.14.36,0,.7.1,1.03.29.32.19.59.49.79.91s.31.95.31,1.61-.1,1.15-.29,1.56-.46.72-.78.93-.68.31-1.07.31Zm-.72-1.5c.18,0,.34-.05.46-.15.13-.1.22-.25.29-.44.07-.19.1-.42.1-.69s-.03-.5-.1-.7c-.07-.19-.16-.34-.29-.45-.12-.1-.28-.16-.46-.16s-.33.05-.46.16-.23.25-.3.45c-.07.19-.11.43-.11.7s.04.49.11.68c.07.19.17.34.3.45s.29.16.46.16Z"/>
        <path class="cls-24" d="m123.69,248.6v-5.46h1.9v1.04h.06c.1-.39.25-.67.47-.85.22-.18.47-.27.76-.27.08,0,.17,0,.25.02s.17.03.24.06v1.67c-.1-.04-.22-.06-.36-.08-.14-.01-.26-.02-.36-.02-.19,0-.36.04-.52.13s-.27.21-.36.36c-.09.15-.13.34-.13.54v2.84h-1.96Z"/>
        <path class="cls-24" d="m129.06,248.68c-.35,0-.66-.06-.93-.17-.27-.12-.48-.29-.63-.52s-.22-.53-.22-.89c0-.3.05-.56.15-.77s.24-.38.42-.52.39-.24.64-.31c.24-.07.51-.12.79-.14.31-.02.55-.05.73-.08.18-.03.32-.08.4-.14.08-.06.12-.15.12-.25v-.02c0-.14-.05-.25-.16-.32s-.25-.11-.42-.11c-.19,0-.34.04-.46.12s-.19.21-.21.38h-1.8c.02-.33.13-.64.31-.92.19-.28.46-.5.83-.67.36-.17.82-.25,1.36-.25.39,0,.74.05,1.04.14s.57.22.79.38.38.35.5.57c.12.22.17.45.17.7v3.74h-1.84v-.77h-.04c-.11.21-.24.37-.4.5-.15.13-.33.22-.52.28s-.41.09-.65.09Zm.63-1.24c.15,0,.29-.03.42-.09.13-.06.24-.15.32-.27.08-.12.12-.26.12-.42v-.45c-.05.02-.11.04-.17.06s-.12.04-.19.05c-.07.02-.14.03-.21.04-.07.01-.14.03-.22.04-.15.02-.28.06-.37.11-.1.05-.17.12-.21.2s-.07.16-.07.26c0,.15.05.27.16.35.11.08.24.12.41.12Z"/>
        <path class="cls-24" d="m133.27,248.6v-5.46h1.9v1.04h.06c.1-.39.25-.67.47-.85.22-.18.47-.27.76-.27.08,0,.17,0,.25.02s.17.03.24.06v1.67c-.1-.04-.22-.06-.36-.08-.14-.01-.26-.02-.36-.02-.19,0-.36.04-.52.13s-.27.21-.36.36c-.09.15-.13.34-.13.54v2.84h-1.96Z"/>
        <path class="cls-24" d="m138.73,250.64c-.22,0-.44-.01-.64-.05s-.38-.08-.54-.14l.43-1.4h.03c.23.09.44.12.61.12.17,0,.29-.08.35-.23l.04-.1-1.91-5.7h2.04l.88,3.78h.06l.9-3.78h2.06l-1.99,5.92c-.1.3-.24.57-.43.81-.19.24-.43.43-.74.57s-.69.21-1.15.21Z"/>
        <path class="cls-24" d="m147.07,248.67c-.39,0-.74-.1-1.07-.31-.33-.2-.59-.51-.78-.93s-.29-.93-.29-1.56c0-.66.1-1.2.31-1.61s.47-.71.8-.91.67-.29,1.03-.29c.27,0,.51.05.71.14.2.09.37.22.51.37.14.16.24.33.31.51h.03v-2.77h1.96v7.28h-1.94v-.9h-.05c-.08.19-.18.35-.32.5s-.31.26-.51.34-.43.13-.68.13Zm.72-1.5c.18,0,.33-.05.46-.16s.23-.25.3-.45c.07-.19.11-.42.11-.68s-.04-.5-.11-.7c-.07-.19-.17-.34-.3-.45s-.29-.16-.46-.16-.33.05-.46.16-.22.25-.29.45c-.07.19-.1.43-.1.7s.03.5.1.69c.07.19.16.34.29.44s.28.15.46.15Z"/>
        <path class="cls-24" d="m153.96,248.69c-.59,0-1.1-.12-1.52-.35-.42-.24-.74-.56-.97-.99-.22-.42-.33-.91-.33-1.47s.11-1.05.33-1.47c.22-.42.55-.75.97-.99.42-.24.93-.35,1.52-.35s1.1.12,1.52.35c.42.24.74.56.97.99.22.42.33.91.33,1.47s-.11,1.05-.33,1.47c-.22.42-.55.75-.97.99-.42.24-.93.35-1.52.35Zm0-1.46c.17,0,.31-.05.43-.16s.21-.26.28-.47.1-.45.1-.73-.03-.53-.1-.73-.16-.35-.28-.45-.27-.16-.43-.16-.32.05-.45.16c-.12.1-.22.26-.29.45s-.1.44-.1.73.03.53.1.73.16.36.29.47c.13.11.27.16.45.16Z"/>
        <path class="cls-24" d="m162.33,244.92h-1.8c-.01-.17-.09-.3-.24-.39-.15-.1-.31-.14-.51-.14-.17,0-.31.03-.43.09s-.18.15-.18.26c0,.08.04.16.11.23.07.07.21.13.41.16l1.11.2c.56.1.97.27,1.25.51.27.24.41.56.41.97s-.11.73-.34,1.01-.54.5-.94.66c-.39.15-.84.23-1.35.23-.83,0-1.49-.17-1.96-.51-.47-.34-.73-.79-.79-1.35h1.94c.03.17.12.31.26.4s.33.14.55.14c.18,0,.33-.03.45-.09s.18-.15.18-.26c0-.19-.21-.33-.62-.4l-.97-.18c-.55-.1-.97-.29-1.25-.55s-.42-.62-.42-1.05c0-.38.1-.7.3-.97.2-.26.49-.46.87-.6.38-.14.83-.21,1.35-.21.79,0,1.41.16,1.86.49.45.33.69.78.71,1.35Z"/>
        <path class="cls-24" d="m165.61,248.69c-.58,0-1.08-.11-1.51-.33-.42-.22-.75-.54-.97-.96s-.34-.92-.34-1.51.11-1.06.34-1.48c.23-.42.55-.75.96-.98s.9-.35,1.46-.35c.41,0,.79.06,1.12.19.33.13.62.31.86.56s.42.54.55.88.19.74.19,1.17v.45h-4.87v-1.07h3.96l-.92.22c0-.22-.03-.41-.1-.56s-.16-.27-.29-.35-.29-.12-.47-.12-.35.04-.47.12-.22.2-.29.35-.1.34-.1.56v.78c0,.21.04.4.12.56.08.16.18.28.32.37s.3.13.49.13c.13,0,.25-.02.36-.06.11-.04.2-.09.28-.16s.14-.16.18-.26h1.79c-.06.38-.21.71-.43.98-.23.28-.53.49-.9.64-.37.15-.81.23-1.32.23Z"/>
      </g>
    </g>
    <rect class="cls-13" x="19.39" y="171.86" width="24.95" height="25.03"/>
    <g>
      <rect class="cls-15" x="51.16" y="171.86" width="25.03" height="25.03"/>
      <rect class="cls-21" x="76.19" y="171.84" width="25.03" height="25.03"/>
      <rect class="cls-19" x="101.22" y="171.81" width="25.03" height="25.03"/>
      <rect class="cls-14" x="126.24" y="171.78" width="25.03" height="25.03"/>
      <rect class="cls-12" x="151.27" y="171.76" width="25.03" height="25.03"/>
      <rect class="cls-25" x="176.3" y="171.73" width="25.03" height="25.03"/>
      <rect class="cls-11" x="201.33" y="171.7" width="25.03" height="25.03"/>
    </g>
    <g>
      <path class="cls-24" d="m13.08,209.29v2.13l-7.28-2.4v-2.7l7.28-2.4v2.13l-5.27,1.59v.06l5.27,1.59Zm-2.87.39v-4h1.47v4h-1.47Z"/>
      <path class="cls-24" d="m10.01,201.46h3.07v1.96h-5.46v-1.94h1.04v-.04c-.35-.12-.62-.32-.82-.59-.2-.27-.29-.61-.29-1.02s.09-.72.26-1.01c.18-.29.42-.51.73-.66s.66-.23,1.06-.23h3.48v1.96h-3.07c-.27,0-.48.07-.64.21-.16.14-.23.33-.23.58,0,.16.04.3.11.42.07.12.17.21.3.28.13.07.29.1.47.1Z"/>
      <path class="cls-24" d="m13.18,194.54c0,.59-.12,1.1-.35,1.52-.24.42-.57.74-.99.97-.42.22-.91.33-1.47.33s-1.05-.11-1.47-.33c-.42-.22-.75-.55-.99-.97-.24-.42-.35-.93-.35-1.52,0-.54.1-1,.29-1.39.19-.39.46-.69.81-.91.35-.21.76-.32,1.24-.33v1.82c-.19.02-.35.06-.48.13s-.23.16-.3.27c-.07.11-.1.24-.1.39,0,.17.05.32.15.45s.25.23.44.29c.2.07.45.11.75.11s.54-.04.75-.11c.2-.07.35-.17.46-.29.1-.13.15-.28.15-.45,0-.21-.08-.39-.24-.54-.16-.14-.38-.22-.67-.25v-1.82c.48,0,.9.12,1.26.33.36.21.63.51.82.9.19.39.29.85.29,1.39Z"/>
      <path class="cls-24" d="m10.01,189.39h3.07v1.96h-7.28v-1.88h2.86v-.06c-.35-.12-.62-.33-.82-.62-.2-.29-.29-.63-.29-1.04s.09-.72.26-1c.18-.28.42-.51.72-.66.31-.16.66-.24,1.06-.24h3.48v1.96h-3.07c-.27,0-.48.07-.64.2-.16.13-.23.33-.23.58,0,.16.04.3.11.42.07.12.17.21.3.28.13.07.29.1.47.1Z"/>
      <path class="cls-24" d="m13.18,182.47c0,.59-.12,1.1-.35,1.52-.24.42-.57.74-.99.97-.42.22-.91.33-1.47.33s-1.05-.11-1.47-.33c-.42-.22-.75-.55-.99-.97-.24-.42-.35-.93-.35-1.52s.12-1.1.35-1.52c.24-.42.57-.74.99-.97.42-.22.91-.33,1.47-.33s1.05.11,1.47.33c.42.22.75.55.99.97.24.42.35.93.35,1.52Zm-1.46,0c0-.17-.05-.31-.16-.43s-.26-.21-.47-.28c-.2-.07-.45-.1-.73-.1s-.53.03-.73.1-.35.16-.45.28-.16.27-.16.43.05.32.16.45c.1.12.26.22.45.29s.44.1.73.1.53-.03.73-.1c.2-.07.36-.16.47-.29.11-.13.16-.27.16-.45Z"/>
      <path class="cls-24" d="m13.08,179.08h-5.46v-1.9h1.04v-.06c-.39-.1-.67-.25-.85-.47-.18-.22-.27-.47-.27-.76,0-.08,0-.17.02-.25s.03-.17.06-.24h1.67c-.04.1-.06.22-.08.36-.01.14-.02.26-.02.36,0,.19.04.36.13.52.09.15.21.27.36.36.16.09.34.13.54.13h2.84v1.96Z"/>
      <path class="cls-24" d="m13.15,171.27c0,.39-.1.74-.3,1.07-.2.33-.51.59-.93.78s-.93.29-1.56.29c-.66,0-1.2-.1-1.61-.31-.41-.21-.71-.47-.91-.8s-.29-.67-.29-1.03c0-.27.05-.51.14-.71.09-.2.22-.37.37-.51.16-.14.33-.24.51-.31v-.03h-2.77v-1.96h7.28v1.94h-.9v.05c.19.08.35.18.5.32.14.14.26.31.34.51s.13.43.13.68Zm-1.5-.72c0-.18-.05-.33-.16-.46-.11-.13-.26-.23-.45-.3-.19-.07-.42-.11-.68-.11s-.5.04-.7.11c-.19.07-.34.17-.45.3s-.16.29-.16.46.05.33.16.46.25.22.45.29c.19.07.43.1.7.1s.5-.03.69-.1c.19-.07.34-.16.44-.29.1-.13.15-.28.15-.46Z"/>
      <path class="cls-24" d="m13.18,164.37c0,.59-.12,1.1-.35,1.52-.24.42-.57.74-.99.97-.42.22-.91.33-1.47.33s-1.05-.11-1.47-.33c-.42-.22-.75-.55-.99-.97-.24-.42-.35-.93-.35-1.52s.12-1.1.35-1.52c.24-.42.57-.74.99-.97.42-.22.91-.33,1.47-.33s1.05.11,1.47.33c.42.22.75.55.99.97.24.42.35.93.35,1.52Zm-1.46,0c0-.17-.05-.31-.16-.43s-.26-.21-.47-.28c-.2-.07-.45-.1-.73-.1s-.53.03-.73.1-.35.16-.45.28-.16.27-.16.43.05.32.16.45c.1.12.26.22.45.29s.44.1.73.1.53-.03.73-.1c.2-.07.36-.16.47-.29.11-.13.16-.27.16-.45Z"/>
      <path class="cls-24" d="m9.4,156v1.8c-.17.01-.3.09-.39.24-.1.15-.14.31-.14.51,0,.17.03.31.09.43.06.12.15.18.26.18.08,0,.16-.04.23-.11.07-.07.13-.21.16-.41l.2-1.11c.1-.56.27-.97.51-1.25.24-.27.56-.41.97-.41s.73.11,1.01.34c.28.23.5.54.66.94.16.39.23.84.23,1.35,0,.83-.17,1.49-.51,1.96-.34.47-.79.73-1.35.79v-1.94c.17-.03.3-.12.4-.26.09-.15.14-.33.14-.55,0-.18-.03-.33-.09-.45s-.15-.18-.26-.18c-.19,0-.33.21-.4.62l-.18.97c-.1.55-.29.97-.55,1.25-.27.28-.62.42-1.05.42-.38,0-.7-.1-.97-.3-.26-.2-.46-.49-.6-.87-.14-.38-.21-.83-.21-1.35,0-.79.16-1.41.49-1.86.33-.45.78-.69,1.36-.71Z"/>
      <path class="cls-24" d="m13.18,152.72c0,.58-.11,1.08-.33,1.51-.22.42-.54.75-.96.97s-.92.34-1.51.34-1.06-.11-1.48-.34c-.42-.23-.75-.55-.98-.96s-.35-.9-.35-1.46c0-.41.06-.79.19-1.12.13-.33.31-.62.56-.86.24-.24.54-.42.88-.55s.74-.19,1.17-.19h.45v4.87h-1.07v-3.96l.22.92c-.22,0-.41.03-.56.1-.15.07-.27.16-.35.29-.08.13-.12.29-.12.47s.04.35.12.47c.08.13.2.22.35.29.15.07.34.1.56.1h.78c.21,0,.4-.04.56-.12.16-.08.28-.18.37-.32s.13-.3.13-.49c0-.13-.02-.25-.06-.36-.04-.11-.09-.2-.16-.28s-.16-.14-.26-.18v-1.79c.38.06.71.21.98.43.28.23.49.53.64.9.15.37.23.81.23,1.32Z"/>
    </g>
    <g>
      <path class="cls-9" d="m135.25,187.51c-.66,0-1.26-.14-1.79-.43-.53-.29-.95-.71-1.26-1.26-.31-.56-.46-1.23-.46-2.04s.16-1.49.47-2.05.73-.98,1.26-1.26,1.12-.43,1.77-.43c.46,0,.88.06,1.27.19s.73.31,1.02.55c.29.24.53.54.7.89s.28.75.32,1.2h-2c-.01-.17-.05-.32-.11-.45-.06-.14-.14-.25-.25-.35-.11-.1-.23-.17-.38-.23-.15-.05-.32-.08-.51-.08-.33,0-.61.08-.84.24-.23.16-.4.39-.52.69s-.18.66-.18,1.09.06.81.18,1.11.29.52.52.67c.23.15.5.22.82.22.18,0,.34-.02.49-.07s.27-.11.38-.2.19-.19.26-.32c.07-.12.11-.26.13-.42h2c-.02.31-.11.62-.26.94-.15.32-.36.62-.63.88-.28.27-.61.48-1.02.65-.4.16-.87.25-1.4.25Z"/>
      <path class="cls-9" d="m141.88,187.51c-.59,0-1.1-.12-1.52-.35-.42-.24-.74-.56-.97-.99-.22-.42-.33-.91-.33-1.47s.11-1.05.33-1.47c.22-.42.55-.75.97-.99.42-.24.93-.35,1.52-.35s1.1.12,1.52.35c.42.24.74.56.97.99.22.42.33.91.33,1.47s-.11,1.05-.33,1.47c-.22.42-.55.75-.97.99-.42.24-.93.35-1.52.35Zm0-1.46c.17,0,.31-.05.43-.16s.21-.26.28-.47.1-.45.1-.73-.03-.53-.1-.73-.16-.35-.28-.45-.27-.16-.43-.16-.32.05-.45.16c-.12.1-.22.26-.29.45s-.1.44-.1.73.03.53.1.73.16.36.29.47c.13.11.27.16.45.16Z"/>
      <path class="cls-9" d="m145.27,187.41v-5.46h1.86v1.04h.06c.11-.34.31-.61.59-.81s.6-.3.98-.3.72.1,1,.31.44.47.5.81h.06c.09-.34.29-.6.59-.81.3-.2.66-.31,1.06-.31.52,0,.94.17,1.27.5s.49.78.49,1.34v3.68h-1.96v-3.18c0-.24-.06-.42-.18-.56s-.28-.2-.48-.2-.36.07-.48.2-.18.32-.18.56v3.18h-1.88v-3.18c0-.24-.06-.42-.18-.56s-.28-.2-.48-.2c-.14,0-.25.03-.35.09s-.17.15-.22.26-.08.25-.08.41v3.18h-1.96Z"/>
      <path class="cls-9" d="m157.98,187.48c-.25,0-.48-.04-.68-.13-.2-.08-.37-.2-.51-.34s-.25-.31-.32-.5h-.05v.9h-1.94v-7.28h1.96v2.77h.03c.07-.19.18-.36.31-.51s.31-.28.51-.37c.2-.09.44-.14.71-.14.36,0,.7.1,1.03.29.32.19.59.49.79.91s.31.95.31,1.61-.1,1.15-.29,1.56-.46.72-.78.93-.68.31-1.07.31Zm-.72-1.5c.18,0,.34-.05.46-.15.13-.1.22-.25.29-.44.07-.19.1-.42.1-.69s-.03-.5-.1-.7c-.07-.19-.16-.34-.29-.45-.12-.1-.28-.16-.46-.16s-.33.05-.46.16-.23.25-.3.45c-.07.19-.11.43-.11.7s.04.49.11.68c.07.19.17.34.3.45s.29.16.46.16Z"/>
      <path class="cls-9" d="m160.69,187.41v-5.46h1.96v5.46h-1.96Zm.98-6.02c-.27,0-.5-.09-.68-.26s-.28-.39-.28-.63.09-.46.28-.64.42-.26.68-.26.5.09.68.26.28.38.28.63-.09.46-.28.64-.42.26-.68.26Z"/>
      <path class="cls-9" d="m165.38,184.35v3.07h-1.96v-5.46h1.94v1.04h.04c.12-.35.32-.62.59-.82.27-.2.61-.3,1.02-.3s.72.09,1.01.26c.29.18.51.42.66.73s.23.66.23,1.06v3.48h-1.96v-3.07c0-.27-.07-.48-.21-.64s-.33-.23-.58-.23c-.16,0-.3.04-.42.1-.12.07-.21.17-.28.3s-.1.28-.1.47Z"/>
      <path class="cls-9" d="m171.2,187.5c-.35,0-.66-.06-.93-.17-.27-.12-.48-.29-.63-.52s-.22-.53-.22-.89c0-.3.05-.56.15-.77s.24-.38.42-.52.39-.24.64-.31c.24-.07.51-.12.79-.14.31-.02.55-.05.73-.08.18-.03.32-.08.4-.14.08-.06.12-.15.12-.25v-.02c0-.14-.05-.25-.16-.32s-.25-.11-.42-.11c-.19,0-.34.04-.46.12s-.19.21-.21.38h-1.8c.02-.33.13-.64.31-.92.19-.28.46-.5.83-.67.36-.17.82-.25,1.36-.25.39,0,.74.05,1.04.14s.57.22.79.38.38.35.5.57c.12.22.17.45.17.7v3.74h-1.84v-.77h-.04c-.11.21-.24.37-.4.5-.15.13-.33.22-.52.28s-.41.09-.65.09Zm.63-1.24c.15,0,.29-.03.42-.09.13-.06.24-.15.32-.27.08-.12.12-.26.12-.42v-.45c-.05.02-.11.04-.17.06s-.12.04-.19.05c-.07.02-.14.03-.21.04-.07.01-.14.03-.22.04-.15.02-.28.06-.37.11-.1.05-.17.12-.21.2s-.07.16-.07.26c0,.15.05.27.16.35.11.08.24.12.41.12Z"/>
      <path class="cls-9" d="m178.66,181.95v1.43h-3.59v-1.43h3.59Zm-2.9-1.3h1.96v5c0,.11.03.2.09.26s.15.09.28.09c.06,0,.13,0,.21-.02.08-.01.14-.03.17-.04l.28,1.39c-.22.06-.43.11-.61.13s-.36.04-.54.04c-.61,0-1.07-.14-1.38-.42-.31-.28-.47-.69-.47-1.24v-5.19Z"/>
      <path class="cls-9" d="m179.23,187.41v-5.46h1.96v5.46h-1.96Zm.98-6.02c-.27,0-.5-.09-.68-.26s-.28-.39-.28-.63.09-.46.28-.64.42-.26.68-.26.5.09.68.26.28.38.28.63-.09.46-.28.64-.42.26-.68.26Z"/>
      <path class="cls-9" d="m184.58,187.51c-.59,0-1.1-.12-1.52-.35-.42-.24-.74-.56-.97-.99-.22-.42-.33-.91-.33-1.47s.11-1.05.33-1.47c.22-.42.55-.75.97-.99.42-.24.93-.35,1.52-.35s1.1.12,1.52.35c.42.24.74.56.97.99.22.42.33.91.33,1.47s-.11,1.05-.33,1.47c-.22.42-.55.75-.97.99-.42.24-.93.35-1.52.35Zm0-1.46c.17,0,.31-.05.43-.16s.21-.26.28-.47.1-.45.1-.73-.03-.53-.1-.73-.16-.35-.28-.45-.27-.16-.43-.16-.32.05-.45.16c-.12.1-.22.26-.29.45s-.1.44-.1.73.03.53.1.73.16.36.29.47c.13.11.27.16.45.16Z"/>
      <path class="cls-9" d="m189.93,184.35v3.07h-1.96v-5.46h1.94v1.04h.04c.12-.35.32-.62.59-.82.27-.2.61-.3,1.02-.3s.72.09,1.01.26c.29.18.51.42.66.73s.23.66.23,1.06v3.48h-1.96v-3.07c0-.27-.07-.48-.21-.64s-.33-.23-.58-.23c-.16,0-.3.04-.42.1-.12.07-.21.17-.28.3s-.1.28-.1.47Z"/>
      <path class="cls-9" d="m197.94,187.48c-.39,0-.74-.1-1.07-.31-.33-.2-.59-.51-.78-.93s-.29-.93-.29-1.56c0-.66.1-1.2.31-1.61s.47-.71.8-.91.67-.29,1.03-.29c.27,0,.51.05.71.14.2.09.37.22.51.37.14.16.24.33.31.51h.03v-2.77h1.96v7.28h-1.94v-.9h-.05c-.08.19-.18.35-.32.5s-.31.26-.51.34-.43.13-.68.13Zm.72-1.5c.18,0,.33-.05.46-.16s.23-.25.3-.45c.07-.19.11-.42.11-.68s-.04-.5-.11-.7c-.07-.19-.17-.34-.3-.45s-.29-.16-.46-.16-.33.05-.46.16-.22.25-.29.45c-.07.19-.1.43-.1.7s.03.5.1.69c.07.19.16.34.29.44s.28.15.46.15Z"/>
      <path class="cls-9" d="m204.83,187.51c-.59,0-1.1-.12-1.52-.35-.42-.24-.74-.56-.97-.99-.22-.42-.33-.91-.33-1.47s.11-1.05.33-1.47c.22-.42.55-.75.97-.99.42-.24.93-.35,1.52-.35s1.1.12,1.52.35c.42.24.74.56.97.99.22.42.33.91.33,1.47s-.11,1.05-.33,1.47c-.22.42-.55.75-.97.99-.42.24-.93.35-1.52.35Zm0-1.46c.17,0,.31-.05.43-.16s.21-.26.28-.47.1-.45.1-.73-.03-.53-.1-.73-.16-.35-.28-.45-.27-.16-.43-.16-.32.05-.45.16c-.12.1-.22.26-.29.45s-.1.44-.1.73.03.53.1.73.16.36.29.47c.13.11.27.16.45.16Z"/>
      <path class="cls-9" d="m213.2,183.73h-1.8c-.01-.17-.09-.3-.24-.39-.15-.1-.31-.14-.51-.14-.17,0-.31.03-.43.09s-.18.15-.18.26c0,.08.04.16.11.23.07.07.21.13.41.16l1.11.2c.56.1.97.27,1.25.51.27.24.41.56.41.97s-.11.73-.34,1.01-.54.5-.94.66c-.39.15-.84.23-1.35.23-.83,0-1.49-.17-1.96-.51-.47-.34-.73-.79-.79-1.35h1.94c.03.17.12.31.26.4s.33.14.55.14c.18,0,.33-.03.45-.09s.18-.15.18-.26c0-.19-.21-.33-.62-.4l-.97-.18c-.55-.1-.97-.29-1.25-.55s-.42-.62-.42-1.05c0-.38.1-.7.3-.97.2-.26.49-.46.87-.6.38-.14.83-.21,1.35-.21.79,0,1.41.16,1.86.49.45.33.69.78.71,1.35Z"/>
      <path class="cls-9" d="m216.48,187.51c-.58,0-1.08-.11-1.51-.33-.42-.22-.75-.54-.97-.96s-.34-.92-.34-1.51.11-1.06.34-1.48c.23-.42.55-.75.96-.98s.9-.35,1.46-.35c.41,0,.79.06,1.12.19.33.13.62.31.86.56s.42.54.55.88.19.74.19,1.17v.45h-4.87v-1.07h3.96l-.92.22c0-.22-.03-.41-.1-.56s-.16-.27-.29-.35-.29-.12-.47-.12-.35.04-.47.12-.22.2-.29.35-.1.34-.1.56v.78c0,.21.04.4.12.56.08.16.18.28.32.37s.3.13.49.13c.13,0,.25-.02.36-.06.11-.04.2-.09.28-.16s.14-.16.18-.26h1.79c-.06.38-.21.71-.43.98-.23.28-.53.49-.9.64-.37.15-.81.23-1.32.23Z"/>
    </g>
  </g>
  <g>
    <rect class="cls-6" x="24.43" y="38.52" width="19.78" height="19.78"/>
    <rect class="cls-22" x="44.21" y="38.52" width="19.78" height="19.78"/>
    <rect class="cls-13" x="103.56" y="38.52" width="19.78" height="19.78"/>
    <rect class="cls-20" x="123.34" y="38.52" width="19.78" height="19.78"/>
    <rect class="cls-18" x="143.12" y="38.52" width="19.78" height="19.78"/>
    <rect class="cls-17" x="83.78" y="38.52" width="19.78" height="19.78"/>
    <rect class="cls-3" x="63.99" y="38.52" width="19.78" height="19.78"/>
  </g>
  <path class="cls-24" d="m113.15,125.76l1.46-1.47,3.04,3.05v-12.2h2.13v12.2l3.05-3.05,1.44,1.47-5.56,5.56-5.57-5.56Z"/>
  <g>
    <g>
      <g>
        <rect class="cls-10" x="64.14" y="80.89" width="19.78" height="19.78"/>
        <rect class="cls-4" x="83.92" y="80.89" width="19.78" height="19.78"/>
        <rect class="cls-5" x="103.7" y="80.89" width="19.78" height="19.78"/>
        <rect class="cls-7" x="123.49" y="80.89" width="19.78" height="19.78"/>
        <rect class="cls-8" x="143.27" y="80.89" width="19.78" height="19.78"/>
        <rect class="cls-23" x="163.05" y="80.89" width="19.78" height="19.78"/>
        <rect class="cls-16" x="182.83" y="80.89" width="19.78" height="19.78"/>
      </g>
      <rect class="cls-1" x="63.53" y="80.89" width="138.47" height="19.78"/>
    </g>
    <g>
      <path class="cls-24" d="m66.84,112.43c-.63,0-1.18-.09-1.65-.28-.47-.19-.84-.48-1.1-.87s-.39-.89-.4-1.5h1.88c.01.22.07.41.17.56.1.15.24.27.42.35.18.08.4.12.65.12.21,0,.39-.03.53-.08.14-.05.25-.12.33-.22.07-.09.11-.2.11-.32,0-.11-.04-.21-.11-.29-.07-.08-.18-.16-.34-.23s-.37-.13-.64-.19l-.73-.16c-.64-.14-1.15-.37-1.52-.7-.37-.33-.55-.78-.55-1.35,0-.46.12-.87.38-1.21s.6-.62,1.04-.81c.44-.19.95-.29,1.53-.29s1.1.1,1.53.29c.43.2.76.47.99.83.23.36.35.77.35,1.25h-1.89c-.02-.24-.1-.42-.26-.55-.16-.13-.4-.2-.71-.2-.2,0-.37.02-.5.07-.13.05-.23.11-.29.2-.06.08-.09.18-.09.29,0,.11.03.21.1.3.07.09.17.16.32.22.14.06.33.12.56.17l.6.13c.4.08.74.2,1.03.34.29.14.52.3.71.49.18.19.32.4.41.63.09.23.13.49.13.77,0,.48-.12.88-.35,1.22-.24.33-.57.59-1.01.76-.44.17-.97.26-1.58.26Z"/>
      <path class="cls-24" d="m73.59,106.88v1.43h-3.59v-1.43h3.59Zm-2.9-1.3h1.96v5c0,.11.03.2.09.26.06.06.15.09.28.09.06,0,.13,0,.21-.02.08-.01.14-.03.17-.04l.28,1.39c-.22.06-.43.11-.61.13-.18.03-.36.04-.54.04-.61,0-1.07-.14-1.38-.42-.31-.28-.47-.69-.47-1.24v-5.19Z"/>
      <path class="cls-24" d="m74.16,112.34v-5.46h1.9v1.04h.06c.1-.39.25-.67.47-.85.22-.18.47-.27.76-.27.08,0,.17,0,.25.02.08.01.17.03.24.06v1.67c-.1-.04-.22-.06-.36-.08-.14-.01-.26-.02-.36-.02-.19,0-.36.04-.52.13-.15.09-.27.21-.36.36-.09.16-.13.34-.13.54v2.84h-1.96Z"/>
      <path class="cls-24" d="m80.57,112.44c-.59,0-1.1-.12-1.52-.35-.42-.24-.74-.56-.97-.99-.22-.42-.33-.91-.33-1.47s.11-1.05.33-1.47c.22-.42.55-.75.97-.99.42-.24.93-.35,1.52-.35s1.1.12,1.52.35c.42.24.74.57.97.99.22.42.33.91.33,1.47s-.11,1.05-.33,1.47c-.22.42-.55.75-.97.99-.42.24-.93.35-1.52.35Zm0-1.46c.17,0,.31-.05.43-.16s.21-.26.28-.47c.07-.2.1-.45.1-.73s-.03-.53-.1-.73c-.07-.2-.16-.35-.28-.45-.12-.1-.27-.16-.43-.16s-.32.05-.45.16c-.12.1-.22.25-.29.45-.07.2-.1.44-.1.73s.03.53.1.73c.07.2.16.36.29.47.13.11.27.16.45.16Z"/>
      <path class="cls-24" d="m85.92,109.27v3.07h-1.96v-5.46h1.94v1.04h.04c.12-.35.32-.62.59-.82.27-.2.61-.29,1.02-.29s.72.09,1.01.26c.29.18.51.42.66.73.16.31.23.66.23,1.06v3.48h-1.96v-3.07c0-.27-.07-.48-.21-.64-.14-.15-.33-.23-.58-.23-.16,0-.3.04-.42.1-.12.07-.21.17-.28.3-.07.13-.1.28-.1.47Z"/>
      <path class="cls-24" d="m92.83,114.5c-.82,0-1.46-.17-1.92-.51-.46-.34-.71-.77-.74-1.3h1.88c.02.12.07.21.14.28.08.07.17.12.29.16.12.03.26.05.41.05.25,0,.46-.06.63-.19.17-.12.25-.35.25-.66v-.93h-.06c-.07.18-.18.34-.32.47-.15.13-.33.23-.53.3s-.43.1-.68.1c-.39,0-.74-.09-1.07-.27s-.59-.47-.78-.86c-.2-.39-.29-.9-.29-1.53,0-.66.1-1.2.31-1.61.21-.41.47-.71.8-.91.33-.19.67-.29,1.03-.29.27,0,.51.05.71.14s.38.22.52.37c.14.16.25.33.32.51h.04v-.96h1.94v5.45c0,.46-.12.85-.36,1.17-.24.32-.57.57-1,.74-.43.17-.93.25-1.51.25Zm.07-3.62c.27,0,.48-.11.64-.33.16-.22.23-.53.23-.92,0-.27-.04-.5-.11-.7-.07-.19-.17-.34-.3-.45-.13-.1-.28-.16-.47-.16s-.33.05-.46.16c-.13.1-.22.25-.29.45-.07.19-.1.43-.1.7s.03.49.1.68c.07.19.16.33.29.43s.28.15.46.15Z"/>
    </g>
  </g>
  <g>
    <path class="cls-24" d="m26.45,70.04l-2.15-7.28h2.21l1,4.47h.06l1.17-4.47h1.74l1.17,4.49h.06l1-4.49h2.21l-2.15,7.28h-1.89l-1.23-4.06h-.06l-1.23,4.06h-1.89Z"/>
    <path class="cls-24" d="m37.45,70.14c-.58,0-1.08-.11-1.51-.33-.42-.22-.75-.54-.97-.96s-.34-.92-.34-1.51.11-1.06.34-1.48c.23-.42.55-.75.96-.98s.9-.35,1.46-.35c.41,0,.79.06,1.12.19.33.13.62.31.86.56s.42.54.55.88.19.74.19,1.17v.45h-4.87v-1.07h3.96l-.92.22c0-.22-.03-.41-.1-.56s-.16-.27-.29-.35-.29-.12-.47-.12-.35.04-.47.12-.22.2-.29.35-.1.34-.1.56v.78c0,.21.04.4.12.56.08.16.18.28.32.37s.3.13.49.13c.13,0,.25-.02.36-.06.11-.04.2-.09.28-.16s.14-.16.18-.26h1.79c-.06.38-.21.71-.43.98-.23.28-.53.49-.9.64-.37.15-.81.23-1.32.23Z"/>
    <path class="cls-24" d="m42.18,70.13c-.35,0-.66-.06-.93-.17-.27-.12-.48-.29-.63-.52s-.22-.53-.22-.89c0-.3.05-.56.15-.77s.24-.38.42-.52.39-.24.64-.31c.24-.07.51-.12.79-.14.31-.02.55-.05.73-.08.18-.03.32-.08.4-.14.08-.06.12-.15.12-.25v-.02c0-.14-.05-.25-.16-.32s-.25-.11-.42-.11c-.19,0-.34.04-.46.12s-.19.21-.21.38h-1.8c.02-.33.13-.64.31-.92.19-.28.46-.5.83-.67.36-.17.82-.25,1.36-.25.39,0,.74.05,1.04.14s.57.22.79.38.38.35.5.57c.12.22.17.45.17.7v3.74h-1.84v-.77h-.04c-.11.21-.24.37-.4.5-.15.13-.33.22-.52.28s-.41.09-.65.09Zm.63-1.24c.15,0,.29-.03.42-.09.13-.06.24-.15.32-.27.08-.12.12-.26.12-.42v-.45c-.05.02-.11.04-.17.06s-.12.04-.19.05c-.07.02-.14.03-.21.04-.07.01-.14.03-.22.04-.15.02-.28.06-.37.11-.1.05-.17.12-.21.2s-.07.16-.07.26c0,.15.05.27.16.35.11.08.24.12.41.12Z"/>
    <path class="cls-24" d="m46.39,70.04v-7.28h1.96v7.28h-1.96Zm1.76-1.29l.02-2.33h.25l1.32-1.84h2.21l-2.22,2.86h-.56l-1.03,1.31Zm1.61,1.29l-1.25-2.16,1.28-1.4,2.21,3.55h-2.24Z"/>
    <path class="cls-24" d="m56.19,70.16c-.46,0-.86-.12-1.21-.35s-.62-.56-.82-.98-.29-.93-.29-1.5.1-1.07.29-1.49c.2-.42.47-.75.82-.98s.75-.34,1.21-.34c.36,0,.64.06.85.18.21.12.37.25.48.4s.2.27.26.36h.07v-2.69h.83v7.28h-.8v-.84h-.1c-.06.1-.15.22-.26.37s-.28.29-.49.41c-.21.12-.49.18-.84.18Zm.11-.75c.34,0,.62-.09.85-.27s.41-.42.53-.74.18-.68.18-1.09-.06-.77-.18-1.08-.29-.55-.53-.72c-.23-.17-.52-.26-.86-.26s-.64.09-.88.27-.41.43-.53.74-.18.66-.18,1.04.06.74.18,1.05c.12.32.3.57.53.75s.53.28.87.28Z"/>
    <path class="cls-24" d="m60.17,63.68c-.16,0-.3-.06-.42-.17s-.18-.24-.18-.4.06-.29.18-.4.26-.17.42-.17.3.06.42.17.18.24.18.4-.06.29-.18.4-.26.17-.42.17Zm-.42,6.37v-5.46h.83v5.46h-.83Z"/>
    <path class="cls-24" d="m64.08,64.58v.71h-2.94v-.71h2.94Zm-2.06,5.46v-6.21c0-.31.07-.57.22-.78.15-.21.34-.36.57-.47s.48-.16.74-.16c.21,0,.38.02.51.05.13.03.23.07.29.1l-.24.72s-.1-.04-.17-.06c-.07-.02-.17-.03-.29-.03-.28,0-.48.07-.6.21-.12.14-.19.35-.19.62v6.01h-.83Z"/>
    <path class="cls-24" d="m67.21,64.58v.71h-2.94v-.71h2.94Zm-2.06,5.46v-6.21c0-.31.07-.57.22-.78.15-.21.34-.36.57-.47s.48-.16.74-.16c.21,0,.38.02.51.05.13.03.23.07.29.1l-.24.72s-.1-.04-.17-.06c-.07-.02-.17-.03-.29-.03-.28,0-.48.07-.6.21-.12.14-.19.35-.19.62v6.01h-.83Z"/>
    <path class="cls-24" d="m69.99,70.16c-.52,0-.98-.12-1.36-.35-.38-.23-.68-.56-.88-.98s-.31-.91-.31-1.47.1-1.05.3-1.48.49-.76.85-1c.37-.24.8-.36,1.29-.36.28,0,.56.05.84.14s.53.25.76.46c.23.21.41.49.55.84s.21.78.21,1.28v.36h-4.21v-.72h3.75l-.39.27c0-.36-.06-.69-.17-.97s-.28-.51-.51-.67c-.23-.16-.51-.24-.84-.24s-.62.08-.86.25c-.24.16-.42.38-.55.64s-.19.55-.19.85v.48c0,.41.07.76.21,1.05s.34.5.6.65.55.22.89.22c.22,0,.42-.03.6-.1s.33-.16.46-.29.23-.29.3-.48l.81.23c-.08.27-.23.51-.43.72-.2.21-.45.37-.74.48s-.63.17-1,.17Z"/>
    <path class="cls-24" d="m73.03,70.04v-5.46h.8v.83h.06c.1-.27.28-.49.54-.66.26-.17.56-.25.88-.25.06,0,.14,0,.23,0s.16,0,.21,0v.85s-.09-.02-.2-.03-.21-.02-.32-.02c-.26,0-.5.06-.71.17s-.37.26-.49.45c-.12.19-.18.41-.18.66v3.45h-.83Z"/>
    <path class="cls-24" d="m78.4,70.16c-.52,0-.98-.12-1.36-.35-.38-.23-.68-.56-.88-.98s-.31-.91-.31-1.47.1-1.05.3-1.48.49-.76.85-1c.37-.24.8-.36,1.29-.36.28,0,.56.05.84.14s.53.25.76.46c.23.21.41.49.55.84s.21.78.21,1.28v.36h-4.21v-.72h3.75l-.39.27c0-.36-.06-.69-.17-.97s-.28-.51-.51-.67c-.23-.16-.51-.24-.84-.24s-.62.08-.86.25c-.24.16-.42.38-.55.64s-.19.55-.19.85v.48c0,.41.07.76.21,1.05s.34.5.6.65.55.22.89.22c.22,0,.42-.03.6-.1s.33-.16.46-.29.23-.29.3-.48l.81.23c-.08.27-.23.51-.43.72-.2.21-.45.37-.74.48s-.63.17-1,.17Z"/>
    <path class="cls-24" d="m82.28,66.76v3.28h-.83v-5.46h.8v.86h.08c.13-.28.32-.5.58-.67s.6-.25,1.01-.25c.37,0,.69.07.97.22s.49.38.65.68c.16.3.23.69.23,1.15v3.47h-.83v-3.41c0-.43-.11-.76-.34-1s-.53-.36-.92-.36c-.27,0-.51.06-.72.18s-.38.29-.5.51c-.12.22-.18.49-.18.81Z"/>
    <path class="cls-24" d="m89.2,64.58v.71h-2.82v-.71h2.82Zm-2-1.3h.83v5.2c0,.28.06.49.18.62s.3.2.56.2c.06,0,.11,0,.17,0,.06,0,.13-.02.2-.03l.18.75c-.08.03-.17.05-.29.07-.11.02-.23.03-.34.03-.44,0-.8-.13-1.07-.39-.27-.26-.41-.6-.41-1.02v-5.42Z"/>
    <path class="cls-24" d="m90.42,63.68c-.16,0-.3-.06-.42-.17s-.18-.24-.18-.4.06-.29.18-.4.26-.17.42-.17.3.06.42.17.18.24.18.4-.06.29-.18.4-.26.17-.42.17Zm-.42,6.37v-5.46h.83v5.46h-.83Z"/>
    <path class="cls-24" d="m93.51,70.17c-.34,0-.66-.07-.94-.2s-.51-.32-.67-.57-.25-.55-.25-.91c0-.31.06-.57.19-.76s.29-.35.5-.46c.21-.11.43-.2.68-.25.25-.06.5-.1.75-.13.33-.04.6-.07.81-.1.21-.02.36-.06.45-.12.1-.06.14-.15.14-.28v-.03c0-.35-.1-.62-.29-.81-.19-.19-.48-.29-.87-.29s-.71.09-.94.26-.39.36-.48.56l-.8-.28c.14-.33.33-.59.57-.78.24-.19.5-.32.78-.39.28-.07.56-.11.83-.11.18,0,.38.02.61.06s.45.13.67.25c.22.13.4.32.54.58.14.26.21.6.21,1.04v3.59h-.84v-.74h-.04c-.06.12-.15.24-.28.38s-.31.25-.53.35c-.22.1-.49.14-.81.14Zm.13-.75c.33,0,.61-.06.84-.2s.4-.3.52-.51.18-.42.18-.65v-.77s-.11.08-.23.11c-.12.03-.25.06-.41.09-.15.03-.3.05-.45.07s-.26.03-.35.04c-.22.03-.42.08-.61.14s-.34.16-.46.28c-.12.12-.17.29-.17.51,0,.29.11.51.32.66.22.15.49.22.83.22Z"/>
    <path class="cls-24" d="m97.91,62.77v7.28h-.83v-7.28h.83Z"/>
    <path class="cls-24" d="m105.79,64.58l-2.01,5.46h-.86l-2.01-5.46h.91l1.5,4.36h.06l1.5-4.36h.91Z"/>
    <path class="cls-24" d="m106.85,63.68c-.16,0-.3-.06-.42-.17s-.18-.24-.18-.4.06-.29.18-.4.26-.17.42-.17.3.06.42.17.18.24.18.4-.06.29-.18.4-.26.17-.42.17Zm-.42,6.37v-5.46h.83v5.46h-.83Z"/>
    <path class="cls-24" d="m109.94,70.17c-.34,0-.66-.07-.94-.2s-.51-.32-.67-.57-.25-.55-.25-.91c0-.31.06-.57.19-.76s.29-.35.5-.46c.21-.11.43-.2.68-.25.25-.06.5-.1.75-.13.33-.04.6-.07.81-.1.21-.02.36-.06.45-.12.1-.06.14-.15.14-.28v-.03c0-.35-.1-.62-.29-.81-.19-.19-.48-.29-.87-.29s-.71.09-.94.26-.39.36-.48.56l-.8-.28c.14-.33.33-.59.57-.78.24-.19.5-.32.78-.39.28-.07.56-.11.83-.11.18,0,.38.02.61.06s.45.13.67.25c.22.13.4.32.54.58.14.26.21.6.21,1.04v3.59h-.84v-.74h-.04c-.06.12-.15.24-.28.38s-.31.25-.53.35c-.22.1-.49.14-.81.14Zm.13-.75c.33,0,.61-.06.84-.2s.4-.3.52-.51.18-.42.18-.65v-.77s-.11.08-.23.11c-.12.03-.25.06-.41.09-.15.03-.3.05-.45.07s-.26.03-.35.04c-.22.03-.42.08-.61.14s-.34.16-.46.28c-.12.12-.17.29-.17.51,0,.29.11.51.32.66.22.15.49.22.83.22Z"/>
    <path class="cls-24" d="m116,70.16c-.35,0-.63-.06-.84-.18s-.37-.25-.49-.41-.2-.28-.26-.37h-.1v.84h-.8v-7.28h.83v2.69h.07c.06-.09.15-.22.26-.36s.27-.28.48-.4.49-.18.84-.18c.46,0,.86.11,1.21.34s.62.56.82.98c.2.42.29.92.29,1.49s-.1,1.08-.29,1.5-.47.75-.82.98-.75.35-1.21.35Zm-.11-.75c.35,0,.64-.09.87-.28s.41-.44.53-.75c.12-.32.18-.67.18-1.05s-.06-.73-.18-1.04-.29-.56-.53-.74c-.23-.18-.53-.27-.88-.27s-.63.09-.86.26-.41.41-.53.72c-.12.31-.18.67-.18,1.08s.06.77.18,1.09.3.56.53.74c.23.18.52.27.85.27Z"/>
    <path class="cls-24" d="m119.55,63.68c-.16,0-.3-.06-.42-.17s-.18-.24-.18-.4.06-.29.18-.4.26-.17.42-.17.3.06.42.17.18.24.18.4-.06.29-.18.4-.26.17-.42.17Zm-.42,6.37v-5.46h.83v5.46h-.83Z"/>
    <path class="cls-24" d="m121.86,62.77v7.28h-.83v-7.28h.83Z"/>
    <path class="cls-24" d="m123.35,63.68c-.16,0-.3-.06-.42-.17s-.18-.24-.18-.4.06-.29.18-.4.26-.17.42-.17.3.06.42.17.18.24.18.4-.06.29-.18.4-.26.17-.42.17Zm-.42,6.37v-5.46h.83v5.46h-.83Z"/>
    <path class="cls-24" d="m127.2,64.58v.71h-2.82v-.71h2.82Zm-2-1.3h.83v5.2c0,.28.06.49.18.62s.3.2.56.2c.06,0,.11,0,.17,0,.06,0,.13-.02.2-.03l.18.75c-.08.03-.17.05-.29.07-.11.02-.23.03-.34.03-.44,0-.8-.13-1.07-.39-.27-.26-.41-.6-.41-1.02v-5.42Z"/>
    <path class="cls-24" d="m128.54,72.08c-.14,0-.27,0-.38-.03s-.19-.05-.23-.07l.21-.73.08.02c.28.06.51.05.71-.04.19-.09.36-.34.5-.73l.16-.43-2.01-5.49h.91l1.5,4.36h.06l1.5-4.36h.91l-2.31,6.25c-.1.28-.23.52-.39.7s-.33.32-.53.41-.43.13-.68.13Z"/>
    <path class="cls-24" d="m137.73,70.16c-.52,0-.98-.12-1.36-.35-.38-.23-.68-.56-.88-.98s-.31-.91-.31-1.47.1-1.05.3-1.48.49-.76.85-1c.37-.24.8-.36,1.29-.36.28,0,.56.05.84.14s.53.25.76.46c.23.21.41.49.55.84s.21.78.21,1.28v.36h-4.21v-.72h3.75l-.39.27c0-.36-.06-.69-.17-.97s-.28-.51-.51-.67c-.23-.16-.51-.24-.84-.24s-.62.08-.86.25c-.24.16-.42.38-.55.64s-.19.55-.19.85v.48c0,.41.07.76.21,1.05s.34.5.6.65.55.22.89.22c.22,0,.42-.03.6-.1s.33-.16.46-.29.23-.29.3-.48l.81.23c-.08.27-.23.51-.43.72-.2.21-.45.37-.74.48s-.63.17-1,.17Z"/>
    <path class="cls-24" d="m143.2,64.58v.71h-2.94v-.71h2.94Zm-2.06,5.46v-6.21c0-.31.07-.57.22-.78.15-.21.34-.36.57-.47s.48-.16.74-.16c.21,0,.38.02.51.05.13.03.23.07.29.1l-.24.72s-.1-.04-.17-.06c-.07-.02-.17-.03-.29-.03-.28,0-.48.07-.6.21-.12.14-.19.35-.19.62v6.01h-.83Z"/>
    <path class="cls-24" d="m146.33,64.58v.71h-2.94v-.71h2.94Zm-2.06,5.46v-6.21c0-.31.07-.57.22-.78.15-.21.34-.36.57-.47s.48-.16.74-.16c.21,0,.38.02.51.05.13.03.23.07.29.1l-.24.72s-.1-.04-.17-.06c-.07-.02-.17-.03-.29-.03-.28,0-.48.07-.6.21-.12.14-.19.35-.19.62v6.01h-.83Z"/>
    <path class="cls-24" d="m149.11,70.16c-.52,0-.98-.12-1.36-.35-.38-.23-.68-.56-.88-.98s-.31-.91-.31-1.47.1-1.05.3-1.48.49-.76.85-1c.37-.24.8-.36,1.29-.36.28,0,.56.05.84.14s.53.25.76.46c.23.21.41.49.55.84s.21.78.21,1.28v.36h-4.21v-.72h3.75l-.39.27c0-.36-.06-.69-.17-.97s-.28-.51-.51-.67c-.23-.16-.51-.24-.84-.24s-.62.08-.86.25c-.24.16-.42.38-.55.64s-.19.55-.19.85v.48c0,.41.07.76.21,1.05s.34.5.6.65.55.22.89.22c.22,0,.42-.03.6-.1s.33-.16.46-.29.23-.29.3-.48l.81.23c-.08.27-.23.51-.43.72-.2.21-.45.37-.74.48s-.63.17-1,.17Z"/>
    <path class="cls-24" d="m154.36,70.16c-.51,0-.95-.12-1.32-.36-.37-.24-.65-.58-.85-1-.2-.42-.3-.91-.3-1.45s.1-1.05.31-1.47.49-.76.86-1c.37-.24.8-.36,1.29-.36.38,0,.73.07,1.04.21.31.14.56.34.76.6.2.26.32.56.36.9h-.84c-.04-.17-.12-.32-.23-.47s-.26-.26-.44-.35c-.18-.09-.4-.13-.64-.13-.33,0-.61.08-.85.25s-.43.41-.57.72-.21.67-.21,1.08.07.79.2,1.1.32.56.57.73c.25.17.53.26.86.26s.61-.09.84-.26.39-.4.46-.7h.84c-.05.32-.16.61-.35.87-.19.26-.43.46-.74.61-.3.15-.66.23-1.06.23Z"/>
    <path class="cls-24" d="m159.66,64.58v.71h-2.82v-.71h2.82Zm-2-1.3h.83v5.2c0,.28.06.49.18.62s.3.2.56.2c.06,0,.11,0,.17,0,.06,0,.13-.02.2-.03l.18.75c-.08.03-.17.05-.29.07-.11.02-.23.03-.34.03-.44,0-.8-.13-1.07-.39-.27-.26-.41-.6-.41-1.02v-5.42Z"/>
    <path class="cls-24" d="m164.22,65.81l-.75.21c-.07-.19-.19-.36-.37-.53-.17-.17-.44-.25-.81-.25-.33,0-.61.08-.83.23s-.33.35-.33.58c0,.21.08.37.23.5.15.12.39.22.71.3l.81.2c.49.12.85.3,1.09.54.24.24.36.56.36.93,0,.31-.09.59-.27.84s-.43.44-.75.59-.69.21-1.11.21c-.56,0-1.02-.12-1.38-.37-.36-.24-.59-.6-.69-1.06l.79-.2c.08.29.22.51.43.66.21.15.49.22.84.22.39,0,.7-.08.93-.25.23-.17.35-.37.35-.6,0-.38-.27-.64-.81-.77l-.91-.21c-.5-.12-.87-.3-1.1-.55s-.35-.56-.35-.93c0-.31.09-.58.26-.82.17-.24.41-.42.71-.56s.64-.2,1.03-.2c.54,0,.97.12,1.28.36.31.24.53.55.66.94Z"/>
  </g>
  <g>
    <path class="cls-24" d="m44.14,147.57l2.85-5.65v-.04h-3.35v-1.58h5.4v1.58l-2.87,5.69h-2.03Z"/>
    <path class="cls-24" d="m54.15,147.42l-4.4-4.38,1.2-1.21,4.39,4.4-1.19,1.19Zm-3.2,0l-1.2-1.19,4.4-4.4,1.19,1.21-4.39,4.38Z"/>
    <path class="cls-24" d="m59.84,140.3v7.28h-1.98v-5.46h-.04l-1.59.96v-1.68l1.79-1.09h1.83Z"/>
    <path class="cls-24" d="m65.63,142.11v1.43h-3.64v-1.43h3.64Zm-2.95,5.46v-5.62c0-.45.08-.82.24-1.12s.39-.52.68-.66.64-.22,1.04-.22c.25,0,.49.02.73.06.24.04.41.07.52.1l-.28,1.41c-.07-.02-.15-.04-.25-.05-.09-.01-.18-.02-.25-.02-.18,0-.31.04-.37.12s-.1.18-.1.31v5.69h-1.95Z"/>
    <path class="cls-24" d="m68.62,147.67c-.59,0-1.1-.12-1.52-.35-.42-.24-.74-.56-.97-.99-.22-.42-.33-.91-.33-1.47s.11-1.05.33-1.47c.22-.42.55-.75.97-.99.42-.24.93-.35,1.52-.35s1.1.12,1.52.35c.42.24.74.56.97.99.22.42.33.91.33,1.47s-.11,1.05-.33,1.47c-.22.42-.55.75-.97.99-.42.24-.93.35-1.52.35Zm0-1.46c.17,0,.31-.05.43-.16s.21-.26.28-.47.1-.45.1-.73-.03-.53-.1-.73-.16-.35-.28-.45-.27-.16-.43-.16-.32.05-.45.16c-.12.1-.22.26-.29.45s-.1.44-.1.73.03.53.1.73.16.36.29.47c.13.11.27.16.45.16Z"/>
    <path class="cls-24" d="m72,147.57v-5.46h1.9v1.04h.06c.1-.39.25-.67.47-.85.22-.18.47-.27.76-.27.08,0,.17,0,.25.02s.17.03.24.06v1.67c-.1-.04-.22-.06-.36-.08-.14-.01-.26-.02-.36-.02-.19,0-.36.04-.52.13s-.27.21-.36.36c-.09.15-.13.34-.13.54v2.84h-1.96Z"/>
    <path class="cls-24" d="m76.11,147.57v-5.46h1.86v1.04h.06c.11-.34.31-.61.59-.81s.6-.3.98-.3.72.1,1,.31.44.47.5.81h.06c.09-.34.29-.6.59-.81.3-.2.66-.31,1.06-.31.52,0,.94.17,1.27.5s.49.78.49,1.34v3.68h-1.96v-3.18c0-.24-.06-.42-.18-.56s-.28-.2-.48-.2-.36.07-.48.2-.18.32-.18.56v3.18h-1.88v-3.18c0-.24-.06-.42-.18-.56s-.28-.2-.48-.2c-.14,0-.25.03-.35.09s-.17.15-.22.26-.08.25-.08.41v3.18h-1.96Z"/>
    <path class="cls-24" d="m86.83,147.66c-.35,0-.66-.06-.93-.17-.27-.12-.48-.29-.63-.52s-.22-.53-.22-.89c0-.3.05-.56.15-.77s.24-.38.42-.52.39-.24.64-.31c.24-.07.51-.12.79-.14.31-.02.55-.05.73-.08.18-.03.32-.08.4-.14.08-.06.12-.15.12-.25v-.02c0-.14-.05-.25-.16-.32s-.25-.11-.42-.11c-.19,0-.34.04-.46.12s-.19.21-.21.38h-1.8c.02-.33.13-.64.31-.92.19-.28.46-.5.83-.67.36-.17.82-.25,1.36-.25.39,0,.74.05,1.04.14s.57.22.79.38.38.35.5.57c.12.22.17.45.17.7v3.74h-1.84v-.77h-.04c-.11.21-.24.37-.4.5-.15.13-.33.22-.52.28s-.41.09-.65.09Zm.63-1.24c.15,0,.29-.03.42-.09.13-.06.24-.15.32-.27.08-.12.12-.26.12-.42v-.45c-.05.02-.11.04-.17.06s-.12.04-.19.05c-.07.02-.14.03-.21.04-.07.01-.14.03-.22.04-.15.02-.28.06-.37.11-.1.05-.17.12-.21.2s-.07.16-.07.26c0,.15.05.27.16.35.11.08.24.12.41.12Z"/>
    <path class="cls-24" d="m94.29,142.11v1.43h-3.59v-1.43h3.59Zm-2.9-1.3h1.96v5c0,.11.03.2.09.26s.15.09.28.09c.06,0,.13,0,.21-.02.08-.01.14-.03.17-.04l.28,1.39c-.22.06-.43.11-.61.13s-.36.04-.54.04c-.61,0-1.07-.14-1.38-.42-.31-.28-.47-.69-.47-1.24v-5.19Z"/>
    <path class="cls-24" d="m44.82,152.3v7.28h-.83v-7.28h.83Z"/>
    <path class="cls-24" d="m46.31,153.2c-.16,0-.3-.06-.42-.17s-.18-.24-.18-.4.06-.29.18-.4.26-.17.42-.17.3.06.42.17.18.24.18.4-.06.29-.18.4-.26.17-.42.17Zm-.42,6.37v-5.46h.83v5.46h-.83Z"/>
    <path class="cls-24" d="m50.28,159.69c-.35,0-.63-.06-.84-.18s-.37-.25-.49-.41-.2-.28-.26-.37h-.1v.84h-.8v-7.28h.83v2.69h.07c.06-.09.15-.22.26-.36s.27-.28.48-.4.49-.18.84-.18c.46,0,.86.11,1.21.34s.62.56.82.98c.2.42.29.92.29,1.49s-.1,1.08-.29,1.5-.47.75-.82.98-.75.35-1.21.35Zm-.11-.75c.35,0,.64-.09.87-.28s.41-.44.53-.75c.12-.32.18-.67.18-1.05s-.06-.73-.18-1.04-.29-.56-.53-.74c-.23-.18-.53-.27-.88-.27s-.63.09-.86.26-.41.41-.53.72c-.12.31-.18.67-.18,1.08s.06.77.18,1.09.3.56.53.74c.23.18.52.27.85.27Z"/>
    <path class="cls-24" d="m53.41,159.57v-5.46h.8v.83h.06c.1-.27.28-.49.54-.66.26-.17.56-.25.88-.25.06,0,.14,0,.23,0s.16,0,.21,0v.85s-.09-.02-.2-.03-.21-.02-.32-.02c-.26,0-.5.06-.71.17s-.37.26-.49.45c-.12.19-.18.41-.18.66v3.45h-.83Z"/>
    <path class="cls-24" d="m58.26,159.7c-.34,0-.66-.07-.94-.2s-.51-.32-.67-.57-.25-.55-.25-.91c0-.31.06-.57.19-.76s.29-.35.5-.46c.21-.11.43-.2.68-.25.25-.06.5-.1.75-.13.33-.04.6-.07.81-.1.21-.02.36-.06.45-.12.1-.06.14-.15.14-.28v-.03c0-.35-.1-.62-.29-.81-.19-.19-.48-.29-.87-.29s-.71.09-.94.26-.39.36-.48.56l-.8-.28c.14-.33.33-.59.57-.78.24-.19.5-.32.78-.39.28-.07.56-.11.83-.11.18,0,.38.02.61.06s.45.13.67.25c.22.13.4.32.54.58.14.26.21.6.21,1.04v3.59h-.84v-.74h-.04c-.06.12-.15.24-.28.38s-.31.25-.53.35c-.22.1-.49.14-.81.14Zm.13-.75c.33,0,.61-.06.84-.2s.4-.3.52-.51.18-.42.18-.65v-.77s-.11.08-.23.11c-.12.03-.25.06-.41.09-.15.03-.3.05-.45.07s-.26.03-.35.04c-.22.03-.42.08-.61.14s-.34.16-.46.28c-.12.12-.17.29-.17.51,0,.29.11.51.32.66.22.15.49.22.83.22Z"/>
    <path class="cls-24" d="m61.84,159.57v-5.46h.8v.83h.06c.1-.27.28-.49.54-.66.26-.17.56-.25.88-.25.06,0,.14,0,.23,0s.16,0,.21,0v.85s-.09-.02-.2-.03-.21-.02-.32-.02c-.26,0-.5.06-.71.17s-.37.26-.49.45c-.12.19-.18.41-.18.66v3.45h-.83Z"/>
    <path class="cls-24" d="m65.79,161.61c-.14,0-.27,0-.38-.03s-.19-.05-.23-.07l.21-.73.08.02c.28.06.51.05.71-.04.19-.09.36-.34.5-.73l.16-.43-2.01-5.49h.91l1.5,4.36h.06l1.5-4.36h.91l-2.31,6.25c-.1.28-.23.52-.39.7s-.33.32-.53.41-.43.13-.68.13Z"/>
    <path class="cls-24" d="m74.3,159.7c-.34,0-.66-.07-.94-.2s-.51-.32-.67-.57-.25-.55-.25-.91c0-.31.06-.57.19-.76s.29-.35.5-.46c.21-.11.43-.2.68-.25.25-.06.5-.1.75-.13.33-.04.6-.07.81-.1.21-.02.36-.06.45-.12.1-.06.14-.15.14-.28v-.03c0-.35-.1-.62-.29-.81-.19-.19-.48-.29-.87-.29s-.71.09-.94.26-.39.36-.48.56l-.8-.28c.14-.33.33-.59.57-.78.24-.19.5-.32.78-.39.28-.07.56-.11.83-.11.18,0,.38.02.61.06s.45.13.67.25c.22.13.4.32.54.58.14.26.21.6.21,1.04v3.59h-.84v-.74h-.04c-.06.12-.15.24-.28.38s-.31.25-.53.35c-.22.1-.49.14-.81.14Zm.13-.75c.33,0,.61-.06.84-.2s.4-.3.52-.51.18-.42.18-.65v-.77s-.11.08-.23.11c-.12.03-.25.06-.41.09-.15.03-.3.05-.45.07s-.26.03-.35.04c-.22.03-.42.08-.61.14s-.34.16-.46.28c-.12.12-.17.29-.17.51,0,.29.11.51.32.66.22.15.49.22.83.22Z"/>
    <path class="cls-24" d="m80.07,161.73c-.61,0-1.09-.11-1.44-.33-.35-.22-.61-.48-.78-.76l.66-.47c.08.1.17.22.29.34s.28.24.48.33.47.14.8.14c.44,0,.8-.11,1.09-.32.29-.21.43-.55.43-1v-1.1h-.08c-.06.1-.14.22-.26.36-.11.15-.27.27-.48.39-.21.11-.49.17-.85.17-.44,0-.83-.1-1.18-.31s-.62-.51-.83-.91c-.2-.4-.3-.88-.3-1.45s.1-1.05.29-1.46c.2-.42.47-.74.82-.97s.76-.34,1.22-.34c.35,0,.64.06.85.18.21.12.37.25.48.4.11.15.2.27.26.36h.09v-.87h.8v5.62c0,.47-.11.85-.31,1.15-.21.29-.49.51-.85.65-.36.14-.75.21-1.19.21Zm-.03-3c.5,0,.89-.17,1.16-.51.27-.34.4-.82.4-1.42,0-.39-.06-.74-.18-1.04s-.29-.53-.53-.71c-.23-.17-.52-.26-.86-.26s-.65.09-.89.27c-.24.18-.41.42-.53.73s-.18.64-.18,1.01.06.71.18,1c.12.29.3.52.54.68s.53.25.88.25Z"/>
    <path class="cls-24" d="m85.78,159.69c-.52,0-.98-.12-1.36-.35-.38-.23-.68-.56-.88-.98s-.31-.91-.31-1.47.1-1.05.3-1.48.49-.76.85-1c.37-.24.8-.36,1.29-.36.28,0,.56.05.84.14s.53.25.76.46c.23.21.41.49.55.84s.21.78.21,1.28v.36h-4.21v-.72h3.75l-.39.27c0-.36-.06-.69-.17-.97s-.28-.51-.51-.67c-.23-.16-.51-.24-.84-.24s-.62.08-.86.25c-.24.16-.42.38-.55.64s-.19.55-.19.85v.48c0,.41.07.76.21,1.05s.34.5.6.65.55.22.89.22c.22,0,.42-.03.6-.1s.33-.16.46-.29.23-.29.3-.48l.81.23c-.08.27-.23.51-.43.72-.2.21-.45.37-.74.48s-.63.17-1,.17Z"/>
    <path class="cls-24" d="m89.66,156.29v3.28h-.83v-5.46h.8v.86h.08c.13-.28.32-.5.58-.67s.6-.25,1.01-.25c.37,0,.69.07.97.22s.49.38.65.68c.16.3.23.69.23,1.15v3.47h-.83v-3.41c0-.43-.11-.76-.34-1s-.53-.36-.92-.36c-.27,0-.51.06-.72.18s-.38.29-.5.51c-.12.22-.18.49-.18.81Z"/>
    <path class="cls-24" d="m96.58,154.11v.71h-2.82v-.71h2.82Zm-2-1.3h.83v5.2c0,.28.06.49.18.62s.3.2.56.2c.06,0,.11,0,.17,0,.06,0,.13-.02.2-.03l.18.75c-.08.03-.17.05-.29.07-.11.02-.23.03-.34.03-.44,0-.8-.13-1.07-.39-.27-.26-.41-.6-.41-1.02v-5.42Z"/>
    <path class="cls-24" d="m102.09,154.11v.71h-2.82v-.71h2.82Zm-2-1.3h.83v5.2c0,.28.06.49.18.62s.3.2.56.2c.06,0,.11,0,.17,0,.06,0,.13-.02.2-.03l.18.75c-.08.03-.17.05-.29.07-.11.02-.23.03-.34.03-.44,0-.8-.13-1.07-.39-.27-.26-.41-.6-.41-1.02v-5.42Z"/>
    <path class="cls-24" d="m105.12,159.69c-.52,0-.98-.12-1.36-.35-.38-.23-.68-.56-.88-.98s-.31-.91-.31-1.47.1-1.05.3-1.48.49-.76.85-1c.37-.24.8-.36,1.29-.36.28,0,.56.05.84.14s.53.25.76.46c.23.21.41.49.55.84s.21.78.21,1.28v.36h-4.21v-.72h3.75l-.39.27c0-.36-.06-.69-.17-.97s-.28-.51-.51-.67c-.23-.16-.51-.24-.84-.24s-.62.08-.86.25c-.24.16-.42.38-.55.64s-.19.55-.19.85v.48c0,.41.07.76.21,1.05s.34.5.6.65.55.22.89.22c.22,0,.42-.03.6-.1s.33-.16.46-.29.23-.29.3-.48l.81.23c-.08.27-.23.51-.43.72-.2.21-.45.37-.74.48s-.63.17-1,.17Z"/>
    <path class="cls-24" d="m112.03,155.34l-.75.21c-.07-.19-.19-.36-.37-.53-.17-.17-.44-.25-.81-.25-.33,0-.61.08-.83.23s-.33.35-.33.58c0,.21.08.37.23.5.15.12.39.22.71.3l.81.2c.49.12.85.3,1.09.54.24.24.36.56.36.93,0,.31-.09.59-.27.84s-.43.44-.75.59-.69.21-1.11.21c-.56,0-1.02-.12-1.38-.37-.36-.24-.59-.6-.69-1.06l.79-.2c.08.29.22.51.43.66.21.15.49.22.84.22.39,0,.7-.08.93-.25.23-.17.35-.37.35-.6,0-.38-.27-.64-.81-.77l-.91-.21c-.5-.12-.87-.3-1.1-.55s-.35-.56-.35-.93c0-.31.09-.58.26-.82.17-.24.41-.42.71-.56s.64-.2,1.03-.2c.54,0,.97.12,1.28.36.31.24.53.55.66.94Z"/>
    <path class="cls-24" d="m115.29,154.11v.71h-2.82v-.71h2.82Zm-2-1.3h.83v5.2c0,.28.06.49.18.62s.3.2.56.2c.06,0,.11,0,.17,0,.06,0,.13-.02.2-.03l.18.75c-.08.03-.17.05-.29.07-.11.02-.23.03-.34.03-.44,0-.8-.13-1.07-.39-.27-.26-.41-.6-.41-1.02v-5.42Z"/>
    <path class="cls-24" d="m118.32,159.69c-.52,0-.98-.12-1.36-.35-.38-.23-.68-.56-.88-.98s-.31-.91-.31-1.47.1-1.05.3-1.48.49-.76.85-1c.37-.24.8-.36,1.29-.36.28,0,.56.05.84.14s.53.25.76.46c.23.21.41.49.55.84s.21.78.21,1.28v.36h-4.21v-.72h3.75l-.39.27c0-.36-.06-.69-.17-.97s-.28-.51-.51-.67c-.23-.16-.51-.24-.84-.24s-.62.08-.86.25c-.24.16-.42.38-.55.64s-.19.55-.19.85v.48c0,.41.07.76.21,1.05s.34.5.6.65.55.22.89.22c.22,0,.42-.03.6-.1s.33-.16.46-.29.23-.29.3-.48l.81.23c-.08.27-.23.51-.43.72-.2.21-.45.37-.74.48s-.63.17-1,.17Z"/>
    <path class="cls-24" d="m123.42,159.69c-.46,0-.86-.12-1.21-.35s-.62-.56-.82-.98-.29-.93-.29-1.5.1-1.07.29-1.49c.2-.42.47-.75.82-.98s.75-.34,1.21-.34c.36,0,.64.06.85.18.21.12.37.25.48.4s.2.27.26.36h.07v-2.69h.83v7.28h-.8v-.84h-.1c-.06.1-.15.22-.26.37s-.28.29-.49.41c-.21.12-.49.18-.84.18Zm.11-.75c.34,0,.62-.09.85-.27s.41-.42.53-.74.18-.68.18-1.09-.06-.77-.18-1.08-.29-.55-.53-.72c-.23-.17-.52-.26-.86-.26s-.64.09-.88.27-.41.43-.53.74-.18.66-.18,1.04.06.74.18,1.05c.12.32.3.57.53.75s.53.28.87.28Z"/>
    <path class="cls-24" d="m130.93,159.7c-.34,0-.66-.07-.94-.2s-.51-.32-.67-.57-.25-.55-.25-.91c0-.31.06-.57.19-.76s.29-.35.5-.46c.21-.11.43-.2.68-.25.25-.06.5-.1.75-.13.33-.04.6-.07.81-.1.21-.02.36-.06.45-.12.1-.06.14-.15.14-.28v-.03c0-.35-.1-.62-.29-.81-.19-.19-.48-.29-.87-.29s-.71.09-.94.26-.39.36-.48.56l-.8-.28c.14-.33.33-.59.57-.78.24-.19.5-.32.78-.39.28-.07.56-.11.83-.11.18,0,.38.02.61.06s.45.13.67.25c.22.13.4.32.54.58.14.26.21.6.21,1.04v3.59h-.84v-.74h-.04c-.06.12-.15.24-.28.38s-.31.25-.53.35c-.22.1-.49.14-.81.14Zm.13-.75c.33,0,.61-.06.84-.2s.4-.3.52-.51.18-.42.18-.65v-.77s-.11.08-.23.11c-.12.03-.25.06-.41.09-.15.03-.3.05-.45.07s-.26.03-.35.04c-.22.03-.42.08-.61.14s-.34.16-.46.28c-.12.12-.17.29-.17.51,0,.29.11.51.32.66.22.15.49.22.83.22Z"/>
    <path class="cls-24" d="m136.87,154.11v.71h-2.82v-.71h2.82Zm-2-1.3h.83v5.2c0,.28.06.49.18.62s.3.2.56.2c.06,0,.11,0,.17,0,.06,0,.13-.02.2-.03l.18.75c-.08.03-.17.05-.29.07-.11.02-.23.03-.34.03-.44,0-.8-.13-1.07-.39-.27-.26-.41-.6-.41-1.02v-5.42Z"/>
    <path class="cls-24" d="m142.38,152.3v7.28h-.86v-6.35h-.05l-1.77,1.18v-.9l1.82-1.21h.86Z"/>
    <path class="cls-24" d="m147.51,159.7c-.34,0-.66-.07-.94-.2s-.51-.32-.67-.57-.25-.55-.25-.91c0-.31.06-.57.19-.76s.29-.35.5-.46c.21-.11.43-.2.68-.25.25-.06.5-.1.75-.13.33-.04.6-.07.81-.1.21-.02.36-.06.45-.12.1-.06.14-.15.14-.28v-.03c0-.35-.1-.62-.29-.81-.19-.19-.48-.29-.87-.29s-.71.09-.94.26-.39.36-.48.56l-.8-.28c.14-.33.33-.59.57-.78.24-.19.5-.32.78-.39.28-.07.56-.11.83-.11.18,0,.38.02.61.06s.45.13.67.25c.22.13.4.32.54.58.14.26.21.6.21,1.04v3.59h-.84v-.74h-.04c-.06.12-.15.24-.28.38s-.31.25-.53.35c-.22.1-.49.14-.81.14Zm.13-.75c.33,0,.61-.06.84-.2s.4-.3.52-.51.18-.42.18-.65v-.77s-.11.08-.23.11c-.12.03-.25.06-.41.09-.15.03-.3.05-.45.07s-.26.03-.35.04c-.22.03-.42.08-.61.14s-.34.16-.46.28c-.12.12-.17.29-.17.51,0,.29.11.51.32.66.22.15.49.22.83.22Z"/>
    <path class="cls-24" d="m151.92,156.29v3.28h-.83v-5.46h.8v.86h.08c.13-.28.32-.5.58-.67s.6-.25,1.01-.25c.37,0,.69.07.97.22s.49.38.65.68c.16.3.23.69.23,1.15v3.47h-.83v-3.41c0-.43-.11-.76-.34-1s-.53-.36-.92-.36c-.27,0-.51.06-.72.18s-.38.29-.5.51c-.12.22-.18.49-.18.81Z"/>
    <path class="cls-24" d="m158.68,159.69c-.51,0-.95-.12-1.32-.36-.37-.24-.65-.58-.85-1-.2-.42-.3-.91-.3-1.45s.1-1.05.31-1.47.49-.76.86-1c.37-.24.8-.36,1.29-.36.38,0,.73.07,1.04.21.31.14.56.34.76.6.2.26.32.56.36.9h-.84c-.04-.17-.12-.32-.23-.47s-.26-.26-.44-.35c-.18-.09-.4-.13-.64-.13-.33,0-.61.08-.85.25s-.43.41-.57.72-.21.67-.21,1.08.07.79.2,1.1.32.56.57.73c.25.17.53.26.86.26s.61-.09.84-.26.39-.4.46-.7h.84c-.05.32-.16.61-.35.87-.19.26-.43.46-.74.61-.3.15-.66.23-1.06.23Z"/>
    <path class="cls-24" d="m162.45,156.29v3.28h-.83v-7.28h.83v2.68h.08c.13-.28.32-.51.57-.68.25-.17.6-.25,1.03-.25.37,0,.7.07.98.22s.5.37.65.68.23.69.23,1.16v3.47h-.84v-3.41c0-.44-.11-.77-.34-1.01s-.54-.36-.93-.36c-.28,0-.52.06-.74.18s-.38.29-.51.51c-.12.22-.19.49-.19.81Z"/>
    <path class="cls-24" d="m169.28,159.69c-.49,0-.92-.12-1.29-.35s-.66-.56-.87-.99c-.21-.42-.31-.91-.31-1.47s.1-1.07.31-1.49c.21-.42.5-.75.87-.99s.8-.35,1.29-.35.93.12,1.3.35.66.56.87.99.31.92.31,1.49-.1,1.05-.31,1.47-.5.75-.87.99-.8.35-1.3.35Zm0-.75c.38,0,.69-.1.93-.29s.42-.45.54-.76.18-.65.18-1.01-.06-.71-.18-1.03-.3-.57-.54-.76-.55-.29-.93-.29-.68.1-.92.29-.42.45-.54.76-.18.66-.18,1.03.06.7.18,1.01.3.57.54.76.55.29.92.29Z"/>
    <path class="cls-24" d="m172.57,159.57v-5.46h.8v.83h.06c.1-.27.28-.49.54-.66.26-.17.56-.25.88-.25.06,0,.14,0,.23,0s.16,0,.21,0v.85s-.09-.02-.2-.03-.21-.02-.32-.02c-.26,0-.5.06-.71.17s-.37.26-.49.45c-.12.19-.18.41-.18.66v3.45h-.83Z"/>
    <path class="cls-24" d="m180.22,159.69c-.46,0-.86-.12-1.21-.35s-.62-.56-.82-.98-.29-.93-.29-1.5.1-1.07.29-1.49c.2-.42.47-.75.82-.98s.75-.34,1.21-.34c.36,0,.64.06.85.18.21.12.37.25.48.4s.2.27.26.36h.07v-2.69h.83v7.28h-.8v-.84h-.1c-.06.1-.15.22-.26.37s-.28.29-.49.41c-.21.12-.49.18-.84.18Zm.11-.75c.34,0,.62-.09.85-.27s.41-.42.53-.74.18-.68.18-1.09-.06-.77-.18-1.08-.29-.55-.53-.72c-.23-.17-.52-.26-.86-.26s-.64.09-.88.27-.41.43-.53.74-.18.66-.18,1.04.06.74.18,1.05c.12.32.3.57.53.75s.53.28.87.28Z"/>
    <path class="cls-24" d="m185.99,159.69c-.49,0-.92-.12-1.29-.35s-.66-.56-.87-.99c-.21-.42-.31-.91-.31-1.47s.1-1.07.31-1.49c.21-.42.5-.75.87-.99s.8-.35,1.29-.35.93.12,1.3.35.66.56.87.99.31.92.31,1.49-.1,1.05-.31,1.47-.5.75-.87.99-.8.35-1.3.35Zm0-.75c.38,0,.69-.1.93-.29s.42-.45.54-.76.18-.65.18-1.01-.06-.71-.18-1.03-.3-.57-.54-.76-.55-.29-.93-.29-.68.1-.92.29-.42.45-.54.76-.18.66-.18,1.03.06.7.18,1.01.3.57.54.76.55.29.92.29Z"/>
    <path class="cls-24" d="m193.14,155.34l-.75.21c-.07-.19-.19-.36-.37-.53-.17-.17-.44-.25-.81-.25-.33,0-.61.08-.83.23s-.33.35-.33.58c0,.21.08.37.23.5.15.12.39.22.71.3l.81.2c.49.12.85.3,1.09.54.24.24.36.56.36.93,0,.31-.09.59-.27.84s-.43.44-.75.59-.69.21-1.11.21c-.56,0-1.02-.12-1.38-.37-.36-.24-.59-.6-.69-1.06l.79-.2c.08.29.22.51.43.66.21.15.49.22.84.22.39,0,.7-.08.93-.25.23-.17.35-.37.35-.6,0-.38-.27-.64-.81-.77l-.91-.21c-.5-.12-.87-.3-1.1-.55s-.35-.56-.35-.93c0-.31.09-.58.26-.82.17-.24.41-.42.71-.56s.64-.2,1.03-.2c.54,0,.97.12,1.28.36.31.24.53.55.66.94Z"/>
    <path class="cls-24" d="m196.32,159.69c-.52,0-.98-.12-1.36-.35-.38-.23-.68-.56-.88-.98s-.31-.91-.31-1.47.1-1.05.3-1.48.49-.76.85-1c.37-.24.8-.36,1.29-.36.28,0,.56.05.84.14s.53.25.76.46c.23.21.41.49.55.84s.21.78.21,1.28v.36h-4.21v-.72h3.75l-.39.27c0-.36-.06-.69-.17-.97s-.28-.51-.51-.67c-.23-.16-.51-.24-.84-.24s-.62.08-.86.25c-.24.16-.42.38-.55.64s-.19.55-.19.85v.48c0,.41.07.76.21,1.05s.34.5.6.65.55.22.89.22c.22,0,.42-.03.6-.1s.33-.16.46-.29.23-.29.3-.48l.81.23c-.08.27-.23.51-.43.72-.2.21-.45.37-.74.48s-.63.17-1,.17Z"/>
  </g>
  <polygon class="cls-2" points="132.41 26.83 132.41 33.71 65.87 33.71 132.41 26.83"/>
  <g>
    <path class="cls-24" d="m59.79,20.75c-.63,0-1.18-.09-1.65-.28-.47-.19-.84-.48-1.1-.87s-.39-.89-.4-1.5h1.88c.01.22.07.41.17.56.1.15.24.27.42.35.18.08.4.12.65.12.21,0,.39-.03.53-.08s.25-.12.33-.22c.07-.09.11-.2.11-.32,0-.11-.04-.21-.11-.29-.07-.08-.18-.16-.34-.23s-.37-.13-.64-.19l-.73-.16c-.64-.14-1.15-.37-1.52-.7-.37-.33-.55-.78-.55-1.35,0-.46.12-.87.38-1.21s.6-.62,1.04-.81c.44-.19.95-.29,1.53-.29s1.1.1,1.53.3c.43.2.76.47.99.83.23.36.35.77.35,1.25h-1.89c-.02-.24-.1-.42-.26-.55-.16-.13-.4-.2-.71-.2-.2,0-.37.02-.5.07s-.23.11-.29.2-.09.18-.09.29c0,.11.03.21.1.3.07.09.17.16.32.22.14.06.33.12.56.17l.6.13c.4.08.74.2,1.03.34.29.14.52.3.71.49.18.19.32.4.41.63.09.23.13.49.13.77,0,.48-.12.88-.35,1.22-.24.33-.57.59-1.01.76s-.97.26-1.58.26Z"/>
    <path class="cls-24" d="m63.29,20.66v-5.46h1.96v5.46h-1.96Zm.98-6.02c-.27,0-.5-.09-.68-.26s-.28-.39-.28-.63.09-.46.28-.64.42-.26.68-.26.5.09.68.26.28.38.28.63-.09.46-.28.64-.42.26-.68.26Z"/>
    <path class="cls-24" d="m67.98,17.59v3.07h-1.96v-5.46h1.94v1.04h.04c.12-.35.32-.62.59-.82.27-.2.61-.3,1.02-.3s.72.09,1.01.26c.29.18.51.42.66.73s.23.66.23,1.06v3.48h-1.96v-3.07c0-.27-.07-.48-.21-.64s-.33-.23-.58-.23c-.16,0-.3.04-.42.1-.12.07-.21.17-.28.3s-.1.28-.1.47Z"/>
    <path class="cls-24" d="m74.88,22.82c-.82,0-1.46-.17-1.92-.51-.46-.34-.71-.77-.74-1.3h1.88c.02.12.07.21.14.28s.17.12.29.16.26.05.41.05c.25,0,.46-.06.63-.19s.25-.35.25-.66v-.93h-.06c-.07.18-.18.34-.32.47-.15.13-.33.23-.53.3s-.43.1-.68.1c-.39,0-.74-.09-1.07-.27s-.59-.47-.78-.86c-.2-.39-.29-.9-.29-1.53,0-.66.1-1.2.31-1.61.21-.41.47-.71.8-.91s.67-.29,1.03-.29c.27,0,.51.05.71.14s.38.22.52.37c.14.16.25.33.32.51h.04v-.96h1.94v5.45c0,.46-.12.85-.36,1.17-.24.32-.57.57-1,.74s-.93.25-1.51.25Zm.07-3.62c.27,0,.48-.11.64-.33.16-.22.23-.53.23-.93,0-.27-.04-.5-.11-.7-.07-.19-.17-.34-.3-.45-.13-.1-.28-.16-.47-.16s-.33.05-.46.16-.22.25-.29.45c-.07.19-.1.43-.1.7s.03.49.1.68c.07.19.16.33.29.43s.28.15.46.15Z"/>
    <path class="cls-24" d="m80.48,13.39v7.28h-1.96v-7.28h1.96Z"/>
    <path class="cls-24" d="m83.86,20.76c-.58,0-1.08-.11-1.51-.33-.42-.22-.75-.54-.97-.96s-.34-.92-.34-1.51.11-1.06.34-1.48c.23-.42.55-.75.96-.98s.9-.35,1.46-.35c.41,0,.79.06,1.12.19.33.13.62.31.86.56s.42.54.55.88.19.74.19,1.17v.45h-4.87v-1.07h3.96l-.92.22c0-.22-.03-.41-.1-.56s-.16-.27-.29-.35-.29-.12-.47-.12-.35.04-.47.12-.22.2-.29.35-.1.34-.1.56v.78c0,.21.04.4.12.56.08.16.18.28.32.37s.3.13.49.13c.13,0,.25-.02.36-.06.11-.04.2-.09.28-.16s.14-.16.18-.26h1.79c-.06.38-.21.71-.43.98-.23.28-.53.49-.9.64-.37.15-.81.23-1.32.23Z"/>
    <path class="cls-24" d="m90.35,20.75c-.35,0-.66-.06-.93-.17-.27-.12-.48-.29-.63-.52s-.22-.53-.22-.89c0-.3.05-.56.15-.77s.24-.38.42-.52.39-.24.64-.31c.24-.07.51-.12.79-.14.31-.02.55-.05.73-.08.18-.03.32-.08.4-.14.08-.06.12-.15.12-.25v-.02c0-.14-.05-.25-.16-.32s-.25-.11-.42-.11c-.19,0-.34.04-.46.12s-.19.21-.21.38h-1.8c.02-.33.13-.64.31-.92.19-.28.46-.5.83-.67.36-.17.82-.25,1.36-.25.39,0,.74.05,1.04.14s.57.22.79.38.38.35.5.57c.12.22.17.45.17.7v3.74h-1.84v-.77h-.04c-.11.21-.24.37-.4.5-.15.13-.33.22-.52.28s-.41.09-.65.09Zm.63-1.24c.15,0,.29-.03.42-.09.13-.06.24-.15.32-.27.08-.12.12-.26.12-.42v-.45c-.05.02-.11.04-.17.06s-.12.04-.19.05c-.07.02-.14.03-.21.04-.07.01-.14.03-.22.04-.15.02-.28.06-.37.11-.1.05-.17.12-.21.2s-.07.16-.07.26c0,.15.05.27.16.35.11.08.24.12.41.12Z"/>
    <path class="cls-24" d="m97.17,22.82c-.82,0-1.46-.17-1.92-.51-.46-.34-.71-.77-.74-1.3h1.88c.02.12.07.21.14.28s.17.12.29.16.26.05.41.05c.25,0,.46-.06.63-.19s.25-.35.25-.66v-.93h-.06c-.07.18-.18.34-.32.47-.15.13-.33.23-.53.3s-.43.1-.68.1c-.39,0-.74-.09-1.07-.27s-.59-.47-.78-.86c-.2-.39-.29-.9-.29-1.53,0-.66.1-1.2.31-1.61.21-.41.47-.71.8-.91s.67-.29,1.03-.29c.27,0,.51.05.71.14s.38.22.52.37c.14.16.25.33.32.51h.04v-.96h1.94v5.45c0,.46-.12.85-.36,1.17-.24.32-.57.57-1,.74s-.93.25-1.51.25Zm.07-3.62c.27,0,.48-.11.64-.33.16-.22.23-.53.23-.93,0-.27-.04-.5-.11-.7-.07-.19-.17-.34-.3-.45-.13-.1-.28-.16-.47-.16s-.33.05-.46.16-.22.25-.29.45c-.07.19-.1.43-.1.7s.03.49.1.68c.07.19.16.33.29.43s.28.15.46.15Z"/>
    <path class="cls-24" d="m103.42,20.76c-.58,0-1.08-.11-1.51-.33-.42-.22-.75-.54-.97-.96s-.34-.92-.34-1.51.11-1.06.34-1.48c.23-.42.55-.75.96-.98s.9-.35,1.46-.35c.41,0,.79.06,1.12.19.33.13.62.31.86.56s.42.54.55.88.19.74.19,1.17v.45h-4.87v-1.07h3.96l-.92.22c0-.22-.03-.41-.1-.56s-.16-.27-.29-.35-.29-.12-.47-.12-.35.04-.47.12-.22.2-.29.35-.1.34-.1.56v.78c0,.21.04.4.12.56.08.16.18.28.32.37s.3.13.49.13c.13,0,.25-.02.36-.06.11-.04.2-.09.28-.16s.14-.16.18-.26h1.79c-.06.38-.21.71-.43.98-.23.28-.53.49-.9.64-.37.15-.81.23-1.32.23Z"/>
    <path class="cls-24" d="m108.59,17.59v3.07h-1.96v-5.46h1.94v1.04h.04c.12-.35.32-.62.59-.82.27-.2.61-.3,1.02-.3s.72.09,1.01.26c.29.18.51.42.66.73s.23.66.23,1.06v3.48h-1.96v-3.07c0-.27-.07-.48-.21-.64s-.33-.23-.58-.23c-.16,0-.3.04-.42.1-.12.07-.21.17-.28.3s-.1.28-.1.47Z"/>
    <path class="cls-24" d="m116.14,15.2v1.43h-3.59v-1.43h3.59Zm-2.9-1.3h1.96v5c0,.11.03.2.09.26s.15.09.28.09c.06,0,.13,0,.21-.02.08-.01.14-.03.17-.04l.28,1.39c-.22.06-.43.11-.61.13s-.36.04-.54.04c-.61,0-1.07-.14-1.38-.42-.31-.28-.47-.69-.47-1.24v-5.19Z"/>
    <path class="cls-24" d="m120.42,20.73c-.39,0-.74-.1-1.07-.31-.33-.2-.59-.51-.78-.93s-.29-.93-.29-1.56c0-.66.1-1.2.31-1.61s.47-.71.8-.91.67-.29,1.03-.29c.27,0,.51.05.71.14.2.09.37.22.51.37.14.16.24.33.31.51h.03v-2.77h1.96v7.28h-1.94v-.9h-.05c-.08.19-.18.35-.32.5s-.31.26-.51.34-.43.13-.68.13Zm.72-1.5c.18,0,.33-.05.46-.16s.23-.25.3-.45c.07-.19.11-.42.11-.68s-.04-.5-.11-.7c-.07-.19-.17-.34-.3-.45s-.29-.16-.46-.16-.33.05-.46.16-.22.25-.29.45c-.07.19-.1.43-.1.7s.03.5.1.69c.07.19.16.34.29.44s.28.15.46.15Z"/>
    <path class="cls-24" d="m127.31,20.76c-.59,0-1.1-.12-1.52-.35-.42-.24-.74-.56-.97-.99-.22-.42-.33-.91-.33-1.47s.11-1.05.33-1.47c.22-.42.55-.75.97-.99.42-.24.93-.35,1.52-.35s1.1.12,1.52.35c.42.24.74.56.97.99.22.42.33.91.33,1.47s-.11,1.05-.33,1.47c-.22.42-.55.75-.97.99-.42.24-.93.35-1.52.35Zm0-1.46c.17,0,.31-.05.43-.16s.21-.26.28-.47.1-.45.1-.73-.03-.53-.1-.73-.16-.35-.28-.45-.27-.16-.43-.16-.32.05-.45.16c-.12.1-.22.26-.29.45s-.1.44-.1.73.03.53.1.73.16.36.29.47c.13.11.27.16.45.16Z"/>
    <path class="cls-24" d="m135.68,16.98h-1.8c-.01-.17-.09-.3-.24-.39-.15-.1-.31-.14-.51-.14-.17,0-.31.03-.43.09s-.18.15-.18.26c0,.08.04.16.11.23.07.07.21.13.41.16l1.11.2c.56.1.97.27,1.25.51.27.24.41.56.41.97s-.11.73-.34,1.01-.54.5-.94.66c-.39.15-.84.23-1.35.23-.83,0-1.49-.17-1.96-.51-.47-.34-.73-.79-.79-1.35h1.94c.03.17.12.31.26.4s.33.14.55.14c.18,0,.33-.03.45-.09s.18-.15.18-.26c0-.19-.21-.33-.62-.4l-.97-.18c-.55-.1-.97-.29-1.25-.55s-.42-.62-.42-1.05c0-.38.1-.7.3-.97.2-.26.49-.46.87-.6.38-.14.83-.21,1.35-.21.79,0,1.41.16,1.86.49.45.33.69.78.71,1.35Z"/>
    <path class="cls-24" d="m138.96,20.76c-.58,0-1.08-.11-1.51-.33-.42-.22-.75-.54-.97-.96s-.34-.92-.34-1.51.11-1.06.34-1.48c.23-.42.55-.75.96-.98s.9-.35,1.46-.35c.41,0,.79.06,1.12.19.33.13.62.31.86.56s.42.54.55.88.19.74.19,1.17v.45h-4.87v-1.07h3.96l-.92.22c0-.22-.03-.41-.1-.56s-.16-.27-.29-.35-.29-.12-.47-.12-.35.04-.47.12-.22.2-.29.35-.1.34-.1.56v.78c0,.21.04.4.12.56.08.16.18.28.32.37s.3.13.49.13c.13,0,.25-.02.36-.06.11-.04.2-.09.28-.16s.14-.16.18-.26h1.79c-.06.38-.21.71-.43.98-.23.28-.53.49-.9.64-.37.15-.81.23-1.32.23Z"/>
  </g>
</svg>