<?xml version="1.0" encoding="UTF-8"?>
<svg id="Layer_1" data-name="Layer 1" xmlns="http://www.w3.org/2000/svg" xmlns:xlink="http://www.w3.org/1999/xlink" viewBox="0 0 1623.3 1623.3">
  <defs>
    <style>
      .cls-1 {
        fill: none;
      }

      .cls-2 {
        clip-path: url(#clippath);
      }

      .cls-3 {
        fill: #e48a4a;
      }

      .cls-4 {
        fill: #fff;
      }

      .cls-5 {
        fill: #edb868;
      }

      .cls-6 {
        fill: #9c9d9e;
      }

      .cls-7 {
        fill: #ac0f3c;
      }

      .cls-8 {
        fill: #bdc1c1;
      }

      .cls-9 {
        fill: #ce253a;
      }

      .cls-10 {
        fill: #dee0df;
      }

      .cls-11 {
        fill: #de733d;
      }

      .cls-12 {
        clip-path: url(#clippath-1);
      }

      .cls-13 {
        clip-path: url(#clippath-4);
      }

      .cls-14 {
        clip-path: url(#clippath-3);
      }

      .cls-15 {
        clip-path: url(#clippath-2);
      }

      .cls-16 {
        opacity: .5;
      }
    </style>
    <clipPath id="clippath">
      <circle class="cls-1" cx="790.67" cy="783.78" r="600.05"/>
    </clipPath>
    <clipPath id="clippath-1">
      <rect class="cls-1" x="54.95" y="318.51" width="1159.26" height="1159.26"/>
    </clipPath>
    <clipPath id="clippath-2">
      <rect class="cls-1" x="54.95" y="318.51" width="1159.26" height="1159.26"/>
    </clipPath>
    <clipPath id="clippath-3">
      <rect class="cls-1" x="103.35" y="321.45" width="1110.03" height="1108.89"/>
    </clipPath>
    <clipPath id="clippath-4">
      <circle class="cls-1" cx="755.65" cy="808.16" r="613.28"/>
    </clipPath>
  </defs>
  <g>
    <g class="cls-2">
      <g id="Mask_Group_10" data-name="Mask Group 10">
        <g id="Group_567" data-name="Group 567">
          <g class="cls-12">
            <g id="Group_558" data-name="Group 558">
              <g id="Group_557" data-name="Group 557">
                <g class="cls-15">
                  <g id="Group_556" data-name="Group 556">
                    <g id="Group_555" data-name="Group 555" class="cls-16">
                      <g id="Group_554" data-name="Group 554">
                        <g class="cls-14">
                          <g id="Group_553" data-name="Group 553">
                            <path id="Path_38594" data-name="Path 38594" class="cls-8" d="m109.77,1430.32c-3.54,0-6.41-2.87-6.41-6.41V327.85c0-3.54,2.87-6.41,6.41-6.41s6.41,2.87,6.41,6.41v1096.06c0,3.54-2.87,6.41-6.41,6.41"/>
                            <path id="Path_38595" data-name="Path 38595" class="cls-8" d="m331.38,1430.32c-3.54,0-6.41-2.87-6.41-6.41V327.85c0-3.54,2.87-6.41,6.41-6.41s6.41,2.87,6.41,6.41v1096.06c0,3.54-2.87,6.41-6.41,6.41"/>
                            <path id="Path_38596" data-name="Path 38596" class="cls-8" d="m552.99,1430.32c-3.54,0-6.41-2.87-6.41-6.41V327.85c0-3.54,2.87-6.41,6.41-6.41s6.41,2.87,6.41,6.41v1096.06c0,3.54-2.87,6.41-6.41,6.41"/>
                            <path id="Path_38597" data-name="Path 38597" class="cls-8" d="m774.68,1430.32c-3.54,0-6.41-2.87-6.41-6.41V327.85c0-3.54,2.87-6.41,6.41-6.41s6.41,2.87,6.41,6.41v1096.06c0,3.54-2.87,6.41-6.41,6.41"/>
                            <path id="Path_38598" data-name="Path 38598" class="cls-8" d="m996.24,1430.32c-3.54,0-6.41-2.87-6.41-6.41V327.85c0-3.54,2.87-6.41,6.41-6.41s6.41,2.87,6.41,6.41v1096.06c0,3.54-2.87,6.41-6.41,6.41"/>
                            <path id="Path_38599" data-name="Path 38599" class="cls-8" d="m1206.97,543.86H109.77c-3.54,0-6.41-2.87-6.41-6.41s2.87-6.41,6.41-6.41h1097.2c3.54,0,6.41,2.87,6.41,6.41s-2.87,6.41-6.41,6.41"/>
                            <path id="Path_38600" data-name="Path 38600" class="cls-8" d="m1206.97,765.47H109.77c-3.54,0-6.41-2.87-6.41-6.41s2.87-6.41,6.41-6.41h1097.2c3.54,0,6.41,2.87,6.41,6.41s-2.87,6.41-6.41,6.41"/>
                            <path id="Path_38601" data-name="Path 38601" class="cls-8" d="m1206.97,987.08H109.77c-3.54,0-6.41-2.87-6.41-6.41s2.87-6.41,6.41-6.41h1097.2c3.54,0,6.41,2.87,6.41,6.41s-2.87,6.41-6.41,6.41"/>
                            <path id="Path_38602" data-name="Path 38602" class="cls-8" d="m1206.97,1208.71H109.77c-3.54,0-6.41-2.87-6.41-6.41s2.87-6.41,6.41-6.41h1097.2c3.54,0,6.41,2.87,6.41,6.41s-2.87,6.41-6.41,6.41"/>
                            <path id="Path_38603" data-name="Path 38603" class="cls-8" d="m1206.97,1430.32H109.77c-3.54,0-6.41-2.87-6.41-6.41s2.87-6.41,6.41-6.41h1097.2c3.54,0,6.41,2.87,6.41,6.41s-2.87,6.41-6.41,6.41"/>
                          </g>
                        </g>
                      </g>
                    </g>
                    <path id="Path_38604" data-name="Path 38604" class="cls-3" d="m489.48,957.87c-.04,32.56-26.46,58.92-59.02,58.89-32.56-.04-58.92-26.46-58.89-59.02.04-32.51,26.38-58.85,58.89-58.89,32.56-.04,58.98,26.33,59.02,58.89,0,.04,0,.09,0,.13"/>
                    <path id="Path_38605" data-name="Path 38605" class="cls-9" d="m521.75,694.79c0,32.59-26.42,59.02-59.02,59.02s-59.02-26.42-59.02-59.02,26.42-59.02,59.02-59.02h0c32.56-.04,58.98,26.33,59.02,58.89,0,.04,0,.09,0,.13"/>
                    <path id="Path_38606" data-name="Path 38606" class="cls-11" d="m793.89,896.55c0,32.56-26.39,58.95-58.95,58.95s-58.95-26.39-58.95-58.95c0-32.56,26.39-58.95,58.95-58.95s58.95,26.39,58.95,58.95h0"/>
                    <path id="Path_38607" data-name="Path 38607" class="cls-6" d="m348.75,1252.49c-.04,32.56-26.46,58.92-59.02,58.89-32.56-.04-58.92-26.46-58.89-59.02.04-32.51,26.38-58.85,58.89-58.89,32.56-.04,58.98,26.33,59.02,58.89,0,.04,0,.09,0,.13"/>
                    <path id="Path_38608" data-name="Path 38608" class="cls-6" d="m1003.05,965.22c0,32.59-26.42,59.02-59.02,59.02s-59.02-26.42-59.02-59.02,26.42-59.02,59.02-59.02h0c32.56-.04,58.98,26.33,59.02,58.89v.13"/>
                    <path id="Path_38609" data-name="Path 38609" class="cls-5" d="m474.24,1207.27c.04,32.59-26.36,59.04-58.95,59.08-32.59.04-59.04-26.36-59.08-58.95-.04-32.59,26.36-59.04,58.95-59.08.02,0,.04,0,.06,0,32.56-.04,58.98,26.33,59.02,58.89v.06"/>
                    <path id="Path_38610" data-name="Path 38610" class="cls-6" d="m840.18,550.31c0,32.59-26.42,59.02-59.02,59.02-32.59,0-59.02-26.42-59.02-59.02s26.42-59.02,59.02-59.02h0c32.56-.04,58.98,26.33,59.02,58.89,0,.04,0,.09,0,.13"/>
                  </g>
                </g>
              </g>
            </g>
          </g>
        </g>
      </g>
    </g>
    <g class="cls-13">
      <g>
        <g id="seq-02">
          <g>
            <path class="cls-7" d="m1371.19,911.45l-14.98,311.86c0,32.47-26.85,59.62-61.5,65.24v3.43l-31.53,346.51c0,40.58-20.92,73.98-46.2,73.98h-120.81c-25.29,0-45.89-33.4-45.89-73.98l-31.53-346.51v-2.81c-35.9-5.31-63.68-32.78-63.68-65.87l-14.98-311.86c0-36.84,34.03-56.81,75.54-56.81h73.67c-52.76-37.15-65.56-110.51-28.41-163.58,37.15-53.07,110.51-65.56,163.58-28.41,53.07,37.15,65.56,110.51,28.41,163.58-7.8,10.93-17.48,20.6-28.41,28.41h70.86c41.83-.31,75.86,19.98,75.86,56.81Z"/>
            <path class="cls-4" d="m1216.98,1726.57h-120.8c-33.64,0-60-38.69-60-88.08l-30.79-337.7c-37.94-10.12-64.42-41.23-64.42-77.49l-14.97-311.19c-.01-43.09,36.01-71.59,89.64-71.59h38.37c-35.26-44.44-38.86-108.71-4.66-157.56,20.12-28.73,50.3-47.85,84.98-53.84,34.59-5.97,69.47,1.84,98.25,21.97,59.25,41.48,73.56,123.67,31.87,183.22-1.52,2.12-3.09,4.19-4.71,6.21h35.61c29.13-.19,54.71,8.6,71.06,24.83,12.36,12.27,18.9,28.21,18.9,46.09v.67s-15,311.86-15,311.86c.01,34.88-25.56,65.6-62.21,76.02l-30.86,339.77c.06,48.11-26.43,86.8-60.25,86.8Zm-201.35-857.84c-28.34,0-61.44,11.19-61.44,42.71l14.97,311.19c.01,25.92,22.21,48.24,51.65,52.59l12.05,1.78v14.99l31.48,345.23c.06,35.55,16.83,61.15,31.84,61.15h120.8c15.15,0,32.1-25.61,32.1-59.87l31.59-347.79-.06-14.15,11.85-1.92c28.31-4.59,49.65-26.65,49.65-51.32l14.99-312.18c-.08-10.2-3.62-18.86-10.57-25.75-10.81-10.74-29.7-16.67-51.08-16.64h-114.98l35.81-25.58c9.72-6.95,18.18-15.4,25.13-25.13,32.68-46.69,21.49-111.26-25.02-143.82-46.82-32.77-111.37-21.59-143.93,24.94-32.67,46.67-21.47,111.25,24.97,143.95l36.41,25.64h-118.2Z"/>
          </g>
        </g>
        <g id="seq-02-2" data-name="seq-02">
          <g>
            <path class="cls-9" d="m1155.64,1194.16l-14.98,311.86c0,32.47-26.85,59.62-61.5,65.24v3.43l-31.53,346.51c0,40.58-20.92,73.98-46.2,73.98h-120.81c-25.29,0-45.89-33.4-45.89-73.98l-31.53-346.51v-2.81c-35.9-5.31-63.68-32.78-63.68-65.87l-14.98-311.86c0-36.84,34.03-56.81,75.54-56.81h73.67c-52.76-37.15-65.56-110.51-28.41-163.58,37.15-53.07,110.51-65.56,163.58-28.41,53.07,37.15,65.56,110.51,28.41,163.58-7.8,10.93-17.48,20.6-28.41,28.41h70.86c41.83-.31,75.86,19.98,75.86,56.81Z"/>
            <path class="cls-4" d="m1001.43,2009.29h-120.81c-33.64,0-60-38.69-60-88.09l-30.79-337.69c-37.94-10.12-64.42-41.23-64.42-77.5l-14.97-311.18c-.01-43.09,36.01-71.59,89.63-71.59h38.38c-35.26-44.44-38.86-108.71-4.67-157.56,20.12-28.74,50.3-47.87,84.98-53.85,34.61-5.96,69.48,1.83,98.25,21.97,28.73,20.12,47.86,50.3,53.85,84.98,5.97,34.59-1.83,69.48-21.97,98.25-1.52,2.12-3.09,4.19-4.71,6.21h35.61c.37,0,.73,0,1.09,0,28.97,0,53.82,8.8,69.97,24.83,12.37,12.27,18.91,28.21,18.91,46.1v.67s-15,311.85-15,311.85c.01,34.88-25.56,65.6-62.21,76.02l-30.85,339.77c.06,48.12-26.43,86.81-60.25,86.81Zm-201.35-857.84c-28.34,0-61.44,11.19-61.44,42.71l14.97,311.18c.01,25.92,22.21,48.24,51.66,52.59l12.04,1.78v14.97l31.48,345.23c.06,35.55,16.83,61.16,31.84,61.16h120.81c15.15,0,32.1-25.61,32.1-59.88l31.58-347.79-.06-14.15,11.85-1.92c28.31-4.59,49.65-26.65,49.65-51.32l14.99-312.17c-.08-10.21-3.63-18.87-10.57-25.76-10.82-10.74-30-16.72-51.08-16.63h-115l35.84-25.59c9.72-6.94,18.18-15.4,25.13-25.13,15.77-22.52,21.91-49.96,17.21-77.16-4.7-27.22-19.7-50.89-42.23-66.66-22.63-15.83-50.04-21.94-77.27-17.29-27.22,4.7-50.89,19.7-66.66,42.23-32.67,46.68-21.47,111.25,24.97,143.96l36.41,25.63h-118.2Z"/>
          </g>
        </g>
      </g>
    </g>
    <g>
      <path class="cls-8" d="m1517.27,1466.13l-230.03-229.9c-1.28-1.28-2.57-2.44-3.85-3.46,85.83-112,136.89-251.97,136.89-403.61,0-366.41-298.16-664.56-664.57-664.56S91.02,462.74,91.02,829.15s298.16,664.69,664.69,664.69c177.94,0,339.85-70.31,459.29-184.62l229.65,229.52c10.01,10.01,23.09,15.01,36.31,15.01s26.3-5,36.31-15.01c20.01-20.01,20.01-52.47,0-72.62Zm-761.56-74.92c-309.96,0-562.06-252.1-562.06-562.06S445.76,267.22,755.71,267.22s561.93,252.1,561.93,561.93-252.1,562.06-561.93,562.06Z"/>
      <path class="cls-10" d="m1517.27,1429.41l-230.03-229.9c-1.28-1.28-2.57-2.44-3.85-3.46,85.83-112,136.89-251.97,136.89-403.61,0-366.41-298.16-664.56-664.57-664.56S91.02,426.02,91.02,792.43s298.16,664.69,664.69,664.69c177.94,0,339.85-70.31,459.29-184.62l229.65,229.52c10.01,10.01,23.09,15.01,36.31,15.01s26.3-5,36.31-15.01c20.01-20.01,20.01-52.47,0-72.62Zm-761.56-74.92c-309.96,0-562.06-252.1-562.06-562.06S445.76,230.5,755.71,230.5s561.93,252.1,561.93,561.93-252.1,562.06-561.93,562.06Z"/>
    </g>
  </g>
  <g id="Group_569" data-name="Group 569">
    <g id="Group_568" data-name="Group 568">
      <path id="Path_38614" data-name="Path 38614" class="cls-4" d="m786.19,635.77c-57.99,0-105-47.01-105-105s47.01-105,105-105c57.99,0,105,47.01,105,105h0c-.07,57.96-47.04,104.94-105,105"/>
      <path id="Path_38615" data-name="Path 38615" class="cls-9" d="m837.44,530.8c-.02,28.31-22.98,51.24-51.29,51.22-28.31-.02-51.24-22.98-51.22-51.29.02-28.28,22.94-51.2,51.22-51.22,28.32,0,51.29,22.96,51.29,51.29"/>
      <path id="Path_38616" data-name="Path 38616" class="cls-9" d="m1293.45,283.75l-160.15,118.54-94.62-39.81-243.71,180.48c-2.23,1.65-4.93,2.55-7.7,2.57-4.05.06-7.88-1.86-10.27-5.13-4.22-5.57-3.12-13.51,2.45-17.73.04-.03.08-.06.12-.09l243.71-180.48-10.27-102.01,160.36-118.65,11.83,116.77,108.25,45.54Z"/>
      <path id="Path_38614-2" data-name="Path 38614" class="cls-9" d="m786.28,635.77c-57.99,0-105-47.01-105-105s47.01-105,105-105c57.99,0,105,47.01,105,105h0c-.07,57.96-47.04,104.94-105,105m0-192.63c-48.43,0-87.69,39.26-87.69,87.69s39.26,87.69,87.69,87.69,87.69-39.26,87.69-87.69-39.26-87.69-87.69-87.69"/>
    </g>
  </g>
</svg>