<?xml version="1.0" encoding="utf-8"?>
<!-- Generator: Adobe Illustrator 27.5.0, SVG Export Plug-In . SVG Version: 6.00 Build 0)  -->
<svg version="1.1" id="Layer_1" xmlns="http://www.w3.org/2000/svg" xmlns:xlink="http://www.w3.org/1999/xlink" x="0px" y="0px"
	 viewBox="0 0 180.4 76.7" style="enable-background:new 0 0 180.4 76.7;" xml:space="preserve">
<path d="M27.9,18.5v-5.8h2.5c0.4,0,0.8,0.1,1.1,0.2s0.5,0.3,0.7,0.5s0.2,0.5,0.2,0.8c0,0.2,0,0.4-0.1,0.6s-0.2,0.3-0.4,0.4
	s-0.4,0.2-0.6,0.2v0.1c0.2,0,0.5,0.1,0.7,0.2s0.4,0.3,0.5,0.5s0.2,0.4,0.2,0.7c0,0.3-0.1,0.6-0.2,0.9s-0.4,0.4-0.7,0.6
	s-0.7,0.2-1.1,0.2L27.9,18.5L27.9,18.5z M29.5,15h0.6c0.1,0,0.3,0,0.4-0.1s0.2-0.1,0.2-0.2s0.1-0.2,0.1-0.3c0-0.2-0.1-0.3-0.2-0.4
	s-0.3-0.1-0.5-0.1h-0.7L29.5,15L29.5,15z M29.5,17.2h0.7c0.3,0,0.5,0,0.6-0.1s0.2-0.2,0.2-0.4c0-0.1,0-0.2-0.1-0.4s-0.1-0.2-0.3-0.2
	S30.4,16,30.3,16h-0.8V17.2z"/>
<path d="M34.7,12.7v5.8h-1.6v-5.8H34.7z"/>
<path d="M35.3,18.5v-4.4h1.6v4.4H35.3z M36,13.7c-0.2,0-0.4-0.1-0.5-0.2s-0.2-0.3-0.2-0.5s0.1-0.4,0.2-0.5s0.3-0.2,0.5-0.2
	s0.4,0.1,0.5,0.2s0.2,0.3,0.2,0.5s-0.1,0.4-0.2,0.5S36.3,13.7,36,13.7z"/>
<path d="M41.4,15.6H40c0-0.1-0.1-0.2-0.2-0.3s-0.2-0.1-0.4-0.1c-0.1,0-0.2,0-0.3,0.1s-0.1,0.1-0.1,0.2c0,0.1,0,0.1,0.1,0.2
	s0.2,0.1,0.3,0.1l0.9,0.2c0.5,0.1,0.8,0.2,1,0.4s0.3,0.5,0.3,0.8s-0.1,0.6-0.3,0.8s-0.4,0.4-0.8,0.5s-0.7,0.2-1.1,0.2
	c-0.7,0-1.2-0.1-1.6-0.4s-0.6-0.6-0.6-1.1h1.5c0,0.1,0.1,0.2,0.2,0.3s0.3,0.1,0.4,0.1c0.2,0,0.3,0,0.4-0.1s0.1-0.1,0.1-0.2
	c0-0.1-0.2-0.3-0.5-0.3l-0.8-0.1c-0.4-0.1-0.8-0.2-1-0.4s-0.3-0.5-0.3-0.8c0-0.3,0.1-0.6,0.2-0.8s0.4-0.4,0.7-0.5s0.7-0.2,1.1-0.2
	c0.6,0,1.1,0.1,1.5,0.4S41.4,15.1,41.4,15.6L41.4,15.6z"/>
<path d="M46,15.6h-1.4c0-0.1-0.1-0.2-0.2-0.3s-0.2-0.1-0.4-0.1c-0.1,0-0.2,0-0.3,0.1s-0.1,0.1-0.1,0.2c0,0.1,0,0.1,0.1,0.2
	s0.2,0.1,0.3,0.1l0.9,0.2c0.5,0.1,0.8,0.2,1,0.4s0.3,0.5,0.3,0.8s-0.1,0.6-0.3,0.8s-0.4,0.4-0.8,0.5s-0.7,0.2-1.1,0.2
	c-0.7,0-1.2-0.1-1.6-0.4s-0.6-0.6-0.6-1.1h1.5c0,0.1,0.1,0.2,0.2,0.3s0.3,0.1,0.4,0.1c0.2,0,0.3,0,0.4-0.1s0.1-0.1,0.1-0.2
	c0-0.1-0.2-0.3-0.5-0.3l-0.8-0.1c-0.4-0.1-0.8-0.2-1-0.4s-0.3-0.5-0.3-0.8c0-0.3,0.1-0.6,0.2-0.8s0.4-0.4,0.7-0.5s0.7-0.2,1.1-0.2
	c0.6,0,1.1,0.1,1.5,0.4S45.9,15.1,46,15.6L46,15.6z"/>
<path d="M48,15.8c0-0.4,0-0.9,0.1-1.4s0.2-0.9,0.4-1.3s0.3-0.8,0.5-1.1h1.4c-0.2,0.4-0.3,0.8-0.5,1.2s-0.2,0.9-0.3,1.3
	s-0.1,0.9-0.1,1.2c0,0.3,0,0.7,0.1,1s0.1,0.7,0.3,1.1s0.3,0.9,0.5,1.4H49c-0.3-0.5-0.6-1.1-0.8-1.7S48,16.4,48,15.8z"/>
<path d="M50.8,12.7h2l1.3,3.3h0.1l1.4-3.3h2v5.8h-1.5v-3.4h0l-1.3,3.3h-0.9l-1.3-3.3h0v3.4h-1.5L50.8,12.7L50.8,12.7z"/>
<path d="M60.9,16.6v-2.5h1.6v4.4H61v-0.8h0c-0.1,0.3-0.3,0.5-0.5,0.6s-0.5,0.2-0.8,0.2c-0.3,0-0.6-0.1-0.8-0.2s-0.4-0.3-0.5-0.6
	s-0.2-0.5-0.2-0.9v-2.8h1.6v2.5c0,0.2,0,0.4,0.2,0.5s0.3,0.2,0.5,0.2c0.1,0,0.2,0,0.3-0.1s0.2-0.1,0.2-0.2S60.9,16.7,60.9,16.6
	L60.9,16.6z"/>
<path d="M64.7,12.7v5.8h-1.6v-5.8H64.7z"/>
<path d="M67.9,14.1v1.1H65v-1.1H67.9z M65.5,13.1h1.6v4c0,0.1,0,0.2,0.1,0.2s0.1,0.1,0.2,0.1c0.1,0,0.1,0,0.2,0s0.1,0,0.1,0l0.2,1.1
	c-0.2,0-0.3,0.1-0.5,0.1s-0.3,0-0.4,0c-0.5,0-0.9-0.1-1.1-0.3s-0.4-0.5-0.4-1L65.5,13.1L65.5,13.1z"/>
<path d="M68.3,18.5v-4.4h1.6v4.4H68.3z M69.1,13.7c-0.2,0-0.4-0.1-0.6-0.2s-0.2-0.3-0.2-0.5s0.1-0.4,0.2-0.5s0.3-0.2,0.6-0.2
	s0.4,0.1,0.6,0.2s0.2,0.3,0.2,0.5s-0.1,0.4-0.2,0.5S69.3,13.7,69.1,13.7z"/>
<path d="M70.5,20.1v-6H72v0.8h0c0.1-0.1,0.1-0.3,0.2-0.4s0.2-0.2,0.4-0.3s0.3-0.1,0.6-0.1c0.3,0,0.6,0.1,0.8,0.2s0.5,0.4,0.6,0.7
	s0.2,0.8,0.2,1.3c0,0.5-0.1,0.9-0.2,1.2s-0.4,0.6-0.6,0.7s-0.6,0.2-0.9,0.2c-0.2,0-0.4,0-0.5-0.1s-0.3-0.2-0.4-0.3s-0.2-0.2-0.3-0.4
	h0v2.4L70.5,20.1L70.5,20.1z M72.7,17.3c0.2,0,0.3,0,0.4-0.1s0.2-0.2,0.2-0.4s0.1-0.3,0.1-0.5s0-0.4-0.1-0.6s-0.1-0.3-0.2-0.4
	s-0.2-0.1-0.4-0.1s-0.3,0-0.4,0.1s-0.2,0.2-0.2,0.4S72,16.1,72,16.3s0,0.4,0.1,0.5s0.1,0.3,0.2,0.4S72.6,17.3,72.7,17.3L72.7,17.3z"
	/>
<path d="M77,12.7v5.8h-1.6v-5.8H77z"/>
<path d="M77.7,18.5v-4.4h1.6v4.4H77.7z M78.4,13.7c-0.2,0-0.4-0.1-0.6-0.2s-0.2-0.3-0.2-0.5s0.1-0.4,0.2-0.5s0.3-0.2,0.6-0.2
	s0.4,0.1,0.6,0.2s0.2,0.3,0.2,0.5s-0.1,0.4-0.2,0.5S78.7,13.7,78.4,13.7z"/>
<path d="M81.9,18.6c-0.5,0-0.9-0.1-1.2-0.3s-0.6-0.5-0.8-0.8s-0.3-0.7-0.3-1.2s0.1-0.8,0.3-1.2s0.4-0.6,0.8-0.8s0.7-0.3,1.2-0.3
	c0.4,0,0.8,0.1,1.1,0.2s0.6,0.4,0.7,0.6s0.3,0.6,0.3,1h-1.4c0-0.1-0.1-0.3-0.1-0.4s-0.1-0.2-0.2-0.2s-0.2-0.1-0.3-0.1
	c-0.1,0-0.3,0-0.4,0.1s-0.2,0.2-0.2,0.4s-0.1,0.4-0.1,0.6s0,0.4,0.1,0.6s0.1,0.3,0.2,0.4s0.2,0.1,0.4,0.1c0.2,0,0.3-0.1,0.4-0.2
	s0.2-0.3,0.2-0.5H84c0,0.4-0.1,0.7-0.3,1s-0.4,0.5-0.7,0.7S82.4,18.6,81.9,18.6L81.9,18.6z"/>
<path d="M85.7,18.6c-0.3,0-0.5,0-0.7-0.1s-0.4-0.2-0.5-0.4s-0.2-0.4-0.2-0.7c0-0.2,0-0.4,0.1-0.6s0.2-0.3,0.3-0.4s0.3-0.2,0.5-0.2
	s0.4-0.1,0.6-0.1c0.2,0,0.4,0,0.6-0.1s0.2-0.1,0.3-0.1s0.1-0.1,0.1-0.2v0c0-0.1,0-0.2-0.1-0.3s-0.2-0.1-0.3-0.1
	c-0.2,0-0.3,0-0.4,0.1s-0.2,0.2-0.2,0.3h-1.4c0-0.3,0.1-0.5,0.2-0.7s0.4-0.4,0.7-0.5s0.7-0.2,1.1-0.2c0.3,0,0.6,0,0.8,0.1
	s0.5,0.2,0.6,0.3s0.3,0.3,0.4,0.5s0.1,0.4,0.1,0.6v3H87v-0.6h0c-0.1,0.2-0.2,0.3-0.3,0.4s-0.3,0.2-0.4,0.2S85.9,18.6,85.7,18.6z
	 M86.2,17.6c0.1,0,0.2,0,0.3-0.1s0.2-0.1,0.3-0.2s0.1-0.2,0.1-0.3v-0.4c0,0-0.1,0-0.1,0s-0.1,0-0.2,0s-0.1,0-0.2,0s-0.1,0-0.2,0
	c-0.1,0-0.2,0-0.3,0.1s-0.1,0.1-0.2,0.2s-0.1,0.1-0.1,0.2c0,0.1,0,0.2,0.1,0.3S86.1,17.6,86.2,17.6L86.2,17.6z"/>
<path d="M91.7,14.1v1.1h-2.9v-1.1H91.7z M89.3,13.1h1.6v4c0,0.1,0,0.2,0.1,0.2s0.1,0.1,0.2,0.1c0.1,0,0.1,0,0.2,0s0.1,0,0.1,0
	l0.2,1.1c-0.2,0-0.3,0.1-0.5,0.1s-0.3,0-0.4,0c-0.5,0-0.9-0.1-1.1-0.3s-0.4-0.5-0.4-1L89.3,13.1L89.3,13.1z"/>
<path d="M92.1,18.5v-4.4h1.6v4.4H92.1z M92.9,13.7c-0.2,0-0.4-0.1-0.6-0.2s-0.2-0.3-0.2-0.5s0.1-0.4,0.2-0.5s0.3-0.2,0.6-0.2
	s0.4,0.1,0.6,0.2s0.2,0.3,0.2,0.5s-0.1,0.4-0.2,0.5S93.1,13.7,92.9,13.7z"/>
<path d="M98.7,14.1l-1.5,4.4h-1.8l-1.5-4.4h1.7l0.7,2.9h0.1l0.7-2.9C97.1,14.1,98.7,14.1,98.7,14.1z"/>
<path d="M100.9,18.6c-0.5,0-0.9-0.1-1.2-0.3s-0.6-0.4-0.8-0.8s-0.3-0.7-0.3-1.2s0.1-0.8,0.3-1.2s0.4-0.6,0.8-0.8s0.7-0.3,1.2-0.3
	c0.3,0,0.6,0.1,0.9,0.1s0.5,0.2,0.7,0.4s0.3,0.4,0.4,0.7s0.2,0.6,0.2,0.9v0.4h-3.9v-0.9h3.2l-0.7,0.2c0-0.2,0-0.3-0.1-0.4
	s-0.1-0.2-0.2-0.3s-0.2-0.1-0.4-0.1s-0.3,0-0.4,0.1s-0.2,0.2-0.2,0.3s-0.1,0.3-0.1,0.4v0.6c0,0.2,0,0.3,0.1,0.5s0.2,0.2,0.3,0.3
	s0.2,0.1,0.4,0.1c0.1,0,0.2,0,0.3,0s0.2-0.1,0.2-0.1s0.1-0.1,0.1-0.2h1.4c-0.1,0.3-0.2,0.6-0.3,0.8s-0.4,0.4-0.7,0.5
	S101.3,18.6,100.9,18.6L100.9,18.6z"/>
<path d="M107,18.6c-0.5,0-0.9-0.1-1.2-0.3s-0.6-0.4-0.8-0.8s-0.3-0.7-0.3-1.2s0.1-0.8,0.3-1.2s0.4-0.6,0.8-0.8s0.7-0.3,1.2-0.3
	c0.3,0,0.6,0.1,0.9,0.1s0.5,0.2,0.7,0.4s0.3,0.4,0.4,0.7s0.2,0.6,0.2,0.9v0.4h-3.9v-0.9h3.2l-0.7,0.2c0-0.2,0-0.3-0.1-0.4
	s-0.1-0.2-0.2-0.3s-0.2-0.1-0.4-0.1s-0.3,0-0.4,0.1s-0.2,0.2-0.2,0.3s-0.1,0.3-0.1,0.4v0.6c0,0.2,0,0.3,0.1,0.5s0.2,0.2,0.3,0.3
	s0.2,0.1,0.4,0.1c0.1,0,0.2,0,0.3,0s0.2-0.1,0.2-0.1s0.1-0.1,0.1-0.2h1.4c-0.1,0.3-0.2,0.6-0.3,0.8s-0.4,0.4-0.7,0.5
	S107.4,18.6,107,18.6L107,18.6z"/>
<path d="M112.2,14.1v1.1h-2.9v-1.1H112.2z M109.8,18.5V14c0-0.4,0.1-0.7,0.2-0.9s0.3-0.4,0.5-0.5s0.5-0.2,0.8-0.2
	c0.2,0,0.4,0,0.6,0.1s0.3,0.1,0.4,0.1l-0.2,1.1c-0.1,0-0.1,0-0.2,0s-0.1,0-0.2,0c-0.2,0-0.2,0-0.3,0.1s-0.1,0.1-0.1,0.2v4.6
	L109.8,18.5L109.8,18.5z"/>
<path d="M115.3,14.1v1.1h-2.9v-1.1H115.3z M112.9,18.5V14c0-0.4,0.1-0.7,0.2-0.9s0.3-0.4,0.5-0.5s0.5-0.2,0.8-0.2
	c0.2,0,0.4,0,0.6,0.1s0.3,0.1,0.4,0.1l-0.2,1.1c-0.1,0-0.1,0-0.2,0s-0.1,0-0.2,0c-0.2,0-0.2,0-0.3,0.1s-0.1,0.1-0.1,0.2v4.6
	L112.9,18.5L112.9,18.5z"/>
<path d="M117.6,18.6c-0.5,0-0.9-0.1-1.2-0.3s-0.6-0.4-0.8-0.8s-0.3-0.7-0.3-1.2s0.1-0.8,0.3-1.2s0.4-0.6,0.8-0.8s0.7-0.3,1.2-0.3
	c0.3,0,0.6,0.1,0.9,0.1s0.5,0.2,0.7,0.4s0.3,0.4,0.4,0.7s0.2,0.6,0.2,0.9v0.4h-3.9v-0.9h3.2l-0.7,0.2c0-0.2,0-0.3-0.1-0.4
	s-0.1-0.2-0.2-0.3s-0.2-0.1-0.4-0.1s-0.3,0-0.4,0.1s-0.2,0.2-0.2,0.3s-0.1,0.3-0.1,0.4v0.6c0,0.2,0,0.3,0.1,0.5s0.2,0.2,0.3,0.3
	s0.2,0.1,0.4,0.1c0.1,0,0.2,0,0.3,0s0.2-0.1,0.2-0.1s0.1-0.1,0.1-0.2h1.4c-0.1,0.3-0.2,0.6-0.3,0.8s-0.4,0.4-0.7,0.5
	S118,18.6,117.6,18.6L117.6,18.6z"/>
<path d="M122.3,18.6c-0.5,0-0.9-0.1-1.2-0.3s-0.6-0.5-0.8-0.8s-0.3-0.7-0.3-1.2s0.1-0.8,0.3-1.2s0.4-0.6,0.8-0.8s0.7-0.3,1.2-0.3
	c0.4,0,0.8,0.1,1.1,0.2s0.6,0.4,0.7,0.6s0.3,0.6,0.3,1H123c0-0.1-0.1-0.3-0.1-0.4s-0.1-0.2-0.2-0.2s-0.2-0.1-0.3-0.1
	c-0.1,0-0.3,0-0.4,0.1s-0.2,0.2-0.2,0.4s-0.1,0.4-0.1,0.6s0,0.4,0.1,0.6s0.1,0.3,0.2,0.4s0.2,0.1,0.4,0.1c0.2,0,0.3-0.1,0.4-0.2
	s0.2-0.3,0.2-0.5h1.4c0,0.4-0.1,0.7-0.3,1s-0.4,0.5-0.7,0.7S122.8,18.6,122.3,18.6L122.3,18.6z"/>
<path d="M127.5,14.1v1.1h-2.9v-1.1H127.5z M125.1,13.1h1.6v4c0,0.1,0,0.2,0.1,0.2s0.1,0.1,0.2,0.1c0.1,0,0.1,0,0.2,0s0.1,0,0.1,0
	l0.2,1.1c-0.2,0-0.3,0.1-0.5,0.1s-0.3,0-0.4,0c-0.5,0-0.9-0.1-1.1-0.3s-0.4-0.5-0.4-1L125.1,13.1L125.1,13.1z"/>
<path d="M131.9,15.6h-1.4c0-0.1-0.1-0.2-0.2-0.3c-0.1-0.1-0.2-0.1-0.4-0.1c-0.1,0-0.2,0-0.3,0.1s-0.1,0.1-0.1,0.2
	c0,0.1,0,0.1,0.1,0.2c0.1,0.1,0.2,0.1,0.3,0.1l0.9,0.2c0.4,0.1,0.8,0.2,1,0.4c0.2,0.2,0.3,0.5,0.3,0.8s-0.1,0.6-0.3,0.8
	c-0.2,0.2-0.4,0.4-0.8,0.5s-0.7,0.2-1.1,0.2c-0.7,0-1.2-0.1-1.6-0.4s-0.6-0.6-0.6-1.1h1.6c0,0.1,0.1,0.2,0.2,0.3s0.3,0.1,0.4,0.1
	c0.1,0,0.3,0,0.4-0.1s0.1-0.1,0.1-0.2c0-0.1-0.2-0.3-0.5-0.3l-0.8-0.1c-0.4-0.1-0.8-0.2-1-0.4s-0.3-0.5-0.3-0.8
	c0-0.3,0.1-0.6,0.2-0.8s0.4-0.4,0.7-0.5c0.3-0.1,0.7-0.2,1.1-0.2c0.6,0,1.1,0.1,1.5,0.4S131.9,15.1,131.9,15.6L131.9,15.6z"/>
<path d="M132.1,19.6c0.2-0.5,0.4-1,0.5-1.4s0.2-0.8,0.3-1.1s0.1-0.7,0.1-1c0-0.4,0-0.8-0.1-1.2s-0.2-0.9-0.3-1.3
	c-0.1-0.4-0.3-0.9-0.4-1.2h1.4c0.2,0.3,0.4,0.7,0.5,1.1c0.1,0.4,0.3,0.9,0.4,1.3s0.1,0.9,0.1,1.4c0,0.6-0.1,1.2-0.3,1.8
	s-0.4,1.1-0.8,1.7H132.1L132.1,19.6z"/>
<path d="M29.6,27.1c0.1-0.5,0.3-0.9,0.5-1.3s0.5-0.8,0.8-1c0.3-0.3,0.6-0.5,1-0.7c0.3-0.2,0.7-0.3,1-0.3c0.2,0,0.4,0,0.5,0.1
	c0.1,0.1,0.3,0.1,0.4,0.2c0.1,0.1,0.2,0.2,0.2,0.3s0.1,0.2,0.1,0.3c0,0.1,0,0.3-0.1,0.4c-0.1,0.1-0.2,0.2-0.4,0.2
	c-0.2,0-0.3,0-0.4-0.1s-0.1-0.1-0.1-0.2s0-0.1,0-0.2s0.1-0.1,0.1-0.2c0,0,0.1-0.1,0.1-0.1s0-0.1,0-0.2c0-0.1,0-0.2-0.1-0.3
	s-0.2-0.1-0.3-0.1c-0.4,0-0.7,0.1-1,0.3c-0.3,0.2-0.5,0.5-0.7,0.8s-0.4,0.6-0.5,1c-0.1,0.3-0.2,0.6-0.3,0.8l-0.2,0.9h1.5l0,0.2h-1.5
	L29.2,32c-0.1,0.5-0.3,1-0.5,1.5c-0.2,0.5-0.5,0.9-0.7,1.3c-0.3,0.4-0.6,0.7-0.9,0.9s-0.6,0.3-1,0.3c-0.1,0-0.2,0-0.3,0
	c-0.1,0-0.2-0.1-0.3-0.1s-0.2-0.1-0.2-0.2c-0.1-0.1-0.1-0.2-0.1-0.4s0-0.3,0.1-0.4c0.1-0.1,0.2-0.2,0.4-0.2c0.1,0,0.2,0,0.2,0.1
	s0.1,0.1,0.1,0.2c0,0.1,0,0.2-0.1,0.3c0,0.1-0.1,0.2-0.1,0.3c0,0.1,0,0.2,0.1,0.2s0.1,0.1,0.3,0.1c0.3,0,0.7-0.2,1-0.7
	s0.6-1.2,0.9-2.2l1.3-5h-1.1l0-0.2h1.1L29.6,27.1L29.6,27.1z"/>
<path d="M33.7,27.3l0-0.1h1.8c0.3,0,0.5,0,0.8,0.1s0.4,0.1,0.6,0.2c0.2,0.1,0.3,0.2,0.4,0.4s0.1,0.3,0.1,0.5c0,0.2,0,0.3-0.1,0.5
	s-0.2,0.3-0.3,0.4c-0.1,0.1-0.2,0.2-0.4,0.3s-0.3,0.1-0.4,0.2s-0.3,0.1-0.4,0.1s-0.2,0-0.3,0l0,0c0.1,0,0.2,0,0.3,0.1
	s0.3,0.1,0.5,0.2s0.3,0.2,0.4,0.4s0.2,0.4,0.2,0.6c0,0.3-0.1,0.5-0.2,0.7c-0.2,0.2-0.4,0.4-0.6,0.5c-0.2,0.1-0.5,0.2-0.9,0.3
	s-0.6,0.1-1,0.1c-0.2,0-0.4,0-0.6,0c-0.2,0-0.4,0-0.6,0h-1.2l0-0.1h0.8l2-5.5L33.7,27.3L33.7,27.3z M33.8,32.8c0.1,0,0.2,0,0.3,0
	c0.3,0,0.6-0.1,0.9-0.2c0.2-0.1,0.5-0.3,0.6-0.5c0.2-0.2,0.3-0.4,0.4-0.6c0.1-0.2,0.1-0.4,0.1-0.6c0-0.1,0-0.2,0-0.4
	s-0.1-0.2-0.1-0.3s-0.1-0.1-0.2-0.2c-0.1,0-0.1-0.1-0.2-0.1c-0.1,0-0.2-0.1-0.3-0.1s-0.2,0-0.4,0h-0.4l-1,2.9
	C33.5,32.8,33.6,32.8,33.8,32.8L33.8,32.8z M35.2,29.8c0.2,0,0.4,0,0.6-0.1s0.3-0.2,0.5-0.3s0.2-0.3,0.3-0.5s0.1-0.4,0.1-0.6
	c0-0.3-0.1-0.5-0.2-0.7s-0.4-0.2-0.7-0.2h-0.3l-0.9,2.5L35.2,29.8L35.2,29.8z"/>
<path d="M39,32.2c0,0.1,0,0.2-0.1,0.2c0,0.1,0,0.2,0,0.2c0,0.1,0,0.1,0.1,0.2c0,0,0.1,0.1,0.2,0.1c0.1,0,0.2,0,0.2-0.1
	s0.2-0.1,0.2-0.2c0.1-0.1,0.1-0.2,0.2-0.2s0.1-0.1,0.1-0.2l0.1,0c0,0,0,0.1-0.1,0.2s-0.1,0.2-0.2,0.3s-0.2,0.2-0.3,0.2
	S39.2,33,39,33c-0.2,0-0.3,0-0.4-0.1s-0.2-0.2-0.2-0.4c0-0.1,0-0.2,0-0.3s0.1-0.2,0.1-0.3l1.8-5h-0.7l0-0.1h1.3L39,32.2L39,32.2z"/>
<path d="M41.5,29.6l0-0.1h1.3l-0.9,2.7c0,0.1,0,0.2-0.1,0.2c0,0.1,0,0.2,0,0.2c0,0.1,0,0.1,0.1,0.2c0,0,0.1,0.1,0.2,0.1
	c0.1,0,0.2,0,0.2-0.1s0.2-0.1,0.2-0.2c0.1-0.1,0.1-0.2,0.2-0.2s0.1-0.1,0.1-0.2l0.1,0c0,0,0,0.1-0.1,0.2s-0.1,0.2-0.2,0.3
	s-0.2,0.2-0.3,0.2S42,33,41.8,33c-0.2,0-0.3,0-0.4-0.1s-0.2-0.2-0.2-0.4c0-0.1,0-0.2,0-0.3s0.1-0.2,0.1-0.3l0.8-2.3L41.5,29.6
	L41.5,29.6z M42.8,27.3c0.1-0.1,0.2-0.1,0.3-0.1s0.2,0,0.3,0.1s0.1,0.2,0.1,0.3s0,0.2-0.1,0.3S43.2,28,43.1,28s-0.2,0-0.3-0.1
	s-0.1-0.2-0.1-0.3S42.8,27.4,42.8,27.3z"/>
<path d="M44.6,30.8c-0.1-0.1-0.1-0.2-0.1-0.4c0-0.1,0-0.2,0.1-0.4s0.2-0.2,0.3-0.4c0.1-0.1,0.2-0.2,0.4-0.2s0.3-0.1,0.5-0.1
	c0.2,0,0.4,0,0.5,0.1s0.2,0.2,0.2,0.4c0,0.2-0.1,0.3-0.3,0.3c-0.1,0-0.1,0-0.2-0.1c-0.1,0-0.1-0.1-0.1-0.2c0-0.1,0-0.1,0-0.2
	s0-0.1,0-0.1c0-0.1-0.1-0.2-0.3-0.2c-0.1,0-0.2,0-0.3,0.1c-0.1,0-0.2,0.1-0.2,0.1S45,29.8,45,29.9s0,0.2,0,0.2c0,0.1,0,0.2,0.1,0.3
	s0.1,0.2,0.2,0.3l0.5,0.6c0.1,0.1,0.1,0.2,0.1,0.2s0,0.2,0,0.3c0,0.2,0,0.3-0.1,0.5s-0.2,0.2-0.3,0.3s-0.3,0.2-0.4,0.2
	c-0.2,0-0.3,0.1-0.4,0.1c-0.1,0-0.2,0-0.3,0c-0.1,0-0.2-0.1-0.3-0.1s-0.2-0.1-0.2-0.2s-0.1-0.2-0.1-0.3c0-0.1,0-0.2,0.1-0.3
	C43.8,32,43.9,32,44,32c0,0,0.1,0,0.1,0s0.1,0.1,0.1,0.1c0,0.1,0,0.1,0,0.2c0,0.1,0,0.1,0,0.2c0,0.1,0,0.2,0.1,0.3s0.2,0.1,0.3,0.1
	s0.2,0,0.4-0.1c0.1,0,0.2-0.1,0.3-0.2s0.1-0.1,0.2-0.2c0-0.1,0.1-0.2,0.1-0.2c0-0.1,0-0.2,0-0.3s-0.1-0.2-0.2-0.3l-0.4-0.5
	C44.7,31,44.6,30.9,44.6,30.8L44.6,30.8z"/>
<path d="M48,30.8c-0.1-0.1-0.1-0.2-0.1-0.4c0-0.1,0-0.2,0.1-0.4s0.2-0.2,0.3-0.4c0.1-0.1,0.2-0.2,0.4-0.2s0.3-0.1,0.5-0.1
	c0.2,0,0.4,0,0.5,0.1s0.2,0.2,0.2,0.4c0,0.2-0.1,0.3-0.3,0.3c-0.1,0-0.1,0-0.2-0.1c-0.1,0-0.1-0.1-0.1-0.2c0-0.1,0-0.1,0-0.2
	s0-0.1,0-0.1c0-0.1-0.1-0.2-0.3-0.2c-0.1,0-0.2,0-0.3,0.1c-0.1,0-0.2,0.1-0.2,0.1s-0.1,0.1-0.1,0.2s0,0.2,0,0.2c0,0.1,0,0.2,0.1,0.3
	s0.1,0.2,0.2,0.3l0.5,0.6c0.1,0.1,0.1,0.2,0.1,0.2s0,0.2,0,0.3c0,0.2,0,0.3-0.1,0.5s-0.2,0.2-0.3,0.3s-0.3,0.2-0.4,0.2
	C48.2,33,48.1,33,48,33c-0.1,0-0.2,0-0.3,0c-0.1,0-0.2-0.1-0.3-0.1s-0.2-0.1-0.2-0.2S47,32.5,47,32.4c0-0.1,0-0.2,0.1-0.3
	c0.1-0.1,0.2-0.1,0.3-0.1c0,0,0.1,0,0.1,0s0.1,0.1,0.1,0.1c0,0.1,0,0.1,0,0.2c0,0.1,0,0.1,0,0.2c0,0.1,0,0.2,0.1,0.3
	s0.2,0.1,0.3,0.1s0.2,0,0.4-0.1c0.1,0,0.2-0.1,0.3-0.2s0.1-0.1,0.2-0.2c0-0.1,0.1-0.2,0.1-0.2c0-0.1,0-0.2,0-0.3s-0.1-0.2-0.2-0.3
	l-0.4-0.5C48.1,31,48.1,30.9,48,30.8L48,30.8z"/>
<path d="M56.4,28.1c-0.7,1.4-1,3-1,4.7c0,0.5,0,0.9,0.1,1.3c0.1,0.4,0.1,0.8,0.2,1.1s0.2,0.6,0.2,0.8s0.1,0.3,0.1,0.3l-0.2,0.1
	c-0.1-0.3-0.2-0.6-0.3-1c-0.1-0.3-0.2-0.6-0.2-0.9s-0.1-0.6-0.1-0.9c0-0.3,0-0.6,0-1c0-0.6,0.1-1.3,0.2-2s0.3-1.5,0.7-2.2
	c0.3-0.7,0.7-1.5,1.2-2.2c0.5-0.7,1.2-1.4,1.9-2l0.2,0.2C58,25.4,57,26.7,56.4,28.1L56.4,28.1z"/>
<path d="M59.7,28.7c0.1-0.2,0.2-0.3,0.3-0.5c0.1-0.2,0.3-0.3,0.5-0.4s0.4-0.2,0.7-0.2c0.2,0,0.4,0,0.5,0.1c0.1,0.1,0.2,0.2,0.3,0.3
	s0.2,0.2,0.2,0.3c0,0.1,0.1,0.2,0.1,0.3c0.1-0.1,0.1-0.2,0.2-0.3s0.2-0.2,0.4-0.3s0.3-0.2,0.5-0.3c0.2-0.1,0.4-0.1,0.6-0.1
	c0.4,0,0.6,0.1,0.8,0.3c0.2,0.2,0.2,0.4,0.2,0.6c0,0.2-0.1,0.3-0.1,0.5c-0.1,0.1-0.3,0.2-0.5,0.2c-0.1,0-0.2,0-0.3-0.1
	c-0.1,0-0.1-0.1-0.1-0.2c0-0.1,0-0.2,0.1-0.2c0-0.1,0.1-0.1,0.1-0.2s0.1-0.1,0.1-0.2c0-0.1,0.1-0.1,0.1-0.2c0-0.1,0-0.2-0.1-0.3
	c-0.1,0-0.2-0.1-0.3-0.1c-0.2,0-0.4,0.1-0.6,0.3c-0.2,0.2-0.4,0.4-0.5,0.7c-0.2,0.3-0.3,0.6-0.4,0.9c-0.1,0.3-0.2,0.6-0.3,1
	c-0.1,0.3-0.2,0.6-0.2,0.9c0,0.3-0.1,0.4-0.1,0.6c0,0.3,0,0.5,0.2,0.7s0.3,0.2,0.5,0.2c0.2,0,0.4,0,0.5-0.2c0.2-0.1,0.3-0.2,0.4-0.3
	c0.1-0.1,0.2-0.3,0.3-0.4c0.1-0.1,0.2-0.3,0.2-0.4l0.2,0.1c0,0.1-0.1,0.2-0.2,0.3c-0.1,0.2-0.2,0.3-0.4,0.5s-0.3,0.3-0.5,0.4
	S62.7,33,62.4,33c-0.2,0-0.4,0-0.5-0.1c-0.1-0.1-0.2-0.2-0.3-0.3s-0.2-0.2-0.2-0.3c0-0.1-0.1-0.2-0.1-0.3c-0.1,0.1-0.2,0.2-0.3,0.4
	s-0.2,0.2-0.4,0.3c-0.1,0.1-0.3,0.2-0.5,0.2C59.9,33,59.7,33,59.5,33c-0.2,0-0.4,0-0.5-0.1c-0.1,0-0.2-0.1-0.3-0.2s-0.2-0.2-0.2-0.3
	c0-0.1-0.1-0.2-0.1-0.3c0-0.2,0.1-0.4,0.2-0.5s0.3-0.2,0.4-0.2c0.1,0,0.2,0,0.2,0.1c0.1,0,0.1,0.1,0.1,0.2c0,0.1,0,0.1,0,0.2
	s-0.1,0.1-0.1,0.1s-0.1,0.1-0.1,0.2s0,0.1,0,0.2c0,0.1,0,0.2,0.1,0.3s0.2,0.1,0.4,0.1c0.1,0,0.2,0,0.3,0c0.1,0,0.2-0.1,0.3-0.2
	s0.2-0.3,0.4-0.5s0.3-0.5,0.4-0.8c0.1-0.2,0.2-0.4,0.2-0.6s0.2-0.5,0.2-0.8s0.2-0.5,0.2-0.8c0-0.2,0.1-0.5,0.1-0.6
	c0-0.2,0-0.4-0.2-0.6c-0.1-0.2-0.3-0.2-0.5-0.2c-0.2,0-0.4,0-0.5,0.2s-0.3,0.2-0.4,0.4s-0.2,0.3-0.3,0.4s-0.2,0.3-0.2,0.4L59.5,29
	C59.5,28.9,59.6,28.8,59.7,28.7L59.7,28.7z"/>
<path d="M67.3,32.5c0.7-1.4,1-3,1-4.7c0-0.5,0-0.9-0.1-1.3c-0.1-0.4-0.1-0.8-0.2-1.1s-0.2-0.6-0.2-0.8s-0.1-0.3-0.1-0.3l0.2-0.1
	c0.1,0.3,0.2,0.6,0.3,1c0.1,0.3,0.2,0.6,0.2,0.9s0.1,0.6,0.1,0.9s0,0.6,0,1c0,0.6-0.1,1.3-0.2,2s-0.3,1.5-0.7,2.2
	c-0.3,0.8-0.7,1.5-1.2,2.2s-1.2,1.4-1.9,2l-0.2-0.2C65.7,35.2,66.7,33.9,67.3,32.5L67.3,32.5z"/>
<path d="M75.1,27.9V27h5.5v0.9H75.1z M75.1,30.3v-0.9h5.5v0.9H75.1z"/>
<path d="M90.1,32c-0.1,0.2-0.1,0.4-0.1,0.5c0,0.2,0.1,0.3,0.3,0.3c0.2,0,0.3,0,0.4-0.1s0.2-0.2,0.3-0.3c0.1-0.1,0.2-0.2,0.2-0.3
	c0.1-0.1,0.1-0.2,0.1-0.2l0.2,0.1c0,0.1-0.1,0.2-0.2,0.3s-0.2,0.3-0.3,0.4s-0.3,0.2-0.4,0.3S90.3,33,90.1,33c-0.5,0-0.8-0.2-0.8-0.7
	c0-0.1,0-0.2,0-0.3c0-0.1,0.1-0.3,0.1-0.4h0c-0.1,0.1-0.2,0.3-0.4,0.4c-0.1,0.2-0.3,0.3-0.5,0.5s-0.4,0.3-0.6,0.3
	C87.7,33,87.5,33,87.2,33c-0.2,0-0.3,0-0.5-0.1c-0.2-0.1-0.3-0.2-0.4-0.3c-0.1-0.1-0.2-0.3-0.3-0.5C86,32,86,31.8,86,31.5
	c0-0.3,0.1-0.6,0.2-1c0.1-0.3,0.3-0.6,0.5-0.9c0.2-0.3,0.4-0.6,0.7-0.8s0.5-0.5,0.8-0.6c0.3-0.2,0.6-0.3,0.8-0.4s0.5-0.2,0.7-0.2
	c0.2,0,0.4,0.1,0.6,0.2c0.2,0.1,0.2,0.3,0.2,0.5h0l0.2-0.6h0.8l-1.3,3.6C90.3,31.6,90.2,31.8,90.1,32L90.1,32z M90.4,28.8
	c0-0.1,0-0.2,0-0.3c0-0.1,0-0.1,0-0.2s-0.1-0.2-0.1-0.2s-0.1-0.1-0.2-0.2c-0.1,0-0.2-0.1-0.3-0.1c-0.3,0-0.5,0.1-0.8,0.2
	s-0.5,0.3-0.7,0.6s-0.4,0.5-0.6,0.8c-0.2,0.3-0.3,0.6-0.5,0.9c-0.1,0.3-0.2,0.6-0.3,0.9c-0.1,0.3-0.1,0.6-0.1,0.8
	c0,0.3,0.1,0.5,0.2,0.6s0.3,0.2,0.5,0.2s0.5-0.1,0.7-0.2c0.2-0.1,0.5-0.3,0.7-0.5s0.4-0.4,0.5-0.6c0.1-0.2,0.2-0.4,0.3-0.5l0.6-1.8
	C90.3,29,90.4,28.9,90.4,28.8L90.4,28.8z"/>
<path d="M97.6,32.7l-0.2-0.2l2.5-2.5l-2.5-2.5l0.2-0.2l2.5,2.5l2.5-2.5l0.2,0.2l-2.5,2.5l2.5,2.5l-0.2,0.2l-2.5-2.5L97.6,32.7z"/>
<path d="M112.1,27.4c0.2-0.4,0.4-0.9,0.6-1.2c0.2-0.4,0.5-0.7,0.8-1c0.3-0.3,0.6-0.5,0.9-0.7c0.3-0.2,0.6-0.3,0.9-0.3
	c0.4,0,0.7,0.1,0.9,0.3c0.2,0.2,0.3,0.4,0.3,0.8c0,0.2,0,0.4-0.1,0.5c-0.1,0.1-0.2,0.2-0.4,0.2c-0.1,0-0.2,0-0.3-0.1
	s-0.1-0.2-0.1-0.3c0-0.1,0-0.1,0.1-0.2s0.1-0.1,0.1-0.2c0-0.1,0.1-0.1,0.1-0.2s0.1-0.1,0.1-0.2s0-0.2-0.1-0.2s-0.2-0.1-0.4-0.1
	c-0.2,0-0.3,0-0.5,0.1s-0.3,0.2-0.5,0.4s-0.3,0.4-0.5,0.7c-0.2,0.3-0.3,0.6-0.5,1.1l-0.8,2.1h1.5l-0.1,0.2h-1.6l-0.9,2.4
	c-0.1,0.3-0.3,0.7-0.4,1.1c-0.2,0.4-0.3,0.8-0.5,1.1c-0.2,0.4-0.4,0.7-0.6,1.1s-0.4,0.6-0.7,0.9c-0.2,0.3-0.5,0.5-0.7,0.6
	c-0.2,0.2-0.5,0.2-0.7,0.2c-0.2,0-0.4,0-0.5-0.1c-0.1,0-0.2-0.1-0.3-0.2s-0.1-0.2-0.2-0.3c0-0.1-0.1-0.2-0.1-0.3
	c0-0.2,0.1-0.3,0.1-0.4s0.2-0.1,0.4-0.1c0.1,0,0.2,0,0.3,0.1s0.1,0.1,0.1,0.2c0,0.1,0,0.2-0.1,0.2c0,0-0.1,0.1-0.1,0.1
	c0,0-0.1,0.1-0.1,0.1c0,0-0.1,0.1-0.1,0.2c0,0.1,0,0.2,0.1,0.2s0.2,0.1,0.3,0.1c0.3,0,0.6-0.2,0.8-0.5s0.5-0.8,0.7-1.3l2-5.4h-1.6
	l0.1-0.2h1.6L112.1,27.4L112.1,27.4z"/>
<path d="M117.6,27.3l0-0.1h2.5l0,0.1h-0.8l-2,5.5h1.9c0.2,0,0.4-0.1,0.6-0.2s0.3-0.3,0.5-0.4c0.1-0.2,0.3-0.3,0.4-0.5
	s0.2-0.3,0.2-0.4h0.1l-0.6,1.6h-4.7l0-0.1h0.8l2-5.5L117.6,27.3L117.6,27.3z"/>
<path d="M127.7,28.1c-0.7,1.4-1,3-1,4.7c0,0.5,0,0.9,0.1,1.3c0.1,0.4,0.1,0.8,0.2,1.1s0.2,0.6,0.2,0.8s0.1,0.3,0.1,0.3l-0.2,0.1
	c-0.1-0.3-0.2-0.6-0.3-1c-0.1-0.3-0.2-0.6-0.2-0.9s-0.1-0.6-0.1-0.9s0-0.6,0-1c0-0.6,0.1-1.3,0.2-2s0.3-1.5,0.7-2.2
	c0.3-0.7,0.7-1.5,1.2-2.2c0.5-0.7,1.1-1.4,1.9-2l0.2,0.2C129.3,25.4,128.3,26.7,127.7,28.1L127.7,28.1z"/>
<path d="M131,28.7c0.1-0.2,0.2-0.3,0.4-0.5c0.1-0.2,0.3-0.3,0.5-0.4s0.4-0.2,0.7-0.2c0.2,0,0.4,0,0.5,0.1s0.2,0.2,0.3,0.3
	s0.1,0.2,0.2,0.3c0,0.1,0.1,0.2,0.1,0.3c0.1-0.1,0.1-0.2,0.2-0.3s0.2-0.2,0.4-0.3c0.1-0.1,0.3-0.2,0.5-0.3c0.2-0.1,0.4-0.1,0.6-0.1
	c0.4,0,0.6,0.1,0.8,0.3c0.2,0.2,0.2,0.4,0.2,0.6c0,0.2-0.1,0.3-0.1,0.5c-0.1,0.1-0.3,0.2-0.5,0.2c-0.1,0-0.2,0-0.3-0.1
	c-0.1,0-0.1-0.1-0.1-0.2c0-0.1,0-0.2,0.1-0.2c0-0.1,0.1-0.1,0.1-0.2s0.1-0.1,0.1-0.2c0-0.1,0.1-0.1,0.1-0.2c0-0.1,0-0.2-0.1-0.3
	c-0.1,0-0.2-0.1-0.3-0.1c-0.2,0-0.4,0.1-0.6,0.3c-0.2,0.2-0.4,0.4-0.5,0.7s-0.3,0.6-0.4,0.9s-0.2,0.6-0.3,1
	c-0.1,0.3-0.2,0.6-0.2,0.9c-0.1,0.3-0.1,0.4-0.1,0.6c0,0.3,0.1,0.5,0.2,0.7c0.1,0.2,0.3,0.2,0.5,0.2c0.2,0,0.4,0,0.6-0.2
	c0.2-0.1,0.3-0.2,0.4-0.3c0.1-0.1,0.2-0.3,0.3-0.4c0.1-0.1,0.2-0.3,0.2-0.4l0.2,0.1c0,0.1-0.1,0.2-0.2,0.3c-0.1,0.2-0.2,0.3-0.4,0.5
	s-0.3,0.3-0.5,0.4S134,33,133.7,33c-0.2,0-0.4,0-0.5-0.1c-0.1-0.1-0.2-0.2-0.3-0.3s-0.2-0.2-0.2-0.3c-0.1-0.1-0.1-0.2-0.1-0.3
	c-0.1,0.1-0.2,0.2-0.4,0.4s-0.2,0.2-0.4,0.3c-0.1,0.1-0.3,0.2-0.5,0.2S131,33,130.8,33c-0.2,0-0.4,0-0.5-0.1s-0.2-0.1-0.3-0.2
	s-0.1-0.2-0.2-0.3c0-0.1-0.1-0.2-0.1-0.3c0-0.2,0.1-0.4,0.2-0.5s0.3-0.2,0.4-0.2c0.1,0,0.2,0,0.2,0.1s0.1,0.1,0.1,0.2
	c0,0.1,0,0.1-0.1,0.2s-0.1,0.1-0.1,0.1s-0.1,0.1-0.1,0.2s-0.1,0.1-0.1,0.2c0,0.1,0.1,0.2,0.1,0.3s0.2,0.1,0.4,0.1c0.1,0,0.2,0,0.3,0
	c0.1,0,0.2-0.1,0.4-0.2c0.1-0.1,0.2-0.3,0.4-0.5s0.3-0.5,0.4-0.8c0.1-0.2,0.1-0.4,0.2-0.6s0.2-0.5,0.2-0.8s0.1-0.5,0.2-0.8
	c0.1-0.2,0.1-0.5,0.1-0.6c0-0.2-0.1-0.4-0.1-0.6c-0.1-0.2-0.3-0.2-0.5-0.2c-0.2,0-0.4,0-0.5,0.2s-0.3,0.2-0.4,0.4s-0.2,0.3-0.3,0.4
	S131,29,131,29.1l-0.2-0.1C130.8,28.9,130.9,28.8,131,28.7L131,28.7z"/>
<path d="M138.6,32.5c0.7-1.4,1-3,1-4.7c0-0.5,0-0.9-0.1-1.3s-0.1-0.8-0.2-1.1s-0.2-0.6-0.2-0.8c-0.1-0.2-0.1-0.3-0.1-0.3l0.2-0.1
	c0.1,0.3,0.2,0.6,0.3,1c0.1,0.3,0.2,0.6,0.2,0.9s0.1,0.6,0.1,0.9s0,0.6,0,1c0,0.6-0.1,1.3-0.2,2s-0.3,1.5-0.6,2.2s-0.7,1.5-1.2,2.2
	s-1.1,1.4-1.9,2l-0.2-0.2C137,35.2,138,33.9,138.6,32.5L138.6,32.5z"/>
<path d="M27.9,48.5v-5.8h1.6v2.3h2.1v-2.3h1.6v5.8h-1.6v-2.3h-2.1v2.3H27.9z"/>
<path d="M36.1,48.6c-0.5,0-1-0.1-1.3-0.2s-0.7-0.4-0.9-0.7s-0.3-0.7-0.3-1.2h1.5c0,0.2,0.1,0.3,0.1,0.5s0.2,0.2,0.3,0.3
	s0.3,0.1,0.5,0.1c0.2,0,0.3,0,0.4-0.1s0.2-0.1,0.3-0.2s0.1-0.2,0.1-0.3c0-0.1,0-0.2-0.1-0.2s-0.2-0.1-0.3-0.2s-0.3-0.1-0.5-0.2
	l-0.6-0.1c-0.5-0.1-0.9-0.3-1.2-0.6s-0.4-0.6-0.4-1.1c0-0.4,0.1-0.7,0.3-1s0.5-0.5,0.8-0.7s0.8-0.2,1.2-0.2s0.9,0.1,1.2,0.2
	s0.6,0.4,0.8,0.7s0.3,0.6,0.3,1h-1.5c0-0.2-0.1-0.3-0.2-0.4s-0.3-0.2-0.6-0.2c-0.2,0-0.3,0-0.4,0.1s-0.2,0.1-0.2,0.2
	s-0.1,0.1-0.1,0.2s0,0.2,0.1,0.2s0.1,0.1,0.2,0.2s0.3,0.1,0.5,0.1l0.5,0.1c0.3,0.1,0.6,0.2,0.8,0.3s0.4,0.2,0.6,0.4s0.3,0.3,0.3,0.5
	s0.1,0.4,0.1,0.6c0,0.4-0.1,0.7-0.3,1s-0.5,0.5-0.8,0.6S36.6,48.6,36.1,48.6L36.1,48.6z"/>
<path d="M40.2,48.5h-1.7l1.9-5.8h2.2l1.9,5.8h-1.7l-1.3-4.2h0L40.2,48.5L40.2,48.5z M39.8,46.2H43v1.2h-3.2V46.2z"/>
<path d="M46.3,45.8c0-0.4,0-0.9,0.1-1.4s0.2-0.9,0.4-1.3s0.3-0.8,0.5-1.1h1.4c-0.2,0.4-0.3,0.8-0.5,1.2s-0.2,0.9-0.3,1.3
	s-0.1,0.8-0.1,1.2c0,0.3,0,0.7,0.1,1s0.1,0.7,0.3,1.1s0.3,0.8,0.5,1.4h-1.4c-0.3-0.5-0.6-1.1-0.8-1.7S46.3,46.4,46.3,45.8z"/>
<path d="M49.1,48.5v-5.8h1.6v2.3h2.1v-2.3h1.6v5.8h-1.6v-2.3h-2.1v2.3H49.1z"/>
<path d="M55,48.5v-4.4h1.6v4.4H55z M55.8,43.7c-0.2,0-0.4-0.1-0.5-0.2S55,43.2,55,43s0.1-0.4,0.2-0.5s0.3-0.2,0.5-0.2
	s0.4,0.1,0.5,0.2s0.2,0.3,0.2,0.5s-0.1,0.4-0.2,0.5S56,43.7,55.8,43.7z"/>
<path d="M59.2,50.2c-0.7,0-1.2-0.1-1.5-0.4s-0.6-0.6-0.6-1h1.5c0,0.1,0,0.2,0.1,0.2s0.1,0.1,0.2,0.1s0.2,0,0.3,0
	c0.2,0,0.4,0,0.5-0.2s0.2-0.3,0.2-0.5v-0.7h0c0,0.2-0.1,0.3-0.3,0.4s-0.3,0.2-0.4,0.2s-0.3,0.1-0.5,0.1c-0.3,0-0.6-0.1-0.9-0.2
	s-0.5-0.4-0.6-0.7S57,46.8,57,46.3c0-0.5,0.1-1,0.2-1.3s0.4-0.6,0.6-0.7s0.5-0.2,0.8-0.2c0.2,0,0.4,0,0.6,0.1s0.3,0.2,0.4,0.3
	s0.2,0.3,0.3,0.4h0v-0.8h1.5v4.4c0,0.4-0.1,0.7-0.3,0.9s-0.5,0.5-0.8,0.6S59.7,50.2,59.2,50.2L59.2,50.2z M59.3,47.3
	c0.2,0,0.4-0.1,0.5-0.3s0.2-0.4,0.2-0.7c0-0.2,0-0.4-0.1-0.6s-0.1-0.3-0.2-0.4s-0.2-0.1-0.4-0.1s-0.3,0-0.4,0.1s-0.2,0.2-0.2,0.4
	s-0.1,0.3-0.1,0.6s0,0.4,0.1,0.5s0.1,0.3,0.2,0.3S59.1,47.3,59.3,47.3L59.3,47.3z"/>
<path d="M63.7,46v2.5h-1.6v-5.8h1.5V45h0c0.1-0.3,0.3-0.5,0.5-0.7c0.2-0.2,0.5-0.2,0.8-0.2s0.6,0.1,0.8,0.2s0.4,0.3,0.5,0.6
	s0.2,0.5,0.2,0.8v2.8H65V46c0-0.2-0.1-0.4-0.2-0.5s-0.3-0.2-0.5-0.2c-0.1,0-0.2,0-0.3,0.1s-0.2,0.1-0.2,0.2S63.7,45.9,63.7,46
	L63.7,46z"/>
<path d="M69.2,48.6c-0.5,0-0.9-0.1-1.2-0.3s-0.6-0.4-0.8-0.8S67,46.8,67,46.3s0.1-0.8,0.3-1.2s0.4-0.6,0.8-0.8s0.7-0.3,1.2-0.3
	c0.3,0,0.6,0,0.9,0.2s0.5,0.2,0.7,0.5s0.3,0.4,0.4,0.7s0.2,0.6,0.2,0.9v0.4h-3.9v-0.9h3.2L69.9,46c0-0.2,0-0.3-0.1-0.5
	s-0.1-0.2-0.2-0.3s-0.2-0.1-0.4-0.1s-0.3,0-0.4,0.1s-0.2,0.2-0.2,0.3s-0.1,0.3-0.1,0.5v0.6c0,0.2,0,0.3,0.1,0.5s0.2,0.2,0.3,0.3
	s0.2,0.1,0.4,0.1c0.1,0,0.2,0,0.3,0s0.2-0.1,0.2-0.1s0.1-0.1,0.1-0.2h1.4c-0.1,0.3-0.2,0.6-0.3,0.8s-0.4,0.4-0.7,0.5
	S69.6,48.6,69.2,48.6L69.2,48.6z"/>
<path d="M75.8,45.5h-1.4c0-0.1-0.1-0.2-0.2-0.3s-0.2-0.1-0.4-0.1c-0.1,0-0.2,0-0.3,0.1s-0.1,0.1-0.1,0.2c0,0.1,0,0.1,0.1,0.2
	s0.2,0.1,0.3,0.1l0.9,0.2c0.4,0.1,0.8,0.2,1,0.4s0.3,0.5,0.3,0.8s-0.1,0.6-0.3,0.8s-0.4,0.4-0.8,0.5s-0.7,0.2-1.1,0.2
	c-0.7,0-1.2-0.1-1.6-0.4s-0.6-0.6-0.6-1.1h1.6c0,0.1,0.1,0.2,0.2,0.3s0.3,0.1,0.4,0.1c0.2,0,0.3,0,0.4-0.1s0.1-0.1,0.1-0.2
	c0-0.2-0.2-0.3-0.5-0.3l-0.8-0.1c-0.4-0.1-0.8-0.2-1-0.4s-0.3-0.5-0.3-0.8c0-0.3,0.1-0.6,0.2-0.8s0.4-0.4,0.7-0.5s0.7-0.2,1.1-0.2
	c0.6,0,1.1,0.1,1.5,0.4S75.8,45.1,75.8,45.5L75.8,45.5z"/>
<path d="M78.9,44.1v1.1h-2.9v-1.1H78.9z M76.6,43.1h1.6v4c0,0.1,0,0.2,0.1,0.2s0.1,0.1,0.2,0.1c0.1,0,0.1,0,0.2,0s0.1,0,0.1,0
	l0.2,1.1c-0.2,0-0.3,0.1-0.5,0.1s-0.3,0-0.4,0c-0.5,0-0.9-0.1-1.1-0.3s-0.4-0.5-0.4-1L76.6,43.1L76.6,43.1z"/>
<path d="M83.1,48.6c-0.5,0-0.9-0.1-1.3-0.2s-0.7-0.4-0.9-0.7s-0.3-0.7-0.3-1.2h1.5c0,0.2,0.1,0.3,0.1,0.5s0.2,0.2,0.3,0.3
	s0.3,0.1,0.5,0.1c0.2,0,0.3,0,0.4-0.1s0.2-0.1,0.3-0.2s0.1-0.2,0.1-0.3c0-0.1,0-0.2-0.1-0.2s-0.2-0.1-0.3-0.2s-0.3-0.1-0.5-0.2
	l-0.6-0.1c-0.5-0.1-0.9-0.3-1.2-0.6s-0.4-0.6-0.4-1.1c0-0.4,0.1-0.7,0.3-1s0.5-0.5,0.8-0.7s0.8-0.2,1.2-0.2s0.9,0.1,1.2,0.2
	s0.6,0.4,0.8,0.7s0.3,0.6,0.3,1h-1.5c0-0.2-0.1-0.3-0.2-0.4s-0.3-0.2-0.6-0.2c-0.2,0-0.3,0-0.4,0.1s-0.2,0.1-0.2,0.2
	s-0.1,0.1-0.1,0.2s0,0.2,0.1,0.2s0.1,0.1,0.2,0.2s0.3,0.1,0.4,0.1l0.5,0.1c0.3,0.1,0.6,0.2,0.8,0.3s0.4,0.2,0.6,0.4s0.3,0.3,0.3,0.5
	s0.1,0.4,0.1,0.6c0,0.4-0.1,0.7-0.3,1s-0.5,0.5-0.8,0.6S83.6,48.6,83.1,48.6L83.1,48.6z"/>
<path d="M85.9,48.5v-4.4h1.6v4.4H85.9z M86.7,43.7c-0.2,0-0.4-0.1-0.6-0.2s-0.2-0.3-0.2-0.5s0.1-0.4,0.2-0.5s0.3-0.2,0.6-0.2
	s0.4,0.1,0.6,0.2s0.2,0.3,0.2,0.5s-0.1,0.4-0.2,0.5S86.9,43.7,86.7,43.7z"/>
<path d="M89.7,46v2.5h-1.6v-4.4h1.6V45h0c0.1-0.3,0.2-0.5,0.5-0.7s0.5-0.2,0.8-0.2s0.6,0.1,0.8,0.2s0.4,0.3,0.5,0.6s0.2,0.5,0.2,0.8
	v2.8h-1.6V46c0-0.2-0.1-0.4-0.2-0.5s-0.3-0.2-0.5-0.2c-0.1,0-0.2,0-0.3,0.1s-0.2,0.1-0.2,0.2S89.7,45.9,89.7,46L89.7,46z"/>
<path d="M95.2,50.2c-0.7,0-1.2-0.1-1.5-0.4s-0.6-0.6-0.6-1h1.5c0,0.1,0.1,0.2,0.1,0.2s0.1,0.1,0.2,0.1s0.2,0,0.3,0
	c0.2,0,0.4,0,0.5-0.2s0.2-0.3,0.2-0.5v-0.7h-0.1c-0.1,0.2-0.1,0.3-0.3,0.4s-0.3,0.2-0.4,0.2s-0.3,0.1-0.5,0.1
	c-0.3,0-0.6-0.1-0.9-0.2s-0.5-0.4-0.6-0.7s-0.2-0.7-0.2-1.2c0-0.5,0.1-1,0.2-1.3s0.4-0.6,0.6-0.7s0.5-0.2,0.8-0.2
	c0.2,0,0.4,0,0.6,0.1s0.3,0.2,0.4,0.3s0.2,0.3,0.3,0.4h0v-0.8h1.6v4.4c0,0.4-0.1,0.7-0.3,0.9s-0.5,0.5-0.8,0.6S95.6,50.2,95.2,50.2
	L95.2,50.2z M95.2,47.3c0.2,0,0.4-0.1,0.5-0.3s0.2-0.4,0.2-0.7c0-0.2,0-0.4-0.1-0.6s-0.1-0.3-0.2-0.4s-0.2-0.1-0.4-0.1
	s-0.3,0-0.4,0.1s-0.2,0.2-0.2,0.4s-0.1,0.3-0.1,0.6s0,0.4,0.1,0.5s0.1,0.3,0.2,0.3S95.1,47.3,95.2,47.3L95.2,47.3z"/>
<path d="M99.7,42.7v5.8h-1.6v-5.8H99.7z"/>
<path d="M102.4,48.6c-0.5,0-0.9-0.1-1.2-0.3s-0.6-0.4-0.8-0.8s-0.3-0.7-0.3-1.2s0.1-0.8,0.3-1.2s0.4-0.6,0.8-0.8s0.7-0.3,1.2-0.3
	c0.3,0,0.6,0,0.9,0.2s0.5,0.2,0.7,0.5s0.3,0.4,0.4,0.7s0.2,0.6,0.2,0.9v0.4h-3.9v-0.9h3.2L103,46c0-0.2,0-0.3-0.1-0.5
	s-0.1-0.2-0.2-0.3s-0.2-0.1-0.4-0.1s-0.3,0-0.4,0.1s-0.2,0.2-0.2,0.3s-0.1,0.3-0.1,0.5v0.6c0,0.2,0,0.3,0.1,0.5s0.2,0.2,0.3,0.3
	s0.2,0.1,0.4,0.1c0.1,0,0.2,0,0.3,0s0.2-0.1,0.2-0.1s0.1-0.1,0.1-0.2h1.4c-0.1,0.3-0.2,0.6-0.3,0.8s-0.4,0.4-0.7,0.5
	S102.8,48.6,102.4,48.6L102.4,48.6z"/>
<path d="M107.8,48.5h-1.7l1.9-5.8h2.2l1.9,5.8h-1.7l-1.3-4.2h-0.1L107.8,48.5L107.8,48.5z M107.5,46.2h3.2v1.2h-3.2V46.2z"/>
<path d="M114.3,50.2c-0.7,0-1.2-0.1-1.5-0.4s-0.6-0.6-0.6-1h1.5c0,0.1,0.1,0.2,0.1,0.2s0.1,0.1,0.2,0.1s0.2,0,0.3,0
	c0.2,0,0.4,0,0.5-0.2s0.2-0.3,0.2-0.5v-0.7H115c-0.1,0.2-0.1,0.3-0.3,0.4s-0.3,0.2-0.4,0.2s-0.3,0.1-0.5,0.1c-0.3,0-0.6-0.1-0.9-0.2
	s-0.5-0.4-0.6-0.7s-0.2-0.7-0.2-1.2c0-0.5,0.1-1,0.2-1.3s0.4-0.6,0.6-0.7s0.5-0.2,0.8-0.2c0.2,0,0.4,0,0.6,0.1s0.3,0.2,0.4,0.3
	s0.2,0.3,0.3,0.4h0v-0.8h1.6v4.4c0,0.4-0.1,0.7-0.3,0.9s-0.5,0.5-0.8,0.6S114.7,50.2,114.3,50.2L114.3,50.2z M114.3,47.3
	c0.2,0,0.4-0.1,0.5-0.3s0.2-0.4,0.2-0.7c0-0.2,0-0.4-0.1-0.6s-0.1-0.3-0.2-0.4s-0.2-0.1-0.4-0.1s-0.3,0-0.4,0.1s-0.2,0.2-0.2,0.4
	s-0.1,0.3-0.1,0.6s0,0.4,0.1,0.5s0.1,0.3,0.2,0.3S114.2,47.3,114.3,47.3L114.3,47.3z"/>
<path d="M119.3,48.6c-0.5,0-0.9-0.1-1.2-0.3s-0.6-0.4-0.8-0.8s-0.3-0.7-0.3-1.2s0.1-0.8,0.3-1.2s0.4-0.6,0.8-0.8s0.7-0.3,1.2-0.3
	c0.3,0,0.6,0,0.9,0.2s0.5,0.2,0.7,0.5s0.3,0.4,0.4,0.7s0.2,0.6,0.2,0.9v0.4h-3.9v-0.9h3.2l-0.7,0.2c0-0.2,0-0.3-0.1-0.5
	s-0.1-0.2-0.2-0.3s-0.2-0.1-0.4-0.1s-0.3,0-0.4,0.1s-0.2,0.2-0.2,0.3s-0.1,0.3-0.1,0.5v0.6c0,0.2,0,0.3,0.1,0.5s0.2,0.2,0.3,0.3
	s0.2,0.1,0.4,0.1c0.1,0,0.2,0,0.3,0s0.2-0.1,0.2-0.1s0.1-0.1,0.1-0.2h1.4c-0.1,0.3-0.2,0.6-0.3,0.8s-0.4,0.4-0.7,0.5
	S119.7,48.6,119.3,48.6L119.3,48.6z"/>
<path d="M123.4,46v2.5h-1.6v-4.4h1.6V45h0c0.1-0.3,0.2-0.5,0.5-0.7s0.5-0.2,0.8-0.2s0.6,0.1,0.8,0.2s0.4,0.3,0.5,0.6
	s0.2,0.5,0.2,0.8v2.8h-1.6V46c0-0.2-0.1-0.4-0.2-0.5s-0.3-0.2-0.5-0.2c-0.1,0-0.2,0-0.3,0.1s-0.2,0.1-0.2,0.2S123.4,45.9,123.4,46
	L123.4,46z"/>
<path d="M129.5,44.1v1.1h-2.9v-1.1H129.5z M127.1,43.1h1.6v4c0,0.1,0,0.2,0.1,0.2s0.1,0.1,0.2,0.1c0.1,0,0.1,0,0.2,0
	c0.1,0,0.1,0,0.1,0l0.2,1.1c-0.2,0-0.3,0.1-0.5,0.1c-0.1,0-0.3,0-0.4,0c-0.5,0-0.9-0.1-1.1-0.3s-0.4-0.5-0.4-1L127.1,43.1
	L127.1,43.1z"/>
<path d="M129.7,49.6c0.2-0.5,0.4-1,0.5-1.4s0.2-0.8,0.3-1.1s0.1-0.7,0.1-1c0-0.4,0-0.8-0.1-1.2s-0.2-0.9-0.3-1.3
	c-0.1-0.4-0.3-0.8-0.4-1.2h1.4c0.2,0.3,0.4,0.7,0.5,1.1c0.1,0.4,0.3,0.9,0.4,1.3s0.1,0.9,0.1,1.4c0,0.6-0.1,1.2-0.3,1.8
	s-0.4,1.2-0.8,1.7H129.7L129.7,49.6z"/>
<path d="M29.6,57.1c0.1-0.5,0.3-0.9,0.5-1.3s0.5-0.8,0.8-1c0.3-0.3,0.6-0.5,1-0.7s0.7-0.3,1-0.3c0.2,0,0.4,0,0.5,0.1
	c0.1,0.1,0.3,0.1,0.4,0.2c0.1,0.1,0.2,0.2,0.2,0.3s0.1,0.2,0.1,0.3c0,0.1,0,0.3-0.1,0.4c-0.1,0.1-0.2,0.2-0.4,0.2
	c-0.2,0-0.3,0-0.4-0.1s-0.1-0.2-0.1-0.2c0-0.1,0-0.2,0-0.2c0-0.1,0.1-0.1,0.1-0.2c0,0,0.1-0.1,0.1-0.2c0,0,0-0.1,0-0.2
	c0-0.1,0-0.2-0.1-0.3s-0.2-0.1-0.3-0.1c-0.4,0-0.7,0.1-1,0.3c-0.3,0.2-0.5,0.5-0.7,0.8s-0.4,0.6-0.5,1c-0.1,0.3-0.2,0.6-0.3,0.8
	l-0.2,0.9h1.5l0,0.2h-1.5L29.2,62c-0.1,0.5-0.3,1-0.5,1.5c-0.2,0.5-0.5,0.9-0.7,1.3c-0.3,0.4-0.6,0.7-0.9,0.9
	c-0.3,0.2-0.6,0.3-1,0.3c-0.1,0-0.2,0-0.3,0c-0.1,0-0.2-0.1-0.3-0.1s-0.2-0.1-0.2-0.2s-0.1-0.2-0.1-0.4s0-0.3,0.1-0.4
	c0.1-0.1,0.2-0.2,0.4-0.2c0.1,0,0.2,0,0.2,0.1s0.1,0.1,0.1,0.2c0,0.1,0,0.2-0.1,0.3c0,0.1-0.1,0.2-0.1,0.3c0,0.1,0,0.2,0.1,0.2
	s0.1,0.1,0.3,0.1c0.3,0,0.7-0.2,1-0.7s0.6-1.2,0.9-2.2l1.3-5h-1.1l0-0.2h1.1L29.6,57.1L29.6,57.1z"/>
<path d="M32.7,62.8l2-5.5h-0.9l0-0.1h2.5l0,0.1h-0.8l-0.9,2.6H37l0.9-2.6H37l0-0.1h2.5l0,0.1h-0.8l-2,5.5h0.9l0,0.1h-2.5l0-0.1H36
	l1-2.7h-2.6l-1,2.7h0.9l0,0.1h-2.5l0-0.1H32.7L32.7,62.8z"/>
<path d="M39.8,61.3c0,0.1,0,0.2-0.1,0.2s0,0.2,0,0.2c0,0.2,0,0.3,0.1,0.5c0.1,0.1,0.2,0.2,0.3,0.3s0.3,0.2,0.5,0.2s0.3,0.1,0.5,0.1
	c0.2,0,0.5,0,0.6-0.1c0.2-0.1,0.3-0.2,0.5-0.3s0.2-0.3,0.3-0.4c0.1-0.2,0.1-0.3,0.1-0.5s0-0.4-0.1-0.5s-0.2-0.3-0.4-0.4l-0.6-0.5
	c-0.3-0.2-0.5-0.5-0.6-0.7c-0.2-0.2-0.2-0.5-0.2-0.8c0-0.2,0-0.4,0.2-0.6c0.1-0.2,0.2-0.3,0.4-0.5s0.4-0.2,0.6-0.3s0.5-0.1,0.7-0.1
	c0.2,0,0.3,0,0.4,0s0.2,0.1,0.3,0.1c0.1,0,0.2,0.1,0.3,0.1s0.2,0,0.3,0c0.1,0,0.1,0,0.2-0.1s0.1-0.1,0.1-0.2l0.1,0l-0.5,1.5h-0.1
	c0,0,0-0.1,0-0.2s0-0.2,0-0.3c0-0.2,0-0.3-0.1-0.5c-0.1-0.1-0.2-0.2-0.3-0.3c-0.1-0.1-0.2-0.1-0.4-0.2s-0.3-0.1-0.4-0.1
	c-0.2,0-0.4,0-0.5,0.1c-0.2,0-0.3,0.1-0.4,0.2s-0.2,0.2-0.3,0.3s-0.1,0.3-0.1,0.4c0,0.2,0.1,0.4,0.2,0.6s0.3,0.3,0.4,0.5l0.7,0.6
	c0.2,0.2,0.4,0.4,0.5,0.6c0.1,0.2,0.2,0.5,0.2,0.7c0,0.2,0,0.4-0.1,0.6s-0.2,0.4-0.4,0.6c-0.2,0.2-0.4,0.3-0.7,0.4
	C41.7,63,41.4,63,41,63c-0.2,0-0.4,0-0.5,0c-0.2,0-0.3-0.1-0.4-0.1c-0.1,0-0.2-0.1-0.3-0.1c-0.1,0-0.2,0-0.3,0c-0.1,0-0.1,0-0.2,0.1
	c-0.1,0-0.1,0.1-0.1,0.2l-0.1,0l0.6-1.6L39.8,61.3L39.8,61.3z"/>
<path d="M44.8,62.8l4-5.7H49l0.1,5.7H50l0,0.1h-2.5l0-0.1h0.9l0-2.2h-1.8L45,62.8h0.8l0,0.1h-1.7l0-0.1H44.8L44.8,62.8z M48.4,58
	l-1.7,2.4h1.8L48.4,58L48.4,58z"/>
<path d="M56.8,58.1c-0.7,1.4-1,3-1,4.7c0,0.5,0,0.9,0.1,1.3c0.1,0.4,0.1,0.8,0.2,1.1s0.2,0.6,0.2,0.8s0.1,0.3,0.1,0.3l-0.2,0.1
	C56.1,66,56,65.7,56,65.4c-0.1-0.3-0.2-0.6-0.2-0.9s-0.1-0.6-0.1-0.9c0-0.3,0-0.6,0-1c0-0.6,0.1-1.3,0.2-2s0.3-1.5,0.7-2.2
	c0.3-0.7,0.7-1.5,1.2-2.2c0.5-0.7,1.2-1.4,1.9-2l0.2,0.2C58.4,55.4,57.4,56.7,56.8,58.1L56.8,58.1z"/>
<path d="M60.1,58.7c0.1-0.2,0.2-0.3,0.3-0.5c0.1-0.2,0.3-0.3,0.5-0.4s0.4-0.2,0.7-0.2c0.2,0,0.4,0,0.5,0.1c0.1,0.1,0.2,0.2,0.3,0.3
	s0.2,0.2,0.2,0.3c0,0.1,0.1,0.2,0.1,0.3c0.1-0.1,0.1-0.2,0.2-0.3c0.1-0.1,0.2-0.2,0.4-0.3s0.3-0.2,0.5-0.3c0.2-0.1,0.4-0.1,0.6-0.1
	c0.4,0,0.6,0.1,0.8,0.3c0.2,0.2,0.2,0.4,0.2,0.7c0,0.2-0.1,0.3-0.1,0.5c-0.1,0.1-0.3,0.2-0.5,0.2c-0.1,0-0.2,0-0.3-0.1
	c-0.1,0-0.1-0.1-0.1-0.2c0-0.1,0-0.2,0.1-0.2c0-0.1,0.1-0.1,0.1-0.2s0.1-0.1,0.1-0.2c0-0.1,0.1-0.1,0.1-0.2c0-0.1,0-0.2-0.1-0.3
	s-0.2-0.1-0.3-0.1c-0.2,0-0.4,0.1-0.6,0.3c-0.2,0.2-0.4,0.4-0.5,0.7c-0.2,0.3-0.3,0.6-0.4,0.9c-0.1,0.3-0.2,0.7-0.3,1
	c-0.1,0.3-0.2,0.6-0.2,0.8c0,0.3-0.1,0.4-0.1,0.6c0,0.3,0,0.5,0.2,0.7s0.3,0.2,0.5,0.2c0.2,0,0.4,0,0.5-0.2c0.2-0.1,0.3-0.2,0.4-0.3
	c0.1-0.1,0.2-0.3,0.3-0.4s0.2-0.3,0.2-0.4l0.2,0.1c0,0.1-0.1,0.2-0.2,0.3c-0.1,0.2-0.2,0.3-0.4,0.5s-0.3,0.3-0.5,0.4
	s-0.4,0.2-0.7,0.2c-0.2,0-0.4,0-0.5-0.1c-0.1-0.1-0.2-0.2-0.3-0.3s-0.2-0.2-0.2-0.3c0-0.1-0.1-0.2-0.1-0.3c-0.1,0.1-0.2,0.2-0.3,0.4
	s-0.2,0.2-0.4,0.3c-0.1,0.1-0.3,0.2-0.5,0.2C60.3,63,60.1,63,59.9,63c-0.2,0-0.4,0-0.5-0.1c-0.1,0-0.2-0.1-0.3-0.2s-0.2-0.2-0.2-0.3
	c0-0.1-0.1-0.2-0.1-0.3c0-0.2,0.1-0.4,0.2-0.5s0.3-0.2,0.4-0.2c0.1,0,0.2,0,0.2,0.1c0.1,0,0.1,0.1,0.1,0.2c0,0.1,0,0.2,0,0.2
	s-0.1,0.1-0.1,0.2s-0.1,0.1-0.1,0.2s0,0.1,0,0.2c0,0.1,0,0.2,0.1,0.3s0.2,0.1,0.4,0.1c0.1,0,0.2,0,0.3,0c0.1,0,0.2-0.1,0.3-0.2
	s0.2-0.3,0.4-0.5s0.3-0.5,0.4-0.8c0.1-0.2,0.2-0.4,0.2-0.6s0.2-0.5,0.2-0.8s0.2-0.5,0.2-0.8c0-0.2,0.1-0.5,0.1-0.6
	c0-0.2,0-0.4-0.2-0.6c-0.1-0.2-0.3-0.2-0.5-0.2c-0.2,0-0.4,0-0.5,0.2s-0.3,0.2-0.4,0.4s-0.2,0.3-0.3,0.4s-0.2,0.3-0.2,0.3L59.9,59
	C60,59,60,58.8,60.1,58.7L60.1,58.7z"/>
<path d="M67.8,62.5c0.7-1.4,1-3,1-4.7c0-0.5,0-0.9-0.1-1.3c-0.1-0.4-0.1-0.8-0.2-1.1s-0.2-0.6-0.2-0.8s-0.1-0.3-0.1-0.3l0.2-0.1
	c0.1,0.3,0.2,0.6,0.3,1c0.1,0.3,0.2,0.6,0.2,0.9s0.1,0.6,0.1,0.9s0,0.6,0,1c0,0.6-0.1,1.3-0.2,2s-0.3,1.5-0.7,2.2
	c-0.3,0.8-0.7,1.5-1.2,2.2s-1.2,1.4-1.9,2l-0.2-0.2C66.1,65.2,67.1,63.9,67.8,62.5L67.8,62.5z"/>
<path d="M75.5,57.9v-0.8H81v0.8H75.5z M75.5,60.3v-0.8H81v0.8H75.5z"/>
<path d="M86.9,57.9l0.1-0.2h1.9l-0.5,1.4h0c0.1-0.1,0.2-0.3,0.4-0.5s0.3-0.3,0.5-0.5s0.4-0.3,0.6-0.4s0.4-0.2,0.6-0.2
	c0.3,0,0.5,0.1,0.7,0.3c0.2,0.2,0.2,0.4,0.2,0.7c0,0.1,0,0.3-0.1,0.5h0c0.1-0.1,0.2-0.3,0.3-0.4c0.1-0.2,0.3-0.3,0.5-0.5
	c0.2-0.1,0.4-0.3,0.6-0.4s0.4-0.2,0.6-0.2c0.3,0,0.6,0.1,0.8,0.3c0.2,0.2,0.3,0.4,0.3,0.7c0,0.1,0,0.3-0.1,0.4
	c0,0.1-0.1,0.3-0.2,0.5l-0.8,2.2c-0.1,0.1-0.1,0.3-0.1,0.4s-0.1,0.3-0.1,0.4c0,0.1,0,0.2,0.1,0.2s0.1,0.1,0.2,0.1
	c0.1,0,0.3,0,0.4-0.1s0.2-0.2,0.3-0.3c0.1-0.1,0.2-0.2,0.2-0.3s0.1-0.2,0.2-0.3l0.1,0.1c0,0.1-0.1,0.2-0.2,0.3s-0.2,0.3-0.3,0.4
	c-0.1,0.1-0.3,0.2-0.4,0.3S93.6,63,93.4,63c-0.3,0-0.5-0.1-0.7-0.2c-0.2-0.1-0.3-0.3-0.3-0.5c0-0.1,0-0.2,0-0.3s0.1-0.2,0.1-0.4
	l1-2.9c0.1-0.2,0.1-0.3,0.1-0.5c0-0.1,0-0.2-0.1-0.3c-0.1-0.1-0.2-0.1-0.4-0.1c-0.2,0-0.4,0.1-0.6,0.2c-0.2,0.1-0.4,0.3-0.6,0.5
	c-0.2,0.2-0.4,0.5-0.6,0.8c-0.2,0.3-0.3,0.6-0.5,1L90,62.9h-0.8l1.4-3.9c0.1-0.3,0.2-0.6,0.2-0.7c0-0.1,0-0.3-0.1-0.3
	c-0.1-0.1-0.2-0.1-0.3-0.1s-0.3,0-0.5,0.2s-0.4,0.3-0.7,0.5s-0.4,0.5-0.7,0.8c-0.2,0.3-0.4,0.7-0.6,1.1l-0.9,2.5h-0.8l1.7-5
	L86.9,57.9L86.9,57.9z"/>
<path d="M96.9,57.9l0.1-0.2h1.9l-1.4,4.1c0,0.1-0.1,0.2-0.1,0.4c0,0.1-0.1,0.2-0.1,0.3c0,0.1,0,0.2,0.1,0.2c0.1,0.1,0.1,0.1,0.2,0.1
	c0.1,0,0.2,0,0.4-0.1c0.1-0.1,0.2-0.2,0.3-0.3c0.1-0.1,0.2-0.2,0.3-0.3s0.1-0.2,0.2-0.3l0.1,0.1c0,0.1-0.1,0.2-0.2,0.3
	s-0.2,0.3-0.3,0.4c-0.1,0.1-0.3,0.2-0.4,0.3C97.8,63,97.6,63,97.4,63c-0.3,0-0.5,0-0.6-0.2c-0.2-0.1-0.2-0.3-0.2-0.5
	c0-0.1,0-0.3,0.1-0.5s0.1-0.3,0.1-0.5l1.2-3.5L96.9,57.9L96.9,57.9z M98.9,54.5c0.1-0.1,0.2-0.2,0.4-0.2s0.3,0,0.4,0.2
	s0.2,0.2,0.2,0.4s-0.1,0.3-0.2,0.4s-0.2,0.2-0.4,0.2s-0.3,0-0.4-0.2s-0.2-0.2-0.2-0.4S98.8,54.6,98.9,54.5z"/>
<path d="M101.2,57.9l0.1-0.2h1.9l-0.5,1.5h0c0.8-1,1.5-1.5,2.2-1.5c0.3,0,0.6,0.1,0.8,0.3c0.2,0.2,0.3,0.4,0.3,0.7
	c0,0.1,0,0.3-0.1,0.4c0,0.1-0.1,0.3-0.2,0.5l-0.8,2.2c-0.1,0.1-0.1,0.3-0.1,0.4s-0.1,0.3-0.1,0.4c0,0.1,0,0.2,0.1,0.3
	s0.1,0.1,0.2,0.1c0.1,0,0.3,0,0.4-0.1s0.2-0.2,0.3-0.3s0.2-0.2,0.3-0.3s0.1-0.2,0.2-0.3l0.1,0.1c0,0.1-0.1,0.2-0.2,0.3
	s-0.2,0.3-0.3,0.4c-0.1,0.1-0.3,0.2-0.4,0.3s-0.4,0.1-0.6,0.1c-0.3,0-0.5-0.1-0.7-0.2c-0.2-0.1-0.3-0.3-0.3-0.5c0-0.1,0-0.2,0-0.3
	s0.1-0.2,0.1-0.4l1-2.9c0.1-0.2,0.1-0.3,0.1-0.5c0-0.1,0-0.2-0.1-0.3s-0.2-0.1-0.4-0.1s-0.4,0.1-0.6,0.2s-0.5,0.3-0.7,0.5
	c-0.2,0.2-0.4,0.5-0.7,0.8c-0.2,0.3-0.4,0.6-0.5,1l-0.9,2.5h-0.8l1.7-5L101.2,57.9L101.2,57.9z"/>
<path d="M109.8,66.2c-0.2,0-0.3-0.1-0.5-0.2c-0.2-0.1-0.3-0.2-0.4-0.4s-0.2-0.4-0.2-0.7c0-0.1,0-0.2,0-0.3s0-0.3,0.1-0.4
	s0.1-0.3,0.1-0.4c0-0.1,0.1-0.2,0.1-0.3l0.3-1.3c0-0.1,0-0.2,0.1-0.3s0.1-0.3,0.1-0.4c0-0.2,0-0.4-0.1-0.5s-0.2-0.3-0.3-0.3
	c-0.1-0.1-0.3-0.2-0.4-0.2s-0.3-0.1-0.4-0.1v-0.1c0.4-0.1,0.8-0.2,1-0.3c0.2-0.1,0.4-0.2,0.6-0.4c0.2-0.2,0.3-0.3,0.3-0.5
	c0.1-0.2,0.1-0.4,0.2-0.7l0.4-1.6c0.1-0.5,0.2-0.8,0.4-1.1s0.3-0.6,0.5-0.8c0.2-0.2,0.4-0.3,0.7-0.4s0.7-0.1,1.1-0.1l-0.1,0.2
	c-0.4,0-0.7,0-0.9,0.1s-0.5,0.2-0.6,0.4s-0.3,0.4-0.4,0.7c-0.1,0.3-0.2,0.6-0.3,1l-0.3,0.9l-0.2,0.7c-0.1,0.3-0.2,0.6-0.3,0.8
	c-0.1,0.2-0.2,0.4-0.4,0.6c-0.2,0.2-0.3,0.3-0.6,0.3s-0.5,0.1-0.8,0.2c0.1,0,0.2,0,0.3,0s0.3,0.1,0.4,0.2c0.2,0.2,0.3,0.3,0.4,0.5
	c0.1,0.2,0.1,0.3,0.1,0.5c0,0.2,0,0.3-0.1,0.5c0,0.2-0.1,0.3-0.1,0.5l-0.4,1.4c0,0,0,0.1,0,0.2c0,0.1,0,0.2-0.1,0.2
	c0,0.1,0,0.2-0.1,0.3c0,0.1,0,0.2,0,0.3c0,0.4,0.1,0.7,0.3,0.8s0.6,0.3,1,0.3l-0.1,0.2C110.1,66.2,109.9,66.2,109.8,66.2L109.8,66.2
	z"/>
<path d="M117,57.4c0.2-0.4,0.4-0.9,0.6-1.2c0.2-0.4,0.5-0.7,0.8-1c0.3-0.3,0.6-0.5,0.9-0.7c0.3-0.2,0.6-0.3,0.9-0.3
	c0.4,0,0.7,0.1,0.9,0.3c0.2,0.2,0.3,0.4,0.3,0.8c0,0.2,0,0.4-0.1,0.5c-0.1,0.1-0.2,0.2-0.4,0.2c-0.1,0-0.2,0-0.3-0.1
	s-0.1-0.2-0.1-0.3c0-0.1,0-0.2,0.1-0.2s0.1-0.1,0.1-0.2c0-0.1,0.1-0.1,0.1-0.2s0.1-0.2,0.1-0.2s0-0.2-0.1-0.2s-0.2-0.1-0.4-0.1
	c-0.2,0-0.3,0-0.5,0.1s-0.3,0.2-0.5,0.3s-0.3,0.4-0.5,0.7c-0.2,0.3-0.3,0.7-0.5,1.1l-0.8,2.1h1.5l-0.1,0.2h-1.6l-0.9,2.3
	c-0.1,0.3-0.3,0.7-0.4,1.1c-0.2,0.4-0.3,0.8-0.5,1.1c-0.2,0.4-0.4,0.7-0.6,1.1c-0.2,0.3-0.4,0.6-0.7,0.9s-0.5,0.5-0.7,0.6
	c-0.2,0.2-0.5,0.2-0.7,0.2c-0.2,0-0.4,0-0.5-0.1s-0.2-0.1-0.3-0.2s-0.1-0.2-0.2-0.3c0-0.1-0.1-0.2-0.1-0.3c0-0.2,0.1-0.3,0.1-0.4
	c0.1-0.1,0.2-0.1,0.4-0.1c0.1,0,0.2,0,0.3,0.1s0.1,0.1,0.1,0.2c0,0.1,0,0.2-0.1,0.2c0,0.1-0.1,0.1-0.1,0.1c0,0-0.1,0.1-0.1,0.1
	c0,0-0.1,0.1-0.1,0.2c0,0.1,0,0.2,0.1,0.2s0.2,0.1,0.3,0.1c0.3,0,0.6-0.2,0.8-0.5s0.5-0.8,0.7-1.3l2-5.4h-1.6l0.1-0.2h1.6L117,57.4
	L117,57.4z"/>
<path d="M122.5,57.3l0-0.1h2.5l0,0.1h-0.8l-2,5.5h1.9c0.2,0,0.4-0.1,0.6-0.2s0.3-0.3,0.5-0.4c0.1-0.2,0.3-0.3,0.4-0.5
	s0.2-0.3,0.2-0.4h0.1l-0.6,1.6h-4.7l0-0.1h0.8l2-5.5L122.5,57.3L122.5,57.3z"/>
<path d="M128.8,58.1c-0.7,1.4-1,3-1,4.7c0,0.5,0,0.9,0.1,1.3c0.1,0.4,0.1,0.8,0.2,1.1c0.1,0.3,0.2,0.6,0.2,0.8
	c0.1,0.2,0.1,0.3,0.1,0.3l-0.2,0.1c-0.1-0.3-0.2-0.6-0.3-0.9c-0.1-0.3-0.2-0.6-0.2-0.9s-0.1-0.6-0.1-0.9s0-0.6,0-1
	c0-0.6,0.1-1.3,0.2-2s0.3-1.5,0.6-2.2c0.3-0.7,0.7-1.5,1.2-2.2s1.1-1.4,1.9-2l0.2,0.2C130.4,55.4,129.4,56.7,128.8,58.1L128.8,58.1z
	"/>
<path d="M132.1,58.7c0.1-0.2,0.2-0.3,0.4-0.5c0.1-0.2,0.3-0.3,0.5-0.4s0.4-0.2,0.7-0.2c0.2,0,0.4,0,0.5,0.1c0.1,0.1,0.2,0.2,0.3,0.3
	s0.1,0.2,0.2,0.3c0,0.1,0.1,0.2,0.1,0.3c0.1-0.1,0.1-0.2,0.2-0.3s0.2-0.2,0.4-0.3c0.1-0.1,0.3-0.2,0.5-0.3c0.2-0.1,0.4-0.1,0.6-0.1
	c0.4,0,0.6,0.1,0.8,0.3c0.2,0.2,0.2,0.4,0.2,0.7c0,0.2-0.1,0.3-0.1,0.5c-0.1,0.1-0.3,0.2-0.5,0.2c-0.1,0-0.2,0-0.3-0.1
	c-0.1,0-0.1-0.1-0.1-0.2c0-0.1,0-0.2,0.1-0.2c0-0.1,0.1-0.1,0.1-0.2s0.1-0.1,0.1-0.2c0-0.1,0.1-0.1,0.1-0.2c0-0.1,0-0.2-0.1-0.3
	c-0.1,0-0.2-0.1-0.3-0.1c-0.2,0-0.4,0.1-0.6,0.3c-0.2,0.2-0.4,0.4-0.5,0.7c-0.2,0.3-0.3,0.6-0.4,0.9s-0.2,0.7-0.3,1
	s-0.2,0.6-0.2,0.8c-0.1,0.3-0.1,0.4-0.1,0.6c0,0.3,0.1,0.5,0.2,0.7c0.1,0.2,0.3,0.2,0.5,0.2c0.2,0,0.4,0,0.6-0.2
	c0.2-0.1,0.3-0.2,0.4-0.3c0.1-0.1,0.2-0.3,0.3-0.4s0.2-0.3,0.2-0.4l0.2,0.1c0,0.1-0.1,0.2-0.2,0.3c-0.1,0.2-0.2,0.3-0.4,0.5
	s-0.3,0.3-0.5,0.4s-0.4,0.2-0.7,0.2c-0.2,0-0.4,0-0.5-0.1c-0.1-0.1-0.2-0.2-0.3-0.3s-0.2-0.2-0.2-0.3c-0.1-0.1-0.1-0.2-0.1-0.3
	c-0.1,0.1-0.2,0.2-0.4,0.4c-0.1,0.1-0.2,0.2-0.4,0.3c-0.1,0.1-0.3,0.2-0.5,0.2s-0.4,0.1-0.6,0.1c-0.2,0-0.4,0-0.5-0.1
	c-0.1,0-0.2-0.1-0.3-0.2s-0.1-0.2-0.2-0.3c0-0.1-0.1-0.2-0.1-0.3c0-0.2,0.1-0.4,0.2-0.5s0.3-0.2,0.4-0.2c0.1,0,0.2,0,0.2,0.1
	s0.1,0.1,0.1,0.2c0,0.1,0,0.2-0.1,0.2s-0.1,0.1-0.1,0.2s-0.1,0.1-0.1,0.2s-0.1,0.1-0.1,0.2c0,0.1,0.1,0.2,0.1,0.3s0.2,0.1,0.4,0.1
	c0.1,0,0.2,0,0.3,0s0.2-0.1,0.4-0.2c0.1-0.1,0.2-0.3,0.4-0.5s0.3-0.5,0.4-0.8c0.1-0.2,0.1-0.4,0.2-0.6s0.2-0.5,0.2-0.8
	s0.1-0.5,0.2-0.8s0.1-0.5,0.1-0.6c0-0.2-0.1-0.4-0.1-0.6c-0.1-0.2-0.3-0.2-0.5-0.2c-0.2,0-0.4,0-0.5,0.2s-0.3,0.2-0.4,0.4
	s-0.2,0.3-0.3,0.4s-0.1,0.3-0.2,0.3l-0.2-0.1C131.9,59,132,58.8,132.1,58.7L132.1,58.7z"/>
<path d="M139.7,62.5c0.7-1.4,1-3,1-4.7c0-0.5,0-0.9-0.1-1.3c-0.1-0.4-0.1-0.8-0.2-1.1s-0.2-0.6-0.2-0.8c-0.1-0.2-0.1-0.3-0.1-0.3
	l0.2-0.1c0.1,0.3,0.2,0.6,0.3,1c0.1,0.3,0.2,0.6,0.2,0.9s0.1,0.6,0.1,0.9s0,0.6,0,1c0,0.6-0.1,1.3-0.2,2s-0.3,1.5-0.6,2.2
	c-0.3,0.8-0.7,1.5-1.2,2.2s-1.1,1.4-1.9,2l-0.2-0.2C138.1,65.2,139.1,63.9,139.7,62.5L139.7,62.5z"/>
<path d="M143.1,64.5c0.1-0.1,0.3-0.2,0.4-0.3c0.1-0.1,0.2-0.2,0.3-0.4c0.1-0.2,0.1-0.3,0.1-0.5c0-0.2,0-0.3-0.1-0.4c0,0,0,0-0.1,0
	s-0.1,0-0.1,0c0,0-0.1,0-0.1,0c0,0-0.1,0-0.1,0c-0.1,0-0.3,0-0.4-0.2c-0.1-0.1-0.1-0.2-0.1-0.3c0-0.2,0.1-0.3,0.2-0.5
	c0.1-0.1,0.3-0.2,0.5-0.2c0.2,0,0.4,0.1,0.6,0.2c0.1,0.2,0.2,0.4,0.2,0.6c0,0.3-0.1,0.6-0.2,0.9c-0.1,0.2-0.3,0.5-0.5,0.6
	c-0.2,0.2-0.4,0.3-0.6,0.4c-0.2,0.1-0.3,0.1-0.4,0.2l-0.1-0.2C142.8,64.6,142.9,64.6,143.1,64.5L143.1,64.5z"/>
<path d="M154.5,62c-0.1,0.2-0.1,0.4-0.1,0.5c0,0.2,0.1,0.3,0.3,0.3c0.2,0,0.3,0,0.4-0.1c0.1-0.1,0.2-0.2,0.3-0.3
	c0.1-0.1,0.2-0.2,0.2-0.3s0.1-0.2,0.1-0.2l0.2,0.1c0,0.1-0.1,0.2-0.2,0.3c-0.1,0.1-0.2,0.3-0.3,0.4s-0.3,0.2-0.4,0.3
	s-0.4,0.1-0.6,0.1c-0.5,0-0.8-0.2-0.8-0.7c0-0.1,0-0.2,0-0.3c0-0.1,0.1-0.3,0.1-0.4h0c-0.1,0.1-0.2,0.3-0.4,0.5s-0.3,0.3-0.5,0.5
	c-0.2,0.1-0.4,0.3-0.6,0.3c-0.2,0.1-0.5,0.1-0.7,0.1c-0.2,0-0.3,0-0.5-0.1s-0.3-0.2-0.4-0.3c-0.1-0.1-0.2-0.3-0.3-0.5
	c-0.1-0.2-0.1-0.4-0.1-0.7c0-0.3,0.1-0.6,0.2-1s0.3-0.6,0.5-0.9s0.4-0.6,0.7-0.8s0.5-0.5,0.8-0.7c0.3-0.2,0.6-0.3,0.8-0.4
	s0.5-0.2,0.7-0.2c0.2,0,0.4,0.1,0.6,0.2c0.2,0.1,0.2,0.3,0.2,0.5h0l0.2-0.6h0.8l-1.3,3.6C154.7,61.6,154.6,61.8,154.5,62L154.5,62z
	 M154.8,58.8c0-0.1,0-0.2,0-0.3c0-0.1,0-0.2,0-0.2c0-0.1-0.1-0.2-0.1-0.2s-0.1-0.1-0.2-0.2c-0.1,0-0.2-0.1-0.4-0.1
	c-0.3,0-0.5,0.1-0.8,0.2s-0.5,0.3-0.7,0.6s-0.4,0.5-0.6,0.8c-0.2,0.3-0.3,0.6-0.5,0.9s-0.2,0.6-0.3,0.9s-0.1,0.6-0.1,0.8
	c0,0.3,0.1,0.5,0.1,0.6c0.1,0.2,0.3,0.2,0.5,0.2s0.5-0.1,0.7-0.2s0.5-0.3,0.7-0.5s0.4-0.4,0.5-0.6c0.1-0.2,0.2-0.4,0.3-0.5l0.6-1.8
	C154.7,59.1,154.8,58.9,154.8,58.8L154.8,58.8z"/>
<path d="M160.6,60.6c-0.2,0.1-0.4,0.2-0.6,0.4c-0.1,0.2-0.3,0.3-0.4,0.5s-0.1,0.4-0.2,0.7l-0.4,1.6c-0.1,0.5-0.3,0.9-0.4,1.2
	c-0.1,0.3-0.3,0.6-0.5,0.8c-0.2,0.2-0.4,0.3-0.7,0.4s-0.6,0.1-1,0.1l0.1-0.2c0.3,0,0.6,0,0.9-0.1c0.2-0.1,0.5-0.2,0.6-0.3
	c0.2-0.2,0.3-0.4,0.5-0.7s0.3-0.6,0.4-1.1l0.2-1c0,0,0-0.1,0-0.1c0-0.1,0-0.1,0.1-0.2s0-0.2,0.1-0.2s0-0.1,0-0.1
	c0.1-0.3,0.2-0.6,0.3-0.8c0.1-0.2,0.2-0.4,0.4-0.6c0.2-0.2,0.4-0.3,0.6-0.3c0.2-0.1,0.5-0.1,0.8-0.2c-0.1,0-0.2,0-0.3-0.1
	s-0.3-0.1-0.4-0.2c-0.2-0.2-0.3-0.3-0.4-0.5s-0.1-0.3-0.1-0.4c0-0.1,0-0.3,0.1-0.4s0.1-0.3,0.1-0.5l0.4-1.4c0-0.1,0.1-0.3,0.1-0.5
	s0.1-0.4,0.1-0.6c0-0.4-0.1-0.7-0.4-0.8c-0.2-0.2-0.6-0.3-0.9-0.3l0.1-0.2c0.1,0,0.3,0,0.4,0.1s0.3,0.1,0.5,0.2s0.3,0.2,0.4,0.4
	s0.2,0.4,0.2,0.7c0,0.2,0,0.3-0.1,0.5s-0.1,0.5-0.2,0.8l-0.4,1.3c0,0.1,0,0.2-0.1,0.3s0,0.3,0,0.4c0,0.2,0,0.4,0.1,0.5
	s0.2,0.3,0.3,0.3s0.3,0.2,0.4,0.2c0.1,0,0.3,0.1,0.4,0.1v0.1C161.1,60.4,160.8,60.5,160.6,60.6L160.6,60.6z"/>
</svg>
