<?xml version="1.0" encoding="UTF-8"?>
<svg id="Layer_1" data-name="Layer 1" xmlns="http://www.w3.org/2000/svg" viewBox="0 0 191.45 294.7">
  <defs>
    <style>
      .cls-1 {
        fill: #db4e57;
      }

      .cls-2 {
        fill: #231f20;
      }

      .cls-3 {
        fill: #418ec2;
      }

      .cls-4 {
        fill: #064590;
      }
    </style>
  </defs>
  <g>
    <path d="m27.91,18.49v-5.82h2.52c.44,0,.81.06,1.12.18s.53.29.68.51.23.47.23.77c0,.21-.05.41-.14.59s-.22.32-.39.44-.37.2-.59.24v.06c.25,0,.48.07.68.19s.37.28.49.48.18.44.18.72c0,.32-.08.6-.25.85s-.4.44-.7.59-.67.21-1.09.21h-2.74Zm1.58-3.47h.65c.14,0,.26-.02.37-.06s.19-.11.25-.19.09-.18.09-.3c0-.18-.06-.31-.19-.41s-.29-.14-.49-.14h-.67v1.11Zm0,2.21h.74c.26,0,.46-.05.6-.15s.2-.25.2-.44c0-.14-.03-.25-.09-.35s-.15-.17-.27-.22-.25-.07-.41-.07h-.77v1.23Z"/>
    <path d="m34.66,12.67v5.82h-1.57v-5.82h1.57Z"/>
    <path d="m35.27,18.49v-4.37h1.57v4.37h-1.57Zm.78-4.81c-.21,0-.4-.07-.55-.21s-.23-.31-.23-.51.08-.37.23-.51.33-.21.55-.21.4.07.55.21.23.31.23.51-.08.37-.23.51-.33.21-.55.21Z"/>
    <path d="m41.44,15.55h-1.44c-.01-.13-.07-.24-.19-.31s-.25-.12-.4-.12c-.14,0-.25.02-.34.07s-.14.12-.14.21c0,.06.03.13.08.18s.17.1.33.13l.89.16c.45.08.78.21,1,.41s.33.45.33.77-.09.58-.27.81-.43.4-.75.53-.68.19-1.08.19c-.67,0-1.19-.14-1.56-.41s-.59-.63-.63-1.08h1.55c.02.14.09.24.21.32s.26.11.44.11c.15,0,.27-.02.36-.07s.14-.12.14-.21c0-.15-.17-.26-.5-.32l-.77-.14c-.44-.08-.77-.23-1-.44s-.33-.49-.33-.84c0-.3.08-.56.24-.77s.39-.37.7-.48.66-.17,1.08-.17c.63,0,1.13.13,1.49.39s.55.62.57,1.08Z"/>
    <path d="m45.95,15.55h-1.44c-.01-.13-.07-.24-.19-.31s-.25-.12-.4-.12c-.14,0-.25.02-.34.07s-.14.12-.14.21c0,.06.03.13.08.18s.17.1.33.13l.89.16c.45.08.78.21,1,.41s.33.45.33.77-.09.58-.27.81-.43.4-.75.53-.68.19-1.08.19c-.67,0-1.19-.14-1.56-.41s-.59-.63-.63-1.08h1.55c.02.14.09.24.21.32s.26.11.44.11c.15,0,.27-.02.36-.07s.14-.12.14-.21c0-.15-.17-.26-.5-.32l-.77-.14c-.44-.08-.77-.23-1-.44s-.33-.49-.33-.84c0-.3.08-.56.24-.77s.39-.37.7-.48.66-.17,1.08-.17c.63,0,1.13.13,1.49.39s.55.62.57,1.08Z"/>
    <path d="m47.99,15.76c0-.44.04-.89.13-1.36s.2-.92.36-1.34.33-.79.52-1.1h1.43c-.17.4-.32.81-.45,1.25s-.22.87-.29,1.3-.1.85-.1,1.25c0,.34.03.68.08,1.01s.14.7.27,1.09.29.85.49,1.36h-1.43c-.33-.53-.58-1.1-.75-1.68s-.26-1.18-.26-1.78Z"/>
    <path d="m50.78,12.67h1.97l1.35,3.3h.06l1.36-3.3h1.96v5.82h-1.55v-3.37h-.04l-1.3,3.32h-.94l-1.29-3.34h-.05v3.38h-1.55v-5.82Z"/>
    <path d="m60.9,16.59v-2.46h1.57v4.37h-1.49v-.83h-.05c-.09.28-.26.49-.49.65s-.52.23-.84.23c-.3,0-.57-.07-.8-.21s-.41-.33-.53-.58-.19-.53-.19-.85v-2.79h1.57v2.46c0,.21.05.38.16.51s.26.18.46.18c.13,0,.24-.03.34-.08s.17-.13.22-.24.08-.23.08-.37Z"/>
    <path d="m64.65,12.67v5.82h-1.57v-5.82h1.57Z"/>
    <path d="m67.86,14.12v1.14h-2.88v-1.14h2.88Zm-2.32-1.04h1.57v4c0,.09.02.16.07.21s.12.07.23.07c.05,0,.1,0,.17-.02s.11-.02.14-.03l.23,1.11c-.18.05-.34.08-.49.11s-.29.03-.43.03c-.49,0-.86-.11-1.11-.34s-.37-.55-.37-.99v-4.15Z"/>
    <path d="m68.31,18.49v-4.37h1.57v4.37h-1.57Zm.78-4.81c-.21,0-.4-.07-.55-.21s-.23-.31-.23-.51.08-.37.23-.51.33-.21.55-.21.4.07.55.21.23.31.23.51-.08.37-.23.51-.33.21-.55.21Z"/>
    <path d="m70.49,20.12v-6h1.55v.77h.04c.06-.15.14-.29.25-.41s.25-.22.41-.3.35-.11.57-.11c.29,0,.56.08.82.23s.47.4.63.72.25.76.25,1.29-.08.92-.23,1.25-.36.58-.62.74-.55.24-.86.24c-.2,0-.38-.03-.54-.1s-.3-.16-.41-.28-.2-.25-.26-.4h-.02v2.35h-1.57Zm2.23-2.78c.15,0,.27-.04.37-.12s.18-.2.23-.36.08-.34.08-.55-.03-.4-.08-.56-.13-.27-.23-.36-.22-.12-.37-.12-.27.04-.37.12-.18.2-.24.36-.08.34-.08.56.03.39.08.55.14.27.24.36.23.13.37.13Z"/>
    <path d="m77.04,12.67v5.82h-1.57v-5.82h1.57Z"/>
    <path d="m77.65,18.49v-4.37h1.57v4.37h-1.57Zm.78-4.81c-.21,0-.4-.07-.55-.21s-.23-.31-.23-.51.08-.37.23-.51.33-.21.55-.21.4.07.55.21.23.31.23.51-.08.37-.23.51-.33.21-.55.21Z"/>
    <path d="m81.93,18.57c-.47,0-.88-.09-1.22-.28s-.6-.45-.77-.79-.27-.73-.27-1.18.09-.84.27-1.18.44-.6.77-.79.74-.28,1.22-.28c.43,0,.8.08,1.11.23s.55.37.73.65.26.61.26.99h-1.45c-.01-.15-.05-.28-.1-.39s-.13-.18-.21-.24-.19-.08-.31-.08c-.14,0-.26.04-.36.12s-.18.2-.24.36-.08.36-.08.6.03.44.08.6.13.28.24.37.22.12.36.12c.17,0,.31-.06.43-.19s.18-.31.2-.54h1.45c0,.39-.09.72-.26,1.01s-.41.51-.72.66-.68.23-1.12.23Z"/>
    <path d="m85.69,18.56c-.28,0-.53-.05-.74-.14s-.38-.23-.5-.42-.18-.43-.18-.71c0-.24.04-.44.12-.61s.19-.31.34-.42.32-.19.51-.25.4-.1.63-.11c.24-.02.44-.04.59-.07s.25-.06.32-.12.1-.12.1-.2v-.02c0-.11-.04-.2-.13-.26s-.2-.09-.33-.09c-.15,0-.27.03-.37.1s-.15.17-.17.3h-1.44c.02-.27.1-.51.25-.73s.37-.4.66-.54.65-.2,1.09-.2c.31,0,.59.04.84.11s.46.17.63.3.31.28.4.46.14.36.14.56v2.99h-1.47v-.62h-.03c-.09.16-.19.3-.32.4s-.26.17-.42.22-.33.07-.52.07Zm.51-.99c.12,0,.23-.02.34-.07s.19-.12.26-.21.1-.21.1-.34v-.36s-.09.03-.13.05-.1.03-.15.04-.11.02-.16.04-.12.02-.18.03c-.12.02-.22.05-.3.09s-.13.1-.17.16-.05.13-.05.21c0,.12.04.22.13.28s.19.1.33.1Z"/>
    <path d="m91.66,14.12v1.14h-2.88v-1.14h2.88Zm-2.32-1.04h1.57v4c0,.09.02.16.07.21s.12.07.23.07c.05,0,.1,0,.17-.02s.11-.02.14-.03l.23,1.11c-.18.05-.34.08-.49.11s-.29.03-.43.03c-.49,0-.86-.11-1.11-.34s-.37-.55-.37-.99v-4.15Z"/>
    <path d="m92.11,18.49v-4.37h1.57v4.37h-1.57Zm.78-4.81c-.21,0-.4-.07-.55-.21s-.23-.31-.23-.51.08-.37.23-.51.33-.21.55-.21.4.07.55.21.23.31.23.51-.08.37-.23.51-.33.21-.55.21Z"/>
    <path d="m98.69,14.12l-1.47,4.37h-1.82l-1.46-4.37h1.65l.73,2.89h.05l.7-2.89h1.62Z"/>
    <path d="m100.91,18.57c-.47,0-.87-.09-1.21-.27s-.6-.44-.78-.77-.27-.74-.27-1.21.09-.84.27-1.18.44-.6.77-.79.72-.28,1.17-.28c.33,0,.63.05.9.15s.5.25.69.45.34.43.44.71.15.59.15.94v.36h-3.9v-.86h3.16l-.73.18c0-.18-.03-.33-.08-.45s-.13-.21-.23-.28-.23-.1-.38-.1-.28.03-.38.1-.18.16-.23.28-.08.27-.08.45v.62c0,.17.03.32.09.45s.15.23.26.3.24.11.39.11c.11,0,.2-.02.29-.04s.16-.07.22-.13.11-.13.14-.21h1.43c-.05.3-.16.56-.35.79s-.42.39-.72.52-.65.18-1.05.18Z"/>
    <path d="m106.98,18.57c-.47,0-.87-.09-1.21-.27s-.6-.44-.78-.77-.27-.74-.27-1.21.09-.84.27-1.18.44-.6.77-.79.72-.28,1.17-.28c.33,0,.63.05.9.15s.5.25.69.45.34.43.44.71.15.59.15.94v.36h-3.9v-.86h3.16l-.73.18c0-.18-.03-.33-.08-.45s-.13-.21-.23-.28-.23-.1-.38-.1-.28.03-.38.1-.18.16-.23.28-.08.27-.08.45v.62c0,.17.03.32.09.45s.15.23.26.3.24.11.39.11c.11,0,.2-.02.29-.04s.16-.07.22-.13.11-.13.14-.21h1.43c-.05.3-.16.56-.35.79s-.42.39-.72.52-.65.18-1.05.18Z"/>
    <path d="m112.19,14.12v1.14h-2.91v-1.14h2.91Zm-2.36,4.37v-4.49c0-.36.06-.66.19-.89s.31-.41.54-.53.51-.18.83-.18c.2,0,.4.02.58.05s.33.06.42.08l-.23,1.12c-.06-.02-.12-.03-.2-.04s-.14-.02-.2-.02c-.15,0-.24.03-.3.09s-.08.15-.08.25v4.55h-1.56Z"/>
    <path d="m115.26,14.12v1.14h-2.91v-1.14h2.91Zm-2.36,4.37v-4.49c0-.36.06-.66.19-.89s.31-.41.54-.53.51-.18.83-.18c.2,0,.4.02.58.05s.33.06.42.08l-.23,1.12c-.06-.02-.12-.03-.2-.04s-.14-.02-.2-.02c-.15,0-.24.03-.3.09s-.08.15-.08.25v4.55h-1.56Z"/>
    <path d="m117.64,18.57c-.47,0-.87-.09-1.21-.27s-.6-.44-.78-.77-.27-.74-.27-1.21.09-.84.27-1.18.44-.6.77-.79.72-.28,1.17-.28c.33,0,.63.05.9.15s.5.25.69.45.34.43.44.71.15.59.15.94v.36h-3.9v-.86h3.16l-.73.18c0-.18-.03-.33-.08-.45s-.13-.21-.23-.28-.23-.1-.38-.1-.28.03-.38.1-.18.16-.23.28-.08.27-.08.45v.62c0,.17.03.32.09.45s.15.23.26.3.24.11.39.11c.11,0,.2-.02.29-.04s.16-.07.22-.13.11-.13.14-.21h1.43c-.05.3-.16.56-.35.79s-.42.39-.72.52-.65.18-1.05.18Z"/>
    <path d="m122.31,18.57c-.47,0-.88-.09-1.22-.28s-.6-.45-.77-.79-.27-.73-.27-1.18.09-.84.27-1.18.44-.6.77-.79.74-.28,1.22-.28c.43,0,.8.08,1.11.23s.55.37.73.65.26.61.26.99h-1.45c-.01-.15-.05-.28-.1-.39s-.13-.18-.21-.24-.19-.08-.31-.08c-.14,0-.26.04-.36.12s-.18.2-.24.36-.08.36-.08.6.03.44.08.6.13.28.24.37.22.12.36.12c.17,0,.31-.06.43-.19s.18-.31.2-.54h1.45c0,.39-.09.72-.26,1.01s-.41.51-.72.66-.68.23-1.12.23Z"/>
    <path d="m127.46,14.12v1.14h-2.88v-1.14h2.88Zm-2.32-1.04h1.57v4c0,.09.02.16.07.21s.12.07.23.07c.05,0,.1,0,.17-.02s.11-.02.14-.03l.23,1.11c-.18.05-.34.08-.49.11s-.29.03-.43.03c-.49,0-.86-.11-1.11-.34s-.37-.55-.37-.99v-4.15Z"/>
    <path d="m131.85,15.55h-1.44c-.01-.13-.07-.24-.19-.31-.12-.08-.25-.12-.4-.12-.14,0-.25.02-.34.07s-.14.12-.14.21c0,.06.03.13.08.18.06.06.17.1.33.13l.89.16c.45.08.78.21,1,.41.22.19.33.45.33.77s-.09.58-.27.81c-.18.23-.43.4-.75.53s-.68.19-1.08.19c-.67,0-1.19-.14-1.56-.41s-.59-.63-.63-1.08h1.56c.02.14.09.24.21.32s.26.11.44.11c.15,0,.27-.02.36-.07s.14-.12.14-.21c0-.15-.17-.26-.5-.32l-.77-.14c-.44-.08-.78-.23-1-.44s-.33-.49-.33-.84c0-.3.08-.56.24-.77s.39-.37.7-.48c.3-.11.66-.17,1.08-.17.63,0,1.13.13,1.49.39s.55.62.57,1.08Z"/>
    <path d="m132.15,19.58c.21-.51.37-.96.49-1.36s.21-.76.26-1.09.08-.67.08-1.01c0-.4-.03-.82-.1-1.25s-.16-.87-.29-1.3c-.12-.44-.27-.85-.45-1.25h1.43c.2.31.37.67.52,1.1.15.43.27.88.36,1.34s.13.92.13,1.36c0,.6-.09,1.19-.26,1.78-.17.59-.42,1.15-.75,1.68h-1.43Z"/>
    <path d="m29.63,27.08c.13-.46.31-.9.54-1.3s.5-.75.79-1.05c.3-.3.62-.54.96-.71.34-.17.69-.26,1.03-.26.21,0,.38.03.53.09.14.06.26.14.36.23.1.09.17.19.21.3s.07.21.07.31c0,.14-.04.27-.11.41-.08.14-.22.2-.43.2-.18,0-.3-.03-.38-.1-.08-.07-.11-.15-.11-.23,0-.08.02-.15.05-.21.03-.06.07-.12.1-.17.04-.05.07-.1.1-.15.03-.05.04-.1.04-.17,0-.14-.05-.23-.14-.27-.09-.04-.2-.07-.32-.07-.36,0-.68.11-.95.34-.27.22-.5.49-.7.8s-.35.63-.47.95c-.12.32-.21.59-.26.8l-.25.91h1.48l-.05.17h-1.48l-1.07,4.07c-.14.51-.31,1.01-.52,1.49-.21.48-.45.9-.71,1.27-.27.37-.56.66-.88.88-.32.22-.65.33-1,.33-.1,0-.21-.01-.33-.04-.12-.02-.22-.07-.32-.13s-.18-.14-.24-.24c-.06-.1-.1-.23-.1-.39s.05-.28.14-.4c.09-.11.23-.17.43-.17.1,0,.19.02.25.06.06.04.1.12.1.25,0,.09-.02.18-.06.27-.04.09-.06.19-.06.31,0,.1.03.18.1.23.07.05.15.07.26.07.34,0,.66-.23.97-.69.31-.46.6-1.2.88-2.23l1.32-4.96h-1.14l.05-.17h1.14l.18-.66Z"/>
    <path d="m33.71,27.31l.03-.11h1.8c.27,0,.52.03.75.08.23.05.42.13.58.23.16.1.29.23.38.39s.14.33.14.54c0,.18-.04.34-.11.48s-.17.26-.29.37c-.12.1-.25.19-.4.26-.15.07-.29.13-.43.17-.14.04-.27.07-.4.09-.13.02-.23.03-.3.03l-.02.02c.07.02.18.05.33.1s.3.13.45.24.29.24.4.41.17.37.17.62c0,.28-.08.52-.24.74s-.36.39-.62.54c-.25.14-.54.25-.86.32s-.63.11-.95.11c-.2,0-.39,0-.58-.01-.19,0-.39-.01-.59-.01h-1.16l.03-.11h.81l1.98-5.47h-.93Zm.04,5.49c.12,0,.23.01.35.01.35,0,.64-.06.89-.19.25-.12.45-.28.62-.47.16-.19.28-.39.36-.62.08-.23.12-.44.12-.64,0-.13-.02-.25-.05-.35-.03-.1-.07-.19-.12-.26-.05-.07-.11-.13-.16-.18-.06-.05-.12-.09-.18-.12-.11-.05-.21-.09-.32-.1-.11-.01-.25-.02-.41-.02h-.41l-1.03,2.9c.12.01.23.02.35.03Zm1.47-3.04c.21,0,.4-.03.57-.1.17-.07.32-.17.45-.3.13-.13.23-.29.3-.48s.1-.41.1-.65c0-.27-.08-.49-.25-.66-.17-.17-.4-.25-.7-.25h-.34l-.88,2.45h.74Z"/>
    <path d="m39.04,32.17c-.03.08-.05.16-.08.24-.03.08-.04.16-.04.24,0,.06.02.12.06.16.04.05.09.07.17.07.09,0,.17-.03.25-.09.08-.06.16-.13.23-.2.07-.08.13-.16.18-.24.05-.08.08-.14.1-.19l.1.04s-.05.11-.1.2c-.05.09-.11.18-.19.26s-.18.16-.3.23-.26.1-.42.1c-.18,0-.32-.04-.42-.11-.1-.07-.16-.19-.16-.36,0-.09.02-.19.05-.3.03-.11.06-.21.1-.3l1.78-4.99h-.71l.03-.11h1.27l-1.9,5.36Z"/>
    <path d="m41.5,29.57l.03-.11h1.27l-.94,2.71c-.03.08-.05.16-.08.24-.03.08-.04.16-.04.24,0,.06.02.12.06.16.04.05.09.07.17.07.09,0,.17-.03.25-.09.08-.06.16-.13.23-.2.07-.08.13-.16.18-.24.05-.08.08-.14.1-.19l.1.04s-.05.11-.1.2c-.05.09-.11.18-.19.26s-.18.16-.3.23-.26.1-.42.1c-.18,0-.32-.04-.42-.11-.1-.07-.16-.19-.16-.36,0-.09.02-.19.05-.3.03-.11.06-.21.1-.3l.82-2.34h-.71Zm1.32-2.27c.07-.07.16-.11.27-.11s.2.04.27.11.11.16.11.27-.04.2-.11.27c-.07.07-.16.11-.27.11s-.2-.04-.27-.11-.11-.16-.11-.27.04-.2.11-.27Z"/>
    <path d="m44.57,30.8c-.07-.1-.1-.23-.1-.37,0-.12.03-.25.1-.38s.15-.24.26-.35c.11-.1.25-.19.4-.25s.33-.1.51-.1c.22,0,.4.05.54.15.14.1.2.23.2.38,0,.22-.11.34-.33.34-.07,0-.14-.02-.2-.06-.06-.04-.08-.1-.08-.18,0-.07.02-.13.05-.16.03-.03.05-.08.05-.13,0-.14-.09-.21-.27-.21-.13,0-.24.02-.33.06-.09.04-.17.09-.23.15-.06.06-.11.14-.14.22s-.04.16-.04.24c0,.11.03.21.08.3s.13.2.22.33l.47.62c.06.08.11.16.13.25.02.09.04.18.04.27,0,.18-.05.34-.14.48-.09.14-.2.25-.34.34-.14.09-.28.16-.44.2-.16.05-.31.07-.44.07-.12,0-.24-.01-.35-.04-.11-.03-.21-.07-.3-.12s-.16-.11-.21-.19-.08-.17-.08-.27c0-.12.04-.21.12-.28.08-.06.17-.09.29-.09.05,0,.09.02.13.05s.06.08.06.12c0,.06-.01.12-.04.18-.03.06-.04.12-.04.18,0,.13.04.22.12.27s.19.08.32.08.25-.02.36-.06c.1-.04.19-.1.26-.16.07-.06.13-.14.16-.22.04-.08.06-.15.06-.22,0-.11-.02-.2-.05-.29s-.09-.18-.17-.29l-.4-.53c-.08-.11-.15-.21-.22-.32Z"/>
    <path d="m47.99,30.8c-.07-.1-.1-.23-.1-.37,0-.12.03-.25.1-.38s.15-.24.26-.35c.11-.1.25-.19.4-.25s.33-.1.51-.1c.22,0,.4.05.54.15.14.1.2.23.2.38,0,.22-.11.34-.33.34-.07,0-.14-.02-.2-.06-.06-.04-.08-.1-.08-.18,0-.07.02-.13.05-.16.03-.03.05-.08.05-.13,0-.14-.09-.21-.27-.21-.13,0-.24.02-.33.06-.09.04-.17.09-.23.15-.06.06-.11.14-.14.22s-.04.16-.04.24c0,.11.03.21.08.3s.13.2.22.33l.47.62c.06.08.11.16.13.25.02.09.04.18.04.27,0,.18-.05.34-.14.48-.09.14-.2.25-.34.34-.14.09-.28.16-.44.2-.16.05-.31.07-.44.07-.12,0-.24-.01-.35-.04-.11-.03-.21-.07-.3-.12s-.16-.11-.21-.19-.08-.17-.08-.27c0-.12.04-.21.12-.28.08-.06.17-.09.29-.09.05,0,.09.02.13.05s.06.08.06.12c0,.06-.01.12-.04.18-.03.06-.04.12-.04.18,0,.13.04.22.12.27s.19.08.32.08.25-.02.36-.06c.1-.04.19-.1.26-.16.07-.06.13-.14.16-.22.04-.08.06-.15.06-.22,0-.11-.02-.2-.05-.29s-.09-.18-.17-.29l-.4-.53c-.08-.11-.15-.21-.22-.32Z"/>
    <path d="m56.38,28.08c-.66,1.42-1,2.97-1,4.67,0,.46.03.89.1,1.3.06.41.14.78.22,1.09s.16.57.23.77c.07.2.12.31.13.34l-.24.12c-.11-.33-.21-.64-.3-.95-.09-.3-.16-.61-.22-.91-.06-.3-.1-.6-.13-.91-.03-.31-.04-.63-.04-.97,0-.62.06-1.3.19-2.03s.34-1.47.65-2.21c.3-.74.71-1.48,1.22-2.2.51-.72,1.15-1.38,1.92-1.98l.19.16c-1.3,1.06-2.28,2.29-2.94,3.71Z"/>
    <path d="m59.68,28.66c.09-.16.21-.32.35-.47.14-.16.32-.29.52-.41s.43-.18.69-.18c.21,0,.38.04.52.11.14.08.25.17.34.28s.15.22.2.34c.04.12.08.22.1.31.06-.07.14-.17.25-.29.11-.12.24-.23.38-.34s.31-.2.5-.28c.18-.08.38-.12.58-.12.36,0,.62.1.79.29.16.2.25.41.25.65,0,.16-.05.31-.14.45-.1.14-.26.21-.49.21-.1,0-.19-.02-.26-.07-.07-.04-.11-.12-.11-.23,0-.09.02-.16.05-.22.04-.06.07-.12.11-.17.04-.05.08-.11.11-.17.04-.06.05-.14.05-.23,0-.13-.04-.22-.13-.27-.09-.05-.18-.08-.29-.08-.21,0-.41.09-.59.26-.19.18-.36.4-.53.67-.16.27-.31.57-.44.9-.13.33-.25.65-.34.97-.1.31-.17.6-.22.85-.05.26-.08.44-.08.56,0,.27.05.49.16.66s.26.25.48.25c.2,0,.38-.05.55-.15.16-.1.31-.22.44-.35.13-.14.24-.28.33-.43.09-.15.17-.28.22-.37l.16.07c-.04.07-.11.19-.2.34-.09.16-.21.31-.36.47-.15.16-.32.29-.52.41-.2.12-.43.17-.68.17-.19,0-.36-.04-.49-.11-.14-.07-.25-.16-.34-.26s-.16-.21-.2-.33c-.05-.12-.08-.22-.11-.31-.11.12-.23.24-.35.36-.12.12-.25.23-.4.32-.14.1-.3.17-.47.23-.17.06-.36.09-.58.09-.2,0-.37-.03-.5-.08-.14-.05-.25-.12-.34-.2s-.15-.18-.19-.29c-.04-.11-.06-.21-.06-.32,0-.24.06-.41.19-.52s.28-.16.44-.16c.09,0,.17.02.24.07.07.05.11.13.11.24,0,.08-.02.15-.05.2-.03.05-.07.1-.11.15s-.08.1-.11.16c-.03.06-.05.14-.05.25,0,.14.05.23.14.28s.23.07.4.07c.1,0,.2-.02.31-.05.11-.04.23-.11.35-.22.12-.11.25-.26.38-.46.13-.2.27-.47.41-.8.07-.17.15-.38.24-.62s.17-.5.25-.76c.08-.26.15-.51.2-.76.05-.24.08-.45.08-.61,0-.23-.05-.43-.15-.59-.1-.16-.27-.25-.51-.25-.19,0-.37.05-.53.16s-.31.23-.44.37-.24.29-.33.44-.15.27-.19.35l-.17-.07c.03-.07.09-.19.19-.35Z"/>
    <path d="m67.33,32.51c.66-1.41.99-2.97.99-4.66,0-.46-.03-.9-.1-1.31-.06-.41-.14-.78-.22-1.09s-.16-.57-.23-.77c-.07-.2-.12-.31-.13-.34l.24-.12c.11.33.21.64.3.95.09.3.16.61.22.91.06.3.1.6.13.91.03.31.04.63.04.98,0,.62-.06,1.3-.19,2.03s-.34,1.47-.65,2.21c-.31.75-.72,1.48-1.22,2.2s-1.15,1.37-1.91,1.97l-.19-.16c1.3-1.06,2.27-2.29,2.93-3.7Z"/>
    <path d="m75.08,27.9v-.85h5.5v.85h-5.5Zm0,2.39v-.85h5.5v.85h-5.5Z"/>
    <path d="m90.11,31.98c-.05.19-.08.36-.08.52,0,.21.1.31.3.31.16,0,.3-.05.43-.14.13-.09.24-.2.33-.31.09-.12.17-.23.23-.35.06-.12.1-.2.13-.25l.16.08c-.04.09-.1.2-.18.34-.08.14-.18.27-.31.39s-.28.23-.44.32-.36.14-.59.14c-.53,0-.79-.24-.79-.72,0-.06.01-.15.04-.29.02-.14.06-.27.1-.38h-.02c-.11.14-.24.29-.38.45-.14.16-.31.32-.49.46-.18.14-.38.26-.59.35-.22.09-.46.14-.72.14-.17,0-.33-.03-.49-.09-.16-.06-.29-.15-.41-.28-.12-.12-.21-.28-.28-.47-.07-.19-.1-.42-.1-.68,0-.32.06-.64.19-.96.13-.32.29-.63.5-.92.2-.29.44-.56.71-.81.27-.25.54-.46.82-.65.28-.18.55-.33.82-.43s.51-.16.71-.16c.24,0,.44.07.61.2.17.14.25.32.25.54h.02l.2-.59h.84l-1.31,3.64c-.07.21-.13.41-.19.6Zm.28-3.21c.03-.11.04-.2.04-.28,0-.07,0-.15-.03-.23s-.06-.16-.11-.23c-.05-.07-.12-.13-.21-.19-.09-.05-.2-.08-.35-.08-.26,0-.52.07-.77.22s-.49.34-.71.58c-.22.24-.42.51-.61.82-.18.31-.34.62-.47.94-.13.32-.23.62-.31.92-.07.3-.11.56-.11.78,0,.26.05.46.15.62s.27.24.5.24.47-.07.71-.22c.24-.14.46-.32.66-.52s.37-.4.52-.6c.14-.2.24-.36.28-.47l.64-1.76c.1-.26.16-.44.19-.55Z"/>
    <path d="m97.6,32.66l-.16-.17,2.48-2.48-2.48-2.48.16-.17,2.5,2.5,2.5-2.5.16.17-2.48,2.48,2.48,2.48-.16.17-2.5-2.5-2.5,2.5Z"/>
    <path d="m112.09,27.42c.17-.44.37-.86.62-1.25.24-.39.51-.73.79-1.03.28-.29.58-.52.88-.7.3-.17.6-.26.89-.26.39,0,.69.09.91.26.21.18.32.43.32.77,0,.2-.04.37-.12.5-.08.14-.23.2-.44.2-.14,0-.25-.03-.33-.1s-.13-.16-.13-.28c0-.08.02-.15.05-.22s.08-.13.12-.19c.04-.06.08-.12.12-.19.04-.07.05-.15.05-.23s-.04-.17-.11-.25c-.07-.08-.21-.11-.42-.11-.16,0-.32.03-.47.1-.15.07-.3.19-.46.35s-.31.39-.46.68c-.16.28-.32.65-.49,1.09l-.84,2.14h1.52l-.05.17h-1.55l-.86,2.35c-.12.33-.26.68-.42,1.06-.16.38-.33.76-.52,1.13-.18.37-.38.73-.59,1.07-.21.34-.43.64-.66.9-.23.26-.46.47-.7.62-.24.16-.48.23-.72.23-.2,0-.36-.03-.49-.08-.13-.05-.23-.12-.31-.2s-.13-.17-.16-.27c-.03-.1-.05-.19-.05-.28,0-.2.05-.34.14-.43.09-.09.21-.13.37-.13.14,0,.24.03.31.1s.1.14.1.24c0,.09-.02.16-.05.2-.03.05-.07.09-.1.13-.04.04-.07.08-.1.13-.03.04-.05.1-.05.17,0,.09.04.15.11.19s.17.06.28.06c.3,0,.58-.17.83-.5s.48-.78.69-1.34l1.96-5.36h-1.56l.05-.17h1.58l.5-1.3Z"/>
    <path d="m117.63,27.31l.03-.11h2.48l-.03.11h-.84l-1.96,5.47h1.87c.21,0,.4-.06.58-.18s.34-.26.48-.42c.14-.16.26-.33.36-.49.1-.16.17-.28.22-.36h.11l-.56,1.57h-4.65l.03-.11h.82l1.96-5.47h-.92Z"/>
    <path d="m127.66,28.08c-.66,1.42-1,2.97-1,4.67,0,.46.03.89.1,1.3.06.41.14.78.22,1.09s.16.57.23.77c.07.2.12.31.13.34l-.24.12c-.11-.33-.21-.64-.3-.95-.09-.3-.16-.61-.22-.91-.06-.3-.1-.6-.13-.91-.03-.31-.04-.63-.04-.97,0-.62.06-1.3.19-2.03s.34-1.47.65-2.21c.3-.74.71-1.48,1.22-2.2.51-.72,1.15-1.38,1.92-1.98l.19.16c-1.3,1.06-2.28,2.29-2.94,3.71Z"/>
    <path d="m130.96,28.66c.09-.16.21-.32.35-.47.14-.16.32-.29.52-.41s.43-.18.69-.18c.21,0,.38.04.52.11s.25.17.34.28.15.22.2.34c.04.12.08.22.1.31.06-.07.14-.17.25-.29.11-.12.24-.23.38-.34.15-.11.31-.2.5-.28.18-.08.38-.12.58-.12.36,0,.62.1.79.29.16.2.25.41.25.65,0,.16-.05.31-.14.45-.1.14-.26.21-.49.21-.1,0-.19-.02-.26-.07-.07-.04-.11-.12-.11-.23,0-.09.02-.16.05-.22.04-.06.07-.12.11-.17.04-.05.08-.11.11-.17.04-.06.05-.14.05-.23,0-.13-.04-.22-.13-.27-.09-.05-.18-.08-.29-.08-.21,0-.41.09-.59.26-.19.18-.36.4-.53.67s-.31.57-.44.9c-.13.33-.25.65-.34.97-.1.31-.17.6-.22.85-.05.26-.08.44-.08.56,0,.27.05.49.16.66.1.17.26.25.48.25.2,0,.38-.05.55-.15.16-.1.31-.22.44-.35.13-.14.24-.28.33-.43.09-.15.17-.28.22-.37l.16.07c-.04.07-.11.19-.2.34-.09.16-.21.31-.36.47-.15.16-.32.29-.52.41-.2.12-.43.17-.68.17-.19,0-.36-.04-.49-.11-.14-.07-.25-.16-.34-.26s-.16-.21-.2-.33c-.05-.12-.08-.22-.11-.31-.11.12-.23.24-.35.36s-.25.23-.4.32c-.14.1-.3.17-.47.23-.17.06-.36.09-.58.09-.2,0-.37-.03-.5-.08s-.25-.12-.34-.2-.15-.18-.19-.29c-.04-.11-.06-.21-.06-.32,0-.24.06-.41.19-.52s.28-.16.44-.16c.09,0,.17.02.24.07s.11.13.11.24c0,.08-.02.15-.05.2-.03.05-.07.1-.11.15s-.08.1-.11.16-.05.14-.05.25c0,.14.05.23.14.28s.23.07.4.07c.1,0,.2-.02.31-.05.11-.04.23-.11.35-.22.12-.11.25-.26.38-.46.13-.2.27-.47.41-.8.07-.17.15-.38.24-.62s.17-.5.25-.76c.08-.26.15-.51.2-.76.05-.24.08-.45.08-.61,0-.23-.05-.43-.15-.59-.1-.16-.27-.25-.51-.25-.19,0-.37.05-.53.16s-.31.23-.44.37-.24.29-.33.44-.15.27-.19.35l-.17-.07c.03-.07.09-.19.19-.35Z"/>
    <path d="m138.61,32.51c.66-1.41.99-2.97.99-4.66,0-.46-.03-.9-.1-1.31s-.14-.78-.22-1.09-.16-.57-.23-.77c-.07-.2-.12-.31-.13-.34l.24-.12c.11.33.21.64.3.95.09.3.16.61.22.91.06.3.1.6.13.91.03.31.04.63.04.98,0,.62-.06,1.3-.19,2.03s-.34,1.47-.65,2.21-.72,1.48-1.22,2.2-1.15,1.37-1.91,1.97l-.19-.16c1.3-1.06,2.27-2.29,2.93-3.7Z"/>
    <path d="m27.91,48.49v-5.82h1.58v2.27h2.09v-2.27h1.58v5.82h-1.58v-2.27h-2.09v2.27h-1.58Z"/>
    <path d="m36.09,48.56c-.51,0-.95-.07-1.32-.22s-.67-.38-.88-.69-.31-.71-.32-1.2h1.5c.01.18.06.33.13.45s.19.21.34.28.32.09.52.09c.17,0,.31-.02.43-.06s.2-.1.26-.17.09-.16.09-.26c0-.09-.03-.17-.08-.23s-.15-.13-.28-.18-.3-.1-.52-.15l-.59-.12c-.51-.11-.92-.3-1.21-.56s-.44-.62-.44-1.08c0-.37.1-.69.3-.97s.48-.49.83-.65.76-.23,1.22-.23.88.08,1.22.24.61.38.79.66.28.62.28,1h-1.52c-.01-.19-.08-.34-.21-.44s-.32-.16-.57-.16c-.16,0-.29.02-.4.06s-.18.09-.23.16-.07.14-.07.23c0,.09.03.17.08.24s.14.13.25.18.27.1.45.13l.48.1c.32.07.6.16.83.27s.42.24.57.39.26.32.32.51.1.39.1.61c0,.38-.09.71-.28.97s-.46.47-.81.61-.77.21-1.27.21Z"/>
    <path d="m40.15,48.49h-1.7l1.92-5.82h2.16l1.92,5.82h-1.7l-1.27-4.22h-.05l-1.27,4.22Zm-.31-2.3h3.2v1.18h-3.2v-1.18Z"/>
    <path d="m46.34,45.76c0-.44.04-.89.13-1.36s.2-.92.36-1.34.33-.79.52-1.1h1.43c-.17.4-.32.81-.45,1.25s-.22.87-.29,1.3-.1.85-.1,1.25c0,.34.03.68.08,1.01s.14.7.27,1.09.29.85.49,1.36h-1.43c-.33-.53-.58-1.1-.75-1.68s-.26-1.18-.26-1.78Z"/>
    <path d="m49.13,48.49v-5.82h1.58v2.27h2.09v-2.27h1.58v5.82h-1.58v-2.27h-2.09v2.27h-1.58Z"/>
    <path d="m54.97,48.49v-4.37h1.57v4.37h-1.57Zm.78-4.81c-.21,0-.4-.07-.55-.21s-.23-.31-.23-.51.08-.37.23-.51.33-.21.55-.21.4.07.55.21.23.31.23.51-.08.37-.23.51-.33.21-.55.21Z"/>
    <path d="m59.23,50.22c-.66,0-1.17-.14-1.54-.41s-.57-.62-.6-1.04h1.51c.02.09.05.17.11.23s.14.1.23.12.2.04.32.04c.2,0,.37-.05.5-.15s.2-.28.2-.53v-.74h-.05c-.05.15-.14.27-.26.38s-.26.18-.42.24-.35.08-.54.08c-.31,0-.6-.07-.86-.22s-.47-.37-.63-.69-.24-.72-.24-1.22c0-.53.08-.96.25-1.29s.38-.57.64-.72.54-.23.82-.23c.22,0,.41.04.57.11s.3.17.42.3.2.26.26.41h.03v-.77h1.55v4.36c0,.37-.1.68-.29.94s-.46.46-.8.59-.75.2-1.21.2Zm.05-2.9c.22,0,.39-.09.51-.27s.19-.43.19-.74c0-.22-.03-.4-.08-.56s-.14-.27-.24-.36-.23-.12-.37-.12-.27.04-.37.12-.18.2-.23.36-.08.34-.08.56.03.4.08.55.13.27.23.34.22.12.37.12Z"/>
    <path d="m63.71,46.04v2.45h-1.57v-5.82h1.51v2.29h.05c.1-.28.26-.5.49-.65s.51-.24.83-.24.57.07.8.21.4.33.53.58.19.53.19.85v2.78h-1.57v-2.45c0-.22-.05-.39-.16-.51s-.26-.19-.46-.19c-.13,0-.24.03-.33.08s-.17.14-.22.24-.08.23-.08.37Z"/>
    <path d="m69.24,48.57c-.47,0-.87-.09-1.21-.27s-.6-.44-.78-.77-.27-.74-.27-1.21.09-.84.27-1.18.44-.6.77-.79.72-.28,1.17-.28c.33,0,.63.05.9.15s.5.25.69.45.34.43.44.71.15.59.15.94v.36h-3.9v-.86h3.16l-.73.18c0-.18-.03-.33-.08-.45s-.13-.21-.23-.28-.23-.1-.38-.1-.28.03-.38.1-.18.16-.23.28-.08.27-.08.45v.62c0,.17.03.32.09.45s.15.23.26.3.24.11.39.11c.11,0,.2-.02.29-.04s.16-.07.22-.13.11-.13.14-.21h1.43c-.05.3-.16.56-.35.79s-.42.39-.72.52-.65.18-1.05.18Z"/>
    <path d="m75.79,45.55h-1.44c-.01-.13-.07-.24-.19-.31s-.25-.12-.4-.12c-.14,0-.25.02-.34.07s-.14.12-.14.21c0,.06.03.13.08.18s.17.1.33.13l.89.16c.45.08.78.21,1,.41s.33.45.33.77-.09.58-.27.81-.43.4-.75.53-.68.19-1.08.19c-.67,0-1.19-.14-1.56-.41s-.59-.63-.63-1.08h1.55c.02.14.09.24.21.32s.26.11.44.11c.15,0,.27-.02.36-.07s.14-.12.14-.21c0-.15-.17-.26-.5-.32l-.77-.14c-.44-.08-.77-.23-1-.44s-.33-.49-.33-.84c0-.3.08-.56.24-.77s.39-.37.7-.48.66-.17,1.08-.17c.63,0,1.13.13,1.49.39s.55.62.57,1.08Z"/>
    <path d="m78.93,44.12v1.14h-2.88v-1.14h2.88Zm-2.32-1.04h1.57v4c0,.09.02.16.07.21s.12.07.23.07c.05,0,.1,0,.17-.02s.11-.02.14-.03l.23,1.11c-.18.05-.34.08-.49.11s-.29.03-.43.03c-.49,0-.86-.11-1.11-.34s-.37-.55-.37-.99v-4.15Z"/>
    <path d="m83.13,48.56c-.51,0-.95-.07-1.32-.22s-.67-.38-.88-.69-.31-.71-.32-1.2h1.5c.01.18.06.33.13.45s.19.21.34.28.32.09.52.09c.17,0,.31-.02.43-.06s.2-.1.26-.17.09-.16.09-.26c0-.09-.03-.17-.08-.23s-.15-.13-.28-.18-.3-.1-.52-.15l-.59-.12c-.51-.11-.92-.3-1.21-.56s-.44-.62-.44-1.08c0-.37.1-.69.3-.97s.48-.49.83-.65.76-.23,1.22-.23.88.08,1.22.24.61.38.79.66.28.62.28,1h-1.52c-.01-.19-.08-.34-.21-.44s-.32-.16-.57-.16c-.16,0-.29.02-.4.06s-.18.09-.23.16-.07.14-.07.23c0,.09.03.17.08.24s.14.13.25.18.27.1.45.13l.48.1c.32.07.6.16.83.27s.42.24.57.39.26.32.32.51.1.39.1.61c0,.38-.09.71-.28.97s-.46.47-.81.61-.77.21-1.27.21Z"/>
    <path d="m85.93,48.49v-4.37h1.57v4.37h-1.57Zm.78-4.81c-.21,0-.4-.07-.55-.21s-.23-.31-.23-.51.08-.37.23-.51.33-.21.55-.21.4.07.55.21.23.31.23.51-.08.37-.23.51-.33.21-.55.21Z"/>
    <path d="m89.68,46.04v2.45h-1.57v-4.37h1.55v.84h.03c.1-.28.25-.5.47-.65s.49-.24.81-.24.58.07.81.21.4.33.53.58.19.53.19.85v2.78h-1.57v-2.45c0-.22-.05-.39-.16-.51s-.26-.19-.46-.19c-.13,0-.24.03-.33.08s-.17.14-.22.24-.08.23-.08.37Z"/>
    <path d="m95.2,50.22c-.66,0-1.17-.14-1.54-.41s-.57-.62-.6-1.04h1.51c.02.09.05.17.11.23s.14.1.23.12.2.04.32.04c.2,0,.37-.05.5-.15s.2-.28.2-.53v-.74h-.05c-.05.15-.14.27-.26.38s-.26.18-.42.24-.35.08-.54.08c-.31,0-.6-.07-.86-.22s-.47-.37-.63-.69-.24-.72-.24-1.22c0-.53.08-.96.25-1.29s.38-.57.64-.72.54-.23.82-.23c.22,0,.41.04.57.11s.3.17.42.3.2.26.26.41h.03v-.77h1.55v4.36c0,.37-.1.68-.29.94s-.46.46-.8.59-.75.2-1.21.2Zm.05-2.9c.22,0,.39-.09.51-.27s.19-.43.19-.74c0-.22-.03-.4-.08-.56s-.14-.27-.24-.36-.23-.12-.37-.12-.27.04-.37.12-.18.2-.23.36-.08.34-.08.56.03.4.08.55.13.27.23.34.22.12.37.12Z"/>
    <path d="m99.68,42.67v5.82h-1.57v-5.82h1.57Z"/>
    <path d="m102.38,48.57c-.47,0-.87-.09-1.21-.27s-.6-.44-.78-.77-.27-.74-.27-1.21.09-.84.27-1.18.44-.6.77-.79.72-.28,1.17-.28c.33,0,.63.05.9.15s.5.25.69.45.34.43.44.71.15.59.15.94v.36h-3.9v-.86h3.16l-.73.18c0-.18-.03-.33-.08-.45s-.13-.21-.23-.28-.23-.1-.38-.1-.28.03-.38.1-.18.16-.23.28-.08.27-.08.45v.62c0,.17.03.32.09.45s.15.23.26.3.24.11.39.11c.11,0,.2-.02.29-.04s.16-.07.22-.13.11-.13.14-.21h1.43c-.05.3-.16.56-.35.79s-.42.39-.72.52-.65.18-1.05.18Z"/>
    <path d="m107.84,48.49h-1.7l1.92-5.82h2.16l1.92,5.82h-1.7l-1.27-4.22h-.05l-1.27,4.22Zm-.31-2.3h3.2v1.18h-3.2v-1.18Z"/>
    <path d="m114.28,50.22c-.66,0-1.17-.14-1.54-.41s-.57-.62-.6-1.04h1.51c.02.09.05.17.11.23s.14.1.23.12.2.04.32.04c.2,0,.37-.05.5-.15s.2-.28.2-.53v-.74h-.05c-.05.15-.14.27-.26.38s-.26.18-.42.24-.35.08-.54.08c-.31,0-.6-.07-.86-.22s-.47-.37-.63-.69-.24-.72-.24-1.22c0-.53.08-.96.25-1.29s.38-.57.64-.72.54-.23.82-.23c.22,0,.41.04.57.11s.3.17.42.3.2.26.26.41h.03v-.77h1.55v4.36c0,.37-.1.68-.29.94s-.46.46-.8.59-.75.2-1.21.2Zm.05-2.9c.22,0,.39-.09.51-.27s.19-.43.19-.74c0-.22-.03-.4-.08-.56s-.14-.27-.24-.36-.23-.12-.37-.12-.27.04-.37.12-.18.2-.23.36-.08.34-.08.56.03.4.08.55.13.27.23.34.22.12.37.12Z"/>
    <path d="m119.28,48.57c-.47,0-.87-.09-1.21-.27s-.6-.44-.78-.77-.27-.74-.27-1.21.09-.84.27-1.18.44-.6.77-.79.72-.28,1.17-.28c.33,0,.63.05.9.15s.5.25.69.45.34.43.44.71.15.59.15.94v.36h-3.9v-.86h3.16l-.73.18c0-.18-.03-.33-.08-.45s-.13-.21-.23-.28-.23-.1-.38-.1-.28.03-.38.1-.18.16-.23.28-.08.27-.08.45v.62c0,.17.03.32.09.45s.15.23.26.3.24.11.39.11c.11,0,.2-.02.29-.04s.16-.07.22-.13.11-.13.14-.21h1.43c-.05.3-.16.56-.35.79s-.42.39-.72.52-.65.18-1.05.18Z"/>
    <path d="m123.42,46.04v2.45h-1.57v-4.37h1.55v.84h.03c.1-.28.25-.5.47-.65s.49-.24.81-.24.58.07.81.21.4.33.53.58.19.53.19.85v2.78h-1.57v-2.45c0-.22-.05-.39-.16-.51s-.26-.19-.46-.19c-.13,0-.24.03-.33.08s-.17.14-.22.24-.08.23-.08.37Z"/>
    <path d="m129.46,44.12v1.14h-2.88v-1.14h2.88Zm-2.32-1.04h1.57v4c0,.09.02.16.07.21s.12.07.23.07c.05,0,.1,0,.17-.02.06-.01.11-.02.14-.03l.23,1.11c-.18.05-.34.08-.49.11-.15.02-.29.03-.43.03-.49,0-.86-.11-1.11-.34s-.37-.55-.37-.99v-4.15Z"/>
    <path d="m129.67,49.58c.21-.51.37-.96.49-1.36s.21-.76.26-1.09.08-.67.08-1.01c0-.4-.03-.82-.1-1.25s-.16-.87-.29-1.3c-.12-.44-.27-.85-.45-1.25h1.43c.2.31.37.67.52,1.1.15.43.27.88.36,1.34s.13.92.13,1.36c0,.6-.09,1.19-.26,1.78-.17.59-.42,1.15-.75,1.68h-1.43Z"/>
    <path d="m29.63,57.08c.13-.46.31-.9.54-1.3s.5-.75.79-1.05c.3-.3.62-.54.96-.71.34-.17.69-.26,1.03-.26.21,0,.38.03.53.09.14.06.26.14.36.23.1.09.17.19.21.3s.07.21.07.31c0,.14-.04.27-.11.41-.08.14-.22.2-.43.2-.18,0-.3-.03-.38-.1-.08-.07-.11-.15-.11-.23,0-.08.02-.15.05-.21.03-.06.07-.12.1-.17.04-.05.07-.1.1-.15.03-.05.04-.1.04-.17,0-.14-.05-.23-.14-.27-.09-.04-.2-.07-.32-.07-.36,0-.68.11-.95.34-.27.22-.5.49-.7.8s-.35.63-.47.95c-.12.32-.21.59-.26.8l-.25.91h1.48l-.05.17h-1.48l-1.07,4.07c-.14.51-.31,1.01-.52,1.49-.21.48-.45.9-.71,1.27-.27.37-.56.66-.88.88-.32.22-.65.33-1,.33-.1,0-.21-.01-.33-.04-.12-.02-.22-.07-.32-.13s-.18-.14-.24-.24c-.06-.1-.1-.23-.1-.39s.05-.28.14-.4c.09-.11.23-.17.43-.17.1,0,.19.02.25.06.06.04.1.12.1.25,0,.09-.02.18-.06.27-.04.09-.06.19-.06.31,0,.1.03.18.1.23.07.05.15.07.26.07.34,0,.66-.23.97-.69.31-.46.6-1.2.88-2.23l1.32-4.96h-1.14l.05-.17h1.14l.18-.66Z"/>
    <path d="m32.7,62.78l1.96-5.47h-.91l.03-.11h2.47l-.03.11h-.83l-.94,2.62h2.58l.94-2.62h-.92l.03-.11h2.46l-.03.11h-.82l-1.97,5.47h.92l-.03.11h-2.48l.03-.11h.83l.99-2.74h-2.58l-.99,2.74h.92l-.03.11h-2.46l.03-.11h.82Z"/>
    <path d="m39.77,61.32c-.03.08-.05.16-.07.23-.02.07-.03.15-.03.24,0,.18.04.34.13.48.08.14.2.25.34.34.14.09.29.16.46.21.17.05.34.07.52.07.23,0,.45-.03.63-.1.19-.07.34-.16.47-.28s.23-.26.29-.42c.07-.16.1-.34.1-.53s-.04-.37-.13-.52c-.09-.15-.21-.3-.36-.44l-.57-.52c-.26-.23-.46-.46-.6-.68-.15-.23-.22-.48-.22-.77,0-.22.05-.43.15-.62.1-.19.24-.35.41-.48.17-.13.37-.24.59-.31s.45-.11.68-.11c.17,0,.31.01.44.04s.24.06.34.1c.1.04.2.07.29.1.09.03.18.04.27.04.08,0,.14-.02.18-.06.04-.04.08-.09.1-.15l.12.02-.55,1.53h-.1s.02-.1.04-.18c.02-.08.03-.17.03-.29,0-.19-.03-.35-.1-.49-.06-.13-.15-.24-.26-.32-.11-.08-.23-.14-.37-.18-.14-.04-.29-.06-.44-.06-.19,0-.37.03-.53.08-.16.05-.3.13-.41.22-.11.09-.2.2-.27.33s-.1.27-.1.42c0,.23.06.43.19.6s.27.32.43.47l.71.64c.19.17.36.36.49.58.14.21.2.45.2.71,0,.2-.05.41-.14.62s-.23.4-.42.56c-.18.17-.41.31-.69.41-.28.11-.6.16-.97.16-.19,0-.36-.02-.51-.05-.15-.03-.28-.07-.4-.11-.12-.04-.23-.08-.34-.11-.1-.03-.21-.05-.31-.05-.07,0-.13.03-.19.08-.06.05-.09.11-.1.17l-.11-.02.56-1.58h.1Z"/>
    <path d="m44.85,62.78l4.02-5.71h.18l.14,5.71h.86l-.03.11h-2.46l.03-.11h.87l-.05-2.24h-1.84l-1.57,2.24h.81l-.03.11h-1.65l.03-.11h.68Zm3.52-4.78l-1.71,2.43h1.76l-.03-2.43h-.02Z"/>
    <path d="m56.81,58.08c-.66,1.42-1,2.97-1,4.67,0,.46.03.89.1,1.3.06.41.14.78.22,1.09s.16.57.23.77c.07.2.12.31.13.34l-.24.12c-.11-.33-.21-.64-.3-.95-.09-.3-.16-.61-.22-.91-.06-.3-.1-.6-.13-.91-.03-.31-.04-.63-.04-.97,0-.62.06-1.3.19-2.03s.34-1.47.65-2.21c.3-.74.71-1.48,1.22-2.2.51-.72,1.15-1.38,1.92-1.98l.19.16c-1.3,1.06-2.28,2.29-2.94,3.71Z"/>
    <path d="m60.1,58.66c.09-.16.21-.32.35-.47.14-.16.32-.29.52-.41s.43-.18.69-.18c.21,0,.38.04.52.11.14.08.25.17.34.28s.15.22.2.34c.04.12.08.22.1.31.06-.07.14-.17.25-.29.11-.12.24-.23.38-.34s.31-.2.5-.28c.18-.08.38-.12.58-.12.36,0,.62.1.79.29.16.2.25.41.25.65,0,.16-.05.31-.14.45-.1.14-.26.21-.49.21-.1,0-.19-.02-.26-.07-.07-.04-.11-.12-.11-.23,0-.09.02-.16.05-.22.04-.06.07-.12.11-.17.04-.05.08-.11.11-.17.04-.06.05-.14.05-.23,0-.13-.04-.22-.13-.27-.09-.05-.18-.08-.29-.08-.21,0-.41.09-.59.26-.19.18-.36.4-.53.67-.16.27-.31.57-.44.9-.13.33-.25.65-.34.97-.1.31-.17.6-.22.85-.05.26-.08.44-.08.56,0,.27.05.49.16.66s.26.25.48.25c.2,0,.38-.05.55-.15.16-.1.31-.22.44-.35.13-.14.24-.28.33-.43.09-.15.17-.28.22-.37l.16.07c-.04.07-.11.19-.2.34-.09.16-.21.31-.36.47-.15.16-.32.29-.52.41-.2.12-.43.17-.68.17-.19,0-.36-.04-.49-.11-.14-.07-.25-.16-.34-.26s-.16-.21-.2-.33c-.05-.12-.08-.22-.11-.31-.11.12-.23.24-.35.36-.12.12-.25.23-.4.32-.14.1-.3.17-.47.23-.17.06-.36.09-.58.09-.2,0-.37-.03-.5-.08-.14-.05-.25-.12-.34-.2s-.15-.18-.19-.29c-.04-.11-.06-.21-.06-.32,0-.24.06-.41.19-.52s.28-.16.44-.16c.09,0,.17.02.24.07.07.05.11.13.11.24,0,.08-.02.15-.05.2-.03.05-.07.1-.11.15s-.08.1-.11.16c-.03.06-.05.14-.05.25,0,.14.05.23.14.28s.23.07.4.07c.1,0,.2-.02.31-.05.11-.04.23-.11.35-.22.12-.11.25-.26.38-.46.13-.2.27-.47.41-.8.07-.17.15-.38.24-.62s.17-.5.25-.76c.08-.26.15-.51.2-.76.05-.24.08-.45.08-.61,0-.23-.05-.43-.15-.59-.1-.16-.27-.25-.51-.25-.19,0-.37.05-.53.16s-.31.23-.44.37-.24.29-.33.44-.15.27-.19.35l-.17-.07c.03-.07.09-.19.19-.35Z"/>
    <path d="m67.76,62.51c.66-1.41.99-2.97.99-4.66,0-.46-.03-.9-.1-1.31-.06-.41-.14-.78-.22-1.09s-.16-.57-.23-.77c-.07-.2-.12-.31-.13-.34l.24-.12c.11.33.21.64.3.95.09.3.16.61.22.91.06.3.1.6.13.91.03.31.04.63.04.98,0,.62-.06,1.3-.19,2.03s-.34,1.47-.65,2.21c-.31.75-.72,1.48-1.22,2.2s-1.15,1.37-1.91,1.97l-.19-.16c1.3-1.06,2.27-2.29,2.93-3.7Z"/>
    <path d="m75.5,57.9v-.85h5.5v.85h-5.5Zm0,2.39v-.85h5.5v.85h-5.5Z"/>
    <path d="m86.93,57.91l.05-.17h1.9l-.46,1.37h.02c.1-.14.22-.29.37-.46s.31-.32.5-.47.38-.27.59-.37.42-.15.62-.15c.3,0,.54.09.7.27.16.18.25.4.25.67,0,.14-.02.3-.06.46h.02c.08-.12.19-.26.32-.42.14-.16.29-.31.46-.46.17-.14.36-.27.56-.37.2-.1.4-.15.6-.15.34,0,.6.09.8.27.2.18.29.4.29.67,0,.14-.02.27-.07.4-.04.13-.1.29-.16.47l-.78,2.22c-.05.14-.09.28-.13.43s-.06.29-.06.41c0,.07.02.15.06.22s.12.11.25.11c.14,0,.28-.04.4-.12s.23-.18.32-.29c.1-.11.18-.23.25-.35.07-.12.13-.23.18-.32l.13.06c-.04.08-.1.19-.17.32-.07.13-.17.26-.28.39-.12.13-.26.24-.43.33s-.37.14-.6.14c-.26,0-.47-.06-.65-.17-.18-.11-.26-.3-.26-.55,0-.1,0-.2.02-.3s.06-.22.12-.38l1.01-2.87c.06-.19.1-.35.1-.48,0-.14-.03-.24-.1-.32-.06-.08-.19-.12-.37-.12-.17,0-.36.07-.57.2-.21.14-.42.32-.64.55-.21.23-.41.5-.61.81-.19.31-.35.63-.48.98l-.9,2.51h-.84l1.4-3.88c.11-.34.17-.57.17-.7,0-.14-.03-.26-.08-.35-.06-.09-.16-.13-.3-.13s-.32.05-.53.16-.43.27-.65.48c-.22.21-.44.48-.65.79-.21.32-.39.69-.55,1.11l-.9,2.51h-.83l1.73-4.98h-1.09Z"/>
    <path d="m96.92,57.91l.05-.17h1.91l-1.42,4.07c-.04.12-.08.24-.12.37-.04.12-.06.24-.06.35,0,.1.03.18.08.25.06.07.14.1.25.1.13,0,.25-.04.38-.13.12-.09.24-.19.34-.31.1-.12.19-.23.26-.35.07-.12.12-.22.16-.29l.14.06c-.03.06-.08.16-.15.29-.07.13-.16.26-.28.4-.12.13-.27.25-.44.34-.18.1-.38.14-.62.14-.26,0-.47-.05-.63-.16-.16-.11-.23-.29-.23-.55,0-.14.02-.29.07-.45.05-.16.1-.31.14-.45l1.24-3.52h-1.07Zm1.97-3.4c.11-.11.24-.16.4-.16s.29.05.4.16c.11.11.16.24.16.4s-.05.29-.16.4-.24.16-.4.16-.29-.05-.4-.16-.16-.24-.16-.4.05-.29.16-.4Z"/>
    <path d="m101.21,57.91l.05-.17h1.9l-.49,1.48h.02c.78-1.03,1.51-1.55,2.2-1.55.34,0,.6.09.8.27.2.18.29.4.29.67,0,.14-.02.27-.07.4-.04.13-.1.29-.16.47l-.78,2.22c-.05.14-.09.27-.13.4-.04.13-.06.26-.06.39,0,.1.02.18.06.26s.12.12.25.12c.14,0,.28-.04.4-.12s.23-.18.33-.29c.1-.11.19-.23.26-.35.07-.12.13-.23.17-.32l.13.06c-.04.08-.1.19-.17.32-.07.13-.17.26-.28.39-.12.13-.26.24-.43.33s-.37.14-.6.14c-.26,0-.47-.06-.65-.17-.18-.11-.26-.3-.26-.55,0-.1.01-.21.04-.32.03-.11.06-.23.1-.36l1.01-2.87c.06-.19.1-.35.1-.48,0-.1-.03-.2-.1-.3-.07-.1-.19-.14-.37-.14s-.38.07-.61.2-.46.31-.7.54c-.23.23-.45.5-.65.8-.2.31-.37.64-.5,1l-.9,2.51h-.83l1.73-4.98h-1.09Z"/>
    <path d="m109.77,66.16c-.17-.04-.34-.11-.5-.2-.16-.1-.3-.23-.41-.4-.11-.17-.17-.4-.17-.68,0-.1,0-.21.03-.34s.04-.26.07-.39c.03-.13.06-.26.09-.37.03-.12.06-.21.08-.28l.34-1.27c.02-.06.04-.16.07-.29.03-.13.05-.27.05-.4,0-.22-.04-.41-.13-.55-.09-.14-.2-.26-.33-.35-.13-.09-.27-.15-.41-.2s-.28-.08-.4-.1v-.06c.43-.06.76-.15,1.01-.26.25-.11.45-.25.59-.41.15-.16.26-.34.33-.55.07-.2.14-.43.2-.67l.42-1.57c.12-.45.24-.83.37-1.14s.29-.57.49-.76c.2-.2.44-.34.73-.43.29-.09.66-.13,1.1-.13l-.06.22c-.38,0-.7.04-.95.11s-.46.2-.64.38-.32.4-.43.68c-.12.28-.23.61-.33,1.01l-.26.94-.17.73c-.09.32-.18.59-.29.82-.1.22-.23.41-.39.56-.16.15-.35.26-.57.34-.22.08-.49.14-.8.17.1,0,.21.02.34.05s.26.09.39.19c.19.15.32.32.37.51.06.19.08.34.08.45,0,.15-.02.31-.06.49-.04.17-.08.32-.12.45l-.38,1.42s-.02.1-.04.17c-.02.08-.04.16-.05.25-.02.09-.03.19-.05.29-.02.1-.02.2-.02.29,0,.37.12.65.35.84s.55.3.96.32l-.06.22c-.12-.02-.27-.04-.44-.08Z"/>
    <path d="m116.96,57.42c.17-.44.37-.86.62-1.25.24-.39.51-.73.79-1.03.28-.29.58-.52.88-.7.3-.17.6-.26.89-.26.39,0,.69.09.91.26.21.18.32.43.32.77,0,.2-.04.37-.12.5-.08.14-.23.2-.44.2-.14,0-.25-.03-.33-.1s-.13-.16-.13-.28c0-.08.02-.15.05-.22s.08-.13.12-.19c.04-.06.08-.12.12-.19.04-.07.05-.15.05-.23s-.04-.17-.11-.25c-.07-.08-.21-.11-.42-.11-.16,0-.32.03-.47.1-.15.07-.3.19-.46.35s-.31.39-.46.68c-.16.28-.32.65-.49,1.09l-.84,2.14h1.52l-.05.17h-1.55l-.86,2.35c-.12.33-.26.68-.42,1.06-.16.38-.33.76-.52,1.13-.18.37-.38.73-.59,1.07-.21.34-.43.64-.66.9-.23.26-.46.47-.7.62-.24.16-.48.23-.72.23-.2,0-.36-.03-.49-.08-.13-.05-.23-.12-.31-.2s-.13-.17-.16-.27c-.03-.1-.05-.19-.05-.28,0-.2.05-.34.14-.43.09-.09.21-.13.37-.13.14,0,.24.03.31.1s.1.14.1.24c0,.09-.02.16-.05.2-.03.05-.07.09-.1.13-.04.04-.07.08-.1.13-.03.04-.05.1-.05.17,0,.09.04.15.11.19s.17.06.28.06c.3,0,.58-.17.83-.5s.48-.78.69-1.34l1.96-5.36h-1.56l.05-.17h1.58l.5-1.3Z"/>
    <path d="m122.51,57.31l.03-.11h2.48l-.03.11h-.84l-1.96,5.47h1.87c.21,0,.4-.06.58-.18s.34-.26.48-.42c.14-.16.26-.33.36-.49.1-.16.17-.28.22-.36h.11l-.56,1.57h-4.65l.03-.11h.82l1.96-5.47h-.92Z"/>
    <path d="m128.76,58.08c-.66,1.42-1,2.97-1,4.67,0,.46.03.89.1,1.3.06.41.14.78.22,1.09s.16.57.23.77c.07.2.12.31.13.34l-.24.12c-.11-.33-.21-.64-.3-.95-.09-.3-.16-.61-.22-.91-.06-.3-.1-.6-.13-.91-.03-.31-.04-.63-.04-.97,0-.62.06-1.3.19-2.03s.34-1.47.65-2.21c.3-.74.71-1.48,1.22-2.2.51-.72,1.15-1.38,1.92-1.98l.19.16c-1.3,1.06-2.28,2.29-2.94,3.71Z"/>
    <path d="m132.05,58.66c.09-.16.21-.32.35-.47.14-.16.32-.29.52-.41s.43-.18.69-.18c.21,0,.38.04.52.11.14.08.25.17.34.28s.15.22.2.34c.04.12.08.22.1.31.06-.07.14-.17.25-.29s.24-.23.38-.34c.15-.11.31-.2.5-.28.18-.08.38-.12.58-.12.36,0,.62.1.79.29.16.2.25.41.25.65,0,.16-.05.31-.14.45-.1.14-.26.21-.49.21-.1,0-.19-.02-.26-.07-.07-.04-.11-.12-.11-.23,0-.09.02-.16.05-.22.04-.06.07-.12.11-.17.04-.05.08-.11.11-.17.04-.06.05-.14.05-.23,0-.13-.04-.22-.13-.27-.09-.05-.18-.08-.29-.08-.21,0-.41.09-.59.26-.19.18-.36.4-.53.67-.16.27-.31.57-.44.9-.13.33-.25.65-.34.97s-.17.6-.22.85c-.05.26-.08.44-.08.56,0,.27.05.49.16.66.1.17.26.25.48.25.2,0,.38-.05.55-.15.16-.1.31-.22.44-.35.13-.14.24-.28.33-.43.09-.15.17-.28.22-.37l.16.07c-.04.07-.11.19-.2.34-.09.16-.21.31-.36.47-.15.16-.32.29-.52.41-.2.12-.43.17-.68.17-.19,0-.36-.04-.49-.11-.14-.07-.25-.16-.34-.26s-.16-.21-.2-.33c-.05-.12-.08-.22-.11-.31-.11.12-.23.24-.35.36-.12.12-.25.23-.4.32-.14.1-.3.17-.47.23-.17.06-.36.09-.58.09-.2,0-.37-.03-.5-.08-.14-.05-.25-.12-.34-.2s-.15-.18-.19-.29c-.04-.11-.06-.21-.06-.32,0-.24.06-.41.19-.52s.28-.16.44-.16c.09,0,.17.02.24.07.07.05.11.13.11.24,0,.08-.02.15-.05.2-.03.05-.07.1-.11.15s-.08.1-.11.16c-.03.06-.05.14-.05.25,0,.14.05.23.14.28s.23.07.4.07c.1,0,.2-.02.31-.05s.23-.11.35-.22c.12-.11.25-.26.38-.46.13-.2.27-.47.41-.8.07-.17.15-.38.24-.62s.17-.5.25-.76c.08-.26.15-.51.2-.76s.08-.45.08-.61c0-.23-.05-.43-.15-.59-.1-.16-.27-.25-.51-.25-.19,0-.37.05-.53.16s-.31.23-.44.37-.24.29-.33.44-.15.27-.19.35l-.17-.07c.03-.07.09-.19.19-.35Z"/>
    <path d="m139.71,62.51c.66-1.41.99-2.97.99-4.66,0-.46-.03-.9-.1-1.31-.06-.41-.14-.78-.22-1.09s-.16-.57-.23-.77c-.07-.2-.12-.31-.13-.34l.24-.12c.11.33.21.64.3.95.09.3.16.61.22.91.06.3.1.6.13.91.03.31.04.63.04.98,0,.62-.06,1.3-.19,2.03s-.34,1.47-.65,2.21c-.31.75-.72,1.48-1.22,2.2s-1.15,1.37-1.91,1.97l-.19-.16c1.3-1.06,2.27-2.29,2.93-3.7Z"/>
    <path d="m143.06,64.51c.13-.07.26-.16.4-.26.13-.11.25-.24.34-.38.1-.15.14-.31.14-.5,0-.17-.02-.3-.06-.41-.02,0-.03.02-.05.02-.02,0-.05.02-.08.04-.03,0-.06.01-.1.02-.03,0-.07,0-.12,0-.15,0-.27-.05-.35-.15-.08-.1-.12-.21-.12-.33,0-.19.05-.35.16-.46.11-.12.27-.17.47-.17.24,0,.43.08.58.25.14.17.22.38.22.64,0,.34-.08.63-.23.87-.15.24-.33.45-.52.61-.2.16-.39.28-.57.37-.18.08-.31.14-.38.16l-.05-.16c.08-.03.19-.08.32-.15Z"/>
    <path d="m154.52,61.98c-.05.19-.08.36-.08.52,0,.21.1.31.3.31.16,0,.3-.05.43-.14.13-.09.24-.2.33-.31.09-.12.17-.23.23-.35.06-.12.1-.2.13-.25l.16.08c-.04.09-.1.2-.18.34-.08.14-.18.27-.31.39s-.28.23-.44.32-.36.14-.59.14c-.53,0-.79-.24-.79-.72,0-.06.01-.15.04-.29.02-.14.06-.27.1-.38h-.02c-.11.14-.24.29-.38.45-.14.16-.31.32-.49.46-.18.14-.38.26-.59.35-.22.09-.46.14-.72.14-.17,0-.33-.03-.49-.09-.16-.06-.29-.15-.41-.28-.12-.12-.21-.28-.28-.47-.07-.19-.1-.42-.1-.68,0-.32.06-.64.19-.96s.29-.63.5-.92.44-.56.71-.81c.27-.25.54-.46.82-.65.28-.18.55-.33.82-.43.27-.1.51-.16.71-.16.24,0,.44.07.61.2.17.14.25.32.25.54h.02l.2-.59h.84l-1.31,3.64c-.07.21-.13.41-.19.6Zm.28-3.21c.03-.11.04-.2.04-.28,0-.07,0-.15-.03-.23-.02-.08-.06-.16-.11-.23-.05-.07-.12-.13-.21-.19-.09-.05-.2-.08-.35-.08-.26,0-.52.07-.77.22s-.49.34-.71.58c-.22.24-.42.51-.61.82-.18.31-.34.62-.47.94-.13.32-.23.62-.31.92s-.11.56-.11.78c0,.26.05.46.15.62.1.16.27.24.5.24s.47-.07.71-.22.46-.32.66-.52c.2-.2.37-.4.52-.6.14-.2.24-.36.28-.47l.64-1.76c.1-.26.16-.44.19-.55Z"/>
    <path d="m160.58,60.59c-.25.11-.45.25-.6.4-.15.16-.27.34-.35.54-.08.2-.15.43-.22.68l-.43,1.57c-.13.47-.26.86-.41,1.18-.14.31-.32.56-.52.76-.2.19-.45.33-.73.41s-.63.12-1.04.12l.06-.22c.34,0,.64-.03.89-.1.25-.06.46-.18.64-.34.18-.16.34-.39.47-.67.13-.28.26-.64.38-1.07l.25-.96s.02-.07.04-.14c.02-.07.03-.14.05-.22.02-.08.04-.15.05-.22s.03-.11.04-.14c.09-.32.19-.59.29-.82.11-.22.24-.41.4-.56.16-.15.35-.26.58-.34.22-.08.49-.13.8-.16-.09-.02-.2-.04-.33-.06s-.27-.09-.4-.19c-.18-.15-.3-.32-.35-.5-.05-.18-.08-.33-.08-.43,0-.14.02-.29.05-.43s.08-.32.13-.52l.38-1.43c.03-.11.07-.27.11-.47.04-.2.07-.39.07-.56,0-.38-.12-.66-.35-.84-.24-.18-.55-.28-.93-.3l.06-.22c.13.02.28.04.44.08s.33.11.49.21c.16.1.29.23.4.4s.16.39.16.66c0,.17-.02.35-.07.55-.05.2-.12.48-.22.84l-.35,1.28c-.02.07-.04.17-.07.3s-.04.26-.04.4c0,.22.04.4.13.54s.19.26.31.35c.12.09.26.15.4.2.14.04.28.08.41.1v.06c-.42.06-.75.15-1,.26Z"/>
    <path d="m27.91,78.49v-5.82h1.58v4.55h2.35v1.27h-3.93Z"/>
    <path d="m34.42,78.57c-.47,0-.88-.09-1.22-.28s-.6-.45-.77-.79-.27-.73-.27-1.18.09-.84.27-1.18.44-.6.77-.79.74-.28,1.22-.28.88.09,1.22.28.6.45.77.79.27.73.27,1.18-.09.84-.27,1.18-.44.6-.77.79-.74.28-1.22.28Zm0-1.17c.14,0,.25-.04.35-.13s.17-.21.22-.37.08-.36.08-.58-.03-.42-.08-.58-.13-.28-.22-.36-.21-.12-.35-.12-.26.04-.36.12-.18.2-.23.36-.08.35-.08.58.03.42.08.58.13.29.23.37.22.13.36.13Z"/>
    <path d="m39.22,78.57c-.47,0-.87-.09-1.21-.27s-.6-.44-.78-.77-.27-.74-.27-1.21.09-.84.27-1.18.44-.6.77-.79.72-.28,1.17-.28c.33,0,.63.05.9.15s.5.25.69.45.34.43.44.71.15.59.15.94v.36h-3.9v-.86h3.16l-.73.18c0-.18-.03-.33-.08-.45s-.13-.21-.23-.28-.23-.1-.38-.1-.28.03-.38.1-.18.16-.23.28-.08.27-.08.45v.62c0,.17.03.32.09.45s.15.23.26.3.24.11.39.11c.11,0,.2-.02.29-.04s.16-.07.22-.13.11-.13.14-.21h1.43c-.05.3-.16.56-.35.79s-.42.39-.72.52-.65.18-1.05.18Z"/>
    <path d="m42.49,78.49l-1.09-4.37h1.57l.5,2.66h.03l.56-2.66h1.52l.59,2.64h.03l.48-2.64h1.57l-1.09,4.37h-1.7l-.61-2.34h-.05l-.61,2.34h-1.7Z"/>
    <path d="m50.54,78.57c-.47,0-.87-.09-1.21-.27s-.6-.44-.78-.77-.27-.74-.27-1.21.09-.84.27-1.18.44-.6.77-.79.72-.28,1.17-.28c.33,0,.63.05.9.15s.5.25.69.45.34.43.44.71.15.59.15.94v.36h-3.9v-.86h3.16l-.73.18c0-.18-.03-.33-.08-.45s-.13-.21-.23-.28-.23-.1-.38-.1-.28.03-.38.1-.18.16-.23.28-.08.27-.08.45v.62c0,.17.03.32.09.45s.15.23.26.3.24.11.39.11c.11,0,.2-.02.29-.04s.16-.07.22-.13.11-.13.14-.21h1.43c-.05.3-.16.56-.35.79s-.42.39-.72.52-.65.18-1.05.18Z"/>
    <path d="m54.62,75.76c0-.44.04-.89.13-1.36s.2-.92.36-1.34.33-.79.52-1.1h1.43c-.17.4-.32.81-.45,1.25s-.22.87-.29,1.3-.1.85-.1,1.25c0,.34.03.68.08,1.01s.14.7.27,1.09.29.85.49,1.36h-1.43c-.33-.53-.58-1.1-.75-1.68s-.26-1.18-.26-1.78Z"/>
    <path d="m58.99,72.67v5.82h-1.58v-5.82h1.58Zm.66,5.82h-1.59v-1.34h1.53c.29,0,.54-.05.74-.14s.36-.25.47-.48.16-.54.16-.95-.05-.72-.16-.95-.27-.39-.48-.48-.47-.14-.77-.14h-1.51v-1.34h1.59c.6,0,1.12.12,1.55.35s.77.57,1.01,1,.36.96.36,1.56-.12,1.12-.35,1.56-.57.77-1,1-.94.35-1.54.35Z"/>
    <path d="m65.21,78.57c-.47,0-.88-.09-1.22-.28s-.6-.45-.77-.79-.27-.73-.27-1.18.09-.84.27-1.18.44-.6.77-.79.74-.28,1.22-.28.88.09,1.22.28.6.45.77.79.27.73.27,1.18-.09.84-.27,1.18-.44.6-.77.79-.74.28-1.22.28Zm0-1.17c.14,0,.25-.04.35-.13s.17-.21.22-.37.08-.36.08-.58-.03-.42-.08-.58-.13-.28-.22-.36-.21-.12-.35-.12-.26.04-.36.12-.18.2-.23.36-.08.35-.08.58.03.42.08.58.13.29.23.37.22.13.36.13Z"/>
    <path d="m71.9,75.55h-1.44c-.01-.13-.07-.24-.19-.31s-.25-.12-.4-.12c-.14,0-.25.02-.34.07s-.14.12-.14.21c0,.06.03.13.08.18s.17.1.33.13l.89.16c.45.08.78.21,1,.41s.33.45.33.77-.09.58-.27.81-.43.4-.75.53-.68.19-1.08.19c-.67,0-1.19-.14-1.56-.41s-.59-.63-.63-1.08h1.55c.02.14.09.24.21.32s.26.11.44.11c.15,0,.27-.02.36-.07s.14-.12.14-.21c0-.15-.17-.26-.5-.32l-.77-.14c-.44-.08-.77-.23-1-.44s-.33-.49-.33-.84c0-.3.08-.56.24-.77s.39-.37.7-.48.66-.17,1.08-.17c.63,0,1.13.13,1.49.39s.55.62.57,1.08Z"/>
    <path d="m74.53,78.57c-.47,0-.87-.09-1.21-.27s-.6-.44-.78-.77-.27-.74-.27-1.21.09-.84.27-1.18.44-.6.77-.79.72-.28,1.17-.28c.33,0,.63.05.9.15s.5.25.69.45.34.43.44.71.15.59.15.94v.36h-3.9v-.86h3.16l-.73.18c0-.18-.03-.33-.08-.45s-.13-.21-.23-.28-.23-.1-.38-.1-.28.03-.38.1-.18.16-.23.28-.08.27-.08.45v.62c0,.17.03.32.09.45s.15.23.26.3.24.11.39.11c.11,0,.2-.02.29-.04s.16-.07.22-.13.11-.13.14-.21h1.43c-.05.3-.16.56-.35.79s-.42.39-.72.52-.65.18-1.05.18Z"/>
    <path d="m80.6,78.57c-.47,0-.87-.09-1.21-.27s-.6-.44-.78-.77-.27-.74-.27-1.21.09-.84.27-1.18.44-.6.77-.79.72-.28,1.17-.28c.33,0,.63.05.9.15s.5.25.69.45.34.43.44.71.15.59.15.94v.36h-3.9v-.86h3.16l-.73.18c0-.18-.03-.33-.08-.45s-.13-.21-.23-.28-.23-.1-.38-.1-.28.03-.38.1-.18.16-.23.28-.08.27-.08.45v.62c0,.17.03.32.09.45s.15.23.26.3.24.11.39.11c.11,0,.2-.02.29-.04s.16-.07.22-.13.11-.13.14-.21h1.43c-.05.3-.16.56-.35.79s-.42.39-.72.52-.65.18-1.05.18Z"/>
    <path d="m85.97,80.12v-2.35h-.02c-.06.15-.15.28-.26.4s-.25.21-.41.28-.34.1-.55.1c-.31,0-.6-.08-.86-.24s-.47-.41-.63-.74-.23-.75-.23-1.25c0-.53.08-.96.25-1.29s.38-.57.64-.72.53-.23.82-.23c.22,0,.41.04.57.11s.3.17.41.3.19.26.25.41h.04v-.77h1.55v6h-1.57Zm-.66-2.78c.14,0,.27-.04.37-.13s.18-.2.24-.36.08-.34.08-.55-.03-.4-.08-.56-.14-.27-.24-.36-.23-.12-.37-.12-.27.04-.37.12-.18.2-.23.36-.08.34-.08.56.03.4.08.55.13.27.23.36.22.12.37.12Z"/>
    <path d="m90.97,76.59v-2.46h1.57v4.37h-1.49v-.83h-.05c-.09.28-.26.49-.49.65s-.52.23-.84.23c-.3,0-.57-.07-.8-.21s-.41-.33-.53-.58-.19-.53-.19-.85v-2.79h1.57v2.46c0,.21.05.38.16.51s.26.18.46.18c.13,0,.24-.03.34-.08s.17-.13.22-.24.08-.23.08-.37Z"/>
    <path d="m93.15,78.49v-4.37h1.57v4.37h-1.57Zm.78-4.81c-.21,0-.4-.07-.55-.21s-.23-.31-.23-.51.08-.37.23-.51.33-.21.55-.21.4.07.55.21.23.31.23.51-.08.37-.23.51-.33.21-.55.21Z"/>
    <path d="m99.73,74.12l-1.47,4.37h-1.82l-1.46-4.37h1.65l.73,2.89h.05l.7-2.89h1.62Z"/>
    <path d="m101.1,78.56c-.28,0-.53-.05-.74-.14s-.38-.23-.5-.42-.18-.43-.18-.71c0-.24.04-.44.12-.61s.19-.31.34-.42.32-.19.51-.25.4-.1.63-.11c.24-.02.44-.04.59-.07s.25-.06.32-.12.1-.12.1-.2v-.02c0-.11-.04-.2-.13-.26s-.2-.09-.33-.09c-.15,0-.27.03-.37.1s-.15.17-.17.3h-1.44c.02-.27.1-.51.25-.73s.37-.4.66-.54.65-.2,1.09-.2c.31,0,.59.04.84.11s.46.17.63.3.31.28.4.46.14.36.14.56v2.99h-1.47v-.62h-.03c-.09.16-.19.3-.32.4s-.26.17-.42.22-.33.07-.52.07Zm.51-.99c.12,0,.23-.02.34-.07s.19-.12.26-.21.1-.21.1-.34v-.36s-.09.03-.13.05-.1.03-.15.04-.11.02-.16.04-.12.02-.18.03c-.12.02-.22.05-.3.09s-.13.1-.17.16-.05.13-.05.21c0,.12.04.22.13.28s.19.1.33.1Z"/>
    <path d="m106.03,72.67v5.82h-1.57v-5.82h1.57Z"/>
    <path d="m108.74,78.57c-.47,0-.87-.09-1.21-.27s-.6-.44-.78-.77-.27-.74-.27-1.21.09-.84.27-1.18.44-.6.77-.79.72-.28,1.17-.28c.33,0,.63.05.9.15s.5.25.69.45.34.43.44.71.15.59.15.94v.36h-3.9v-.86h3.16l-.73.18c0-.18-.03-.33-.08-.45s-.13-.21-.23-.28-.23-.1-.38-.1-.28.03-.38.1-.18.16-.23.28-.08.27-.08.45v.62c0,.17.03.32.09.45s.15.23.26.3.24.11.39.11c.11,0,.2-.02.29-.04s.16-.07.22-.13.11-.13.14-.21h1.43c-.05.3-.16.56-.35.79s-.42.39-.72.52-.65.18-1.05.18Z"/>
    <path d="m112.88,76.04v2.45h-1.57v-4.37h1.55v.84h.03c.1-.28.25-.5.47-.65s.49-.24.81-.24.58.07.81.21.4.33.53.58.19.53.19.85v2.78h-1.57v-2.45c0-.22-.05-.39-.16-.51s-.26-.19-.46-.19c-.13,0-.24.03-.33.08s-.17.14-.22.24-.08.23-.08.37Z"/>
    <path d="m118.42,78.57c-.47,0-.88-.09-1.22-.28s-.6-.45-.77-.79-.27-.73-.27-1.18.09-.84.27-1.18.44-.6.77-.79.74-.28,1.22-.28c.43,0,.8.08,1.11.23s.55.37.73.65.26.61.26.99h-1.45c-.01-.15-.05-.28-.1-.39s-.13-.18-.21-.24-.19-.08-.31-.08c-.14,0-.26.04-.36.12s-.18.2-.24.36-.08.36-.08.6.03.44.08.6.13.28.24.37.22.12.36.12c.17,0,.31-.06.43-.19s.18-.31.2-.54h1.45c0,.39-.09.72-.26,1.01s-.41.51-.72.66-.68.23-1.12.23Z"/>
    <path d="m123.06,78.57c-.47,0-.87-.09-1.21-.27s-.6-.44-.78-.77-.27-.74-.27-1.21.09-.84.27-1.18.44-.6.77-.79.72-.28,1.17-.28c.33,0,.63.05.9.15s.5.25.69.45.34.43.44.71.15.59.15.94v.36h-3.9v-.86h3.16l-.73.18c0-.18-.03-.33-.08-.45s-.13-.21-.23-.28-.23-.1-.38-.1-.28.03-.38.1-.18.16-.23.28-.08.27-.08.45v.62c0,.17.03.32.09.45s.15.23.26.3.24.11.39.11c.11,0,.2-.02.29-.04s.16-.07.22-.13.11-.13.14-.21h1.43c-.05.3-.16.56-.35.79s-.42.39-.72.52-.65.18-1.05.18Z"/>
    <path d="m125.28,79.58c.21-.51.37-.96.49-1.36s.21-.76.26-1.09.08-.67.08-1.01c0-.4-.03-.82-.1-1.25s-.16-.87-.29-1.3-.27-.85-.45-1.25h1.43c.2.31.37.67.52,1.1s.27.88.36,1.34.13.92.13,1.36c0,.6-.09,1.19-.26,1.78s-.42,1.15-.75,1.68h-1.43Z"/>
    <path d="m29.63,87.68c.13-.46.31-.9.54-1.3s.5-.75.79-1.05c.3-.3.62-.54.96-.71.34-.17.69-.26,1.03-.26.21,0,.38.03.53.09.14.06.26.14.36.23.1.09.17.19.21.3s.07.21.07.31c0,.14-.04.27-.11.41-.08.14-.22.2-.43.2-.18,0-.3-.03-.38-.1-.08-.07-.11-.15-.11-.23,0-.08.02-.15.05-.21.03-.06.07-.12.1-.17.04-.05.07-.1.1-.15.03-.05.04-.1.04-.17,0-.14-.05-.23-.14-.27-.09-.04-.2-.07-.32-.07-.36,0-.68.11-.95.34-.27.22-.5.49-.7.8s-.35.63-.47.95c-.12.32-.21.59-.26.8l-.25.91h1.48l-.05.17h-1.48l-1.07,4.07c-.14.51-.31,1.01-.52,1.49-.21.48-.45.9-.71,1.27-.27.37-.56.66-.88.88-.32.22-.65.33-1,.33-.1,0-.21-.01-.33-.04-.12-.02-.22-.07-.32-.13s-.18-.14-.24-.24c-.06-.1-.1-.23-.1-.39s.05-.28.14-.4c.09-.11.23-.17.43-.17.1,0,.19.02.25.06.06.04.1.12.1.25,0,.09-.02.18-.06.27-.04.09-.06.19-.06.31,0,.1.03.18.1.23.07.05.15.07.26.07.34,0,.66-.23.97-.69.31-.46.6-1.2.88-2.23l1.32-4.96h-1.14l.05-.17h1.14l.18-.66Z"/>
    <path d="m33.73,87.91l.03-.11h2.48l-.03.11h-.84l-1.96,5.47h1.87c.21,0,.4-.06.58-.18s.34-.26.48-.42c.14-.16.26-.33.36-.49.1-.16.17-.28.22-.36h.11l-.56,1.57h-4.65l.03-.11h.82l1.96-5.47h-.92Z"/>
    <path d="m38.37,91.34c.13-.28.3-.52.51-.72.21-.2.43-.36.68-.48.25-.12.49-.18.72-.18.21,0,.39.04.54.13.15.09.28.19.38.33.1.13.18.28.22.44.05.16.07.31.07.46,0,.31-.07.6-.2.88-.13.27-.3.52-.5.72s-.43.37-.68.49-.48.18-.71.18c-.19,0-.36-.04-.52-.11s-.28-.17-.39-.3-.19-.27-.25-.43c-.06-.16-.09-.33-.09-.52,0-.32.07-.62.2-.9Zm.52,1.95c.13.13.3.2.5.2.17,0,.32-.05.46-.14.14-.1.27-.22.39-.38.12-.16.22-.33.31-.52.09-.19.17-.38.23-.58.06-.19.11-.37.14-.54.03-.17.05-.31.05-.42,0-.26-.05-.46-.16-.61-.11-.15-.3-.22-.57-.22-.15,0-.3.05-.44.14-.14.09-.27.21-.38.36-.11.15-.22.31-.31.5-.09.19-.17.38-.23.57-.06.19-.11.38-.14.57-.03.18-.05.35-.05.48,0,.27.07.47.2.6Z"/>
    <path d="m45.14,92.91c-.06.1-.15.2-.26.3-.11.1-.25.19-.41.26s-.36.12-.59.12-.42-.04-.58-.11-.29-.17-.38-.29c-.1-.12-.17-.25-.22-.39s-.07-.28-.07-.41c0-.27.06-.54.2-.83.13-.29.3-.55.51-.78.21-.24.45-.43.72-.59.27-.15.54-.23.82-.23.11,0,.21.01.32.04.11.02.2.06.29.11.09.05.15.11.21.18.05.07.08.17.08.27,0,.14-.04.27-.12.38-.08.11-.18.2-.3.28s-.26.14-.4.2c-.15.05-.29.09-.43.12s-.27.05-.38.06c-.11.01-.2.02-.25.02-.09,0-.18,0-.26,0-.08,0-.16-.01-.22-.02-.06.17-.11.34-.15.51-.04.17-.06.35-.06.53,0,.29.07.5.22.64.15.14.34.21.57.21.17,0,.32-.03.45-.1.13-.07.25-.15.34-.24.1-.09.18-.18.25-.28.07-.09.12-.17.16-.22l.1.06s-.08.11-.14.2Zm.03-2.73c-.06-.07-.17-.11-.32-.11-.17,0-.32.05-.48.14-.15.1-.29.21-.41.36-.12.14-.23.29-.32.46-.09.16-.16.31-.21.45.12.02.26.03.41.03.19,0,.37-.03.54-.09.17-.06.32-.14.45-.23.13-.1.23-.21.31-.34.08-.13.12-.26.12-.4,0-.11-.03-.2-.1-.27Z"/>
    <path d="m50.14,90.14c-.07.07-.15.16-.22.26-.07.1-.14.21-.19.34s-.08.26-.08.41c0,.2.03.39.08.56.05.17.12.35.19.54.05.13.09.24.12.35.03.1.05.2.05.29.12-.1.26-.21.42-.34.17-.13.32-.28.47-.43.15-.15.28-.32.38-.5s.16-.36.16-.54c0-.12-.01-.22-.04-.3-.03-.08-.06-.15-.09-.2-.04-.06-.07-.11-.09-.17-.03-.05-.04-.11-.04-.18,0-.09.04-.16.11-.2.07-.04.16-.06.26-.06.26,0,.39.19.39.58,0,.18-.03.35-.1.52s-.15.33-.25.48c-.1.15-.22.29-.35.43-.13.14-.26.26-.39.37l-.41.35c-.13.11-.23.2-.32.26-.09.06-.17.13-.25.21-.09.09-.16.17-.22.24-.06.07-.11.14-.14.2l-.1-.06c.06-.08.1-.2.1-.36,0-.09-.01-.17-.03-.24-.02-.07-.05-.14-.07-.21l-.17-.46c-.03-.11-.06-.19-.08-.26-.02-.06-.04-.13-.06-.18-.07.07-.15.15-.24.23-.09.08-.18.17-.28.27l-.41.35c-.13.11-.23.2-.32.26-.09.06-.17.13-.25.21-.17.17-.29.32-.36.46l-.1-.06c.06-.08.1-.21.1-.38,0-.09-.01-.17-.03-.24-.02-.07-.05-.14-.07-.21l-.17-.46c-.05-.12-.09-.25-.13-.38s-.06-.25-.06-.37c0-.25.09-.49.26-.74s.4-.49.68-.73l.17-.13.07.08s-.08.08-.16.16c-.07.07-.14.16-.22.26-.07.1-.14.21-.19.34-.06.13-.08.26-.08.4,0,.2.03.39.08.56.05.17.11.35.19.54.05.13.09.24.12.35.03.1.05.2.05.29.12-.1.26-.21.42-.34.17-.13.32-.28.47-.43s.28-.32.38-.5.16-.36.16-.54c0-.12-.01-.22-.04-.3-.03-.08-.06-.15-.09-.2s-.06-.11-.09-.17-.04-.11-.04-.18c0-.09.04-.15.11-.18.07-.04.16-.06.26-.06.11.01.2.06.27.15.07.09.1.18.1.27.07-.08.16-.17.27-.27.1-.09.19-.16.24-.2l.07.08s-.08.09-.16.16Z"/>
    <path d="m55.52,92.91c-.06.1-.15.2-.26.3-.11.1-.25.19-.41.26s-.36.12-.59.12-.42-.04-.58-.11-.29-.17-.38-.29c-.1-.12-.17-.25-.22-.39s-.07-.28-.07-.41c0-.27.06-.54.2-.83.13-.29.3-.55.51-.78.21-.24.45-.43.72-.59.27-.15.54-.23.82-.23.11,0,.21.01.32.04.11.02.2.06.29.11.09.05.15.11.21.18.05.07.08.17.08.27,0,.14-.04.27-.12.38-.08.11-.18.2-.3.28s-.26.14-.4.2c-.15.05-.29.09-.43.12s-.27.05-.38.06c-.11.01-.2.02-.25.02-.09,0-.18,0-.26,0-.08,0-.16-.01-.22-.02-.06.17-.11.34-.15.51-.04.17-.06.35-.06.53,0,.29.07.5.22.64.15.14.34.21.57.21.17,0,.32-.03.45-.1.13-.07.25-.15.34-.24.1-.09.18-.18.25-.28.07-.09.12-.17.16-.22l.1.06s-.08.11-.14.2Zm.03-2.73c-.06-.07-.17-.11-.32-.11-.17,0-.32.05-.48.14-.15.1-.29.21-.41.36-.12.14-.23.29-.32.46-.09.16-.16.31-.21.45.12.02.26.03.41.03.19,0,.37-.03.54-.09.17-.06.32-.14.45-.23.13-.1.23-.21.31-.34.08-.13.12-.26.12-.4,0-.11-.03-.2-.1-.27Z"/>
    <path d="m62.59,88.68c-.66,1.42-1,2.97-1,4.67,0,.46.03.89.1,1.3.06.41.14.78.22,1.09s.16.57.23.77c.07.2.12.31.13.34l-.24.12c-.11-.33-.21-.64-.3-.95-.09-.3-.16-.61-.22-.91-.06-.3-.1-.6-.13-.91-.03-.31-.04-.63-.04-.97,0-.62.06-1.3.19-2.03s.34-1.47.65-2.21c.3-.74.71-1.48,1.22-2.2.51-.72,1.15-1.38,1.92-1.98l.19.16c-1.3,1.06-2.28,2.29-2.94,3.71Z"/>
    <path d="m65.88,89.26c.09-.16.21-.32.35-.47.14-.16.32-.29.52-.41s.43-.18.69-.18c.21,0,.38.04.52.11.14.08.25.17.34.28s.15.22.2.34c.04.12.08.22.1.31.06-.07.14-.17.25-.29.11-.12.24-.23.38-.34s.31-.2.5-.28c.18-.08.38-.12.58-.12.36,0,.62.1.79.29.16.2.25.41.25.65,0,.16-.05.31-.14.45-.1.14-.26.21-.49.21-.1,0-.19-.02-.26-.07-.07-.04-.11-.12-.11-.23,0-.09.02-.16.05-.22.04-.06.07-.12.11-.17.04-.05.08-.11.11-.17.04-.06.05-.14.05-.23,0-.13-.04-.22-.13-.27-.09-.05-.18-.08-.29-.08-.21,0-.41.09-.59.26-.19.18-.36.4-.53.67-.16.27-.31.57-.44.9-.13.33-.25.65-.34.97-.1.31-.17.6-.22.85-.05.26-.08.44-.08.56,0,.27.05.49.16.66s.26.25.48.25c.2,0,.38-.05.55-.15.16-.1.31-.22.44-.35.13-.14.24-.28.33-.43.09-.15.17-.28.22-.37l.16.07c-.04.07-.11.19-.2.34-.09.16-.21.31-.36.47-.15.16-.32.29-.52.41-.2.12-.43.17-.68.17-.19,0-.36-.04-.49-.11-.14-.07-.25-.16-.34-.26s-.16-.21-.2-.33c-.05-.12-.08-.22-.11-.31-.11.12-.23.24-.35.36-.12.12-.25.23-.4.32-.14.1-.3.17-.47.23-.17.06-.36.09-.58.09-.2,0-.37-.03-.5-.08-.14-.05-.25-.12-.34-.2s-.15-.18-.19-.29c-.04-.11-.06-.21-.06-.32,0-.24.06-.41.19-.52s.28-.16.44-.16c.09,0,.17.02.24.07.07.05.11.13.11.24,0,.08-.02.15-.05.2-.03.05-.07.1-.11.15s-.08.1-.11.16c-.03.06-.05.14-.05.25,0,.14.05.23.14.28s.23.07.4.07c.1,0,.2-.02.31-.05.11-.04.23-.11.35-.22.12-.11.25-.26.38-.46.13-.2.27-.47.41-.8.07-.17.15-.38.24-.62s.17-.5.25-.76c.08-.26.15-.51.2-.76.05-.24.08-.45.08-.61,0-.23-.05-.43-.15-.59-.1-.16-.27-.25-.51-.25-.19,0-.37.05-.53.16s-.31.23-.44.37-.24.29-.33.44-.15.27-.19.35l-.17-.07c.03-.07.09-.19.19-.35Z"/>
    <path d="m73.54,93.11c.66-1.41.99-2.97.99-4.66,0-.46-.03-.9-.1-1.31-.06-.41-.14-.78-.22-1.09s-.16-.57-.23-.77c-.07-.2-.12-.31-.13-.34l.24-.12c.11.33.21.64.3.95.09.3.16.61.22.91.06.3.1.6.13.91.03.31.04.63.04.98,0,.62-.06,1.3-.19,2.03s-.34,1.47-.65,2.21c-.31.75-.72,1.48-1.22,2.2s-1.15,1.37-1.91,1.97l-.19-.16c1.3-1.06,2.27-2.29,2.93-3.7Z"/>
    <path d="m81.29,88.5v-.85h5.5v.85h-5.5Zm0,2.39v-.85h5.5v.85h-5.5Z"/>
    <path d="m94.15,87.68c.13-.46.31-.9.54-1.3s.5-.75.79-1.05c.3-.3.62-.54.96-.71.34-.17.69-.26,1.03-.26.21,0,.38.03.53.09.14.06.26.14.36.23.1.09.17.19.21.3s.07.21.07.31c0,.14-.04.27-.11.41-.08.14-.22.2-.43.2-.18,0-.3-.03-.38-.1-.08-.07-.11-.15-.11-.23,0-.08.02-.15.05-.21.03-.06.07-.12.1-.17.04-.05.07-.1.1-.15.03-.05.04-.1.04-.17,0-.14-.05-.23-.14-.27-.09-.04-.2-.07-.32-.07-.36,0-.68.11-.95.34-.27.22-.5.49-.7.8s-.35.63-.47.95c-.12.32-.21.59-.26.8l-.25.91h1.48l-.05.17h-1.48l-1.07,4.07c-.14.51-.31,1.01-.52,1.49-.21.48-.45.9-.71,1.27-.27.37-.56.66-.88.88-.32.22-.65.33-1,.33-.1,0-.21-.01-.33-.04-.12-.02-.22-.07-.32-.13s-.18-.14-.24-.24c-.06-.1-.1-.23-.1-.39s.05-.28.14-.4c.09-.11.23-.17.43-.17.1,0,.19.02.25.06.06.04.1.12.1.25,0,.09-.02.18-.06.27-.04.09-.06.19-.06.31,0,.1.03.18.1.23.07.05.15.07.26.07.34,0,.66-.23.97-.69.31-.46.6-1.2.88-2.23l1.32-4.96h-1.14l.05-.17h1.14l.18-.66Z"/>
    <path d="m98.24,87.91l.03-.11h2.48l-.03.11h-.84l-1.96,5.47h1.87c.21,0,.4-.06.58-.18s.34-.26.48-.42c.14-.16.26-.33.36-.49.1-.16.17-.28.22-.36h.11l-.56,1.57h-4.65l.03-.11h.82l1.96-5.47h-.92Z"/>
    <path d="m104.49,88.68c-.66,1.42-1,2.97-1,4.67,0,.46.03.89.1,1.3.06.41.14.78.22,1.09s.16.57.23.77c.07.2.12.31.13.34l-.24.12c-.11-.33-.21-.64-.3-.95-.09-.3-.16-.61-.22-.91-.06-.3-.1-.6-.13-.91-.03-.31-.04-.63-.04-.97,0-.62.06-1.3.19-2.03s.34-1.47.65-2.21c.3-.74.71-1.48,1.22-2.2.51-.72,1.15-1.38,1.92-1.98l.19.16c-1.3,1.06-2.28,2.29-2.94,3.71Z"/>
    <path d="m107.79,89.26c.09-.16.21-.32.35-.47.14-.16.32-.29.52-.41s.43-.18.69-.18c.21,0,.38.04.52.11.14.08.25.17.34.28s.15.22.2.34c.04.12.08.22.1.31.06-.07.14-.17.25-.29.11-.12.24-.23.38-.34s.31-.2.5-.28c.18-.08.38-.12.58-.12.36,0,.62.1.79.29.16.2.25.41.25.65,0,.16-.05.31-.14.45-.1.14-.26.21-.49.21-.1,0-.19-.02-.26-.07-.07-.04-.11-.12-.11-.23,0-.09.02-.16.05-.22.04-.06.07-.12.11-.17.04-.05.08-.11.11-.17.04-.06.05-.14.05-.23,0-.13-.04-.22-.13-.27-.09-.05-.18-.08-.29-.08-.21,0-.41.09-.59.26-.19.18-.36.4-.53.67-.16.27-.31.57-.44.9-.13.33-.25.65-.34.97-.1.31-.17.6-.22.85-.05.26-.08.44-.08.56,0,.27.05.49.16.66s.26.25.48.25c.2,0,.38-.05.55-.15.16-.1.31-.22.44-.35.13-.14.24-.28.33-.43.09-.15.17-.28.22-.37l.16.07c-.04.07-.11.19-.2.34-.09.16-.21.31-.36.47-.15.16-.32.29-.52.41-.2.12-.43.17-.68.17-.19,0-.36-.04-.49-.11-.14-.07-.25-.16-.34-.26s-.16-.21-.2-.33c-.05-.12-.08-.22-.11-.31-.11.12-.23.24-.35.36-.12.12-.25.23-.4.32-.14.1-.3.17-.47.23-.17.06-.36.09-.58.09-.2,0-.37-.03-.5-.08-.14-.05-.25-.12-.34-.2s-.15-.18-.19-.29c-.04-.11-.06-.21-.06-.32,0-.24.06-.41.19-.52s.28-.16.44-.16c.09,0,.17.02.24.07.07.05.11.13.11.24,0,.08-.02.15-.05.2-.03.05-.07.1-.11.15s-.08.1-.11.16c-.03.06-.05.14-.05.25,0,.14.05.23.14.28s.23.07.4.07c.1,0,.2-.02.31-.05.11-.04.23-.11.35-.22.12-.11.25-.26.38-.46.13-.2.27-.47.41-.8.07-.17.15-.38.24-.62s.17-.5.25-.76c.08-.26.15-.51.2-.76.05-.24.08-.45.08-.61,0-.23-.05-.43-.15-.59-.1-.16-.27-.25-.51-.25-.19,0-.37.05-.53.16s-.31.23-.44.37-.24.29-.33.44-.15.27-.19.35l-.17-.07c.03-.07.09-.19.19-.35Z"/>
    <path d="m118.43,90.72v-.22h2.76v-2.77h.24v2.77h2.76v.22h-2.76v2.77h-.24v-2.77h-2.76Z"/>
    <path d="m133.29,88.02c.17-.44.37-.86.62-1.25.24-.39.51-.73.79-1.03s.58-.52.88-.7.6-.26.89-.26c.39,0,.69.09.91.26.21.18.32.43.32.77,0,.2-.04.37-.12.5-.08.14-.23.2-.44.2-.14,0-.25-.03-.33-.1s-.13-.16-.13-.28c0-.08.02-.15.05-.22s.08-.13.12-.19c.04-.06.08-.12.12-.19.04-.07.05-.15.05-.23s-.04-.17-.11-.25-.21-.11-.42-.11c-.16,0-.32.03-.47.1-.15.07-.3.19-.46.35-.15.17-.31.39-.46.68-.16.28-.32.65-.49,1.09l-.84,2.14h1.52l-.05.17h-1.55l-.86,2.35c-.12.33-.26.68-.42,1.06-.16.38-.33.76-.52,1.13-.18.37-.38.73-.59,1.07-.21.34-.43.64-.66.9-.23.26-.46.47-.7.62-.24.16-.48.23-.72.23-.2,0-.36-.03-.49-.08-.13-.05-.23-.12-.31-.2s-.13-.17-.16-.27c-.03-.1-.05-.19-.05-.28,0-.2.05-.34.14-.43.09-.09.21-.13.37-.13.14,0,.24.03.31.1.07.06.1.14.1.24,0,.09-.02.16-.05.2-.03.05-.07.09-.1.13s-.07.08-.1.13c-.03.04-.05.1-.05.17,0,.09.04.15.11.19s.17.06.28.06c.3,0,.58-.17.83-.5s.48-.78.69-1.34l1.96-5.36h-1.56l.05-.17h1.58l.5-1.3Z"/>
    <path d="m138.69,92.6l.03-.1h2.17l-.03.1h-.73l-1.71,4.79h1.64c.18,0,.35-.05.51-.16s.3-.23.42-.37c.12-.14.23-.28.31-.43.09-.14.15-.25.19-.32h.1l-.49,1.37h-4.07l.03-.1h.72l1.71-4.79h-.8Z"/>
    <path d="m144.26,87.79l-.11.42h-1.22l.11-.42h1.22Z"/>
    <path d="m147.62,85.3c-.11.06-.21.12-.32.18-.1.06-.21.11-.3.16-.1.05-.18.08-.25.11l-.05-.08c.1-.04.23-.1.39-.18.16-.08.32-.17.49-.27.17-.1.33-.21.49-.32.16-.11.29-.22.4-.33h.1l-1.35,4.83h.75l-.03.1h-1.91l.03-.1h.67l1.19-4.27c-.09.06-.19.11-.29.18Z"/>
    <path d="m151.39,88.68c-.66,1.42-1,2.97-1,4.67,0,.46.03.89.1,1.3.06.41.14.78.22,1.09s.16.57.23.77c.07.2.12.31.13.34l-.24.12c-.11-.33-.21-.64-.3-.95-.09-.3-.16-.61-.22-.91s-.1-.6-.13-.91-.04-.63-.04-.97c0-.62.06-1.3.19-2.03s.34-1.47.65-2.21.71-1.48,1.22-2.2c.51-.72,1.15-1.38,1.92-1.98l.19.16c-1.3,1.06-2.28,2.29-2.94,3.71Z"/>
    <path d="m157.99,92.58c-.05.19-.08.36-.08.52,0,.21.1.31.3.31.16,0,.3-.05.43-.14.13-.09.24-.2.33-.31.09-.12.17-.23.23-.35.06-.12.1-.2.13-.25l.16.08c-.04.09-.1.2-.18.34-.08.14-.18.27-.31.39s-.28.23-.44.32-.36.14-.59.14c-.53,0-.79-.24-.79-.72,0-.06.01-.15.04-.29.02-.14.06-.27.1-.38h-.02c-.11.14-.24.29-.38.45-.14.16-.31.32-.49.46-.18.14-.38.26-.59.35-.22.09-.46.14-.72.14-.17,0-.33-.03-.49-.09-.16-.06-.29-.15-.41-.28-.12-.12-.21-.28-.28-.47-.07-.19-.1-.42-.1-.68,0-.32.06-.64.19-.96s.29-.63.5-.92.44-.56.71-.81c.27-.25.54-.46.82-.65.28-.18.55-.33.82-.43.27-.1.51-.16.71-.16.24,0,.44.07.61.2.17.14.25.32.25.54h.02l.2-.59h.84l-1.31,3.64c-.07.21-.13.41-.19.6Zm.28-3.21c.03-.11.04-.2.04-.28,0-.07,0-.15-.03-.23-.02-.08-.06-.16-.11-.23-.05-.07-.12-.13-.21-.19-.09-.05-.2-.08-.35-.08-.26,0-.52.07-.77.22s-.49.34-.71.58c-.22.24-.42.51-.61.82-.18.31-.34.62-.47.94-.13.32-.23.62-.31.92s-.11.56-.11.78c0,.26.05.46.15.62.1.16.27.24.5.24s.47-.07.71-.22.46-.32.66-.52c.2-.2.37-.4.52-.6.14-.2.24-.36.28-.47l.64-1.76c.1-.26.16-.44.19-.55Z"/>
    <path d="m162.11,93.11c.66-1.41.99-2.97.99-4.66,0-.46-.03-.9-.1-1.31s-.14-.78-.22-1.09-.16-.57-.23-.77c-.07-.2-.12-.31-.13-.34l.24-.12c.11.33.21.64.3.95.09.3.16.61.22.91.06.3.1.6.13.91.03.31.04.63.04.98,0,.62-.06,1.3-.19,2.03s-.34,1.47-.65,2.21-.72,1.48-1.22,2.2-1.15,1.37-1.91,1.97l-.19-.16c1.3-1.06,2.27-2.29,2.93-3.7Z"/>
    <path d="m166.35,93.11c.66-1.41.99-2.97.99-4.66,0-.46-.03-.9-.1-1.31s-.14-.78-.22-1.09-.16-.57-.23-.77c-.07-.2-.12-.31-.13-.34l.24-.12c.11.33.21.64.3.95.09.3.16.61.22.91.06.3.1.6.13.91.03.31.04.63.04.98,0,.62-.06,1.3-.19,2.03s-.34,1.47-.65,2.21-.72,1.48-1.22,2.2-1.15,1.37-1.91,1.97l-.19-.16c1.3-1.06,2.27-2.29,2.93-3.7Z"/>
  </g>
  <g>
    <g>
      <g>
        <g>
          <g>
            <path class="cls-4" d="m124.5,215.12c.05-.18.12-.34.21-.5.09-.16.21-.3.35-.41.14-.11.32-.17.53-.17.26,0,.47.07.64.2s.31.3.41.5c.1.2.17.42.22.65.04.23.07.45.07.65,0,.53-.03.98-.09,1.36s-.12.7-.17.95h.02l1.84-3.31c.06-.12.13-.24.2-.36s.15-.23.23-.32c.09-.09.19-.17.31-.23.12-.06.25-.09.4-.09.19,0,.33.05.4.14.08.1.11.2.11.32,0,.15-.05.28-.14.37-.1.1-.22.14-.38.14s-.23-.07-.23-.22c0-.09.02-.15.07-.2s.07-.1.07-.17c0-.12-.06-.17-.17-.16-.1,0-.2.08-.31.21s-.26.35-.43.67l-2.18,3.96-.7,1.3c-.14.26-.28.5-.43.74s-.31.45-.47.64c-.17.18-.34.33-.53.44s-.38.17-.58.17c-.3,0-.55-.07-.74-.22-.19-.15-.28-.35-.28-.61,0-.21.06-.35.18-.41.12-.07.25-.1.38-.1.1,0,.19.03.25.08.06.05.1.13.1.22,0,.07,0,.13-.02.16-.01.04-.03.07-.04.11-.02.04-.03.08-.04.12-.01.04-.02.11-.02.19,0,.09.04.16.11.22s.17.08.29.08c.22,0,.46-.14.7-.43.24-.29.47-.67.67-1.13.2-.47.37-1,.5-1.61s.2-1.22.2-1.85-.02-1.13-.05-1.52-.07-.7-.13-.92-.11-.37-.17-.44c-.06-.08-.13-.11-.2-.11-.14,0-.27.05-.37.16-.1.11-.19.24-.26.39-.07.15-.13.31-.17.47s-.08.29-.1.4l-.17-.05c.03-.13.07-.28.12-.46Z"/>
            <path class="cls-4" d="m123.76,222.66c-.36,0-.66-.09-.89-.27-.25-.2-.38-.47-.38-.8,0-.38.17-.55.31-.63.31-.17.69-.19.92,0,.08.07.19.2.19.41,0,.1,0,.18-.03.24-.01.04-.03.09-.05.13-.01.03-.02.05-.03.08,0,0,0,.04,0,.12.14.12.39.03.67-.29.23-.27.44-.63.63-1.07.2-.45.36-.98.49-1.56.13-.58.19-1.19.19-1.8s-.02-1.12-.05-1.5c-.03-.38-.07-.67-.12-.88-.06-.26-.11-.33-.12-.34-.09-.02-.15,0-.21.06-.08.09-.16.2-.22.32-.07.14-.12.28-.16.43-.04.16-.08.29-.1.39l-.06.26-.65-.19.06-.23c.03-.13.07-.28.12-.46h0c.05-.2.13-.39.23-.56.11-.19.25-.35.41-.48.4-.32,1.08-.28,1.48.03.2.15.36.35.48.58.11.22.19.46.24.71.05.25.07.48.07.69,0,.36-.01.7-.04.99l1.17-2.11c.06-.12.13-.24.2-.36.08-.14.17-.26.27-.37.11-.11.23-.2.37-.28.15-.08.33-.12.52-.12.27,0,.47.08.6.24.11.14.17.3.17.48,0,.22-.07.41-.22.55-.14.15-.33.22-.56.22-.29,0-.48-.18-.48-.47,0-.01,0-.02,0-.04-.09.12-.19.29-.31.51l-2.88,5.25c-.14.26-.28.51-.43.76-.15.25-.32.48-.5.67-.18.2-.38.36-.58.49-.22.14-.46.2-.71.2Zm-.46-1.34c-.09,0-.18.02-.26.07-.05.03-.05.16-.05.2,0,.18.06.31.19.41.04.03.08.05.12.07-.01-.04-.02-.08-.02-.12,0-.1,0-.18.03-.25.02-.06.04-.11.06-.16.01-.03.02-.05.03-.08,0,0,0-.02,0-.08-.03-.05-.07-.05-.1-.05Zm2.68-6.94c.04.09.07.2.1.34.06.23.1.55.13.96.03.4.05.92.05,1.54s-.07,1.29-.2,1.91c-.03.13-.06.26-.09.38l.49-.9h-.08l.04-.3c.05-.25.11-.57.17-.94.06-.36.09-.81.09-1.32,0-.18-.02-.39-.06-.6-.04-.21-.1-.4-.19-.58-.08-.17-.19-.3-.34-.41-.03-.03-.07-.05-.1-.07Zm3.81-.07s.02.08.02.13c0,.16-.06.27-.12.33.11,0,.15-.04.18-.07.03-.03.07-.08.07-.2,0-.06-.02-.12-.06-.17-.01-.01-.04-.03-.08-.04Z"/>
          </g>
          <g>
            <path class="cls-4" d="m140.51,215.33v.22h-5.76v-.22h5.76Zm0,2.06v.22h-5.76v-.22h5.76Z"/>
            <path class="cls-4" d="m140.76,217.86h-6.26v-.72h6.26v.72Zm0-2.06h-6.26v-.72h6.26v.72Z"/>
          </g>
          <g>
            <path class="cls-4" d="m148.39,213.54c.13-.46.31-.9.54-1.3.23-.4.5-.75.79-1.05s.62-.54.96-.71.69-.26,1.03-.26c.21,0,.38.03.53.09.14.06.26.14.36.23.1.09.17.19.21.3.04.11.07.21.07.31,0,.14-.04.27-.11.41s-.22.2-.43.2c-.18,0-.3-.03-.38-.1-.08-.07-.11-.15-.11-.23,0-.08.02-.15.05-.21.03-.06.07-.12.1-.17.04-.05.07-.1.1-.15s.04-.1.04-.17c0-.14-.05-.23-.14-.27-.09-.04-.2-.07-.32-.07-.36,0-.68.11-.95.34-.27.22-.5.49-.7.8-.19.31-.35.63-.47.95-.12.32-.21.59-.26.8l-.25.91h1.48l-.05.17h-1.48l-1.07,4.07c-.14.51-.31,1.01-.52,1.49-.21.48-.45.9-.71,1.27-.27.37-.56.66-.88.88s-.65.33-1,.33c-.1,0-.21-.01-.33-.04-.12-.02-.22-.07-.32-.13-.1-.06-.18-.14-.24-.24-.06-.1-.1-.23-.1-.39s.05-.28.14-.4c.09-.11.23-.17.43-.17.1,0,.19.02.25.06.06.04.1.12.1.25,0,.09-.02.18-.06.27-.04.09-.06.19-.06.31,0,.1.03.18.1.23.07.05.15.07.26.07.34,0,.66-.23.97-.69.31-.46.6-1.2.88-2.23l1.32-4.96h-1.14l.05-.17h1.14l.18-.66Z"/>
            <path class="cls-4" d="m144.83,222.66c-.12,0-.25-.01-.38-.04-.14-.03-.28-.08-.4-.16-.13-.08-.23-.18-.32-.32-.09-.14-.14-.32-.14-.53s.07-.4.2-.56c.14-.17.35-.26.62-.26.15,0,.28.03.38.1.1.06.21.19.21.46,0,.12-.03.25-.08.37-.03.06-.04.13-.04.21.03.05.08.05.11.05.25,0,.5-.19.76-.58.29-.44.58-1.16.85-2.15l1.24-4.64h-1.15l.19-.67h1.14l.13-.48c.13-.48.32-.94.56-1.35.24-.42.52-.79.83-1.1.31-.32.66-.57,1.03-.76.61-.31,1.31-.36,1.77-.18.17.07.32.17.44.28.12.11.21.24.27.39.06.14.08.27.08.4,0,.18-.05.36-.15.53-.08.15-.27.33-.64.33-.24,0-.42-.05-.54-.17-.13-.11-.2-.26-.2-.42,0-.12.03-.23.08-.33.04-.07.08-.14.12-.19.03-.05.06-.09.09-.13v-.1s-.12-.03-.2-.03c-.3,0-.56.09-.79.28-.25.21-.47.45-.64.74-.18.3-.33.61-.45.91-.12.32-.2.57-.26.78l-.17.6h1.48l-.19.67h-1.47l-1.02,3.88c-.14.52-.32,1.03-.53,1.52-.21.49-.46.94-.74,1.32-.29.39-.6.71-.94.94-.36.25-.74.37-1.14.37Zm-.42-1.36c-.17,0-.22.06-.23.08-.06.07-.08.14-.08.24,0,.11.02.2.06.26.04.07.1.12.16.16.03.02.06.03.09.05-.01-.04-.02-.09-.02-.14,0-.15.03-.28.08-.41.03-.06.04-.12.04-.17,0-.03,0-.05,0-.06,0,0-.04,0-.09,0Zm3.99-6.85l-1.32,4.94c-.18.65-.36,1.19-.55,1.62.24-.34.46-.74.65-1.18.2-.47.37-.96.5-1.45l1.37-5.15c.06-.21.15-.48.27-.82.11-.29.24-.58.41-.86-.22.24-.42.52-.59.83-.22.38-.39.8-.51,1.24l-.23.84Zm3.98-3.76s0,.03,0,.05c0,.11-.03.21-.08.3-.03.05-.06.11-.1.16-.03.05-.06.09-.09.14-.01.02-.02.05-.02.09.03.05.08.09.24.09s.2-.06.21-.08c.05-.1.08-.19.08-.29,0-.06-.02-.13-.05-.21-.03-.08-.08-.15-.15-.21-.01-.01-.03-.03-.05-.04Z"/>
          </g>
          <g>
            <path class="cls-4" d="m152.49,213.76l.03-.11h2.48l-.03.11h-.84l-1.96,5.47h1.87c.21,0,.4-.06.58-.18.18-.12.34-.26.48-.42.14-.16.26-.33.36-.49s.17-.28.22-.36h.11l-.56,1.57h-4.65l.03-.11h.82l1.96-5.47h-.92Z"/>
            <path class="cls-4" d="m155.42,219.6h-5.16l.18-.61h.84l1.78-4.97h-.89l.17-.61h3l-.18.61h-.85l-1.78,4.97h1.52c.16,0,.31-.05.45-.14.16-.11.31-.24.43-.38.13-.15.25-.31.33-.45l.29-.48h.61l-.74,2.07Zm-.43-.5h.08l.04-.1s-.07.07-.11.1Zm-3.22,0h.19l1.86-5.2h-.19l-1.86,5.2Z"/>
          </g>
          <g>
            <path class="cls-4" d="m158.74,214.53c-.66,1.42-1,2.97-1,4.67,0,.46.03.89.1,1.3.06.41.14.78.22,1.09.08.32.16.57.23.77s.12.31.13.34l-.24.12c-.11-.33-.21-.64-.3-.95-.09-.3-.16-.61-.22-.91s-.1-.6-.13-.91c-.03-.31-.04-.63-.04-.97,0-.62.06-1.3.19-2.03.13-.73.34-1.47.65-2.21s.71-1.48,1.22-2.2c.51-.72,1.15-1.38,1.92-1.98l.19.16c-1.3,1.06-2.28,2.29-2.94,3.71Z"/>
            <path class="cls-4" d="m158.04,223.18l-.09-.27c-.11-.33-.21-.65-.3-.96-.09-.31-.17-.63-.22-.93-.06-.31-.1-.62-.13-.93-.03-.31-.04-.64-.04-.99,0-.63.07-1.33.2-2.08.13-.75.35-1.51.66-2.27.31-.76.73-1.52,1.25-2.25.52-.74,1.19-1.42,1.97-2.03l.16-.12.58.47-.24.19c-1.26,1.03-2.23,2.25-2.87,3.62-.65,1.38-.97,2.91-.97,4.56,0,.45.03.87.09,1.26.06.41.14.77.22,1.07.08.31.16.55.23.75.07.18.11.28.12.32l.11.22-.71.36Z"/>
          </g>
          <g>
            <path class="cls-4" d="m162.03,215.11c.09-.16.21-.32.35-.47.14-.16.32-.29.52-.41s.43-.18.69-.18c.21,0,.38.04.52.11.14.08.25.17.34.28.09.11.15.22.2.34s.08.22.1.31c.06-.07.14-.17.25-.29s.24-.23.38-.34c.15-.11.31-.2.5-.28.18-.08.38-.12.58-.12.36,0,.62.1.79.29.16.2.25.41.25.65,0,.16-.05.31-.14.45-.1.14-.26.21-.49.21-.1,0-.19-.02-.26-.07-.07-.04-.11-.12-.11-.23,0-.09.02-.16.05-.22.04-.06.07-.12.11-.17.04-.05.08-.11.11-.17.04-.06.05-.14.05-.23,0-.13-.04-.22-.13-.27-.09-.05-.18-.08-.29-.08-.21,0-.41.09-.59.26-.19.18-.36.4-.53.67-.16.27-.31.57-.44.9-.13.33-.25.65-.34.97-.1.31-.17.6-.22.85-.05.26-.08.44-.08.56,0,.27.05.49.16.66.1.17.26.25.48.25.2,0,.38-.05.55-.15s.31-.22.44-.35c.13-.14.24-.28.33-.43s.17-.28.22-.37l.16.07c-.04.07-.11.19-.2.34-.09.16-.21.31-.36.47s-.32.29-.52.41c-.2.12-.43.17-.68.17-.19,0-.36-.04-.49-.11-.14-.07-.25-.16-.34-.26-.09-.1-.16-.21-.2-.33-.05-.12-.08-.22-.11-.31-.11.12-.23.24-.35.36-.12.12-.25.23-.4.32-.14.1-.3.17-.47.23s-.36.09-.58.09c-.2,0-.37-.03-.5-.08-.14-.05-.25-.12-.34-.2s-.15-.18-.19-.29c-.04-.11-.06-.21-.06-.32,0-.24.06-.41.19-.52.13-.11.28-.16.44-.16.09,0,.17.02.24.07.07.05.11.13.11.24,0,.08-.02.15-.05.2s-.07.1-.11.15-.08.1-.11.16c-.03.06-.05.14-.05.25,0,.14.05.23.14.28s.23.07.4.07c.1,0,.2-.02.31-.05s.23-.11.35-.22.25-.26.38-.46.27-.47.41-.8c.07-.17.15-.38.24-.62s.17-.5.25-.76c.08-.26.15-.51.2-.76s.08-.45.08-.61c0-.23-.05-.43-.15-.59-.1-.16-.27-.25-.51-.25-.19,0-.37.05-.53.16-.16.1-.31.23-.44.37-.13.14-.24.29-.33.44-.09.15-.15.27-.19.35l-.17-.07c.03-.07.09-.19.19-.35Z"/>
            <path class="cls-4" d="m164.76,219.74c-.23,0-.43-.05-.61-.14-.17-.09-.3-.2-.41-.33-.09-.1-.16-.22-.22-.34-.03.03-.05.05-.08.08-.13.13-.27.25-.43.35-.16.11-.34.2-.52.26-.38.14-.92.14-1.25,0-.16-.06-.3-.15-.42-.26-.12-.11-.2-.24-.25-.38-.05-.14-.08-.27-.08-.41,0-.32.09-.56.28-.71.28-.24.68-.31.98-.11.08.06.22.19.22.45,0,.13-.03.24-.09.33-.04.06-.09.13-.14.19-.03.03-.05.07-.08.11,0,0-.02.04-.02.13.05.1.23.15.53.06.08-.03.17-.08.27-.17.11-.1.22-.23.34-.41.12-.19.25-.44.39-.76.07-.16.15-.37.23-.61.09-.24.17-.5.25-.75.08-.25.14-.5.19-.73.05-.23.07-.41.07-.55,0-.19-.04-.34-.11-.46-.02-.04-.08-.13-.3-.13-.14,0-.28.04-.4.12-.14.09-.28.2-.39.33-.12.13-.22.27-.3.4-.08.14-.14.25-.18.33l-.1.22-.63-.27.11-.23c.03-.08.1-.2.2-.37.1-.18.23-.35.39-.52.16-.17.36-.33.58-.46.45-.26,1.07-.28,1.46-.07.17.09.31.21.42.34.08.1.15.2.2.31.11-.12.24-.23.39-.34.17-.12.35-.22.55-.31.22-.09.45-.14.68-.14.44,0,.76.13.98.38.2.24.3.51.3.81,0,.21-.06.41-.19.59-.1.14-.3.32-.7.32-.15,0-.29-.04-.4-.1-.08-.05-.23-.17-.23-.45,0-.13.03-.25.09-.35.04-.07.08-.13.13-.19.04-.04.07-.09.1-.14,0-.01.02-.04.02-.11-.06-.08-.11-.1-.17-.1-.14,0-.28.06-.42.2-.17.16-.34.37-.48.61-.16.25-.3.54-.43.86-.13.33-.24.64-.33.95-.09.3-.17.58-.22.83-.06.29-.07.44-.07.51,0,.22.04.4.12.53.04.07.1.13.27.13.15,0,.29-.04.42-.11.14-.09.27-.19.38-.31.12-.12.22-.26.3-.39l.34-.57.6.28-.13.23c-.04.07-.11.19-.2.35-.1.17-.24.35-.39.51-.16.17-.36.32-.58.45-.24.14-.51.21-.81.21Zm-3.38-1.57c-.11,0-.2.03-.28.1-.07.06-.1.17-.1.33,0,.07.01.15.04.23.02.07.06.12.12.18v-.03c0-.15.03-.27.08-.36.04-.08.09-.15.15-.21.03-.04.06-.07.09-.11,0,0,0-.03,0-.07-.03-.05-.06-.06-.1-.06Zm2.37-.19l.12.44c.02.08.05.17.1.27,0,0,0,.01,0,.02-.01-.09-.02-.19-.02-.29,0-.14.03-.34.08-.61.05-.26.13-.56.23-.88.1-.31.21-.65.35-.99.09-.23.19-.45.3-.66l-.26.34-.13-.49c-.02-.08-.05-.17-.09-.28,0-.02-.01-.03-.02-.05.01.08.02.16.02.24,0,.18-.03.39-.08.66-.05.25-.12.51-.2.78-.08.26-.17.52-.26.77-.09.25-.17.47-.24.64-.06.15-.13.28-.19.4l.3-.32Zm3.33-3.47s0,.03,0,.04c0,.14-.03.26-.09.36-.04.07-.08.13-.13.19-.03.04-.07.09-.1.14-.01.02-.02.05-.02.09.02.04.06.05.12.05.22,0,.27-.08.29-.1.07-.1.1-.2.1-.31,0-.17-.06-.33-.17-.48Z"/>
          </g>
          <g>
            <path class="cls-4" d="m169.69,218.97c.66-1.41.99-2.97.99-4.66,0-.46-.03-.9-.1-1.31-.06-.41-.14-.78-.22-1.09-.08-.32-.16-.57-.23-.77-.07-.2-.12-.31-.13-.34l.24-.12c.11.33.21.64.3.95.09.3.16.61.22.91.06.3.1.6.13.91.03.31.04.63.04.98,0,.62-.06,1.3-.19,2.03-.12.73-.34,1.47-.65,2.21-.31.75-.72,1.48-1.22,2.2s-1.15,1.37-1.91,1.97l-.19-.16c1.3-1.06,2.27-2.29,2.93-3.7Z"/>
            <path class="cls-4" d="m166.94,223.15l-.58-.47.24-.19c1.26-1.03,2.22-2.24,2.87-3.61h0c.64-1.37.97-2.9.97-4.56,0-.45-.03-.88-.09-1.28-.06-.4-.14-.76-.22-1.07-.08-.31-.16-.56-.23-.75-.06-.18-.1-.28-.12-.32l-.11-.22.72-.36.09.27c.11.33.21.65.3.96.09.31.17.62.22.93.06.31.1.62.13.94.03.32.04.66.04,1,0,.63-.06,1.33-.19,2.07-.13.74-.35,1.5-.66,2.27-.32.76-.74,1.52-1.25,2.25-.52.73-1.18,1.42-1.96,2.03l-.16.12Z"/>
          </g>
        </g>
        <g>
          <g>
            <path class="cls-3" d="m39.27,242c.05-.18.12-.34.21-.5.09-.16.21-.3.35-.41.14-.11.32-.17.53-.17.26,0,.47.07.64.2s.31.3.41.5c.1.2.17.42.22.65s.07.45.07.65c0,.53-.03.98-.09,1.36-.06.38-.12.7-.17.95h.02l1.84-3.31c.06-.12.13-.24.2-.36s.15-.23.23-.32c.09-.09.19-.17.31-.23.12-.06.25-.09.4-.09.19,0,.33.05.4.14.08.1.11.2.11.32,0,.15-.05.28-.14.37s-.22.14-.38.14c-.15,0-.23-.07-.23-.22,0-.09.02-.15.07-.2s.07-.1.07-.17c0-.12-.06-.17-.17-.16-.1,0-.2.08-.31.21-.11.13-.26.35-.43.67l-2.18,3.96-.7,1.3c-.14.26-.28.5-.43.74-.15.24-.31.45-.47.64-.17.18-.34.33-.53.44-.18.11-.38.17-.58.17-.3,0-.55-.07-.74-.22s-.28-.35-.28-.61c0-.21.06-.35.18-.41s.25-.1.38-.1c.1,0,.19.03.25.08.06.05.1.13.1.22,0,.07,0,.13-.02.16-.01.04-.03.07-.04.11-.02.04-.03.08-.04.12-.01.04-.02.11-.02.19,0,.09.04.16.11.22.08.06.17.08.29.08.22,0,.46-.14.7-.43.24-.29.47-.67.67-1.13.2-.47.37-1,.5-1.61.13-.6.2-1.22.2-1.85s-.02-1.13-.05-1.52c-.03-.39-.07-.7-.13-.92-.05-.22-.11-.37-.17-.44-.06-.08-.13-.11-.2-.11-.14,0-.27.05-.37.16s-.19.24-.26.39c-.07.15-.13.31-.17.47-.04.16-.08.29-.1.4l-.17-.05c.03-.13.07-.28.12-.46Z"/>
            <path class="cls-3" d="m38.53,249.53c-.36,0-.66-.09-.89-.28-.25-.19-.38-.47-.38-.8,0-.38.17-.55.31-.63.3-.17.69-.19.92,0,.08.07.19.2.19.42,0,.1,0,.18-.03.24-.01.04-.03.09-.05.13-.01.03-.02.05-.03.08,0,0,0,.04,0,.12.14.12.39.03.67-.29.23-.27.44-.63.63-1.07.2-.45.36-.98.49-1.56.13-.58.19-1.19.19-1.8s-.02-1.12-.05-1.5c-.03-.38-.07-.67-.12-.88-.06-.26-.11-.33-.12-.34-.09-.02-.15,0-.2.06-.08.09-.16.2-.22.32-.06.14-.12.28-.16.43-.04.16-.08.29-.1.39l-.06.26-.65-.19.06-.23c.03-.13.07-.28.12-.46h0c.05-.2.13-.39.23-.56.11-.19.24-.35.41-.48.4-.32,1.08-.28,1.48.03.2.15.36.35.48.58.11.22.19.46.24.71.05.25.07.48.07.69,0,.36-.01.7-.04.99l1.17-2.11c.06-.12.13-.24.2-.36.08-.14.17-.26.27-.37.11-.11.23-.2.37-.28.15-.08.33-.12.52-.12.27,0,.47.08.6.24.11.14.17.3.17.48,0,.22-.08.41-.22.55s-.33.22-.56.22c-.29,0-.48-.18-.48-.47,0-.01,0-.02,0-.04-.09.12-.19.29-.31.51l-2.88,5.25c-.14.26-.28.51-.43.76-.15.25-.32.48-.5.67-.18.2-.38.37-.58.49-.22.14-.46.2-.71.2Zm-.46-1.34c-.09,0-.18.02-.26.07-.03.02-.05.09-.05.2,0,.18.06.31.19.41.04.03.08.05.12.08-.01-.04-.02-.08-.02-.12,0-.1,0-.18.03-.25.02-.06.03-.11.06-.16.01-.03.02-.06.03-.08,0,0,0-.02,0-.08-.03-.05-.07-.05-.1-.05Zm2.68-6.94c.04.09.07.2.1.34.06.23.1.55.13.96.03.4.05.92.05,1.54s-.07,1.29-.2,1.91c-.03.13-.06.26-.09.38l.49-.9h-.08l.04-.3c.05-.25.11-.56.17-.94.06-.36.09-.81.09-1.32,0-.18-.02-.39-.06-.6-.04-.21-.1-.4-.19-.58-.08-.17-.19-.3-.34-.41-.03-.02-.07-.05-.1-.07Zm3.81-.07s.02.08.02.13c0,.13-.04.25-.12.33.11,0,.15-.04.18-.07.03-.03.07-.08.07-.2,0-.06-.02-.12-.06-.17-.01-.01-.04-.03-.08-.04Z"/>
          </g>
          <g>
            <path class="cls-3" d="m55.28,242.2v.22h-5.76v-.22h5.76Zm0,2.06v.22h-5.76v-.22h5.76Z"/>
            <path class="cls-3" d="m55.53,244.73h-6.26v-.72h6.26v.72Zm0-2.06h-6.26v-.72h6.26v.72Z"/>
          </g>
          <g>
            <path class="cls-3" d="m63.17,240.42c.13-.46.31-.9.54-1.3s.5-.75.79-1.05c.3-.3.62-.54.96-.71.34-.17.69-.26,1.03-.26.21,0,.38.03.53.09.14.06.26.14.36.23.1.09.17.19.21.3s.07.21.07.31c0,.14-.04.27-.11.41-.08.14-.22.2-.43.2-.18,0-.3-.03-.38-.1-.08-.07-.11-.15-.11-.23,0-.08.02-.15.05-.21.03-.06.07-.12.1-.17.04-.05.07-.1.1-.15.03-.05.04-.1.04-.17,0-.14-.05-.23-.14-.27-.09-.04-.2-.07-.32-.07-.36,0-.68.11-.95.34-.27.22-.5.49-.7.8s-.35.63-.47.95c-.12.32-.21.59-.26.8l-.25.91h1.48l-.05.17h-1.48l-1.07,4.07c-.14.51-.31,1.01-.52,1.49-.21.48-.45.9-.71,1.27-.27.37-.56.66-.88.88-.32.22-.65.33-1,.33-.1,0-.21-.01-.33-.04-.12-.02-.22-.07-.32-.13s-.18-.14-.24-.24c-.06-.1-.1-.23-.1-.39s.05-.28.14-.4c.09-.11.23-.17.43-.17.1,0,.19.02.25.06.06.04.1.12.1.25,0,.09-.02.18-.06.27-.04.09-.06.19-.06.31,0,.1.03.18.1.23.07.05.15.07.26.07.34,0,.66-.23.97-.69.31-.46.6-1.2.88-2.23l1.32-4.96h-1.14l.05-.17h1.14l.18-.66Z"/>
            <path class="cls-3" d="m59.6,249.53c-.12,0-.25-.01-.38-.04-.14-.03-.28-.08-.4-.16-.13-.08-.23-.19-.32-.32-.09-.14-.14-.32-.14-.53s.07-.4.2-.56c.14-.17.35-.26.62-.26.15,0,.28.03.39.1.1.06.21.19.21.46,0,.12-.03.25-.08.37-.03.06-.04.13-.04.21.02.04.06.05.11.05.25,0,.5-.19.76-.58.29-.44.58-1.16.85-2.15l1.24-4.64h-1.15l.19-.67h1.14l.13-.48c.13-.48.32-.94.56-1.35.24-.42.52-.79.83-1.1.31-.32.66-.57,1.03-.76.61-.31,1.32-.36,1.77-.18.17.07.32.17.44.28.12.11.21.24.27.39.06.14.08.27.08.4,0,.18-.05.36-.15.53-.08.15-.27.33-.64.33-.24,0-.42-.05-.54-.17-.13-.11-.2-.26-.2-.42,0-.12.03-.23.08-.33.04-.07.08-.13.12-.19.03-.05.06-.09.09-.14v-.1s-.12-.03-.2-.03c-.3,0-.56.09-.79.28-.25.21-.47.46-.64.74-.18.3-.33.6-.45.91-.12.32-.2.57-.26.78l-.17.6h1.48l-.19.67h-1.47l-1.02,3.88c-.14.52-.31,1.03-.53,1.52-.22.5-.46.94-.74,1.32-.28.39-.6.71-.94.94-.36.25-.74.38-1.14.38Zm-.42-1.36c-.17,0-.22.06-.23.08-.06.07-.08.14-.08.24,0,.11.02.2.06.26.04.07.1.12.16.16.03.02.06.03.09.05-.01-.04-.02-.09-.02-.14,0-.15.03-.28.08-.41.03-.06.04-.12.04-.17,0-.03,0-.05,0-.06,0,0-.04,0-.09,0Zm3.99-6.85l-1.31,4.94c-.18.65-.36,1.19-.55,1.61.24-.34.46-.74.65-1.18.2-.47.37-.96.5-1.45l1.03-3.92h0l.34-1.23c.06-.21.15-.49.27-.82.11-.29.24-.58.41-.86-.22.24-.42.52-.59.83-.22.38-.39.8-.52,1.24l-.23.84Zm3.98-3.76s0,.03,0,.05c0,.11-.03.21-.08.29-.03.05-.07.11-.11.17-.03.04-.06.09-.09.14-.01.02-.02.05-.02.09.03.05.08.09.24.09s.2-.06.21-.08c.06-.1.08-.19.08-.29,0-.06-.02-.13-.05-.21-.03-.08-.08-.15-.15-.21-.01-.01-.03-.03-.05-.04Z"/>
          </g>
          <g>
            <path class="cls-3" d="m71.01,242.07c.01-.05.02-.13.03-.23.01-.1.02-.21.02-.31,0-.17-.03-.32-.1-.44-.06-.12-.15-.23-.26-.31-.11-.08-.24-.14-.39-.18s-.31-.06-.48-.06c-.28,0-.54.08-.78.24-.24.16-.46.37-.66.62-.2.26-.38.55-.54.87-.16.32-.29.65-.4.97s-.19.64-.25.94c-.06.3-.08.55-.08.77,0,.43.12.75.35.96.23.21.57.32,1,.32.24,0,.45-.04.64-.13s.35-.19.5-.31.27-.26.36-.4.18-.27.24-.39l.1.06c-.03.06-.09.17-.18.31-.09.14-.2.28-.36.43-.15.14-.34.27-.56.38s-.48.16-.78.16c-.36,0-.67-.07-.92-.2-.25-.13-.45-.3-.6-.51-.15-.21-.26-.45-.33-.72s-.1-.55-.1-.84c0-.33.05-.64.15-.94.1-.3.23-.59.4-.86.17-.27.36-.52.59-.74s.46-.42.71-.58.5-.29.76-.38c.26-.09.5-.14.74-.14.18,0,.33.02.46.05.13.03.25.07.36.11s.2.08.28.11c.09.03.17.05.25.05.09,0,.15-.02.21-.07.05-.04.1-.1.13-.16l.12.02-.55,1.54h-.1Z"/>
            <path class="cls-3" d="m68.47,246.58c-.4,0-.75-.08-1.03-.22-.28-.15-.51-.35-.69-.59-.17-.24-.29-.51-.37-.81-.07-.29-.11-.59-.11-.9,0-.35.05-.69.16-1.02.1-.32.25-.63.43-.92.18-.28.39-.55.62-.78s.49-.44.75-.61c.26-.17.53-.3.81-.4.5-.18.99-.18,1.34-.1.14.03.27.07.39.12l.28.11c.06.02.11.03.16.03.07-.03.1-.06.11-.09l.08-.17.59.12-.71,1.98h-.58l.06-.3s.02-.12.03-.21c0-.09.01-.19.01-.29,0-.13-.02-.24-.07-.33-.05-.09-.11-.16-.18-.22-.08-.06-.19-.11-.31-.14-.32-.09-.72-.07-1.05.15-.22.14-.42.34-.6.57-.19.24-.36.52-.51.82-.15.31-.28.63-.39.94-.1.31-.19.62-.24.9-.05.28-.08.53-.08.72,0,.36.09.61.27.78.19.17.47.25.83.25.2,0,.38-.04.54-.1.17-.08.31-.17.44-.28.13-.11.23-.23.32-.35.09-.14.17-.26.23-.37l.12-.22.54.29-.11.22c-.03.07-.1.18-.19.33-.1.16-.23.32-.4.48-.17.16-.38.3-.62.42-.25.13-.55.19-.89.19Zm-.48-5.03c-.05.05-.1.1-.15.15-.21.21-.4.44-.55.7-.16.25-.28.52-.37.81-.09.28-.14.57-.14.87,0,.27.03.53.09.78,0,.02.01.04.02.06,0-.22.03-.47.09-.77.06-.31.14-.64.26-.97.11-.34.25-.67.41-1,.11-.22.22-.42.35-.61Zm3.21-.56s.02.04.02.05l.02-.06s-.03,0-.04,0Z"/>
          </g>
          <g>
            <path class="cls-3" d="m73.65,241.41c-.66,1.42-1,2.97-1,4.67,0,.46.03.89.1,1.3.06.41.14.78.22,1.09s.16.57.23.77c.07.2.12.31.13.34l-.24.12c-.11-.33-.21-.64-.3-.95-.09-.3-.16-.61-.22-.91-.06-.3-.1-.6-.13-.91-.03-.31-.04-.63-.04-.97,0-.62.06-1.3.19-2.03s.34-1.47.65-2.21c.3-.74.71-1.48,1.22-2.2.51-.72,1.15-1.38,1.92-1.98l.19.16c-1.3,1.06-2.28,2.29-2.94,3.71Z"/>
            <path class="cls-3" d="m72.96,250.06l-.09-.27c-.11-.33-.21-.65-.3-.96-.09-.31-.17-.63-.22-.93-.06-.31-.1-.62-.13-.94-.03-.31-.04-.64-.04-.99,0-.64.07-1.33.2-2.08.13-.75.35-1.51.66-2.27.31-.76.73-1.51,1.25-2.25.52-.74,1.19-1.42,1.97-2.03l.16-.12.58.47-.24.19c-1.26,1.03-2.23,2.25-2.87,3.62-.65,1.38-.97,2.91-.97,4.56,0,.44.03.87.09,1.26.06.4.14.76.22,1.07.08.31.16.56.23.75.06.18.1.28.12.32l.11.22-.71.36Z"/>
          </g>
          <g>
            <path class="cls-3" d="m76.95,241.99c.09-.16.21-.32.35-.47.14-.16.32-.29.52-.41s.43-.18.69-.18c.21,0,.38.04.52.11.14.08.25.17.34.28s.15.22.2.34c.04.12.08.22.1.31.06-.07.14-.17.25-.29.11-.12.24-.23.38-.34s.31-.2.5-.28c.18-.08.38-.12.58-.12.36,0,.62.1.79.29.16.2.25.41.25.65,0,.16-.05.31-.14.45-.1.14-.26.21-.49.21-.1,0-.19-.02-.26-.07-.07-.04-.11-.12-.11-.23,0-.09.02-.16.05-.22.04-.06.07-.12.11-.17.04-.05.08-.11.11-.17.04-.06.05-.14.05-.23,0-.13-.04-.22-.13-.27-.09-.05-.18-.08-.29-.08-.21,0-.41.09-.59.26-.19.18-.36.4-.53.67-.16.27-.31.57-.44.9-.13.33-.25.65-.34.97-.1.31-.17.6-.22.85-.05.26-.08.44-.08.56,0,.27.05.49.16.66s.26.25.48.25c.2,0,.38-.05.55-.15.16-.1.31-.22.44-.35.13-.14.24-.28.33-.43.09-.15.17-.28.22-.37l.16.07c-.04.07-.11.19-.2.34-.09.16-.21.31-.36.47-.15.16-.32.29-.52.41-.2.12-.43.17-.68.17-.19,0-.36-.04-.49-.11-.14-.07-.25-.16-.34-.26s-.16-.21-.2-.33c-.05-.12-.08-.22-.11-.31-.11.12-.23.24-.35.36-.12.12-.25.23-.4.32-.14.1-.3.17-.47.23-.17.06-.36.09-.58.09-.2,0-.37-.03-.5-.08-.14-.05-.25-.12-.34-.2s-.15-.18-.19-.29c-.04-.11-.06-.21-.06-.32,0-.24.06-.41.19-.52s.28-.16.44-.16c.09,0,.17.02.24.07.07.05.11.13.11.24,0,.08-.02.15-.05.2-.03.05-.07.1-.11.15s-.08.1-.11.16c-.03.06-.05.14-.05.25,0,.14.05.23.14.28s.23.07.4.07c.1,0,.2-.02.31-.05.11-.04.23-.11.35-.22.12-.11.25-.26.38-.46.13-.2.27-.47.41-.8.07-.17.15-.38.24-.62s.17-.5.25-.76c.08-.26.15-.51.2-.76.05-.24.08-.45.08-.61,0-.23-.05-.43-.15-.59-.1-.16-.27-.25-.51-.25-.19,0-.37.05-.53.16s-.31.23-.44.37-.24.29-.33.44-.15.27-.19.35l-.17-.07c.03-.07.09-.19.19-.35Z"/>
            <path class="cls-3" d="m79.68,246.62c-.23,0-.44-.05-.61-.14-.16-.09-.3-.2-.41-.32-.09-.1-.16-.22-.22-.34-.02.02-.05.05-.07.08-.13.13-.28.25-.43.35-.16.11-.34.2-.52.26-.38.14-.92.14-1.25,0-.17-.06-.31-.15-.42-.26-.12-.11-.2-.24-.25-.38-.05-.14-.08-.27-.08-.41,0-.32.09-.56.28-.71.28-.24.68-.31.98-.11.08.06.22.19.22.45,0,.13-.03.24-.08.33-.04.07-.09.13-.14.19-.03.03-.06.07-.08.11,0,0-.02.04-.02.13.05.1.23.15.52.06.08-.03.17-.08.27-.17.11-.09.22-.23.34-.41.12-.19.26-.44.39-.76.07-.16.15-.37.23-.61.09-.24.17-.5.25-.75.08-.25.14-.5.19-.73.05-.23.07-.41.07-.55,0-.18-.04-.34-.11-.46-.04-.06-.1-.13-.3-.13-.14,0-.28.04-.4.12-.14.09-.28.2-.39.33-.12.13-.22.27-.3.4-.08.14-.14.25-.18.33l-.1.22-.62-.27.1-.23c.03-.08.1-.2.2-.37h0c.1-.18.23-.35.39-.52.16-.17.35-.33.58-.46.44-.26,1.07-.28,1.46-.07.17.09.31.21.42.34.08.1.15.2.2.31.11-.12.24-.23.39-.34.16-.12.35-.22.55-.31.22-.09.44-.14.68-.14.44,0,.76.13.98.38.2.24.3.51.3.81,0,.21-.06.41-.19.59-.1.15-.3.32-.7.32-.15,0-.28-.04-.4-.1-.08-.05-.23-.18-.23-.45,0-.13.03-.25.09-.35.04-.07.08-.13.13-.19.03-.04.07-.09.1-.14,0,0,.02-.04.02-.11-.06-.08-.11-.1-.17-.1-.14,0-.28.06-.42.2-.17.16-.33.37-.49.61-.16.25-.3.54-.42.86-.13.33-.24.64-.34.95-.09.3-.17.58-.22.83-.06.3-.07.44-.07.51,0,.22.04.4.12.53.04.07.1.13.27.13s.29-.04.42-.11c.14-.09.27-.19.39-.31.12-.12.22-.25.3-.39l.34-.56.61.28-.13.24c-.04.07-.11.19-.2.35-.1.17-.23.34-.39.51-.17.17-.36.33-.58.45-.24.14-.51.21-.81.21Zm-3.38-1.57c-.11,0-.2.03-.28.1-.07.06-.1.17-.1.33,0,.07.01.15.04.23.02.07.06.12.12.18,0,0,0-.02,0-.03,0-.15.03-.27.08-.36.04-.08.09-.15.15-.21.03-.04.06-.07.09-.11,0,0,.01-.02.01-.07-.03-.05-.06-.06-.1-.06Zm2.37-.18l.12.43c.02.08.05.17.1.28,0,0,0,.01,0,.02-.01-.09-.02-.19-.02-.29,0-.14.03-.34.08-.61.05-.26.13-.56.23-.88.1-.32.22-.65.35-.99.09-.23.19-.45.3-.65l-.26.33-.13-.49c-.02-.08-.05-.18-.09-.28,0-.02-.01-.03-.02-.04.01.08.02.16.02.24,0,.18-.03.39-.08.66-.05.25-.12.51-.2.78-.08.26-.17.52-.25.77-.09.25-.17.47-.25.64-.06.15-.12.28-.19.4l.3-.32Zm3.33-3.47s0,.03,0,.04c0,.14-.03.26-.09.36-.04.07-.08.13-.13.19-.03.04-.07.09-.1.14-.01.02-.02.05-.02.09.02.04.06.05.12.05.22,0,.27-.08.29-.1.07-.1.1-.2.1-.31,0-.17-.06-.33-.17-.48Z"/>
          </g>
          <g>
            <path class="cls-3" d="m84.6,245.85c.66-1.41.99-2.97.99-4.66,0-.46-.03-.9-.1-1.31-.06-.41-.14-.78-.22-1.09s-.16-.57-.23-.77c-.07-.2-.12-.31-.13-.34l.24-.12c.11.33.21.64.3.95.09.3.16.61.22.91.06.3.1.6.13.91.03.31.04.63.04.98,0,.62-.06,1.3-.19,2.03s-.34,1.47-.65,2.21c-.31.75-.72,1.48-1.22,2.2s-1.15,1.37-1.91,1.97l-.19-.16c1.3-1.06,2.27-2.29,2.93-3.7Z"/>
            <path class="cls-3" d="m81.86,250.02l-.58-.48.24-.19c1.26-1.03,2.22-2.24,2.87-3.61.64-1.37.97-2.91.97-4.56,0-.45-.03-.88-.09-1.28-.06-.4-.14-.76-.22-1.07-.08-.31-.16-.56-.23-.75-.07-.18-.11-.28-.12-.32l-.11-.22.72-.36.09.27c.11.33.21.65.3.96.09.31.17.63.22.93.06.31.1.62.13.93.03.32.04.65.04,1,0,.64-.06,1.33-.19,2.07-.13.74-.35,1.5-.66,2.27-.31.76-.73,1.52-1.25,2.25-.52.73-1.18,1.41-1.96,2.03l-.16.12Z"/>
          </g>
        </g>
        <g>
          <path class="cls-1" d="m127.44,181.97c-.05.19-.08.36-.08.52,0,.21.1.31.3.31.16,0,.3-.05.43-.14.13-.09.24-.2.33-.31.09-.12.17-.23.23-.35.06-.12.1-.2.13-.25l.16.08c-.04.09-.1.2-.18.34-.08.14-.18.27-.31.39s-.28.23-.44.32-.36.14-.59.14c-.53,0-.79-.24-.79-.72,0-.06.01-.15.04-.29.02-.14.06-.27.1-.38h-.02c-.11.14-.24.29-.38.45-.14.16-.31.32-.49.46-.18.14-.38.26-.59.35-.22.09-.46.14-.72.14-.17,0-.33-.03-.49-.09-.16-.06-.29-.15-.41-.28-.12-.12-.21-.28-.28-.47-.07-.19-.1-.42-.1-.68,0-.32.06-.64.19-.96.13-.32.29-.63.5-.92.2-.29.44-.56.71-.81.27-.25.54-.46.82-.65.28-.18.55-.33.82-.43s.51-.16.71-.16c.24,0,.44.07.61.2.17.14.25.32.25.54h.02l.2-.59h.84l-1.31,3.64c-.07.21-.13.41-.19.6Zm.28-3.21c.03-.11.04-.2.04-.28,0-.07,0-.15-.03-.23s-.06-.16-.11-.23c-.05-.07-.12-.13-.21-.19-.09-.05-.2-.08-.35-.08-.26,0-.52.07-.77.22s-.49.34-.71.58c-.22.24-.42.51-.61.82-.18.31-.34.62-.47.94-.13.32-.23.62-.31.92-.07.3-.11.56-.11.78,0,.26.05.46.15.62s.27.24.5.24.47-.07.71-.22c.24-.14.46-.32.66-.52s.37-.4.52-.6c.14-.2.24-.36.28-.47l.64-1.76c.1-.26.16-.44.19-.55Z"/>
          <path class="cls-1" d="m127.41,183.28c-.62,0-.99-.31-1.04-.86-.11.11-.23.22-.36.32-.2.15-.42.28-.65.38-.41.18-.93.23-1.39.05-.19-.07-.36-.19-.5-.34-.14-.15-.26-.34-.34-.56-.08-.22-.12-.48-.12-.77,0-.35.07-.71.21-1.05.13-.34.31-.66.52-.97.21-.31.46-.59.74-.85.27-.25.56-.48.85-.67.29-.19.58-.35.86-.46.67-.26,1.19-.22,1.57.09.03.02.06.05.08.08l.06-.18h1.37l-1.43,3.97c-.07.2-.13.39-.18.58-.05.17-.07.32-.07.45,0,.05,0,.06,0,.07.15,0,.24-.03.33-.09.11-.08.2-.17.28-.26.08-.1.15-.21.2-.31l.24-.47.59.32-.1.21c-.04.09-.11.21-.19.36-.09.15-.21.3-.35.44-.14.14-.31.26-.5.36-.21.11-.44.17-.71.17Zm-.39-1.89h.06l-.1.33c-.04.1-.06.21-.09.34-.02.12-.03.2-.03.25,0,.22.06.38.29.44-.03-.08-.05-.16-.05-.26,0-.17.03-.37.09-.58.05-.2.12-.4.19-.62l1.19-3.3h-.31l-.2.59h-.06c0,.08-.02.16-.05.25h0c-.03.11-.09.3-.19.57l-.63,1.76c-.02.07-.06.14-.11.23Zm.04-3.39c-.22,0-.43.06-.65.19-.23.13-.45.31-.65.54-.21.23-.4.49-.58.78-.18.3-.33.6-.46.9-.13.3-.23.6-.29.88-.07.28-.1.52-.1.72s.04.37.11.49c.04.06.1.12.29.12s.38-.06.58-.18c.22-.13.43-.29.61-.48s.35-.38.49-.57c.16-.22.22-.34.24-.41l.64-1.77c.09-.25.15-.42.18-.52h0c.02-.09.03-.16.03-.22,0-.05,0-.11-.02-.18-.01-.05-.03-.1-.07-.15-.03-.04-.08-.08-.13-.12-.05-.03-.12-.04-.22-.04Zm-2,.79c-.08.07-.16.14-.23.21-.25.23-.48.49-.67.77-.19.27-.35.57-.47.87-.12.29-.17.58-.17.87,0,.23.03.44.09.6.06.16.13.29.23.38.04.04.07.07.11.1-.07-.17-.1-.36-.1-.58,0-.24.04-.52.11-.84.08-.31.18-.63.32-.96.14-.33.3-.65.49-.97.09-.16.19-.31.3-.45Z"/>
        </g>
        <path class="cls-3" d="m123.27,255.33c-.51,0-1.01-.01-1.51-.03l.08-2c.47.02.95.03,1.43.03v2Zm-4.58-.28c-1.02-.13-2.04-.3-3.03-.52l.43-1.95c.93.2,1.89.37,2.85.49l-.25,1.98Zm-6-1.31c-.97-.31-1.94-.67-2.89-1.06l.78-1.84c.89.37,1.8.71,2.71,1l-.6,1.91Zm-5.66-2.38c-.89-.47-1.78-.99-2.64-1.55l1.08-1.68c.82.53,1.66,1.02,2.5,1.47l-.94,1.77Zm-5.15-3.31c-.79-.6-1.59-1.25-2.37-1.94l1.32-1.51c.75.65,1.51,1.27,2.26,1.85l-1.21,1.59Zm-4.61-4.02c-.71-.7-1.42-1.44-2.11-2.2l1.48-1.34c.67.74,1.35,1.45,2.04,2.13l-1.41,1.42Zm-4.1-4.51c-.64-.77-1.27-1.57-1.89-2.38l1.59-1.21c.6.79,1.21,1.57,1.84,2.32l-1.54,1.27Zm-3.68-4.83c-.58-.82-1.15-1.65-1.71-2.5l1.67-1.11c.55.83,1.11,1.65,1.68,2.45l-1.63,1.15Zm-3.35-5.05c-.53-.85-1.06-1.71-1.58-2.58l1.72-1.03c.51.86,1.03,1.71,1.56,2.54l-1.69,1.06Zm-3.11-5.18c-.5-.87-.99-1.74-1.48-2.63l1.75-.97c.49.87.98,1.74,1.47,2.6l-1.73,1Zm-2.94-5.27c-.48-.88-.95-1.76-1.42-2.65l1.77-.94c.47.88.94,1.76,1.42,2.64l-1.76.95Zm-2.83-5.31l-1.39-2.66,1.77-.93,1.39,2.66-1.77.93Zm-2.79-5.33l-1.39-2.66,1.77-.93,1.4,2.66-1.77.93Zm-2.79-5.31c-.47-.88-.94-1.76-1.41-2.63l1.76-.95c.48.88.95,1.76,1.42,2.64l-1.77.94Zm-2.85-5.25c-.49-.87-.98-1.74-1.47-2.6l1.73-1c.5.87.99,1.74,1.48,2.63l-1.75.97Zm-2.98-5.18c-.51-.86-1.03-1.71-1.55-2.54l1.7-1.06c.53.85,1.06,1.71,1.58,2.58l-1.72,1.03Zm-3.16-5.05c-.55-.83-1.11-1.65-1.67-2.46l1.64-1.15c.58.82,1.14,1.66,1.7,2.51l-1.67,1.1Zm-3.42-4.86c-.6-.79-1.21-1.57-1.83-2.33l1.55-1.26c.64.78,1.26,1.58,1.88,2.39l-1.6,1.2Zm-3.75-4.58c-.67-.75-1.35-1.47-2.02-2.15l1.42-1.41c.7.7,1.4,1.45,2.09,2.22l-1.49,1.33Zm-4.15-4.17c-.73-.66-1.49-1.29-2.24-1.88l1.23-1.57c.79.62,1.58,1.28,2.35,1.97l-1.34,1.49Zm-4.6-3.6c-.81-.55-1.65-1.06-2.48-1.53l.98-1.74c.88.49,1.76,1.04,2.61,1.61l-1.12,1.66Zm-5.06-2.84c-.88-.4-1.79-.77-2.69-1.08l.67-1.89c.96.34,1.92.73,2.85,1.15l-.83,1.82Zm-5.46-1.92c-.92-.24-1.88-.44-2.84-.59l.32-1.97c1.01.17,2.03.38,3.01.63l-.5,1.94Zm-5.72-.94c-.95-.07-1.93-.11-2.9-.11v-2c1.03,0,2.06.04,3.06.12l-.16,1.99Z"/>
        <path class="cls-4" d="m179.98,246.5c-54.84,0-66.53-23.35-77.83-45.93-11.5-22.97-22.36-44.68-75.61-44.68v-2c54.48,0,66.13,23.27,77.4,45.78,11.54,23.05,22.44,44.82,76.04,44.82v2Z"/>
        <g>
          <rect class="cls-1" x="26.55" y="186.18" width="1.5" height=".5"/>
          <path class="cls-1" d="m173.17,186.68h-3.02v-.5h3.02v.5Zm-6.05,0h-3.02v-.5h3.02v.5Zm-6.05,0h-3.02v-.5h3.02v.5Zm-6.05,0h-3.02v-.5h3.02v.5Zm-6.05,0h-3.02v-.5h3.02v.5Zm-6.05,0h-3.02v-.5h3.02v.5Zm-6.05,0h-3.02v-.5h3.02v.5Zm-6.05,0h-3.02v-.5h3.02v.5Zm-6.05,0h-3.02v-.5h3.02v.5Zm-6.05,0h-3.02v-.5h3.02v.5Zm-6.05,0h-3.02v-.5h3.02v.5Zm-6.05,0h-3.02v-.5h3.02v.5Zm-6.05,0h-3.02v-.5h3.02v.5Zm-6.05,0h-3.02v-.5h3.02v.5Zm-6.05,0h-3.02v-.5h3.02v.5Zm-6.05,0h-3.02v-.5h3.02v.5Zm-6.05,0h-3.02v-.5h3.02v.5Zm-6.05,0h-3.02v-.5h3.02v.5Zm-6.05,0h-3.02v-.5h3.02v.5Zm-6.05,0h-3.02v-.5h3.02v.5Zm-6.05,0h-3.02v-.5h3.02v.5Zm-6.05,0h-3.02v-.5h3.02v.5Zm-6.05,0h-3.02v-.5h3.02v.5Zm-6.05,0h-3.02v-.5h3.02v.5Z"/>
          <rect class="cls-1" x="176.19" y="186.18" width="1.5" height=".5"/>
        </g>
      </g>
      <g>
        <path class="cls-2" d="m180.15,258.93H26.21V115.14h154.02v.25l-.08,143.55Zm-153.44-.5h152.94l.08-142.8H26.71v142.8Z"/>
        <g>
          <path d="m95.21,264.09v5.82h-1.58v-5.82h1.58Zm.66,5.82h-1.59v-1.34h1.53c.29,0,.54-.05.74-.14s.36-.25.47-.48.16-.54.16-.95-.05-.72-.16-.95-.27-.39-.48-.48-.47-.14-.77-.14h-1.51v-1.34h1.59c.6,0,1.12.12,1.55.35s.77.57,1.01,1,.36.96.36,1.56-.12,1.12-.35,1.56-.57.77-1,1-.94.35-1.54.35Z"/>
          <path d="m101.43,269.99c-.47,0-.88-.09-1.22-.28s-.6-.45-.77-.79-.27-.73-.27-1.18.09-.84.27-1.18.44-.6.77-.79.74-.28,1.22-.28.88.09,1.22.28.6.45.77.79.27.73.27,1.18-.09.84-.27,1.18-.44.6-.77.79-.74.28-1.22.28Zm0-1.17c.14,0,.25-.04.35-.13s.17-.21.22-.37.08-.36.08-.58-.03-.42-.08-.58-.13-.28-.22-.36-.21-.12-.35-.12-.26.04-.36.12-.18.2-.23.36-.08.35-.08.58.03.42.08.58.13.29.23.37.22.13.36.13Z"/>
          <path d="m108.12,266.97h-1.44c-.01-.13-.07-.24-.19-.31s-.25-.12-.4-.12c-.14,0-.25.02-.34.07s-.14.12-.14.21c0,.06.03.13.08.18s.17.1.33.13l.89.16c.45.08.78.21,1,.41s.33.45.33.77-.09.58-.27.81-.43.4-.75.53-.68.19-1.08.19c-.67,0-1.19-.14-1.56-.41s-.59-.63-.63-1.08h1.55c.02.14.09.24.21.32s.26.11.44.11c.15,0,.27-.02.36-.07s.14-.12.14-.21c0-.15-.17-.26-.5-.32l-.77-.14c-.44-.08-.77-.23-1-.44s-.33-.49-.33-.84c0-.3.08-.56.24-.77s.39-.37.7-.48.66-.17,1.08-.17c.63,0,1.13.13,1.49.39s.55.62.57,1.08Z"/>
          <path d="m110.75,269.99c-.47,0-.87-.09-1.21-.27s-.6-.44-.78-.77-.27-.74-.27-1.21.09-.84.27-1.18.44-.6.77-.79.72-.28,1.17-.28c.33,0,.63.05.9.15s.5.25.69.45.34.43.44.71.15.59.15.94v.36h-3.9v-.86h3.16l-.73.18c0-.18-.03-.33-.08-.45s-.13-.21-.23-.28-.23-.1-.38-.1-.28.03-.38.1-.18.16-.23.28-.08.27-.08.45v.62c0,.17.03.32.09.45s.15.23.26.3.24.11.39.11c.11,0,.2-.02.29-.04s.16-.07.22-.13.11-.13.14-.21h1.43c-.05.3-.16.56-.35.79s-.42.39-.72.52-.65.18-1.05.18Z"/>
        </g>
        <g>
          <path d="m12.56,201.27l4.1-1.19v-.05l-4.1-1.2v-1.78l5.82,1.92v2.16l-5.82,1.92v-1.79Z"/>
          <path d="m13.57,195.88c0,.21-.07.4-.21.55s-.31.23-.51.23-.37-.08-.51-.23-.21-.33-.21-.55.07-.4.21-.55.31-.23.51-.23.37.08.51.23.21.33.21.55Zm4.81.78h-4.37v-1.57h4.37v1.57Z"/>
          <path d="m18.45,193.27c0,.28-.05.53-.14.74s-.23.38-.42.5-.43.18-.71.18c-.24,0-.44-.04-.61-.12s-.31-.19-.42-.34-.19-.32-.25-.51-.1-.4-.11-.63c-.02-.24-.04-.44-.07-.59s-.06-.25-.12-.32-.12-.1-.2-.1h-.02c-.11,0-.2.04-.26.13s-.09.2-.09.33c0,.15.03.27.1.37s.17.15.3.17v1.44c-.27-.02-.51-.1-.73-.25s-.4-.37-.54-.66-.2-.65-.2-1.09c0-.31.04-.59.11-.84s.17-.46.3-.63.28-.31.46-.4.36-.14.56-.14h2.99v1.47h-.62v.03c.16.09.3.19.4.32s.17.26.22.42.07.33.07.52Zm-.99-.51c0-.12-.02-.23-.07-.34s-.12-.19-.21-.26-.21-.1-.34-.1h-.36s.03.09.05.13.03.1.04.15.02.11.04.16.02.12.03.18c.02.12.05.22.09.3s.1.13.16.17.13.05.21.05c.12,0,.22-.04.28-.13s.1-.19.1-.33Z"/>
          <path d="m18.43,187.09c0,.2-.03.38-.1.54s-.16.3-.28.41-.25.2-.4.26v.04h.72v1.55h-5.82v-1.57h2.22v-.02c-.15-.06-.29-.14-.41-.25s-.22-.25-.3-.41-.11-.35-.11-.57c0-.29.08-.56.23-.82s.4-.47.72-.63.76-.25,1.29-.25.92.08,1.25.23.58.36.74.62.24.55.24.86Zm-1.2.58c0-.15-.04-.27-.12-.37s-.2-.18-.36-.23-.34-.08-.55-.08-.4.03-.56.08-.27.13-.36.23-.12.22-.12.37.04.27.12.37.2.18.36.24.34.08.56.08.39-.03.55-.08.27-.14.36-.24.13-.23.13-.37Z"/>
          <path d="m13.57,184.14c0,.21-.07.4-.21.55s-.31.23-.51.23-.37-.08-.51-.23-.21-.33-.21-.55.07-.4.21-.55.31-.23.51-.23.37.08.51.23.21.33.21.55Zm4.81.78h-4.37v-1.57h4.37v1.57Z"/>
          <path d="m12.56,181.17h5.82v1.57h-5.82v-1.57Z"/>
          <path d="m13.57,179.78c0,.21-.07.4-.21.55s-.31.23-.51.23-.37-.08-.51-.23-.21-.33-.21-.55.07-.4.21-.55.31-.23.51-.23.37.08.51.23.21.33.21.55Zm4.81.78h-4.37v-1.57h4.37v1.57Z"/>
          <path d="m12.97,178.1v-1.57h4c.09,0,.16-.02.21-.07s.07-.12.07-.23c0-.05,0-.1-.02-.17s-.02-.11-.03-.14l1.11-.23c.05.18.08.34.11.49s.03.29.03.43c0,.49-.11.86-.34,1.11s-.55.37-.99.37h-4.15Zm1.04-2.32h1.14v2.88h-1.14v-2.88Z"/>
          <path d="m20.01,174.37c0,.18,0,.35-.04.52s-.06.31-.11.43l-1.12-.34v-.02c.07-.19.1-.35.09-.49s-.07-.23-.19-.28l-.08-.03-4.56,1.53v-1.63l3.02-.7v-.05l-3.02-.72v-1.65l4.73,1.59c.24.08.46.19.65.34s.34.35.45.59.17.55.17.92Z"/>
        </g>
      </g>
    </g>
    <g>
      <polygon class="cls-2" points="136.61 270.89 136.61 283.12 64.19 283.12 136.61 270.89"/>
      <path class="cls-2" d="m136.86,283.37h-72.67l-.04-.5,72.71-12.28v12.77Zm-69.69-.5h69.19v-11.68l-69.19,11.68Z"/>
    </g>
  </g>
</svg>