<?xml version="1.0" encoding="utf-8"?>
<!-- Generator: Adobe Illustrator 27.5.0, SVG Export Plug-In . SVG Version: 6.00 Build 0)  -->
<svg version="1.1" id="Layer_2_00000088855182632092583300000011655583514302315428_"
	 xmlns="http://www.w3.org/2000/svg" xmlns:xlink="http://www.w3.org/1999/xlink" x="0px" y="0px" viewBox="0 0 1000 175"
	 style="enable-background:new 0 0 1000 175;" xml:space="preserve">
<style type="text/css">
	.st0{fill:#AD2028;}
	.st1{fill:#FFCD00;}
	.st2{fill:#69488A;}
	.st3{fill:#EF6C3E;}
	.st4{fill:#00ABD3;}
	.st5{fill:#80B842;}
</style>
<g id="Layer_1-2">
	<g>
		<g>
			<g>
				<path class="st0" d="M439.2,166.2h-21.5V2.9h21.5V166.2L439.2,166.2z"/>
				<rect x="476.8" y="2.9" class="st1" width="8.9" height="163.3"/>
				<rect x="539.8" y="2.9" class="st2" width="8.9" height="163.3"/>
				<rect x="458.7" y="2.9" class="st3" width="9.9" height="163.3"/>
				<rect x="520" y="2.9" class="st4" width="11.2" height="163.3"/>
				<rect x="499" y="2.9" class="st5" width="15.3" height="163.3"/>
			</g>
			<path d="M0,166.2V2.9h113.8c10.2,0,18.9,2.1,26.3,6.4c7.4,4.3,13.1,10.2,17,17.6c4,7.5,6,16,6,25.5c0,9.7-2,18.3-6,25.7
				c-4,7.5-9.6,13.3-16.9,17.6c-7.3,4.3-16.1,6.4-26.4,6.4H21v64L0,166.2L0,166.2z M21,84h88.3c10.6,0,18.7-2.9,24.3-8.7
				c5.6-5.8,8.3-13.4,8.3-22.7c0-6.3-1.3-11.9-3.9-16.7c-2.6-4.8-6.4-8.5-11.2-11.2c-4.8-2.7-10.7-4-17.5-4H21V84L21,84z"/>
			<path d="M204.1,166.2V2.9h119.5c10.6,0,19.6,2.1,26.8,6.3c7.2,4.2,12.7,9.9,16.4,17.1c3.7,7.2,5.6,15.4,5.6,24.6
				c0,10.5-2.7,19.8-8.1,28c-5.4,8.2-13.2,13.9-23.3,17.3l35.7,70h-23.8l-33.6-66.4H225v66.4L204.1,166.2L204.1,166.2z M225,81.9
				h94.5c9.8,0,17.5-2.9,23.1-8.7c5.6-5.8,8.3-13.1,8.3-22c0-6.2-1.2-11.5-3.7-16.1c-2.5-4.5-6-8.1-10.7-10.6
				c-4.7-2.5-10.4-3.8-17-3.8H225L225,81.9L225,81.9z"/>
			<path d="M675.4,169c-11.3,0-22.1-0.7-32.4-2c-10.3-1.3-19.5-3.8-27.5-7.3c-8-3.5-14.3-8.5-18.9-15c-4.6-6.5-6.9-14.8-6.9-25v-2.6
				c0-0.8,0.1-1.3,0.2-1.7h21c-0.2,0.8-0.3,1.7-0.4,2.9c-0.1,1.1-0.1,2.5-0.1,4.3c0,6.2,2.6,11.4,7.7,15.7
				c5.2,4.3,12.6,7.5,22.3,9.6c9.7,2.1,21.2,3.2,34.5,3.2c6.3,0,12.5-0.3,18.6-1c6-0.6,11.7-1.6,16.9-3c5.2-1.3,9.8-3.1,13.7-5.4
				c3.9-2.2,7-5,9.3-8.2c2.3-3.3,3.5-7,3.5-11.3c0-5.9-2-10.6-6-14.3c-4-3.7-9.3-6.6-16.1-8.8c-6.7-2.2-14.4-4-22.9-5.5
				c-8.5-1.4-17.2-2.8-26.1-4.2c-8.9-1.3-17.5-3.1-26-5.1c-8.4-2.1-16-4.7-22.7-8c-6.7-3.3-12.1-7.5-16.1-12.9c-4-5.3-6-12-6-20.1
				c0-6,1.4-11.7,4.3-16.9c2.9-5.2,7.5-9.9,13.8-13.9c6.3-4,14.6-7.2,24.9-9.4C648.4,1.1,660.8,0,675.4,0c14.9,0,27.3,1.3,37.1,3.8
				c9.8,2.5,17.6,6,23.3,10.2c5.7,4.3,9.7,9,12,14.2c2.3,5.2,3.5,10.3,3.5,15.4v4.8h-20.7v-5c0-4.4-2-8.6-6.1-12.5
				c-4-3.9-10-7-18-9.4c-7.9-2.4-17.7-3.6-29.3-3.6c-13.3,0-24.5,1-33.5,2.9c-9,1.9-15.7,4.7-20.2,8.5c-4.5,3.7-6.8,8.3-6.8,13.7
				c0,5.1,1.9,9.2,5.8,12.5c3.9,3.3,9.2,5.9,16.1,7.9c6.8,2,14.4,3.7,22.9,5.1c8.4,1.4,17.1,2.9,26,4.3c8.9,1.4,17.5,3.2,26,5.2
				c8.4,2.1,16,4.8,22.9,8.2c6.8,3.4,12.2,7.9,16.1,13.3c3.9,5.5,5.8,12.2,5.8,20.1c0,12.2-3.5,22-10.5,29.3
				c-7,7.3-16.7,12.5-29.2,15.6C706.2,167.5,691.8,169,675.4,169L675.4,169z"/>
			<path d="M799.3,166.2V2.9h31.2l55.2,110.9c1.1,2.1,2.5,4.9,4.2,8.5c1.7,3.6,3.3,7.2,4.9,10.8c1.6,3.7,3,6.9,4.3,9.8h1.4
				c1.1-2.5,2.4-5.5,3.9-8.9c1.5-3.4,3.1-6.9,4.8-10.5c1.7-3.6,3.1-6.6,4.4-9.2L968.8,2.9h31.2v163.3h-21.2V58.6
				c0-2.9,0-6.2,0.1-10.1c0.1-3.9,0.2-7.7,0.2-11.5c0.1-3.8,0.1-7.1,0.1-9.8h-1.7c-1,2.1-2.1,4.5-3.3,7.4c-1.3,2.9-2.6,5.8-3.9,8.8
				c-1.3,3-2.6,5.6-3.7,7.9l-56.9,115h-21l-57.1-115c-1.4-2.9-2.8-5.8-4.2-8.9c-1.4-3.1-2.6-6-3.8-8.6s-2.2-4.8-3-6.5h-1.7
				c0,2.5,0,5.7,0.1,9.5c0.1,3.8,0.2,7.6,0.2,11.4c0.1,3.8,0.1,7.3,0.1,10.5v107.6L799.3,166.2L799.3,166.2z"/>
		</g>
	</g>
</g>
</svg>
